%TF.GenerationSoftware,KiCad,Pcbnew,10.0.2*%
%TF.CreationDate,2026-05-30T16:51:19-05:00*%
%TF.ProjectId,OM-FlexGrid-Rigid-PCB,4f4d2d46-6c65-4784-9772-69642d526967,rev?*%
%TF.SameCoordinates,Original*%
%TF.FileFunction,Copper,L2,Inr*%
%TF.FilePolarity,Positive*%
%FSLAX46Y46*%
G04 Gerber Fmt 4.6, Leading zero omitted, Abs format (unit mm)*
G04 Created by KiCad (PCBNEW 10.0.2) date 2026-05-30 16:51:19*
%MOMM*%
%LPD*%
G01*
G04 APERTURE LIST*
%TA.AperFunction,ComponentPad*%
%ADD10R,1.000000X1.000000*%
%TD*%
%TA.AperFunction,ComponentPad*%
%ADD11C,1.000000*%
%TD*%
%TA.AperFunction,ComponentPad*%
%ADD12R,1.350000X1.350000*%
%TD*%
%TA.AperFunction,ComponentPad*%
%ADD13C,1.350000*%
%TD*%
%TA.AperFunction,ComponentPad*%
%ADD14R,1.700000X1.700000*%
%TD*%
%TA.AperFunction,ComponentPad*%
%ADD15C,1.700000*%
%TD*%
%TA.AperFunction,HeatsinkPad*%
%ADD16O,2.100000X1.000000*%
%TD*%
%TA.AperFunction,HeatsinkPad*%
%ADD17O,1.600000X1.000000*%
%TD*%
%TA.AperFunction,ViaPad*%
%ADD18C,0.600000*%
%TD*%
G04 APERTURE END LIST*
D10*
%TO.N,GP41*%
%TO.C,J1*%
X148460000Y-100250000D03*
D11*
%TO.N,SPI_MOSI*%
X148460000Y-98980000D03*
%TO.N,SPI_SCK*%
X149730000Y-100250000D03*
%TO.N,SPI_MISO*%
X149730000Y-98980000D03*
%TO.N,CS*%
X151000000Y-100250000D03*
%TO.N,GP40*%
X151000000Y-98980000D03*
%TD*%
D12*
%TO.N,GND*%
%TO.C,J7*%
X144500000Y-126500000D03*
D13*
%TO.N,+3V3*%
X142500000Y-126500000D03*
%TD*%
D14*
%TO.N,GND*%
%TO.C,J2*%
X171000000Y-80500000D03*
D15*
%TO.N,VBAT*%
X168460000Y-80500000D03*
%TD*%
D14*
%TO.N,GND*%
%TO.C,SCRN1*%
X161540000Y-102000000D03*
D15*
%TO.N,+3V3*%
X159000000Y-102000000D03*
%TO.N,SCL*%
X156460000Y-102000000D03*
%TO.N,SDA*%
X153920000Y-102000000D03*
%TD*%
D16*
%TO.N,GND*%
%TO.C,J4*%
X167415000Y-110500000D03*
D17*
X171595000Y-110500000D03*
D16*
X167415000Y-101860000D03*
D17*
X171595000Y-101860000D03*
%TD*%
D10*
%TO.N,GND*%
%TO.C,J6*%
X170500000Y-93750000D03*
D11*
%TO.N,RX*%
X170500000Y-95020000D03*
%TO.N,TX*%
X170500000Y-96290000D03*
%TD*%
D12*
%TO.N,VBAT*%
%TO.C,J5*%
X144000000Y-102000000D03*
D13*
%TO.N,MotorGND*%
X142000000Y-102000000D03*
%TD*%
D18*
%TO.N,GND*%
X162500000Y-88000000D03*
X147500000Y-120800000D03*
X154000000Y-87500000D03*
X157000000Y-111000000D03*
X171500000Y-115300000D03*
X161950000Y-113500000D03*
X165500000Y-78530000D03*
X160000000Y-92500000D03*
X146000000Y-83750000D03*
X161850000Y-106000000D03*
X148000000Y-78530000D03*
X154000000Y-109500000D03*
X165000000Y-121250000D03*
X151500000Y-127000000D03*
X170000000Y-124250000D03*
X163750000Y-108950000D03*
X158250000Y-86250000D03*
X143550000Y-90000000D03*
X141850000Y-113300000D03*
X170000000Y-121250000D03*
X156850000Y-87650000D03*
X141500000Y-87000000D03*
X141850000Y-105800000D03*
X163100000Y-112000000D03*
X151500000Y-121500000D03*
X158500000Y-78500000D03*
X161100000Y-83000000D03*
X165000000Y-124250000D03*
%TO.N,ROW_2*%
X162500000Y-126500000D03*
%TO.N,VBUS*%
X145500000Y-91500000D03*
X169750000Y-89750000D03*
X168527500Y-107527500D03*
X168575000Y-104880000D03*
X150500000Y-89000000D03*
X145500000Y-87000000D03*
%TO.N,SELECT*%
X159925000Y-96290000D03*
%TO.N,+3V3*%
X162900000Y-91750000D03*
X159500000Y-121500000D03*
X158725000Y-89950000D03*
X152752162Y-108872354D03*
X159275000Y-115500000D03*
X163000000Y-81000000D03*
%TO.N,MENU*%
X153250000Y-95100000D03*
%TO.N,SPI_MOSI*%
X155000000Y-97750000D03*
%TO.N,SPI_MISO*%
X157250000Y-98500000D03*
%TO.N,PWR_OFF*%
X160500000Y-81500000D03*
%TO.N,ROW_3*%
X164000000Y-127250000D03*
%TO.N,VBAT*%
X142500000Y-91500000D03*
%TO.N,EN*%
X170000000Y-103500000D03*
%TO.N,ADC_BAT*%
X165500000Y-91230000D03*
%TO.N,ROW_0*%
X160500000Y-121000000D03*
%TO.N,COL_0*%
X150000000Y-124500000D03*
%TO.N,COL_1*%
X150800000Y-124800000D03*
%TO.N,COL_2*%
X151623836Y-124821741D03*
%TO.N,COL_3*%
X153166175Y-125019853D03*
%TO.N,COL_4*%
X153812471Y-125491887D03*
%TO.N,COL_5*%
X154590572Y-125305976D03*
%TO.N,COL_6*%
X155614952Y-124483578D03*
%TO.N,COL_7*%
X156674265Y-124174265D03*
%TO.N,COL_8*%
X152578185Y-117500000D03*
%TO.N,COL_9*%
X153100000Y-118111472D03*
%TO.N,COL_10*%
X153771509Y-118546305D03*
%TO.N,COL_11*%
X154570170Y-118500000D03*
%TO.N,COL_12*%
X155091684Y-119106652D03*
%TO.N,COL_13*%
X156000000Y-119300000D03*
%TO.N,COL_14*%
X157000000Y-119700000D03*
%TO.N,ROW_1*%
X161500000Y-122000000D03*
%TO.N,SDA*%
X163500000Y-95040698D03*
%TO.N,100*%
X148000000Y-97000000D03*
%TO.N,D+*%
X164873894Y-104911881D03*
%TO.N,D-*%
X169400000Y-105900000D03*
%TO.N,RX*%
X157750000Y-94000000D03*
%TO.N,TX*%
X156500000Y-94000000D03*
%TO.N,S0*%
X167965148Y-100265153D03*
X151900000Y-119521815D03*
%TO.N,S1*%
X167000000Y-100050003D03*
X150750000Y-120750000D03*
%TO.N,S3*%
X166867731Y-98242731D03*
X151500000Y-114750000D03*
%TO.N,S2*%
X167000000Y-99250000D03*
X150750000Y-116750000D03*
%TO.N,GP16_E*%
X150750000Y-107500000D03*
X166002983Y-98258949D03*
%TO.N,MOT_SIG*%
X165750000Y-97500000D03*
X148750000Y-107750000D03*
%TD*%
%TA.AperFunction,Conductor*%
%TO.N,GND*%
G36*
X147000000Y-78000000D02*
G01*
X166000000Y-78000000D01*
X172518220Y-77616574D01*
X172586298Y-77632288D01*
X172635075Y-77682314D01*
X172649500Y-77740360D01*
X172649500Y-100929462D01*
X172629815Y-100996501D01*
X172577011Y-101042256D01*
X172507853Y-101052200D01*
X172456609Y-101032564D01*
X172368684Y-100973814D01*
X172368671Y-100973807D01*
X172186693Y-100898430D01*
X172186681Y-100898427D01*
X171993495Y-100860000D01*
X171845000Y-100860000D01*
X171845000Y-101560000D01*
X171345000Y-101560000D01*
X171345000Y-100860000D01*
X171196504Y-100860000D01*
X171003318Y-100898427D01*
X171003306Y-100898430D01*
X170821328Y-100973807D01*
X170821315Y-100973814D01*
X170657537Y-101083248D01*
X170657533Y-101083251D01*
X170518251Y-101222533D01*
X170518248Y-101222537D01*
X170408814Y-101386315D01*
X170408807Y-101386328D01*
X170333430Y-101568307D01*
X170333430Y-101568309D01*
X170325138Y-101610000D01*
X171128012Y-101610000D01*
X171110795Y-101619940D01*
X171054940Y-101675795D01*
X171015444Y-101744204D01*
X170995000Y-101820504D01*
X170995000Y-101899496D01*
X171015444Y-101975796D01*
X171054940Y-102044205D01*
X171110795Y-102100060D01*
X171128012Y-102110000D01*
X170325138Y-102110000D01*
X170333430Y-102151690D01*
X170333430Y-102151692D01*
X170408807Y-102333671D01*
X170408814Y-102333684D01*
X170518248Y-102497462D01*
X170518251Y-102497466D01*
X170657533Y-102636748D01*
X170657537Y-102636751D01*
X170821315Y-102746185D01*
X170821328Y-102746192D01*
X171003306Y-102821569D01*
X171003318Y-102821572D01*
X171196504Y-102859999D01*
X171196508Y-102860000D01*
X171345000Y-102860000D01*
X171345000Y-102160000D01*
X171845000Y-102160000D01*
X171845000Y-102860000D01*
X171993492Y-102860000D01*
X171993495Y-102859999D01*
X172186681Y-102821572D01*
X172186693Y-102821569D01*
X172368671Y-102746192D01*
X172368678Y-102746188D01*
X172456608Y-102687435D01*
X172523286Y-102666557D01*
X172590666Y-102685041D01*
X172637357Y-102737020D01*
X172649500Y-102790537D01*
X172649500Y-109569462D01*
X172629815Y-109636501D01*
X172577011Y-109682256D01*
X172507853Y-109692200D01*
X172456609Y-109672564D01*
X172368684Y-109613814D01*
X172368671Y-109613807D01*
X172186693Y-109538430D01*
X172186681Y-109538427D01*
X171993495Y-109500000D01*
X171845000Y-109500000D01*
X171845000Y-110200000D01*
X171345000Y-110200000D01*
X171345000Y-109500000D01*
X171196504Y-109500000D01*
X171003318Y-109538427D01*
X171003306Y-109538430D01*
X170821328Y-109613807D01*
X170821315Y-109613814D01*
X170657537Y-109723248D01*
X170657533Y-109723251D01*
X170518251Y-109862533D01*
X170518248Y-109862537D01*
X170408814Y-110026315D01*
X170408807Y-110026328D01*
X170333430Y-110208307D01*
X170333430Y-110208309D01*
X170325138Y-110250000D01*
X171128012Y-110250000D01*
X171110795Y-110259940D01*
X171054940Y-110315795D01*
X171015444Y-110384204D01*
X170995000Y-110460504D01*
X170995000Y-110539496D01*
X171015444Y-110615796D01*
X171054940Y-110684205D01*
X171110795Y-110740060D01*
X171128012Y-110750000D01*
X170325138Y-110750000D01*
X170333430Y-110791690D01*
X170333430Y-110791692D01*
X170408807Y-110973671D01*
X170408814Y-110973684D01*
X170518248Y-111137462D01*
X170518251Y-111137466D01*
X170657533Y-111276748D01*
X170657537Y-111276751D01*
X170821315Y-111386185D01*
X170821328Y-111386192D01*
X171003306Y-111461569D01*
X171003318Y-111461572D01*
X171196504Y-111499999D01*
X171196508Y-111500000D01*
X171345000Y-111500000D01*
X171345000Y-110800000D01*
X171845000Y-110800000D01*
X171845000Y-111500000D01*
X171993492Y-111500000D01*
X171993495Y-111499999D01*
X172186681Y-111461572D01*
X172186693Y-111461569D01*
X172368671Y-111386192D01*
X172368678Y-111386188D01*
X172456608Y-111327435D01*
X172523286Y-111306557D01*
X172590666Y-111325041D01*
X172637357Y-111377020D01*
X172649500Y-111430537D01*
X172649500Y-130647438D01*
X172649394Y-130652562D01*
X172632636Y-131057726D01*
X172631790Y-131067940D01*
X172581947Y-131467802D01*
X172580260Y-131477911D01*
X172497568Y-131872286D01*
X172495052Y-131882221D01*
X172380075Y-132268423D01*
X172376747Y-132278116D01*
X172230274Y-132653491D01*
X172226158Y-132662876D01*
X172049182Y-133024889D01*
X172044304Y-133033903D01*
X171838037Y-133380064D01*
X171832431Y-133388644D01*
X171598284Y-133716587D01*
X171591989Y-133724674D01*
X171331565Y-134032155D01*
X171324624Y-134039695D01*
X171039695Y-134324624D01*
X171032155Y-134331565D01*
X170724674Y-134591989D01*
X170716587Y-134598284D01*
X170388644Y-134832431D01*
X170380064Y-134838037D01*
X170033903Y-135044304D01*
X170024889Y-135049182D01*
X169662876Y-135226158D01*
X169653491Y-135230274D01*
X169278116Y-135376747D01*
X169268423Y-135380075D01*
X168882221Y-135495052D01*
X168872286Y-135497568D01*
X168477911Y-135580260D01*
X168467802Y-135581947D01*
X168067940Y-135631790D01*
X168057726Y-135632636D01*
X167652563Y-135649394D01*
X167647439Y-135649500D01*
X145652561Y-135649500D01*
X145647437Y-135649394D01*
X145242273Y-135632636D01*
X145232059Y-135631790D01*
X144832197Y-135581947D01*
X144822088Y-135580260D01*
X144427713Y-135497568D01*
X144417778Y-135495052D01*
X144031576Y-135380075D01*
X144021883Y-135376747D01*
X143646508Y-135230274D01*
X143637123Y-135226158D01*
X143275110Y-135049182D01*
X143266096Y-135044304D01*
X142919935Y-134838037D01*
X142911355Y-134832431D01*
X142583412Y-134598284D01*
X142575325Y-134591989D01*
X142267844Y-134331565D01*
X142260304Y-134324624D01*
X141975375Y-134039695D01*
X141968434Y-134032155D01*
X141708010Y-133724674D01*
X141701715Y-133716587D01*
X141467568Y-133388644D01*
X141461962Y-133380064D01*
X141255695Y-133033903D01*
X141250817Y-133024889D01*
X141073841Y-132662876D01*
X141069725Y-132653491D01*
X140924001Y-132280035D01*
X140923247Y-132278104D01*
X140919928Y-132268436D01*
X140804943Y-131882208D01*
X140802434Y-131872300D01*
X140719736Y-131477897D01*
X140718054Y-131467817D01*
X140668207Y-131067919D01*
X140667364Y-131057746D01*
X140660580Y-130893713D01*
X143649500Y-130893713D01*
X143649500Y-131106287D01*
X143682754Y-131316243D01*
X143735283Y-131477911D01*
X143748444Y-131518414D01*
X143844951Y-131707820D01*
X143969890Y-131879786D01*
X144120213Y-132030109D01*
X144292179Y-132155048D01*
X144292181Y-132155049D01*
X144292184Y-132155051D01*
X144481588Y-132251557D01*
X144683757Y-132317246D01*
X144893713Y-132350500D01*
X144893714Y-132350500D01*
X145106286Y-132350500D01*
X145106287Y-132350500D01*
X145316243Y-132317246D01*
X145518412Y-132251557D01*
X145707816Y-132155051D01*
X145729789Y-132139086D01*
X145879786Y-132030109D01*
X145879788Y-132030106D01*
X145879792Y-132030104D01*
X146030104Y-131879792D01*
X146030106Y-131879788D01*
X146030109Y-131879786D01*
X146155048Y-131707820D01*
X146155047Y-131707820D01*
X146155051Y-131707816D01*
X146251557Y-131518412D01*
X146317246Y-131316243D01*
X146350500Y-131106287D01*
X146350500Y-130893713D01*
X166649500Y-130893713D01*
X166649500Y-131106287D01*
X166682754Y-131316243D01*
X166735283Y-131477911D01*
X166748444Y-131518414D01*
X166844951Y-131707820D01*
X166969890Y-131879786D01*
X167120213Y-132030109D01*
X167292179Y-132155048D01*
X167292181Y-132155049D01*
X167292184Y-132155051D01*
X167481588Y-132251557D01*
X167683757Y-132317246D01*
X167893713Y-132350500D01*
X167893714Y-132350500D01*
X168106286Y-132350500D01*
X168106287Y-132350500D01*
X168316243Y-132317246D01*
X168518412Y-132251557D01*
X168707816Y-132155051D01*
X168729789Y-132139086D01*
X168879786Y-132030109D01*
X168879788Y-132030106D01*
X168879792Y-132030104D01*
X169030104Y-131879792D01*
X169030106Y-131879788D01*
X169030109Y-131879786D01*
X169155048Y-131707820D01*
X169155047Y-131707820D01*
X169155051Y-131707816D01*
X169251557Y-131518412D01*
X169317246Y-131316243D01*
X169350500Y-131106287D01*
X169350500Y-130893713D01*
X169317246Y-130683757D01*
X169251557Y-130481588D01*
X169155051Y-130292184D01*
X169155049Y-130292181D01*
X169155048Y-130292179D01*
X169030109Y-130120213D01*
X168879786Y-129969890D01*
X168707820Y-129844951D01*
X168518414Y-129748444D01*
X168518413Y-129748443D01*
X168518412Y-129748443D01*
X168316243Y-129682754D01*
X168316241Y-129682753D01*
X168316240Y-129682753D01*
X168154957Y-129657208D01*
X168106287Y-129649500D01*
X167893713Y-129649500D01*
X167845042Y-129657208D01*
X167683760Y-129682753D01*
X167481585Y-129748444D01*
X167292179Y-129844951D01*
X167120213Y-129969890D01*
X166969890Y-130120213D01*
X166844951Y-130292179D01*
X166748444Y-130481585D01*
X166682753Y-130683760D01*
X166650760Y-130885760D01*
X166649500Y-130893713D01*
X146350500Y-130893713D01*
X146317246Y-130683757D01*
X146251557Y-130481588D01*
X146155051Y-130292184D01*
X146155049Y-130292181D01*
X146155048Y-130292179D01*
X146030109Y-130120213D01*
X145879786Y-129969890D01*
X145707820Y-129844951D01*
X145518414Y-129748444D01*
X145518413Y-129748443D01*
X145518412Y-129748443D01*
X145316243Y-129682754D01*
X145316241Y-129682753D01*
X145316240Y-129682753D01*
X145154957Y-129657208D01*
X145106287Y-129649500D01*
X144893713Y-129649500D01*
X144845042Y-129657208D01*
X144683760Y-129682753D01*
X144481585Y-129748444D01*
X144292179Y-129844951D01*
X144120213Y-129969890D01*
X143969890Y-130120213D01*
X143844951Y-130292179D01*
X143748444Y-130481585D01*
X143682753Y-130683760D01*
X143650760Y-130885760D01*
X143649500Y-130893713D01*
X140660580Y-130893713D01*
X140650606Y-130652562D01*
X140650500Y-130647438D01*
X140650500Y-126413766D01*
X141624500Y-126413766D01*
X141624500Y-126586233D01*
X141658143Y-126755366D01*
X141658146Y-126755378D01*
X141724138Y-126914698D01*
X141724145Y-126914711D01*
X141819954Y-127058098D01*
X141819957Y-127058102D01*
X141941897Y-127180042D01*
X141941901Y-127180045D01*
X142085288Y-127275854D01*
X142085301Y-127275861D01*
X142244621Y-127341853D01*
X142244626Y-127341855D01*
X142413766Y-127375499D01*
X142413769Y-127375500D01*
X142413771Y-127375500D01*
X142586231Y-127375500D01*
X142586232Y-127375499D01*
X142755374Y-127341855D01*
X142914705Y-127275858D01*
X143058099Y-127180045D01*
X143058102Y-127180042D01*
X143113319Y-127124826D01*
X143174642Y-127091341D01*
X143244334Y-127096325D01*
X143300267Y-127138197D01*
X143324684Y-127203661D01*
X143325000Y-127212507D01*
X143325000Y-127222844D01*
X143331401Y-127282372D01*
X143331403Y-127282379D01*
X143381645Y-127417086D01*
X143381649Y-127417093D01*
X143467809Y-127532187D01*
X143467812Y-127532190D01*
X143582906Y-127618350D01*
X143582913Y-127618354D01*
X143717620Y-127668596D01*
X143717627Y-127668598D01*
X143777155Y-127674999D01*
X143777172Y-127675000D01*
X144250000Y-127675000D01*
X144250000Y-126815686D01*
X144254394Y-126820080D01*
X144345606Y-126872741D01*
X144447339Y-126900000D01*
X144552661Y-126900000D01*
X144654394Y-126872741D01*
X144745606Y-126820080D01*
X144750000Y-126815686D01*
X144750000Y-127675000D01*
X145222828Y-127675000D01*
X145222844Y-127674999D01*
X145282372Y-127668598D01*
X145282379Y-127668596D01*
X145417086Y-127618354D01*
X145417093Y-127618350D01*
X145532187Y-127532190D01*
X145532190Y-127532187D01*
X145618350Y-127417093D01*
X145618354Y-127417086D01*
X145668596Y-127282379D01*
X145668598Y-127282372D01*
X145674999Y-127222844D01*
X145675000Y-127222827D01*
X145675000Y-127184108D01*
X163499500Y-127184108D01*
X163499500Y-127315892D01*
X163515472Y-127375500D01*
X163533608Y-127443187D01*
X163566554Y-127500250D01*
X163599500Y-127557314D01*
X163692686Y-127650500D01*
X163806814Y-127716392D01*
X163934108Y-127750500D01*
X163934110Y-127750500D01*
X164065890Y-127750500D01*
X164065892Y-127750500D01*
X164193186Y-127716392D01*
X164307314Y-127650500D01*
X164400500Y-127557314D01*
X164466392Y-127443186D01*
X164500500Y-127315892D01*
X164500500Y-127184108D01*
X164466392Y-127056814D01*
X164400500Y-126942686D01*
X164307314Y-126849500D01*
X164250250Y-126816554D01*
X164193187Y-126783608D01*
X164087784Y-126755366D01*
X164065892Y-126749500D01*
X163934108Y-126749500D01*
X163806812Y-126783608D01*
X163692686Y-126849500D01*
X163692683Y-126849502D01*
X163599502Y-126942683D01*
X163599500Y-126942686D01*
X163533608Y-127056812D01*
X163523021Y-127096325D01*
X163499500Y-127184108D01*
X145675000Y-127184108D01*
X145675000Y-126750000D01*
X144815686Y-126750000D01*
X144820080Y-126745606D01*
X144872741Y-126654394D01*
X144900000Y-126552661D01*
X144900000Y-126447339D01*
X144896455Y-126434108D01*
X161999500Y-126434108D01*
X161999500Y-126565891D01*
X162033608Y-126693187D01*
X162063873Y-126745606D01*
X162099500Y-126807314D01*
X162192686Y-126900500D01*
X162306814Y-126966392D01*
X162434108Y-127000500D01*
X162434110Y-127000500D01*
X162565890Y-127000500D01*
X162565892Y-127000500D01*
X162693186Y-126966392D01*
X162807314Y-126900500D01*
X162900500Y-126807314D01*
X162966392Y-126693186D01*
X163000500Y-126565892D01*
X163000500Y-126434108D01*
X162966392Y-126306814D01*
X162900500Y-126192686D01*
X162807314Y-126099500D01*
X162750250Y-126066554D01*
X162693187Y-126033608D01*
X162629539Y-126016554D01*
X162565892Y-125999500D01*
X162434108Y-125999500D01*
X162306812Y-126033608D01*
X162192686Y-126099500D01*
X162192683Y-126099502D01*
X162099502Y-126192683D01*
X162099500Y-126192686D01*
X162033608Y-126306812D01*
X161999500Y-126434108D01*
X144896455Y-126434108D01*
X144872741Y-126345606D01*
X144820080Y-126254394D01*
X144815686Y-126250000D01*
X145675000Y-126250000D01*
X145675000Y-125777172D01*
X145674999Y-125777155D01*
X145668598Y-125717627D01*
X145668596Y-125717620D01*
X145618354Y-125582913D01*
X145618350Y-125582906D01*
X145532190Y-125467812D01*
X145532187Y-125467809D01*
X145417093Y-125381649D01*
X145417086Y-125381645D01*
X145282379Y-125331403D01*
X145282372Y-125331401D01*
X145222844Y-125325000D01*
X144750000Y-125325000D01*
X144750000Y-126184314D01*
X144745606Y-126179920D01*
X144654394Y-126127259D01*
X144552661Y-126100000D01*
X144447339Y-126100000D01*
X144345606Y-126127259D01*
X144254394Y-126179920D01*
X144250000Y-126184314D01*
X144250000Y-125325000D01*
X143777155Y-125325000D01*
X143717627Y-125331401D01*
X143717620Y-125331403D01*
X143582913Y-125381645D01*
X143582906Y-125381649D01*
X143467812Y-125467809D01*
X143467809Y-125467812D01*
X143381649Y-125582906D01*
X143381645Y-125582913D01*
X143331403Y-125717620D01*
X143331401Y-125717627D01*
X143325000Y-125777155D01*
X143325000Y-125787493D01*
X143305315Y-125854532D01*
X143252511Y-125900287D01*
X143183353Y-125910231D01*
X143119797Y-125881206D01*
X143113319Y-125875174D01*
X143058102Y-125819957D01*
X143058098Y-125819954D01*
X142914711Y-125724145D01*
X142914698Y-125724138D01*
X142755378Y-125658146D01*
X142755366Y-125658143D01*
X142586232Y-125624500D01*
X142586229Y-125624500D01*
X142413771Y-125624500D01*
X142413768Y-125624500D01*
X142244633Y-125658143D01*
X142244621Y-125658146D01*
X142085301Y-125724138D01*
X142085288Y-125724145D01*
X141941901Y-125819954D01*
X141941897Y-125819957D01*
X141819957Y-125941897D01*
X141819954Y-125941901D01*
X141724145Y-126085288D01*
X141724138Y-126085301D01*
X141658146Y-126244621D01*
X141658143Y-126244633D01*
X141624500Y-126413766D01*
X140650500Y-126413766D01*
X140650500Y-124434108D01*
X149499500Y-124434108D01*
X149499500Y-124565892D01*
X149502885Y-124578524D01*
X149533608Y-124693187D01*
X149544781Y-124712539D01*
X149599500Y-124807314D01*
X149692686Y-124900500D01*
X149806814Y-124966392D01*
X149934108Y-125000500D01*
X149934110Y-125000500D01*
X150065890Y-125000500D01*
X150065892Y-125000500D01*
X150193186Y-124966392D01*
X150193197Y-124966385D01*
X150193545Y-124966242D01*
X150193878Y-124966206D01*
X150201037Y-124964288D01*
X150201335Y-124965403D01*
X150263014Y-124958767D01*
X150325496Y-124990037D01*
X150348395Y-125018798D01*
X150399500Y-125107314D01*
X150492686Y-125200500D01*
X150606814Y-125266392D01*
X150734108Y-125300500D01*
X150734110Y-125300500D01*
X150865890Y-125300500D01*
X150865892Y-125300500D01*
X150993186Y-125266392D01*
X151107314Y-125200500D01*
X151113366Y-125194447D01*
X151174684Y-125160963D01*
X151244376Y-125165944D01*
X151288728Y-125194447D01*
X151316522Y-125222241D01*
X151430650Y-125288133D01*
X151557944Y-125322241D01*
X151557946Y-125322241D01*
X151689726Y-125322241D01*
X151689728Y-125322241D01*
X151817022Y-125288133D01*
X151931150Y-125222241D01*
X152024336Y-125129055D01*
X152090228Y-125014927D01*
X152106564Y-124953961D01*
X152665675Y-124953961D01*
X152665675Y-125085745D01*
X152671455Y-125107316D01*
X152699783Y-125213040D01*
X152730586Y-125266391D01*
X152765675Y-125327167D01*
X152858861Y-125420353D01*
X152972989Y-125486245D01*
X153100283Y-125520353D01*
X153100285Y-125520353D01*
X153206794Y-125520353D01*
X153273833Y-125540038D01*
X153319588Y-125592842D01*
X153326567Y-125612256D01*
X153346079Y-125685073D01*
X153411971Y-125799201D01*
X153505157Y-125892387D01*
X153619285Y-125958279D01*
X153746579Y-125992387D01*
X153746581Y-125992387D01*
X153878361Y-125992387D01*
X153878363Y-125992387D01*
X154005657Y-125958279D01*
X154119785Y-125892387D01*
X154212971Y-125799201D01*
X154212974Y-125799194D01*
X154217656Y-125793095D01*
X154274084Y-125751892D01*
X154343830Y-125747737D01*
X154378034Y-125761195D01*
X154397383Y-125772367D01*
X154397385Y-125772367D01*
X154397386Y-125772368D01*
X154524680Y-125806476D01*
X154524682Y-125806476D01*
X154656462Y-125806476D01*
X154656464Y-125806476D01*
X154783758Y-125772368D01*
X154897886Y-125706476D01*
X154991072Y-125613290D01*
X155056964Y-125499162D01*
X155091072Y-125371868D01*
X155091072Y-125240084D01*
X155056964Y-125112790D01*
X155053802Y-125107314D01*
X155044607Y-125091387D01*
X154991072Y-124998662D01*
X154897886Y-124905476D01*
X154840822Y-124872530D01*
X154783759Y-124839584D01*
X154720111Y-124822530D01*
X154656464Y-124805476D01*
X154524680Y-124805476D01*
X154397384Y-124839584D01*
X154283258Y-124905476D01*
X154283255Y-124905478D01*
X154190068Y-124998665D01*
X154185379Y-125004776D01*
X154128948Y-125045974D01*
X154059201Y-125050123D01*
X154025010Y-125036668D01*
X154005659Y-125025496D01*
X154005658Y-125025495D01*
X154005657Y-125025495D01*
X153878363Y-124991387D01*
X153771852Y-124991387D01*
X153704813Y-124971702D01*
X153659058Y-124918898D01*
X153652077Y-124899481D01*
X153652042Y-124899349D01*
X153632567Y-124826667D01*
X153566675Y-124712539D01*
X153473489Y-124619353D01*
X153416425Y-124586407D01*
X153359362Y-124553461D01*
X153313267Y-124541110D01*
X153232067Y-124519353D01*
X153100283Y-124519353D01*
X152972987Y-124553461D01*
X152858861Y-124619353D01*
X152858858Y-124619355D01*
X152765677Y-124712536D01*
X152765675Y-124712539D01*
X152699783Y-124826665D01*
X152678666Y-124905476D01*
X152665675Y-124953961D01*
X152106564Y-124953961D01*
X152124336Y-124887633D01*
X152124336Y-124755849D01*
X152090228Y-124628555D01*
X152024336Y-124514427D01*
X151931150Y-124421241D01*
X151924993Y-124417686D01*
X155114452Y-124417686D01*
X155114452Y-124549470D01*
X155121230Y-124574765D01*
X155148560Y-124676765D01*
X155169213Y-124712536D01*
X155214452Y-124790892D01*
X155307638Y-124884078D01*
X155421766Y-124949970D01*
X155549060Y-124984078D01*
X155549062Y-124984078D01*
X155680842Y-124984078D01*
X155680844Y-124984078D01*
X155808138Y-124949970D01*
X155922266Y-124884078D01*
X156015452Y-124790892D01*
X156081344Y-124676764D01*
X156107667Y-124578520D01*
X156144030Y-124518864D01*
X156206877Y-124488334D01*
X156276253Y-124496628D01*
X156315122Y-124522936D01*
X156366951Y-124574765D01*
X156481079Y-124640657D01*
X156608373Y-124674765D01*
X156608375Y-124674765D01*
X156740155Y-124674765D01*
X156740157Y-124674765D01*
X156867451Y-124640657D01*
X156981579Y-124574765D01*
X157074765Y-124481579D01*
X157140657Y-124367451D01*
X157174765Y-124240157D01*
X157174765Y-124108373D01*
X157140657Y-123981079D01*
X157074765Y-123866951D01*
X156981579Y-123773765D01*
X156924515Y-123740819D01*
X156867452Y-123707873D01*
X156803804Y-123690819D01*
X156740157Y-123673765D01*
X156608373Y-123673765D01*
X156481077Y-123707873D01*
X156366951Y-123773765D01*
X156366948Y-123773767D01*
X156273767Y-123866948D01*
X156273765Y-123866951D01*
X156207873Y-123981079D01*
X156193798Y-124033608D01*
X156181550Y-124079319D01*
X156145185Y-124138979D01*
X156082338Y-124169508D01*
X156012962Y-124161213D01*
X155974094Y-124134906D01*
X155922268Y-124083080D01*
X155922266Y-124083078D01*
X155836582Y-124033608D01*
X155808139Y-124017186D01*
X155742132Y-123999500D01*
X155680844Y-123983078D01*
X155549060Y-123983078D01*
X155421764Y-124017186D01*
X155307638Y-124083078D01*
X155307635Y-124083080D01*
X155214454Y-124176261D01*
X155214452Y-124176264D01*
X155148560Y-124290390D01*
X155134939Y-124341227D01*
X155114452Y-124417686D01*
X151924993Y-124417686D01*
X151874086Y-124388295D01*
X151817023Y-124355349D01*
X151739581Y-124334599D01*
X151689728Y-124321241D01*
X151557944Y-124321241D01*
X151430648Y-124355349D01*
X151316522Y-124421241D01*
X151310466Y-124427297D01*
X151249141Y-124460779D01*
X151179450Y-124455792D01*
X151135107Y-124427293D01*
X151107316Y-124399502D01*
X151107314Y-124399500D01*
X151050250Y-124366554D01*
X150993187Y-124333608D01*
X150893188Y-124306814D01*
X150865892Y-124299500D01*
X150734108Y-124299500D01*
X150606804Y-124333610D01*
X150606430Y-124333766D01*
X150606088Y-124333802D01*
X150598963Y-124335712D01*
X150598665Y-124334599D01*
X150536960Y-124341227D01*
X150474484Y-124309946D01*
X150451605Y-124281203D01*
X150400500Y-124192686D01*
X150307314Y-124099500D01*
X150250250Y-124066554D01*
X150193187Y-124033608D01*
X150129539Y-124016554D01*
X150065892Y-123999500D01*
X149934108Y-123999500D01*
X149806812Y-124033608D01*
X149692686Y-124099500D01*
X149692683Y-124099502D01*
X149599502Y-124192683D01*
X149599500Y-124192686D01*
X149533608Y-124306812D01*
X149508465Y-124400650D01*
X149499500Y-124434108D01*
X140650500Y-124434108D01*
X140650500Y-121434108D01*
X158999500Y-121434108D01*
X158999500Y-121565891D01*
X159033608Y-121693187D01*
X159066554Y-121750250D01*
X159099500Y-121807314D01*
X159192686Y-121900500D01*
X159306814Y-121966392D01*
X159434108Y-122000500D01*
X159434110Y-122000500D01*
X159565890Y-122000500D01*
X159565892Y-122000500D01*
X159693186Y-121966392D01*
X159749103Y-121934108D01*
X160999500Y-121934108D01*
X160999500Y-122065891D01*
X161033608Y-122193187D01*
X161066554Y-122250250D01*
X161099500Y-122307314D01*
X161192686Y-122400500D01*
X161306814Y-122466392D01*
X161434108Y-122500500D01*
X161434110Y-122500500D01*
X161565890Y-122500500D01*
X161565892Y-122500500D01*
X161693186Y-122466392D01*
X161807314Y-122400500D01*
X161900500Y-122307314D01*
X161966392Y-122193186D01*
X162000500Y-122065892D01*
X162000500Y-121934108D01*
X161966392Y-121806814D01*
X161900500Y-121692686D01*
X161807314Y-121599500D01*
X161749100Y-121565890D01*
X161693187Y-121533608D01*
X161629539Y-121516554D01*
X161565892Y-121499500D01*
X161434108Y-121499500D01*
X161306812Y-121533608D01*
X161192686Y-121599500D01*
X161192683Y-121599502D01*
X161099502Y-121692683D01*
X161099500Y-121692686D01*
X161033608Y-121806812D01*
X160999500Y-121934108D01*
X159749103Y-121934108D01*
X159807314Y-121900500D01*
X159900500Y-121807314D01*
X159966392Y-121693186D01*
X160000500Y-121565892D01*
X160000500Y-121504315D01*
X160020185Y-121437276D01*
X160072989Y-121391521D01*
X160142147Y-121381577D01*
X160186501Y-121396928D01*
X160192683Y-121400497D01*
X160192686Y-121400500D01*
X160306814Y-121466392D01*
X160434108Y-121500500D01*
X160434110Y-121500500D01*
X160565890Y-121500500D01*
X160565892Y-121500500D01*
X160693186Y-121466392D01*
X160807314Y-121400500D01*
X160900500Y-121307314D01*
X160966392Y-121193186D01*
X161000500Y-121065892D01*
X161000500Y-120934108D01*
X160966392Y-120806814D01*
X160900500Y-120692686D01*
X160807314Y-120599500D01*
X160733380Y-120556814D01*
X160693187Y-120533608D01*
X160629539Y-120516554D01*
X160565892Y-120499500D01*
X160434108Y-120499500D01*
X160306812Y-120533608D01*
X160192686Y-120599500D01*
X160192683Y-120599502D01*
X160099502Y-120692683D01*
X160099500Y-120692686D01*
X160033608Y-120806812D01*
X159999500Y-120934108D01*
X159999500Y-120995684D01*
X159979815Y-121062723D01*
X159927011Y-121108478D01*
X159857853Y-121118422D01*
X159813500Y-121103071D01*
X159693189Y-121033609D01*
X159693186Y-121033608D01*
X159565892Y-120999500D01*
X159434108Y-120999500D01*
X159306812Y-121033608D01*
X159192686Y-121099500D01*
X159192683Y-121099502D01*
X159099502Y-121192683D01*
X159099500Y-121192686D01*
X159033608Y-121306812D01*
X158999500Y-121434108D01*
X140650500Y-121434108D01*
X140650500Y-120684108D01*
X150249500Y-120684108D01*
X150249500Y-120815891D01*
X150283608Y-120943187D01*
X150313918Y-120995684D01*
X150349500Y-121057314D01*
X150442686Y-121150500D01*
X150556814Y-121216392D01*
X150684108Y-121250500D01*
X150684110Y-121250500D01*
X150815890Y-121250500D01*
X150815892Y-121250500D01*
X150943186Y-121216392D01*
X151057314Y-121150500D01*
X151150500Y-121057314D01*
X151216392Y-120943186D01*
X151250500Y-120815892D01*
X151250500Y-120684108D01*
X151216392Y-120556814D01*
X151150500Y-120442686D01*
X151057314Y-120349500D01*
X151000250Y-120316554D01*
X150943187Y-120283608D01*
X150879539Y-120266554D01*
X150815892Y-120249500D01*
X150684108Y-120249500D01*
X150556812Y-120283608D01*
X150442686Y-120349500D01*
X150442683Y-120349502D01*
X150349502Y-120442683D01*
X150349500Y-120442686D01*
X150283608Y-120556812D01*
X150249500Y-120684108D01*
X140650500Y-120684108D01*
X140650500Y-119455923D01*
X151399500Y-119455923D01*
X151399500Y-119587707D01*
X151404754Y-119607314D01*
X151433608Y-119715002D01*
X151448004Y-119739936D01*
X151499500Y-119829129D01*
X151592686Y-119922315D01*
X151706814Y-119988207D01*
X151834108Y-120022315D01*
X151834110Y-120022315D01*
X151965890Y-120022315D01*
X151965892Y-120022315D01*
X152093186Y-119988207D01*
X152207314Y-119922315D01*
X152300500Y-119829129D01*
X152366392Y-119715001D01*
X152400500Y-119587707D01*
X152400500Y-119455923D01*
X152366392Y-119328629D01*
X152300500Y-119214501D01*
X152207314Y-119121315D01*
X152150250Y-119088369D01*
X152093187Y-119055423D01*
X152018917Y-119035523D01*
X151965892Y-119021315D01*
X151834108Y-119021315D01*
X151706812Y-119055423D01*
X151592686Y-119121315D01*
X151592683Y-119121317D01*
X151499502Y-119214498D01*
X151499500Y-119214501D01*
X151433608Y-119328627D01*
X151410742Y-119413966D01*
X151399500Y-119455923D01*
X140650500Y-119455923D01*
X140650500Y-117434108D01*
X152077685Y-117434108D01*
X152077685Y-117565892D01*
X152089764Y-117610972D01*
X152111793Y-117693187D01*
X152122063Y-117710974D01*
X152177685Y-117807314D01*
X152270871Y-117900500D01*
X152384999Y-117966392D01*
X152507594Y-117999241D01*
X152567254Y-118035605D01*
X152597783Y-118098452D01*
X152599500Y-118119015D01*
X152599500Y-118177364D01*
X152611074Y-118220559D01*
X152633608Y-118304659D01*
X152666554Y-118361722D01*
X152699500Y-118418786D01*
X152792686Y-118511972D01*
X152906814Y-118577864D01*
X153034108Y-118611972D01*
X153034110Y-118611972D01*
X153174019Y-118611972D01*
X153174019Y-118615068D01*
X153228553Y-118623555D01*
X153280824Y-118669918D01*
X153295513Y-118703649D01*
X153305117Y-118739491D01*
X153371009Y-118853619D01*
X153464195Y-118946805D01*
X153578323Y-119012697D01*
X153705617Y-119046805D01*
X153705619Y-119046805D01*
X153837399Y-119046805D01*
X153837401Y-119046805D01*
X153964695Y-119012697D01*
X154078823Y-118946805D01*
X154108260Y-118917368D01*
X154169583Y-118883883D01*
X154239275Y-118888867D01*
X154257942Y-118897662D01*
X154262853Y-118900497D01*
X154262856Y-118900500D01*
X154376984Y-118966392D01*
X154499279Y-118999160D01*
X154558937Y-119035523D01*
X154589467Y-119098370D01*
X154591184Y-119118934D01*
X154591184Y-119172544D01*
X154607546Y-119233608D01*
X154625292Y-119299839D01*
X154658238Y-119356902D01*
X154691184Y-119413966D01*
X154784370Y-119507152D01*
X154863362Y-119552758D01*
X154898494Y-119573042D01*
X154898498Y-119573044D01*
X155025792Y-119607152D01*
X155025794Y-119607152D01*
X155157574Y-119607152D01*
X155157576Y-119607152D01*
X155284870Y-119573044D01*
X155398616Y-119507372D01*
X155466514Y-119490899D01*
X155532541Y-119513751D01*
X155568001Y-119552757D01*
X155599500Y-119607314D01*
X155692686Y-119700500D01*
X155791521Y-119757563D01*
X155805944Y-119765890D01*
X155806814Y-119766392D01*
X155934108Y-119800500D01*
X155934110Y-119800500D01*
X156065890Y-119800500D01*
X156065892Y-119800500D01*
X156193186Y-119766392D01*
X156307314Y-119700500D01*
X156307315Y-119700498D01*
X156314352Y-119696436D01*
X156315410Y-119698269D01*
X156370100Y-119677112D01*
X156438548Y-119691134D01*
X156488550Y-119739936D01*
X156500221Y-119768584D01*
X156533608Y-119893186D01*
X156599500Y-120007314D01*
X156692686Y-120100500D01*
X156806814Y-120166392D01*
X156934108Y-120200500D01*
X156934110Y-120200500D01*
X157065890Y-120200500D01*
X157065892Y-120200500D01*
X157193186Y-120166392D01*
X157307314Y-120100500D01*
X157400500Y-120007314D01*
X157466392Y-119893186D01*
X157500500Y-119765892D01*
X157500500Y-119634108D01*
X157466392Y-119506814D01*
X157400500Y-119392686D01*
X157307314Y-119299500D01*
X157250250Y-119266554D01*
X157193187Y-119233608D01*
X157121866Y-119214498D01*
X157065892Y-119199500D01*
X156934108Y-119199500D01*
X156806812Y-119233608D01*
X156727006Y-119279684D01*
X156692686Y-119299500D01*
X156692684Y-119299501D01*
X156685648Y-119303564D01*
X156684591Y-119301734D01*
X156629865Y-119322889D01*
X156561421Y-119308849D01*
X156511433Y-119260033D01*
X156499778Y-119231416D01*
X156466392Y-119106814D01*
X156400500Y-118992686D01*
X156307314Y-118899500D01*
X156228319Y-118853892D01*
X156193187Y-118833608D01*
X156129539Y-118816554D01*
X156065892Y-118799500D01*
X155934108Y-118799500D01*
X155806814Y-118833608D01*
X155806813Y-118833608D01*
X155806811Y-118833609D01*
X155806810Y-118833609D01*
X155693068Y-118899279D01*
X155625168Y-118915752D01*
X155559141Y-118892900D01*
X155523681Y-118853892D01*
X155507430Y-118825745D01*
X155492184Y-118799338D01*
X155398998Y-118706152D01*
X155284870Y-118640260D01*
X155162575Y-118607491D01*
X155102916Y-118571127D01*
X155072387Y-118508280D01*
X155070670Y-118487717D01*
X155070670Y-118434110D01*
X155070670Y-118434108D01*
X155036562Y-118306814D01*
X154970670Y-118192686D01*
X154877484Y-118099500D01*
X154784482Y-118045805D01*
X154763357Y-118033608D01*
X154699709Y-118016554D01*
X154636062Y-117999500D01*
X154504278Y-117999500D01*
X154376982Y-118033608D01*
X154262856Y-118099500D01*
X154233416Y-118128939D01*
X154172092Y-118162422D01*
X154102400Y-118157436D01*
X154083737Y-118148642D01*
X153964697Y-118079914D01*
X153964696Y-118079913D01*
X153964695Y-118079913D01*
X153837401Y-118045805D01*
X153705617Y-118045805D01*
X153697490Y-118045805D01*
X153697490Y-118042720D01*
X153642882Y-118034187D01*
X153590642Y-117987790D01*
X153575994Y-117954123D01*
X153566392Y-117918286D01*
X153500500Y-117804158D01*
X153407314Y-117710972D01*
X153293186Y-117645080D01*
X153170591Y-117612231D01*
X153110931Y-117575866D01*
X153080402Y-117513019D01*
X153078685Y-117492456D01*
X153078685Y-117434110D01*
X153078685Y-117434108D01*
X153044577Y-117306814D01*
X152978685Y-117192686D01*
X152885499Y-117099500D01*
X152828435Y-117066554D01*
X152771372Y-117033608D01*
X152707724Y-117016554D01*
X152644077Y-116999500D01*
X152512293Y-116999500D01*
X152384997Y-117033608D01*
X152270871Y-117099500D01*
X152270868Y-117099502D01*
X152177687Y-117192683D01*
X152177685Y-117192686D01*
X152111793Y-117306812D01*
X152077685Y-117434108D01*
X140650500Y-117434108D01*
X140650500Y-116684108D01*
X150249500Y-116684108D01*
X150249500Y-116815891D01*
X150283608Y-116943187D01*
X150316121Y-116999500D01*
X150349500Y-117057314D01*
X150442686Y-117150500D01*
X150556814Y-117216392D01*
X150684108Y-117250500D01*
X150684110Y-117250500D01*
X150815890Y-117250500D01*
X150815892Y-117250500D01*
X150943186Y-117216392D01*
X151057314Y-117150500D01*
X151150500Y-117057314D01*
X151216392Y-116943186D01*
X151250500Y-116815892D01*
X151250500Y-116684108D01*
X151216392Y-116556814D01*
X151150500Y-116442686D01*
X151057314Y-116349500D01*
X151000250Y-116316554D01*
X150943187Y-116283608D01*
X150879539Y-116266554D01*
X150815892Y-116249500D01*
X150684108Y-116249500D01*
X150556812Y-116283608D01*
X150442686Y-116349500D01*
X150442683Y-116349502D01*
X150349502Y-116442683D01*
X150349500Y-116442686D01*
X150283608Y-116556812D01*
X150249500Y-116684108D01*
X140650500Y-116684108D01*
X140650500Y-115434108D01*
X158774500Y-115434108D01*
X158774500Y-115565891D01*
X158808608Y-115693187D01*
X158841554Y-115750250D01*
X158874500Y-115807314D01*
X158967686Y-115900500D01*
X159081814Y-115966392D01*
X159209108Y-116000500D01*
X159209110Y-116000500D01*
X159340890Y-116000500D01*
X159340892Y-116000500D01*
X159468186Y-115966392D01*
X159582314Y-115900500D01*
X159675500Y-115807314D01*
X159741392Y-115693186D01*
X159775500Y-115565892D01*
X159775500Y-115434108D01*
X159741392Y-115306814D01*
X159675500Y-115192686D01*
X159582314Y-115099500D01*
X159525250Y-115066554D01*
X159468187Y-115033608D01*
X159404539Y-115016554D01*
X159340892Y-114999500D01*
X159209108Y-114999500D01*
X159081812Y-115033608D01*
X158967686Y-115099500D01*
X158967683Y-115099502D01*
X158874502Y-115192683D01*
X158874500Y-115192686D01*
X158808608Y-115306812D01*
X158774500Y-115434108D01*
X140650500Y-115434108D01*
X140650500Y-114684108D01*
X150999500Y-114684108D01*
X150999500Y-114815891D01*
X151033608Y-114943187D01*
X151066121Y-114999500D01*
X151099500Y-115057314D01*
X151192686Y-115150500D01*
X151306814Y-115216392D01*
X151434108Y-115250500D01*
X151434110Y-115250500D01*
X151565890Y-115250500D01*
X151565892Y-115250500D01*
X151693186Y-115216392D01*
X151807314Y-115150500D01*
X151900500Y-115057314D01*
X151966392Y-114943186D01*
X152000500Y-114815892D01*
X152000500Y-114684108D01*
X151966392Y-114556814D01*
X151900500Y-114442686D01*
X151807314Y-114349500D01*
X151750250Y-114316554D01*
X151693187Y-114283608D01*
X151629539Y-114266554D01*
X151565892Y-114249500D01*
X151434108Y-114249500D01*
X151306812Y-114283608D01*
X151192686Y-114349500D01*
X151192683Y-114349502D01*
X151099502Y-114442683D01*
X151099500Y-114442686D01*
X151033608Y-114556812D01*
X150999500Y-114684108D01*
X140650500Y-114684108D01*
X140650500Y-110250000D01*
X165895138Y-110250000D01*
X166698012Y-110250000D01*
X166680795Y-110259940D01*
X166624940Y-110315795D01*
X166585444Y-110384204D01*
X166565000Y-110460504D01*
X166565000Y-110539496D01*
X166585444Y-110615796D01*
X166624940Y-110684205D01*
X166680795Y-110740060D01*
X166698012Y-110750000D01*
X165895138Y-110750000D01*
X165903430Y-110791690D01*
X165903430Y-110791692D01*
X165978807Y-110973671D01*
X165978814Y-110973684D01*
X166088248Y-111137462D01*
X166088251Y-111137466D01*
X166227533Y-111276748D01*
X166227537Y-111276751D01*
X166391315Y-111386185D01*
X166391328Y-111386192D01*
X166573306Y-111461569D01*
X166573318Y-111461572D01*
X166766504Y-111499999D01*
X166766508Y-111500000D01*
X167165000Y-111500000D01*
X167165000Y-110800000D01*
X167665000Y-110800000D01*
X167665000Y-111500000D01*
X168063492Y-111500000D01*
X168063495Y-111499999D01*
X168256681Y-111461572D01*
X168256693Y-111461569D01*
X168438671Y-111386192D01*
X168438684Y-111386185D01*
X168602462Y-111276751D01*
X168602466Y-111276748D01*
X168741748Y-111137466D01*
X168741751Y-111137462D01*
X168851185Y-110973684D01*
X168851192Y-110973671D01*
X168926569Y-110791692D01*
X168926569Y-110791690D01*
X168934862Y-110750000D01*
X168131988Y-110750000D01*
X168149205Y-110740060D01*
X168205060Y-110684205D01*
X168244556Y-110615796D01*
X168265000Y-110539496D01*
X168265000Y-110460504D01*
X168244556Y-110384204D01*
X168205060Y-110315795D01*
X168149205Y-110259940D01*
X168131988Y-110250000D01*
X168934862Y-110250000D01*
X168926569Y-110208309D01*
X168926569Y-110208307D01*
X168851192Y-110026328D01*
X168851185Y-110026315D01*
X168741751Y-109862537D01*
X168741748Y-109862533D01*
X168602466Y-109723251D01*
X168602462Y-109723248D01*
X168433613Y-109610426D01*
X168434568Y-109608996D01*
X168390568Y-109565777D01*
X168375105Y-109497640D01*
X168398934Y-109431960D01*
X168400702Y-109429913D01*
X168400568Y-109429811D01*
X168405507Y-109423372D01*
X168405515Y-109423365D01*
X168481281Y-109292135D01*
X168520500Y-109145766D01*
X168520500Y-108994234D01*
X168481281Y-108847865D01*
X168405515Y-108716635D01*
X168298365Y-108609485D01*
X168232750Y-108571602D01*
X168167136Y-108533719D01*
X168093950Y-108514109D01*
X168020766Y-108494500D01*
X167869234Y-108494500D01*
X167722863Y-108533719D01*
X167591635Y-108609485D01*
X167591632Y-108609487D01*
X167484487Y-108716632D01*
X167484485Y-108716635D01*
X167408719Y-108847863D01*
X167380277Y-108954013D01*
X167369500Y-108994234D01*
X167369500Y-109145766D01*
X167389109Y-109218950D01*
X167408719Y-109292136D01*
X167435629Y-109338745D01*
X167484485Y-109423365D01*
X167591635Y-109530515D01*
X167602998Y-109537075D01*
X167651213Y-109587639D01*
X167665000Y-109644463D01*
X167665000Y-110200000D01*
X167165000Y-110200000D01*
X167165000Y-109500000D01*
X166766504Y-109500000D01*
X166573318Y-109538427D01*
X166573306Y-109538430D01*
X166391328Y-109613807D01*
X166391315Y-109613814D01*
X166227537Y-109723248D01*
X166227533Y-109723251D01*
X166088251Y-109862533D01*
X166088248Y-109862537D01*
X165978814Y-110026315D01*
X165978807Y-110026328D01*
X165903430Y-110208307D01*
X165903430Y-110208309D01*
X165895138Y-110250000D01*
X140650500Y-110250000D01*
X140650500Y-108806462D01*
X152251662Y-108806462D01*
X152251662Y-108938246D01*
X152255886Y-108954011D01*
X152285770Y-109065541D01*
X152318716Y-109122604D01*
X152351662Y-109179668D01*
X152444848Y-109272854D01*
X152558976Y-109338746D01*
X152686270Y-109372854D01*
X152686272Y-109372854D01*
X152818052Y-109372854D01*
X152818054Y-109372854D01*
X152945348Y-109338746D01*
X153059476Y-109272854D01*
X153152662Y-109179668D01*
X153218554Y-109065540D01*
X153252662Y-108938246D01*
X153252662Y-108806462D01*
X153218554Y-108679168D01*
X153152662Y-108565040D01*
X153059476Y-108471854D01*
X153002412Y-108438908D01*
X152945349Y-108405962D01*
X152881701Y-108388908D01*
X152818054Y-108371854D01*
X152686270Y-108371854D01*
X152558974Y-108405962D01*
X152444848Y-108471854D01*
X152444845Y-108471856D01*
X152351664Y-108565037D01*
X152351662Y-108565040D01*
X152285770Y-108679166D01*
X152251662Y-108806462D01*
X140650500Y-108806462D01*
X140650500Y-107684108D01*
X148249500Y-107684108D01*
X148249500Y-107815891D01*
X148283608Y-107943187D01*
X148297005Y-107966391D01*
X148349500Y-108057314D01*
X148442686Y-108150500D01*
X148556814Y-108216392D01*
X148684108Y-108250500D01*
X148684110Y-108250500D01*
X148815890Y-108250500D01*
X148815892Y-108250500D01*
X148943186Y-108216392D01*
X149057314Y-108150500D01*
X149150500Y-108057314D01*
X149216392Y-107943186D01*
X149250500Y-107815892D01*
X149250500Y-107684108D01*
X149216392Y-107556814D01*
X149150500Y-107442686D01*
X149141922Y-107434108D01*
X150249500Y-107434108D01*
X150249500Y-107565891D01*
X150283608Y-107693187D01*
X150316554Y-107750250D01*
X150349500Y-107807314D01*
X150442686Y-107900500D01*
X150556814Y-107966392D01*
X150684108Y-108000500D01*
X150684110Y-108000500D01*
X150815890Y-108000500D01*
X150815892Y-108000500D01*
X150943186Y-107966392D01*
X151057314Y-107900500D01*
X151150500Y-107807314D01*
X151216392Y-107693186D01*
X151250500Y-107565892D01*
X151250500Y-107461608D01*
X168027000Y-107461608D01*
X168027000Y-107593391D01*
X168061108Y-107720687D01*
X168094054Y-107777750D01*
X168127000Y-107834814D01*
X168220186Y-107928000D01*
X168334314Y-107993892D01*
X168461608Y-108028000D01*
X168461610Y-108028000D01*
X168593390Y-108028000D01*
X168593392Y-108028000D01*
X168720686Y-107993892D01*
X168834814Y-107928000D01*
X168928000Y-107834814D01*
X168993892Y-107720686D01*
X169028000Y-107593392D01*
X169028000Y-107461608D01*
X168993892Y-107334314D01*
X168928000Y-107220186D01*
X168834814Y-107127000D01*
X168777750Y-107094054D01*
X168720687Y-107061108D01*
X168657039Y-107044054D01*
X168593392Y-107027000D01*
X168461608Y-107027000D01*
X168334312Y-107061108D01*
X168220186Y-107127000D01*
X168220183Y-107127002D01*
X168127002Y-107220183D01*
X168127000Y-107220186D01*
X168061108Y-107334312D01*
X168027000Y-107461608D01*
X151250500Y-107461608D01*
X151250500Y-107434108D01*
X151216392Y-107306814D01*
X151150500Y-107192686D01*
X151057314Y-107099500D01*
X150990817Y-107061108D01*
X150943187Y-107033608D01*
X150879539Y-107016554D01*
X150815892Y-106999500D01*
X150684108Y-106999500D01*
X150556812Y-107033608D01*
X150442686Y-107099500D01*
X150442683Y-107099502D01*
X150349502Y-107192683D01*
X150349500Y-107192686D01*
X150283608Y-107306812D01*
X150249500Y-107434108D01*
X149141922Y-107434108D01*
X149057314Y-107349500D01*
X148983380Y-107306814D01*
X148943187Y-107283608D01*
X148879539Y-107266554D01*
X148815892Y-107249500D01*
X148684108Y-107249500D01*
X148556812Y-107283608D01*
X148442686Y-107349500D01*
X148442683Y-107349502D01*
X148349502Y-107442683D01*
X148349500Y-107442686D01*
X148283608Y-107556812D01*
X148249500Y-107684108D01*
X140650500Y-107684108D01*
X140650500Y-105834108D01*
X168899500Y-105834108D01*
X168899500Y-105965891D01*
X168933608Y-106093187D01*
X168966554Y-106150250D01*
X168999500Y-106207314D01*
X169092686Y-106300500D01*
X169206814Y-106366392D01*
X169334108Y-106400500D01*
X169334110Y-106400500D01*
X169465890Y-106400500D01*
X169465892Y-106400500D01*
X169593186Y-106366392D01*
X169707314Y-106300500D01*
X169800500Y-106207314D01*
X169866392Y-106093186D01*
X169900500Y-105965892D01*
X169900500Y-105834108D01*
X169866392Y-105706814D01*
X169800500Y-105592686D01*
X169707314Y-105499500D01*
X169650250Y-105466554D01*
X169593187Y-105433608D01*
X169513961Y-105412380D01*
X169465892Y-105399500D01*
X169334108Y-105399500D01*
X169206812Y-105433608D01*
X169092686Y-105499500D01*
X169092683Y-105499502D01*
X168999502Y-105592683D01*
X168999500Y-105592686D01*
X168933608Y-105706812D01*
X168899500Y-105834108D01*
X140650500Y-105834108D01*
X140650500Y-104845989D01*
X164373394Y-104845989D01*
X164373394Y-104977772D01*
X164407502Y-105105068D01*
X164440448Y-105162131D01*
X164473394Y-105219195D01*
X164566580Y-105312381D01*
X164680708Y-105378273D01*
X164808002Y-105412381D01*
X164808004Y-105412381D01*
X164939784Y-105412381D01*
X164939786Y-105412381D01*
X165067080Y-105378273D01*
X165181208Y-105312381D01*
X165274394Y-105219195D01*
X165340286Y-105105067D01*
X165374394Y-104977773D01*
X165374394Y-104845989D01*
X165365852Y-104814108D01*
X168074500Y-104814108D01*
X168074500Y-104945892D01*
X168091554Y-105009539D01*
X168108608Y-105073187D01*
X168127015Y-105105068D01*
X168174500Y-105187314D01*
X168267686Y-105280500D01*
X168381814Y-105346392D01*
X168509108Y-105380500D01*
X168509110Y-105380500D01*
X168640890Y-105380500D01*
X168640892Y-105380500D01*
X168768186Y-105346392D01*
X168882314Y-105280500D01*
X168975500Y-105187314D01*
X169041392Y-105073186D01*
X169075500Y-104945892D01*
X169075500Y-104814108D01*
X169041392Y-104686814D01*
X168975500Y-104572686D01*
X168882314Y-104479500D01*
X168823405Y-104445489D01*
X168768187Y-104413608D01*
X168704539Y-104396554D01*
X168640892Y-104379500D01*
X168509108Y-104379500D01*
X168381812Y-104413608D01*
X168267686Y-104479500D01*
X168267683Y-104479502D01*
X168174502Y-104572683D01*
X168174500Y-104572686D01*
X168108608Y-104686812D01*
X168074500Y-104814108D01*
X165365852Y-104814108D01*
X165340286Y-104718695D01*
X165274394Y-104604567D01*
X165181208Y-104511381D01*
X165124144Y-104478435D01*
X165067081Y-104445489D01*
X165003433Y-104428435D01*
X164939786Y-104411381D01*
X164808002Y-104411381D01*
X164680706Y-104445489D01*
X164566580Y-104511381D01*
X164566577Y-104511383D01*
X164473396Y-104604564D01*
X164473394Y-104604567D01*
X164407502Y-104718693D01*
X164373394Y-104845989D01*
X140650500Y-104845989D01*
X140650500Y-101913766D01*
X141124500Y-101913766D01*
X141124500Y-102086233D01*
X141158143Y-102255366D01*
X141158146Y-102255378D01*
X141224138Y-102414698D01*
X141224145Y-102414711D01*
X141319954Y-102558098D01*
X141319957Y-102558102D01*
X141441897Y-102680042D01*
X141441901Y-102680045D01*
X141585288Y-102775854D01*
X141585301Y-102775861D01*
X141714757Y-102829483D01*
X141744626Y-102841855D01*
X141913766Y-102875499D01*
X141913769Y-102875500D01*
X141913771Y-102875500D01*
X142086231Y-102875500D01*
X142086232Y-102875499D01*
X142255374Y-102841855D01*
X142414705Y-102775858D01*
X142558099Y-102680045D01*
X142680045Y-102558099D01*
X142775858Y-102414705D01*
X142841855Y-102255374D01*
X142875500Y-102086229D01*
X142875500Y-101913771D01*
X142875500Y-101913768D01*
X142875499Y-101913766D01*
X142841855Y-101744626D01*
X142820468Y-101692993D01*
X142775861Y-101585301D01*
X142775854Y-101585288D01*
X142680045Y-101441901D01*
X142680042Y-101441897D01*
X142558102Y-101319957D01*
X142558098Y-101319954D01*
X142536088Y-101305247D01*
X143124500Y-101305247D01*
X143124500Y-102694752D01*
X143136131Y-102753229D01*
X143136132Y-102753230D01*
X143180447Y-102819552D01*
X143246769Y-102863867D01*
X143246770Y-102863868D01*
X143305247Y-102875499D01*
X143305250Y-102875500D01*
X143305252Y-102875500D01*
X144694750Y-102875500D01*
X144694751Y-102875499D01*
X144709568Y-102872552D01*
X144753229Y-102863868D01*
X144753229Y-102863867D01*
X144753231Y-102863867D01*
X144819552Y-102819552D01*
X144863867Y-102753231D01*
X144863867Y-102753229D01*
X144863868Y-102753229D01*
X144875499Y-102694752D01*
X144875500Y-102694750D01*
X144875500Y-101896530D01*
X152869500Y-101896530D01*
X152869500Y-102103469D01*
X152909868Y-102306412D01*
X152909870Y-102306420D01*
X152989058Y-102497596D01*
X153104024Y-102669657D01*
X153250342Y-102815975D01*
X153250345Y-102815977D01*
X153422402Y-102930941D01*
X153613580Y-103010130D01*
X153731613Y-103033608D01*
X153816530Y-103050499D01*
X153816534Y-103050500D01*
X153816535Y-103050500D01*
X154023466Y-103050500D01*
X154023467Y-103050499D01*
X154226420Y-103010130D01*
X154417598Y-102930941D01*
X154589655Y-102815977D01*
X154735977Y-102669655D01*
X154850941Y-102497598D01*
X154930130Y-102306420D01*
X154970500Y-102103465D01*
X154970500Y-101896535D01*
X154970499Y-101896530D01*
X155409500Y-101896530D01*
X155409500Y-102103469D01*
X155449868Y-102306412D01*
X155449870Y-102306420D01*
X155529058Y-102497596D01*
X155644024Y-102669657D01*
X155790342Y-102815975D01*
X155790345Y-102815977D01*
X155962402Y-102930941D01*
X156153580Y-103010130D01*
X156271613Y-103033608D01*
X156356530Y-103050499D01*
X156356534Y-103050500D01*
X156356535Y-103050500D01*
X156563466Y-103050500D01*
X156563467Y-103050499D01*
X156766420Y-103010130D01*
X156957598Y-102930941D01*
X157129655Y-102815977D01*
X157275977Y-102669655D01*
X157390941Y-102497598D01*
X157470130Y-102306420D01*
X157510500Y-102103465D01*
X157510500Y-101896535D01*
X157510499Y-101896530D01*
X157949500Y-101896530D01*
X157949500Y-102103469D01*
X157989868Y-102306412D01*
X157989870Y-102306420D01*
X158069058Y-102497596D01*
X158184024Y-102669657D01*
X158330342Y-102815975D01*
X158330345Y-102815977D01*
X158502402Y-102930941D01*
X158693580Y-103010130D01*
X158811613Y-103033608D01*
X158896530Y-103050499D01*
X158896534Y-103050500D01*
X158896535Y-103050500D01*
X159103466Y-103050500D01*
X159103467Y-103050499D01*
X159306420Y-103010130D01*
X159497598Y-102930941D01*
X159669655Y-102815977D01*
X159815977Y-102669655D01*
X159930941Y-102497598D01*
X159951439Y-102448112D01*
X159995279Y-102393708D01*
X160061573Y-102371643D01*
X160129273Y-102388922D01*
X160176884Y-102440059D01*
X160190000Y-102495564D01*
X160190000Y-102897844D01*
X160196401Y-102957372D01*
X160196403Y-102957379D01*
X160246645Y-103092086D01*
X160246649Y-103092093D01*
X160332809Y-103207187D01*
X160332812Y-103207190D01*
X160447906Y-103293350D01*
X160447913Y-103293354D01*
X160582620Y-103343596D01*
X160582627Y-103343598D01*
X160642155Y-103349999D01*
X160642172Y-103350000D01*
X161290000Y-103350000D01*
X161290000Y-102433012D01*
X161347007Y-102465925D01*
X161474174Y-102500000D01*
X161605826Y-102500000D01*
X161732993Y-102465925D01*
X161790000Y-102433012D01*
X161790000Y-103350000D01*
X162437828Y-103350000D01*
X162437844Y-103349999D01*
X162497372Y-103343598D01*
X162497379Y-103343596D01*
X162632086Y-103293354D01*
X162632093Y-103293350D01*
X162747187Y-103207190D01*
X162747190Y-103207187D01*
X162803629Y-103131796D01*
X162833350Y-103092093D01*
X162833354Y-103092086D01*
X162883596Y-102957379D01*
X162883598Y-102957372D01*
X162889999Y-102897844D01*
X162890000Y-102897827D01*
X162890000Y-102250000D01*
X161973012Y-102250000D01*
X162005925Y-102192993D01*
X162040000Y-102065826D01*
X162040000Y-101934174D01*
X162005925Y-101807007D01*
X161973012Y-101750000D01*
X162890000Y-101750000D01*
X162890000Y-101102172D01*
X162889999Y-101102155D01*
X162883598Y-101042627D01*
X162883596Y-101042620D01*
X162833354Y-100907913D01*
X162833350Y-100907906D01*
X162747190Y-100792812D01*
X162747187Y-100792809D01*
X162632093Y-100706649D01*
X162632086Y-100706645D01*
X162497379Y-100656403D01*
X162497372Y-100656401D01*
X162437844Y-100650000D01*
X161790000Y-100650000D01*
X161790000Y-101566988D01*
X161732993Y-101534075D01*
X161605826Y-101500000D01*
X161474174Y-101500000D01*
X161347007Y-101534075D01*
X161290000Y-101566988D01*
X161290000Y-100650000D01*
X160642155Y-100650000D01*
X160582627Y-100656401D01*
X160582620Y-100656403D01*
X160447913Y-100706645D01*
X160447906Y-100706649D01*
X160332812Y-100792809D01*
X160332809Y-100792812D01*
X160246649Y-100907906D01*
X160246645Y-100907913D01*
X160196403Y-101042620D01*
X160196401Y-101042627D01*
X160190000Y-101102155D01*
X160190000Y-101504435D01*
X160170315Y-101571474D01*
X160117511Y-101617229D01*
X160048353Y-101627173D01*
X159984797Y-101598148D01*
X159951439Y-101551888D01*
X159930941Y-101502403D01*
X159930941Y-101502402D01*
X159815977Y-101330345D01*
X159815975Y-101330342D01*
X159669657Y-101184024D01*
X159518833Y-101083248D01*
X159497598Y-101069059D01*
X159306420Y-100989870D01*
X159306412Y-100989868D01*
X159103469Y-100949500D01*
X159103465Y-100949500D01*
X158896535Y-100949500D01*
X158896530Y-100949500D01*
X158693587Y-100989868D01*
X158693579Y-100989870D01*
X158502403Y-101069058D01*
X158330342Y-101184024D01*
X158184024Y-101330342D01*
X158069058Y-101502403D01*
X157989870Y-101693579D01*
X157989868Y-101693587D01*
X157949500Y-101896530D01*
X157510499Y-101896530D01*
X157470130Y-101693580D01*
X157390941Y-101502402D01*
X157275977Y-101330345D01*
X157275975Y-101330342D01*
X157129657Y-101184024D01*
X156978833Y-101083248D01*
X156957598Y-101069059D01*
X156766420Y-100989870D01*
X156766412Y-100989868D01*
X156563469Y-100949500D01*
X156563465Y-100949500D01*
X156356535Y-100949500D01*
X156356530Y-100949500D01*
X156153587Y-100989868D01*
X156153579Y-100989870D01*
X155962403Y-101069058D01*
X155790342Y-101184024D01*
X155644024Y-101330342D01*
X155529058Y-101502403D01*
X155449870Y-101693579D01*
X155449868Y-101693587D01*
X155409500Y-101896530D01*
X154970499Y-101896530D01*
X154930130Y-101693580D01*
X154850941Y-101502402D01*
X154735977Y-101330345D01*
X154735975Y-101330342D01*
X154589657Y-101184024D01*
X154438833Y-101083248D01*
X154417598Y-101069059D01*
X154226420Y-100989870D01*
X154226412Y-100989868D01*
X154023469Y-100949500D01*
X154023465Y-100949500D01*
X153816535Y-100949500D01*
X153816530Y-100949500D01*
X153613587Y-100989868D01*
X153613579Y-100989870D01*
X153422403Y-101069058D01*
X153250342Y-101184024D01*
X153104024Y-101330342D01*
X152989058Y-101502403D01*
X152909870Y-101693579D01*
X152909868Y-101693587D01*
X152869500Y-101896530D01*
X144875500Y-101896530D01*
X144875500Y-101305249D01*
X144875499Y-101305247D01*
X144863868Y-101246770D01*
X144863867Y-101246769D01*
X144819552Y-101180447D01*
X144753230Y-101136132D01*
X144753229Y-101136131D01*
X144694752Y-101124500D01*
X144694748Y-101124500D01*
X143305252Y-101124500D01*
X143305247Y-101124500D01*
X143246770Y-101136131D01*
X143246769Y-101136132D01*
X143180447Y-101180447D01*
X143136132Y-101246769D01*
X143136131Y-101246770D01*
X143124500Y-101305247D01*
X142536088Y-101305247D01*
X142414711Y-101224145D01*
X142414698Y-101224138D01*
X142255378Y-101158146D01*
X142255366Y-101158143D01*
X142086232Y-101124500D01*
X142086229Y-101124500D01*
X141913771Y-101124500D01*
X141913768Y-101124500D01*
X141744633Y-101158143D01*
X141744621Y-101158146D01*
X141585301Y-101224138D01*
X141585288Y-101224145D01*
X141441901Y-101319954D01*
X141441897Y-101319957D01*
X141319957Y-101441897D01*
X141319954Y-101441901D01*
X141224145Y-101585288D01*
X141224138Y-101585301D01*
X141158146Y-101744621D01*
X141158143Y-101744633D01*
X141124500Y-101913766D01*
X140650500Y-101913766D01*
X140650500Y-99048995D01*
X147759499Y-99048995D01*
X147786418Y-99184322D01*
X147786421Y-99184332D01*
X147839221Y-99311804D01*
X147839228Y-99311817D01*
X147898637Y-99400728D01*
X147919515Y-99467406D01*
X147901031Y-99534786D01*
X147864426Y-99572721D01*
X147815447Y-99605447D01*
X147771132Y-99671769D01*
X147771131Y-99671770D01*
X147759500Y-99730247D01*
X147759500Y-100769752D01*
X147771131Y-100828229D01*
X147771132Y-100828230D01*
X147815447Y-100894552D01*
X147881769Y-100938867D01*
X147881770Y-100938868D01*
X147940247Y-100950499D01*
X147940250Y-100950500D01*
X147940252Y-100950500D01*
X148979750Y-100950500D01*
X148979751Y-100950499D01*
X148994568Y-100947552D01*
X149038229Y-100938868D01*
X149038229Y-100938867D01*
X149038231Y-100938867D01*
X149104552Y-100894552D01*
X149137279Y-100845573D01*
X149190889Y-100800769D01*
X149260213Y-100792060D01*
X149309271Y-100811362D01*
X149398182Y-100870771D01*
X149398195Y-100870778D01*
X149464954Y-100898430D01*
X149525672Y-100923580D01*
X149525676Y-100923580D01*
X149525677Y-100923581D01*
X149661004Y-100950500D01*
X149661007Y-100950500D01*
X149798995Y-100950500D01*
X149904757Y-100929462D01*
X149934328Y-100923580D01*
X150061811Y-100870775D01*
X150176542Y-100794114D01*
X150205003Y-100765653D01*
X150277319Y-100693338D01*
X150338642Y-100659853D01*
X150408334Y-100664837D01*
X150452681Y-100693338D01*
X150553454Y-100794111D01*
X150553458Y-100794114D01*
X150668182Y-100870771D01*
X150668195Y-100870778D01*
X150734954Y-100898430D01*
X150795672Y-100923580D01*
X150795676Y-100923580D01*
X150795677Y-100923581D01*
X150931004Y-100950500D01*
X150931007Y-100950500D01*
X151068995Y-100950500D01*
X151174757Y-100929462D01*
X151204328Y-100923580D01*
X151331811Y-100870775D01*
X151446542Y-100794114D01*
X151544114Y-100696542D01*
X151620775Y-100581811D01*
X151673580Y-100454328D01*
X151682389Y-100410041D01*
X151700500Y-100318995D01*
X151700500Y-100181004D01*
X151673581Y-100045677D01*
X151673580Y-100045676D01*
X151673580Y-100045672D01*
X151637199Y-99957839D01*
X151620778Y-99918195D01*
X151620771Y-99918182D01*
X151544114Y-99803458D01*
X151544111Y-99803454D01*
X151443338Y-99702681D01*
X151409853Y-99641358D01*
X151414837Y-99571666D01*
X151443338Y-99527319D01*
X151544111Y-99426545D01*
X151544114Y-99426542D01*
X151620775Y-99311811D01*
X151673580Y-99184328D01*
X151682389Y-99140041D01*
X151700500Y-99048995D01*
X151700500Y-98911004D01*
X151673581Y-98775677D01*
X151673580Y-98775676D01*
X151673580Y-98775672D01*
X151657526Y-98736913D01*
X151620778Y-98648195D01*
X151620769Y-98648179D01*
X151544114Y-98533458D01*
X151544111Y-98533454D01*
X151446545Y-98435888D01*
X151446541Y-98435885D01*
X151443882Y-98434108D01*
X156749500Y-98434108D01*
X156749500Y-98565892D01*
X156749600Y-98566265D01*
X156783608Y-98693187D01*
X156814977Y-98747519D01*
X156849500Y-98807314D01*
X156942686Y-98900500D01*
X157056814Y-98966392D01*
X157184108Y-99000500D01*
X157184110Y-99000500D01*
X157315890Y-99000500D01*
X157315892Y-99000500D01*
X157443186Y-98966392D01*
X157557314Y-98900500D01*
X157650500Y-98807314D01*
X157716392Y-98693186D01*
X157750500Y-98565892D01*
X157750500Y-98434108D01*
X157716392Y-98306814D01*
X157716163Y-98306418D01*
X157683878Y-98250499D01*
X157650500Y-98192686D01*
X157557314Y-98099500D01*
X157491495Y-98061499D01*
X157443187Y-98033608D01*
X157379539Y-98016554D01*
X157315892Y-97999500D01*
X157184108Y-97999500D01*
X157056812Y-98033608D01*
X156942686Y-98099500D01*
X156942683Y-98099502D01*
X156849502Y-98192683D01*
X156849500Y-98192686D01*
X156783608Y-98306812D01*
X156769564Y-98359228D01*
X156749500Y-98434108D01*
X151443882Y-98434108D01*
X151331817Y-98359228D01*
X151331804Y-98359221D01*
X151204332Y-98306421D01*
X151204322Y-98306418D01*
X151068995Y-98279500D01*
X151068993Y-98279500D01*
X150931007Y-98279500D01*
X150931005Y-98279500D01*
X150795677Y-98306418D01*
X150795667Y-98306421D01*
X150668195Y-98359221D01*
X150668182Y-98359228D01*
X150553458Y-98435885D01*
X150553454Y-98435888D01*
X150452681Y-98536662D01*
X150391358Y-98570147D01*
X150321666Y-98565163D01*
X150277319Y-98536662D01*
X150176545Y-98435888D01*
X150176541Y-98435885D01*
X150061817Y-98359228D01*
X150061804Y-98359221D01*
X149934332Y-98306421D01*
X149934322Y-98306418D01*
X149798995Y-98279500D01*
X149798993Y-98279500D01*
X149661007Y-98279500D01*
X149661005Y-98279500D01*
X149525677Y-98306418D01*
X149525667Y-98306421D01*
X149398195Y-98359221D01*
X149398182Y-98359228D01*
X149283458Y-98435885D01*
X149283454Y-98435888D01*
X149182681Y-98536662D01*
X149121358Y-98570147D01*
X149051666Y-98565163D01*
X149007319Y-98536662D01*
X148906545Y-98435888D01*
X148906541Y-98435885D01*
X148791817Y-98359228D01*
X148791804Y-98359221D01*
X148664332Y-98306421D01*
X148664322Y-98306418D01*
X148528995Y-98279500D01*
X148528993Y-98279500D01*
X148391007Y-98279500D01*
X148391005Y-98279500D01*
X148255677Y-98306418D01*
X148255667Y-98306421D01*
X148128195Y-98359221D01*
X148128182Y-98359228D01*
X148013458Y-98435885D01*
X148013454Y-98435888D01*
X147915888Y-98533454D01*
X147915885Y-98533458D01*
X147839231Y-98648179D01*
X147839221Y-98648195D01*
X147786421Y-98775667D01*
X147786418Y-98775677D01*
X147759500Y-98911004D01*
X147759500Y-98911007D01*
X147759500Y-99048993D01*
X147759500Y-99048995D01*
X147759499Y-99048995D01*
X140650500Y-99048995D01*
X140650500Y-97684108D01*
X154499500Y-97684108D01*
X154499500Y-97815892D01*
X154506558Y-97842233D01*
X154533608Y-97943187D01*
X154538486Y-97951635D01*
X154599500Y-98057314D01*
X154692686Y-98150500D01*
X154806814Y-98216392D01*
X154934108Y-98250500D01*
X154934110Y-98250500D01*
X155065890Y-98250500D01*
X155065892Y-98250500D01*
X155193186Y-98216392D01*
X155307314Y-98150500D01*
X155400500Y-98057314D01*
X155466392Y-97943186D01*
X155500500Y-97815892D01*
X155500500Y-97684108D01*
X155466392Y-97556814D01*
X155400500Y-97442686D01*
X155391922Y-97434108D01*
X165249500Y-97434108D01*
X165249500Y-97565891D01*
X165283608Y-97693187D01*
X165289405Y-97703227D01*
X165349500Y-97807314D01*
X165442686Y-97900500D01*
X165478465Y-97921157D01*
X165479958Y-97922019D01*
X165528174Y-97972586D01*
X165541397Y-98041193D01*
X165537733Y-98061499D01*
X165502483Y-98193057D01*
X165502483Y-98324840D01*
X165536591Y-98452136D01*
X165565927Y-98502946D01*
X165602483Y-98566263D01*
X165695669Y-98659449D01*
X165809797Y-98725341D01*
X165937091Y-98759449D01*
X165937093Y-98759449D01*
X166068873Y-98759449D01*
X166068875Y-98759449D01*
X166196169Y-98725341D01*
X166310297Y-98659449D01*
X166355785Y-98613961D01*
X166417108Y-98580476D01*
X166486800Y-98585460D01*
X166515281Y-98600555D01*
X166523776Y-98606590D01*
X166560417Y-98643231D01*
X166640141Y-98689259D01*
X166644906Y-98692645D01*
X166663063Y-98715681D01*
X166683307Y-98736913D01*
X166684442Y-98742805D01*
X166688158Y-98747519D01*
X166690978Y-98776721D01*
X166696529Y-98805520D01*
X166694298Y-98811090D01*
X166694876Y-98817065D01*
X166681463Y-98843152D01*
X166670561Y-98870385D01*
X166663194Y-98878684D01*
X166662928Y-98879203D01*
X166662530Y-98879433D01*
X166660773Y-98881413D01*
X166599500Y-98942686D01*
X166533608Y-99056812D01*
X166499500Y-99184108D01*
X166499500Y-99315891D01*
X166533608Y-99443187D01*
X166547591Y-99467406D01*
X166599500Y-99557314D01*
X166599501Y-99557315D01*
X166599502Y-99557316D01*
X166604506Y-99562320D01*
X166637991Y-99623643D01*
X166633007Y-99693335D01*
X166604510Y-99737678D01*
X166599503Y-99742685D01*
X166599501Y-99742687D01*
X166599500Y-99742689D01*
X166586819Y-99764653D01*
X166533608Y-99856816D01*
X166499500Y-99984111D01*
X166499500Y-100115894D01*
X166533608Y-100243190D01*
X166566554Y-100300253D01*
X166599500Y-100357317D01*
X166692686Y-100450503D01*
X166806814Y-100516395D01*
X166934108Y-100550503D01*
X166934110Y-100550503D01*
X167065890Y-100550503D01*
X167065892Y-100550503D01*
X167193186Y-100516395D01*
X167307314Y-100450503D01*
X167311545Y-100446271D01*
X167372863Y-100412786D01*
X167442555Y-100417767D01*
X167498490Y-100459636D01*
X167506614Y-100471950D01*
X167564648Y-100572467D01*
X167657834Y-100665653D01*
X167657836Y-100665654D01*
X167659676Y-100667066D01*
X167660837Y-100668656D01*
X167663581Y-100671400D01*
X167663153Y-100671827D01*
X167700881Y-100723492D01*
X167705038Y-100793238D01*
X167671875Y-100853124D01*
X167665000Y-100859999D01*
X167665000Y-101560000D01*
X167165000Y-101560000D01*
X167165000Y-100860000D01*
X166766504Y-100860000D01*
X166573318Y-100898427D01*
X166573306Y-100898430D01*
X166391328Y-100973807D01*
X166391315Y-100973814D01*
X166227537Y-101083248D01*
X166227533Y-101083251D01*
X166088251Y-101222533D01*
X166088248Y-101222537D01*
X165978814Y-101386315D01*
X165978807Y-101386328D01*
X165903430Y-101568307D01*
X165903430Y-101568309D01*
X165895138Y-101610000D01*
X166698012Y-101610000D01*
X166680795Y-101619940D01*
X166624940Y-101675795D01*
X166585444Y-101744204D01*
X166565000Y-101820504D01*
X166565000Y-101899496D01*
X166585444Y-101975796D01*
X166624940Y-102044205D01*
X166680795Y-102100060D01*
X166698012Y-102110000D01*
X165895138Y-102110000D01*
X165903430Y-102151690D01*
X165903430Y-102151692D01*
X165978807Y-102333671D01*
X165978814Y-102333684D01*
X166088248Y-102497462D01*
X166088251Y-102497466D01*
X166227533Y-102636748D01*
X166227537Y-102636751D01*
X166391315Y-102746185D01*
X166391328Y-102746192D01*
X166573306Y-102821569D01*
X166573318Y-102821572D01*
X166766504Y-102859999D01*
X166766508Y-102860000D01*
X167165000Y-102860000D01*
X167165000Y-102160000D01*
X167665000Y-102160000D01*
X167665000Y-102715536D01*
X167645315Y-102782575D01*
X167603002Y-102822922D01*
X167591638Y-102829483D01*
X167591632Y-102829487D01*
X167484487Y-102936632D01*
X167484485Y-102936635D01*
X167408719Y-103067863D01*
X167369500Y-103214234D01*
X167369500Y-103365765D01*
X167408719Y-103512136D01*
X167439755Y-103565891D01*
X167484485Y-103643365D01*
X167591635Y-103750515D01*
X167722865Y-103826281D01*
X167869234Y-103865500D01*
X167869236Y-103865500D01*
X168020764Y-103865500D01*
X168020766Y-103865500D01*
X168167135Y-103826281D01*
X168298365Y-103750515D01*
X168405515Y-103643365D01*
X168481281Y-103512135D01*
X168502188Y-103434108D01*
X169499500Y-103434108D01*
X169499500Y-103565891D01*
X169533608Y-103693187D01*
X169566554Y-103750250D01*
X169599500Y-103807314D01*
X169692686Y-103900500D01*
X169806814Y-103966392D01*
X169934108Y-104000500D01*
X169934110Y-104000500D01*
X170065890Y-104000500D01*
X170065892Y-104000500D01*
X170193186Y-103966392D01*
X170307314Y-103900500D01*
X170400500Y-103807314D01*
X170466392Y-103693186D01*
X170500500Y-103565892D01*
X170500500Y-103434108D01*
X170466392Y-103306814D01*
X170400500Y-103192686D01*
X170307314Y-103099500D01*
X170222442Y-103050499D01*
X170193187Y-103033608D01*
X170129539Y-103016554D01*
X170065892Y-102999500D01*
X169934108Y-102999500D01*
X169806812Y-103033608D01*
X169692686Y-103099500D01*
X169692683Y-103099502D01*
X169599502Y-103192683D01*
X169599500Y-103192686D01*
X169533608Y-103306812D01*
X169499500Y-103434108D01*
X168502188Y-103434108D01*
X168520500Y-103365766D01*
X168520500Y-103214234D01*
X168481281Y-103067865D01*
X168405515Y-102936635D01*
X168405510Y-102936630D01*
X168400568Y-102930189D01*
X168403386Y-102928026D01*
X168377697Y-102880979D01*
X168382681Y-102811287D01*
X168424553Y-102755354D01*
X168433620Y-102749585D01*
X168433613Y-102749574D01*
X168602462Y-102636751D01*
X168602466Y-102636748D01*
X168741748Y-102497466D01*
X168741751Y-102497462D01*
X168851185Y-102333684D01*
X168851192Y-102333671D01*
X168926569Y-102151692D01*
X168926569Y-102151690D01*
X168934862Y-102110000D01*
X168131988Y-102110000D01*
X168149205Y-102100060D01*
X168205060Y-102044205D01*
X168244556Y-101975796D01*
X168265000Y-101899496D01*
X168265000Y-101820504D01*
X168244556Y-101744204D01*
X168205060Y-101675795D01*
X168149205Y-101619940D01*
X168131988Y-101610000D01*
X168934862Y-101610000D01*
X168926569Y-101568309D01*
X168926569Y-101568307D01*
X168851192Y-101386328D01*
X168851185Y-101386315D01*
X168741751Y-101222537D01*
X168741748Y-101222533D01*
X168602466Y-101083251D01*
X168602462Y-101083248D01*
X168438684Y-100973814D01*
X168438675Y-100973809D01*
X168263423Y-100901218D01*
X168209020Y-100857377D01*
X168186955Y-100791083D01*
X168204234Y-100723384D01*
X168248874Y-100679271D01*
X168272462Y-100665653D01*
X168365648Y-100572467D01*
X168431540Y-100458339D01*
X168465648Y-100331045D01*
X168465648Y-100199261D01*
X168431540Y-100071967D01*
X168365648Y-99957839D01*
X168272462Y-99864653D01*
X168215398Y-99831707D01*
X168158335Y-99798761D01*
X168094687Y-99781707D01*
X168031040Y-99764653D01*
X167899256Y-99764653D01*
X167771960Y-99798761D01*
X167657834Y-99864653D01*
X167653597Y-99868890D01*
X167633712Y-99879746D01*
X167616467Y-99894434D01*
X167603636Y-99896167D01*
X167592272Y-99902372D01*
X167569674Y-99900754D01*
X167547226Y-99903787D01*
X167535495Y-99898308D01*
X167522581Y-99897384D01*
X167504446Y-99883807D01*
X167483921Y-99874221D01*
X167471699Y-99859290D01*
X167466649Y-99855509D01*
X167461036Y-99847351D01*
X167459744Y-99845302D01*
X167400500Y-99742689D01*
X167385685Y-99727874D01*
X167378290Y-99716148D01*
X167372373Y-99695341D01*
X167362008Y-99676359D01*
X167363006Y-99662401D01*
X167359179Y-99648943D01*
X167365448Y-99628243D01*
X167366992Y-99606667D01*
X167376434Y-99591975D01*
X167379434Y-99582074D01*
X167386869Y-99575741D01*
X167395499Y-99562314D01*
X167400500Y-99557314D01*
X167466392Y-99443186D01*
X167500500Y-99315892D01*
X167500500Y-99184108D01*
X167466392Y-99056814D01*
X167400500Y-98942686D01*
X167307314Y-98849500D01*
X167307311Y-98849498D01*
X167307307Y-98849495D01*
X167232638Y-98806384D01*
X167184423Y-98755817D01*
X167171201Y-98687209D01*
X167197169Y-98622345D01*
X167206942Y-98611333D01*
X167268231Y-98550045D01*
X167334123Y-98435917D01*
X167368231Y-98308623D01*
X167368231Y-98176839D01*
X167334123Y-98049545D01*
X167268231Y-97935417D01*
X167175045Y-97842231D01*
X167112430Y-97806080D01*
X167060918Y-97776339D01*
X166997270Y-97759285D01*
X166933623Y-97742231D01*
X166801839Y-97742231D01*
X166674543Y-97776339D01*
X166560417Y-97842231D01*
X166560414Y-97842233D01*
X166514929Y-97887719D01*
X166514359Y-97888029D01*
X166514043Y-97888596D01*
X166483752Y-97904742D01*
X166453606Y-97921204D01*
X166452958Y-97921157D01*
X166452386Y-97921463D01*
X166418177Y-97918670D01*
X166383914Y-97916220D01*
X166383177Y-97915813D01*
X166382748Y-97915778D01*
X166380666Y-97914425D01*
X166351943Y-97898553D01*
X166345398Y-97893550D01*
X166310297Y-97858449D01*
X166266084Y-97832922D01*
X166259719Y-97828057D01*
X166243609Y-97806080D01*
X166224808Y-97786361D01*
X166223257Y-97778315D01*
X166218412Y-97771705D01*
X166216741Y-97744505D01*
X166211586Y-97717754D01*
X166214206Y-97703227D01*
X166214129Y-97701967D01*
X166214578Y-97701162D01*
X166215249Y-97697448D01*
X166216391Y-97693187D01*
X166216392Y-97693186D01*
X166250500Y-97565892D01*
X166250500Y-97434108D01*
X166216392Y-97306814D01*
X166150500Y-97192686D01*
X166057314Y-97099500D01*
X165999100Y-97065890D01*
X165943187Y-97033608D01*
X165879539Y-97016554D01*
X165815892Y-96999500D01*
X165684108Y-96999500D01*
X165556812Y-97033608D01*
X165442686Y-97099500D01*
X165442683Y-97099502D01*
X165349502Y-97192683D01*
X165349500Y-97192686D01*
X165283608Y-97306812D01*
X165249500Y-97434108D01*
X155391922Y-97434108D01*
X155307314Y-97349500D01*
X155250250Y-97316554D01*
X155193187Y-97283608D01*
X155129539Y-97266554D01*
X155065892Y-97249500D01*
X154934108Y-97249500D01*
X154806812Y-97283608D01*
X154692686Y-97349500D01*
X154692683Y-97349502D01*
X154599502Y-97442683D01*
X154599500Y-97442686D01*
X154533608Y-97556812D01*
X154499500Y-97684108D01*
X140650500Y-97684108D01*
X140650500Y-96934108D01*
X147499500Y-96934108D01*
X147499500Y-97065891D01*
X147533608Y-97193187D01*
X147566121Y-97249500D01*
X147599500Y-97307314D01*
X147692686Y-97400500D01*
X147806814Y-97466392D01*
X147934108Y-97500500D01*
X147934110Y-97500500D01*
X148065890Y-97500500D01*
X148065892Y-97500500D01*
X148193186Y-97466392D01*
X148307314Y-97400500D01*
X148400500Y-97307314D01*
X148466392Y-97193186D01*
X148500500Y-97065892D01*
X148500500Y-96934108D01*
X148466392Y-96806814D01*
X148400500Y-96692686D01*
X148307314Y-96599500D01*
X148250250Y-96566554D01*
X148193187Y-96533608D01*
X148129539Y-96516554D01*
X148065892Y-96499500D01*
X147934108Y-96499500D01*
X147806812Y-96533608D01*
X147692686Y-96599500D01*
X147692683Y-96599502D01*
X147599502Y-96692683D01*
X147599500Y-96692686D01*
X147533608Y-96806812D01*
X147499500Y-96934108D01*
X140650500Y-96934108D01*
X140650500Y-96224108D01*
X159424500Y-96224108D01*
X159424500Y-96355892D01*
X159441554Y-96419539D01*
X159458608Y-96483187D01*
X159465043Y-96494332D01*
X159524500Y-96597314D01*
X159617686Y-96690500D01*
X159731814Y-96756392D01*
X159859108Y-96790500D01*
X159859110Y-96790500D01*
X159990890Y-96790500D01*
X159990892Y-96790500D01*
X160118186Y-96756392D01*
X160232314Y-96690500D01*
X160325500Y-96597314D01*
X160391392Y-96483186D01*
X160425500Y-96355892D01*
X160425500Y-96224108D01*
X160391392Y-96096814D01*
X160325500Y-95982686D01*
X160232314Y-95889500D01*
X160175250Y-95856554D01*
X160118187Y-95823608D01*
X160054539Y-95806554D01*
X159990892Y-95789500D01*
X159859108Y-95789500D01*
X159731812Y-95823608D01*
X159617686Y-95889500D01*
X159617683Y-95889502D01*
X159524502Y-95982683D01*
X159524500Y-95982686D01*
X159458608Y-96096812D01*
X159425332Y-96221004D01*
X159424500Y-96224108D01*
X140650500Y-96224108D01*
X140650500Y-95034108D01*
X152749500Y-95034108D01*
X152749500Y-95165891D01*
X152783608Y-95293187D01*
X152815261Y-95348011D01*
X152849500Y-95407314D01*
X152942686Y-95500500D01*
X153056814Y-95566392D01*
X153184108Y-95600500D01*
X153184110Y-95600500D01*
X153315890Y-95600500D01*
X153315892Y-95600500D01*
X153443186Y-95566392D01*
X153557314Y-95500500D01*
X153650500Y-95407314D01*
X153716392Y-95293186D01*
X153750500Y-95165892D01*
X153750500Y-95034108D01*
X153734610Y-94974806D01*
X162999500Y-94974806D01*
X162999500Y-95106589D01*
X163033608Y-95233885D01*
X163066554Y-95290948D01*
X163099500Y-95348012D01*
X163192686Y-95441198D01*
X163306814Y-95507090D01*
X163434108Y-95541198D01*
X163434110Y-95541198D01*
X163565890Y-95541198D01*
X163565892Y-95541198D01*
X163693186Y-95507090D01*
X163807314Y-95441198D01*
X163900500Y-95348012D01*
X163966392Y-95233884D01*
X164000500Y-95106590D01*
X164000500Y-94974806D01*
X163966392Y-94847512D01*
X163900500Y-94733384D01*
X163807314Y-94640198D01*
X163736823Y-94599500D01*
X163693187Y-94574306D01*
X163629539Y-94557252D01*
X163565892Y-94540198D01*
X163434108Y-94540198D01*
X163306812Y-94574306D01*
X163192686Y-94640198D01*
X163192683Y-94640200D01*
X163099502Y-94733381D01*
X163099500Y-94733384D01*
X163033608Y-94847510D01*
X162999500Y-94974806D01*
X153734610Y-94974806D01*
X153716392Y-94906814D01*
X153650500Y-94792686D01*
X153557314Y-94699500D01*
X153454604Y-94640200D01*
X153443187Y-94633608D01*
X153379539Y-94616554D01*
X153315892Y-94599500D01*
X153184108Y-94599500D01*
X153056812Y-94633608D01*
X152942686Y-94699500D01*
X152942683Y-94699502D01*
X152849502Y-94792683D01*
X152849500Y-94792686D01*
X152783608Y-94906812D01*
X152749500Y-95034108D01*
X140650500Y-95034108D01*
X140650500Y-93934108D01*
X155999500Y-93934108D01*
X155999500Y-94065892D01*
X156016554Y-94129539D01*
X156033608Y-94193187D01*
X156066554Y-94250250D01*
X156099500Y-94307314D01*
X156192686Y-94400500D01*
X156306814Y-94466392D01*
X156434108Y-94500500D01*
X156434110Y-94500500D01*
X156565890Y-94500500D01*
X156565892Y-94500500D01*
X156693186Y-94466392D01*
X156807314Y-94400500D01*
X156900500Y-94307314D01*
X156966392Y-94193186D01*
X157000500Y-94065892D01*
X157000500Y-93934108D01*
X157249500Y-93934108D01*
X157249500Y-94065892D01*
X157266554Y-94129539D01*
X157283608Y-94193187D01*
X157316554Y-94250250D01*
X157349500Y-94307314D01*
X157442686Y-94400500D01*
X157556814Y-94466392D01*
X157684108Y-94500500D01*
X157684110Y-94500500D01*
X157815890Y-94500500D01*
X157815892Y-94500500D01*
X157943186Y-94466392D01*
X158057314Y-94400500D01*
X158150500Y-94307314D01*
X158216392Y-94193186D01*
X158250500Y-94065892D01*
X158250500Y-94000000D01*
X169500000Y-94000000D01*
X169500000Y-94297844D01*
X169506401Y-94357372D01*
X169506403Y-94357379D01*
X169556645Y-94492086D01*
X169556649Y-94492093D01*
X169642809Y-94607187D01*
X169642812Y-94607190D01*
X169757910Y-94693353D01*
X169761686Y-94695415D01*
X169764729Y-94698458D01*
X169765011Y-94698669D01*
X169764980Y-94698709D01*
X169811093Y-94744819D01*
X169825946Y-94813091D01*
X169823879Y-94828439D01*
X169799500Y-94951002D01*
X169799500Y-94951007D01*
X169799500Y-95088993D01*
X169799500Y-95088995D01*
X169799499Y-95088995D01*
X169826418Y-95224322D01*
X169826421Y-95224332D01*
X169879221Y-95351804D01*
X169879228Y-95351817D01*
X169955885Y-95466541D01*
X169955888Y-95466545D01*
X170056662Y-95567319D01*
X170090147Y-95628642D01*
X170085163Y-95698334D01*
X170056662Y-95742681D01*
X169955888Y-95843454D01*
X169955885Y-95843458D01*
X169879228Y-95958182D01*
X169879221Y-95958195D01*
X169826421Y-96085667D01*
X169826418Y-96085677D01*
X169799500Y-96221004D01*
X169799500Y-96221007D01*
X169799500Y-96358993D01*
X169799500Y-96358995D01*
X169799499Y-96358995D01*
X169826418Y-96494322D01*
X169826421Y-96494332D01*
X169879221Y-96621804D01*
X169879228Y-96621817D01*
X169955885Y-96736541D01*
X169955888Y-96736545D01*
X170053454Y-96834111D01*
X170053458Y-96834114D01*
X170168182Y-96910771D01*
X170168195Y-96910778D01*
X170295667Y-96963578D01*
X170295672Y-96963580D01*
X170295676Y-96963580D01*
X170295677Y-96963581D01*
X170431004Y-96990500D01*
X170431007Y-96990500D01*
X170568995Y-96990500D01*
X170660041Y-96972389D01*
X170704328Y-96963580D01*
X170831811Y-96910775D01*
X170946542Y-96834114D01*
X171044114Y-96736542D01*
X171120775Y-96621811D01*
X171130017Y-96599500D01*
X171157310Y-96533608D01*
X171173580Y-96494328D01*
X171200500Y-96358993D01*
X171200500Y-96221007D01*
X171200500Y-96221004D01*
X171173581Y-96085677D01*
X171173580Y-96085676D01*
X171173580Y-96085672D01*
X171130921Y-95982683D01*
X171120778Y-95958195D01*
X171120771Y-95958182D01*
X171044114Y-95843458D01*
X171044111Y-95843454D01*
X170943338Y-95742681D01*
X170909853Y-95681358D01*
X170914837Y-95611666D01*
X170943338Y-95567319D01*
X171044111Y-95466545D01*
X171044114Y-95466542D01*
X171120775Y-95351811D01*
X171173580Y-95224328D01*
X171200500Y-95088993D01*
X171200500Y-94951007D01*
X171200500Y-94951004D01*
X171176120Y-94828440D01*
X171182347Y-94758848D01*
X171225210Y-94703671D01*
X171238316Y-94695412D01*
X171242098Y-94693347D01*
X171357187Y-94607190D01*
X171357190Y-94607187D01*
X171443350Y-94492093D01*
X171443354Y-94492086D01*
X171493596Y-94357379D01*
X171493598Y-94357372D01*
X171499999Y-94297844D01*
X171500000Y-94297827D01*
X171500000Y-94000000D01*
X170709618Y-94000000D01*
X170760064Y-93949554D01*
X170802851Y-93875445D01*
X170825000Y-93792787D01*
X170825000Y-93707213D01*
X170802851Y-93624555D01*
X170760064Y-93550446D01*
X170709618Y-93500000D01*
X170750000Y-93500000D01*
X171500000Y-93500000D01*
X171500000Y-93202172D01*
X171499999Y-93202155D01*
X171493598Y-93142627D01*
X171493596Y-93142620D01*
X171443354Y-93007913D01*
X171443350Y-93007906D01*
X171357190Y-92892812D01*
X171357187Y-92892809D01*
X171242093Y-92806649D01*
X171242086Y-92806645D01*
X171107379Y-92756403D01*
X171107372Y-92756401D01*
X171047844Y-92750000D01*
X170750000Y-92750000D01*
X170750000Y-93500000D01*
X170709618Y-93500000D01*
X170699554Y-93489936D01*
X170625445Y-93447149D01*
X170542787Y-93425000D01*
X170457213Y-93425000D01*
X170374555Y-93447149D01*
X170300446Y-93489936D01*
X170239936Y-93550446D01*
X170197149Y-93624555D01*
X170175000Y-93707213D01*
X170175000Y-93792787D01*
X170197149Y-93875445D01*
X170239936Y-93949554D01*
X170290382Y-94000000D01*
X169500000Y-94000000D01*
X158250500Y-94000000D01*
X158250500Y-93934108D01*
X158216392Y-93806814D01*
X158150500Y-93692686D01*
X158057314Y-93599500D01*
X158000250Y-93566554D01*
X157943187Y-93533608D01*
X157879539Y-93516554D01*
X157815892Y-93499500D01*
X157684108Y-93499500D01*
X157556812Y-93533608D01*
X157442686Y-93599500D01*
X157442683Y-93599502D01*
X157349502Y-93692683D01*
X157349500Y-93692686D01*
X157283608Y-93806812D01*
X157249500Y-93934108D01*
X157000500Y-93934108D01*
X156966392Y-93806814D01*
X156900500Y-93692686D01*
X156807314Y-93599500D01*
X156750250Y-93566554D01*
X156693187Y-93533608D01*
X156629539Y-93516554D01*
X156565892Y-93499500D01*
X156434108Y-93499500D01*
X156306812Y-93533608D01*
X156192686Y-93599500D01*
X156192683Y-93599502D01*
X156099502Y-93692683D01*
X156099500Y-93692686D01*
X156033608Y-93806812D01*
X155999500Y-93934108D01*
X140650500Y-93934108D01*
X140650500Y-93202155D01*
X169500000Y-93202155D01*
X169500000Y-93500000D01*
X170250000Y-93500000D01*
X170250000Y-92750000D01*
X169952155Y-92750000D01*
X169892627Y-92756401D01*
X169892620Y-92756403D01*
X169757913Y-92806645D01*
X169757906Y-92806649D01*
X169642812Y-92892809D01*
X169642809Y-92892812D01*
X169556649Y-93007906D01*
X169556645Y-93007913D01*
X169506403Y-93142620D01*
X169506401Y-93142627D01*
X169500000Y-93202155D01*
X140650500Y-93202155D01*
X140650500Y-91434108D01*
X141999500Y-91434108D01*
X141999500Y-91565891D01*
X142033608Y-91693187D01*
X142055151Y-91730499D01*
X142099500Y-91807314D01*
X142192686Y-91900500D01*
X142306814Y-91966392D01*
X142434108Y-92000500D01*
X142434110Y-92000500D01*
X142565890Y-92000500D01*
X142565892Y-92000500D01*
X142693186Y-91966392D01*
X142807314Y-91900500D01*
X142900500Y-91807314D01*
X142966392Y-91693186D01*
X143000500Y-91565892D01*
X143000500Y-91434108D01*
X144999500Y-91434108D01*
X144999500Y-91565891D01*
X145033608Y-91693187D01*
X145055151Y-91730499D01*
X145099500Y-91807314D01*
X145192686Y-91900500D01*
X145306814Y-91966392D01*
X145434108Y-92000500D01*
X145434110Y-92000500D01*
X145565890Y-92000500D01*
X145565892Y-92000500D01*
X145693186Y-91966392D01*
X145807314Y-91900500D01*
X145900500Y-91807314D01*
X145966392Y-91693186D01*
X145968824Y-91684108D01*
X162399500Y-91684108D01*
X162399500Y-91815891D01*
X162433608Y-91943187D01*
X162447005Y-91966391D01*
X162499500Y-92057314D01*
X162592686Y-92150500D01*
X162706814Y-92216392D01*
X162834108Y-92250500D01*
X162834110Y-92250500D01*
X162965890Y-92250500D01*
X162965892Y-92250500D01*
X163093186Y-92216392D01*
X163207314Y-92150500D01*
X163300500Y-92057314D01*
X163366392Y-91943186D01*
X163400500Y-91815892D01*
X163400500Y-91684108D01*
X163366392Y-91556814D01*
X163300500Y-91442686D01*
X163207314Y-91349500D01*
X163133380Y-91306814D01*
X163093187Y-91283608D01*
X163082162Y-91280654D01*
X162965892Y-91249500D01*
X162834108Y-91249500D01*
X162706812Y-91283608D01*
X162592686Y-91349500D01*
X162592683Y-91349502D01*
X162499502Y-91442683D01*
X162499500Y-91442686D01*
X162433608Y-91556812D01*
X162399500Y-91684108D01*
X145968824Y-91684108D01*
X146000500Y-91565892D01*
X146000500Y-91434108D01*
X145966392Y-91306814D01*
X145900500Y-91192686D01*
X145871922Y-91164108D01*
X164999500Y-91164108D01*
X164999500Y-91295891D01*
X165033608Y-91423187D01*
X165044866Y-91442686D01*
X165099500Y-91537314D01*
X165192686Y-91630500D01*
X165306814Y-91696392D01*
X165434108Y-91730500D01*
X165434110Y-91730500D01*
X165565890Y-91730500D01*
X165565892Y-91730500D01*
X165693186Y-91696392D01*
X165807314Y-91630500D01*
X165900500Y-91537314D01*
X165966392Y-91423186D01*
X166000500Y-91295892D01*
X166000500Y-91164108D01*
X165966392Y-91036814D01*
X165900500Y-90922686D01*
X165807314Y-90829500D01*
X165750250Y-90796554D01*
X165693187Y-90763608D01*
X165629539Y-90746554D01*
X165565892Y-90729500D01*
X165434108Y-90729500D01*
X165306812Y-90763608D01*
X165192686Y-90829500D01*
X165192683Y-90829502D01*
X165099502Y-90922683D01*
X165099500Y-90922686D01*
X165033608Y-91036812D01*
X164999500Y-91164108D01*
X145871922Y-91164108D01*
X145807314Y-91099500D01*
X145750250Y-91066554D01*
X145693187Y-91033608D01*
X145629539Y-91016554D01*
X145565892Y-90999500D01*
X145434108Y-90999500D01*
X145306812Y-91033608D01*
X145192686Y-91099500D01*
X145192683Y-91099502D01*
X145099502Y-91192683D01*
X145099500Y-91192686D01*
X145033608Y-91306812D01*
X144999500Y-91434108D01*
X143000500Y-91434108D01*
X142966392Y-91306814D01*
X142900500Y-91192686D01*
X142807314Y-91099500D01*
X142750250Y-91066554D01*
X142693187Y-91033608D01*
X142629539Y-91016554D01*
X142565892Y-90999500D01*
X142434108Y-90999500D01*
X142306812Y-91033608D01*
X142192686Y-91099500D01*
X142192683Y-91099502D01*
X142099502Y-91192683D01*
X142099500Y-91192686D01*
X142033608Y-91306812D01*
X141999500Y-91434108D01*
X140650500Y-91434108D01*
X140650500Y-89884108D01*
X158224500Y-89884108D01*
X158224500Y-90015892D01*
X158241554Y-90079539D01*
X158258608Y-90143187D01*
X158291554Y-90200250D01*
X158324500Y-90257314D01*
X158417686Y-90350500D01*
X158531814Y-90416392D01*
X158659108Y-90450500D01*
X158659110Y-90450500D01*
X158790890Y-90450500D01*
X158790892Y-90450500D01*
X158918186Y-90416392D01*
X159032314Y-90350500D01*
X159125500Y-90257314D01*
X159191392Y-90143186D01*
X159225500Y-90015892D01*
X159225500Y-89884108D01*
X159191392Y-89756814D01*
X159191389Y-89756808D01*
X159180520Y-89737982D01*
X159180519Y-89737981D01*
X159149415Y-89684108D01*
X169249500Y-89684108D01*
X169249500Y-89815891D01*
X169283608Y-89943187D01*
X169316554Y-90000250D01*
X169349500Y-90057314D01*
X169442686Y-90150500D01*
X169556814Y-90216392D01*
X169684108Y-90250500D01*
X169684110Y-90250500D01*
X169815890Y-90250500D01*
X169815892Y-90250500D01*
X169943186Y-90216392D01*
X170057314Y-90150500D01*
X170150500Y-90057314D01*
X170216392Y-89943186D01*
X170250500Y-89815892D01*
X170250500Y-89684108D01*
X170216392Y-89556814D01*
X170150500Y-89442686D01*
X170057314Y-89349500D01*
X170000250Y-89316554D01*
X169943187Y-89283608D01*
X169879539Y-89266554D01*
X169815892Y-89249500D01*
X169684108Y-89249500D01*
X169556812Y-89283608D01*
X169442686Y-89349500D01*
X169442683Y-89349502D01*
X169349502Y-89442683D01*
X169349500Y-89442686D01*
X169283608Y-89556812D01*
X169249500Y-89684108D01*
X159149415Y-89684108D01*
X159125500Y-89642686D01*
X159032314Y-89549500D01*
X158947442Y-89500499D01*
X158918187Y-89483608D01*
X158853931Y-89466391D01*
X158790892Y-89449500D01*
X158659108Y-89449500D01*
X158531812Y-89483608D01*
X158417686Y-89549500D01*
X158417683Y-89549502D01*
X158324502Y-89642683D01*
X158324500Y-89642686D01*
X158258608Y-89756812D01*
X158242778Y-89815892D01*
X158224500Y-89884108D01*
X140650500Y-89884108D01*
X140650500Y-88934108D01*
X149999500Y-88934108D01*
X149999500Y-89065891D01*
X150033608Y-89193187D01*
X150066121Y-89249500D01*
X150099500Y-89307314D01*
X150192686Y-89400500D01*
X150306814Y-89466392D01*
X150434108Y-89500500D01*
X150434110Y-89500500D01*
X150565890Y-89500500D01*
X150565892Y-89500500D01*
X150693186Y-89466392D01*
X150807314Y-89400500D01*
X150900500Y-89307314D01*
X150966392Y-89193186D01*
X151000500Y-89065892D01*
X151000500Y-88934108D01*
X150966392Y-88806814D01*
X150900500Y-88692686D01*
X150807314Y-88599500D01*
X150750250Y-88566554D01*
X150693187Y-88533608D01*
X150629539Y-88516554D01*
X150565892Y-88499500D01*
X150434108Y-88499500D01*
X150306812Y-88533608D01*
X150192686Y-88599500D01*
X150192683Y-88599502D01*
X150099502Y-88692683D01*
X150099500Y-88692686D01*
X150033608Y-88806812D01*
X149999500Y-88934108D01*
X140650500Y-88934108D01*
X140650500Y-86934108D01*
X144999500Y-86934108D01*
X144999500Y-87065891D01*
X145033608Y-87193187D01*
X145066554Y-87250250D01*
X145099500Y-87307314D01*
X145192686Y-87400500D01*
X145306814Y-87466392D01*
X145434108Y-87500500D01*
X145434110Y-87500500D01*
X145565890Y-87500500D01*
X145565892Y-87500500D01*
X145693186Y-87466392D01*
X145807314Y-87400500D01*
X145900500Y-87307314D01*
X145966392Y-87193186D01*
X146000500Y-87065892D01*
X146000500Y-86934108D01*
X145966392Y-86806814D01*
X145900500Y-86692686D01*
X145807314Y-86599500D01*
X145750250Y-86566554D01*
X145693187Y-86533608D01*
X145629539Y-86516554D01*
X145565892Y-86499500D01*
X145434108Y-86499500D01*
X145306812Y-86533608D01*
X145192686Y-86599500D01*
X145192683Y-86599502D01*
X145099502Y-86692683D01*
X145099500Y-86692686D01*
X145033608Y-86806812D01*
X144999500Y-86934108D01*
X140650500Y-86934108D01*
X140650500Y-81434108D01*
X159999500Y-81434108D01*
X159999500Y-81565892D01*
X160016554Y-81629539D01*
X160033608Y-81693187D01*
X160041693Y-81707190D01*
X160099500Y-81807314D01*
X160192686Y-81900500D01*
X160306814Y-81966392D01*
X160434108Y-82000500D01*
X160434110Y-82000500D01*
X160565890Y-82000500D01*
X160565892Y-82000500D01*
X160693186Y-81966392D01*
X160807314Y-81900500D01*
X160900500Y-81807314D01*
X160966392Y-81693186D01*
X161000500Y-81565892D01*
X161000500Y-81434108D01*
X160966392Y-81306814D01*
X160900500Y-81192686D01*
X160807314Y-81099500D01*
X160693186Y-81033608D01*
X160565892Y-80999500D01*
X160434108Y-80999500D01*
X160306812Y-81033608D01*
X160192686Y-81099500D01*
X160192683Y-81099502D01*
X160099502Y-81192683D01*
X160099500Y-81192686D01*
X160033608Y-81306812D01*
X160009221Y-81397827D01*
X159999500Y-81434108D01*
X140650500Y-81434108D01*
X140650500Y-80934108D01*
X162499500Y-80934108D01*
X162499500Y-81065891D01*
X162533608Y-81193187D01*
X162566554Y-81250250D01*
X162599500Y-81307314D01*
X162692686Y-81400500D01*
X162806814Y-81466392D01*
X162934108Y-81500500D01*
X162934110Y-81500500D01*
X163065890Y-81500500D01*
X163065892Y-81500500D01*
X163193186Y-81466392D01*
X163307314Y-81400500D01*
X163400500Y-81307314D01*
X163466392Y-81193186D01*
X163500500Y-81065892D01*
X163500500Y-80934108D01*
X163466392Y-80806814D01*
X163400500Y-80692686D01*
X163307314Y-80599500D01*
X163248989Y-80565826D01*
X163193187Y-80533608D01*
X163158284Y-80524256D01*
X163065892Y-80499500D01*
X162934108Y-80499500D01*
X162806812Y-80533608D01*
X162692686Y-80599500D01*
X162692683Y-80599502D01*
X162599502Y-80692683D01*
X162599500Y-80692686D01*
X162533608Y-80806812D01*
X162499500Y-80934108D01*
X140650500Y-80934108D01*
X140650500Y-80396530D01*
X167409500Y-80396530D01*
X167409500Y-80603469D01*
X167449868Y-80806412D01*
X167449870Y-80806420D01*
X167529058Y-80997596D01*
X167644024Y-81169657D01*
X167790342Y-81315975D01*
X167790345Y-81315977D01*
X167962402Y-81430941D01*
X168153580Y-81510130D01*
X168356530Y-81550499D01*
X168356534Y-81550500D01*
X168356535Y-81550500D01*
X168563466Y-81550500D01*
X168563467Y-81550499D01*
X168766420Y-81510130D01*
X168957598Y-81430941D01*
X169129655Y-81315977D01*
X169275977Y-81169655D01*
X169390941Y-80997598D01*
X169411439Y-80948112D01*
X169455279Y-80893708D01*
X169521573Y-80871643D01*
X169589273Y-80888922D01*
X169636884Y-80940059D01*
X169650000Y-80995564D01*
X169650000Y-81397844D01*
X169656401Y-81457372D01*
X169656403Y-81457379D01*
X169706645Y-81592086D01*
X169706649Y-81592093D01*
X169792809Y-81707187D01*
X169792812Y-81707190D01*
X169907906Y-81793350D01*
X169907913Y-81793354D01*
X170042620Y-81843596D01*
X170042627Y-81843598D01*
X170102155Y-81849999D01*
X170102172Y-81850000D01*
X170750000Y-81850000D01*
X170750000Y-80933012D01*
X170807007Y-80965925D01*
X170934174Y-81000000D01*
X171065826Y-81000000D01*
X171192993Y-80965925D01*
X171250000Y-80933012D01*
X171250000Y-81850000D01*
X171897828Y-81850000D01*
X171897844Y-81849999D01*
X171957372Y-81843598D01*
X171957379Y-81843596D01*
X172092086Y-81793354D01*
X172092093Y-81793350D01*
X172207187Y-81707190D01*
X172207190Y-81707187D01*
X172293350Y-81592093D01*
X172293354Y-81592086D01*
X172343596Y-81457379D01*
X172343598Y-81457372D01*
X172349999Y-81397844D01*
X172350000Y-81397827D01*
X172350000Y-80750000D01*
X171433012Y-80750000D01*
X171465925Y-80692993D01*
X171500000Y-80565826D01*
X171500000Y-80434174D01*
X171465925Y-80307007D01*
X171433012Y-80250000D01*
X172350000Y-80250000D01*
X172350000Y-79602172D01*
X172349999Y-79602155D01*
X172343598Y-79542627D01*
X172343596Y-79542620D01*
X172293354Y-79407913D01*
X172293350Y-79407906D01*
X172207190Y-79292812D01*
X172207187Y-79292809D01*
X172092093Y-79206649D01*
X172092086Y-79206645D01*
X171957379Y-79156403D01*
X171957372Y-79156401D01*
X171897844Y-79150000D01*
X171250000Y-79150000D01*
X171250000Y-80066988D01*
X171192993Y-80034075D01*
X171065826Y-80000000D01*
X170934174Y-80000000D01*
X170807007Y-80034075D01*
X170750000Y-80066988D01*
X170750000Y-79150000D01*
X170102155Y-79150000D01*
X170042627Y-79156401D01*
X170042620Y-79156403D01*
X169907913Y-79206645D01*
X169907906Y-79206649D01*
X169792812Y-79292809D01*
X169792809Y-79292812D01*
X169706649Y-79407906D01*
X169706645Y-79407913D01*
X169656403Y-79542620D01*
X169656401Y-79542627D01*
X169650000Y-79602155D01*
X169650000Y-80004435D01*
X169630315Y-80071474D01*
X169577511Y-80117229D01*
X169508353Y-80127173D01*
X169444797Y-80098148D01*
X169411439Y-80051888D01*
X169390941Y-80002403D01*
X169390941Y-80002402D01*
X169275977Y-79830345D01*
X169275975Y-79830342D01*
X169129657Y-79684024D01*
X169007130Y-79602155D01*
X168957598Y-79569059D01*
X168766420Y-79489870D01*
X168766412Y-79489868D01*
X168563469Y-79449500D01*
X168563465Y-79449500D01*
X168356535Y-79449500D01*
X168356530Y-79449500D01*
X168153587Y-79489868D01*
X168153579Y-79489870D01*
X167962403Y-79569058D01*
X167790342Y-79684024D01*
X167644024Y-79830342D01*
X167529058Y-80002403D01*
X167449870Y-80193579D01*
X167449868Y-80193587D01*
X167409500Y-80396530D01*
X140650500Y-80396530D01*
X140650500Y-77235901D01*
X140670185Y-77168862D01*
X140722989Y-77123107D01*
X140792034Y-77113147D01*
X147000000Y-78000000D01*
G37*
%TD.AperFunction*%
%TD*%
M02*
