%TF.GenerationSoftware,KiCad,Pcbnew,10.0.2*%
%TF.CreationDate,2026-05-30T16:51:19-05:00*%
%TF.ProjectId,OM-FlexGrid-Rigid-PCB,4f4d2d46-6c65-4784-9772-69642d526967,rev?*%
%TF.SameCoordinates,Original*%
%TF.FileFunction,Copper,L3,Inr*%
%TF.FilePolarity,Positive*%
%FSLAX46Y46*%
G04 Gerber Fmt 4.6, Leading zero omitted, Abs format (unit mm)*
G04 Created by KiCad (PCBNEW 10.0.2) date 2026-05-30 16:51:19*
%MOMM*%
%LPD*%
G01*
G04 APERTURE LIST*
%TA.AperFunction,ComponentPad*%
%ADD10R,1.000000X1.000000*%
%TD*%
%TA.AperFunction,ComponentPad*%
%ADD11C,1.000000*%
%TD*%
%TA.AperFunction,ComponentPad*%
%ADD12R,1.350000X1.350000*%
%TD*%
%TA.AperFunction,ComponentPad*%
%ADD13C,1.350000*%
%TD*%
%TA.AperFunction,ComponentPad*%
%ADD14R,1.700000X1.700000*%
%TD*%
%TA.AperFunction,ComponentPad*%
%ADD15C,1.700000*%
%TD*%
%TA.AperFunction,HeatsinkPad*%
%ADD16O,2.100000X1.000000*%
%TD*%
%TA.AperFunction,HeatsinkPad*%
%ADD17O,1.600000X1.000000*%
%TD*%
%TA.AperFunction,ViaPad*%
%ADD18C,0.600000*%
%TD*%
%TA.AperFunction,Conductor*%
%ADD19C,0.330000*%
%TD*%
%TA.AperFunction,Conductor*%
%ADD20C,0.500000*%
%TD*%
G04 APERTURE END LIST*
D10*
%TO.N,GP41*%
%TO.C,J1*%
X148460000Y-100250000D03*
D11*
%TO.N,SPI_MOSI*%
X148460000Y-98980000D03*
%TO.N,SPI_SCK*%
X149730000Y-100250000D03*
%TO.N,SPI_MISO*%
X149730000Y-98980000D03*
%TO.N,CS*%
X151000000Y-100250000D03*
%TO.N,GP40*%
X151000000Y-98980000D03*
%TD*%
D12*
%TO.N,GND*%
%TO.C,J7*%
X144500000Y-126500000D03*
D13*
%TO.N,+3V3*%
X142500000Y-126500000D03*
%TD*%
D14*
%TO.N,GND*%
%TO.C,J2*%
X171000000Y-80500000D03*
D15*
%TO.N,VBAT*%
X168460000Y-80500000D03*
%TD*%
D14*
%TO.N,GND*%
%TO.C,SCRN1*%
X161540000Y-102000000D03*
D15*
%TO.N,+3V3*%
X159000000Y-102000000D03*
%TO.N,SCL*%
X156460000Y-102000000D03*
%TO.N,SDA*%
X153920000Y-102000000D03*
%TD*%
D16*
%TO.N,GND*%
%TO.C,J4*%
X167415000Y-110500000D03*
D17*
X171595000Y-110500000D03*
D16*
X167415000Y-101860000D03*
D17*
X171595000Y-101860000D03*
%TD*%
D10*
%TO.N,GND*%
%TO.C,J6*%
X170500000Y-93750000D03*
D11*
%TO.N,RX*%
X170500000Y-95020000D03*
%TO.N,TX*%
X170500000Y-96290000D03*
%TD*%
D12*
%TO.N,VBAT*%
%TO.C,J5*%
X144000000Y-102000000D03*
D13*
%TO.N,MotorGND*%
X142000000Y-102000000D03*
%TD*%
D18*
%TO.N,GND*%
X162500000Y-88000000D03*
X147500000Y-120800000D03*
X154000000Y-87500000D03*
X157000000Y-111000000D03*
X171500000Y-115300000D03*
X161950000Y-113500000D03*
X165500000Y-78530000D03*
X160000000Y-92500000D03*
X146000000Y-83750000D03*
X161850000Y-106000000D03*
X148000000Y-78530000D03*
X154000000Y-109500000D03*
X165000000Y-121250000D03*
X151500000Y-127000000D03*
X170000000Y-124250000D03*
X163750000Y-108950000D03*
X158250000Y-86250000D03*
X143550000Y-90000000D03*
X141850000Y-113300000D03*
X170000000Y-121250000D03*
X156850000Y-87650000D03*
X141500000Y-87000000D03*
X141850000Y-105800000D03*
X163100000Y-112000000D03*
X151500000Y-121500000D03*
X158500000Y-78500000D03*
X161100000Y-83000000D03*
X165000000Y-124250000D03*
%TO.N,ROW_2*%
X162500000Y-126500000D03*
%TO.N,VBUS*%
X145500000Y-91500000D03*
X169750000Y-89750000D03*
X168527500Y-107527500D03*
X168575000Y-104880000D03*
X150500000Y-89000000D03*
X145500000Y-87000000D03*
%TO.N,SELECT*%
X159925000Y-96290000D03*
%TO.N,+3V3*%
X162900000Y-91750000D03*
X159500000Y-121500000D03*
X158725000Y-89950000D03*
X152752162Y-108872354D03*
X159275000Y-115500000D03*
X163000000Y-81000000D03*
%TO.N,MENU*%
X153250000Y-95100000D03*
%TO.N,SPI_MOSI*%
X155000000Y-97750000D03*
%TO.N,SPI_MISO*%
X157250000Y-98500000D03*
%TO.N,PWR_OFF*%
X160500000Y-81500000D03*
%TO.N,ROW_3*%
X164000000Y-127250000D03*
%TO.N,VBAT*%
X142500000Y-91500000D03*
%TO.N,EN*%
X170000000Y-103500000D03*
%TO.N,ADC_BAT*%
X165500000Y-91230000D03*
%TO.N,ROW_0*%
X160500000Y-121000000D03*
%TO.N,COL_0*%
X150000000Y-124500000D03*
%TO.N,COL_1*%
X150800000Y-124800000D03*
%TO.N,COL_2*%
X151623836Y-124821741D03*
%TO.N,COL_3*%
X153166175Y-125019853D03*
%TO.N,COL_4*%
X153812471Y-125491887D03*
%TO.N,COL_5*%
X154590572Y-125305976D03*
%TO.N,COL_6*%
X155614952Y-124483578D03*
%TO.N,COL_7*%
X156674265Y-124174265D03*
%TO.N,COL_8*%
X152578185Y-117500000D03*
%TO.N,COL_9*%
X153100000Y-118111472D03*
%TO.N,COL_10*%
X153771509Y-118546305D03*
%TO.N,COL_11*%
X154570170Y-118500000D03*
%TO.N,COL_12*%
X155091684Y-119106652D03*
%TO.N,COL_13*%
X156000000Y-119300000D03*
%TO.N,COL_14*%
X157000000Y-119700000D03*
%TO.N,ROW_1*%
X161500000Y-122000000D03*
%TO.N,SDA*%
X163500000Y-95040698D03*
%TO.N,100*%
X148000000Y-97000000D03*
%TO.N,D+*%
X164873894Y-104911881D03*
%TO.N,D-*%
X169400000Y-105900000D03*
%TO.N,RX*%
X157750000Y-94000000D03*
%TO.N,TX*%
X156500000Y-94000000D03*
%TO.N,S0*%
X167965148Y-100265153D03*
X151900000Y-119521815D03*
%TO.N,S1*%
X167000000Y-100050003D03*
X150750000Y-120750000D03*
%TO.N,S3*%
X166867731Y-98242731D03*
X151500000Y-114750000D03*
%TO.N,S2*%
X167000000Y-99250000D03*
X150750000Y-116750000D03*
%TO.N,GP16_E*%
X150750000Y-107500000D03*
X166002983Y-98258949D03*
%TO.N,MOT_SIG*%
X165750000Y-97500000D03*
X148750000Y-107750000D03*
%TD*%
%TO.N,VBUS*%
D19*
X148500000Y-87000000D02*
X145500000Y-87000000D01*
X169750000Y-89750000D02*
X169000000Y-90500000D01*
X168830000Y-100255000D02*
X168830000Y-104625000D01*
X168575000Y-100000000D02*
X168830000Y-100255000D01*
X167000000Y-90500000D02*
X168575000Y-92075000D01*
X165500000Y-89000000D02*
X167000000Y-90500000D01*
X168830000Y-104625000D02*
X168575000Y-104880000D01*
X148000000Y-89000000D02*
X145500000Y-91500000D01*
X150500000Y-89000000D02*
X148500000Y-87000000D01*
X150500000Y-89000000D02*
X165500000Y-89000000D01*
X169000000Y-90500000D02*
X167000000Y-90500000D01*
X168575000Y-92075000D02*
X168575000Y-100000000D01*
X150500000Y-89000000D02*
X148000000Y-89000000D01*
%TO.N,VBAT*%
D20*
X147500000Y-80000000D02*
X142500000Y-85000000D01*
X144000000Y-100000000D02*
X144000000Y-102000000D01*
X168460000Y-80500000D02*
X167960000Y-80000000D01*
X142500000Y-91500000D02*
X142500000Y-98500000D01*
X167960000Y-80000000D02*
X147500000Y-80000000D01*
X142500000Y-85000000D02*
X142500000Y-91500000D01*
X142500000Y-98500000D02*
X144000000Y-100000000D01*
%TD*%
%TA.AperFunction,Conductor*%
%TO.N,+3V3*%
G36*
X147500000Y-78000000D02*
G01*
X147500004Y-78000000D01*
X147522824Y-78000000D01*
X147589863Y-78019685D01*
X147635618Y-78072489D01*
X147645562Y-78141647D01*
X147616537Y-78205203D01*
X147610505Y-78211681D01*
X147599502Y-78222683D01*
X147599500Y-78222686D01*
X147533608Y-78336812D01*
X147499500Y-78464108D01*
X147499500Y-78595891D01*
X147533608Y-78723187D01*
X147566554Y-78780250D01*
X147599500Y-78837314D01*
X147692686Y-78930500D01*
X147806814Y-78996392D01*
X147934108Y-79030500D01*
X147934110Y-79030500D01*
X148065890Y-79030500D01*
X148065892Y-79030500D01*
X148193186Y-78996392D01*
X148307314Y-78930500D01*
X148400500Y-78837314D01*
X148466392Y-78723186D01*
X148500500Y-78595892D01*
X148500500Y-78464108D01*
X148466392Y-78336814D01*
X148400500Y-78222686D01*
X148389495Y-78211681D01*
X148356010Y-78150358D01*
X148360994Y-78080666D01*
X148402866Y-78024733D01*
X148468330Y-78000316D01*
X148477176Y-78000000D01*
X157995973Y-78000000D01*
X158063012Y-78019685D01*
X158108767Y-78072489D01*
X158118711Y-78141647D01*
X158103360Y-78186000D01*
X158033609Y-78306810D01*
X158033609Y-78306811D01*
X158033608Y-78306813D01*
X158033608Y-78306814D01*
X157999500Y-78434108D01*
X157999500Y-78565892D01*
X158016554Y-78629539D01*
X158033608Y-78693187D01*
X158050929Y-78723187D01*
X158099500Y-78807314D01*
X158192686Y-78900500D01*
X158306814Y-78966392D01*
X158434108Y-79000500D01*
X158434110Y-79000500D01*
X158565890Y-79000500D01*
X158565892Y-79000500D01*
X158693186Y-78966392D01*
X158807314Y-78900500D01*
X158900500Y-78807314D01*
X158966392Y-78693186D01*
X159000500Y-78565892D01*
X159000500Y-78434108D01*
X158966392Y-78306814D01*
X158900500Y-78192686D01*
X158896640Y-78186000D01*
X158880167Y-78118100D01*
X158903019Y-78052073D01*
X158957940Y-78008883D01*
X159004027Y-78000000D01*
X165022824Y-78000000D01*
X165089863Y-78019685D01*
X165135618Y-78072489D01*
X165145562Y-78141647D01*
X165116537Y-78205203D01*
X165110505Y-78211681D01*
X165099502Y-78222683D01*
X165099500Y-78222686D01*
X165033608Y-78336812D01*
X164999500Y-78464108D01*
X164999500Y-78595891D01*
X165033608Y-78723187D01*
X165066554Y-78780250D01*
X165099500Y-78837314D01*
X165192686Y-78930500D01*
X165306814Y-78996392D01*
X165434108Y-79030500D01*
X165434110Y-79030500D01*
X165565890Y-79030500D01*
X165565892Y-79030500D01*
X165693186Y-78996392D01*
X165807314Y-78930500D01*
X165900500Y-78837314D01*
X165966392Y-78723186D01*
X166000500Y-78595892D01*
X166000500Y-78464108D01*
X165966392Y-78336814D01*
X165900500Y-78222686D01*
X165889495Y-78211681D01*
X165856010Y-78150358D01*
X165860994Y-78080666D01*
X165902866Y-78024733D01*
X165968330Y-78000316D01*
X165977176Y-78000000D01*
X166499989Y-78000000D01*
X166500000Y-78000000D01*
X172517767Y-77623889D01*
X172585902Y-77639354D01*
X172634862Y-77689201D01*
X172649500Y-77747648D01*
X172649500Y-101324481D01*
X172629815Y-101391520D01*
X172577011Y-101437275D01*
X172507853Y-101447219D01*
X172444297Y-101418194D01*
X172437819Y-101412162D01*
X172341545Y-101315888D01*
X172341541Y-101315885D01*
X172226817Y-101239228D01*
X172226804Y-101239221D01*
X172099332Y-101186421D01*
X172099322Y-101186418D01*
X171963995Y-101159500D01*
X171963993Y-101159500D01*
X171226007Y-101159500D01*
X171226005Y-101159500D01*
X171090677Y-101186418D01*
X171090667Y-101186421D01*
X170963195Y-101239221D01*
X170963182Y-101239228D01*
X170848458Y-101315885D01*
X170848454Y-101315888D01*
X170750888Y-101413454D01*
X170750885Y-101413458D01*
X170674228Y-101528182D01*
X170674221Y-101528195D01*
X170621421Y-101655667D01*
X170621418Y-101655677D01*
X170594500Y-101791004D01*
X170594500Y-101791007D01*
X170594500Y-101928993D01*
X170594500Y-101928995D01*
X170594499Y-101928995D01*
X170621418Y-102064322D01*
X170621421Y-102064332D01*
X170674221Y-102191804D01*
X170674228Y-102191817D01*
X170750885Y-102306541D01*
X170750888Y-102306545D01*
X170848454Y-102404111D01*
X170848458Y-102404114D01*
X170963182Y-102480771D01*
X170963195Y-102480778D01*
X171090667Y-102533578D01*
X171090672Y-102533580D01*
X171090676Y-102533580D01*
X171090677Y-102533581D01*
X171226004Y-102560500D01*
X171226007Y-102560500D01*
X171963995Y-102560500D01*
X172055041Y-102542389D01*
X172099328Y-102533580D01*
X172226811Y-102480775D01*
X172341542Y-102404114D01*
X172358983Y-102386673D01*
X172437819Y-102307838D01*
X172499142Y-102274353D01*
X172568834Y-102279337D01*
X172624767Y-102321209D01*
X172649184Y-102386673D01*
X172649500Y-102395519D01*
X172649500Y-109964481D01*
X172629815Y-110031520D01*
X172577011Y-110077275D01*
X172507853Y-110087219D01*
X172444297Y-110058194D01*
X172437819Y-110052162D01*
X172341545Y-109955888D01*
X172341541Y-109955885D01*
X172226817Y-109879228D01*
X172226804Y-109879221D01*
X172099332Y-109826421D01*
X172099322Y-109826418D01*
X171963995Y-109799500D01*
X171963993Y-109799500D01*
X171226007Y-109799500D01*
X171226005Y-109799500D01*
X171090677Y-109826418D01*
X171090667Y-109826421D01*
X170963195Y-109879221D01*
X170963182Y-109879228D01*
X170848458Y-109955885D01*
X170848454Y-109955888D01*
X170750888Y-110053454D01*
X170750885Y-110053458D01*
X170674228Y-110168182D01*
X170674221Y-110168195D01*
X170621421Y-110295667D01*
X170621418Y-110295677D01*
X170594500Y-110431004D01*
X170594500Y-110431007D01*
X170594500Y-110568993D01*
X170594500Y-110568995D01*
X170594499Y-110568995D01*
X170621418Y-110704322D01*
X170621421Y-110704332D01*
X170674221Y-110831804D01*
X170674228Y-110831817D01*
X170750885Y-110946541D01*
X170750888Y-110946545D01*
X170848454Y-111044111D01*
X170848458Y-111044114D01*
X170963182Y-111120771D01*
X170963195Y-111120778D01*
X171090667Y-111173578D01*
X171090672Y-111173580D01*
X171090676Y-111173580D01*
X171090677Y-111173581D01*
X171226004Y-111200500D01*
X171226007Y-111200500D01*
X171963995Y-111200500D01*
X172055041Y-111182389D01*
X172099328Y-111173580D01*
X172226811Y-111120775D01*
X172341542Y-111044114D01*
X172358983Y-111026673D01*
X172437819Y-110947838D01*
X172499142Y-110914353D01*
X172568834Y-110919337D01*
X172624767Y-110961209D01*
X172649184Y-111026673D01*
X172649500Y-111035519D01*
X172649500Y-130647438D01*
X172649394Y-130652562D01*
X172632636Y-131057726D01*
X172631790Y-131067940D01*
X172581947Y-131467802D01*
X172580260Y-131477911D01*
X172497568Y-131872286D01*
X172495052Y-131882221D01*
X172380075Y-132268423D01*
X172376747Y-132278116D01*
X172230274Y-132653491D01*
X172226158Y-132662876D01*
X172049182Y-133024889D01*
X172044304Y-133033903D01*
X171838037Y-133380064D01*
X171832431Y-133388644D01*
X171598284Y-133716587D01*
X171591989Y-133724674D01*
X171331565Y-134032155D01*
X171324624Y-134039695D01*
X171039695Y-134324624D01*
X171032155Y-134331565D01*
X170724674Y-134591989D01*
X170716587Y-134598284D01*
X170388644Y-134832431D01*
X170380064Y-134838037D01*
X170033903Y-135044304D01*
X170024889Y-135049182D01*
X169662876Y-135226158D01*
X169653491Y-135230274D01*
X169278116Y-135376747D01*
X169268423Y-135380075D01*
X168882221Y-135495052D01*
X168872286Y-135497568D01*
X168477911Y-135580260D01*
X168467802Y-135581947D01*
X168067940Y-135631790D01*
X168057726Y-135632636D01*
X167652563Y-135649394D01*
X167647439Y-135649500D01*
X145652561Y-135649500D01*
X145647437Y-135649394D01*
X145242273Y-135632636D01*
X145232059Y-135631790D01*
X144832197Y-135581947D01*
X144822088Y-135580260D01*
X144427713Y-135497568D01*
X144417778Y-135495052D01*
X144031576Y-135380075D01*
X144021883Y-135376747D01*
X143646508Y-135230274D01*
X143637123Y-135226158D01*
X143275110Y-135049182D01*
X143266096Y-135044304D01*
X142919935Y-134838037D01*
X142911355Y-134832431D01*
X142583412Y-134598284D01*
X142575325Y-134591989D01*
X142267844Y-134331565D01*
X142260304Y-134324624D01*
X141975375Y-134039695D01*
X141968434Y-134032155D01*
X141708010Y-133724674D01*
X141701715Y-133716587D01*
X141467568Y-133388644D01*
X141461962Y-133380064D01*
X141255695Y-133033903D01*
X141250817Y-133024889D01*
X141073841Y-132662876D01*
X141069725Y-132653491D01*
X140924001Y-132280035D01*
X140923247Y-132278104D01*
X140919928Y-132268436D01*
X140804943Y-131882208D01*
X140802434Y-131872300D01*
X140719736Y-131477897D01*
X140718054Y-131467817D01*
X140668207Y-131067919D01*
X140667364Y-131057746D01*
X140660580Y-130893713D01*
X143649500Y-130893713D01*
X143649500Y-131106287D01*
X143682754Y-131316243D01*
X143735283Y-131477911D01*
X143748444Y-131518414D01*
X143844951Y-131707820D01*
X143969890Y-131879786D01*
X144120213Y-132030109D01*
X144292179Y-132155048D01*
X144292181Y-132155049D01*
X144292184Y-132155051D01*
X144481588Y-132251557D01*
X144683757Y-132317246D01*
X144893713Y-132350500D01*
X144893714Y-132350500D01*
X145106286Y-132350500D01*
X145106287Y-132350500D01*
X145316243Y-132317246D01*
X145518412Y-132251557D01*
X145707816Y-132155051D01*
X145729789Y-132139086D01*
X145879786Y-132030109D01*
X145879788Y-132030106D01*
X145879792Y-132030104D01*
X146030104Y-131879792D01*
X146030106Y-131879788D01*
X146030109Y-131879786D01*
X146155048Y-131707820D01*
X146155047Y-131707820D01*
X146155051Y-131707816D01*
X146251557Y-131518412D01*
X146317246Y-131316243D01*
X146350500Y-131106287D01*
X146350500Y-130893713D01*
X166649500Y-130893713D01*
X166649500Y-131106287D01*
X166682754Y-131316243D01*
X166735283Y-131477911D01*
X166748444Y-131518414D01*
X166844951Y-131707820D01*
X166969890Y-131879786D01*
X167120213Y-132030109D01*
X167292179Y-132155048D01*
X167292181Y-132155049D01*
X167292184Y-132155051D01*
X167481588Y-132251557D01*
X167683757Y-132317246D01*
X167893713Y-132350500D01*
X167893714Y-132350500D01*
X168106286Y-132350500D01*
X168106287Y-132350500D01*
X168316243Y-132317246D01*
X168518412Y-132251557D01*
X168707816Y-132155051D01*
X168729789Y-132139086D01*
X168879786Y-132030109D01*
X168879788Y-132030106D01*
X168879792Y-132030104D01*
X169030104Y-131879792D01*
X169030106Y-131879788D01*
X169030109Y-131879786D01*
X169155048Y-131707820D01*
X169155047Y-131707820D01*
X169155051Y-131707816D01*
X169251557Y-131518412D01*
X169317246Y-131316243D01*
X169350500Y-131106287D01*
X169350500Y-130893713D01*
X169317246Y-130683757D01*
X169251557Y-130481588D01*
X169155051Y-130292184D01*
X169155049Y-130292181D01*
X169155048Y-130292179D01*
X169030109Y-130120213D01*
X168879786Y-129969890D01*
X168707820Y-129844951D01*
X168518414Y-129748444D01*
X168518413Y-129748443D01*
X168518412Y-129748443D01*
X168316243Y-129682754D01*
X168316241Y-129682753D01*
X168316240Y-129682753D01*
X168154957Y-129657208D01*
X168106287Y-129649500D01*
X167893713Y-129649500D01*
X167845042Y-129657208D01*
X167683760Y-129682753D01*
X167481585Y-129748444D01*
X167292179Y-129844951D01*
X167120213Y-129969890D01*
X166969890Y-130120213D01*
X166844951Y-130292179D01*
X166748444Y-130481585D01*
X166682753Y-130683760D01*
X166650760Y-130885760D01*
X166649500Y-130893713D01*
X146350500Y-130893713D01*
X146317246Y-130683757D01*
X146251557Y-130481588D01*
X146155051Y-130292184D01*
X146155049Y-130292181D01*
X146155048Y-130292179D01*
X146030109Y-130120213D01*
X145879786Y-129969890D01*
X145707820Y-129844951D01*
X145518414Y-129748444D01*
X145518413Y-129748443D01*
X145518412Y-129748443D01*
X145316243Y-129682754D01*
X145316241Y-129682753D01*
X145316240Y-129682753D01*
X145154957Y-129657208D01*
X145106287Y-129649500D01*
X144893713Y-129649500D01*
X144845042Y-129657208D01*
X144683760Y-129682753D01*
X144481585Y-129748444D01*
X144292179Y-129844951D01*
X144120213Y-129969890D01*
X143969890Y-130120213D01*
X143844951Y-130292179D01*
X143748444Y-130481585D01*
X143682753Y-130683760D01*
X143650760Y-130885760D01*
X143649500Y-130893713D01*
X140660580Y-130893713D01*
X140650606Y-130652562D01*
X140650500Y-130647438D01*
X140650500Y-126407526D01*
X141325000Y-126407526D01*
X141325000Y-126592473D01*
X141353933Y-126775147D01*
X141411083Y-126951040D01*
X141411084Y-126951043D01*
X141495050Y-127115834D01*
X141510015Y-127136430D01*
X141510016Y-127136431D01*
X142100000Y-126546447D01*
X142100000Y-126552661D01*
X142127259Y-126654394D01*
X142179920Y-126745606D01*
X142254394Y-126820080D01*
X142345606Y-126872741D01*
X142447339Y-126900000D01*
X142453553Y-126900000D01*
X141863568Y-127489983D01*
X141863568Y-127489984D01*
X141884165Y-127504949D01*
X142048956Y-127588915D01*
X142048959Y-127588916D01*
X142224852Y-127646066D01*
X142407527Y-127675000D01*
X142592473Y-127675000D01*
X142775147Y-127646066D01*
X142951040Y-127588916D01*
X142951043Y-127588915D01*
X143115836Y-127504947D01*
X143115845Y-127504942D01*
X143136430Y-127489984D01*
X143136431Y-127489983D01*
X142546448Y-126900000D01*
X142552661Y-126900000D01*
X142654394Y-126872741D01*
X142745606Y-126820080D01*
X142820080Y-126745606D01*
X142872741Y-126654394D01*
X142900000Y-126552661D01*
X142900000Y-126546447D01*
X143489982Y-127136430D01*
X143501156Y-127135551D01*
X143569533Y-127149916D01*
X143619289Y-127198967D01*
X143632501Y-127234976D01*
X143636132Y-127253230D01*
X143680447Y-127319552D01*
X143746769Y-127363867D01*
X143746770Y-127363868D01*
X143805247Y-127375499D01*
X143805250Y-127375500D01*
X143805252Y-127375500D01*
X145194750Y-127375500D01*
X145194751Y-127375499D01*
X145209568Y-127372552D01*
X145253229Y-127363868D01*
X145253229Y-127363867D01*
X145253231Y-127363867D01*
X145319552Y-127319552D01*
X145363867Y-127253231D01*
X145363867Y-127253229D01*
X145363868Y-127253229D01*
X145375499Y-127194752D01*
X145375500Y-127194750D01*
X145375500Y-126934108D01*
X150999500Y-126934108D01*
X150999500Y-127065891D01*
X151033608Y-127193187D01*
X151066554Y-127250250D01*
X151099500Y-127307314D01*
X151192686Y-127400500D01*
X151306814Y-127466392D01*
X151434108Y-127500500D01*
X151434110Y-127500500D01*
X151565890Y-127500500D01*
X151565892Y-127500500D01*
X151693186Y-127466392D01*
X151807314Y-127400500D01*
X151900500Y-127307314D01*
X151966392Y-127193186D01*
X151968824Y-127184108D01*
X163499500Y-127184108D01*
X163499500Y-127315892D01*
X163515472Y-127375500D01*
X163533608Y-127443187D01*
X163547005Y-127466391D01*
X163599500Y-127557314D01*
X163692686Y-127650500D01*
X163806814Y-127716392D01*
X163934108Y-127750500D01*
X163934110Y-127750500D01*
X164065890Y-127750500D01*
X164065892Y-127750500D01*
X164193186Y-127716392D01*
X164307314Y-127650500D01*
X164400500Y-127557314D01*
X164466392Y-127443186D01*
X164500500Y-127315892D01*
X164500500Y-127184108D01*
X164466392Y-127056814D01*
X164400500Y-126942686D01*
X164307314Y-126849500D01*
X164250250Y-126816554D01*
X164193187Y-126783608D01*
X164129539Y-126766554D01*
X164065892Y-126749500D01*
X163934108Y-126749500D01*
X163806812Y-126783608D01*
X163692686Y-126849500D01*
X163692683Y-126849502D01*
X163599502Y-126942683D01*
X163599500Y-126942686D01*
X163533608Y-127056812D01*
X163499500Y-127184108D01*
X151968824Y-127184108D01*
X152000500Y-127065892D01*
X152000500Y-126934108D01*
X151966392Y-126806814D01*
X151900500Y-126692686D01*
X151807314Y-126599500D01*
X151693186Y-126533608D01*
X151565892Y-126499500D01*
X151434108Y-126499500D01*
X151306812Y-126533608D01*
X151192686Y-126599500D01*
X151192683Y-126599502D01*
X151099502Y-126692683D01*
X151099500Y-126692686D01*
X151033608Y-126806812D01*
X150999500Y-126934108D01*
X145375500Y-126934108D01*
X145375500Y-126434108D01*
X161999500Y-126434108D01*
X161999500Y-126565891D01*
X162033608Y-126693187D01*
X162063873Y-126745606D01*
X162099500Y-126807314D01*
X162192686Y-126900500D01*
X162306814Y-126966392D01*
X162434108Y-127000500D01*
X162434110Y-127000500D01*
X162565890Y-127000500D01*
X162565892Y-127000500D01*
X162693186Y-126966392D01*
X162807314Y-126900500D01*
X162900500Y-126807314D01*
X162966392Y-126693186D01*
X163000500Y-126565892D01*
X163000500Y-126434108D01*
X162966392Y-126306814D01*
X162900500Y-126192686D01*
X162807314Y-126099500D01*
X162719775Y-126048959D01*
X162693187Y-126033608D01*
X162629539Y-126016554D01*
X162565892Y-125999500D01*
X162434108Y-125999500D01*
X162306812Y-126033608D01*
X162192686Y-126099500D01*
X162192683Y-126099502D01*
X162099502Y-126192683D01*
X162099500Y-126192686D01*
X162033608Y-126306812D01*
X161999500Y-126434108D01*
X145375500Y-126434108D01*
X145375500Y-125805249D01*
X145375499Y-125805247D01*
X145363868Y-125746770D01*
X145363867Y-125746769D01*
X145319552Y-125680447D01*
X145253230Y-125636132D01*
X145253229Y-125636131D01*
X145194752Y-125624500D01*
X145194748Y-125624500D01*
X143805252Y-125624500D01*
X143805247Y-125624500D01*
X143746770Y-125636131D01*
X143746769Y-125636132D01*
X143680447Y-125680447D01*
X143636132Y-125746769D01*
X143632501Y-125765024D01*
X143600114Y-125826934D01*
X143539397Y-125861506D01*
X143501157Y-125864447D01*
X143489984Y-125863567D01*
X142900000Y-126453551D01*
X142900000Y-126447339D01*
X142872741Y-126345606D01*
X142820080Y-126254394D01*
X142745606Y-126179920D01*
X142654394Y-126127259D01*
X142552661Y-126100000D01*
X142546447Y-126100000D01*
X143136431Y-125510016D01*
X143136430Y-125510015D01*
X143115834Y-125495050D01*
X142951043Y-125411084D01*
X142951040Y-125411083D01*
X142775147Y-125353933D01*
X142592473Y-125325000D01*
X142407527Y-125325000D01*
X142224852Y-125353933D01*
X142048959Y-125411083D01*
X142048956Y-125411084D01*
X141884167Y-125495049D01*
X141863568Y-125510015D01*
X142453554Y-126100000D01*
X142447339Y-126100000D01*
X142345606Y-126127259D01*
X142254394Y-126179920D01*
X142179920Y-126254394D01*
X142127259Y-126345606D01*
X142100000Y-126447339D01*
X142100000Y-126453553D01*
X141510015Y-125863568D01*
X141495049Y-125884167D01*
X141411084Y-126048956D01*
X141411083Y-126048959D01*
X141353933Y-126224852D01*
X141325000Y-126407526D01*
X140650500Y-126407526D01*
X140650500Y-124434108D01*
X149499500Y-124434108D01*
X149499500Y-124565892D01*
X149502885Y-124578524D01*
X149533608Y-124693187D01*
X149544781Y-124712539D01*
X149599500Y-124807314D01*
X149692686Y-124900500D01*
X149806814Y-124966392D01*
X149934108Y-125000500D01*
X149934110Y-125000500D01*
X150065890Y-125000500D01*
X150065892Y-125000500D01*
X150193186Y-124966392D01*
X150193197Y-124966385D01*
X150193545Y-124966242D01*
X150193878Y-124966206D01*
X150201037Y-124964288D01*
X150201335Y-124965403D01*
X150263014Y-124958767D01*
X150325496Y-124990037D01*
X150348395Y-125018798D01*
X150399500Y-125107314D01*
X150492686Y-125200500D01*
X150606814Y-125266392D01*
X150734108Y-125300500D01*
X150734110Y-125300500D01*
X150865890Y-125300500D01*
X150865892Y-125300500D01*
X150993186Y-125266392D01*
X151107314Y-125200500D01*
X151113366Y-125194447D01*
X151174684Y-125160963D01*
X151244376Y-125165944D01*
X151288728Y-125194447D01*
X151316522Y-125222241D01*
X151430650Y-125288133D01*
X151557944Y-125322241D01*
X151557946Y-125322241D01*
X151689726Y-125322241D01*
X151689728Y-125322241D01*
X151817022Y-125288133D01*
X151931150Y-125222241D01*
X152024336Y-125129055D01*
X152090228Y-125014927D01*
X152106564Y-124953961D01*
X152665675Y-124953961D01*
X152665675Y-125085745D01*
X152671455Y-125107316D01*
X152699783Y-125213040D01*
X152730586Y-125266391D01*
X152765675Y-125327167D01*
X152858861Y-125420353D01*
X152972989Y-125486245D01*
X153100283Y-125520353D01*
X153100285Y-125520353D01*
X153206794Y-125520353D01*
X153273833Y-125540038D01*
X153319588Y-125592842D01*
X153326567Y-125612256D01*
X153346079Y-125685073D01*
X153411971Y-125799201D01*
X153505157Y-125892387D01*
X153619285Y-125958279D01*
X153746579Y-125992387D01*
X153746581Y-125992387D01*
X153878361Y-125992387D01*
X153878363Y-125992387D01*
X154005657Y-125958279D01*
X154119785Y-125892387D01*
X154212971Y-125799201D01*
X154212974Y-125799194D01*
X154217656Y-125793095D01*
X154274084Y-125751892D01*
X154343830Y-125747737D01*
X154378034Y-125761195D01*
X154397383Y-125772367D01*
X154397385Y-125772367D01*
X154397386Y-125772368D01*
X154524680Y-125806476D01*
X154524682Y-125806476D01*
X154656462Y-125806476D01*
X154656464Y-125806476D01*
X154783758Y-125772368D01*
X154897886Y-125706476D01*
X154991072Y-125613290D01*
X155056964Y-125499162D01*
X155091072Y-125371868D01*
X155091072Y-125240084D01*
X155056964Y-125112790D01*
X155053802Y-125107314D01*
X155044607Y-125091387D01*
X154991072Y-124998662D01*
X154897886Y-124905476D01*
X154840822Y-124872530D01*
X154783759Y-124839584D01*
X154720111Y-124822530D01*
X154656464Y-124805476D01*
X154524680Y-124805476D01*
X154397384Y-124839584D01*
X154283258Y-124905476D01*
X154283255Y-124905478D01*
X154190068Y-124998665D01*
X154185379Y-125004776D01*
X154128948Y-125045974D01*
X154059201Y-125050123D01*
X154025010Y-125036668D01*
X154005659Y-125025496D01*
X154005658Y-125025495D01*
X154005657Y-125025495D01*
X153878363Y-124991387D01*
X153771852Y-124991387D01*
X153704813Y-124971702D01*
X153659058Y-124918898D01*
X153652077Y-124899481D01*
X153652042Y-124899349D01*
X153632567Y-124826667D01*
X153566675Y-124712539D01*
X153473489Y-124619353D01*
X153416425Y-124586407D01*
X153359362Y-124553461D01*
X153313267Y-124541110D01*
X153232067Y-124519353D01*
X153100283Y-124519353D01*
X152972987Y-124553461D01*
X152858861Y-124619353D01*
X152858858Y-124619355D01*
X152765677Y-124712536D01*
X152765675Y-124712539D01*
X152699783Y-124826665D01*
X152678666Y-124905476D01*
X152665675Y-124953961D01*
X152106564Y-124953961D01*
X152124336Y-124887633D01*
X152124336Y-124755849D01*
X152090228Y-124628555D01*
X152024336Y-124514427D01*
X151931150Y-124421241D01*
X151924993Y-124417686D01*
X155114452Y-124417686D01*
X155114452Y-124549470D01*
X155121230Y-124574765D01*
X155148560Y-124676765D01*
X155169213Y-124712536D01*
X155214452Y-124790892D01*
X155307638Y-124884078D01*
X155421766Y-124949970D01*
X155549060Y-124984078D01*
X155549062Y-124984078D01*
X155680842Y-124984078D01*
X155680844Y-124984078D01*
X155808138Y-124949970D01*
X155922266Y-124884078D01*
X156015452Y-124790892D01*
X156081344Y-124676764D01*
X156107667Y-124578520D01*
X156144030Y-124518864D01*
X156206877Y-124488334D01*
X156276253Y-124496628D01*
X156315122Y-124522936D01*
X156366951Y-124574765D01*
X156481079Y-124640657D01*
X156608373Y-124674765D01*
X156608375Y-124674765D01*
X156740155Y-124674765D01*
X156740157Y-124674765D01*
X156867451Y-124640657D01*
X156981579Y-124574765D01*
X157074765Y-124481579D01*
X157140657Y-124367451D01*
X157174765Y-124240157D01*
X157174765Y-124184108D01*
X164499500Y-124184108D01*
X164499500Y-124315892D01*
X164510072Y-124355349D01*
X164533608Y-124443187D01*
X164555774Y-124481579D01*
X164599500Y-124557314D01*
X164692686Y-124650500D01*
X164806814Y-124716392D01*
X164934108Y-124750500D01*
X164934110Y-124750500D01*
X165065890Y-124750500D01*
X165065892Y-124750500D01*
X165193186Y-124716392D01*
X165307314Y-124650500D01*
X165400500Y-124557314D01*
X165466392Y-124443186D01*
X165500500Y-124315892D01*
X165500500Y-124184108D01*
X169499500Y-124184108D01*
X169499500Y-124315892D01*
X169510072Y-124355349D01*
X169533608Y-124443187D01*
X169555774Y-124481579D01*
X169599500Y-124557314D01*
X169692686Y-124650500D01*
X169806814Y-124716392D01*
X169934108Y-124750500D01*
X169934110Y-124750500D01*
X170065890Y-124750500D01*
X170065892Y-124750500D01*
X170193186Y-124716392D01*
X170307314Y-124650500D01*
X170400500Y-124557314D01*
X170466392Y-124443186D01*
X170500500Y-124315892D01*
X170500500Y-124184108D01*
X170466392Y-124056814D01*
X170400500Y-123942686D01*
X170307314Y-123849500D01*
X170250250Y-123816554D01*
X170193187Y-123783608D01*
X170129539Y-123766554D01*
X170065892Y-123749500D01*
X169934108Y-123749500D01*
X169806812Y-123783608D01*
X169692686Y-123849500D01*
X169692683Y-123849502D01*
X169599502Y-123942683D01*
X169599500Y-123942686D01*
X169533608Y-124056812D01*
X169511592Y-124138979D01*
X169499500Y-124184108D01*
X165500500Y-124184108D01*
X165466392Y-124056814D01*
X165400500Y-123942686D01*
X165307314Y-123849500D01*
X165250250Y-123816554D01*
X165193187Y-123783608D01*
X165129539Y-123766554D01*
X165065892Y-123749500D01*
X164934108Y-123749500D01*
X164806812Y-123783608D01*
X164692686Y-123849500D01*
X164692683Y-123849502D01*
X164599502Y-123942683D01*
X164599500Y-123942686D01*
X164533608Y-124056812D01*
X164511592Y-124138979D01*
X164499500Y-124184108D01*
X157174765Y-124184108D01*
X157174765Y-124108373D01*
X157140657Y-123981079D01*
X157074765Y-123866951D01*
X156981579Y-123773765D01*
X156924515Y-123740819D01*
X156867452Y-123707873D01*
X156803804Y-123690819D01*
X156740157Y-123673765D01*
X156608373Y-123673765D01*
X156481077Y-123707873D01*
X156366951Y-123773765D01*
X156366948Y-123773767D01*
X156273767Y-123866948D01*
X156273765Y-123866951D01*
X156207873Y-123981079D01*
X156193798Y-124033608D01*
X156181550Y-124079319D01*
X156145185Y-124138979D01*
X156082338Y-124169508D01*
X156012962Y-124161213D01*
X155974094Y-124134906D01*
X155922268Y-124083080D01*
X155922266Y-124083078D01*
X155836582Y-124033608D01*
X155808139Y-124017186D01*
X155742132Y-123999500D01*
X155680844Y-123983078D01*
X155549060Y-123983078D01*
X155421764Y-124017186D01*
X155307638Y-124083078D01*
X155307635Y-124083080D01*
X155214454Y-124176261D01*
X155214452Y-124176264D01*
X155148560Y-124290390D01*
X155134939Y-124341227D01*
X155114452Y-124417686D01*
X151924993Y-124417686D01*
X151874086Y-124388295D01*
X151817023Y-124355349D01*
X151739581Y-124334599D01*
X151689728Y-124321241D01*
X151557944Y-124321241D01*
X151430648Y-124355349D01*
X151316522Y-124421241D01*
X151310466Y-124427297D01*
X151249141Y-124460779D01*
X151179450Y-124455792D01*
X151135107Y-124427293D01*
X151107316Y-124399502D01*
X151107314Y-124399500D01*
X151050250Y-124366554D01*
X150993187Y-124333608D01*
X150893188Y-124306814D01*
X150865892Y-124299500D01*
X150734108Y-124299500D01*
X150606804Y-124333610D01*
X150606430Y-124333766D01*
X150606088Y-124333802D01*
X150598963Y-124335712D01*
X150598665Y-124334599D01*
X150536960Y-124341227D01*
X150474484Y-124309946D01*
X150451605Y-124281203D01*
X150400500Y-124192686D01*
X150307314Y-124099500D01*
X150233380Y-124056814D01*
X150193187Y-124033608D01*
X150129539Y-124016554D01*
X150065892Y-123999500D01*
X149934108Y-123999500D01*
X149806812Y-124033608D01*
X149692686Y-124099500D01*
X149692683Y-124099502D01*
X149599502Y-124192683D01*
X149599500Y-124192686D01*
X149533608Y-124306812D01*
X149508465Y-124400650D01*
X149499500Y-124434108D01*
X140650500Y-124434108D01*
X140650500Y-120734108D01*
X146999500Y-120734108D01*
X146999500Y-120865891D01*
X147033608Y-120993187D01*
X147037253Y-120999500D01*
X147099500Y-121107314D01*
X147192686Y-121200500D01*
X147306814Y-121266392D01*
X147434108Y-121300500D01*
X147434110Y-121300500D01*
X147565890Y-121300500D01*
X147565892Y-121300500D01*
X147693186Y-121266392D01*
X147807314Y-121200500D01*
X147900500Y-121107314D01*
X147966392Y-120993186D01*
X148000500Y-120865892D01*
X148000500Y-120734108D01*
X147987103Y-120684108D01*
X150249500Y-120684108D01*
X150249500Y-120815892D01*
X150258505Y-120849500D01*
X150283608Y-120943187D01*
X150312476Y-120993186D01*
X150349500Y-121057314D01*
X150442686Y-121150500D01*
X150556814Y-121216392D01*
X150684108Y-121250500D01*
X150684110Y-121250500D01*
X150815890Y-121250500D01*
X150815892Y-121250500D01*
X150859251Y-121238882D01*
X150929097Y-121240543D01*
X150986961Y-121279705D01*
X151014466Y-121343933D01*
X151011118Y-121390749D01*
X150999500Y-121434108D01*
X150999500Y-121565891D01*
X151033608Y-121693187D01*
X151047005Y-121716391D01*
X151099500Y-121807314D01*
X151192686Y-121900500D01*
X151306814Y-121966392D01*
X151434108Y-122000500D01*
X151434110Y-122000500D01*
X151565890Y-122000500D01*
X151565892Y-122000500D01*
X151693186Y-121966392D01*
X151749103Y-121934108D01*
X160999500Y-121934108D01*
X160999500Y-122065891D01*
X161033608Y-122193187D01*
X161066554Y-122250250D01*
X161099500Y-122307314D01*
X161192686Y-122400500D01*
X161306814Y-122466392D01*
X161434108Y-122500500D01*
X161434110Y-122500500D01*
X161565890Y-122500500D01*
X161565892Y-122500500D01*
X161693186Y-122466392D01*
X161807314Y-122400500D01*
X161900500Y-122307314D01*
X161966392Y-122193186D01*
X162000500Y-122065892D01*
X162000500Y-121934108D01*
X161966392Y-121806814D01*
X161900500Y-121692686D01*
X161807314Y-121599500D01*
X161749100Y-121565890D01*
X161693187Y-121533608D01*
X161629539Y-121516554D01*
X161565892Y-121499500D01*
X161434108Y-121499500D01*
X161306812Y-121533608D01*
X161192686Y-121599500D01*
X161192683Y-121599502D01*
X161099502Y-121692683D01*
X161099500Y-121692686D01*
X161033608Y-121806812D01*
X160999500Y-121934108D01*
X151749103Y-121934108D01*
X151807314Y-121900500D01*
X151900500Y-121807314D01*
X151966392Y-121693186D01*
X152000500Y-121565892D01*
X152000500Y-121434108D01*
X151966392Y-121306814D01*
X151900500Y-121192686D01*
X151807314Y-121099500D01*
X151693186Y-121033608D01*
X151565892Y-120999500D01*
X151434108Y-120999500D01*
X151390749Y-121011118D01*
X151320899Y-121009455D01*
X151263037Y-120970292D01*
X151247542Y-120934108D01*
X159999500Y-120934108D01*
X159999500Y-121065892D01*
X160016554Y-121129539D01*
X160033608Y-121193187D01*
X160047005Y-121216391D01*
X160099500Y-121307314D01*
X160192686Y-121400500D01*
X160306814Y-121466392D01*
X160434108Y-121500500D01*
X160434110Y-121500500D01*
X160565890Y-121500500D01*
X160565892Y-121500500D01*
X160693186Y-121466392D01*
X160807314Y-121400500D01*
X160900500Y-121307314D01*
X160966392Y-121193186D01*
X160968824Y-121184108D01*
X164499500Y-121184108D01*
X164499500Y-121315892D01*
X164516554Y-121379539D01*
X164533608Y-121443187D01*
X164547005Y-121466391D01*
X164599500Y-121557314D01*
X164692686Y-121650500D01*
X164806814Y-121716392D01*
X164934108Y-121750500D01*
X164934110Y-121750500D01*
X165065890Y-121750500D01*
X165065892Y-121750500D01*
X165193186Y-121716392D01*
X165307314Y-121650500D01*
X165400500Y-121557314D01*
X165466392Y-121443186D01*
X165500500Y-121315892D01*
X165500500Y-121184108D01*
X169499500Y-121184108D01*
X169499500Y-121315892D01*
X169516554Y-121379539D01*
X169533608Y-121443187D01*
X169547005Y-121466391D01*
X169599500Y-121557314D01*
X169692686Y-121650500D01*
X169806814Y-121716392D01*
X169934108Y-121750500D01*
X169934110Y-121750500D01*
X170065890Y-121750500D01*
X170065892Y-121750500D01*
X170193186Y-121716392D01*
X170307314Y-121650500D01*
X170400500Y-121557314D01*
X170466392Y-121443186D01*
X170500500Y-121315892D01*
X170500500Y-121184108D01*
X170466392Y-121056814D01*
X170400500Y-120942686D01*
X170307314Y-120849500D01*
X170233380Y-120806814D01*
X170193187Y-120783608D01*
X170129539Y-120766554D01*
X170065892Y-120749500D01*
X169934108Y-120749500D01*
X169806812Y-120783608D01*
X169692686Y-120849500D01*
X169692683Y-120849502D01*
X169599502Y-120942683D01*
X169599500Y-120942686D01*
X169533608Y-121056812D01*
X169520076Y-121107316D01*
X169499500Y-121184108D01*
X165500500Y-121184108D01*
X165466392Y-121056814D01*
X165400500Y-120942686D01*
X165307314Y-120849500D01*
X165233380Y-120806814D01*
X165193187Y-120783608D01*
X165129539Y-120766554D01*
X165065892Y-120749500D01*
X164934108Y-120749500D01*
X164806812Y-120783608D01*
X164692686Y-120849500D01*
X164692683Y-120849502D01*
X164599502Y-120942683D01*
X164599500Y-120942686D01*
X164533608Y-121056812D01*
X164520076Y-121107316D01*
X164499500Y-121184108D01*
X160968824Y-121184108D01*
X161000500Y-121065892D01*
X161000500Y-120934108D01*
X160966392Y-120806814D01*
X160900500Y-120692686D01*
X160807314Y-120599500D01*
X160733380Y-120556814D01*
X160693187Y-120533608D01*
X160629539Y-120516554D01*
X160565892Y-120499500D01*
X160434108Y-120499500D01*
X160306812Y-120533608D01*
X160192686Y-120599500D01*
X160192683Y-120599502D01*
X160099502Y-120692683D01*
X160099500Y-120692686D01*
X160033608Y-120806812D01*
X159999500Y-120934108D01*
X151247542Y-120934108D01*
X151235533Y-120906063D01*
X151238881Y-120859252D01*
X151250500Y-120815892D01*
X151250500Y-120684108D01*
X151216392Y-120556814D01*
X151150500Y-120442686D01*
X151057314Y-120349500D01*
X150970712Y-120299500D01*
X150943187Y-120283608D01*
X150879539Y-120266554D01*
X150815892Y-120249500D01*
X150684108Y-120249500D01*
X150556812Y-120283608D01*
X150442686Y-120349500D01*
X150442683Y-120349502D01*
X150349502Y-120442683D01*
X150349500Y-120442686D01*
X150283608Y-120556812D01*
X150249500Y-120684108D01*
X147987103Y-120684108D01*
X147966392Y-120606814D01*
X147900500Y-120492686D01*
X147807314Y-120399500D01*
X147750250Y-120366554D01*
X147693187Y-120333608D01*
X147629539Y-120316554D01*
X147565892Y-120299500D01*
X147434108Y-120299500D01*
X147306812Y-120333608D01*
X147192686Y-120399500D01*
X147192683Y-120399502D01*
X147099502Y-120492683D01*
X147099500Y-120492686D01*
X147033608Y-120606812D01*
X146999500Y-120734108D01*
X140650500Y-120734108D01*
X140650500Y-119455923D01*
X151399500Y-119455923D01*
X151399500Y-119587707D01*
X151404754Y-119607314D01*
X151433608Y-119715002D01*
X151448004Y-119739936D01*
X151499500Y-119829129D01*
X151592686Y-119922315D01*
X151706814Y-119988207D01*
X151834108Y-120022315D01*
X151834110Y-120022315D01*
X151965890Y-120022315D01*
X151965892Y-120022315D01*
X152093186Y-119988207D01*
X152207314Y-119922315D01*
X152300500Y-119829129D01*
X152366392Y-119715001D01*
X152400500Y-119587707D01*
X152400500Y-119455923D01*
X152366392Y-119328629D01*
X152300500Y-119214501D01*
X152207314Y-119121315D01*
X152150250Y-119088369D01*
X152093187Y-119055423D01*
X152018917Y-119035523D01*
X151965892Y-119021315D01*
X151834108Y-119021315D01*
X151706812Y-119055423D01*
X151592686Y-119121315D01*
X151592683Y-119121317D01*
X151499502Y-119214498D01*
X151499500Y-119214501D01*
X151433608Y-119328627D01*
X151410742Y-119413966D01*
X151399500Y-119455923D01*
X140650500Y-119455923D01*
X140650500Y-117434108D01*
X152077685Y-117434108D01*
X152077685Y-117565892D01*
X152089764Y-117610972D01*
X152111793Y-117693187D01*
X152122063Y-117710974D01*
X152177685Y-117807314D01*
X152270871Y-117900500D01*
X152384999Y-117966392D01*
X152507594Y-117999241D01*
X152567254Y-118035605D01*
X152597783Y-118098452D01*
X152599500Y-118119015D01*
X152599500Y-118177364D01*
X152611074Y-118220559D01*
X152633608Y-118304659D01*
X152666554Y-118361722D01*
X152699500Y-118418786D01*
X152792686Y-118511972D01*
X152906814Y-118577864D01*
X153034108Y-118611972D01*
X153034110Y-118611972D01*
X153174019Y-118611972D01*
X153174019Y-118615068D01*
X153228553Y-118623555D01*
X153280824Y-118669918D01*
X153295513Y-118703649D01*
X153305117Y-118739491D01*
X153371009Y-118853619D01*
X153464195Y-118946805D01*
X153578323Y-119012697D01*
X153705617Y-119046805D01*
X153705619Y-119046805D01*
X153837399Y-119046805D01*
X153837401Y-119046805D01*
X153964695Y-119012697D01*
X154078823Y-118946805D01*
X154108260Y-118917368D01*
X154169583Y-118883883D01*
X154239275Y-118888867D01*
X154257942Y-118897662D01*
X154262853Y-118900497D01*
X154262856Y-118900500D01*
X154376984Y-118966392D01*
X154499279Y-118999160D01*
X154558937Y-119035523D01*
X154589467Y-119098370D01*
X154591184Y-119118934D01*
X154591184Y-119172544D01*
X154607546Y-119233608D01*
X154625292Y-119299839D01*
X154658238Y-119356902D01*
X154691184Y-119413966D01*
X154784370Y-119507152D01*
X154863362Y-119552758D01*
X154898494Y-119573042D01*
X154898498Y-119573044D01*
X155025792Y-119607152D01*
X155025794Y-119607152D01*
X155157574Y-119607152D01*
X155157576Y-119607152D01*
X155284870Y-119573044D01*
X155398616Y-119507372D01*
X155466514Y-119490899D01*
X155532541Y-119513751D01*
X155568001Y-119552757D01*
X155599500Y-119607314D01*
X155692686Y-119700500D01*
X155791521Y-119757563D01*
X155805944Y-119765890D01*
X155806814Y-119766392D01*
X155934108Y-119800500D01*
X155934110Y-119800500D01*
X156065890Y-119800500D01*
X156065892Y-119800500D01*
X156193186Y-119766392D01*
X156307314Y-119700500D01*
X156307315Y-119700498D01*
X156314352Y-119696436D01*
X156315410Y-119698269D01*
X156370100Y-119677112D01*
X156438548Y-119691134D01*
X156488550Y-119739936D01*
X156500221Y-119768584D01*
X156533608Y-119893186D01*
X156599500Y-120007314D01*
X156692686Y-120100500D01*
X156806814Y-120166392D01*
X156934108Y-120200500D01*
X156934110Y-120200500D01*
X157065890Y-120200500D01*
X157065892Y-120200500D01*
X157193186Y-120166392D01*
X157307314Y-120100500D01*
X157400500Y-120007314D01*
X157466392Y-119893186D01*
X157500500Y-119765892D01*
X157500500Y-119634108D01*
X157466392Y-119506814D01*
X157400500Y-119392686D01*
X157307314Y-119299500D01*
X157250250Y-119266554D01*
X157193187Y-119233608D01*
X157121866Y-119214498D01*
X157065892Y-119199500D01*
X156934108Y-119199500D01*
X156806812Y-119233608D01*
X156727006Y-119279684D01*
X156692686Y-119299500D01*
X156692684Y-119299501D01*
X156685648Y-119303564D01*
X156684591Y-119301734D01*
X156629865Y-119322889D01*
X156561421Y-119308849D01*
X156511433Y-119260033D01*
X156499778Y-119231416D01*
X156466392Y-119106814D01*
X156400500Y-118992686D01*
X156307314Y-118899500D01*
X156228319Y-118853892D01*
X156193187Y-118833608D01*
X156129539Y-118816554D01*
X156065892Y-118799500D01*
X155934108Y-118799500D01*
X155806814Y-118833608D01*
X155806813Y-118833608D01*
X155806811Y-118833609D01*
X155806810Y-118833609D01*
X155693068Y-118899279D01*
X155625168Y-118915752D01*
X155559141Y-118892900D01*
X155523681Y-118853892D01*
X155507430Y-118825745D01*
X155492184Y-118799338D01*
X155398998Y-118706152D01*
X155284870Y-118640260D01*
X155162575Y-118607491D01*
X155102916Y-118571127D01*
X155072387Y-118508280D01*
X155070670Y-118487717D01*
X155070670Y-118434110D01*
X155070670Y-118434108D01*
X155036562Y-118306814D01*
X154970670Y-118192686D01*
X154877484Y-118099500D01*
X154784482Y-118045805D01*
X154763357Y-118033608D01*
X154699709Y-118016554D01*
X154636062Y-117999500D01*
X154504278Y-117999500D01*
X154376982Y-118033608D01*
X154262856Y-118099500D01*
X154233416Y-118128939D01*
X154172092Y-118162422D01*
X154102400Y-118157436D01*
X154083737Y-118148642D01*
X153964697Y-118079914D01*
X153964696Y-118079913D01*
X153964695Y-118079913D01*
X153837401Y-118045805D01*
X153705617Y-118045805D01*
X153697490Y-118045805D01*
X153697490Y-118042720D01*
X153642882Y-118034187D01*
X153590642Y-117987790D01*
X153575994Y-117954123D01*
X153566392Y-117918286D01*
X153500500Y-117804158D01*
X153407314Y-117710972D01*
X153293186Y-117645080D01*
X153170591Y-117612231D01*
X153110931Y-117575866D01*
X153080402Y-117513019D01*
X153078685Y-117492456D01*
X153078685Y-117434110D01*
X153078685Y-117434108D01*
X153044577Y-117306814D01*
X152978685Y-117192686D01*
X152885499Y-117099500D01*
X152828435Y-117066554D01*
X152771372Y-117033608D01*
X152707724Y-117016554D01*
X152644077Y-116999500D01*
X152512293Y-116999500D01*
X152384997Y-117033608D01*
X152270871Y-117099500D01*
X152270868Y-117099502D01*
X152177687Y-117192683D01*
X152177685Y-117192686D01*
X152111793Y-117306812D01*
X152077685Y-117434108D01*
X140650500Y-117434108D01*
X140650500Y-116684108D01*
X150249500Y-116684108D01*
X150249500Y-116815891D01*
X150283608Y-116943187D01*
X150316121Y-116999500D01*
X150349500Y-117057314D01*
X150442686Y-117150500D01*
X150556814Y-117216392D01*
X150684108Y-117250500D01*
X150684110Y-117250500D01*
X150815890Y-117250500D01*
X150815892Y-117250500D01*
X150943186Y-117216392D01*
X151057314Y-117150500D01*
X151150500Y-117057314D01*
X151216392Y-116943186D01*
X151250500Y-116815892D01*
X151250500Y-116684108D01*
X151216392Y-116556814D01*
X151150500Y-116442686D01*
X151057314Y-116349500D01*
X151000250Y-116316554D01*
X150943187Y-116283608D01*
X150879539Y-116266554D01*
X150815892Y-116249500D01*
X150684108Y-116249500D01*
X150556812Y-116283608D01*
X150442686Y-116349500D01*
X150442683Y-116349502D01*
X150349502Y-116442683D01*
X150349500Y-116442686D01*
X150283608Y-116556812D01*
X150249500Y-116684108D01*
X140650500Y-116684108D01*
X140650500Y-114684108D01*
X150999500Y-114684108D01*
X150999500Y-114815891D01*
X151033608Y-114943187D01*
X151062185Y-114992683D01*
X151099500Y-115057314D01*
X151192686Y-115150500D01*
X151306814Y-115216392D01*
X151434108Y-115250500D01*
X151434110Y-115250500D01*
X151565890Y-115250500D01*
X151565892Y-115250500D01*
X151627068Y-115234108D01*
X170999500Y-115234108D01*
X170999500Y-115365891D01*
X171033608Y-115493187D01*
X171066554Y-115550250D01*
X171099500Y-115607314D01*
X171192686Y-115700500D01*
X171306814Y-115766392D01*
X171434108Y-115800500D01*
X171434110Y-115800500D01*
X171565890Y-115800500D01*
X171565892Y-115800500D01*
X171693186Y-115766392D01*
X171807314Y-115700500D01*
X171900500Y-115607314D01*
X171966392Y-115493186D01*
X172000500Y-115365892D01*
X172000500Y-115234108D01*
X171966392Y-115106814D01*
X171900500Y-114992686D01*
X171807314Y-114899500D01*
X171750250Y-114866554D01*
X171693187Y-114833608D01*
X171627061Y-114815890D01*
X171565892Y-114799500D01*
X171434108Y-114799500D01*
X171306812Y-114833608D01*
X171192686Y-114899500D01*
X171192683Y-114899502D01*
X171099502Y-114992683D01*
X171099500Y-114992686D01*
X171033608Y-115106812D01*
X170999500Y-115234108D01*
X151627068Y-115234108D01*
X151693186Y-115216392D01*
X151807314Y-115150500D01*
X151900500Y-115057314D01*
X151966392Y-114943186D01*
X152000500Y-114815892D01*
X152000500Y-114684108D01*
X151966392Y-114556814D01*
X151900500Y-114442686D01*
X151807314Y-114349500D01*
X151750250Y-114316554D01*
X151693187Y-114283608D01*
X151629539Y-114266554D01*
X151565892Y-114249500D01*
X151434108Y-114249500D01*
X151306812Y-114283608D01*
X151192686Y-114349500D01*
X151192683Y-114349502D01*
X151099502Y-114442683D01*
X151099500Y-114442686D01*
X151033608Y-114556812D01*
X150999500Y-114684108D01*
X140650500Y-114684108D01*
X140650500Y-113234108D01*
X141349500Y-113234108D01*
X141349500Y-113365892D01*
X141366554Y-113429539D01*
X141383608Y-113493187D01*
X141416554Y-113550250D01*
X141449500Y-113607314D01*
X141542686Y-113700500D01*
X141656814Y-113766392D01*
X141784108Y-113800500D01*
X141784110Y-113800500D01*
X141915890Y-113800500D01*
X141915892Y-113800500D01*
X142043186Y-113766392D01*
X142157314Y-113700500D01*
X142250500Y-113607314D01*
X142316392Y-113493186D01*
X142332222Y-113434108D01*
X161449500Y-113434108D01*
X161449500Y-113565892D01*
X161466554Y-113629539D01*
X161483608Y-113693187D01*
X161516554Y-113750250D01*
X161549500Y-113807314D01*
X161642686Y-113900500D01*
X161756814Y-113966392D01*
X161884108Y-114000500D01*
X161884110Y-114000500D01*
X162015890Y-114000500D01*
X162015892Y-114000500D01*
X162143186Y-113966392D01*
X162257314Y-113900500D01*
X162350500Y-113807314D01*
X162416392Y-113693186D01*
X162450500Y-113565892D01*
X162450500Y-113434108D01*
X162416392Y-113306814D01*
X162350500Y-113192686D01*
X162257314Y-113099500D01*
X162200250Y-113066554D01*
X162143187Y-113033608D01*
X162079539Y-113016554D01*
X162015892Y-112999500D01*
X161884108Y-112999500D01*
X161756812Y-113033608D01*
X161642686Y-113099500D01*
X161642683Y-113099502D01*
X161549502Y-113192683D01*
X161549500Y-113192686D01*
X161483608Y-113306812D01*
X161467778Y-113365892D01*
X161449500Y-113434108D01*
X142332222Y-113434108D01*
X142350500Y-113365892D01*
X142350500Y-113234108D01*
X142316392Y-113106814D01*
X142250500Y-112992686D01*
X142157314Y-112899500D01*
X142100250Y-112866554D01*
X142043187Y-112833608D01*
X141979539Y-112816554D01*
X141915892Y-112799500D01*
X141784108Y-112799500D01*
X141656812Y-112833608D01*
X141542686Y-112899500D01*
X141542683Y-112899502D01*
X141449502Y-112992683D01*
X141449500Y-112992686D01*
X141383608Y-113106812D01*
X141360600Y-113192683D01*
X141349500Y-113234108D01*
X140650500Y-113234108D01*
X140650500Y-111934108D01*
X162599500Y-111934108D01*
X162599500Y-112065891D01*
X162633608Y-112193187D01*
X162666554Y-112250250D01*
X162699500Y-112307314D01*
X162792686Y-112400500D01*
X162906814Y-112466392D01*
X163034108Y-112500500D01*
X163034110Y-112500500D01*
X163165890Y-112500500D01*
X163165892Y-112500500D01*
X163293186Y-112466392D01*
X163407314Y-112400500D01*
X163500500Y-112307314D01*
X163566392Y-112193186D01*
X163600500Y-112065892D01*
X163600500Y-111934108D01*
X163566392Y-111806814D01*
X163500500Y-111692686D01*
X163407314Y-111599500D01*
X163350250Y-111566554D01*
X163293187Y-111533608D01*
X163229539Y-111516554D01*
X163165892Y-111499500D01*
X163034108Y-111499500D01*
X162906812Y-111533608D01*
X162792686Y-111599500D01*
X162792683Y-111599502D01*
X162699502Y-111692683D01*
X162699500Y-111692686D01*
X162633608Y-111806812D01*
X162599500Y-111934108D01*
X140650500Y-111934108D01*
X140650500Y-110934108D01*
X156499500Y-110934108D01*
X156499500Y-111065891D01*
X156533608Y-111193187D01*
X156566554Y-111250250D01*
X156599500Y-111307314D01*
X156692686Y-111400500D01*
X156806814Y-111466392D01*
X156934108Y-111500500D01*
X156934110Y-111500500D01*
X157065890Y-111500500D01*
X157065892Y-111500500D01*
X157193186Y-111466392D01*
X157307314Y-111400500D01*
X157400500Y-111307314D01*
X157466392Y-111193186D01*
X157500500Y-111065892D01*
X157500500Y-110934108D01*
X157466392Y-110806814D01*
X157400500Y-110692686D01*
X157307314Y-110599500D01*
X157254478Y-110568995D01*
X166164499Y-110568995D01*
X166191418Y-110704322D01*
X166191421Y-110704332D01*
X166244221Y-110831804D01*
X166244228Y-110831817D01*
X166320885Y-110946541D01*
X166320888Y-110946545D01*
X166418454Y-111044111D01*
X166418458Y-111044114D01*
X166533182Y-111120771D01*
X166533195Y-111120778D01*
X166660667Y-111173578D01*
X166660672Y-111173580D01*
X166660676Y-111173580D01*
X166660677Y-111173581D01*
X166796004Y-111200500D01*
X166796007Y-111200500D01*
X168033995Y-111200500D01*
X168125041Y-111182389D01*
X168169328Y-111173580D01*
X168296811Y-111120775D01*
X168411542Y-111044114D01*
X168509114Y-110946542D01*
X168585775Y-110831811D01*
X168638580Y-110704328D01*
X168647389Y-110660041D01*
X168665500Y-110568995D01*
X168665500Y-110431004D01*
X168638581Y-110295677D01*
X168638580Y-110295676D01*
X168638580Y-110295672D01*
X168638578Y-110295667D01*
X168585778Y-110168195D01*
X168585771Y-110168182D01*
X168509114Y-110053458D01*
X168509111Y-110053454D01*
X168411545Y-109955888D01*
X168411541Y-109955885D01*
X168296817Y-109879228D01*
X168296808Y-109879223D01*
X168178346Y-109830155D01*
X168123943Y-109786314D01*
X168101878Y-109720020D01*
X168119157Y-109652321D01*
X168163799Y-109608207D01*
X168167135Y-109606281D01*
X168298365Y-109530515D01*
X168405515Y-109423365D01*
X168481281Y-109292135D01*
X168520500Y-109145766D01*
X168520500Y-108994234D01*
X168481281Y-108847865D01*
X168405515Y-108716635D01*
X168298365Y-108609485D01*
X168194472Y-108549502D01*
X168167136Y-108533719D01*
X168093950Y-108514109D01*
X168020766Y-108494500D01*
X167869234Y-108494500D01*
X167722863Y-108533719D01*
X167591635Y-108609485D01*
X167591632Y-108609487D01*
X167484487Y-108716632D01*
X167484485Y-108716635D01*
X167408719Y-108847863D01*
X167369500Y-108994234D01*
X167369500Y-109145765D01*
X167408719Y-109292136D01*
X167417194Y-109306814D01*
X167484485Y-109423365D01*
X167591635Y-109530515D01*
X167591636Y-109530516D01*
X167591638Y-109530517D01*
X167656756Y-109568113D01*
X167704972Y-109618680D01*
X167718194Y-109687287D01*
X167692226Y-109752152D01*
X167635312Y-109792680D01*
X167594756Y-109799500D01*
X166796005Y-109799500D01*
X166660677Y-109826418D01*
X166660667Y-109826421D01*
X166533195Y-109879221D01*
X166533182Y-109879228D01*
X166418458Y-109955885D01*
X166418454Y-109955888D01*
X166320888Y-110053454D01*
X166320885Y-110053458D01*
X166244228Y-110168182D01*
X166244221Y-110168195D01*
X166191421Y-110295667D01*
X166191418Y-110295677D01*
X166164500Y-110431004D01*
X166164500Y-110431007D01*
X166164500Y-110568993D01*
X166164500Y-110568995D01*
X166164499Y-110568995D01*
X157254478Y-110568995D01*
X157250250Y-110566554D01*
X157193187Y-110533608D01*
X157129539Y-110516554D01*
X157065892Y-110499500D01*
X156934108Y-110499500D01*
X156806812Y-110533608D01*
X156692686Y-110599500D01*
X156692683Y-110599502D01*
X156599502Y-110692683D01*
X156599500Y-110692686D01*
X156533608Y-110806812D01*
X156499500Y-110934108D01*
X140650500Y-110934108D01*
X140650500Y-109434108D01*
X153499500Y-109434108D01*
X153499500Y-109565891D01*
X153533608Y-109693187D01*
X153566554Y-109750250D01*
X153599500Y-109807314D01*
X153692686Y-109900500D01*
X153806814Y-109966392D01*
X153934108Y-110000500D01*
X153934110Y-110000500D01*
X154065890Y-110000500D01*
X154065892Y-110000500D01*
X154193186Y-109966392D01*
X154307314Y-109900500D01*
X154400500Y-109807314D01*
X154466392Y-109693186D01*
X154500500Y-109565892D01*
X154500500Y-109434108D01*
X154466392Y-109306814D01*
X154400500Y-109192686D01*
X154307314Y-109099500D01*
X154250250Y-109066554D01*
X154193187Y-109033608D01*
X154127061Y-109015890D01*
X154065892Y-108999500D01*
X153934108Y-108999500D01*
X153806812Y-109033608D01*
X153692686Y-109099500D01*
X153692683Y-109099502D01*
X153599502Y-109192683D01*
X153599500Y-109192686D01*
X153533608Y-109306812D01*
X153499500Y-109434108D01*
X140650500Y-109434108D01*
X140650500Y-108884108D01*
X163249500Y-108884108D01*
X163249500Y-109015891D01*
X163283608Y-109143187D01*
X163312185Y-109192683D01*
X163349500Y-109257314D01*
X163442686Y-109350500D01*
X163556814Y-109416392D01*
X163684108Y-109450500D01*
X163684110Y-109450500D01*
X163815890Y-109450500D01*
X163815892Y-109450500D01*
X163943186Y-109416392D01*
X164057314Y-109350500D01*
X164150500Y-109257314D01*
X164216392Y-109143186D01*
X164250500Y-109015892D01*
X164250500Y-108884108D01*
X164216392Y-108756814D01*
X164150500Y-108642686D01*
X164057314Y-108549500D01*
X164000250Y-108516554D01*
X163943187Y-108483608D01*
X163879539Y-108466554D01*
X163815892Y-108449500D01*
X163684108Y-108449500D01*
X163556812Y-108483608D01*
X163442686Y-108549500D01*
X163442683Y-108549502D01*
X163349502Y-108642683D01*
X163349500Y-108642686D01*
X163283608Y-108756812D01*
X163249500Y-108884108D01*
X140650500Y-108884108D01*
X140650500Y-107684108D01*
X148249500Y-107684108D01*
X148249500Y-107815891D01*
X148283608Y-107943187D01*
X148297005Y-107966391D01*
X148349500Y-108057314D01*
X148442686Y-108150500D01*
X148556814Y-108216392D01*
X148684108Y-108250500D01*
X148684110Y-108250500D01*
X148815890Y-108250500D01*
X148815892Y-108250500D01*
X148943186Y-108216392D01*
X149057314Y-108150500D01*
X149150500Y-108057314D01*
X149216392Y-107943186D01*
X149250500Y-107815892D01*
X149250500Y-107684108D01*
X149216392Y-107556814D01*
X149150500Y-107442686D01*
X149141922Y-107434108D01*
X150249500Y-107434108D01*
X150249500Y-107565891D01*
X150283608Y-107693187D01*
X150316554Y-107750250D01*
X150349500Y-107807314D01*
X150442686Y-107900500D01*
X150556814Y-107966392D01*
X150684108Y-108000500D01*
X150684110Y-108000500D01*
X150815890Y-108000500D01*
X150815892Y-108000500D01*
X150943186Y-107966392D01*
X151057314Y-107900500D01*
X151150500Y-107807314D01*
X151216392Y-107693186D01*
X151250500Y-107565892D01*
X151250500Y-107461608D01*
X168027000Y-107461608D01*
X168027000Y-107593391D01*
X168061108Y-107720687D01*
X168094054Y-107777750D01*
X168127000Y-107834814D01*
X168220186Y-107928000D01*
X168334314Y-107993892D01*
X168461608Y-108028000D01*
X168461610Y-108028000D01*
X168593390Y-108028000D01*
X168593392Y-108028000D01*
X168720686Y-107993892D01*
X168834814Y-107928000D01*
X168928000Y-107834814D01*
X168993892Y-107720686D01*
X169028000Y-107593392D01*
X169028000Y-107461608D01*
X168993892Y-107334314D01*
X168928000Y-107220186D01*
X168834814Y-107127000D01*
X168777750Y-107094054D01*
X168720687Y-107061108D01*
X168657039Y-107044054D01*
X168593392Y-107027000D01*
X168461608Y-107027000D01*
X168334312Y-107061108D01*
X168220186Y-107127000D01*
X168220183Y-107127002D01*
X168127002Y-107220183D01*
X168127000Y-107220186D01*
X168061108Y-107334312D01*
X168027000Y-107461608D01*
X151250500Y-107461608D01*
X151250500Y-107434108D01*
X151216392Y-107306814D01*
X151150500Y-107192686D01*
X151057314Y-107099500D01*
X150990817Y-107061108D01*
X150943187Y-107033608D01*
X150879539Y-107016554D01*
X150815892Y-106999500D01*
X150684108Y-106999500D01*
X150556812Y-107033608D01*
X150442686Y-107099500D01*
X150442683Y-107099502D01*
X150349502Y-107192683D01*
X150349500Y-107192686D01*
X150283608Y-107306812D01*
X150249500Y-107434108D01*
X149141922Y-107434108D01*
X149057314Y-107349500D01*
X148983380Y-107306814D01*
X148943187Y-107283608D01*
X148879539Y-107266554D01*
X148815892Y-107249500D01*
X148684108Y-107249500D01*
X148556812Y-107283608D01*
X148442686Y-107349500D01*
X148442683Y-107349502D01*
X148349502Y-107442683D01*
X148349500Y-107442686D01*
X148283608Y-107556812D01*
X148249500Y-107684108D01*
X140650500Y-107684108D01*
X140650500Y-105734108D01*
X141349500Y-105734108D01*
X141349500Y-105865892D01*
X141366554Y-105929539D01*
X141383608Y-105993187D01*
X141416554Y-106050250D01*
X141449500Y-106107314D01*
X141542686Y-106200500D01*
X141656814Y-106266392D01*
X141784108Y-106300500D01*
X141784110Y-106300500D01*
X141915890Y-106300500D01*
X141915892Y-106300500D01*
X142043186Y-106266392D01*
X142157314Y-106200500D01*
X142250500Y-106107314D01*
X142316392Y-105993186D01*
X142332222Y-105934108D01*
X161349500Y-105934108D01*
X161349500Y-106065892D01*
X161366554Y-106129539D01*
X161383608Y-106193187D01*
X161391766Y-106207316D01*
X161449500Y-106307314D01*
X161542686Y-106400500D01*
X161656814Y-106466392D01*
X161784108Y-106500500D01*
X161784110Y-106500500D01*
X161915890Y-106500500D01*
X161915892Y-106500500D01*
X162043186Y-106466392D01*
X162157314Y-106400500D01*
X162250500Y-106307314D01*
X162316392Y-106193186D01*
X162350500Y-106065892D01*
X162350500Y-105934108D01*
X162323705Y-105834108D01*
X168899500Y-105834108D01*
X168899500Y-105965891D01*
X168933608Y-106093187D01*
X168941766Y-106107316D01*
X168999500Y-106207314D01*
X169092686Y-106300500D01*
X169206814Y-106366392D01*
X169334108Y-106400500D01*
X169334110Y-106400500D01*
X169465890Y-106400500D01*
X169465892Y-106400500D01*
X169593186Y-106366392D01*
X169707314Y-106300500D01*
X169800500Y-106207314D01*
X169866392Y-106093186D01*
X169900500Y-105965892D01*
X169900500Y-105834108D01*
X169866392Y-105706814D01*
X169800500Y-105592686D01*
X169707314Y-105499500D01*
X169650250Y-105466554D01*
X169593187Y-105433608D01*
X169513961Y-105412380D01*
X169465892Y-105399500D01*
X169334108Y-105399500D01*
X169206812Y-105433608D01*
X169092686Y-105499500D01*
X169092683Y-105499502D01*
X168999502Y-105592683D01*
X168999500Y-105592686D01*
X168933608Y-105706812D01*
X168899500Y-105834108D01*
X162323705Y-105834108D01*
X162316392Y-105806814D01*
X162250500Y-105692686D01*
X162157314Y-105599500D01*
X162100250Y-105566554D01*
X162043187Y-105533608D01*
X161979539Y-105516554D01*
X161915892Y-105499500D01*
X161784108Y-105499500D01*
X161656812Y-105533608D01*
X161542686Y-105599500D01*
X161542683Y-105599502D01*
X161449502Y-105692683D01*
X161449500Y-105692686D01*
X161383608Y-105806812D01*
X161367778Y-105865892D01*
X161349500Y-105934108D01*
X142332222Y-105934108D01*
X142350500Y-105865892D01*
X142350500Y-105734108D01*
X142316392Y-105606814D01*
X142250500Y-105492686D01*
X142157314Y-105399500D01*
X142100250Y-105366554D01*
X142043187Y-105333608D01*
X141963954Y-105312378D01*
X141915892Y-105299500D01*
X141784108Y-105299500D01*
X141656812Y-105333608D01*
X141542686Y-105399500D01*
X141542683Y-105399502D01*
X141449502Y-105492683D01*
X141449500Y-105492686D01*
X141383608Y-105606812D01*
X141360600Y-105692683D01*
X141349500Y-105734108D01*
X140650500Y-105734108D01*
X140650500Y-104845989D01*
X164373394Y-104845989D01*
X164373394Y-104977772D01*
X164407502Y-105105068D01*
X164440448Y-105162131D01*
X164473394Y-105219195D01*
X164566580Y-105312381D01*
X164680708Y-105378273D01*
X164808002Y-105412381D01*
X164808004Y-105412381D01*
X164939784Y-105412381D01*
X164939786Y-105412381D01*
X165067080Y-105378273D01*
X165181208Y-105312381D01*
X165274394Y-105219195D01*
X165340286Y-105105067D01*
X165374394Y-104977773D01*
X165374394Y-104845989D01*
X165340286Y-104718695D01*
X165274394Y-104604567D01*
X165181208Y-104511381D01*
X165124144Y-104478435D01*
X165067081Y-104445489D01*
X165003433Y-104428435D01*
X164939786Y-104411381D01*
X164808002Y-104411381D01*
X164680706Y-104445489D01*
X164566580Y-104511381D01*
X164566577Y-104511383D01*
X164473396Y-104604564D01*
X164473394Y-104604567D01*
X164407502Y-104718693D01*
X164373394Y-104845989D01*
X140650500Y-104845989D01*
X140650500Y-101913766D01*
X141124500Y-101913766D01*
X141124500Y-102086233D01*
X141158143Y-102255366D01*
X141158146Y-102255378D01*
X141224138Y-102414698D01*
X141224145Y-102414711D01*
X141319954Y-102558098D01*
X141319957Y-102558102D01*
X141441897Y-102680042D01*
X141441901Y-102680045D01*
X141585288Y-102775854D01*
X141585301Y-102775861D01*
X141714755Y-102829482D01*
X141744626Y-102841855D01*
X141884854Y-102869748D01*
X141913766Y-102875499D01*
X141913769Y-102875500D01*
X141913771Y-102875500D01*
X142086231Y-102875500D01*
X142086232Y-102875499D01*
X142255374Y-102841855D01*
X142414705Y-102775858D01*
X142558099Y-102680045D01*
X142680045Y-102558099D01*
X142775858Y-102414705D01*
X142841855Y-102255374D01*
X142875500Y-102086229D01*
X142875500Y-101913771D01*
X142875500Y-101913768D01*
X142875499Y-101913766D01*
X142854263Y-101807007D01*
X142841855Y-101744626D01*
X142781908Y-101599901D01*
X142775861Y-101585301D01*
X142775854Y-101585288D01*
X142680045Y-101441901D01*
X142680042Y-101441897D01*
X142558102Y-101319957D01*
X142558098Y-101319954D01*
X142414711Y-101224145D01*
X142414698Y-101224138D01*
X142255378Y-101158146D01*
X142255366Y-101158143D01*
X142086232Y-101124500D01*
X142086229Y-101124500D01*
X141913771Y-101124500D01*
X141913768Y-101124500D01*
X141744633Y-101158143D01*
X141744621Y-101158146D01*
X141585301Y-101224138D01*
X141585288Y-101224145D01*
X141441901Y-101319954D01*
X141441897Y-101319957D01*
X141319957Y-101441897D01*
X141319954Y-101441901D01*
X141224145Y-101585288D01*
X141224138Y-101585301D01*
X141158146Y-101744621D01*
X141158143Y-101744633D01*
X141124500Y-101913766D01*
X140650500Y-101913766D01*
X140650500Y-86934108D01*
X140999500Y-86934108D01*
X140999500Y-87065891D01*
X141033608Y-87193187D01*
X141066121Y-87249500D01*
X141099500Y-87307314D01*
X141192686Y-87400500D01*
X141306814Y-87466392D01*
X141434108Y-87500500D01*
X141434110Y-87500500D01*
X141565890Y-87500500D01*
X141565892Y-87500500D01*
X141693186Y-87466392D01*
X141807314Y-87400500D01*
X141837819Y-87369995D01*
X141899142Y-87336510D01*
X141968834Y-87341494D01*
X142024767Y-87383366D01*
X142049184Y-87448830D01*
X142049500Y-87457676D01*
X142049500Y-91246062D01*
X142035383Y-91298751D01*
X142036719Y-91299304D01*
X142033609Y-91306812D01*
X142033608Y-91306814D01*
X141999500Y-91434108D01*
X141999500Y-91565892D01*
X142033608Y-91693186D01*
X142036718Y-91700693D01*
X142035381Y-91701246D01*
X142049500Y-91753936D01*
X142049500Y-98559309D01*
X142051364Y-98566265D01*
X142071986Y-98643230D01*
X142080200Y-98673884D01*
X142080201Y-98673888D01*
X142091031Y-98692645D01*
X142139511Y-98776614D01*
X142139513Y-98776616D01*
X143513181Y-100150284D01*
X143546666Y-100211607D01*
X143549500Y-100237965D01*
X143549500Y-101000500D01*
X143529815Y-101067539D01*
X143477011Y-101113294D01*
X143425500Y-101124500D01*
X143305247Y-101124500D01*
X143246770Y-101136131D01*
X143246769Y-101136132D01*
X143180447Y-101180447D01*
X143136132Y-101246769D01*
X143136131Y-101246770D01*
X143124500Y-101305247D01*
X143124500Y-102694752D01*
X143136131Y-102753229D01*
X143136132Y-102753230D01*
X143180447Y-102819552D01*
X143246769Y-102863867D01*
X143246770Y-102863868D01*
X143305247Y-102875499D01*
X143305250Y-102875500D01*
X143305252Y-102875500D01*
X144694750Y-102875500D01*
X144694751Y-102875499D01*
X144709568Y-102872552D01*
X144753229Y-102863868D01*
X144753229Y-102863867D01*
X144753231Y-102863867D01*
X144819552Y-102819552D01*
X144863867Y-102753231D01*
X144863867Y-102753229D01*
X144863868Y-102753229D01*
X144872953Y-102707554D01*
X144875500Y-102694748D01*
X144875500Y-101896530D01*
X152869500Y-101896530D01*
X152869500Y-102103469D01*
X152909868Y-102306412D01*
X152909870Y-102306420D01*
X152982090Y-102480775D01*
X152989059Y-102497598D01*
X153034796Y-102566048D01*
X153104024Y-102669657D01*
X153250342Y-102815975D01*
X153250345Y-102815977D01*
X153422402Y-102930941D01*
X153613580Y-103010130D01*
X153731613Y-103033608D01*
X153816530Y-103050499D01*
X153816534Y-103050500D01*
X153816535Y-103050500D01*
X154023466Y-103050500D01*
X154023467Y-103050499D01*
X154226420Y-103010130D01*
X154417598Y-102930941D01*
X154589655Y-102815977D01*
X154735977Y-102669655D01*
X154850941Y-102497598D01*
X154930130Y-102306420D01*
X154970500Y-102103465D01*
X154970500Y-101896535D01*
X154970499Y-101896530D01*
X155409500Y-101896530D01*
X155409500Y-102103469D01*
X155449868Y-102306412D01*
X155449870Y-102306420D01*
X155522090Y-102480775D01*
X155529059Y-102497598D01*
X155574796Y-102566048D01*
X155644024Y-102669657D01*
X155790342Y-102815975D01*
X155790345Y-102815977D01*
X155962402Y-102930941D01*
X156153580Y-103010130D01*
X156271613Y-103033608D01*
X156356530Y-103050499D01*
X156356534Y-103050500D01*
X156356535Y-103050500D01*
X156563466Y-103050500D01*
X156563467Y-103050499D01*
X156766420Y-103010130D01*
X156957598Y-102930941D01*
X157129655Y-102815977D01*
X157275977Y-102669655D01*
X157390941Y-102497598D01*
X157459165Y-102332889D01*
X157503004Y-102278488D01*
X157569298Y-102256423D01*
X157636998Y-102273702D01*
X157684609Y-102324839D01*
X157691656Y-102342026D01*
X157748904Y-102518216D01*
X157845375Y-102707550D01*
X157884728Y-102761716D01*
X158517037Y-102129408D01*
X158534075Y-102192993D01*
X158599901Y-102307007D01*
X158692993Y-102400099D01*
X158807007Y-102465925D01*
X158870590Y-102482962D01*
X158238282Y-103115269D01*
X158238282Y-103115270D01*
X158292449Y-103154624D01*
X158481782Y-103251095D01*
X158683870Y-103316757D01*
X158893754Y-103350000D01*
X159106246Y-103350000D01*
X159316127Y-103316757D01*
X159316130Y-103316757D01*
X159518217Y-103251095D01*
X159707554Y-103154622D01*
X159761716Y-103115270D01*
X159761717Y-103115270D01*
X159129408Y-102482962D01*
X159192993Y-102465925D01*
X159307007Y-102400099D01*
X159400099Y-102307007D01*
X159465925Y-102192993D01*
X159482962Y-102129408D01*
X160115270Y-102761717D01*
X160115270Y-102761716D01*
X160154622Y-102707554D01*
X160253306Y-102513879D01*
X160254321Y-102514396D01*
X160294779Y-102464192D01*
X160361073Y-102442127D01*
X160428772Y-102459406D01*
X160476383Y-102510542D01*
X160489500Y-102566048D01*
X160489500Y-102869752D01*
X160501131Y-102928229D01*
X160501132Y-102928230D01*
X160545447Y-102994552D01*
X160611769Y-103038867D01*
X160611770Y-103038868D01*
X160670247Y-103050499D01*
X160670250Y-103050500D01*
X160670252Y-103050500D01*
X162409750Y-103050500D01*
X162409751Y-103050499D01*
X162424568Y-103047552D01*
X162468229Y-103038868D01*
X162468229Y-103038867D01*
X162468231Y-103038867D01*
X162534552Y-102994552D01*
X162578867Y-102928231D01*
X162578867Y-102928229D01*
X162578868Y-102928229D01*
X162590499Y-102869752D01*
X162590500Y-102869750D01*
X162590500Y-101130249D01*
X162590499Y-101130247D01*
X162578868Y-101071770D01*
X162578867Y-101071769D01*
X162534552Y-101005447D01*
X162468230Y-100961132D01*
X162468229Y-100961131D01*
X162409752Y-100949500D01*
X162409748Y-100949500D01*
X160670252Y-100949500D01*
X160670247Y-100949500D01*
X160611770Y-100961131D01*
X160611769Y-100961132D01*
X160545447Y-101005447D01*
X160501132Y-101071769D01*
X160501131Y-101071770D01*
X160489500Y-101130247D01*
X160489500Y-101433951D01*
X160469815Y-101500990D01*
X160417011Y-101546745D01*
X160347853Y-101556689D01*
X160284297Y-101527664D01*
X160254061Y-101485736D01*
X160253306Y-101486121D01*
X160154624Y-101292449D01*
X160115270Y-101238282D01*
X160115269Y-101238282D01*
X159482962Y-101870590D01*
X159465925Y-101807007D01*
X159400099Y-101692993D01*
X159307007Y-101599901D01*
X159192993Y-101534075D01*
X159129409Y-101517037D01*
X159761716Y-100884728D01*
X159707550Y-100845375D01*
X159518217Y-100748904D01*
X159316129Y-100683242D01*
X159106246Y-100650000D01*
X158893754Y-100650000D01*
X158683872Y-100683242D01*
X158683869Y-100683242D01*
X158481782Y-100748904D01*
X158292439Y-100845380D01*
X158238282Y-100884727D01*
X158238282Y-100884728D01*
X158870591Y-101517037D01*
X158807007Y-101534075D01*
X158692993Y-101599901D01*
X158599901Y-101692993D01*
X158534075Y-101807007D01*
X158517037Y-101870591D01*
X157884728Y-101238282D01*
X157884727Y-101238282D01*
X157845380Y-101292439D01*
X157748905Y-101481781D01*
X157691656Y-101657974D01*
X157652218Y-101715649D01*
X157587859Y-101742847D01*
X157519013Y-101730932D01*
X157467537Y-101683688D01*
X157459164Y-101667107D01*
X157454425Y-101655667D01*
X157409309Y-101546745D01*
X157390943Y-101502405D01*
X157275975Y-101330342D01*
X157129657Y-101184024D01*
X156961655Y-101071770D01*
X156957598Y-101069059D01*
X156953928Y-101067539D01*
X156903252Y-101046548D01*
X156766420Y-100989870D01*
X156766412Y-100989868D01*
X156563469Y-100949500D01*
X156563465Y-100949500D01*
X156356535Y-100949500D01*
X156356530Y-100949500D01*
X156153587Y-100989868D01*
X156153579Y-100989870D01*
X155962403Y-101069058D01*
X155790342Y-101184024D01*
X155644024Y-101330342D01*
X155529058Y-101502403D01*
X155449870Y-101693579D01*
X155449868Y-101693587D01*
X155409500Y-101896530D01*
X154970499Y-101896530D01*
X154930130Y-101693580D01*
X154850941Y-101502402D01*
X154735977Y-101330345D01*
X154735975Y-101330342D01*
X154589657Y-101184024D01*
X154421655Y-101071770D01*
X154417598Y-101069059D01*
X154413928Y-101067539D01*
X154226420Y-100989870D01*
X154226412Y-100989868D01*
X154023469Y-100949500D01*
X154023465Y-100949500D01*
X153816535Y-100949500D01*
X153816530Y-100949500D01*
X153613587Y-100989868D01*
X153613579Y-100989870D01*
X153422403Y-101069058D01*
X153250342Y-101184024D01*
X153104024Y-101330342D01*
X152989058Y-101502403D01*
X152909870Y-101693579D01*
X152909868Y-101693587D01*
X152869500Y-101896530D01*
X144875500Y-101896530D01*
X144875500Y-101305252D01*
X144875500Y-101305249D01*
X144875499Y-101305247D01*
X144863868Y-101246770D01*
X144863867Y-101246769D01*
X144819552Y-101180447D01*
X144753230Y-101136132D01*
X144753229Y-101136131D01*
X144694752Y-101124500D01*
X144694748Y-101124500D01*
X144574500Y-101124500D01*
X144507461Y-101104815D01*
X144461706Y-101052011D01*
X144450500Y-101000500D01*
X144450500Y-99940693D01*
X144450500Y-99940691D01*
X144419799Y-99826114D01*
X144376143Y-99750500D01*
X144376142Y-99750498D01*
X144360491Y-99723389D01*
X144360487Y-99723384D01*
X143686098Y-99048995D01*
X147759499Y-99048995D01*
X147786418Y-99184322D01*
X147786421Y-99184332D01*
X147839221Y-99311804D01*
X147839228Y-99311817D01*
X147898637Y-99400728D01*
X147919515Y-99467406D01*
X147901031Y-99534786D01*
X147864426Y-99572721D01*
X147815447Y-99605447D01*
X147771132Y-99671769D01*
X147771131Y-99671770D01*
X147759500Y-99730247D01*
X147759500Y-100769752D01*
X147771131Y-100828229D01*
X147771132Y-100828230D01*
X147815447Y-100894552D01*
X147881769Y-100938867D01*
X147881770Y-100938868D01*
X147940247Y-100950499D01*
X147940250Y-100950500D01*
X147940252Y-100950500D01*
X148979750Y-100950500D01*
X148979751Y-100950499D01*
X148994568Y-100947552D01*
X149038229Y-100938868D01*
X149038229Y-100938867D01*
X149038231Y-100938867D01*
X149104552Y-100894552D01*
X149137279Y-100845573D01*
X149190889Y-100800769D01*
X149260213Y-100792060D01*
X149309271Y-100811362D01*
X149398182Y-100870771D01*
X149398195Y-100870778D01*
X149525667Y-100923578D01*
X149525672Y-100923580D01*
X149525676Y-100923580D01*
X149525677Y-100923581D01*
X149661004Y-100950500D01*
X149661007Y-100950500D01*
X149798995Y-100950500D01*
X149890041Y-100932389D01*
X149934328Y-100923580D01*
X150061811Y-100870775D01*
X150176542Y-100794114D01*
X150221752Y-100748904D01*
X150277319Y-100693338D01*
X150338642Y-100659853D01*
X150408334Y-100664837D01*
X150452681Y-100693338D01*
X150553454Y-100794111D01*
X150553458Y-100794114D01*
X150668182Y-100870771D01*
X150668195Y-100870778D01*
X150795667Y-100923578D01*
X150795672Y-100923580D01*
X150795676Y-100923580D01*
X150795677Y-100923581D01*
X150931004Y-100950500D01*
X150931007Y-100950500D01*
X151068995Y-100950500D01*
X151160041Y-100932389D01*
X151204328Y-100923580D01*
X151331811Y-100870775D01*
X151446542Y-100794114D01*
X151544114Y-100696542D01*
X151620775Y-100581811D01*
X151673580Y-100454328D01*
X151686102Y-100391377D01*
X151700500Y-100318995D01*
X151700500Y-100181004D01*
X151673581Y-100045677D01*
X151673580Y-100045676D01*
X151673580Y-100045672D01*
X151648081Y-99984111D01*
X151620778Y-99918195D01*
X151620771Y-99918182D01*
X151544114Y-99803458D01*
X151544111Y-99803454D01*
X151443338Y-99702681D01*
X151409853Y-99641358D01*
X151414837Y-99571666D01*
X151443338Y-99527319D01*
X151544111Y-99426545D01*
X151544114Y-99426542D01*
X151620775Y-99311811D01*
X151673580Y-99184328D01*
X151682389Y-99140041D01*
X151700500Y-99048995D01*
X151700500Y-98911004D01*
X151673581Y-98775677D01*
X151673580Y-98775676D01*
X151673580Y-98775672D01*
X151657526Y-98736913D01*
X151620778Y-98648195D01*
X151620769Y-98648179D01*
X151544114Y-98533458D01*
X151544111Y-98533454D01*
X151446545Y-98435888D01*
X151446541Y-98435885D01*
X151443882Y-98434108D01*
X156749500Y-98434108D01*
X156749500Y-98565892D01*
X156749600Y-98566265D01*
X156783608Y-98693187D01*
X156814977Y-98747519D01*
X156849500Y-98807314D01*
X156942686Y-98900500D01*
X157056814Y-98966392D01*
X157184108Y-99000500D01*
X157184110Y-99000500D01*
X157315890Y-99000500D01*
X157315892Y-99000500D01*
X157443186Y-98966392D01*
X157557314Y-98900500D01*
X157650500Y-98807314D01*
X157716392Y-98693186D01*
X157750500Y-98565892D01*
X157750500Y-98434108D01*
X157716392Y-98306814D01*
X157716163Y-98306418D01*
X157700622Y-98279500D01*
X157650500Y-98192686D01*
X157557314Y-98099500D01*
X157491495Y-98061499D01*
X157443187Y-98033608D01*
X157379539Y-98016554D01*
X157315892Y-97999500D01*
X157184108Y-97999500D01*
X157056812Y-98033608D01*
X156942686Y-98099500D01*
X156942683Y-98099502D01*
X156849502Y-98192683D01*
X156849500Y-98192686D01*
X156783608Y-98306812D01*
X156769564Y-98359228D01*
X156749500Y-98434108D01*
X151443882Y-98434108D01*
X151331817Y-98359228D01*
X151331804Y-98359221D01*
X151204332Y-98306421D01*
X151204322Y-98306418D01*
X151068995Y-98279500D01*
X151068993Y-98279500D01*
X150931007Y-98279500D01*
X150931005Y-98279500D01*
X150795677Y-98306418D01*
X150795667Y-98306421D01*
X150668195Y-98359221D01*
X150668182Y-98359228D01*
X150553458Y-98435885D01*
X150553454Y-98435888D01*
X150452681Y-98536662D01*
X150391358Y-98570147D01*
X150321666Y-98565163D01*
X150277319Y-98536662D01*
X150176545Y-98435888D01*
X150176541Y-98435885D01*
X150061817Y-98359228D01*
X150061804Y-98359221D01*
X149934332Y-98306421D01*
X149934322Y-98306418D01*
X149798995Y-98279500D01*
X149798993Y-98279500D01*
X149661007Y-98279500D01*
X149661005Y-98279500D01*
X149525677Y-98306418D01*
X149525667Y-98306421D01*
X149398195Y-98359221D01*
X149398182Y-98359228D01*
X149283458Y-98435885D01*
X149283454Y-98435888D01*
X149182681Y-98536662D01*
X149121358Y-98570147D01*
X149051666Y-98565163D01*
X149007319Y-98536662D01*
X148906545Y-98435888D01*
X148906541Y-98435885D01*
X148791817Y-98359228D01*
X148791804Y-98359221D01*
X148664332Y-98306421D01*
X148664322Y-98306418D01*
X148528995Y-98279500D01*
X148528993Y-98279500D01*
X148391007Y-98279500D01*
X148391005Y-98279500D01*
X148255677Y-98306418D01*
X148255667Y-98306421D01*
X148128195Y-98359221D01*
X148128182Y-98359228D01*
X148013458Y-98435885D01*
X148013454Y-98435888D01*
X147915888Y-98533454D01*
X147915885Y-98533458D01*
X147839231Y-98648179D01*
X147839221Y-98648195D01*
X147786421Y-98775667D01*
X147786418Y-98775677D01*
X147759500Y-98911004D01*
X147759500Y-98911007D01*
X147759500Y-99048993D01*
X147759500Y-99048995D01*
X147759499Y-99048995D01*
X143686098Y-99048995D01*
X142986819Y-98349716D01*
X142953334Y-98288393D01*
X142950500Y-98262035D01*
X142950500Y-97684108D01*
X154499500Y-97684108D01*
X154499500Y-97815892D01*
X154506558Y-97842233D01*
X154533608Y-97943187D01*
X154538486Y-97951635D01*
X154599500Y-98057314D01*
X154692686Y-98150500D01*
X154806814Y-98216392D01*
X154934108Y-98250500D01*
X154934110Y-98250500D01*
X155065890Y-98250500D01*
X155065892Y-98250500D01*
X155193186Y-98216392D01*
X155307314Y-98150500D01*
X155400500Y-98057314D01*
X155466392Y-97943186D01*
X155500500Y-97815892D01*
X155500500Y-97684108D01*
X155466392Y-97556814D01*
X155400500Y-97442686D01*
X155307314Y-97349500D01*
X155250250Y-97316554D01*
X155193187Y-97283608D01*
X155129539Y-97266554D01*
X155065892Y-97249500D01*
X154934108Y-97249500D01*
X154806812Y-97283608D01*
X154692686Y-97349500D01*
X154692683Y-97349502D01*
X154599502Y-97442683D01*
X154599500Y-97442686D01*
X154533608Y-97556812D01*
X154499500Y-97684108D01*
X142950500Y-97684108D01*
X142950500Y-96934108D01*
X147499500Y-96934108D01*
X147499500Y-97065891D01*
X147533608Y-97193187D01*
X147566121Y-97249500D01*
X147599500Y-97307314D01*
X147692686Y-97400500D01*
X147806814Y-97466392D01*
X147934108Y-97500500D01*
X147934110Y-97500500D01*
X148065890Y-97500500D01*
X148065892Y-97500500D01*
X148193186Y-97466392D01*
X148307314Y-97400500D01*
X148400500Y-97307314D01*
X148466392Y-97193186D01*
X148500500Y-97065892D01*
X148500500Y-96934108D01*
X148466392Y-96806814D01*
X148400500Y-96692686D01*
X148307314Y-96599500D01*
X148250250Y-96566554D01*
X148193187Y-96533608D01*
X148129539Y-96516554D01*
X148065892Y-96499500D01*
X147934108Y-96499500D01*
X147806812Y-96533608D01*
X147692686Y-96599500D01*
X147692683Y-96599502D01*
X147599502Y-96692683D01*
X147599500Y-96692686D01*
X147533608Y-96806812D01*
X147499500Y-96934108D01*
X142950500Y-96934108D01*
X142950500Y-96224108D01*
X159424500Y-96224108D01*
X159424500Y-96355892D01*
X159441554Y-96419539D01*
X159458608Y-96483187D01*
X159465043Y-96494332D01*
X159524500Y-96597314D01*
X159617686Y-96690500D01*
X159731814Y-96756392D01*
X159859108Y-96790500D01*
X159859110Y-96790500D01*
X159990890Y-96790500D01*
X159990892Y-96790500D01*
X160118186Y-96756392D01*
X160232314Y-96690500D01*
X160325500Y-96597314D01*
X160391392Y-96483186D01*
X160425500Y-96355892D01*
X160425500Y-96224108D01*
X160391392Y-96096814D01*
X160325500Y-95982686D01*
X160232314Y-95889500D01*
X160175250Y-95856554D01*
X160118187Y-95823608D01*
X160054539Y-95806554D01*
X159990892Y-95789500D01*
X159859108Y-95789500D01*
X159731812Y-95823608D01*
X159617686Y-95889500D01*
X159617683Y-95889502D01*
X159524502Y-95982683D01*
X159524500Y-95982686D01*
X159458608Y-96096812D01*
X159425332Y-96221004D01*
X159424500Y-96224108D01*
X142950500Y-96224108D01*
X142950500Y-95034108D01*
X152749500Y-95034108D01*
X152749500Y-95165891D01*
X152783608Y-95293187D01*
X152815261Y-95348011D01*
X152849500Y-95407314D01*
X152942686Y-95500500D01*
X153056814Y-95566392D01*
X153184108Y-95600500D01*
X153184110Y-95600500D01*
X153315890Y-95600500D01*
X153315892Y-95600500D01*
X153443186Y-95566392D01*
X153557314Y-95500500D01*
X153650500Y-95407314D01*
X153716392Y-95293186D01*
X153750500Y-95165892D01*
X153750500Y-95034108D01*
X153734610Y-94974806D01*
X162999500Y-94974806D01*
X162999500Y-95106589D01*
X163033608Y-95233885D01*
X163066554Y-95290948D01*
X163099500Y-95348012D01*
X163192686Y-95441198D01*
X163306814Y-95507090D01*
X163434108Y-95541198D01*
X163434110Y-95541198D01*
X163565890Y-95541198D01*
X163565892Y-95541198D01*
X163693186Y-95507090D01*
X163807314Y-95441198D01*
X163900500Y-95348012D01*
X163966392Y-95233884D01*
X164000500Y-95106590D01*
X164000500Y-94974806D01*
X163966392Y-94847512D01*
X163900500Y-94733384D01*
X163807314Y-94640198D01*
X163736425Y-94599270D01*
X163693187Y-94574306D01*
X163629539Y-94557252D01*
X163565892Y-94540198D01*
X163434108Y-94540198D01*
X163306812Y-94574306D01*
X163192686Y-94640198D01*
X163192683Y-94640200D01*
X163099502Y-94733381D01*
X163099500Y-94733384D01*
X163033608Y-94847510D01*
X162999500Y-94974806D01*
X153734610Y-94974806D01*
X153716392Y-94906814D01*
X153650500Y-94792686D01*
X153557314Y-94699500D01*
X153454604Y-94640200D01*
X153443187Y-94633608D01*
X153379539Y-94616554D01*
X153315892Y-94599500D01*
X153184108Y-94599500D01*
X153056812Y-94633608D01*
X152942686Y-94699500D01*
X152942683Y-94699502D01*
X152849502Y-94792683D01*
X152849500Y-94792686D01*
X152783608Y-94906812D01*
X152749500Y-95034108D01*
X142950500Y-95034108D01*
X142950500Y-93934108D01*
X155999500Y-93934108D01*
X155999500Y-94065891D01*
X156033608Y-94193187D01*
X156066554Y-94250250D01*
X156099500Y-94307314D01*
X156192686Y-94400500D01*
X156291521Y-94457563D01*
X156304773Y-94465214D01*
X156306814Y-94466392D01*
X156434108Y-94500500D01*
X156434110Y-94500500D01*
X156565890Y-94500500D01*
X156565892Y-94500500D01*
X156693186Y-94466392D01*
X156807314Y-94400500D01*
X156900500Y-94307314D01*
X156966392Y-94193186D01*
X157000500Y-94065892D01*
X157000500Y-93934108D01*
X157249500Y-93934108D01*
X157249500Y-94065891D01*
X157283608Y-94193187D01*
X157316554Y-94250250D01*
X157349500Y-94307314D01*
X157442686Y-94400500D01*
X157541521Y-94457563D01*
X157554773Y-94465214D01*
X157556814Y-94466392D01*
X157684108Y-94500500D01*
X157684110Y-94500500D01*
X157815890Y-94500500D01*
X157815892Y-94500500D01*
X157943186Y-94466392D01*
X158057314Y-94400500D01*
X158150500Y-94307314D01*
X158216392Y-94193186D01*
X158250500Y-94065892D01*
X158250500Y-93934108D01*
X158216392Y-93806814D01*
X158150500Y-93692686D01*
X158057314Y-93599500D01*
X158000250Y-93566554D01*
X157943187Y-93533608D01*
X157879539Y-93516554D01*
X157815892Y-93499500D01*
X157684108Y-93499500D01*
X157556812Y-93533608D01*
X157442686Y-93599500D01*
X157442683Y-93599502D01*
X157349502Y-93692683D01*
X157349500Y-93692686D01*
X157283608Y-93806812D01*
X157249500Y-93934108D01*
X157000500Y-93934108D01*
X156966392Y-93806814D01*
X156900500Y-93692686D01*
X156807314Y-93599500D01*
X156750250Y-93566554D01*
X156693187Y-93533608D01*
X156629539Y-93516554D01*
X156565892Y-93499500D01*
X156434108Y-93499500D01*
X156306812Y-93533608D01*
X156192686Y-93599500D01*
X156192683Y-93599502D01*
X156099502Y-93692683D01*
X156099500Y-93692686D01*
X156033608Y-93806812D01*
X155999500Y-93934108D01*
X142950500Y-93934108D01*
X142950500Y-92434108D01*
X159499500Y-92434108D01*
X159499500Y-92565891D01*
X159533608Y-92693187D01*
X159566554Y-92750250D01*
X159599500Y-92807314D01*
X159692686Y-92900500D01*
X159806814Y-92966392D01*
X159934108Y-93000500D01*
X159934110Y-93000500D01*
X160065890Y-93000500D01*
X160065892Y-93000500D01*
X160193186Y-92966392D01*
X160307314Y-92900500D01*
X160400500Y-92807314D01*
X160466392Y-92693186D01*
X160500500Y-92565892D01*
X160500500Y-92434108D01*
X160466392Y-92306814D01*
X160400500Y-92192686D01*
X160307314Y-92099500D01*
X160250250Y-92066554D01*
X160193187Y-92033608D01*
X160129539Y-92016554D01*
X160065892Y-91999500D01*
X159934108Y-91999500D01*
X159806812Y-92033608D01*
X159692686Y-92099500D01*
X159692683Y-92099502D01*
X159599502Y-92192683D01*
X159599500Y-92192686D01*
X159533608Y-92306812D01*
X159499500Y-92434108D01*
X142950500Y-92434108D01*
X142950500Y-91753936D01*
X142964618Y-91701246D01*
X142963282Y-91700693D01*
X142966391Y-91693187D01*
X142966392Y-91693186D01*
X143000500Y-91565892D01*
X143000500Y-91434108D01*
X142966392Y-91306814D01*
X142966388Y-91306807D01*
X142963281Y-91299304D01*
X142964616Y-91298751D01*
X142950500Y-91246062D01*
X142950500Y-90407676D01*
X142970185Y-90340637D01*
X143022989Y-90294882D01*
X143092147Y-90284938D01*
X143155703Y-90313963D01*
X143162181Y-90319995D01*
X143242686Y-90400500D01*
X143356814Y-90466392D01*
X143484108Y-90500500D01*
X143484110Y-90500500D01*
X143615890Y-90500500D01*
X143615892Y-90500500D01*
X143743186Y-90466392D01*
X143857314Y-90400500D01*
X143950500Y-90307314D01*
X144016392Y-90193186D01*
X144050500Y-90065892D01*
X144050500Y-89934108D01*
X144016392Y-89806814D01*
X143950500Y-89692686D01*
X143857314Y-89599500D01*
X143783380Y-89556814D01*
X143743187Y-89533608D01*
X143679539Y-89516554D01*
X143615892Y-89499500D01*
X143484108Y-89499500D01*
X143356812Y-89533608D01*
X143242686Y-89599500D01*
X143242683Y-89599502D01*
X143162181Y-89680005D01*
X143100858Y-89713490D01*
X143031166Y-89708506D01*
X142975233Y-89666634D01*
X142950816Y-89601170D01*
X142950500Y-89592324D01*
X142950500Y-86934108D01*
X144999500Y-86934108D01*
X144999500Y-87065891D01*
X145033608Y-87193187D01*
X145066121Y-87249500D01*
X145099500Y-87307314D01*
X145192686Y-87400500D01*
X145306814Y-87466392D01*
X145434108Y-87500500D01*
X145434110Y-87500500D01*
X145565890Y-87500500D01*
X145565892Y-87500500D01*
X145693186Y-87466392D01*
X145807314Y-87400500D01*
X145807321Y-87400492D01*
X145813760Y-87395553D01*
X145814855Y-87396980D01*
X145867318Y-87368334D01*
X145893676Y-87365500D01*
X148297243Y-87365500D01*
X148364282Y-87385185D01*
X148384924Y-87401819D01*
X149405924Y-88422819D01*
X149439409Y-88484142D01*
X149434425Y-88553834D01*
X149392553Y-88609767D01*
X149327089Y-88634184D01*
X149318243Y-88634500D01*
X147951881Y-88634500D01*
X147858920Y-88659408D01*
X147775578Y-88707527D01*
X147775575Y-88707529D01*
X145519924Y-90963181D01*
X145458601Y-90996666D01*
X145442167Y-90998432D01*
X145442168Y-90998439D01*
X145434108Y-90999500D01*
X145306812Y-91033608D01*
X145192686Y-91099500D01*
X145192683Y-91099502D01*
X145099502Y-91192683D01*
X145099500Y-91192686D01*
X145033608Y-91306812D01*
X144999500Y-91434108D01*
X144999500Y-91565891D01*
X145033608Y-91693187D01*
X145055151Y-91730499D01*
X145099500Y-91807314D01*
X145192686Y-91900500D01*
X145306814Y-91966392D01*
X145434108Y-92000500D01*
X145434110Y-92000500D01*
X145565890Y-92000500D01*
X145565892Y-92000500D01*
X145693186Y-91966392D01*
X145807314Y-91900500D01*
X145900500Y-91807314D01*
X145966392Y-91693186D01*
X146000500Y-91565892D01*
X146000500Y-91565883D01*
X146001561Y-91557832D01*
X146003345Y-91558066D01*
X146020185Y-91500718D01*
X146036819Y-91480076D01*
X146352787Y-91164108D01*
X164999500Y-91164108D01*
X164999500Y-91295891D01*
X165033608Y-91423187D01*
X165039915Y-91434110D01*
X165099500Y-91537314D01*
X165192686Y-91630500D01*
X165306814Y-91696392D01*
X165434108Y-91730500D01*
X165434110Y-91730500D01*
X165565890Y-91730500D01*
X165565892Y-91730500D01*
X165693186Y-91696392D01*
X165807314Y-91630500D01*
X165900500Y-91537314D01*
X165966392Y-91423186D01*
X166000500Y-91295892D01*
X166000500Y-91164108D01*
X165966392Y-91036814D01*
X165900500Y-90922686D01*
X165807314Y-90829500D01*
X165743176Y-90792470D01*
X165693187Y-90763608D01*
X165629539Y-90746554D01*
X165565892Y-90729500D01*
X165434108Y-90729500D01*
X165306812Y-90763608D01*
X165192686Y-90829500D01*
X165192683Y-90829502D01*
X165099502Y-90922683D01*
X165099500Y-90922686D01*
X165033608Y-91036812D01*
X164999500Y-91164108D01*
X146352787Y-91164108D01*
X148115076Y-89401819D01*
X148176399Y-89368334D01*
X148202757Y-89365500D01*
X150106324Y-89365500D01*
X150173363Y-89385185D01*
X150186235Y-89395558D01*
X150186240Y-89395553D01*
X150192681Y-89400495D01*
X150192686Y-89400500D01*
X150306814Y-89466392D01*
X150434108Y-89500500D01*
X150434110Y-89500500D01*
X150565890Y-89500500D01*
X150565892Y-89500500D01*
X150693186Y-89466392D01*
X150807314Y-89400500D01*
X150807321Y-89400492D01*
X150813760Y-89395553D01*
X150814855Y-89396980D01*
X150867318Y-89368334D01*
X150893676Y-89365500D01*
X165297243Y-89365500D01*
X165364282Y-89385185D01*
X165384923Y-89401818D01*
X166097919Y-90114815D01*
X166782642Y-90799538D01*
X166782648Y-90799543D01*
X168173181Y-92190076D01*
X168206666Y-92251399D01*
X168209500Y-92277757D01*
X168209500Y-99650871D01*
X168189815Y-99717910D01*
X168137011Y-99763665D01*
X168067853Y-99773609D01*
X168053409Y-99770646D01*
X168031044Y-99764653D01*
X168031040Y-99764653D01*
X167899256Y-99764653D01*
X167771960Y-99798761D01*
X167657834Y-99864653D01*
X167653597Y-99868890D01*
X167633712Y-99879746D01*
X167616467Y-99894434D01*
X167603636Y-99896167D01*
X167592272Y-99902372D01*
X167569674Y-99900754D01*
X167547226Y-99903787D01*
X167535495Y-99898308D01*
X167522581Y-99897384D01*
X167504446Y-99883807D01*
X167483921Y-99874221D01*
X167471699Y-99859290D01*
X167466649Y-99855509D01*
X167461036Y-99847351D01*
X167459744Y-99845302D01*
X167400500Y-99742689D01*
X167385685Y-99727874D01*
X167378290Y-99716148D01*
X167372373Y-99695341D01*
X167362008Y-99676359D01*
X167363006Y-99662401D01*
X167359179Y-99648943D01*
X167365448Y-99628243D01*
X167366992Y-99606667D01*
X167376434Y-99591975D01*
X167379434Y-99582074D01*
X167386869Y-99575741D01*
X167395499Y-99562314D01*
X167400500Y-99557314D01*
X167466392Y-99443186D01*
X167500500Y-99315892D01*
X167500500Y-99184108D01*
X167466392Y-99056814D01*
X167400500Y-98942686D01*
X167307314Y-98849500D01*
X167307311Y-98849498D01*
X167307307Y-98849495D01*
X167232638Y-98806384D01*
X167184423Y-98755817D01*
X167171201Y-98687209D01*
X167197169Y-98622345D01*
X167206942Y-98611333D01*
X167268231Y-98550045D01*
X167334123Y-98435917D01*
X167368231Y-98308623D01*
X167368231Y-98176839D01*
X167334123Y-98049545D01*
X167268231Y-97935417D01*
X167175045Y-97842231D01*
X167112430Y-97806080D01*
X167060918Y-97776339D01*
X166997270Y-97759285D01*
X166933623Y-97742231D01*
X166801839Y-97742231D01*
X166674543Y-97776339D01*
X166560417Y-97842231D01*
X166560414Y-97842233D01*
X166514929Y-97887719D01*
X166514359Y-97888029D01*
X166514043Y-97888596D01*
X166483752Y-97904742D01*
X166453606Y-97921204D01*
X166452958Y-97921157D01*
X166452386Y-97921463D01*
X166418177Y-97918670D01*
X166383914Y-97916220D01*
X166383177Y-97915813D01*
X166382748Y-97915778D01*
X166380666Y-97914425D01*
X166351943Y-97898553D01*
X166345398Y-97893550D01*
X166310297Y-97858449D01*
X166266084Y-97832922D01*
X166259719Y-97828057D01*
X166243609Y-97806080D01*
X166224808Y-97786361D01*
X166223257Y-97778315D01*
X166218412Y-97771705D01*
X166216741Y-97744505D01*
X166211586Y-97717754D01*
X166214206Y-97703227D01*
X166214129Y-97701967D01*
X166214578Y-97701162D01*
X166215249Y-97697448D01*
X166216391Y-97693187D01*
X166216392Y-97693186D01*
X166250500Y-97565892D01*
X166250500Y-97434108D01*
X166216392Y-97306814D01*
X166150500Y-97192686D01*
X166057314Y-97099500D01*
X165999100Y-97065890D01*
X165943187Y-97033608D01*
X165879539Y-97016554D01*
X165815892Y-96999500D01*
X165684108Y-96999500D01*
X165556812Y-97033608D01*
X165442686Y-97099500D01*
X165442683Y-97099502D01*
X165349502Y-97192683D01*
X165349500Y-97192686D01*
X165283608Y-97306812D01*
X165249500Y-97434108D01*
X165249500Y-97565891D01*
X165283608Y-97693187D01*
X165289405Y-97703227D01*
X165349500Y-97807314D01*
X165442686Y-97900500D01*
X165478465Y-97921157D01*
X165479958Y-97922019D01*
X165528174Y-97972586D01*
X165541397Y-98041193D01*
X165537733Y-98061499D01*
X165502483Y-98193057D01*
X165502483Y-98324840D01*
X165536591Y-98452136D01*
X165565927Y-98502946D01*
X165602483Y-98566263D01*
X165695669Y-98659449D01*
X165809797Y-98725341D01*
X165937091Y-98759449D01*
X165937093Y-98759449D01*
X166068873Y-98759449D01*
X166068875Y-98759449D01*
X166196169Y-98725341D01*
X166310297Y-98659449D01*
X166355785Y-98613961D01*
X166417108Y-98580476D01*
X166486800Y-98585460D01*
X166515281Y-98600555D01*
X166523776Y-98606590D01*
X166560417Y-98643231D01*
X166640141Y-98689259D01*
X166644906Y-98692645D01*
X166663063Y-98715681D01*
X166683307Y-98736913D01*
X166684442Y-98742805D01*
X166688158Y-98747519D01*
X166690978Y-98776721D01*
X166696529Y-98805520D01*
X166694298Y-98811090D01*
X166694876Y-98817065D01*
X166681463Y-98843152D01*
X166670561Y-98870385D01*
X166663194Y-98878684D01*
X166662928Y-98879203D01*
X166662530Y-98879433D01*
X166660773Y-98881413D01*
X166599500Y-98942686D01*
X166533608Y-99056812D01*
X166499500Y-99184108D01*
X166499500Y-99315891D01*
X166533608Y-99443187D01*
X166547591Y-99467406D01*
X166599500Y-99557314D01*
X166599501Y-99557315D01*
X166599502Y-99557316D01*
X166604506Y-99562320D01*
X166637991Y-99623643D01*
X166633007Y-99693335D01*
X166604510Y-99737678D01*
X166599503Y-99742685D01*
X166599501Y-99742687D01*
X166599500Y-99742689D01*
X166568003Y-99797243D01*
X166533608Y-99856816D01*
X166517162Y-99918195D01*
X166499500Y-99984111D01*
X166499500Y-100115895D01*
X166515132Y-100174234D01*
X166533608Y-100243190D01*
X166566554Y-100300253D01*
X166599500Y-100357317D01*
X166692686Y-100450503D01*
X166806814Y-100516395D01*
X166934108Y-100550503D01*
X166934110Y-100550503D01*
X167065890Y-100550503D01*
X167065892Y-100550503D01*
X167193186Y-100516395D01*
X167307314Y-100450503D01*
X167311545Y-100446271D01*
X167372863Y-100412786D01*
X167442555Y-100417767D01*
X167498490Y-100459636D01*
X167506614Y-100471950D01*
X167564648Y-100572467D01*
X167657834Y-100665653D01*
X167771962Y-100731545D01*
X167899256Y-100765653D01*
X167899258Y-100765653D01*
X168031038Y-100765653D01*
X168031040Y-100765653D01*
X168158334Y-100731545D01*
X168272462Y-100665653D01*
X168272465Y-100665649D01*
X168278499Y-100662166D01*
X168346399Y-100645693D01*
X168412426Y-100668545D01*
X168455617Y-100723466D01*
X168464500Y-100769553D01*
X168464500Y-101123104D01*
X168444815Y-101190143D01*
X168392011Y-101235898D01*
X168322853Y-101245842D01*
X168293048Y-101237665D01*
X168169332Y-101186421D01*
X168169322Y-101186418D01*
X168033995Y-101159500D01*
X168033993Y-101159500D01*
X166796007Y-101159500D01*
X166796005Y-101159500D01*
X166660677Y-101186418D01*
X166660667Y-101186421D01*
X166533195Y-101239221D01*
X166533182Y-101239228D01*
X166418458Y-101315885D01*
X166418454Y-101315888D01*
X166320888Y-101413454D01*
X166320885Y-101413458D01*
X166244228Y-101528182D01*
X166244221Y-101528195D01*
X166191421Y-101655667D01*
X166191418Y-101655677D01*
X166164500Y-101791004D01*
X166164500Y-101791007D01*
X166164500Y-101928993D01*
X166164500Y-101928995D01*
X166164499Y-101928995D01*
X166191418Y-102064322D01*
X166191421Y-102064332D01*
X166244221Y-102191804D01*
X166244228Y-102191817D01*
X166320885Y-102306541D01*
X166320888Y-102306545D01*
X166418454Y-102404111D01*
X166418458Y-102404114D01*
X166533182Y-102480771D01*
X166533195Y-102480778D01*
X166660667Y-102533578D01*
X166660672Y-102533580D01*
X166660676Y-102533580D01*
X166660677Y-102533581D01*
X166796004Y-102560500D01*
X167594756Y-102560500D01*
X167661795Y-102580185D01*
X167707550Y-102632989D01*
X167717494Y-102702147D01*
X167688469Y-102765703D01*
X167656756Y-102791887D01*
X167591638Y-102829482D01*
X167591632Y-102829487D01*
X167484487Y-102936632D01*
X167484485Y-102936635D01*
X167408719Y-103067863D01*
X167369500Y-103214234D01*
X167369500Y-103365765D01*
X167408719Y-103512136D01*
X167439755Y-103565891D01*
X167484485Y-103643365D01*
X167591635Y-103750515D01*
X167722865Y-103826281D01*
X167869234Y-103865500D01*
X167869236Y-103865500D01*
X168020764Y-103865500D01*
X168020766Y-103865500D01*
X168167135Y-103826281D01*
X168278501Y-103761983D01*
X168346399Y-103745511D01*
X168412426Y-103768363D01*
X168455617Y-103823284D01*
X168464500Y-103869371D01*
X168464500Y-104296504D01*
X168444815Y-104363543D01*
X168392011Y-104409298D01*
X168387951Y-104411066D01*
X168381814Y-104413607D01*
X168267686Y-104479500D01*
X168267683Y-104479502D01*
X168174502Y-104572683D01*
X168174500Y-104572686D01*
X168108608Y-104686812D01*
X168087369Y-104766078D01*
X168074500Y-104814108D01*
X168074500Y-104945892D01*
X168091554Y-105009539D01*
X168108608Y-105073187D01*
X168127015Y-105105068D01*
X168174500Y-105187314D01*
X168267686Y-105280500D01*
X168381814Y-105346392D01*
X168509108Y-105380500D01*
X168509110Y-105380500D01*
X168640890Y-105380500D01*
X168640892Y-105380500D01*
X168768186Y-105346392D01*
X168882314Y-105280500D01*
X168975500Y-105187314D01*
X169041392Y-105073186D01*
X169075500Y-104945892D01*
X169075500Y-104945883D01*
X169076561Y-104937832D01*
X169078345Y-104938066D01*
X169095185Y-104880718D01*
X169111816Y-104860078D01*
X169122472Y-104849423D01*
X169142862Y-104814108D01*
X169170592Y-104766078D01*
X169183288Y-104718695D01*
X169195500Y-104673120D01*
X169195500Y-104576881D01*
X169195500Y-103434108D01*
X169499500Y-103434108D01*
X169499500Y-103565891D01*
X169533608Y-103693187D01*
X169563818Y-103745511D01*
X169599500Y-103807314D01*
X169692686Y-103900500D01*
X169806814Y-103966392D01*
X169934108Y-104000500D01*
X169934110Y-104000500D01*
X170065890Y-104000500D01*
X170065892Y-104000500D01*
X170193186Y-103966392D01*
X170307314Y-103900500D01*
X170400500Y-103807314D01*
X170466392Y-103693186D01*
X170500500Y-103565892D01*
X170500500Y-103434108D01*
X170466392Y-103306814D01*
X170400500Y-103192686D01*
X170307314Y-103099500D01*
X170202297Y-103038868D01*
X170193187Y-103033608D01*
X170129539Y-103016554D01*
X170065892Y-102999500D01*
X169934108Y-102999500D01*
X169806812Y-103033608D01*
X169692686Y-103099500D01*
X169692683Y-103099502D01*
X169599502Y-103192683D01*
X169599500Y-103192686D01*
X169533608Y-103306812D01*
X169499500Y-103434108D01*
X169195500Y-103434108D01*
X169195500Y-100206881D01*
X169186752Y-100174234D01*
X169170592Y-100113922D01*
X169132600Y-100048119D01*
X169132600Y-100048118D01*
X169122475Y-100030581D01*
X169122471Y-100030576D01*
X168976819Y-99884924D01*
X168943334Y-99823601D01*
X168940500Y-99797243D01*
X168940500Y-95088995D01*
X169799499Y-95088995D01*
X169826418Y-95224322D01*
X169826421Y-95224332D01*
X169879221Y-95351804D01*
X169879228Y-95351817D01*
X169955885Y-95466541D01*
X169955888Y-95466545D01*
X170056662Y-95567319D01*
X170090147Y-95628642D01*
X170085163Y-95698334D01*
X170056662Y-95742681D01*
X169955888Y-95843454D01*
X169955885Y-95843458D01*
X169879228Y-95958182D01*
X169879221Y-95958195D01*
X169826421Y-96085667D01*
X169826418Y-96085677D01*
X169799500Y-96221004D01*
X169799500Y-96221007D01*
X169799500Y-96358993D01*
X169799500Y-96358995D01*
X169799499Y-96358995D01*
X169826418Y-96494322D01*
X169826421Y-96494332D01*
X169879221Y-96621804D01*
X169879228Y-96621817D01*
X169955885Y-96736541D01*
X169955888Y-96736545D01*
X170053454Y-96834111D01*
X170053458Y-96834114D01*
X170168182Y-96910771D01*
X170168195Y-96910778D01*
X170295667Y-96963578D01*
X170295672Y-96963580D01*
X170295676Y-96963580D01*
X170295677Y-96963581D01*
X170431004Y-96990500D01*
X170431007Y-96990500D01*
X170568995Y-96990500D01*
X170660041Y-96972389D01*
X170704328Y-96963580D01*
X170831811Y-96910775D01*
X170946542Y-96834114D01*
X171044114Y-96736542D01*
X171120775Y-96621811D01*
X171130017Y-96599500D01*
X171157310Y-96533608D01*
X171173580Y-96494328D01*
X171200500Y-96358993D01*
X171200500Y-96221007D01*
X171200500Y-96221004D01*
X171173581Y-96085677D01*
X171173580Y-96085676D01*
X171173580Y-96085672D01*
X171130921Y-95982683D01*
X171120778Y-95958195D01*
X171120771Y-95958182D01*
X171044114Y-95843458D01*
X171044111Y-95843454D01*
X170943338Y-95742681D01*
X170909853Y-95681358D01*
X170914837Y-95611666D01*
X170943338Y-95567319D01*
X171044111Y-95466545D01*
X171044114Y-95466542D01*
X171120775Y-95351811D01*
X171173580Y-95224328D01*
X171200500Y-95088993D01*
X171200500Y-94951007D01*
X171200500Y-94951004D01*
X171173581Y-94815677D01*
X171173580Y-94815676D01*
X171173580Y-94815672D01*
X171164058Y-94792683D01*
X171120778Y-94688195D01*
X171120771Y-94688182D01*
X171061362Y-94599271D01*
X171040484Y-94532594D01*
X171058968Y-94465214D01*
X171095572Y-94427279D01*
X171144552Y-94394552D01*
X171188867Y-94328231D01*
X171188867Y-94328229D01*
X171188868Y-94328229D01*
X171200499Y-94269752D01*
X171200500Y-94269750D01*
X171200500Y-93230249D01*
X171200499Y-93230247D01*
X171188868Y-93171770D01*
X171188867Y-93171769D01*
X171144552Y-93105447D01*
X171078230Y-93061132D01*
X171078229Y-93061131D01*
X171019752Y-93049500D01*
X171019748Y-93049500D01*
X169980252Y-93049500D01*
X169980247Y-93049500D01*
X169921770Y-93061131D01*
X169921769Y-93061132D01*
X169855447Y-93105447D01*
X169811132Y-93171769D01*
X169811131Y-93171770D01*
X169799500Y-93230247D01*
X169799500Y-94269752D01*
X169811131Y-94328229D01*
X169811132Y-94328230D01*
X169811133Y-94328231D01*
X169855448Y-94394552D01*
X169904426Y-94427279D01*
X169949231Y-94480889D01*
X169957938Y-94550214D01*
X169938637Y-94599270D01*
X169879231Y-94688177D01*
X169879221Y-94688195D01*
X169826421Y-94815667D01*
X169826418Y-94815677D01*
X169799500Y-94951004D01*
X169799500Y-94951007D01*
X169799500Y-95088993D01*
X169799500Y-95088995D01*
X169799499Y-95088995D01*
X168940500Y-95088995D01*
X168940500Y-92026882D01*
X168940499Y-92026878D01*
X168933432Y-92000503D01*
X168933430Y-92000496D01*
X168915593Y-91933925D01*
X168915591Y-91933919D01*
X168867477Y-91850583D01*
X168867471Y-91850575D01*
X168496972Y-91480076D01*
X168094075Y-91077180D01*
X168060591Y-91015858D01*
X168065575Y-90946167D01*
X168107447Y-90890233D01*
X168172911Y-90865816D01*
X168181757Y-90865500D01*
X169048117Y-90865500D01*
X169048119Y-90865500D01*
X169141078Y-90840592D01*
X169224422Y-90792473D01*
X169730076Y-90286819D01*
X169791399Y-90253334D01*
X169807832Y-90251567D01*
X169807832Y-90251561D01*
X169815883Y-90250500D01*
X169815892Y-90250500D01*
X169943186Y-90216392D01*
X170057314Y-90150500D01*
X170150500Y-90057314D01*
X170216392Y-89943186D01*
X170250500Y-89815892D01*
X170250500Y-89684108D01*
X170216392Y-89556814D01*
X170150500Y-89442686D01*
X170057314Y-89349500D01*
X170000250Y-89316554D01*
X169943187Y-89283608D01*
X169879539Y-89266554D01*
X169815892Y-89249500D01*
X169684108Y-89249500D01*
X169556812Y-89283608D01*
X169442686Y-89349500D01*
X169442683Y-89349502D01*
X169349502Y-89442683D01*
X169349500Y-89442686D01*
X169283608Y-89556812D01*
X169249500Y-89684108D01*
X169248439Y-89692168D01*
X169246654Y-89691933D01*
X169229815Y-89749282D01*
X169213181Y-89769924D01*
X168884924Y-90098181D01*
X168823601Y-90131666D01*
X168797243Y-90134500D01*
X167202758Y-90134500D01*
X167135719Y-90114815D01*
X167115077Y-90098181D01*
X165724424Y-88707529D01*
X165724422Y-88707527D01*
X165682750Y-88683467D01*
X165641079Y-88659408D01*
X165594598Y-88646954D01*
X165548119Y-88634500D01*
X165548118Y-88634500D01*
X162864788Y-88634500D01*
X162797749Y-88614815D01*
X162751994Y-88562011D01*
X162742050Y-88492853D01*
X162771075Y-88429297D01*
X162802788Y-88403113D01*
X162807314Y-88400500D01*
X162900500Y-88307314D01*
X162966392Y-88193186D01*
X163000500Y-88065892D01*
X163000500Y-87934108D01*
X162966392Y-87806814D01*
X162900500Y-87692686D01*
X162807314Y-87599500D01*
X162749100Y-87565890D01*
X162693187Y-87533608D01*
X162629539Y-87516554D01*
X162565892Y-87499500D01*
X162434108Y-87499500D01*
X162306812Y-87533608D01*
X162192686Y-87599500D01*
X162192683Y-87599502D01*
X162099502Y-87692683D01*
X162099500Y-87692686D01*
X162033608Y-87806812D01*
X161999500Y-87934108D01*
X161999500Y-88065891D01*
X162033608Y-88193187D01*
X162066554Y-88250250D01*
X162099500Y-88307314D01*
X162192686Y-88400500D01*
X162197212Y-88403113D01*
X162245427Y-88453680D01*
X162258651Y-88522287D01*
X162232683Y-88587151D01*
X162175769Y-88627680D01*
X162135212Y-88634500D01*
X150893676Y-88634500D01*
X150826637Y-88614815D01*
X150813764Y-88604441D01*
X150813760Y-88604447D01*
X150807317Y-88599503D01*
X150807314Y-88599500D01*
X150742381Y-88562011D01*
X150693187Y-88533608D01*
X150629539Y-88516554D01*
X150565892Y-88499500D01*
X150565891Y-88499500D01*
X150557832Y-88498439D01*
X150558066Y-88496654D01*
X150500718Y-88479815D01*
X150480076Y-88463181D01*
X149451003Y-87434108D01*
X153499500Y-87434108D01*
X153499500Y-87565892D01*
X153508505Y-87599500D01*
X153533608Y-87693187D01*
X153546717Y-87715892D01*
X153599500Y-87807314D01*
X153692686Y-87900500D01*
X153806814Y-87966392D01*
X153934108Y-88000500D01*
X153934110Y-88000500D01*
X154065890Y-88000500D01*
X154065892Y-88000500D01*
X154193186Y-87966392D01*
X154307314Y-87900500D01*
X154400500Y-87807314D01*
X154466392Y-87693186D01*
X154495619Y-87584108D01*
X156349500Y-87584108D01*
X156349500Y-87715891D01*
X156383608Y-87843187D01*
X156416554Y-87900250D01*
X156449500Y-87957314D01*
X156542686Y-88050500D01*
X156656814Y-88116392D01*
X156784108Y-88150500D01*
X156784110Y-88150500D01*
X156915890Y-88150500D01*
X156915892Y-88150500D01*
X157043186Y-88116392D01*
X157157314Y-88050500D01*
X157250500Y-87957314D01*
X157316392Y-87843186D01*
X157350500Y-87715892D01*
X157350500Y-87584108D01*
X157316392Y-87456814D01*
X157250500Y-87342686D01*
X157157314Y-87249500D01*
X157100250Y-87216554D01*
X157043187Y-87183608D01*
X156979539Y-87166554D01*
X156915892Y-87149500D01*
X156784108Y-87149500D01*
X156656812Y-87183608D01*
X156542686Y-87249500D01*
X156542683Y-87249502D01*
X156449502Y-87342683D01*
X156449500Y-87342686D01*
X156383608Y-87456812D01*
X156349500Y-87584108D01*
X154495619Y-87584108D01*
X154500500Y-87565892D01*
X154500500Y-87434108D01*
X154466392Y-87306814D01*
X154400500Y-87192686D01*
X154307314Y-87099500D01*
X154249102Y-87065891D01*
X154193187Y-87033608D01*
X154129539Y-87016554D01*
X154065892Y-86999500D01*
X153934108Y-86999500D01*
X153806812Y-87033608D01*
X153692686Y-87099500D01*
X153692683Y-87099502D01*
X153599502Y-87192683D01*
X153599500Y-87192686D01*
X153533608Y-87306812D01*
X153523997Y-87342683D01*
X153499500Y-87434108D01*
X149451003Y-87434108D01*
X148724424Y-86707529D01*
X148724422Y-86707527D01*
X148682750Y-86683467D01*
X148641079Y-86659408D01*
X148594598Y-86646954D01*
X148548119Y-86634500D01*
X148548118Y-86634500D01*
X145893676Y-86634500D01*
X145826637Y-86614815D01*
X145813764Y-86604441D01*
X145813760Y-86604447D01*
X145807316Y-86599502D01*
X145807314Y-86599500D01*
X145750250Y-86566554D01*
X145693187Y-86533608D01*
X145629539Y-86516554D01*
X145565892Y-86499500D01*
X145434108Y-86499500D01*
X145306812Y-86533608D01*
X145192686Y-86599500D01*
X145192683Y-86599502D01*
X145099502Y-86692683D01*
X145099500Y-86692686D01*
X145033608Y-86806812D01*
X144999500Y-86934108D01*
X142950500Y-86934108D01*
X142950500Y-86184108D01*
X157749500Y-86184108D01*
X157749500Y-86315891D01*
X157783608Y-86443187D01*
X157816121Y-86499500D01*
X157849500Y-86557314D01*
X157942686Y-86650500D01*
X158056814Y-86716392D01*
X158184108Y-86750500D01*
X158184110Y-86750500D01*
X158315890Y-86750500D01*
X158315892Y-86750500D01*
X158443186Y-86716392D01*
X158557314Y-86650500D01*
X158650500Y-86557314D01*
X158716392Y-86443186D01*
X158750500Y-86315892D01*
X158750500Y-86184108D01*
X158716392Y-86056814D01*
X158650500Y-85942686D01*
X158557314Y-85849500D01*
X158500250Y-85816554D01*
X158443187Y-85783608D01*
X158379539Y-85766554D01*
X158315892Y-85749500D01*
X158184108Y-85749500D01*
X158056812Y-85783608D01*
X157942686Y-85849500D01*
X157942683Y-85849502D01*
X157849502Y-85942683D01*
X157849500Y-85942686D01*
X157783608Y-86056812D01*
X157749500Y-86184108D01*
X142950500Y-86184108D01*
X142950500Y-85237965D01*
X142970185Y-85170926D01*
X142986819Y-85150284D01*
X144452995Y-83684108D01*
X145499500Y-83684108D01*
X145499500Y-83815891D01*
X145533608Y-83943187D01*
X145566554Y-84000250D01*
X145599500Y-84057314D01*
X145692686Y-84150500D01*
X145806814Y-84216392D01*
X145934108Y-84250500D01*
X145934110Y-84250500D01*
X146065890Y-84250500D01*
X146065892Y-84250500D01*
X146193186Y-84216392D01*
X146307314Y-84150500D01*
X146400500Y-84057314D01*
X146466392Y-83943186D01*
X146500500Y-83815892D01*
X146500500Y-83684108D01*
X146466392Y-83556814D01*
X146400500Y-83442686D01*
X146307314Y-83349500D01*
X146250250Y-83316554D01*
X146193187Y-83283608D01*
X146129539Y-83266554D01*
X146065892Y-83249500D01*
X145934108Y-83249500D01*
X145806812Y-83283608D01*
X145692686Y-83349500D01*
X145692683Y-83349502D01*
X145599502Y-83442683D01*
X145599500Y-83442686D01*
X145533608Y-83556812D01*
X145499500Y-83684108D01*
X144452995Y-83684108D01*
X145202995Y-82934108D01*
X160599500Y-82934108D01*
X160599500Y-83065891D01*
X160633608Y-83193187D01*
X160666121Y-83249500D01*
X160699500Y-83307314D01*
X160792686Y-83400500D01*
X160906814Y-83466392D01*
X161034108Y-83500500D01*
X161034110Y-83500500D01*
X161165890Y-83500500D01*
X161165892Y-83500500D01*
X161293186Y-83466392D01*
X161407314Y-83400500D01*
X161500500Y-83307314D01*
X161566392Y-83193186D01*
X161600500Y-83065892D01*
X161600500Y-82934108D01*
X161566392Y-82806814D01*
X161500500Y-82692686D01*
X161407314Y-82599500D01*
X161350250Y-82566554D01*
X161293187Y-82533608D01*
X161229539Y-82516554D01*
X161165892Y-82499500D01*
X161034108Y-82499500D01*
X160906812Y-82533608D01*
X160792686Y-82599500D01*
X160792683Y-82599502D01*
X160699502Y-82692683D01*
X160699500Y-82692686D01*
X160633608Y-82806812D01*
X160599500Y-82934108D01*
X145202995Y-82934108D01*
X145298803Y-82838300D01*
X145330290Y-82806814D01*
X146702996Y-81434108D01*
X159999500Y-81434108D01*
X159999500Y-81565891D01*
X160033608Y-81693187D01*
X160066554Y-81750250D01*
X160099500Y-81807314D01*
X160192686Y-81900500D01*
X160306814Y-81966392D01*
X160434108Y-82000500D01*
X160434110Y-82000500D01*
X160565890Y-82000500D01*
X160565892Y-82000500D01*
X160693186Y-81966392D01*
X160807314Y-81900500D01*
X160900500Y-81807314D01*
X160966392Y-81693186D01*
X161000500Y-81565892D01*
X161000500Y-81434108D01*
X160966392Y-81306814D01*
X160900500Y-81192686D01*
X160807314Y-81099500D01*
X160750250Y-81066554D01*
X160693187Y-81033608D01*
X160629539Y-81016554D01*
X160565892Y-80999500D01*
X160434108Y-80999500D01*
X160306812Y-81033608D01*
X160192686Y-81099500D01*
X160192683Y-81099502D01*
X160099502Y-81192683D01*
X160099500Y-81192686D01*
X160033608Y-81306812D01*
X159999500Y-81434108D01*
X146702996Y-81434108D01*
X147650285Y-80486819D01*
X147711608Y-80453334D01*
X147737966Y-80450500D01*
X167285500Y-80450500D01*
X167352539Y-80470185D01*
X167398294Y-80522989D01*
X167409500Y-80574500D01*
X167409500Y-80603469D01*
X167449868Y-80806412D01*
X167449870Y-80806420D01*
X167529058Y-80997596D01*
X167644024Y-81169657D01*
X167790342Y-81315975D01*
X167790345Y-81315977D01*
X167962402Y-81430941D01*
X168153580Y-81510130D01*
X168298052Y-81538867D01*
X168356530Y-81550499D01*
X168356534Y-81550500D01*
X168356535Y-81550500D01*
X168563466Y-81550500D01*
X168563467Y-81550499D01*
X168766420Y-81510130D01*
X168957598Y-81430941D01*
X169129655Y-81315977D01*
X169275977Y-81169655D01*
X169390941Y-80997598D01*
X169470130Y-80806420D01*
X169510500Y-80603465D01*
X169510500Y-80396535D01*
X169470130Y-80193580D01*
X169390941Y-80002402D01*
X169275977Y-79830345D01*
X169275975Y-79830342D01*
X169129657Y-79684024D01*
X169049173Y-79630247D01*
X169949500Y-79630247D01*
X169949500Y-81369752D01*
X169961131Y-81428229D01*
X169961132Y-81428230D01*
X170005447Y-81494552D01*
X170071769Y-81538867D01*
X170071770Y-81538868D01*
X170130247Y-81550499D01*
X170130250Y-81550500D01*
X170130252Y-81550500D01*
X171869750Y-81550500D01*
X171869751Y-81550499D01*
X171884568Y-81547552D01*
X171928229Y-81538868D01*
X171928229Y-81538867D01*
X171928231Y-81538867D01*
X171994552Y-81494552D01*
X172038867Y-81428231D01*
X172038867Y-81428229D01*
X172038868Y-81428229D01*
X172050499Y-81369752D01*
X172050500Y-81369750D01*
X172050500Y-79630249D01*
X172050499Y-79630247D01*
X172038868Y-79571770D01*
X172038867Y-79571769D01*
X171994552Y-79505447D01*
X171928230Y-79461132D01*
X171928229Y-79461131D01*
X171869752Y-79449500D01*
X171869748Y-79449500D01*
X170130252Y-79449500D01*
X170130247Y-79449500D01*
X170071770Y-79461131D01*
X170071769Y-79461132D01*
X170005447Y-79505447D01*
X169961132Y-79571769D01*
X169961131Y-79571770D01*
X169949500Y-79630247D01*
X169049173Y-79630247D01*
X169043626Y-79626541D01*
X168957598Y-79569059D01*
X168766420Y-79489870D01*
X168766412Y-79489868D01*
X168563469Y-79449500D01*
X168563465Y-79449500D01*
X168356535Y-79449500D01*
X168356530Y-79449500D01*
X168153587Y-79489868D01*
X168153579Y-79489870D01*
X168032409Y-79540061D01*
X167984956Y-79549500D01*
X147440691Y-79549500D01*
X147350325Y-79573713D01*
X147350324Y-79573712D01*
X147326115Y-79580200D01*
X147326106Y-79580204D01*
X147223392Y-79639505D01*
X147223384Y-79639511D01*
X142139513Y-84723383D01*
X142139509Y-84723389D01*
X142080201Y-84826112D01*
X142080200Y-84826117D01*
X142049500Y-84940691D01*
X142049500Y-86542324D01*
X142029815Y-86609363D01*
X141977011Y-86655118D01*
X141907853Y-86665062D01*
X141844297Y-86636037D01*
X141837819Y-86630005D01*
X141807316Y-86599502D01*
X141807314Y-86599500D01*
X141750250Y-86566554D01*
X141693187Y-86533608D01*
X141629539Y-86516554D01*
X141565892Y-86499500D01*
X141434108Y-86499500D01*
X141306812Y-86533608D01*
X141192686Y-86599500D01*
X141192683Y-86599502D01*
X141099502Y-86692683D01*
X141099500Y-86692686D01*
X141033608Y-86806812D01*
X140999500Y-86934108D01*
X140650500Y-86934108D01*
X140650500Y-77284276D01*
X140670185Y-77217237D01*
X140722989Y-77171482D01*
X140789876Y-77161234D01*
X147500000Y-78000000D01*
G37*
%TD.AperFunction*%
%TD*%
M02*
