%TF.GenerationSoftware,KiCad,Pcbnew,10.0.2*%
%TF.CreationDate,2026-05-30T16:51:19-05:00*%
%TF.ProjectId,OM-FlexGrid-Rigid-PCB,4f4d2d46-6c65-4784-9772-69642d526967,rev?*%
%TF.SameCoordinates,Original*%
%TF.FileFunction,Legend,Top*%
%TF.FilePolarity,Positive*%
%FSLAX46Y46*%
G04 Gerber Fmt 4.6, Leading zero omitted, Abs format (unit mm)*
G04 Created by KiCad (PCBNEW 10.0.2) date 2026-05-30 16:51:19*
%MOMM*%
%LPD*%
G01*
G04 APERTURE LIST*
%ADD10C,0.000000*%
%ADD11C,0.150000*%
%ADD12C,0.254000*%
%ADD13C,0.101600*%
%ADD14C,0.120000*%
%ADD15C,0.100000*%
%ADD16C,0.200000*%
G04 APERTURE END LIST*
D10*
G36*
X155188160Y-115240549D02*
G01*
X154413593Y-115240549D01*
X154413593Y-115616919D01*
X155077697Y-115616919D01*
X155077697Y-116003211D01*
X154413593Y-116003211D01*
X154413593Y-116401409D01*
X155188160Y-116401409D01*
X155188160Y-116786378D01*
X154026640Y-116786378D01*
X154026640Y-114859550D01*
X155188160Y-114859550D01*
X155188160Y-115240549D01*
G37*
G36*
X153166452Y-114860401D02*
G01*
X153200772Y-114862928D01*
X153234602Y-114867088D01*
X153267900Y-114872841D01*
X153300623Y-114880143D01*
X153332726Y-114888955D01*
X153364168Y-114899233D01*
X153394905Y-114910937D01*
X153424895Y-114924024D01*
X153454092Y-114938453D01*
X153482456Y-114954182D01*
X153509942Y-114971171D01*
X153536508Y-114989376D01*
X153562110Y-115008756D01*
X153586706Y-115029270D01*
X153610252Y-115050876D01*
X153632704Y-115073533D01*
X153654021Y-115097198D01*
X153674158Y-115121830D01*
X153693073Y-115147387D01*
X153710723Y-115173828D01*
X153727064Y-115201111D01*
X153742054Y-115229195D01*
X153755648Y-115258037D01*
X153767805Y-115287596D01*
X153778481Y-115317830D01*
X153787633Y-115348698D01*
X153795217Y-115380159D01*
X153801191Y-115412169D01*
X153805512Y-115444688D01*
X153808136Y-115477674D01*
X153809020Y-115511086D01*
X153808134Y-115544490D01*
X153805504Y-115577454D01*
X153801175Y-115609938D01*
X153795190Y-115641900D01*
X153787592Y-115673300D01*
X153778424Y-115704097D01*
X153767731Y-115734252D01*
X153755555Y-115763722D01*
X153741941Y-115792467D01*
X153726931Y-115820447D01*
X153710569Y-115847621D01*
X153692899Y-115873948D01*
X153673964Y-115899387D01*
X153653807Y-115923898D01*
X153632473Y-115947440D01*
X153610004Y-115969973D01*
X153586443Y-115991455D01*
X153561836Y-116011846D01*
X153536224Y-116031106D01*
X153509652Y-116049193D01*
X153482162Y-116066067D01*
X153453799Y-116081687D01*
X153424606Y-116096013D01*
X153394627Y-116109003D01*
X153363904Y-116120618D01*
X153332481Y-116130816D01*
X153300402Y-116139556D01*
X153267711Y-116146799D01*
X153234450Y-116152503D01*
X153200663Y-116156628D01*
X153166394Y-116159133D01*
X153131687Y-116159977D01*
X152842629Y-116159977D01*
X152842629Y-116786378D01*
X152455676Y-116786378D01*
X152455676Y-115776331D01*
X152455676Y-115243195D01*
X152841968Y-115243195D01*
X152841968Y-115776331D01*
X153131025Y-115777654D01*
X153145942Y-115777420D01*
X153160665Y-115776483D01*
X153175178Y-115774860D01*
X153189461Y-115772569D01*
X153203496Y-115769626D01*
X153217264Y-115766050D01*
X153230747Y-115761857D01*
X153243928Y-115757066D01*
X153256786Y-115751693D01*
X153269305Y-115745756D01*
X153281465Y-115739273D01*
X153293248Y-115732261D01*
X153304635Y-115724737D01*
X153315609Y-115716719D01*
X153326151Y-115708225D01*
X153336242Y-115699271D01*
X153345865Y-115689875D01*
X153355000Y-115680055D01*
X153363629Y-115669828D01*
X153371734Y-115659211D01*
X153379296Y-115648223D01*
X153386297Y-115636879D01*
X153392719Y-115625199D01*
X153398543Y-115613199D01*
X153403751Y-115600896D01*
X153408324Y-115588309D01*
X153412245Y-115575454D01*
X153415493Y-115562349D01*
X153418052Y-115549012D01*
X153419903Y-115535459D01*
X153421026Y-115521709D01*
X153421405Y-115507779D01*
X153421405Y-115507117D01*
X153421026Y-115493557D01*
X153419903Y-115480172D01*
X153418052Y-115466980D01*
X153415493Y-115453996D01*
X153412245Y-115441239D01*
X153408324Y-115428724D01*
X153403751Y-115416468D01*
X153398543Y-115404488D01*
X153392719Y-115392800D01*
X153386297Y-115381422D01*
X153379296Y-115370370D01*
X153371734Y-115359661D01*
X153363629Y-115349311D01*
X153355000Y-115339338D01*
X153345865Y-115329757D01*
X153336242Y-115320586D01*
X153326151Y-115311841D01*
X153315609Y-115303540D01*
X153304635Y-115295698D01*
X153293248Y-115288332D01*
X153281465Y-115281460D01*
X153269305Y-115275097D01*
X153256786Y-115269262D01*
X153243928Y-115263969D01*
X153230747Y-115259237D01*
X153217264Y-115255081D01*
X153203496Y-115251519D01*
X153189461Y-115248567D01*
X153175178Y-115246242D01*
X153160665Y-115244561D01*
X153145942Y-115243539D01*
X153131025Y-115243195D01*
X152841968Y-115243195D01*
X152455676Y-115243195D01*
X152455676Y-114859550D01*
X153131686Y-114859550D01*
X153166452Y-114860401D01*
G37*
G36*
X156632785Y-115933096D02*
G01*
X156632785Y-114854258D01*
X157021061Y-114854258D01*
X157021061Y-116821435D01*
X157003202Y-116821435D01*
X155859540Y-115708862D01*
X155859540Y-116787700D01*
X155472588Y-116787700D01*
X155472588Y-114823169D01*
X155491770Y-114823169D01*
X156632785Y-115933096D01*
G37*
G36*
X151252186Y-114821175D02*
G01*
X151302843Y-114825071D01*
X151352798Y-114831485D01*
X151401983Y-114840354D01*
X151450336Y-114851614D01*
X151497790Y-114865199D01*
X151544281Y-114881047D01*
X151589744Y-114899092D01*
X151634115Y-114919271D01*
X151677327Y-114941520D01*
X151719317Y-114965773D01*
X151760018Y-114991968D01*
X151799367Y-115020039D01*
X151837299Y-115049923D01*
X151873748Y-115081556D01*
X151908650Y-115114872D01*
X151941940Y-115149809D01*
X151973552Y-115186302D01*
X152003422Y-115224286D01*
X152031485Y-115263698D01*
X152057676Y-115304473D01*
X152081930Y-115346547D01*
X152104183Y-115389856D01*
X152124368Y-115434336D01*
X152142422Y-115479922D01*
X152158280Y-115526551D01*
X152171875Y-115574158D01*
X152183145Y-115622679D01*
X152192023Y-115672049D01*
X152198445Y-115722205D01*
X152202346Y-115773083D01*
X152203660Y-115824617D01*
X152202348Y-115876133D01*
X152198452Y-115926955D01*
X152192038Y-115977022D01*
X152183169Y-116026271D01*
X152171911Y-116074642D01*
X152158327Y-116122073D01*
X152142482Y-116168501D01*
X152124441Y-116213865D01*
X152104266Y-116258103D01*
X152082023Y-116301153D01*
X152057776Y-116342954D01*
X152031590Y-116383443D01*
X152003528Y-116422560D01*
X151973655Y-116460242D01*
X151942035Y-116496427D01*
X151908733Y-116531055D01*
X151873812Y-116564062D01*
X151837338Y-116595387D01*
X151799375Y-116624968D01*
X151759986Y-116652745D01*
X151719236Y-116678654D01*
X151677190Y-116702634D01*
X151633912Y-116724624D01*
X151589465Y-116744561D01*
X151543915Y-116762384D01*
X151497326Y-116778031D01*
X151449762Y-116791440D01*
X151401287Y-116802550D01*
X151351966Y-116811298D01*
X151301862Y-116817623D01*
X151251041Y-116821464D01*
X151199567Y-116822758D01*
X151148104Y-116821452D01*
X151097316Y-116817580D01*
X151047266Y-116811203D01*
X150998017Y-116802387D01*
X150949632Y-116791195D01*
X150902174Y-116777691D01*
X150855705Y-116761939D01*
X150810288Y-116744003D01*
X150765987Y-116723947D01*
X150722864Y-116701835D01*
X150680982Y-116677731D01*
X150640403Y-116651698D01*
X150601192Y-116623802D01*
X150563409Y-116594105D01*
X150527120Y-116562672D01*
X150492385Y-116529566D01*
X150459269Y-116494852D01*
X150427833Y-116458594D01*
X150398142Y-116420855D01*
X150370257Y-116381699D01*
X150344242Y-116341191D01*
X150320159Y-116299394D01*
X150298071Y-116256373D01*
X150278042Y-116212190D01*
X150260133Y-116166911D01*
X150244409Y-116120599D01*
X150230931Y-116073318D01*
X150219762Y-116025132D01*
X150210966Y-115976105D01*
X150204606Y-115926301D01*
X150200743Y-115875784D01*
X150199442Y-115824617D01*
X150199492Y-115822633D01*
X150590364Y-115822633D01*
X150591159Y-115854059D01*
X150593521Y-115885059D01*
X150597409Y-115915598D01*
X150602785Y-115945636D01*
X150609611Y-115975136D01*
X150617846Y-116004061D01*
X150627453Y-116032373D01*
X150638392Y-116060034D01*
X150650624Y-116087008D01*
X150664112Y-116113256D01*
X150678815Y-116138741D01*
X150694694Y-116163426D01*
X150711712Y-116187272D01*
X150729829Y-116210243D01*
X150749007Y-116232301D01*
X150769205Y-116253407D01*
X150790387Y-116273526D01*
X150812511Y-116292619D01*
X150835541Y-116310648D01*
X150859436Y-116327576D01*
X150884159Y-116343366D01*
X150909669Y-116357980D01*
X150935929Y-116371380D01*
X150962899Y-116383529D01*
X150990541Y-116394389D01*
X151018815Y-116403923D01*
X151047683Y-116412094D01*
X151077105Y-116418863D01*
X151107044Y-116424193D01*
X151137460Y-116428046D01*
X151168313Y-116430386D01*
X151199567Y-116431175D01*
X151230828Y-116430379D01*
X151261704Y-116428017D01*
X151292155Y-116424130D01*
X151322142Y-116418754D01*
X151351624Y-116411930D01*
X151380563Y-116403697D01*
X151408917Y-116394092D01*
X151436648Y-116383157D01*
X151463715Y-116370929D01*
X151490078Y-116357447D01*
X151515698Y-116342750D01*
X151540534Y-116326879D01*
X151564548Y-116309870D01*
X151587698Y-116291764D01*
X151609946Y-116272600D01*
X151631251Y-116252415D01*
X151651573Y-116231251D01*
X151670874Y-116209144D01*
X151689112Y-116186136D01*
X151706248Y-116162263D01*
X151722242Y-116137566D01*
X151737054Y-116112084D01*
X151750645Y-116085855D01*
X151762974Y-116058918D01*
X151774002Y-116031313D01*
X151783689Y-116003078D01*
X151791995Y-115974253D01*
X151798880Y-115944876D01*
X151804305Y-115914987D01*
X151808229Y-115884624D01*
X151810612Y-115853826D01*
X151811416Y-115822633D01*
X151812077Y-115822633D01*
X151811278Y-115791256D01*
X151808905Y-115760278D01*
X151804998Y-115729739D01*
X151799596Y-115699678D01*
X151792738Y-115670133D01*
X151784464Y-115641145D01*
X151774812Y-115612752D01*
X151763822Y-115584994D01*
X151751532Y-115557908D01*
X151737982Y-115531535D01*
X151723211Y-115505914D01*
X151707258Y-115481084D01*
X151690162Y-115457083D01*
X151671962Y-115433952D01*
X151652698Y-115411729D01*
X151632409Y-115390452D01*
X151611132Y-115370163D01*
X151588909Y-115350898D01*
X151565778Y-115332699D01*
X151541777Y-115315603D01*
X151516947Y-115299650D01*
X151491326Y-115284879D01*
X151464953Y-115271329D01*
X151437867Y-115259039D01*
X151410109Y-115248049D01*
X151381716Y-115238397D01*
X151352727Y-115230123D01*
X151323183Y-115223265D01*
X151293122Y-115217863D01*
X151262583Y-115213956D01*
X151231605Y-115211583D01*
X151200228Y-115210784D01*
X151168857Y-115211582D01*
X151137896Y-115213949D01*
X151107383Y-115217847D01*
X151077358Y-115223238D01*
X151047859Y-115230082D01*
X151018924Y-115238340D01*
X150990591Y-115247975D01*
X150962899Y-115258946D01*
X150935886Y-115271216D01*
X150909591Y-115284746D01*
X150884052Y-115299496D01*
X150859307Y-115315429D01*
X150835395Y-115332504D01*
X150812354Y-115350685D01*
X150790223Y-115369931D01*
X150769040Y-115390204D01*
X150748843Y-115411466D01*
X150729671Y-115433677D01*
X150711562Y-115456799D01*
X150694555Y-115480793D01*
X150678688Y-115505621D01*
X150663999Y-115531242D01*
X150650526Y-115557620D01*
X150638309Y-115584715D01*
X150627385Y-115612487D01*
X150617794Y-115640900D01*
X150609572Y-115669913D01*
X150602760Y-115699488D01*
X150597394Y-115729586D01*
X150593514Y-115760169D01*
X150591158Y-115791197D01*
X150590364Y-115822633D01*
X150199492Y-115822633D01*
X150200753Y-115773083D01*
X150204642Y-115722205D01*
X150211047Y-115672049D01*
X150219901Y-115622679D01*
X150231140Y-115574158D01*
X150244701Y-115526551D01*
X150260518Y-115479922D01*
X150278527Y-115434336D01*
X150298665Y-115389856D01*
X150320865Y-115346547D01*
X150345065Y-115304473D01*
X150371199Y-115263698D01*
X150399203Y-115224286D01*
X150429012Y-115186302D01*
X150460563Y-115149809D01*
X150493791Y-115114872D01*
X150528631Y-115081556D01*
X150565018Y-115049923D01*
X150602889Y-115020039D01*
X150642180Y-114991968D01*
X150682824Y-114965773D01*
X150724759Y-114941520D01*
X150767920Y-114919271D01*
X150812242Y-114899092D01*
X150857660Y-114881047D01*
X150904111Y-114865199D01*
X150951530Y-114851614D01*
X150999853Y-114840354D01*
X151049015Y-114831485D01*
X151098951Y-114825071D01*
X151149597Y-114821175D01*
X151200890Y-114819862D01*
X151252186Y-114821175D01*
G37*
G36*
X160252285Y-117879768D02*
G01*
X159477716Y-117879768D01*
X159477716Y-118057701D01*
X160141820Y-118057701D01*
X160141820Y-118642429D01*
X159477716Y-118642429D01*
X159477716Y-118842190D01*
X160252285Y-118842190D01*
X160252285Y-119424935D01*
X158892326Y-119424935D01*
X158892326Y-119226497D01*
X159090764Y-119226497D01*
X160053847Y-119226497D01*
X160053847Y-119039966D01*
X159279279Y-119039966D01*
X159279279Y-118443331D01*
X159943383Y-118443331D01*
X159943383Y-118255477D01*
X159279279Y-118255477D01*
X159279279Y-117680669D01*
X160053847Y-117680669D01*
X160053847Y-117498107D01*
X159090764Y-117498107D01*
X159090764Y-119225836D01*
X159090764Y-119226497D01*
X158892326Y-119226497D01*
X158892326Y-119225836D01*
X158892326Y-117300331D01*
X160252285Y-117300331D01*
X160252285Y-117879768D01*
G37*
G36*
X151227348Y-118454576D02*
G01*
X152097827Y-117252045D01*
X152269145Y-117252045D01*
X152269145Y-119424935D01*
X151684416Y-119424935D01*
X151684416Y-118806471D01*
X151281587Y-119392523D01*
X151177077Y-119392523D01*
X151145327Y-119349528D01*
X150770280Y-118805810D01*
X150770280Y-119424935D01*
X150184228Y-119424935D01*
X150184228Y-119226497D01*
X150184228Y-117627752D01*
X150382666Y-117627752D01*
X150382666Y-119226497D01*
X150571181Y-119226497D01*
X150571181Y-118168164D01*
X151227348Y-119120664D01*
X151882192Y-118167503D01*
X151882192Y-119226497D01*
X152070707Y-119226497D01*
X152070707Y-117627753D01*
X151227348Y-118793243D01*
X150382666Y-117627752D01*
X150184228Y-117627752D01*
X150184228Y-117252045D01*
X150355546Y-117252045D01*
X151227348Y-118454576D01*
G37*
G36*
X156770618Y-117262619D02*
G01*
X156821217Y-117267058D01*
X156871225Y-117273955D01*
X156920633Y-117283308D01*
X156969433Y-117295115D01*
X157017616Y-117309373D01*
X157065173Y-117326078D01*
X157112095Y-117345227D01*
X157158373Y-117366818D01*
X157204000Y-117390848D01*
X157248966Y-117417314D01*
X157293262Y-117446213D01*
X157336880Y-117477542D01*
X157379811Y-117511298D01*
X157422046Y-117547479D01*
X157463577Y-117586081D01*
X157513187Y-117634107D01*
X157513187Y-117498107D01*
X157711624Y-117498107D01*
X157711624Y-119225836D01*
X157711624Y-119226497D01*
X158674707Y-119226497D01*
X158674707Y-119039966D01*
X157900140Y-119039966D01*
X157900140Y-117498107D01*
X157711624Y-117498107D01*
X157513187Y-117498107D01*
X157513187Y-117300331D01*
X158098577Y-117300331D01*
X158098577Y-118842190D01*
X158873145Y-118842190D01*
X158873145Y-119424935D01*
X157513187Y-119424935D01*
X157513187Y-119226497D01*
X157513187Y-119089575D01*
X157464239Y-119138523D01*
X157422303Y-119178571D01*
X157380050Y-119215880D01*
X157337430Y-119250473D01*
X157294389Y-119282370D01*
X157250875Y-119311592D01*
X157206836Y-119338162D01*
X157162220Y-119362100D01*
X157116973Y-119383428D01*
X157071045Y-119402167D01*
X157024382Y-119418338D01*
X156976933Y-119431963D01*
X156928644Y-119443063D01*
X156879464Y-119451659D01*
X156829340Y-119457773D01*
X156778220Y-119461425D01*
X156726052Y-119462638D01*
X156726712Y-119461976D01*
X156669822Y-119460544D01*
X156613673Y-119456294D01*
X156558333Y-119449296D01*
X156503874Y-119439620D01*
X156450365Y-119427334D01*
X156397876Y-119412510D01*
X156346477Y-119395216D01*
X156296237Y-119375522D01*
X156247227Y-119353497D01*
X156199516Y-119329212D01*
X156153175Y-119302736D01*
X156108273Y-119274139D01*
X156064880Y-119243490D01*
X156023066Y-119210859D01*
X155982901Y-119176315D01*
X155944455Y-119139929D01*
X155907797Y-119101769D01*
X155872998Y-119061906D01*
X155840128Y-119020409D01*
X155809255Y-118977348D01*
X155780451Y-118932793D01*
X155753785Y-118886812D01*
X155729327Y-118839476D01*
X155707146Y-118790854D01*
X155687314Y-118741017D01*
X155669899Y-118690033D01*
X155654971Y-118637972D01*
X155642601Y-118584905D01*
X155632858Y-118530899D01*
X155625813Y-118476026D01*
X155621534Y-118420355D01*
X155620092Y-118363956D01*
X155818531Y-118363956D01*
X155819739Y-118409718D01*
X155823323Y-118454940D01*
X155829221Y-118499562D01*
X155837369Y-118543523D01*
X155847707Y-118586765D01*
X155860170Y-118629227D01*
X155874699Y-118670850D01*
X155891229Y-118711573D01*
X155909699Y-118751336D01*
X155930047Y-118790081D01*
X155952210Y-118827747D01*
X155976126Y-118864274D01*
X156001732Y-118899602D01*
X156028968Y-118933672D01*
X156057769Y-118966424D01*
X156088075Y-118997798D01*
X156119822Y-119027734D01*
X156152949Y-119056172D01*
X156187393Y-119083053D01*
X156223092Y-119108316D01*
X156259984Y-119131902D01*
X156298007Y-119153751D01*
X156337097Y-119173803D01*
X156377194Y-119191998D01*
X156418234Y-119208277D01*
X156460156Y-119222579D01*
X156502897Y-119234845D01*
X156546396Y-119245016D01*
X156590588Y-119253030D01*
X156635414Y-119258828D01*
X156680809Y-119262351D01*
X156726713Y-119263539D01*
X156764392Y-119262776D01*
X156801312Y-119260472D01*
X156837516Y-119256606D01*
X156873050Y-119251157D01*
X156907961Y-119244104D01*
X156942293Y-119235424D01*
X156976092Y-119225098D01*
X157009404Y-119213103D01*
X157042274Y-119199418D01*
X157074747Y-119184022D01*
X157106870Y-119166893D01*
X157138688Y-119148011D01*
X157170246Y-119127354D01*
X157201590Y-119104900D01*
X157232765Y-119080628D01*
X157263817Y-119054518D01*
X157156000Y-118902382D01*
X157129273Y-118923055D01*
X157102424Y-118942409D01*
X157075455Y-118960440D01*
X157048368Y-118977148D01*
X157021164Y-118992530D01*
X156993847Y-119006585D01*
X156966417Y-119019311D01*
X156938876Y-119030705D01*
X156911227Y-119040766D01*
X156883471Y-119049492D01*
X156855611Y-119056881D01*
X156827648Y-119062931D01*
X156799584Y-119067639D01*
X156771421Y-119071005D01*
X156743162Y-119073026D01*
X156714807Y-119073700D01*
X156683577Y-119072854D01*
X156652198Y-119070337D01*
X156620743Y-119066178D01*
X156589288Y-119060408D01*
X156557907Y-119053055D01*
X156526676Y-119044151D01*
X156495669Y-119033725D01*
X156464962Y-119021807D01*
X156434628Y-119008426D01*
X156404744Y-118993614D01*
X156375383Y-118977399D01*
X156346620Y-118959812D01*
X156318531Y-118940882D01*
X156291191Y-118920640D01*
X156264673Y-118899115D01*
X156239053Y-118876338D01*
X156214406Y-118852337D01*
X156190807Y-118827144D01*
X156168330Y-118800788D01*
X156147051Y-118773299D01*
X156127044Y-118744706D01*
X156108384Y-118715041D01*
X156091146Y-118684332D01*
X156075404Y-118652610D01*
X156061234Y-118619904D01*
X156048711Y-118586245D01*
X156037909Y-118551662D01*
X156028903Y-118516185D01*
X156021768Y-118479845D01*
X156016579Y-118442670D01*
X156013411Y-118404692D01*
X156012356Y-118366602D01*
X156210114Y-118366602D01*
X156210884Y-118393669D01*
X156213158Y-118420284D01*
X156216883Y-118446419D01*
X156222004Y-118472047D01*
X156228469Y-118497143D01*
X156236222Y-118521679D01*
X156245211Y-118545629D01*
X156255382Y-118568967D01*
X156266680Y-118591664D01*
X156279053Y-118613696D01*
X156292446Y-118635035D01*
X156306805Y-118655654D01*
X156322077Y-118675527D01*
X156338208Y-118694628D01*
X156355145Y-118712929D01*
X156372832Y-118730404D01*
X156391217Y-118747026D01*
X156410247Y-118762769D01*
X156429866Y-118777607D01*
X156450021Y-118791511D01*
X156470659Y-118804457D01*
X156491726Y-118816416D01*
X156513168Y-118827363D01*
X156534931Y-118837271D01*
X156556961Y-118846113D01*
X156579205Y-118853862D01*
X156601609Y-118860492D01*
X156624119Y-118865977D01*
X156646682Y-118870289D01*
X156669243Y-118873402D01*
X156691748Y-118875290D01*
X156714145Y-118875925D01*
X156738424Y-118875187D01*
X156762652Y-118872973D01*
X156786840Y-118869275D01*
X156810997Y-118864091D01*
X156835135Y-118857414D01*
X156859264Y-118849240D01*
X156883395Y-118839565D01*
X156907539Y-118828382D01*
X156931706Y-118815688D01*
X156955907Y-118801478D01*
X156980152Y-118785747D01*
X157004453Y-118768489D01*
X157028820Y-118749701D01*
X157053263Y-118729377D01*
X157077793Y-118707512D01*
X157102421Y-118684101D01*
X157185765Y-118602742D01*
X157513187Y-119064080D01*
X157513187Y-117663401D01*
X157183119Y-118113263D01*
X157101098Y-118033227D01*
X157078491Y-118011811D01*
X157055580Y-117991720D01*
X157032389Y-117972963D01*
X157008938Y-117955547D01*
X156985252Y-117939479D01*
X156961351Y-117924768D01*
X156937258Y-117911421D01*
X156912996Y-117899447D01*
X156888586Y-117888852D01*
X156864052Y-117879644D01*
X156839414Y-117871832D01*
X156814697Y-117865423D01*
X156789921Y-117860424D01*
X156765109Y-117856845D01*
X156740284Y-117854691D01*
X156715467Y-117853971D01*
X156690739Y-117854680D01*
X156666190Y-117856778D01*
X156641860Y-117860226D01*
X156617789Y-117864984D01*
X156594016Y-117871010D01*
X156570581Y-117878266D01*
X156547524Y-117886711D01*
X156524885Y-117896305D01*
X156502703Y-117907007D01*
X156481018Y-117918777D01*
X156459870Y-117931575D01*
X156439298Y-117945361D01*
X156419343Y-117960095D01*
X156400044Y-117975736D01*
X156381440Y-117992244D01*
X156363572Y-118009579D01*
X156346479Y-118027701D01*
X156330200Y-118046570D01*
X156314777Y-118066145D01*
X156300248Y-118086386D01*
X156286652Y-118107253D01*
X156274031Y-118128706D01*
X156262423Y-118150704D01*
X156251868Y-118173208D01*
X156242406Y-118196176D01*
X156234077Y-118219570D01*
X156226920Y-118243348D01*
X156220976Y-118267471D01*
X156216283Y-118291898D01*
X156212882Y-118316588D01*
X156210812Y-118341503D01*
X156210114Y-118366602D01*
X156012356Y-118366602D01*
X156012338Y-118365940D01*
X156013293Y-118330553D01*
X156016122Y-118295494D01*
X156020774Y-118260815D01*
X156027196Y-118226567D01*
X156035339Y-118192803D01*
X156045149Y-118159576D01*
X156056575Y-118126937D01*
X156069565Y-118094938D01*
X156084067Y-118063632D01*
X156100031Y-118033072D01*
X156117403Y-118003308D01*
X156136133Y-117974394D01*
X156156168Y-117946381D01*
X156177458Y-117919322D01*
X156199949Y-117893270D01*
X156223591Y-117868275D01*
X156248332Y-117844391D01*
X156274120Y-117821669D01*
X156300903Y-117800162D01*
X156328630Y-117779923D01*
X156357249Y-117761002D01*
X156386708Y-117743453D01*
X156416955Y-117727327D01*
X156447939Y-117712677D01*
X156479609Y-117699555D01*
X156511911Y-117688014D01*
X156544795Y-117678105D01*
X156578209Y-117669880D01*
X156612101Y-117663392D01*
X156646420Y-117658694D01*
X156681113Y-117655836D01*
X156716130Y-117654872D01*
X156744745Y-117655522D01*
X156773283Y-117657466D01*
X156801725Y-117660697D01*
X156830056Y-117665207D01*
X156858258Y-117670989D01*
X156886317Y-117678033D01*
X156914215Y-117686334D01*
X156941935Y-117695882D01*
X156969462Y-117706671D01*
X156996778Y-117718692D01*
X157023868Y-117731938D01*
X157050714Y-117746401D01*
X157077301Y-117762073D01*
X157103611Y-117778947D01*
X157129629Y-117797014D01*
X157155338Y-117816268D01*
X157261833Y-117670747D01*
X157230437Y-117645399D01*
X157198751Y-117621689D01*
X157166763Y-117599613D01*
X157134461Y-117579166D01*
X157101833Y-117560343D01*
X157068868Y-117543138D01*
X157035554Y-117527548D01*
X157001880Y-117513568D01*
X156967833Y-117501192D01*
X156933403Y-117490415D01*
X156898578Y-117481234D01*
X156863345Y-117473643D01*
X156827695Y-117467636D01*
X156791613Y-117463210D01*
X156755090Y-117460360D01*
X156718114Y-117459080D01*
X156718114Y-117459081D01*
X156718113Y-117459081D01*
X156672700Y-117460284D01*
X156627783Y-117463851D01*
X156583424Y-117469721D01*
X156539685Y-117477832D01*
X156496628Y-117488122D01*
X156454316Y-117500529D01*
X156412809Y-117514992D01*
X156372171Y-117531448D01*
X156332463Y-117549837D01*
X156293747Y-117570096D01*
X156256085Y-117592164D01*
X156219539Y-117615978D01*
X156184172Y-117641478D01*
X156150045Y-117668600D01*
X156117220Y-117697284D01*
X156085760Y-117727468D01*
X156055725Y-117759089D01*
X156027179Y-117792087D01*
X156000183Y-117826399D01*
X155974800Y-117861963D01*
X155951091Y-117898719D01*
X155929118Y-117936603D01*
X155908944Y-117975555D01*
X155890629Y-118015512D01*
X155874238Y-118056413D01*
X155859830Y-118098196D01*
X155847469Y-118140799D01*
X155837217Y-118184160D01*
X155829135Y-118228219D01*
X155823285Y-118272912D01*
X155819729Y-118318178D01*
X155818531Y-118363956D01*
X155620092Y-118363956D01*
X155621555Y-118307541D01*
X155625891Y-118251825D01*
X155633026Y-118196881D01*
X155642886Y-118142779D01*
X155655393Y-118089592D01*
X155670474Y-118037390D01*
X155688054Y-117986245D01*
X155708056Y-117936230D01*
X155730406Y-117887415D01*
X155755028Y-117839872D01*
X155781848Y-117793673D01*
X155810790Y-117748889D01*
X155841779Y-117705591D01*
X155874739Y-117663853D01*
X155909596Y-117623744D01*
X155946274Y-117585337D01*
X155984698Y-117548702D01*
X156024793Y-117513913D01*
X156066483Y-117481040D01*
X156109694Y-117450155D01*
X156154350Y-117421329D01*
X156200376Y-117394634D01*
X156247697Y-117370142D01*
X156296237Y-117347925D01*
X156345922Y-117328053D01*
X156396675Y-117310598D01*
X156448423Y-117295632D01*
X156501089Y-117283227D01*
X156554599Y-117273454D01*
X156608877Y-117266385D01*
X156663847Y-117262090D01*
X156719436Y-117260643D01*
X156770618Y-117262619D01*
G37*
G36*
X154988531Y-117261708D02*
G01*
X155046167Y-117266852D01*
X155101684Y-117275356D01*
X155154993Y-117287163D01*
X155206004Y-117302219D01*
X155254627Y-117320466D01*
X155300771Y-117341849D01*
X155344346Y-117366311D01*
X155385263Y-117393796D01*
X155423430Y-117424248D01*
X155458759Y-117457611D01*
X155491159Y-117493828D01*
X155520539Y-117532843D01*
X155546810Y-117574601D01*
X155569882Y-117619044D01*
X155589664Y-117666117D01*
X155616785Y-117738216D01*
X155173607Y-118047778D01*
X155122014Y-117945253D01*
X155117546Y-117936799D01*
X155112834Y-117928796D01*
X155107893Y-117921230D01*
X155102739Y-117914089D01*
X155097387Y-117907362D01*
X155091853Y-117901037D01*
X155086153Y-117895102D01*
X155080301Y-117889545D01*
X155074314Y-117884355D01*
X155068206Y-117879518D01*
X155061994Y-117875025D01*
X155055693Y-117870862D01*
X155049318Y-117867017D01*
X155042885Y-117863480D01*
X155029906Y-117857278D01*
X155016881Y-117852162D01*
X155003933Y-117848036D01*
X154991187Y-117844805D01*
X154978767Y-117842375D01*
X154966796Y-117840650D01*
X154955399Y-117839535D01*
X154944699Y-117838936D01*
X154934821Y-117838758D01*
X154917517Y-117839316D01*
X154901098Y-117840928D01*
X154885596Y-117843502D01*
X154871042Y-117846943D01*
X154857469Y-117851160D01*
X154844908Y-117856059D01*
X154833392Y-117861547D01*
X154822952Y-117867531D01*
X154813621Y-117873918D01*
X154805430Y-117880616D01*
X154798411Y-117887530D01*
X154792597Y-117894568D01*
X154788020Y-117901638D01*
X154784710Y-117908645D01*
X154782701Y-117915497D01*
X154782194Y-117918836D01*
X154782024Y-117922101D01*
X154782312Y-117924932D01*
X154783162Y-117927842D01*
X154784557Y-117930827D01*
X154786476Y-117933886D01*
X154788903Y-117937016D01*
X154791817Y-117940214D01*
X154795201Y-117943477D01*
X154799036Y-117946803D01*
X154803303Y-117950189D01*
X154807984Y-117953632D01*
X154818511Y-117960680D01*
X154830468Y-117967926D01*
X154843705Y-117975349D01*
X154858075Y-117982926D01*
X154873427Y-117990637D01*
X154889613Y-117998461D01*
X154906482Y-118006375D01*
X154941676Y-118022392D01*
X154977816Y-118038518D01*
X155032800Y-118063075D01*
X155061997Y-118076190D01*
X155092248Y-118090111D01*
X155148105Y-118117170D01*
X155203062Y-118145412D01*
X155256746Y-118175058D01*
X155308783Y-118206332D01*
X155358801Y-118239454D01*
X155406427Y-118274647D01*
X155451287Y-118312132D01*
X155493010Y-118352132D01*
X155512577Y-118373144D01*
X155531220Y-118394868D01*
X155548892Y-118417331D01*
X155565546Y-118440562D01*
X155581136Y-118464587D01*
X155595615Y-118489436D01*
X155608936Y-118515135D01*
X155621053Y-118541712D01*
X155631920Y-118569195D01*
X155641488Y-118597612D01*
X155649712Y-118626990D01*
X155656546Y-118657357D01*
X155661942Y-118688741D01*
X155665854Y-118721170D01*
X155668236Y-118754672D01*
X155669040Y-118789273D01*
X155668105Y-118826648D01*
X155665321Y-118863226D01*
X155660717Y-118898982D01*
X155654323Y-118933891D01*
X155646169Y-118967925D01*
X155636286Y-119001061D01*
X155624704Y-119033272D01*
X155611452Y-119064532D01*
X155596561Y-119094817D01*
X155580060Y-119124101D01*
X155561980Y-119152358D01*
X155542350Y-119179563D01*
X155521202Y-119205690D01*
X155498564Y-119230713D01*
X155474466Y-119254607D01*
X155448940Y-119277346D01*
X155422015Y-119298906D01*
X155393720Y-119319259D01*
X155364086Y-119338382D01*
X155333143Y-119356247D01*
X155300922Y-119372830D01*
X155267451Y-119388106D01*
X155232761Y-119402047D01*
X155196883Y-119414630D01*
X155159846Y-119425828D01*
X155121680Y-119435616D01*
X155082415Y-119443968D01*
X155042081Y-119450859D01*
X155000709Y-119456263D01*
X154958328Y-119460155D01*
X154914968Y-119462509D01*
X154870660Y-119463299D01*
X154869999Y-119463299D01*
X154806015Y-119461546D01*
X154743842Y-119456315D01*
X154683555Y-119447646D01*
X154625228Y-119435580D01*
X154568936Y-119420157D01*
X154514753Y-119401419D01*
X154462754Y-119379406D01*
X154413014Y-119354158D01*
X154365607Y-119325717D01*
X154320607Y-119294123D01*
X154278090Y-119259417D01*
X154238130Y-119221639D01*
X154200802Y-119180831D01*
X154166180Y-119137032D01*
X154134339Y-119090284D01*
X154105353Y-119040627D01*
X154094312Y-119020122D01*
X154326280Y-119020122D01*
X154349267Y-119049242D01*
X154373815Y-119076568D01*
X154399901Y-119102088D01*
X154427504Y-119125790D01*
X154456603Y-119147663D01*
X154487177Y-119167695D01*
X154519205Y-119185874D01*
X154552664Y-119202189D01*
X154587534Y-119216628D01*
X154623794Y-119229179D01*
X154661422Y-119239832D01*
X154700397Y-119248573D01*
X154740697Y-119255393D01*
X154782301Y-119260278D01*
X154825189Y-119263218D01*
X154869338Y-119264200D01*
X154936137Y-119262035D01*
X154999757Y-119255621D01*
X155060042Y-119245081D01*
X155116836Y-119230538D01*
X155143876Y-119221805D01*
X155169984Y-119212116D01*
X155195141Y-119201489D01*
X155219328Y-119189937D01*
X155242525Y-119177478D01*
X155264713Y-119164125D01*
X155285872Y-119149895D01*
X155305982Y-119134803D01*
X155325025Y-119118863D01*
X155342981Y-119102093D01*
X155359830Y-119084506D01*
X155375553Y-119066118D01*
X155390130Y-119046945D01*
X155403542Y-119027003D01*
X155415769Y-119006305D01*
X155426791Y-118984869D01*
X155436590Y-118962708D01*
X155445146Y-118939840D01*
X155452439Y-118916278D01*
X155458450Y-118892038D01*
X155463159Y-118867137D01*
X155466546Y-118841588D01*
X155468593Y-118815408D01*
X155469280Y-118788612D01*
X155468909Y-118768252D01*
X155467786Y-118748335D01*
X155465895Y-118728844D01*
X155463221Y-118709760D01*
X155459747Y-118691067D01*
X155455458Y-118672746D01*
X155450338Y-118654779D01*
X155444372Y-118637148D01*
X155437543Y-118619837D01*
X155429836Y-118602826D01*
X155421235Y-118586099D01*
X155411725Y-118569637D01*
X155401290Y-118553423D01*
X155389913Y-118537438D01*
X155377579Y-118521665D01*
X155364273Y-118506087D01*
X155349979Y-118490684D01*
X155334680Y-118475441D01*
X155318362Y-118460338D01*
X155301008Y-118445358D01*
X155282603Y-118430483D01*
X155263131Y-118415695D01*
X155220923Y-118386311D01*
X155174257Y-118357062D01*
X155123009Y-118327807D01*
X155067051Y-118298402D01*
X155006259Y-118268706D01*
X154977372Y-118255177D01*
X154949291Y-118242330D01*
X154895796Y-118218435D01*
X154831997Y-118189720D01*
X154801771Y-118175529D01*
X154772857Y-118161229D01*
X154745405Y-118146654D01*
X154719562Y-118131638D01*
X154695477Y-118116015D01*
X154673298Y-118099621D01*
X154653173Y-118082288D01*
X154635250Y-118063851D01*
X154627161Y-118054168D01*
X154619678Y-118044146D01*
X154612819Y-118033765D01*
X154606604Y-118023005D01*
X154601051Y-118011845D01*
X154596178Y-118000264D01*
X154592004Y-117988241D01*
X154588547Y-117975756D01*
X154585827Y-117962788D01*
X154583860Y-117949316D01*
X154582667Y-117935320D01*
X154582265Y-117920779D01*
X154582713Y-117906062D01*
X154584044Y-117891562D01*
X154586237Y-117877297D01*
X154589272Y-117863282D01*
X154593129Y-117849535D01*
X154597787Y-117836070D01*
X154603226Y-117822906D01*
X154609426Y-117810057D01*
X154616366Y-117797541D01*
X154624026Y-117785373D01*
X154632385Y-117773570D01*
X154641424Y-117762149D01*
X154651122Y-117751125D01*
X154661458Y-117740516D01*
X154672412Y-117730337D01*
X154683964Y-117720605D01*
X154696094Y-117711336D01*
X154708780Y-117702546D01*
X154722004Y-117694253D01*
X154735744Y-117686471D01*
X154749980Y-117679218D01*
X154764691Y-117672510D01*
X154779859Y-117666364D01*
X154795461Y-117660795D01*
X154811478Y-117655819D01*
X154827889Y-117651455D01*
X154844674Y-117647716D01*
X154861813Y-117644621D01*
X154879286Y-117642185D01*
X154897071Y-117640425D01*
X154915149Y-117639357D01*
X154933499Y-117638997D01*
X154955671Y-117639514D01*
X154977520Y-117641055D01*
X154999015Y-117643606D01*
X155020129Y-117647152D01*
X155040833Y-117651678D01*
X155061096Y-117657171D01*
X155080890Y-117663615D01*
X155100187Y-117670995D01*
X155118956Y-117679299D01*
X155137169Y-117688510D01*
X155154796Y-117698614D01*
X155171810Y-117709598D01*
X155188180Y-117721445D01*
X155203878Y-117734143D01*
X155218874Y-117747675D01*
X155233139Y-117762029D01*
X155369400Y-117666779D01*
X155359055Y-117650350D01*
X155348137Y-117634782D01*
X155336681Y-117620054D01*
X155324721Y-117606142D01*
X155312293Y-117593024D01*
X155299431Y-117580679D01*
X155286171Y-117569084D01*
X155272548Y-117558217D01*
X155258596Y-117548055D01*
X155244350Y-117538576D01*
X155229846Y-117529758D01*
X155215118Y-117521578D01*
X155185133Y-117507046D01*
X155154674Y-117494800D01*
X155124021Y-117484662D01*
X155093454Y-117476455D01*
X155063254Y-117469999D01*
X155033699Y-117465117D01*
X155005071Y-117461630D01*
X154977650Y-117459360D01*
X154951714Y-117458129D01*
X154927546Y-117457758D01*
X154898654Y-117458314D01*
X154870289Y-117459969D01*
X154842474Y-117462700D01*
X154815237Y-117466485D01*
X154788603Y-117471302D01*
X154762596Y-117477130D01*
X154737244Y-117483947D01*
X154712572Y-117491730D01*
X154688604Y-117500458D01*
X154665368Y-117510109D01*
X154642889Y-117520660D01*
X154621192Y-117532091D01*
X154600303Y-117544378D01*
X154580248Y-117557501D01*
X154561053Y-117571437D01*
X154542742Y-117586164D01*
X154525342Y-117601660D01*
X154508879Y-117617904D01*
X154493378Y-117634873D01*
X154478865Y-117652546D01*
X154465365Y-117670900D01*
X154452905Y-117689915D01*
X154441509Y-117709567D01*
X154431204Y-117729834D01*
X154422015Y-117750696D01*
X154413968Y-117772130D01*
X154407088Y-117794114D01*
X154401402Y-117816626D01*
X154396935Y-117839645D01*
X154393712Y-117863148D01*
X154391759Y-117887113D01*
X154391103Y-117911518D01*
X154391665Y-117934093D01*
X154393329Y-117955825D01*
X154396062Y-117976740D01*
X154399831Y-117996868D01*
X154404601Y-118016238D01*
X154410340Y-118034876D01*
X154417014Y-118052811D01*
X154424589Y-118070072D01*
X154433033Y-118086687D01*
X154442311Y-118102683D01*
X154452390Y-118118090D01*
X154463238Y-118132935D01*
X154474820Y-118147247D01*
X154487103Y-118161053D01*
X154500053Y-118174383D01*
X154513638Y-118187264D01*
X154542576Y-118211792D01*
X154573650Y-118234864D01*
X154606591Y-118256706D01*
X154641134Y-118277542D01*
X154677009Y-118297600D01*
X154713951Y-118317105D01*
X154789962Y-118355357D01*
X154804514Y-118362633D01*
X154891713Y-118406347D01*
X154976741Y-118451279D01*
X155017531Y-118474484D01*
X155056685Y-118498334D01*
X155093839Y-118522942D01*
X155128629Y-118548420D01*
X155160690Y-118574883D01*
X155189659Y-118602444D01*
X155215170Y-118631216D01*
X155226516Y-118646091D01*
X155236860Y-118661312D01*
X155246158Y-118676893D01*
X155254364Y-118692847D01*
X155261433Y-118709189D01*
X155267318Y-118725932D01*
X155271975Y-118743092D01*
X155275358Y-118760683D01*
X155277421Y-118778718D01*
X155278119Y-118797211D01*
X155277637Y-118812319D01*
X155276203Y-118827124D01*
X155273835Y-118841615D01*
X155270549Y-118855781D01*
X155266363Y-118869610D01*
X155261293Y-118883089D01*
X155255356Y-118896209D01*
X155248570Y-118908956D01*
X155240952Y-118921320D01*
X155232518Y-118933288D01*
X155223286Y-118944849D01*
X155213274Y-118955992D01*
X155202497Y-118966704D01*
X155190973Y-118976975D01*
X155178720Y-118986792D01*
X155165753Y-118996145D01*
X155152091Y-119005020D01*
X155137751Y-119013407D01*
X155122749Y-119021294D01*
X155107102Y-119028670D01*
X155090828Y-119035522D01*
X155073944Y-119041839D01*
X155056466Y-119047610D01*
X155038412Y-119052823D01*
X155019800Y-119057466D01*
X155000645Y-119061528D01*
X154980965Y-119064997D01*
X154960778Y-119067861D01*
X154940099Y-119070109D01*
X154918947Y-119071729D01*
X154897339Y-119072710D01*
X154875291Y-119073039D01*
X154844789Y-119072404D01*
X154815050Y-119070499D01*
X154786077Y-119067327D01*
X154757872Y-119062890D01*
X154730438Y-119057189D01*
X154703778Y-119050227D01*
X154677896Y-119042004D01*
X154652793Y-119032525D01*
X154628473Y-119021789D01*
X154604939Y-119009800D01*
X154582194Y-118996559D01*
X154560240Y-118982068D01*
X154539081Y-118966329D01*
X154518720Y-118949344D01*
X154499158Y-118931115D01*
X154480400Y-118911643D01*
X154326280Y-119020122D01*
X154094312Y-119020122D01*
X154063681Y-118963237D01*
X154531332Y-118634492D01*
X154586894Y-118723789D01*
X154599457Y-118742713D01*
X154605958Y-118751674D01*
X154612610Y-118760303D01*
X154619418Y-118768603D01*
X154626385Y-118776576D01*
X154633515Y-118784223D01*
X154640813Y-118791547D01*
X154648283Y-118798549D01*
X154655928Y-118805231D01*
X154663753Y-118811595D01*
X154671761Y-118817643D01*
X154679957Y-118823378D01*
X154688344Y-118828800D01*
X154696927Y-118833913D01*
X154705709Y-118838717D01*
X154714694Y-118843215D01*
X154723887Y-118847409D01*
X154733292Y-118851301D01*
X154742912Y-118854892D01*
X154752751Y-118858185D01*
X154762814Y-118861181D01*
X154773105Y-118863883D01*
X154783626Y-118866292D01*
X154794384Y-118868410D01*
X154805380Y-118870240D01*
X154816621Y-118871783D01*
X154828108Y-118873041D01*
X154851842Y-118874710D01*
X154876613Y-118875263D01*
X154901146Y-118874743D01*
X154924137Y-118873240D01*
X154945583Y-118870842D01*
X154965476Y-118867635D01*
X154983811Y-118863708D01*
X155000582Y-118859147D01*
X155015784Y-118854040D01*
X155029410Y-118848474D01*
X155041454Y-118842535D01*
X155051912Y-118836312D01*
X155060777Y-118829890D01*
X155068043Y-118823359D01*
X155073704Y-118816804D01*
X155077755Y-118810313D01*
X155080190Y-118803974D01*
X155081003Y-118797872D01*
X155080322Y-118790622D01*
X155078320Y-118783145D01*
X155075061Y-118775459D01*
X155070608Y-118767582D01*
X155065025Y-118759532D01*
X155058374Y-118751326D01*
X155050718Y-118742981D01*
X155042122Y-118734517D01*
X155022358Y-118717297D01*
X154999590Y-118699808D01*
X154974321Y-118682191D01*
X154947058Y-118664588D01*
X154918307Y-118647140D01*
X154888573Y-118629988D01*
X154858363Y-118613274D01*
X154828181Y-118597140D01*
X154769929Y-118567176D01*
X154717863Y-118541226D01*
X154703310Y-118533950D01*
X154616286Y-118489870D01*
X154572058Y-118466140D01*
X154528014Y-118440891D01*
X154484647Y-118413828D01*
X154442454Y-118384657D01*
X154401930Y-118353083D01*
X154363569Y-118318811D01*
X154345355Y-118300571D01*
X154327867Y-118281547D01*
X154311168Y-118261701D01*
X154295319Y-118240997D01*
X154280382Y-118219397D01*
X154266420Y-118196865D01*
X154253493Y-118173364D01*
X154241664Y-118148858D01*
X154230996Y-118123308D01*
X154221549Y-118096680D01*
X154213385Y-118068935D01*
X154206567Y-118040037D01*
X154201157Y-118009950D01*
X154197215Y-117978635D01*
X154194805Y-117946058D01*
X154193988Y-117912180D01*
X154194887Y-117877893D01*
X154197561Y-117844139D01*
X154201975Y-117810954D01*
X154208093Y-117778375D01*
X154215881Y-117746438D01*
X154225303Y-117715179D01*
X154236324Y-117684634D01*
X154248910Y-117654841D01*
X154263024Y-117625836D01*
X154278632Y-117597655D01*
X154295699Y-117570335D01*
X154314190Y-117543911D01*
X154334069Y-117518422D01*
X154355301Y-117493902D01*
X154377852Y-117470389D01*
X154401686Y-117447918D01*
X154426767Y-117426528D01*
X154453062Y-117406253D01*
X154480534Y-117387130D01*
X154509149Y-117369196D01*
X154538872Y-117352487D01*
X154569667Y-117337040D01*
X154601499Y-117322891D01*
X154634333Y-117310077D01*
X154668134Y-117298633D01*
X154702867Y-117288598D01*
X154738497Y-117280006D01*
X154774988Y-117272894D01*
X154812306Y-117267300D01*
X154850416Y-117263258D01*
X154889281Y-117260807D01*
X154928868Y-117259982D01*
X154988531Y-117261708D01*
G37*
G36*
X152976905Y-118612002D02*
G01*
X152977236Y-118625563D01*
X152978217Y-118638947D01*
X152979832Y-118652140D01*
X152982066Y-118665123D01*
X152984902Y-118677881D01*
X152988324Y-118690396D01*
X152992317Y-118702652D01*
X152996863Y-118714632D01*
X153001946Y-118726319D01*
X153007552Y-118737697D01*
X153013663Y-118748749D01*
X153020263Y-118759458D01*
X153027337Y-118769808D01*
X153034868Y-118779782D01*
X153042840Y-118789363D01*
X153051237Y-118798534D01*
X153060042Y-118807278D01*
X153069241Y-118815580D01*
X153078816Y-118823422D01*
X153088752Y-118830787D01*
X153099033Y-118837660D01*
X153109641Y-118844022D01*
X153120562Y-118849858D01*
X153131779Y-118855150D01*
X153143277Y-118859883D01*
X153155038Y-118864038D01*
X153167046Y-118867600D01*
X153179287Y-118870552D01*
X153191743Y-118872878D01*
X153204399Y-118874559D01*
X153217237Y-118875580D01*
X153230244Y-118875924D01*
X153241803Y-118875629D01*
X153253393Y-118874748D01*
X153264990Y-118873288D01*
X153276566Y-118871258D01*
X153288096Y-118868663D01*
X153299553Y-118865512D01*
X153310912Y-118861811D01*
X153322145Y-118857569D01*
X153333227Y-118852791D01*
X153344132Y-118847486D01*
X153354833Y-118841661D01*
X153365305Y-118835322D01*
X153375521Y-118828478D01*
X153385455Y-118821135D01*
X153395081Y-118813301D01*
X153404373Y-118804983D01*
X153413304Y-118796188D01*
X153421848Y-118786924D01*
X153429980Y-118777197D01*
X153437673Y-118767016D01*
X153444901Y-118756387D01*
X153451637Y-118745318D01*
X153457856Y-118733815D01*
X153463532Y-118721887D01*
X153468637Y-118709540D01*
X153473147Y-118696782D01*
X153477035Y-118683620D01*
X153480275Y-118670061D01*
X153482840Y-118656112D01*
X153484705Y-118641781D01*
X153485843Y-118627076D01*
X153486228Y-118612002D01*
X153486228Y-117299669D01*
X154074265Y-117299669D01*
X154074265Y-118613325D01*
X154073189Y-118657849D01*
X154069997Y-118701719D01*
X154064735Y-118744884D01*
X154057453Y-118787295D01*
X154048200Y-118828903D01*
X154037024Y-118869657D01*
X154023975Y-118909508D01*
X154009101Y-118948406D01*
X153992450Y-118986301D01*
X153974073Y-119023143D01*
X153954017Y-119058883D01*
X153932331Y-119093471D01*
X153909065Y-119126856D01*
X153884267Y-119158990D01*
X153857985Y-119189823D01*
X153830269Y-119219304D01*
X153801167Y-119247384D01*
X153770729Y-119274013D01*
X153739003Y-119299142D01*
X153706038Y-119322720D01*
X153671882Y-119344698D01*
X153636585Y-119365026D01*
X153600195Y-119383655D01*
X153562761Y-119400533D01*
X153524332Y-119415613D01*
X153484957Y-119428843D01*
X153444684Y-119440175D01*
X153403562Y-119449557D01*
X153361641Y-119456942D01*
X153318969Y-119462278D01*
X153275594Y-119465516D01*
X153231567Y-119466607D01*
X153187597Y-119465516D01*
X153144273Y-119462278D01*
X153101645Y-119456942D01*
X153059761Y-119449557D01*
X153018670Y-119440175D01*
X152978422Y-119428843D01*
X152939066Y-119415613D01*
X152900651Y-119400533D01*
X152863227Y-119383655D01*
X152826842Y-119365026D01*
X152791545Y-119344698D01*
X152757386Y-119322720D01*
X152724414Y-119299142D01*
X152692679Y-119274013D01*
X152662228Y-119247384D01*
X152633112Y-119219304D01*
X152605380Y-119189823D01*
X152579080Y-119158990D01*
X152554263Y-119126856D01*
X152530976Y-119093471D01*
X152509270Y-119058883D01*
X152489194Y-119023143D01*
X152470796Y-118986301D01*
X152454126Y-118948406D01*
X152439233Y-118909508D01*
X152426166Y-118869657D01*
X152414974Y-118828903D01*
X152405708Y-118787295D01*
X152398414Y-118744884D01*
X152393144Y-118701719D01*
X152389946Y-118657849D01*
X152388885Y-118613987D01*
X152587306Y-118613987D01*
X152588112Y-118648688D01*
X152590508Y-118682820D01*
X152594460Y-118716347D01*
X152599932Y-118749234D01*
X152606891Y-118781448D01*
X152615303Y-118812951D01*
X152625133Y-118843711D01*
X152636347Y-118873692D01*
X152648911Y-118902859D01*
X152662790Y-118931177D01*
X152677951Y-118958611D01*
X152694358Y-118985127D01*
X152711978Y-119010689D01*
X152730776Y-119035264D01*
X152750718Y-119058814D01*
X152771770Y-119081307D01*
X152793898Y-119102707D01*
X152817067Y-119122979D01*
X152841243Y-119142088D01*
X152866391Y-119160000D01*
X152892478Y-119176679D01*
X152919469Y-119192091D01*
X152947330Y-119206201D01*
X152976027Y-119218973D01*
X153005524Y-119230374D01*
X153035789Y-119240367D01*
X153066787Y-119248919D01*
X153098483Y-119255994D01*
X153130843Y-119261558D01*
X153163833Y-119265575D01*
X153197419Y-119268011D01*
X153231566Y-119268831D01*
X153265714Y-119268011D01*
X153299300Y-119265575D01*
X153332290Y-119261558D01*
X153364650Y-119255994D01*
X153396346Y-119248919D01*
X153427344Y-119240367D01*
X153457609Y-119230374D01*
X153487106Y-119218973D01*
X153515803Y-119206201D01*
X153543664Y-119192091D01*
X153570655Y-119176679D01*
X153596742Y-119160000D01*
X153621890Y-119142088D01*
X153646066Y-119122979D01*
X153669235Y-119102707D01*
X153691362Y-119081307D01*
X153712415Y-119058814D01*
X153732357Y-119035264D01*
X153751155Y-119010689D01*
X153768775Y-118985127D01*
X153785182Y-118958611D01*
X153800343Y-118931177D01*
X153814222Y-118902859D01*
X153826786Y-118873692D01*
X153838000Y-118843711D01*
X153847830Y-118812951D01*
X153856242Y-118781448D01*
X153863201Y-118749234D01*
X153868673Y-118716347D01*
X153872624Y-118682820D01*
X153875020Y-118648688D01*
X153875827Y-118613987D01*
X153875827Y-117498768D01*
X153684665Y-117498768D01*
X153684665Y-118612664D01*
X153684073Y-118636454D01*
X153682316Y-118659932D01*
X153679423Y-118683069D01*
X153675422Y-118705836D01*
X153670342Y-118728204D01*
X153664211Y-118750144D01*
X153657060Y-118771626D01*
X153648915Y-118792622D01*
X153639807Y-118813102D01*
X153629763Y-118833038D01*
X153618812Y-118852400D01*
X153606984Y-118871160D01*
X153594306Y-118889288D01*
X153580808Y-118906754D01*
X153566517Y-118923532D01*
X153551464Y-118939590D01*
X153535676Y-118954900D01*
X153519183Y-118969433D01*
X153502012Y-118983160D01*
X153484193Y-118996051D01*
X153465754Y-119008079D01*
X153446725Y-119019213D01*
X153427133Y-119029424D01*
X153407008Y-119038684D01*
X153386378Y-119046964D01*
X153365271Y-119054234D01*
X153343718Y-119060465D01*
X153321746Y-119065629D01*
X153299383Y-119069695D01*
X153276660Y-119072636D01*
X153253603Y-119074422D01*
X153230243Y-119075023D01*
X153206891Y-119074420D01*
X153183857Y-119072629D01*
X153161169Y-119069679D01*
X153138855Y-119065601D01*
X153116943Y-119060424D01*
X153095460Y-119054177D01*
X153074434Y-119046890D01*
X153053893Y-119038591D01*
X153033864Y-119029312D01*
X153014376Y-119019080D01*
X152995456Y-119007925D01*
X152977131Y-118995877D01*
X152959430Y-118982965D01*
X152942381Y-118969219D01*
X152926010Y-118954668D01*
X152910346Y-118939342D01*
X152895416Y-118923269D01*
X152881249Y-118906480D01*
X152867872Y-118889003D01*
X152855312Y-118870869D01*
X152843597Y-118852107D01*
X152832756Y-118832745D01*
X152822816Y-118812814D01*
X152813804Y-118792343D01*
X152805749Y-118771361D01*
X152798677Y-118749898D01*
X152792618Y-118727984D01*
X152787598Y-118705647D01*
X152783645Y-118682917D01*
X152780787Y-118659824D01*
X152779052Y-118636396D01*
X152778468Y-118612664D01*
X152778468Y-117498768D01*
X152587306Y-117498768D01*
X152587306Y-118613987D01*
X152388885Y-118613987D01*
X152388869Y-118613325D01*
X152388869Y-117498768D01*
X152388869Y-117299669D01*
X152976905Y-117299669D01*
X152976905Y-118612002D01*
G37*
G36*
X156960869Y-121333903D02*
G01*
X156696285Y-121333903D01*
X156696285Y-120016278D01*
X156960869Y-120016278D01*
X156960869Y-121333903D01*
G37*
G36*
X152911421Y-120276893D02*
G01*
X152381593Y-120276893D01*
X152381593Y-120534200D01*
X152836015Y-120534200D01*
X152836015Y-120798122D01*
X152381593Y-120798122D01*
X152381593Y-121070643D01*
X152911421Y-121070643D01*
X152911421Y-121333903D01*
X152117009Y-121333903D01*
X152117009Y-120016279D01*
X152911421Y-120016279D01*
X152911421Y-120276893D01*
G37*
G36*
X156015427Y-120017492D02*
G01*
X156038072Y-120019130D01*
X156060400Y-120021828D01*
X156082382Y-120025559D01*
X156103989Y-120030299D01*
X156125192Y-120036020D01*
X156145962Y-120042696D01*
X156166271Y-120050302D01*
X156186089Y-120058811D01*
X156205389Y-120068196D01*
X156224140Y-120078433D01*
X156242315Y-120089494D01*
X156259884Y-120101353D01*
X156276819Y-120113984D01*
X156293091Y-120127362D01*
X156308670Y-120141459D01*
X156323529Y-120156251D01*
X156337638Y-120171709D01*
X156350968Y-120187810D01*
X156363491Y-120204525D01*
X156375178Y-120221830D01*
X156386000Y-120239698D01*
X156395928Y-120258102D01*
X156404933Y-120277017D01*
X156412987Y-120296416D01*
X156420060Y-120316274D01*
X156426125Y-120336564D01*
X156431151Y-120357260D01*
X156435111Y-120378336D01*
X156437975Y-120399765D01*
X156439714Y-120421522D01*
X156440300Y-120443580D01*
X156439122Y-120475063D01*
X156435647Y-120505937D01*
X156429967Y-120536088D01*
X156422172Y-120565402D01*
X156412355Y-120593767D01*
X156400605Y-120621069D01*
X156387015Y-120647195D01*
X156371674Y-120672031D01*
X156354675Y-120695465D01*
X156336108Y-120717381D01*
X156316064Y-120737668D01*
X156294635Y-120756212D01*
X156271911Y-120772900D01*
X156247984Y-120787617D01*
X156222944Y-120800252D01*
X156196884Y-120810690D01*
X156571269Y-121334565D01*
X156247155Y-121334565D01*
X155827790Y-120711471D01*
X155827790Y-121334565D01*
X155563207Y-121334565D01*
X155563207Y-120609606D01*
X155563207Y-120278216D01*
X155826468Y-120278216D01*
X155826468Y-120609606D01*
X155996462Y-120609606D01*
X156004865Y-120609515D01*
X156013196Y-120608999D01*
X156021444Y-120608069D01*
X156029595Y-120606733D01*
X156037636Y-120605002D01*
X156045555Y-120602886D01*
X156053339Y-120600393D01*
X156060975Y-120597535D01*
X156068450Y-120594319D01*
X156075752Y-120590757D01*
X156082867Y-120586858D01*
X156089782Y-120582631D01*
X156096486Y-120578087D01*
X156102964Y-120573234D01*
X156109204Y-120568083D01*
X156115194Y-120562643D01*
X156120920Y-120556924D01*
X156126370Y-120550936D01*
X156131531Y-120544688D01*
X156136389Y-120538190D01*
X156140933Y-120531451D01*
X156145149Y-120524482D01*
X156149024Y-120517293D01*
X156152546Y-120509891D01*
X156155701Y-120502289D01*
X156158478Y-120494494D01*
X156160863Y-120486518D01*
X156162842Y-120478369D01*
X156164405Y-120470057D01*
X156165536Y-120461592D01*
X156166225Y-120452984D01*
X156166457Y-120444242D01*
X156166223Y-120435501D01*
X156165529Y-120426898D01*
X156164389Y-120418442D01*
X156162815Y-120410140D01*
X156160822Y-120402004D01*
X156158421Y-120394041D01*
X156155627Y-120386262D01*
X156152453Y-120378675D01*
X156148911Y-120371289D01*
X156145015Y-120364114D01*
X156140779Y-120357159D01*
X156136215Y-120350433D01*
X156131336Y-120343946D01*
X156126156Y-120337706D01*
X156120689Y-120331723D01*
X156114946Y-120326006D01*
X156108942Y-120320564D01*
X156102689Y-120315406D01*
X156096201Y-120310543D01*
X156089492Y-120305981D01*
X156082573Y-120301732D01*
X156075459Y-120297804D01*
X156068162Y-120294207D01*
X156060696Y-120290949D01*
X156053074Y-120288039D01*
X156045310Y-120285488D01*
X156037415Y-120283304D01*
X156029405Y-120281497D01*
X156021291Y-120280075D01*
X156013087Y-120279048D01*
X156004807Y-120278425D01*
X155996462Y-120278216D01*
X155826468Y-120278216D01*
X155563207Y-120278216D01*
X155563207Y-120016940D01*
X155992493Y-120016940D01*
X156015427Y-120017492D01*
G37*
G36*
X153562296Y-120415137D02*
G01*
X153787192Y-120016278D01*
X154091462Y-120016278D01*
X153714431Y-120649294D01*
X154115936Y-121334565D01*
X153811666Y-121334565D01*
X153561635Y-120892049D01*
X153312265Y-121334565D01*
X153007994Y-121334565D01*
X153408838Y-120649955D01*
X153032468Y-120016278D01*
X153336739Y-120016278D01*
X153562296Y-120415137D01*
G37*
G36*
X157612825Y-120018211D02*
G01*
X157651281Y-120020277D01*
X157688730Y-120023782D01*
X157725155Y-120028711D01*
X157760538Y-120035046D01*
X157794862Y-120042770D01*
X157828111Y-120051868D01*
X157860266Y-120062322D01*
X157891310Y-120074117D01*
X157921227Y-120087235D01*
X157950000Y-120101660D01*
X157977610Y-120117375D01*
X158004041Y-120134363D01*
X158029276Y-120152609D01*
X158053297Y-120172095D01*
X158076087Y-120192805D01*
X158097629Y-120214723D01*
X158117906Y-120237831D01*
X158136901Y-120262113D01*
X158154596Y-120287553D01*
X158170975Y-120314133D01*
X158186019Y-120341838D01*
X158199712Y-120370651D01*
X158212037Y-120400555D01*
X158222976Y-120431533D01*
X158232513Y-120463570D01*
X158240630Y-120496647D01*
X158247309Y-120530750D01*
X158252534Y-120565860D01*
X158256287Y-120601963D01*
X158258552Y-120639040D01*
X158259311Y-120677076D01*
X158258552Y-120714927D01*
X158256287Y-120751824D01*
X158252534Y-120787751D01*
X158247309Y-120822692D01*
X158240630Y-120856629D01*
X158232513Y-120889548D01*
X158222976Y-120921431D01*
X158212037Y-120952263D01*
X158199712Y-120982027D01*
X158186019Y-121010707D01*
X158170975Y-121038286D01*
X158154596Y-121064749D01*
X158136901Y-121090080D01*
X158117906Y-121114262D01*
X158097629Y-121137278D01*
X158076087Y-121159113D01*
X158053297Y-121179751D01*
X158029276Y-121199174D01*
X158004041Y-121217368D01*
X157977610Y-121234315D01*
X157950000Y-121250000D01*
X157921227Y-121264406D01*
X157891310Y-121277517D01*
X157860266Y-121289317D01*
X157828111Y-121299790D01*
X157794862Y-121308919D01*
X157760538Y-121316687D01*
X157725155Y-121323080D01*
X157688730Y-121328081D01*
X157651281Y-121331672D01*
X157612825Y-121333839D01*
X157573379Y-121334565D01*
X157189733Y-121334565D01*
X157189733Y-121069981D01*
X157189733Y-120278877D01*
X157454317Y-120278877D01*
X157454317Y-121069981D01*
X157575364Y-121069981D01*
X157599372Y-121069547D01*
X157622773Y-121068250D01*
X157645558Y-121066100D01*
X157667714Y-121063107D01*
X157689234Y-121059280D01*
X157710105Y-121054629D01*
X157730319Y-121049163D01*
X157749864Y-121042892D01*
X157768732Y-121035826D01*
X157786911Y-121027974D01*
X157804391Y-121019345D01*
X157821162Y-121009950D01*
X157837215Y-120999797D01*
X157852538Y-120988897D01*
X157867123Y-120977259D01*
X157880957Y-120964892D01*
X157894032Y-120951806D01*
X157906338Y-120938011D01*
X157917863Y-120923516D01*
X157928598Y-120908331D01*
X157938533Y-120892465D01*
X157947657Y-120875928D01*
X157955960Y-120858730D01*
X157963433Y-120840879D01*
X157970065Y-120822386D01*
X157975845Y-120803260D01*
X157980764Y-120783511D01*
X157984812Y-120763149D01*
X157987977Y-120742182D01*
X157990251Y-120720620D01*
X157991623Y-120698474D01*
X157992076Y-120676095D01*
X157991619Y-120653566D01*
X157990236Y-120631290D01*
X157987943Y-120609597D01*
X157984752Y-120588495D01*
X157980672Y-120567996D01*
X157975714Y-120548109D01*
X157969888Y-120528844D01*
X157963205Y-120510212D01*
X157955675Y-120492222D01*
X157947309Y-120474884D01*
X157938117Y-120458209D01*
X157928109Y-120442207D01*
X157917296Y-120426887D01*
X157905688Y-120412260D01*
X157893296Y-120398336D01*
X157880130Y-120385124D01*
X157866201Y-120372635D01*
X157851518Y-120360879D01*
X157836092Y-120349866D01*
X157819935Y-120339606D01*
X157803055Y-120330109D01*
X157785464Y-120321385D01*
X157767172Y-120313444D01*
X157748190Y-120306297D01*
X157728527Y-120299952D01*
X157708195Y-120294421D01*
X157687203Y-120289714D01*
X157665562Y-120285839D01*
X157643283Y-120282809D01*
X157620375Y-120280631D01*
X157596850Y-120279318D01*
X157572718Y-120278877D01*
X157454317Y-120278877D01*
X157189733Y-120278877D01*
X157189733Y-120017602D01*
X157573379Y-120017602D01*
X157612825Y-120018211D01*
G37*
G36*
X151438353Y-121071305D02*
G01*
X151968181Y-121071305D01*
X151968181Y-121334565D01*
X151173770Y-121334565D01*
X151173770Y-120016940D01*
X151438353Y-120016940D01*
X151438353Y-121071305D01*
G37*
G36*
X151024942Y-120276892D02*
G01*
X150495775Y-120276892D01*
X150495775Y-120276893D01*
X150495775Y-120542799D01*
X150950197Y-120542799D01*
X150950197Y-120806721D01*
X150495775Y-120806721D01*
X150495775Y-121335888D01*
X150230530Y-121335888D01*
X150230530Y-120012971D01*
X151024942Y-120012971D01*
X151024942Y-120276892D01*
G37*
G36*
X154784381Y-119990968D02*
G01*
X154816686Y-119993884D01*
X154849078Y-119998526D01*
X154881461Y-120004848D01*
X154913739Y-120012805D01*
X154945817Y-120022353D01*
X154977599Y-120033448D01*
X155008988Y-120046044D01*
X155039889Y-120060098D01*
X155070205Y-120075564D01*
X155099841Y-120092399D01*
X155128702Y-120110557D01*
X155156690Y-120129994D01*
X155183710Y-120150666D01*
X155209666Y-120172527D01*
X155234463Y-120195534D01*
X155087619Y-120415138D01*
X155068104Y-120396794D01*
X155048270Y-120379479D01*
X155028137Y-120363214D01*
X155007727Y-120348021D01*
X154987061Y-120333921D01*
X154966161Y-120320935D01*
X154945048Y-120309084D01*
X154923743Y-120298391D01*
X154902267Y-120288876D01*
X154880642Y-120280560D01*
X154858889Y-120273465D01*
X154837029Y-120267612D01*
X154815085Y-120263023D01*
X154793076Y-120259719D01*
X154771025Y-120257721D01*
X154748952Y-120257050D01*
X154729789Y-120257554D01*
X154710649Y-120259056D01*
X154691570Y-120261536D01*
X154672591Y-120264977D01*
X154653750Y-120269359D01*
X154635085Y-120274665D01*
X154616636Y-120280876D01*
X154598439Y-120287973D01*
X154580534Y-120295938D01*
X154562960Y-120304753D01*
X154545753Y-120314400D01*
X154528954Y-120324860D01*
X154512599Y-120336113D01*
X154496729Y-120348144D01*
X154481380Y-120360931D01*
X154466592Y-120374459D01*
X154452402Y-120388707D01*
X154438850Y-120403657D01*
X154425974Y-120419292D01*
X154413811Y-120435592D01*
X154402401Y-120452539D01*
X154391781Y-120470115D01*
X154381991Y-120488302D01*
X154373068Y-120507081D01*
X154365051Y-120526433D01*
X154357979Y-120546341D01*
X154351889Y-120566785D01*
X154346820Y-120587748D01*
X154342811Y-120609210D01*
X154339900Y-120631155D01*
X154338125Y-120653562D01*
X154337525Y-120676414D01*
X154338043Y-120697746D01*
X154339586Y-120718810D01*
X154342136Y-120739580D01*
X154345674Y-120760029D01*
X154350184Y-120780131D01*
X154355646Y-120799857D01*
X154362043Y-120819182D01*
X154369358Y-120838079D01*
X154377571Y-120856520D01*
X154386666Y-120874479D01*
X154396624Y-120891928D01*
X154407428Y-120908842D01*
X154419059Y-120925193D01*
X154431499Y-120940953D01*
X154444731Y-120956097D01*
X154458737Y-120970598D01*
X154473499Y-120984428D01*
X154488998Y-120997560D01*
X154505217Y-121009969D01*
X154522139Y-121021626D01*
X154539744Y-121032505D01*
X154558016Y-121042579D01*
X154576936Y-121051821D01*
X154596486Y-121060205D01*
X154616648Y-121067703D01*
X154637405Y-121074288D01*
X154658738Y-121079934D01*
X154680630Y-121084614D01*
X154703063Y-121088301D01*
X154726018Y-121090968D01*
X154749478Y-121092587D01*
X154773426Y-121093133D01*
X154808010Y-121092010D01*
X154841248Y-121088673D01*
X154873033Y-121083174D01*
X154903257Y-121075563D01*
X154931815Y-121065890D01*
X154958600Y-121054205D01*
X154971294Y-121047624D01*
X154983505Y-121040559D01*
X154995220Y-121033017D01*
X155006424Y-121025003D01*
X155017105Y-121016524D01*
X155027250Y-121007586D01*
X155036845Y-120998196D01*
X155045876Y-120988359D01*
X155054332Y-120978083D01*
X155062197Y-120967373D01*
X155069459Y-120956235D01*
X155076105Y-120944677D01*
X155082120Y-120932704D01*
X155087493Y-120920323D01*
X155092209Y-120907539D01*
X155096256Y-120894360D01*
X155099619Y-120880791D01*
X155102286Y-120866839D01*
X155104243Y-120852510D01*
X155105477Y-120837810D01*
X154764826Y-120837810D01*
X154764826Y-120593071D01*
X155384613Y-120593071D01*
X155387321Y-120621596D01*
X155388450Y-120635673D01*
X155389408Y-120649626D01*
X155390181Y-120663454D01*
X155390752Y-120677159D01*
X155391106Y-120690739D01*
X155391227Y-120704196D01*
X155391227Y-120705519D01*
X155390567Y-120705518D01*
X155389739Y-120743770D01*
X155387281Y-120781001D01*
X155383237Y-120817198D01*
X155377646Y-120852350D01*
X155370552Y-120886444D01*
X155361994Y-120919466D01*
X155352016Y-120951404D01*
X155340658Y-120982246D01*
X155327961Y-121011978D01*
X155313969Y-121040587D01*
X155298721Y-121068062D01*
X155282259Y-121094390D01*
X155264626Y-121119557D01*
X155245863Y-121143551D01*
X155226010Y-121166359D01*
X155205110Y-121187969D01*
X155183205Y-121208368D01*
X155160335Y-121227543D01*
X155136543Y-121245481D01*
X155111869Y-121262170D01*
X155086356Y-121277597D01*
X155060045Y-121291750D01*
X155032978Y-121304614D01*
X155005195Y-121316179D01*
X154976739Y-121326430D01*
X154947651Y-121335356D01*
X154917973Y-121342944D01*
X154887746Y-121349181D01*
X154857012Y-121354053D01*
X154825812Y-121357550D01*
X154794188Y-121359657D01*
X154762181Y-121360362D01*
X154726029Y-121359468D01*
X154690403Y-121356816D01*
X154655342Y-121352449D01*
X154620889Y-121346412D01*
X154587083Y-121338748D01*
X154553966Y-121329501D01*
X154521578Y-121318714D01*
X154489960Y-121306433D01*
X154459153Y-121292699D01*
X154429199Y-121277559D01*
X154400136Y-121261054D01*
X154372007Y-121243230D01*
X154344853Y-121224129D01*
X154318713Y-121203796D01*
X154293630Y-121182275D01*
X154269643Y-121159609D01*
X154246794Y-121135843D01*
X154225123Y-121111020D01*
X154204671Y-121085183D01*
X154185479Y-121058378D01*
X154167588Y-121030647D01*
X154151038Y-121002035D01*
X154135871Y-120972585D01*
X154122127Y-120942341D01*
X154109848Y-120911347D01*
X154099073Y-120879647D01*
X154089844Y-120847285D01*
X154082201Y-120814305D01*
X154076186Y-120780750D01*
X154071838Y-120746664D01*
X154069200Y-120712091D01*
X154068312Y-120677076D01*
X154069205Y-120642048D01*
X154071858Y-120607442D01*
X154076225Y-120573303D01*
X154082263Y-120539676D01*
X154089928Y-120506605D01*
X154099178Y-120474137D01*
X154109966Y-120442317D01*
X154122252Y-120411190D01*
X154135989Y-120380801D01*
X154151135Y-120351196D01*
X154167646Y-120322419D01*
X154185479Y-120294517D01*
X154204589Y-120267535D01*
X154224933Y-120241517D01*
X154246467Y-120216509D01*
X154269147Y-120192557D01*
X154292930Y-120169706D01*
X154317772Y-120148000D01*
X154343629Y-120127486D01*
X154370457Y-120108208D01*
X154398213Y-120090213D01*
X154426854Y-120073544D01*
X154456334Y-120058248D01*
X154486612Y-120044370D01*
X154517642Y-120031955D01*
X154549381Y-120021048D01*
X154581785Y-120011695D01*
X154614812Y-120003941D01*
X154648416Y-119997831D01*
X154682554Y-119993411D01*
X154717183Y-119990725D01*
X154752259Y-119989820D01*
X154784381Y-119990968D01*
G37*
G36*
X154625259Y-123010039D02*
G01*
X154328926Y-123010039D01*
X154328926Y-121894158D01*
X154625259Y-121894158D01*
X154625259Y-123010039D01*
G37*
G36*
X152820681Y-121895293D02*
G01*
X152842632Y-121896696D01*
X152864145Y-121899007D01*
X152885203Y-121902203D01*
X152905784Y-121906261D01*
X152925870Y-121911158D01*
X152945443Y-121916870D01*
X152964482Y-121923376D01*
X152982969Y-121930653D01*
X153000884Y-121938676D01*
X153018209Y-121947424D01*
X153034925Y-121956874D01*
X153051011Y-121967003D01*
X153066450Y-121977787D01*
X153081221Y-121989205D01*
X153095306Y-122001232D01*
X153108686Y-122013847D01*
X153121341Y-122027025D01*
X153133253Y-122040746D01*
X153144401Y-122054984D01*
X153154768Y-122069719D01*
X153164334Y-122084926D01*
X153173079Y-122100583D01*
X153180986Y-122116667D01*
X153188033Y-122133155D01*
X153194204Y-122150024D01*
X153199477Y-122167251D01*
X153203834Y-122184814D01*
X153207257Y-122202689D01*
X153209725Y-122220854D01*
X153211220Y-122239285D01*
X153211723Y-122257960D01*
X153210753Y-122283731D01*
X153207900Y-122308911D01*
X153203251Y-122333435D01*
X153196892Y-122357241D01*
X153188908Y-122380264D01*
X153179388Y-122402440D01*
X153168415Y-122423705D01*
X153156078Y-122443996D01*
X153142461Y-122463247D01*
X153127652Y-122481396D01*
X153111736Y-122498379D01*
X153094800Y-122514131D01*
X153076929Y-122528588D01*
X153058211Y-122541687D01*
X153038732Y-122553364D01*
X153018577Y-122563554D01*
X153317556Y-123011362D01*
X152970290Y-123011362D01*
X152970291Y-123010700D01*
X152671973Y-122525851D01*
X152671973Y-123010700D01*
X152375639Y-123010700D01*
X152374898Y-122384961D01*
X152374633Y-122161388D01*
X152670650Y-122161388D01*
X152670650Y-122384961D01*
X152791697Y-122384961D01*
X152797571Y-122384952D01*
X152803404Y-122384679D01*
X152809188Y-122384147D01*
X152814911Y-122383360D01*
X152820566Y-122382321D01*
X152826141Y-122381035D01*
X152831628Y-122379505D01*
X152837017Y-122377736D01*
X152842299Y-122375732D01*
X152847463Y-122373496D01*
X152852501Y-122371032D01*
X152857402Y-122368345D01*
X152862158Y-122365439D01*
X152866758Y-122362317D01*
X152871193Y-122358984D01*
X152875454Y-122355443D01*
X152879531Y-122351699D01*
X152883414Y-122347755D01*
X152887094Y-122343616D01*
X152890560Y-122339285D01*
X152893805Y-122334767D01*
X152896818Y-122330065D01*
X152899589Y-122325184D01*
X152902109Y-122320127D01*
X152904368Y-122314899D01*
X152906357Y-122309504D01*
X152908067Y-122303944D01*
X152909487Y-122298226D01*
X152910608Y-122292351D01*
X152911421Y-122286326D01*
X152911915Y-122280153D01*
X152912082Y-122273836D01*
X152911914Y-122267519D01*
X152911414Y-122261345D01*
X152910592Y-122255319D01*
X152909460Y-122249443D01*
X152908026Y-122243722D01*
X152906301Y-122238159D01*
X152904294Y-122232758D01*
X152902016Y-122227523D01*
X152899476Y-122222458D01*
X152896684Y-122217566D01*
X152893651Y-122212851D01*
X152890386Y-122208317D01*
X152886899Y-122203967D01*
X152883200Y-122199806D01*
X152879299Y-122195837D01*
X152875206Y-122192063D01*
X152870931Y-122188489D01*
X152866483Y-122185119D01*
X152861874Y-122181956D01*
X152857112Y-122179003D01*
X152852207Y-122176265D01*
X152847170Y-122173746D01*
X152842010Y-122171449D01*
X152836738Y-122169377D01*
X152831363Y-122167535D01*
X152825895Y-122165927D01*
X152820345Y-122164556D01*
X152814721Y-122163425D01*
X152809035Y-122162540D01*
X152803295Y-122161902D01*
X152797513Y-122161517D01*
X152791697Y-122161388D01*
X152670650Y-122161388D01*
X152374633Y-122161388D01*
X152374316Y-121894820D01*
X152798311Y-121894820D01*
X152820681Y-121895293D01*
G37*
G36*
X152209614Y-122171309D02*
G01*
X151779004Y-122171309D01*
X151779004Y-122326091D01*
X152133546Y-122326091D01*
X152133546Y-122573476D01*
X151779004Y-122573476D01*
X151779004Y-122733549D01*
X152209614Y-122733549D01*
X152209614Y-123011362D01*
X151485978Y-123011362D01*
X151485978Y-121895481D01*
X152209614Y-121895481D01*
X152209614Y-122171309D01*
G37*
G36*
X156808733Y-122436555D02*
G01*
X156808733Y-121892174D01*
X157105728Y-121892174D01*
X157105728Y-121892836D01*
X157105728Y-123021284D01*
X157011801Y-123021284D01*
X156437655Y-122464997D01*
X156437655Y-123010700D01*
X156141322Y-123010700D01*
X156141322Y-121882914D01*
X156236572Y-121882914D01*
X156808733Y-122436555D01*
G37*
G36*
X150791447Y-122498731D02*
G01*
X151049416Y-121894158D01*
X151374853Y-121894158D01*
X150860239Y-123021945D01*
X150725963Y-123021945D01*
X150213332Y-121894158D01*
X150534140Y-121894158D01*
X150791447Y-122498731D01*
G37*
G36*
X153836587Y-121877886D02*
G01*
X153867150Y-121880615D01*
X153896667Y-121885075D01*
X153925064Y-121891192D01*
X153952267Y-121898895D01*
X153978203Y-121908110D01*
X154002798Y-121918764D01*
X154025978Y-121930786D01*
X154047670Y-121944103D01*
X154067800Y-121958641D01*
X154086294Y-121974329D01*
X154103079Y-121991093D01*
X154118082Y-122008861D01*
X154131227Y-122027559D01*
X154142443Y-122047117D01*
X154151655Y-122067460D01*
X153980337Y-122232163D01*
X153977084Y-122226741D01*
X153973537Y-122221511D01*
X153969711Y-122216472D01*
X153965621Y-122211623D01*
X153961284Y-122206962D01*
X153956715Y-122202489D01*
X153951930Y-122198201D01*
X153946944Y-122194098D01*
X153941773Y-122190178D01*
X153936433Y-122186440D01*
X153925306Y-122179503D01*
X153913689Y-122173278D01*
X153901707Y-122167754D01*
X153889484Y-122162919D01*
X153877146Y-122158763D01*
X153864818Y-122155276D01*
X153852624Y-122152447D01*
X153840690Y-122150265D01*
X153829141Y-122148720D01*
X153818102Y-122147800D01*
X153807697Y-122147496D01*
X153796495Y-122147855D01*
X153785734Y-122148907D01*
X153775455Y-122150618D01*
X153765694Y-122152953D01*
X153756492Y-122155878D01*
X153747887Y-122159356D01*
X153739917Y-122163354D01*
X153732621Y-122167836D01*
X153726039Y-122172768D01*
X153720209Y-122178115D01*
X153717587Y-122180933D01*
X153715169Y-122183841D01*
X153712958Y-122186836D01*
X153710958Y-122189913D01*
X153709176Y-122193067D01*
X153707616Y-122196294D01*
X153706283Y-122199590D01*
X153705181Y-122202950D01*
X153704316Y-122206371D01*
X153703691Y-122209847D01*
X153703313Y-122213375D01*
X153703186Y-122216950D01*
X153703416Y-122221628D01*
X153704100Y-122226120D01*
X153705231Y-122230440D01*
X153706804Y-122234598D01*
X153708810Y-122238608D01*
X153711244Y-122242482D01*
X153714098Y-122246231D01*
X153717366Y-122249868D01*
X153721041Y-122253405D01*
X153725116Y-122256854D01*
X153729585Y-122260229D01*
X153734440Y-122263540D01*
X153739675Y-122266800D01*
X153745283Y-122270022D01*
X153751257Y-122273217D01*
X153757591Y-122276398D01*
X153771310Y-122282767D01*
X153786385Y-122289226D01*
X153802763Y-122295873D01*
X153820388Y-122302805D01*
X153859166Y-122317919D01*
X153880210Y-122326297D01*
X153902285Y-122335351D01*
X153934323Y-122349511D01*
X153964899Y-122364484D01*
X153993928Y-122380305D01*
X154021327Y-122397011D01*
X154047013Y-122414640D01*
X154070903Y-122433229D01*
X154092913Y-122452813D01*
X154112959Y-122473430D01*
X154130960Y-122495117D01*
X154139167Y-122506373D01*
X154146831Y-122517911D01*
X154153941Y-122529734D01*
X154160488Y-122541847D01*
X154166461Y-122554256D01*
X154171850Y-122566964D01*
X154176643Y-122579977D01*
X154180832Y-122593298D01*
X154184404Y-122606933D01*
X154187350Y-122620886D01*
X154189660Y-122635162D01*
X154191322Y-122649765D01*
X154192328Y-122664699D01*
X154192665Y-122679970D01*
X154192091Y-122699640D01*
X154190389Y-122718831D01*
X154187591Y-122737534D01*
X154183729Y-122755740D01*
X154178833Y-122773438D01*
X154172935Y-122790619D01*
X154166067Y-122807274D01*
X154158259Y-122823393D01*
X154149543Y-122838967D01*
X154139951Y-122853985D01*
X154129514Y-122868439D01*
X154118263Y-122882318D01*
X154106229Y-122895614D01*
X154093445Y-122908317D01*
X154079940Y-122920416D01*
X154065748Y-122931903D01*
X154050898Y-122942768D01*
X154035423Y-122953002D01*
X154019354Y-122962594D01*
X154002722Y-122971535D01*
X153985558Y-122979816D01*
X153967895Y-122987427D01*
X153949762Y-122994359D01*
X153931193Y-123000602D01*
X153912217Y-123006146D01*
X153892867Y-123010982D01*
X153873173Y-123015100D01*
X153853168Y-123018491D01*
X153832882Y-123021145D01*
X153812347Y-123023053D01*
X153791594Y-123024204D01*
X153770655Y-123024590D01*
X153736510Y-123023654D01*
X153702877Y-123020881D01*
X153669898Y-123016328D01*
X153637712Y-123010048D01*
X153606460Y-123002099D01*
X153576283Y-122992534D01*
X153547321Y-122981409D01*
X153519714Y-122968780D01*
X153493603Y-122954700D01*
X153469129Y-122939227D01*
X153446432Y-122922415D01*
X153425653Y-122904318D01*
X153406931Y-122884994D01*
X153390408Y-122864495D01*
X153376224Y-122842879D01*
X153364519Y-122820200D01*
X153365842Y-122821522D01*
X153365843Y-122821523D01*
X153545098Y-122645575D01*
X153549556Y-122651943D01*
X153554244Y-122658145D01*
X153559156Y-122664179D01*
X153564287Y-122670044D01*
X153569628Y-122675736D01*
X153575176Y-122681253D01*
X153586863Y-122691753D01*
X153599297Y-122701524D01*
X153612431Y-122710548D01*
X153626213Y-122718804D01*
X153640596Y-122726273D01*
X153655529Y-122732936D01*
X153670962Y-122738774D01*
X153686847Y-122743766D01*
X153703135Y-122747895D01*
X153719775Y-122751139D01*
X153736718Y-122753481D01*
X153753915Y-122754900D01*
X153771317Y-122755377D01*
X153783069Y-122755114D01*
X153794702Y-122754321D01*
X153806127Y-122752997D01*
X153817257Y-122751140D01*
X153828003Y-122748748D01*
X153838278Y-122745820D01*
X153847992Y-122742353D01*
X153857058Y-122738345D01*
X153865388Y-122733794D01*
X153872893Y-122728699D01*
X153876309Y-122725947D01*
X153879486Y-122723058D01*
X153882412Y-122720032D01*
X153885077Y-122716868D01*
X153887470Y-122713567D01*
X153889580Y-122710128D01*
X153891395Y-122706551D01*
X153892905Y-122702835D01*
X153894098Y-122698981D01*
X153894965Y-122694988D01*
X153895492Y-122690857D01*
X153895671Y-122686586D01*
X153895339Y-122681212D01*
X153894359Y-122675879D01*
X153892752Y-122670587D01*
X153890541Y-122665335D01*
X153887746Y-122660121D01*
X153884391Y-122654943D01*
X153880497Y-122649803D01*
X153876086Y-122644697D01*
X153871179Y-122639624D01*
X153865799Y-122634585D01*
X153859969Y-122629578D01*
X153853708Y-122624601D01*
X153847041Y-122619654D01*
X153839987Y-122614735D01*
X153824812Y-122604978D01*
X153808358Y-122595322D01*
X153790800Y-122585758D01*
X153772314Y-122576278D01*
X153753075Y-122566872D01*
X153713040Y-122548249D01*
X153672098Y-122529820D01*
X153645822Y-122518027D01*
X153620173Y-122505425D01*
X153595300Y-122491948D01*
X153571350Y-122477534D01*
X153548469Y-122462115D01*
X153526804Y-122445627D01*
X153506505Y-122428006D01*
X153487716Y-122409186D01*
X153478935Y-122399307D01*
X153470587Y-122389103D01*
X153462690Y-122378567D01*
X153455264Y-122367691D01*
X153448325Y-122356467D01*
X153441894Y-122344886D01*
X153435987Y-122332941D01*
X153430624Y-122320623D01*
X153425823Y-122307924D01*
X153421603Y-122294837D01*
X153417981Y-122281352D01*
X153414977Y-122267462D01*
X153412608Y-122253159D01*
X153410893Y-122238435D01*
X153409850Y-122223281D01*
X153409499Y-122207689D01*
X153410031Y-122189747D01*
X153411608Y-122172146D01*
X153414203Y-122154900D01*
X153417787Y-122138024D01*
X153422331Y-122121535D01*
X153427807Y-122105446D01*
X153434188Y-122089772D01*
X153441445Y-122074530D01*
X153449550Y-122059733D01*
X153458474Y-122045396D01*
X153468190Y-122031536D01*
X153478669Y-122018166D01*
X153489883Y-122005302D01*
X153501804Y-121992959D01*
X153514403Y-121981152D01*
X153527652Y-121969895D01*
X153541523Y-121959205D01*
X153555988Y-121949095D01*
X153571019Y-121939581D01*
X153586588Y-121930678D01*
X153602665Y-121922401D01*
X153619223Y-121914765D01*
X153636234Y-121907785D01*
X153653670Y-121901476D01*
X153671502Y-121895853D01*
X153689702Y-121890930D01*
X153708242Y-121886724D01*
X153727093Y-121883249D01*
X153746228Y-121880520D01*
X153765618Y-121878553D01*
X153785235Y-121877361D01*
X153805051Y-121876960D01*
X153836587Y-121877886D01*
G37*
G36*
X155415543Y-121865132D02*
G01*
X155447288Y-121867327D01*
X155478493Y-121870948D01*
X155509123Y-121875962D01*
X155539145Y-121882338D01*
X155568524Y-121890044D01*
X155597227Y-121899049D01*
X155625219Y-121909320D01*
X155652468Y-121920827D01*
X155678938Y-121933538D01*
X155704597Y-121947421D01*
X155729409Y-121962445D01*
X155753342Y-121978578D01*
X155776361Y-121995787D01*
X155798433Y-122014043D01*
X155819523Y-122033313D01*
X155839597Y-122053565D01*
X155858622Y-122074768D01*
X155876564Y-122096890D01*
X155893389Y-122119900D01*
X155909063Y-122143767D01*
X155923551Y-122168457D01*
X155936821Y-122193941D01*
X155948838Y-122220185D01*
X155959568Y-122247159D01*
X155968977Y-122274832D01*
X155977032Y-122303170D01*
X155983699Y-122332144D01*
X155988943Y-122361720D01*
X155992731Y-122391868D01*
X155995028Y-122422556D01*
X155995801Y-122453753D01*
X155995028Y-122484936D01*
X155992730Y-122515585D01*
X155988942Y-122545671D01*
X155983698Y-122575163D01*
X155977030Y-122604031D01*
X155968973Y-122632246D01*
X155959561Y-122659778D01*
X155948828Y-122686596D01*
X155936806Y-122712672D01*
X155923531Y-122737974D01*
X155909036Y-122762473D01*
X155893354Y-122786139D01*
X155876520Y-122808943D01*
X155858567Y-122830853D01*
X155839529Y-122851841D01*
X155819440Y-122871877D01*
X155798334Y-122890930D01*
X155776243Y-122908970D01*
X155753204Y-122925968D01*
X155729248Y-122941894D01*
X155704410Y-122956718D01*
X155678723Y-122970410D01*
X155652222Y-122982940D01*
X155624940Y-122994277D01*
X155596911Y-123004393D01*
X155568169Y-123013258D01*
X155538747Y-123020840D01*
X155508680Y-123027111D01*
X155478000Y-123032041D01*
X155446743Y-123035599D01*
X155414941Y-123037756D01*
X155382629Y-123038481D01*
X155350321Y-123037746D01*
X155318530Y-123035563D01*
X155287290Y-123031962D01*
X155256635Y-123026976D01*
X155226598Y-123020636D01*
X155197211Y-123012974D01*
X155168509Y-123004022D01*
X155140525Y-122993812D01*
X155113291Y-122982375D01*
X155086842Y-122969744D01*
X155061210Y-122955949D01*
X155036429Y-122941022D01*
X155012532Y-122924996D01*
X154989553Y-122907902D01*
X154967524Y-122889771D01*
X154946480Y-122870636D01*
X154926453Y-122850529D01*
X154907476Y-122829480D01*
X154889584Y-122807521D01*
X154872809Y-122784686D01*
X154857184Y-122761004D01*
X154842743Y-122736508D01*
X154829520Y-122711230D01*
X154817547Y-122685201D01*
X154806858Y-122658453D01*
X154797486Y-122631018D01*
X154789465Y-122602927D01*
X154782827Y-122574213D01*
X154777607Y-122544907D01*
X154773836Y-122515040D01*
X154771550Y-122484645D01*
X154770780Y-122453753D01*
X154770829Y-122451768D01*
X155070420Y-122451768D01*
X155070815Y-122467828D01*
X155071986Y-122483628D01*
X155073918Y-122499150D01*
X155076593Y-122514380D01*
X155079994Y-122529300D01*
X155084103Y-122543894D01*
X155088903Y-122558146D01*
X155094377Y-122572039D01*
X155100509Y-122585558D01*
X155107280Y-122598685D01*
X155114674Y-122611404D01*
X155122673Y-122623699D01*
X155131260Y-122635554D01*
X155140418Y-122646952D01*
X155150130Y-122657877D01*
X155160379Y-122668313D01*
X155171146Y-122678243D01*
X155182416Y-122687650D01*
X155194171Y-122696520D01*
X155206394Y-122704834D01*
X155219067Y-122712577D01*
X155232174Y-122719733D01*
X155245697Y-122726284D01*
X155259618Y-122732216D01*
X155273922Y-122737511D01*
X155288590Y-122742153D01*
X155303605Y-122746126D01*
X155318951Y-122749413D01*
X155334609Y-122751998D01*
X155350563Y-122753864D01*
X155366796Y-122754996D01*
X155383290Y-122755377D01*
X155399784Y-122754993D01*
X155416017Y-122753850D01*
X155431972Y-122751966D01*
X155447630Y-122749358D01*
X155462976Y-122746044D01*
X155477991Y-122742040D01*
X155492659Y-122737363D01*
X155506962Y-122732030D01*
X155520884Y-122726059D01*
X155534407Y-122719466D01*
X155547513Y-122712269D01*
X155560187Y-122704485D01*
X155572409Y-122696131D01*
X155584164Y-122687223D01*
X155595434Y-122677779D01*
X155606202Y-122667817D01*
X155616450Y-122657352D01*
X155626162Y-122646403D01*
X155635320Y-122634986D01*
X155643908Y-122623118D01*
X155651907Y-122610817D01*
X155659300Y-122598099D01*
X155666072Y-122584981D01*
X155672203Y-122571482D01*
X155677678Y-122557617D01*
X155682478Y-122543403D01*
X155686587Y-122528859D01*
X155689988Y-122514001D01*
X155692662Y-122498845D01*
X155694594Y-122483410D01*
X155695766Y-122467712D01*
X155696160Y-122451768D01*
X155695766Y-122435702D01*
X155694594Y-122419885D01*
X155692662Y-122404336D01*
X155689988Y-122389070D01*
X155686587Y-122374105D01*
X155682478Y-122359458D01*
X155677678Y-122345146D01*
X155672203Y-122331186D01*
X155666072Y-122317595D01*
X155659300Y-122304390D01*
X155651907Y-122291589D01*
X155643908Y-122279208D01*
X155635320Y-122267265D01*
X155626162Y-122255776D01*
X155616450Y-122244759D01*
X155606202Y-122234230D01*
X155595434Y-122224208D01*
X155584164Y-122214708D01*
X155572409Y-122205748D01*
X155560187Y-122197345D01*
X155547513Y-122189516D01*
X155534407Y-122182279D01*
X155520884Y-122175649D01*
X155506962Y-122169645D01*
X155492659Y-122164283D01*
X155477991Y-122159581D01*
X155462976Y-122155556D01*
X155447630Y-122152224D01*
X155431972Y-122149602D01*
X155416017Y-122147709D01*
X155399784Y-122146560D01*
X155383290Y-122146174D01*
X155366796Y-122146560D01*
X155350563Y-122147709D01*
X155334609Y-122149602D01*
X155318951Y-122152224D01*
X155303605Y-122155556D01*
X155288590Y-122159581D01*
X155273922Y-122164283D01*
X155259618Y-122169645D01*
X155245697Y-122175649D01*
X155232174Y-122182279D01*
X155219067Y-122189516D01*
X155206394Y-122197345D01*
X155194171Y-122205748D01*
X155182416Y-122214708D01*
X155171146Y-122224208D01*
X155160379Y-122234230D01*
X155150130Y-122244759D01*
X155140418Y-122255776D01*
X155131260Y-122267265D01*
X155122673Y-122279208D01*
X155114674Y-122291589D01*
X155107280Y-122304390D01*
X155100509Y-122317595D01*
X155094377Y-122331186D01*
X155088903Y-122345146D01*
X155084103Y-122359458D01*
X155079994Y-122374105D01*
X155076593Y-122389070D01*
X155073918Y-122404336D01*
X155071986Y-122419885D01*
X155070815Y-122435702D01*
X155070420Y-122451768D01*
X154770829Y-122451768D01*
X154771553Y-122422556D01*
X154773851Y-122391868D01*
X154777639Y-122361720D01*
X154782883Y-122332144D01*
X154789549Y-122303170D01*
X154797604Y-122274832D01*
X154807013Y-122247160D01*
X154817744Y-122220185D01*
X154829761Y-122193941D01*
X154843030Y-122168457D01*
X154857519Y-122143767D01*
X154873192Y-122119901D01*
X154890017Y-122096891D01*
X154907959Y-122074768D01*
X154926984Y-122053565D01*
X154947059Y-122033313D01*
X154968149Y-122014043D01*
X154990220Y-121995788D01*
X155013239Y-121978578D01*
X155037172Y-121962445D01*
X155061985Y-121947421D01*
X155087643Y-121933538D01*
X155114114Y-121920828D01*
X155141362Y-121909320D01*
X155169355Y-121899049D01*
X155198058Y-121890044D01*
X155227437Y-121882338D01*
X155257459Y-121875962D01*
X155288089Y-121870948D01*
X155319293Y-121867327D01*
X155351039Y-121865132D01*
X155383291Y-121864393D01*
X155415543Y-121865132D01*
G37*
G36*
X158143557Y-121671247D02*
G01*
X157781739Y-122495423D01*
X158089978Y-122495423D01*
X158089978Y-122107147D01*
X158375067Y-122107147D01*
X158375067Y-122495423D01*
X158517942Y-122495423D01*
X158517942Y-122775882D01*
X158517280Y-122775221D01*
X158374405Y-122775221D01*
X158374405Y-123076185D01*
X158089316Y-123076185D01*
X158089316Y-122775221D01*
X157355759Y-122775221D01*
X157842593Y-121669263D01*
X158143557Y-121671247D01*
G37*
G36*
X159790944Y-121650957D02*
G01*
X159823004Y-121653564D01*
X159854334Y-121657870D01*
X159884913Y-121663842D01*
X159914719Y-121671447D01*
X159943730Y-121680654D01*
X159971923Y-121691429D01*
X159999278Y-121703741D01*
X160025773Y-121717557D01*
X160051386Y-121732843D01*
X160076094Y-121749569D01*
X160099877Y-121767701D01*
X160122712Y-121787207D01*
X160144578Y-121808055D01*
X160165452Y-121830211D01*
X160185314Y-121853644D01*
X160204140Y-121878322D01*
X160221910Y-121904210D01*
X160238602Y-121931278D01*
X160254193Y-121959493D01*
X160268662Y-121988822D01*
X160281988Y-122019233D01*
X160294148Y-122050693D01*
X160305120Y-122083171D01*
X160314883Y-122116632D01*
X160323415Y-122151046D01*
X160330695Y-122186379D01*
X160336700Y-122222599D01*
X160341408Y-122259673D01*
X160344798Y-122297570D01*
X160346848Y-122336257D01*
X160347536Y-122375701D01*
X160344791Y-122453823D01*
X160336672Y-122528774D01*
X160323359Y-122600294D01*
X160305027Y-122668127D01*
X160294035Y-122700580D01*
X160281855Y-122732014D01*
X160268508Y-122762398D01*
X160254019Y-122791698D01*
X160238407Y-122819884D01*
X160221696Y-122846921D01*
X160203908Y-122872780D01*
X160185065Y-122897426D01*
X160165189Y-122920828D01*
X160144303Y-122942954D01*
X160122428Y-122963771D01*
X160099586Y-122983247D01*
X160075800Y-123001351D01*
X160051092Y-123018049D01*
X160025485Y-123033310D01*
X159998999Y-123047101D01*
X159971658Y-123059391D01*
X159943484Y-123070146D01*
X159914498Y-123079335D01*
X159884723Y-123086926D01*
X159854182Y-123092886D01*
X159822895Y-123097183D01*
X159790886Y-123099785D01*
X159758177Y-123100659D01*
X159725463Y-123099783D01*
X159693443Y-123097176D01*
X159662139Y-123092870D01*
X159631573Y-123086899D01*
X159601768Y-123079294D01*
X159572747Y-123070090D01*
X159544533Y-123059317D01*
X159517147Y-123047008D01*
X159490613Y-123033197D01*
X159464954Y-123017916D01*
X159440191Y-123001197D01*
X159416349Y-122983073D01*
X159393448Y-122963576D01*
X159371512Y-122942740D01*
X159350564Y-122920596D01*
X159330626Y-122897178D01*
X159311722Y-122872517D01*
X159293872Y-122846647D01*
X159277101Y-122819599D01*
X159261431Y-122791407D01*
X159246884Y-122762104D01*
X159233483Y-122731721D01*
X159221251Y-122700291D01*
X159210210Y-122667848D01*
X159200384Y-122634423D01*
X159191794Y-122600049D01*
X159184464Y-122564758D01*
X159178415Y-122528584D01*
X159173672Y-122491558D01*
X159170255Y-122453714D01*
X159168189Y-122415084D01*
X159167495Y-122375701D01*
X159453244Y-122375701D01*
X159454619Y-122423378D01*
X159458693Y-122469075D01*
X159465392Y-122512640D01*
X159474638Y-122553922D01*
X159486357Y-122592771D01*
X159500474Y-122629034D01*
X159516912Y-122662561D01*
X159535596Y-122693200D01*
X159545756Y-122707390D01*
X159556450Y-122720801D01*
X159567667Y-122733415D01*
X159579399Y-122745213D01*
X159591635Y-122756175D01*
X159604367Y-122766283D01*
X159617585Y-122775518D01*
X159631279Y-122783861D01*
X159645441Y-122791294D01*
X159660060Y-122797796D01*
X159675127Y-122803351D01*
X159690632Y-122807937D01*
X159706567Y-122811538D01*
X159722922Y-122814133D01*
X159739687Y-122815704D01*
X159756853Y-122816231D01*
X159774019Y-122815700D01*
X159790784Y-122814118D01*
X159807139Y-122811506D01*
X159823074Y-122807883D01*
X159838580Y-122803269D01*
X159853647Y-122797683D01*
X159868265Y-122791145D01*
X159882427Y-122783675D01*
X159896121Y-122775292D01*
X159909339Y-122766016D01*
X159922071Y-122755867D01*
X159934307Y-122744864D01*
X159946039Y-122733026D01*
X159957256Y-122720374D01*
X159967950Y-122706926D01*
X159978111Y-122692704D01*
X159987729Y-122677725D01*
X159996795Y-122662011D01*
X160005299Y-122645580D01*
X160013232Y-122628452D01*
X160020586Y-122610647D01*
X160027349Y-122592184D01*
X160033513Y-122573083D01*
X160039068Y-122553363D01*
X160044005Y-122533045D01*
X160048315Y-122512148D01*
X160051987Y-122490691D01*
X160055013Y-122468694D01*
X160057383Y-122446177D01*
X160059087Y-122423159D01*
X160060117Y-122399660D01*
X160060462Y-122375700D01*
X160059087Y-122328001D01*
X160055013Y-122282241D01*
X160048315Y-122238578D01*
X160039068Y-122197169D01*
X160027349Y-122158170D01*
X160013232Y-122121739D01*
X159996795Y-122088033D01*
X159978111Y-122057208D01*
X159967950Y-122042926D01*
X159957256Y-122029422D01*
X159946039Y-122016718D01*
X159934307Y-122004832D01*
X159922071Y-121993784D01*
X159909339Y-121983594D01*
X159896121Y-121974281D01*
X159882427Y-121965865D01*
X159868265Y-121958366D01*
X159853647Y-121951803D01*
X159838580Y-121946196D01*
X159823074Y-121941564D01*
X159807139Y-121937928D01*
X159790784Y-121935306D01*
X159774019Y-121933718D01*
X159756853Y-121933185D01*
X159739687Y-121933718D01*
X159722922Y-121935306D01*
X159706567Y-121937928D01*
X159690632Y-121941564D01*
X159675127Y-121946196D01*
X159660060Y-121951803D01*
X159645441Y-121958366D01*
X159631279Y-121965865D01*
X159617585Y-121974281D01*
X159604367Y-121983593D01*
X159591635Y-121993784D01*
X159579399Y-122004831D01*
X159567667Y-122016717D01*
X159556450Y-122029422D01*
X159545756Y-122042925D01*
X159535596Y-122057208D01*
X159525978Y-122072250D01*
X159516912Y-122088033D01*
X159508407Y-122104536D01*
X159500474Y-122121739D01*
X159493121Y-122139624D01*
X159486357Y-122158170D01*
X159480193Y-122177358D01*
X159474638Y-122197169D01*
X159469701Y-122217582D01*
X159465392Y-122238578D01*
X159461719Y-122260138D01*
X159458693Y-122282241D01*
X159456324Y-122304869D01*
X159454619Y-122328001D01*
X159453590Y-122351618D01*
X159453244Y-122375701D01*
X159167495Y-122375701D01*
X159167494Y-122375701D01*
X159170247Y-122297570D01*
X159178387Y-122222599D01*
X159191736Y-122151046D01*
X159210116Y-122083171D01*
X159221137Y-122050693D01*
X159233349Y-122019233D01*
X159246729Y-121988822D01*
X159261255Y-121959493D01*
X159276906Y-121931278D01*
X159293658Y-121904210D01*
X159311489Y-121878322D01*
X159330378Y-121853644D01*
X159350301Y-121830211D01*
X159371237Y-121808055D01*
X159393163Y-121787207D01*
X159416057Y-121767701D01*
X159439897Y-121749569D01*
X159464660Y-121732843D01*
X159490325Y-121717557D01*
X159516868Y-121703741D01*
X159544268Y-121691429D01*
X159572502Y-121680654D01*
X159601547Y-121671447D01*
X159631383Y-121663842D01*
X159661986Y-121657870D01*
X159693334Y-121653564D01*
X159725405Y-121650957D01*
X159758177Y-121650080D01*
X159790944Y-121650957D01*
G37*
G36*
X158839461Y-122761570D02*
G01*
X158848659Y-122762283D01*
X158857733Y-122763454D01*
X158866670Y-122765073D01*
X158875459Y-122767126D01*
X158884086Y-122769602D01*
X158892541Y-122772487D01*
X158900811Y-122775769D01*
X158908885Y-122779435D01*
X158916750Y-122783474D01*
X158924394Y-122787873D01*
X158931806Y-122792619D01*
X158938972Y-122797700D01*
X158945883Y-122803103D01*
X158952524Y-122808816D01*
X158958885Y-122814826D01*
X158964954Y-122821121D01*
X158970717Y-122827688D01*
X158976165Y-122834516D01*
X158981283Y-122841590D01*
X158986061Y-122848900D01*
X158990487Y-122856432D01*
X158994547Y-122864174D01*
X158998232Y-122872114D01*
X159001528Y-122880239D01*
X159004423Y-122888536D01*
X159006905Y-122896994D01*
X159008964Y-122905599D01*
X159010585Y-122914339D01*
X159011759Y-122923202D01*
X159012471Y-122932176D01*
X159012712Y-122941247D01*
X159012471Y-122950316D01*
X159011759Y-122959284D01*
X159010585Y-122968138D01*
X159008964Y-122976866D01*
X159006905Y-122985456D01*
X159004423Y-122993896D01*
X159001528Y-123002174D01*
X158998232Y-123010276D01*
X158994547Y-123018192D01*
X158990487Y-123025908D01*
X158986061Y-123033413D01*
X158981283Y-123040694D01*
X158976165Y-123047740D01*
X158970717Y-123054537D01*
X158964954Y-123061073D01*
X158958885Y-123067337D01*
X158952524Y-123073317D01*
X158945883Y-123078999D01*
X158938972Y-123084371D01*
X158931806Y-123089423D01*
X158924394Y-123094140D01*
X158916750Y-123098511D01*
X158908885Y-123102524D01*
X158900811Y-123106167D01*
X158892541Y-123109427D01*
X158884086Y-123112292D01*
X158875459Y-123114750D01*
X158866670Y-123116788D01*
X158857733Y-123118394D01*
X158848659Y-123119557D01*
X158839461Y-123120264D01*
X158830150Y-123120502D01*
X158820838Y-123120269D01*
X158811640Y-123119579D01*
X158802566Y-123118442D01*
X158793629Y-123116869D01*
X158784840Y-123114872D01*
X158776213Y-123112462D01*
X158767758Y-123109650D01*
X158759487Y-123106446D01*
X158751414Y-123102863D01*
X158743549Y-123098911D01*
X158735905Y-123094602D01*
X158728493Y-123089946D01*
X158721326Y-123084955D01*
X158714416Y-123079640D01*
X158707775Y-123074012D01*
X158701414Y-123068082D01*
X158695345Y-123061861D01*
X158689582Y-123055361D01*
X158684134Y-123048592D01*
X158679016Y-123041566D01*
X158674238Y-123034294D01*
X158669813Y-123026788D01*
X158665752Y-123019057D01*
X158662067Y-123011113D01*
X158658772Y-123002968D01*
X158655876Y-122994633D01*
X158653394Y-122986119D01*
X158651336Y-122977436D01*
X158649714Y-122968596D01*
X158648541Y-122959611D01*
X158647828Y-122950490D01*
X158647588Y-122941247D01*
X158647828Y-122932117D01*
X158648541Y-122923093D01*
X158649714Y-122914187D01*
X158651336Y-122905409D01*
X158653394Y-122896773D01*
X158655876Y-122888291D01*
X158658772Y-122879974D01*
X158662067Y-122871835D01*
X158665752Y-122863886D01*
X158669813Y-122856139D01*
X158674238Y-122848606D01*
X158679016Y-122841299D01*
X158684134Y-122834231D01*
X158689582Y-122827413D01*
X158695345Y-122820858D01*
X158701414Y-122814578D01*
X158707775Y-122808584D01*
X158714416Y-122802889D01*
X158721326Y-122797505D01*
X158728493Y-122792445D01*
X158735905Y-122787719D01*
X158743549Y-122783341D01*
X158751414Y-122779323D01*
X158759487Y-122775676D01*
X158767758Y-122772412D01*
X158776213Y-122769545D01*
X158784840Y-122767085D01*
X158793629Y-122765046D01*
X158802566Y-122763438D01*
X158811640Y-122762275D01*
X158820838Y-122761569D01*
X158830150Y-122761330D01*
X158839461Y-122761570D01*
G37*
D11*
X162267142Y-123714819D02*
X161933809Y-123238628D01*
X161695714Y-123714819D02*
X161695714Y-122714819D01*
X161695714Y-122714819D02*
X162076666Y-122714819D01*
X162076666Y-122714819D02*
X162171904Y-122762438D01*
X162171904Y-122762438D02*
X162219523Y-122810057D01*
X162219523Y-122810057D02*
X162267142Y-122905295D01*
X162267142Y-122905295D02*
X162267142Y-123048152D01*
X162267142Y-123048152D02*
X162219523Y-123143390D01*
X162219523Y-123143390D02*
X162171904Y-123191009D01*
X162171904Y-123191009D02*
X162076666Y-123238628D01*
X162076666Y-123238628D02*
X161695714Y-123238628D01*
X163219523Y-123714819D02*
X162648095Y-123714819D01*
X162933809Y-123714819D02*
X162933809Y-122714819D01*
X162933809Y-122714819D02*
X162838571Y-122857676D01*
X162838571Y-122857676D02*
X162743333Y-122952914D01*
X162743333Y-122952914D02*
X162648095Y-123000533D01*
X164076666Y-123048152D02*
X164076666Y-123714819D01*
X163838571Y-122667200D02*
X163600476Y-123381485D01*
X163600476Y-123381485D02*
X164219523Y-123381485D01*
X143354819Y-94588094D02*
X142354819Y-94588094D01*
X142354819Y-94588094D02*
X142354819Y-94349999D01*
X142354819Y-94349999D02*
X142402438Y-94207142D01*
X142402438Y-94207142D02*
X142497676Y-94111904D01*
X142497676Y-94111904D02*
X142592914Y-94064285D01*
X142592914Y-94064285D02*
X142783390Y-94016666D01*
X142783390Y-94016666D02*
X142926247Y-94016666D01*
X142926247Y-94016666D02*
X143116723Y-94064285D01*
X143116723Y-94064285D02*
X143211961Y-94111904D01*
X143211961Y-94111904D02*
X143307200Y-94207142D01*
X143307200Y-94207142D02*
X143354819Y-94349999D01*
X143354819Y-94349999D02*
X143354819Y-94588094D01*
X143354819Y-93064285D02*
X143354819Y-93635713D01*
X143354819Y-93349999D02*
X142354819Y-93349999D01*
X142354819Y-93349999D02*
X142497676Y-93445237D01*
X142497676Y-93445237D02*
X142592914Y-93540475D01*
X142592914Y-93540475D02*
X142640533Y-93635713D01*
D12*
X141250475Y-117513842D02*
X141431904Y-117574318D01*
X141431904Y-117574318D02*
X141734285Y-117574318D01*
X141734285Y-117574318D02*
X141855237Y-117513842D01*
X141855237Y-117513842D02*
X141915713Y-117453365D01*
X141915713Y-117453365D02*
X141976190Y-117332413D01*
X141976190Y-117332413D02*
X141976190Y-117211461D01*
X141976190Y-117211461D02*
X141915713Y-117090508D01*
X141915713Y-117090508D02*
X141855237Y-117030032D01*
X141855237Y-117030032D02*
X141734285Y-116969556D01*
X141734285Y-116969556D02*
X141492380Y-116909080D01*
X141492380Y-116909080D02*
X141371428Y-116848603D01*
X141371428Y-116848603D02*
X141310951Y-116788127D01*
X141310951Y-116788127D02*
X141250475Y-116667175D01*
X141250475Y-116667175D02*
X141250475Y-116546222D01*
X141250475Y-116546222D02*
X141310951Y-116425270D01*
X141310951Y-116425270D02*
X141371428Y-116364794D01*
X141371428Y-116364794D02*
X141492380Y-116304318D01*
X141492380Y-116304318D02*
X141794761Y-116304318D01*
X141794761Y-116304318D02*
X141976190Y-116364794D01*
X142520475Y-116909080D02*
X142943809Y-116909080D01*
X143125237Y-117574318D02*
X142520475Y-117574318D01*
X142520475Y-117574318D02*
X142520475Y-116304318D01*
X142520475Y-116304318D02*
X143125237Y-116304318D01*
X144274285Y-117574318D02*
X143669523Y-117574318D01*
X143669523Y-117574318D02*
X143669523Y-116304318D01*
X144697618Y-116909080D02*
X145120952Y-116909080D01*
X145302380Y-117574318D02*
X144697618Y-117574318D01*
X144697618Y-117574318D02*
X144697618Y-116304318D01*
X144697618Y-116304318D02*
X145302380Y-116304318D01*
X146572381Y-117453365D02*
X146511905Y-117513842D01*
X146511905Y-117513842D02*
X146330476Y-117574318D01*
X146330476Y-117574318D02*
X146209524Y-117574318D01*
X146209524Y-117574318D02*
X146028095Y-117513842D01*
X146028095Y-117513842D02*
X145907143Y-117392889D01*
X145907143Y-117392889D02*
X145846666Y-117271937D01*
X145846666Y-117271937D02*
X145786190Y-117030032D01*
X145786190Y-117030032D02*
X145786190Y-116848603D01*
X145786190Y-116848603D02*
X145846666Y-116606699D01*
X145846666Y-116606699D02*
X145907143Y-116485746D01*
X145907143Y-116485746D02*
X146028095Y-116364794D01*
X146028095Y-116364794D02*
X146209524Y-116304318D01*
X146209524Y-116304318D02*
X146330476Y-116304318D01*
X146330476Y-116304318D02*
X146511905Y-116364794D01*
X146511905Y-116364794D02*
X146572381Y-116425270D01*
X146935238Y-116304318D02*
X147660952Y-116304318D01*
X147298095Y-117574318D02*
X147298095Y-116304318D01*
X148749524Y-117574318D02*
X148023809Y-117574318D01*
X148386666Y-117574318D02*
X148386666Y-116304318D01*
X148386666Y-116304318D02*
X148265714Y-116485746D01*
X148265714Y-116485746D02*
X148144762Y-116606699D01*
X148144762Y-116606699D02*
X148023809Y-116667175D01*
D11*
X159100595Y-86704819D02*
X159100595Y-87514342D01*
X159100595Y-87514342D02*
X159148214Y-87609580D01*
X159148214Y-87609580D02*
X159195833Y-87657200D01*
X159195833Y-87657200D02*
X159291071Y-87704819D01*
X159291071Y-87704819D02*
X159481547Y-87704819D01*
X159481547Y-87704819D02*
X159576785Y-87657200D01*
X159576785Y-87657200D02*
X159624404Y-87609580D01*
X159624404Y-87609580D02*
X159672023Y-87514342D01*
X159672023Y-87514342D02*
X159672023Y-86704819D01*
X160052976Y-86704819D02*
X160672023Y-86704819D01*
X160672023Y-86704819D02*
X160338690Y-87085771D01*
X160338690Y-87085771D02*
X160481547Y-87085771D01*
X160481547Y-87085771D02*
X160576785Y-87133390D01*
X160576785Y-87133390D02*
X160624404Y-87181009D01*
X160624404Y-87181009D02*
X160672023Y-87276247D01*
X160672023Y-87276247D02*
X160672023Y-87514342D01*
X160672023Y-87514342D02*
X160624404Y-87609580D01*
X160624404Y-87609580D02*
X160576785Y-87657200D01*
X160576785Y-87657200D02*
X160481547Y-87704819D01*
X160481547Y-87704819D02*
X160195833Y-87704819D01*
X160195833Y-87704819D02*
X160100595Y-87657200D01*
X160100595Y-87657200D02*
X160052976Y-87609580D01*
D12*
X142066904Y-111074318D02*
X142066904Y-109804318D01*
X142066904Y-109804318D02*
X142490238Y-110711461D01*
X142490238Y-110711461D02*
X142913571Y-109804318D01*
X142913571Y-109804318D02*
X142913571Y-111074318D01*
X143518333Y-110409080D02*
X143941667Y-110409080D01*
X144123095Y-111074318D02*
X143518333Y-111074318D01*
X143518333Y-111074318D02*
X143518333Y-109804318D01*
X143518333Y-109804318D02*
X144123095Y-109804318D01*
X144667381Y-111074318D02*
X144667381Y-109804318D01*
X144667381Y-109804318D02*
X145393096Y-111074318D01*
X145393096Y-111074318D02*
X145393096Y-109804318D01*
X145997857Y-109804318D02*
X145997857Y-110832413D01*
X145997857Y-110832413D02*
X146058334Y-110953365D01*
X146058334Y-110953365D02*
X146118810Y-111013842D01*
X146118810Y-111013842D02*
X146239762Y-111074318D01*
X146239762Y-111074318D02*
X146481667Y-111074318D01*
X146481667Y-111074318D02*
X146602619Y-111013842D01*
X146602619Y-111013842D02*
X146663096Y-110953365D01*
X146663096Y-110953365D02*
X146723572Y-110832413D01*
X146723572Y-110832413D02*
X146723572Y-109804318D01*
X147993572Y-111074318D02*
X147267857Y-111074318D01*
X147630714Y-111074318D02*
X147630714Y-109804318D01*
X147630714Y-109804318D02*
X147509762Y-109985746D01*
X147509762Y-109985746D02*
X147388810Y-110106699D01*
X147388810Y-110106699D02*
X147267857Y-110167175D01*
D11*
X145833333Y-82054819D02*
X145500000Y-81578628D01*
X145261905Y-82054819D02*
X145261905Y-81054819D01*
X145261905Y-81054819D02*
X145642857Y-81054819D01*
X145642857Y-81054819D02*
X145738095Y-81102438D01*
X145738095Y-81102438D02*
X145785714Y-81150057D01*
X145785714Y-81150057D02*
X145833333Y-81245295D01*
X145833333Y-81245295D02*
X145833333Y-81388152D01*
X145833333Y-81388152D02*
X145785714Y-81483390D01*
X145785714Y-81483390D02*
X145738095Y-81531009D01*
X145738095Y-81531009D02*
X145642857Y-81578628D01*
X145642857Y-81578628D02*
X145261905Y-81578628D01*
X146738095Y-81054819D02*
X146261905Y-81054819D01*
X146261905Y-81054819D02*
X146214286Y-81531009D01*
X146214286Y-81531009D02*
X146261905Y-81483390D01*
X146261905Y-81483390D02*
X146357143Y-81435771D01*
X146357143Y-81435771D02*
X146595238Y-81435771D01*
X146595238Y-81435771D02*
X146690476Y-81483390D01*
X146690476Y-81483390D02*
X146738095Y-81531009D01*
X146738095Y-81531009D02*
X146785714Y-81626247D01*
X146785714Y-81626247D02*
X146785714Y-81864342D01*
X146785714Y-81864342D02*
X146738095Y-81959580D01*
X146738095Y-81959580D02*
X146690476Y-82007200D01*
X146690476Y-82007200D02*
X146595238Y-82054819D01*
X146595238Y-82054819D02*
X146357143Y-82054819D01*
X146357143Y-82054819D02*
X146261905Y-82007200D01*
X146261905Y-82007200D02*
X146214286Y-81959580D01*
X146169819Y-99948333D02*
X146884104Y-99948333D01*
X146884104Y-99948333D02*
X147026961Y-99995952D01*
X147026961Y-99995952D02*
X147122200Y-100091190D01*
X147122200Y-100091190D02*
X147169819Y-100234047D01*
X147169819Y-100234047D02*
X147169819Y-100329285D01*
X147169819Y-98948333D02*
X147169819Y-99519761D01*
X147169819Y-99234047D02*
X146169819Y-99234047D01*
X146169819Y-99234047D02*
X146312676Y-99329285D01*
X146312676Y-99329285D02*
X146407914Y-99424523D01*
X146407914Y-99424523D02*
X146455533Y-99519761D01*
X156609580Y-109192857D02*
X156657200Y-109240476D01*
X156657200Y-109240476D02*
X156704819Y-109383333D01*
X156704819Y-109383333D02*
X156704819Y-109478571D01*
X156704819Y-109478571D02*
X156657200Y-109621428D01*
X156657200Y-109621428D02*
X156561961Y-109716666D01*
X156561961Y-109716666D02*
X156466723Y-109764285D01*
X156466723Y-109764285D02*
X156276247Y-109811904D01*
X156276247Y-109811904D02*
X156133390Y-109811904D01*
X156133390Y-109811904D02*
X155942914Y-109764285D01*
X155942914Y-109764285D02*
X155847676Y-109716666D01*
X155847676Y-109716666D02*
X155752438Y-109621428D01*
X155752438Y-109621428D02*
X155704819Y-109478571D01*
X155704819Y-109478571D02*
X155704819Y-109383333D01*
X155704819Y-109383333D02*
X155752438Y-109240476D01*
X155752438Y-109240476D02*
X155800057Y-109192857D01*
X156704819Y-108240476D02*
X156704819Y-108811904D01*
X156704819Y-108526190D02*
X155704819Y-108526190D01*
X155704819Y-108526190D02*
X155847676Y-108621428D01*
X155847676Y-108621428D02*
X155942914Y-108716666D01*
X155942914Y-108716666D02*
X155990533Y-108811904D01*
X156704819Y-107288095D02*
X156704819Y-107859523D01*
X156704819Y-107573809D02*
X155704819Y-107573809D01*
X155704819Y-107573809D02*
X155847676Y-107669047D01*
X155847676Y-107669047D02*
X155942914Y-107764285D01*
X155942914Y-107764285D02*
X155990533Y-107859523D01*
X161583333Y-112454819D02*
X161250000Y-111978628D01*
X161011905Y-112454819D02*
X161011905Y-111454819D01*
X161011905Y-111454819D02*
X161392857Y-111454819D01*
X161392857Y-111454819D02*
X161488095Y-111502438D01*
X161488095Y-111502438D02*
X161535714Y-111550057D01*
X161535714Y-111550057D02*
X161583333Y-111645295D01*
X161583333Y-111645295D02*
X161583333Y-111788152D01*
X161583333Y-111788152D02*
X161535714Y-111883390D01*
X161535714Y-111883390D02*
X161488095Y-111931009D01*
X161488095Y-111931009D02*
X161392857Y-111978628D01*
X161392857Y-111978628D02*
X161011905Y-111978628D01*
X161964286Y-111550057D02*
X162011905Y-111502438D01*
X162011905Y-111502438D02*
X162107143Y-111454819D01*
X162107143Y-111454819D02*
X162345238Y-111454819D01*
X162345238Y-111454819D02*
X162440476Y-111502438D01*
X162440476Y-111502438D02*
X162488095Y-111550057D01*
X162488095Y-111550057D02*
X162535714Y-111645295D01*
X162535714Y-111645295D02*
X162535714Y-111740533D01*
X162535714Y-111740533D02*
X162488095Y-111883390D01*
X162488095Y-111883390D02*
X161916667Y-112454819D01*
X161916667Y-112454819D02*
X162535714Y-112454819D01*
X163404761Y-85300057D02*
X163309523Y-85252438D01*
X163309523Y-85252438D02*
X163214285Y-85157200D01*
X163214285Y-85157200D02*
X163071428Y-85014342D01*
X163071428Y-85014342D02*
X162976190Y-84966723D01*
X162976190Y-84966723D02*
X162880952Y-84966723D01*
X162928571Y-85204819D02*
X162833333Y-85157200D01*
X162833333Y-85157200D02*
X162738095Y-85061961D01*
X162738095Y-85061961D02*
X162690476Y-84871485D01*
X162690476Y-84871485D02*
X162690476Y-84538152D01*
X162690476Y-84538152D02*
X162738095Y-84347676D01*
X162738095Y-84347676D02*
X162833333Y-84252438D01*
X162833333Y-84252438D02*
X162928571Y-84204819D01*
X162928571Y-84204819D02*
X163119047Y-84204819D01*
X163119047Y-84204819D02*
X163214285Y-84252438D01*
X163214285Y-84252438D02*
X163309523Y-84347676D01*
X163309523Y-84347676D02*
X163357142Y-84538152D01*
X163357142Y-84538152D02*
X163357142Y-84871485D01*
X163357142Y-84871485D02*
X163309523Y-85061961D01*
X163309523Y-85061961D02*
X163214285Y-85157200D01*
X163214285Y-85157200D02*
X163119047Y-85204819D01*
X163119047Y-85204819D02*
X162928571Y-85204819D01*
X163690476Y-84204819D02*
X164309523Y-84204819D01*
X164309523Y-84204819D02*
X163976190Y-84585771D01*
X163976190Y-84585771D02*
X164119047Y-84585771D01*
X164119047Y-84585771D02*
X164214285Y-84633390D01*
X164214285Y-84633390D02*
X164261904Y-84681009D01*
X164261904Y-84681009D02*
X164309523Y-84776247D01*
X164309523Y-84776247D02*
X164309523Y-85014342D01*
X164309523Y-85014342D02*
X164261904Y-85109580D01*
X164261904Y-85109580D02*
X164214285Y-85157200D01*
X164214285Y-85157200D02*
X164119047Y-85204819D01*
X164119047Y-85204819D02*
X163833333Y-85204819D01*
X163833333Y-85204819D02*
X163738095Y-85157200D01*
X163738095Y-85157200D02*
X163690476Y-85109580D01*
X143704819Y-85666666D02*
X143228628Y-85999999D01*
X143704819Y-86238094D02*
X142704819Y-86238094D01*
X142704819Y-86238094D02*
X142704819Y-85857142D01*
X142704819Y-85857142D02*
X142752438Y-85761904D01*
X142752438Y-85761904D02*
X142800057Y-85714285D01*
X142800057Y-85714285D02*
X142895295Y-85666666D01*
X142895295Y-85666666D02*
X143038152Y-85666666D01*
X143038152Y-85666666D02*
X143133390Y-85714285D01*
X143133390Y-85714285D02*
X143181009Y-85761904D01*
X143181009Y-85761904D02*
X143228628Y-85857142D01*
X143228628Y-85857142D02*
X143228628Y-86238094D01*
X143038152Y-84809523D02*
X143704819Y-84809523D01*
X142657200Y-85047618D02*
X143371485Y-85285713D01*
X143371485Y-85285713D02*
X143371485Y-84666666D01*
X170457142Y-125259580D02*
X170409523Y-125307200D01*
X170409523Y-125307200D02*
X170266666Y-125354819D01*
X170266666Y-125354819D02*
X170171428Y-125354819D01*
X170171428Y-125354819D02*
X170028571Y-125307200D01*
X170028571Y-125307200D02*
X169933333Y-125211961D01*
X169933333Y-125211961D02*
X169885714Y-125116723D01*
X169885714Y-125116723D02*
X169838095Y-124926247D01*
X169838095Y-124926247D02*
X169838095Y-124783390D01*
X169838095Y-124783390D02*
X169885714Y-124592914D01*
X169885714Y-124592914D02*
X169933333Y-124497676D01*
X169933333Y-124497676D02*
X170028571Y-124402438D01*
X170028571Y-124402438D02*
X170171428Y-124354819D01*
X170171428Y-124354819D02*
X170266666Y-124354819D01*
X170266666Y-124354819D02*
X170409523Y-124402438D01*
X170409523Y-124402438D02*
X170457142Y-124450057D01*
X171409523Y-125354819D02*
X170838095Y-125354819D01*
X171123809Y-125354819D02*
X171123809Y-124354819D01*
X171123809Y-124354819D02*
X171028571Y-124497676D01*
X171028571Y-124497676D02*
X170933333Y-124592914D01*
X170933333Y-124592914D02*
X170838095Y-124640533D01*
X172314285Y-124354819D02*
X171838095Y-124354819D01*
X171838095Y-124354819D02*
X171790476Y-124831009D01*
X171790476Y-124831009D02*
X171838095Y-124783390D01*
X171838095Y-124783390D02*
X171933333Y-124735771D01*
X171933333Y-124735771D02*
X172171428Y-124735771D01*
X172171428Y-124735771D02*
X172266666Y-124783390D01*
X172266666Y-124783390D02*
X172314285Y-124831009D01*
X172314285Y-124831009D02*
X172361904Y-124926247D01*
X172361904Y-124926247D02*
X172361904Y-125164342D01*
X172361904Y-125164342D02*
X172314285Y-125259580D01*
X172314285Y-125259580D02*
X172266666Y-125307200D01*
X172266666Y-125307200D02*
X172171428Y-125354819D01*
X172171428Y-125354819D02*
X171933333Y-125354819D01*
X171933333Y-125354819D02*
X171838095Y-125307200D01*
X171838095Y-125307200D02*
X171790476Y-125259580D01*
X146454819Y-126833333D02*
X147169104Y-126833333D01*
X147169104Y-126833333D02*
X147311961Y-126880952D01*
X147311961Y-126880952D02*
X147407200Y-126976190D01*
X147407200Y-126976190D02*
X147454819Y-127119047D01*
X147454819Y-127119047D02*
X147454819Y-127214285D01*
X146454819Y-126452380D02*
X146454819Y-125785714D01*
X146454819Y-125785714D02*
X147454819Y-126214285D01*
D12*
X166671667Y-113159080D02*
X166853095Y-113219556D01*
X166853095Y-113219556D02*
X166913572Y-113280032D01*
X166913572Y-113280032D02*
X166974048Y-113400984D01*
X166974048Y-113400984D02*
X166974048Y-113582413D01*
X166974048Y-113582413D02*
X166913572Y-113703365D01*
X166913572Y-113703365D02*
X166853095Y-113763842D01*
X166853095Y-113763842D02*
X166732143Y-113824318D01*
X166732143Y-113824318D02*
X166248333Y-113824318D01*
X166248333Y-113824318D02*
X166248333Y-112554318D01*
X166248333Y-112554318D02*
X166671667Y-112554318D01*
X166671667Y-112554318D02*
X166792619Y-112614794D01*
X166792619Y-112614794D02*
X166853095Y-112675270D01*
X166853095Y-112675270D02*
X166913572Y-112796222D01*
X166913572Y-112796222D02*
X166913572Y-112917175D01*
X166913572Y-112917175D02*
X166853095Y-113038127D01*
X166853095Y-113038127D02*
X166792619Y-113098603D01*
X166792619Y-113098603D02*
X166671667Y-113159080D01*
X166671667Y-113159080D02*
X166248333Y-113159080D01*
X167760238Y-112554318D02*
X168002143Y-112554318D01*
X168002143Y-112554318D02*
X168123095Y-112614794D01*
X168123095Y-112614794D02*
X168244048Y-112735746D01*
X168244048Y-112735746D02*
X168304524Y-112977651D01*
X168304524Y-112977651D02*
X168304524Y-113400984D01*
X168304524Y-113400984D02*
X168244048Y-113642889D01*
X168244048Y-113642889D02*
X168123095Y-113763842D01*
X168123095Y-113763842D02*
X168002143Y-113824318D01*
X168002143Y-113824318D02*
X167760238Y-113824318D01*
X167760238Y-113824318D02*
X167639286Y-113763842D01*
X167639286Y-113763842D02*
X167518333Y-113642889D01*
X167518333Y-113642889D02*
X167457857Y-113400984D01*
X167457857Y-113400984D02*
X167457857Y-112977651D01*
X167457857Y-112977651D02*
X167518333Y-112735746D01*
X167518333Y-112735746D02*
X167639286Y-112614794D01*
X167639286Y-112614794D02*
X167760238Y-112554318D01*
X169090714Y-112554318D02*
X169332619Y-112554318D01*
X169332619Y-112554318D02*
X169453571Y-112614794D01*
X169453571Y-112614794D02*
X169574524Y-112735746D01*
X169574524Y-112735746D02*
X169635000Y-112977651D01*
X169635000Y-112977651D02*
X169635000Y-113400984D01*
X169635000Y-113400984D02*
X169574524Y-113642889D01*
X169574524Y-113642889D02*
X169453571Y-113763842D01*
X169453571Y-113763842D02*
X169332619Y-113824318D01*
X169332619Y-113824318D02*
X169090714Y-113824318D01*
X169090714Y-113824318D02*
X168969762Y-113763842D01*
X168969762Y-113763842D02*
X168848809Y-113642889D01*
X168848809Y-113642889D02*
X168788333Y-113400984D01*
X168788333Y-113400984D02*
X168788333Y-112977651D01*
X168788333Y-112977651D02*
X168848809Y-112735746D01*
X168848809Y-112735746D02*
X168969762Y-112614794D01*
X168969762Y-112614794D02*
X169090714Y-112554318D01*
X169997857Y-112554318D02*
X170723571Y-112554318D01*
X170360714Y-113824318D02*
X170360714Y-112554318D01*
X171812143Y-113824318D02*
X171086428Y-113824318D01*
X171449285Y-113824318D02*
X171449285Y-112554318D01*
X171449285Y-112554318D02*
X171328333Y-112735746D01*
X171328333Y-112735746D02*
X171207381Y-112856699D01*
X171207381Y-112856699D02*
X171086428Y-112917175D01*
D11*
X168550057Y-87595238D02*
X168502438Y-87690476D01*
X168502438Y-87690476D02*
X168407200Y-87785714D01*
X168407200Y-87785714D02*
X168264342Y-87928571D01*
X168264342Y-87928571D02*
X168216723Y-88023809D01*
X168216723Y-88023809D02*
X168216723Y-88119047D01*
X168454819Y-88071428D02*
X168407200Y-88166666D01*
X168407200Y-88166666D02*
X168311961Y-88261904D01*
X168311961Y-88261904D02*
X168121485Y-88309523D01*
X168121485Y-88309523D02*
X167788152Y-88309523D01*
X167788152Y-88309523D02*
X167597676Y-88261904D01*
X167597676Y-88261904D02*
X167502438Y-88166666D01*
X167502438Y-88166666D02*
X167454819Y-88071428D01*
X167454819Y-88071428D02*
X167454819Y-87880952D01*
X167454819Y-87880952D02*
X167502438Y-87785714D01*
X167502438Y-87785714D02*
X167597676Y-87690476D01*
X167597676Y-87690476D02*
X167788152Y-87642857D01*
X167788152Y-87642857D02*
X168121485Y-87642857D01*
X168121485Y-87642857D02*
X168311961Y-87690476D01*
X168311961Y-87690476D02*
X168407200Y-87785714D01*
X168407200Y-87785714D02*
X168454819Y-87880952D01*
X168454819Y-87880952D02*
X168454819Y-88071428D01*
X167550057Y-87261904D02*
X167502438Y-87214285D01*
X167502438Y-87214285D02*
X167454819Y-87119047D01*
X167454819Y-87119047D02*
X167454819Y-86880952D01*
X167454819Y-86880952D02*
X167502438Y-86785714D01*
X167502438Y-86785714D02*
X167550057Y-86738095D01*
X167550057Y-86738095D02*
X167645295Y-86690476D01*
X167645295Y-86690476D02*
X167740533Y-86690476D01*
X167740533Y-86690476D02*
X167883390Y-86738095D01*
X167883390Y-86738095D02*
X168454819Y-87309523D01*
X168454819Y-87309523D02*
X168454819Y-86690476D01*
X160183333Y-106454819D02*
X159850000Y-105978628D01*
X159611905Y-106454819D02*
X159611905Y-105454819D01*
X159611905Y-105454819D02*
X159992857Y-105454819D01*
X159992857Y-105454819D02*
X160088095Y-105502438D01*
X160088095Y-105502438D02*
X160135714Y-105550057D01*
X160135714Y-105550057D02*
X160183333Y-105645295D01*
X160183333Y-105645295D02*
X160183333Y-105788152D01*
X160183333Y-105788152D02*
X160135714Y-105883390D01*
X160135714Y-105883390D02*
X160088095Y-105931009D01*
X160088095Y-105931009D02*
X159992857Y-105978628D01*
X159992857Y-105978628D02*
X159611905Y-105978628D01*
X161135714Y-106454819D02*
X160564286Y-106454819D01*
X160850000Y-106454819D02*
X160850000Y-105454819D01*
X160850000Y-105454819D02*
X160754762Y-105597676D01*
X160754762Y-105597676D02*
X160659524Y-105692914D01*
X160659524Y-105692914D02*
X160564286Y-105740533D01*
D12*
X152252142Y-69713842D02*
X152433571Y-69774318D01*
X152433571Y-69774318D02*
X152735952Y-69774318D01*
X152735952Y-69774318D02*
X152856904Y-69713842D01*
X152856904Y-69713842D02*
X152917380Y-69653365D01*
X152917380Y-69653365D02*
X152977857Y-69532413D01*
X152977857Y-69532413D02*
X152977857Y-69411461D01*
X152977857Y-69411461D02*
X152917380Y-69290508D01*
X152917380Y-69290508D02*
X152856904Y-69230032D01*
X152856904Y-69230032D02*
X152735952Y-69169556D01*
X152735952Y-69169556D02*
X152494047Y-69109080D01*
X152494047Y-69109080D02*
X152373095Y-69048603D01*
X152373095Y-69048603D02*
X152312618Y-68988127D01*
X152312618Y-68988127D02*
X152252142Y-68867175D01*
X152252142Y-68867175D02*
X152252142Y-68746222D01*
X152252142Y-68746222D02*
X152312618Y-68625270D01*
X152312618Y-68625270D02*
X152373095Y-68564794D01*
X152373095Y-68564794D02*
X152494047Y-68504318D01*
X152494047Y-68504318D02*
X152796428Y-68504318D01*
X152796428Y-68504318D02*
X152977857Y-68564794D01*
X153401190Y-68504318D02*
X153703571Y-69774318D01*
X153703571Y-69774318D02*
X153945476Y-68867175D01*
X153945476Y-68867175D02*
X154187381Y-69774318D01*
X154187381Y-69774318D02*
X154489762Y-68504318D01*
X154671191Y-69895270D02*
X155638810Y-69895270D01*
X155941190Y-69774318D02*
X155941190Y-68504318D01*
X155941190Y-68504318D02*
X156425000Y-68504318D01*
X156425000Y-68504318D02*
X156545952Y-68564794D01*
X156545952Y-68564794D02*
X156606429Y-68625270D01*
X156606429Y-68625270D02*
X156666905Y-68746222D01*
X156666905Y-68746222D02*
X156666905Y-68927651D01*
X156666905Y-68927651D02*
X156606429Y-69048603D01*
X156606429Y-69048603D02*
X156545952Y-69109080D01*
X156545952Y-69109080D02*
X156425000Y-69169556D01*
X156425000Y-69169556D02*
X155941190Y-69169556D01*
X157090238Y-68504318D02*
X157392619Y-69774318D01*
X157392619Y-69774318D02*
X157634524Y-68867175D01*
X157634524Y-68867175D02*
X157876429Y-69774318D01*
X157876429Y-69774318D02*
X158178810Y-68504318D01*
X159388334Y-69774318D02*
X158965000Y-69169556D01*
X158662619Y-69774318D02*
X158662619Y-68504318D01*
X158662619Y-68504318D02*
X159146429Y-68504318D01*
X159146429Y-68504318D02*
X159267381Y-68564794D01*
X159267381Y-68564794D02*
X159327858Y-68625270D01*
X159327858Y-68625270D02*
X159388334Y-68746222D01*
X159388334Y-68746222D02*
X159388334Y-68927651D01*
X159388334Y-68927651D02*
X159327858Y-69048603D01*
X159327858Y-69048603D02*
X159267381Y-69109080D01*
X159267381Y-69109080D02*
X159146429Y-69169556D01*
X159146429Y-69169556D02*
X158662619Y-69169556D01*
X160597858Y-69774318D02*
X159872143Y-69774318D01*
X160235000Y-69774318D02*
X160235000Y-68504318D01*
X160235000Y-68504318D02*
X160114048Y-68685746D01*
X160114048Y-68685746D02*
X159993096Y-68806699D01*
X159993096Y-68806699D02*
X159872143Y-68867175D01*
D11*
X158109580Y-109192857D02*
X158157200Y-109240476D01*
X158157200Y-109240476D02*
X158204819Y-109383333D01*
X158204819Y-109383333D02*
X158204819Y-109478571D01*
X158204819Y-109478571D02*
X158157200Y-109621428D01*
X158157200Y-109621428D02*
X158061961Y-109716666D01*
X158061961Y-109716666D02*
X157966723Y-109764285D01*
X157966723Y-109764285D02*
X157776247Y-109811904D01*
X157776247Y-109811904D02*
X157633390Y-109811904D01*
X157633390Y-109811904D02*
X157442914Y-109764285D01*
X157442914Y-109764285D02*
X157347676Y-109716666D01*
X157347676Y-109716666D02*
X157252438Y-109621428D01*
X157252438Y-109621428D02*
X157204819Y-109478571D01*
X157204819Y-109478571D02*
X157204819Y-109383333D01*
X157204819Y-109383333D02*
X157252438Y-109240476D01*
X157252438Y-109240476D02*
X157300057Y-109192857D01*
X158204819Y-108240476D02*
X158204819Y-108811904D01*
X158204819Y-108526190D02*
X157204819Y-108526190D01*
X157204819Y-108526190D02*
X157347676Y-108621428D01*
X157347676Y-108621428D02*
X157442914Y-108716666D01*
X157442914Y-108716666D02*
X157490533Y-108811904D01*
X157204819Y-107621428D02*
X157204819Y-107526190D01*
X157204819Y-107526190D02*
X157252438Y-107430952D01*
X157252438Y-107430952D02*
X157300057Y-107383333D01*
X157300057Y-107383333D02*
X157395295Y-107335714D01*
X157395295Y-107335714D02*
X157585771Y-107288095D01*
X157585771Y-107288095D02*
X157823866Y-107288095D01*
X157823866Y-107288095D02*
X158014342Y-107335714D01*
X158014342Y-107335714D02*
X158109580Y-107383333D01*
X158109580Y-107383333D02*
X158157200Y-107430952D01*
X158157200Y-107430952D02*
X158204819Y-107526190D01*
X158204819Y-107526190D02*
X158204819Y-107621428D01*
X158204819Y-107621428D02*
X158157200Y-107716666D01*
X158157200Y-107716666D02*
X158109580Y-107764285D01*
X158109580Y-107764285D02*
X158014342Y-107811904D01*
X158014342Y-107811904D02*
X157823866Y-107859523D01*
X157823866Y-107859523D02*
X157585771Y-107859523D01*
X157585771Y-107859523D02*
X157395295Y-107811904D01*
X157395295Y-107811904D02*
X157300057Y-107764285D01*
X157300057Y-107764285D02*
X157252438Y-107716666D01*
X157252438Y-107716666D02*
X157204819Y-107621428D01*
X145361905Y-79854819D02*
X145361905Y-78854819D01*
X145361905Y-78854819D02*
X145600000Y-78854819D01*
X145600000Y-78854819D02*
X145742857Y-78902438D01*
X145742857Y-78902438D02*
X145838095Y-78997676D01*
X145838095Y-78997676D02*
X145885714Y-79092914D01*
X145885714Y-79092914D02*
X145933333Y-79283390D01*
X145933333Y-79283390D02*
X145933333Y-79426247D01*
X145933333Y-79426247D02*
X145885714Y-79616723D01*
X145885714Y-79616723D02*
X145838095Y-79711961D01*
X145838095Y-79711961D02*
X145742857Y-79807200D01*
X145742857Y-79807200D02*
X145600000Y-79854819D01*
X145600000Y-79854819D02*
X145361905Y-79854819D01*
X146314286Y-78950057D02*
X146361905Y-78902438D01*
X146361905Y-78902438D02*
X146457143Y-78854819D01*
X146457143Y-78854819D02*
X146695238Y-78854819D01*
X146695238Y-78854819D02*
X146790476Y-78902438D01*
X146790476Y-78902438D02*
X146838095Y-78950057D01*
X146838095Y-78950057D02*
X146885714Y-79045295D01*
X146885714Y-79045295D02*
X146885714Y-79140533D01*
X146885714Y-79140533D02*
X146838095Y-79283390D01*
X146838095Y-79283390D02*
X146266667Y-79854819D01*
X146266667Y-79854819D02*
X146885714Y-79854819D01*
X170457142Y-123759580D02*
X170409523Y-123807200D01*
X170409523Y-123807200D02*
X170266666Y-123854819D01*
X170266666Y-123854819D02*
X170171428Y-123854819D01*
X170171428Y-123854819D02*
X170028571Y-123807200D01*
X170028571Y-123807200D02*
X169933333Y-123711961D01*
X169933333Y-123711961D02*
X169885714Y-123616723D01*
X169885714Y-123616723D02*
X169838095Y-123426247D01*
X169838095Y-123426247D02*
X169838095Y-123283390D01*
X169838095Y-123283390D02*
X169885714Y-123092914D01*
X169885714Y-123092914D02*
X169933333Y-122997676D01*
X169933333Y-122997676D02*
X170028571Y-122902438D01*
X170028571Y-122902438D02*
X170171428Y-122854819D01*
X170171428Y-122854819D02*
X170266666Y-122854819D01*
X170266666Y-122854819D02*
X170409523Y-122902438D01*
X170409523Y-122902438D02*
X170457142Y-122950057D01*
X171409523Y-123854819D02*
X170838095Y-123854819D01*
X171123809Y-123854819D02*
X171123809Y-122854819D01*
X171123809Y-122854819D02*
X171028571Y-122997676D01*
X171028571Y-122997676D02*
X170933333Y-123092914D01*
X170933333Y-123092914D02*
X170838095Y-123140533D01*
X172266666Y-123188152D02*
X172266666Y-123854819D01*
X172028571Y-122807200D02*
X171790476Y-123521485D01*
X171790476Y-123521485D02*
X172409523Y-123521485D01*
X168333333Y-84954819D02*
X168000000Y-84478628D01*
X167761905Y-84954819D02*
X167761905Y-83954819D01*
X167761905Y-83954819D02*
X168142857Y-83954819D01*
X168142857Y-83954819D02*
X168238095Y-84002438D01*
X168238095Y-84002438D02*
X168285714Y-84050057D01*
X168285714Y-84050057D02*
X168333333Y-84145295D01*
X168333333Y-84145295D02*
X168333333Y-84288152D01*
X168333333Y-84288152D02*
X168285714Y-84383390D01*
X168285714Y-84383390D02*
X168238095Y-84431009D01*
X168238095Y-84431009D02*
X168142857Y-84478628D01*
X168142857Y-84478628D02*
X167761905Y-84478628D01*
X168904762Y-84383390D02*
X168809524Y-84335771D01*
X168809524Y-84335771D02*
X168761905Y-84288152D01*
X168761905Y-84288152D02*
X168714286Y-84192914D01*
X168714286Y-84192914D02*
X168714286Y-84145295D01*
X168714286Y-84145295D02*
X168761905Y-84050057D01*
X168761905Y-84050057D02*
X168809524Y-84002438D01*
X168809524Y-84002438D02*
X168904762Y-83954819D01*
X168904762Y-83954819D02*
X169095238Y-83954819D01*
X169095238Y-83954819D02*
X169190476Y-84002438D01*
X169190476Y-84002438D02*
X169238095Y-84050057D01*
X169238095Y-84050057D02*
X169285714Y-84145295D01*
X169285714Y-84145295D02*
X169285714Y-84192914D01*
X169285714Y-84192914D02*
X169238095Y-84288152D01*
X169238095Y-84288152D02*
X169190476Y-84335771D01*
X169190476Y-84335771D02*
X169095238Y-84383390D01*
X169095238Y-84383390D02*
X168904762Y-84383390D01*
X168904762Y-84383390D02*
X168809524Y-84431009D01*
X168809524Y-84431009D02*
X168761905Y-84478628D01*
X168761905Y-84478628D02*
X168714286Y-84573866D01*
X168714286Y-84573866D02*
X168714286Y-84764342D01*
X168714286Y-84764342D02*
X168761905Y-84859580D01*
X168761905Y-84859580D02*
X168809524Y-84907200D01*
X168809524Y-84907200D02*
X168904762Y-84954819D01*
X168904762Y-84954819D02*
X169095238Y-84954819D01*
X169095238Y-84954819D02*
X169190476Y-84907200D01*
X169190476Y-84907200D02*
X169238095Y-84859580D01*
X169238095Y-84859580D02*
X169285714Y-84764342D01*
X169285714Y-84764342D02*
X169285714Y-84573866D01*
X169285714Y-84573866D02*
X169238095Y-84478628D01*
X169238095Y-84478628D02*
X169190476Y-84431009D01*
X169190476Y-84431009D02*
X169095238Y-84383390D01*
X170457142Y-120759580D02*
X170409523Y-120807200D01*
X170409523Y-120807200D02*
X170266666Y-120854819D01*
X170266666Y-120854819D02*
X170171428Y-120854819D01*
X170171428Y-120854819D02*
X170028571Y-120807200D01*
X170028571Y-120807200D02*
X169933333Y-120711961D01*
X169933333Y-120711961D02*
X169885714Y-120616723D01*
X169885714Y-120616723D02*
X169838095Y-120426247D01*
X169838095Y-120426247D02*
X169838095Y-120283390D01*
X169838095Y-120283390D02*
X169885714Y-120092914D01*
X169885714Y-120092914D02*
X169933333Y-119997676D01*
X169933333Y-119997676D02*
X170028571Y-119902438D01*
X170028571Y-119902438D02*
X170171428Y-119854819D01*
X170171428Y-119854819D02*
X170266666Y-119854819D01*
X170266666Y-119854819D02*
X170409523Y-119902438D01*
X170409523Y-119902438D02*
X170457142Y-119950057D01*
X171409523Y-120854819D02*
X170838095Y-120854819D01*
X171123809Y-120854819D02*
X171123809Y-119854819D01*
X171123809Y-119854819D02*
X171028571Y-119997676D01*
X171028571Y-119997676D02*
X170933333Y-120092914D01*
X170933333Y-120092914D02*
X170838095Y-120140533D01*
X171790476Y-119950057D02*
X171838095Y-119902438D01*
X171838095Y-119902438D02*
X171933333Y-119854819D01*
X171933333Y-119854819D02*
X172171428Y-119854819D01*
X172171428Y-119854819D02*
X172266666Y-119902438D01*
X172266666Y-119902438D02*
X172314285Y-119950057D01*
X172314285Y-119950057D02*
X172361904Y-120045295D01*
X172361904Y-120045295D02*
X172361904Y-120140533D01*
X172361904Y-120140533D02*
X172314285Y-120283390D01*
X172314285Y-120283390D02*
X171742857Y-120854819D01*
X171742857Y-120854819D02*
X172361904Y-120854819D01*
D12*
X156101667Y-128454318D02*
X156101667Y-129361461D01*
X156101667Y-129361461D02*
X156041190Y-129542889D01*
X156041190Y-129542889D02*
X155920238Y-129663842D01*
X155920238Y-129663842D02*
X155738809Y-129724318D01*
X155738809Y-129724318D02*
X155617857Y-129724318D01*
X156585476Y-128454318D02*
X157371667Y-128454318D01*
X157371667Y-128454318D02*
X156948333Y-128938127D01*
X156948333Y-128938127D02*
X157129762Y-128938127D01*
X157129762Y-128938127D02*
X157250714Y-128998603D01*
X157250714Y-128998603D02*
X157311190Y-129059080D01*
X157311190Y-129059080D02*
X157371667Y-129180032D01*
X157371667Y-129180032D02*
X157371667Y-129482413D01*
X157371667Y-129482413D02*
X157311190Y-129603365D01*
X157311190Y-129603365D02*
X157250714Y-129663842D01*
X157250714Y-129663842D02*
X157129762Y-129724318D01*
X157129762Y-129724318D02*
X156766905Y-129724318D01*
X156766905Y-129724318D02*
X156645952Y-129663842D01*
X156645952Y-129663842D02*
X156585476Y-129603365D01*
D11*
X146359580Y-85416666D02*
X146407200Y-85464285D01*
X146407200Y-85464285D02*
X146454819Y-85607142D01*
X146454819Y-85607142D02*
X146454819Y-85702380D01*
X146454819Y-85702380D02*
X146407200Y-85845237D01*
X146407200Y-85845237D02*
X146311961Y-85940475D01*
X146311961Y-85940475D02*
X146216723Y-85988094D01*
X146216723Y-85988094D02*
X146026247Y-86035713D01*
X146026247Y-86035713D02*
X145883390Y-86035713D01*
X145883390Y-86035713D02*
X145692914Y-85988094D01*
X145692914Y-85988094D02*
X145597676Y-85940475D01*
X145597676Y-85940475D02*
X145502438Y-85845237D01*
X145502438Y-85845237D02*
X145454819Y-85702380D01*
X145454819Y-85702380D02*
X145454819Y-85607142D01*
X145454819Y-85607142D02*
X145502438Y-85464285D01*
X145502438Y-85464285D02*
X145550057Y-85416666D01*
X145883390Y-84845237D02*
X145835771Y-84940475D01*
X145835771Y-84940475D02*
X145788152Y-84988094D01*
X145788152Y-84988094D02*
X145692914Y-85035713D01*
X145692914Y-85035713D02*
X145645295Y-85035713D01*
X145645295Y-85035713D02*
X145550057Y-84988094D01*
X145550057Y-84988094D02*
X145502438Y-84940475D01*
X145502438Y-84940475D02*
X145454819Y-84845237D01*
X145454819Y-84845237D02*
X145454819Y-84654761D01*
X145454819Y-84654761D02*
X145502438Y-84559523D01*
X145502438Y-84559523D02*
X145550057Y-84511904D01*
X145550057Y-84511904D02*
X145645295Y-84464285D01*
X145645295Y-84464285D02*
X145692914Y-84464285D01*
X145692914Y-84464285D02*
X145788152Y-84511904D01*
X145788152Y-84511904D02*
X145835771Y-84559523D01*
X145835771Y-84559523D02*
X145883390Y-84654761D01*
X145883390Y-84654761D02*
X145883390Y-84845237D01*
X145883390Y-84845237D02*
X145931009Y-84940475D01*
X145931009Y-84940475D02*
X145978628Y-84988094D01*
X145978628Y-84988094D02*
X146073866Y-85035713D01*
X146073866Y-85035713D02*
X146264342Y-85035713D01*
X146264342Y-85035713D02*
X146359580Y-84988094D01*
X146359580Y-84988094D02*
X146407200Y-84940475D01*
X146407200Y-84940475D02*
X146454819Y-84845237D01*
X146454819Y-84845237D02*
X146454819Y-84654761D01*
X146454819Y-84654761D02*
X146407200Y-84559523D01*
X146407200Y-84559523D02*
X146359580Y-84511904D01*
X146359580Y-84511904D02*
X146264342Y-84464285D01*
X146264342Y-84464285D02*
X146073866Y-84464285D01*
X146073866Y-84464285D02*
X145978628Y-84511904D01*
X145978628Y-84511904D02*
X145931009Y-84559523D01*
X145931009Y-84559523D02*
X145883390Y-84654761D01*
X170166666Y-77954819D02*
X170166666Y-78669104D01*
X170166666Y-78669104D02*
X170119047Y-78811961D01*
X170119047Y-78811961D02*
X170023809Y-78907200D01*
X170023809Y-78907200D02*
X169880952Y-78954819D01*
X169880952Y-78954819D02*
X169785714Y-78954819D01*
X170595238Y-78050057D02*
X170642857Y-78002438D01*
X170642857Y-78002438D02*
X170738095Y-77954819D01*
X170738095Y-77954819D02*
X170976190Y-77954819D01*
X170976190Y-77954819D02*
X171071428Y-78002438D01*
X171071428Y-78002438D02*
X171119047Y-78050057D01*
X171119047Y-78050057D02*
X171166666Y-78145295D01*
X171166666Y-78145295D02*
X171166666Y-78240533D01*
X171166666Y-78240533D02*
X171119047Y-78383390D01*
X171119047Y-78383390D02*
X170547619Y-78954819D01*
X170547619Y-78954819D02*
X171166666Y-78954819D01*
X159833333Y-79204819D02*
X159500000Y-78728628D01*
X159261905Y-79204819D02*
X159261905Y-78204819D01*
X159261905Y-78204819D02*
X159642857Y-78204819D01*
X159642857Y-78204819D02*
X159738095Y-78252438D01*
X159738095Y-78252438D02*
X159785714Y-78300057D01*
X159785714Y-78300057D02*
X159833333Y-78395295D01*
X159833333Y-78395295D02*
X159833333Y-78538152D01*
X159833333Y-78538152D02*
X159785714Y-78633390D01*
X159785714Y-78633390D02*
X159738095Y-78681009D01*
X159738095Y-78681009D02*
X159642857Y-78728628D01*
X159642857Y-78728628D02*
X159261905Y-78728628D01*
X160166667Y-78204819D02*
X160785714Y-78204819D01*
X160785714Y-78204819D02*
X160452381Y-78585771D01*
X160452381Y-78585771D02*
X160595238Y-78585771D01*
X160595238Y-78585771D02*
X160690476Y-78633390D01*
X160690476Y-78633390D02*
X160738095Y-78681009D01*
X160738095Y-78681009D02*
X160785714Y-78776247D01*
X160785714Y-78776247D02*
X160785714Y-79014342D01*
X160785714Y-79014342D02*
X160738095Y-79109580D01*
X160738095Y-79109580D02*
X160690476Y-79157200D01*
X160690476Y-79157200D02*
X160595238Y-79204819D01*
X160595238Y-79204819D02*
X160309524Y-79204819D01*
X160309524Y-79204819D02*
X160214286Y-79157200D01*
X160214286Y-79157200D02*
X160166667Y-79109580D01*
X161833333Y-93609580D02*
X161785714Y-93657200D01*
X161785714Y-93657200D02*
X161642857Y-93704819D01*
X161642857Y-93704819D02*
X161547619Y-93704819D01*
X161547619Y-93704819D02*
X161404762Y-93657200D01*
X161404762Y-93657200D02*
X161309524Y-93561961D01*
X161309524Y-93561961D02*
X161261905Y-93466723D01*
X161261905Y-93466723D02*
X161214286Y-93276247D01*
X161214286Y-93276247D02*
X161214286Y-93133390D01*
X161214286Y-93133390D02*
X161261905Y-92942914D01*
X161261905Y-92942914D02*
X161309524Y-92847676D01*
X161309524Y-92847676D02*
X161404762Y-92752438D01*
X161404762Y-92752438D02*
X161547619Y-92704819D01*
X161547619Y-92704819D02*
X161642857Y-92704819D01*
X161642857Y-92704819D02*
X161785714Y-92752438D01*
X161785714Y-92752438D02*
X161833333Y-92800057D01*
X162166667Y-92704819D02*
X162833333Y-92704819D01*
X162833333Y-92704819D02*
X162404762Y-93704819D01*
X145154819Y-89661904D02*
X145964342Y-89661904D01*
X145964342Y-89661904D02*
X146059580Y-89614285D01*
X146059580Y-89614285D02*
X146107200Y-89566666D01*
X146107200Y-89566666D02*
X146154819Y-89471428D01*
X146154819Y-89471428D02*
X146154819Y-89280952D01*
X146154819Y-89280952D02*
X146107200Y-89185714D01*
X146107200Y-89185714D02*
X146059580Y-89138095D01*
X146059580Y-89138095D02*
X145964342Y-89090476D01*
X145964342Y-89090476D02*
X145154819Y-89090476D01*
X145488152Y-88185714D02*
X146154819Y-88185714D01*
X145107200Y-88423809D02*
X145821485Y-88661904D01*
X145821485Y-88661904D02*
X145821485Y-88042857D01*
D12*
X141099285Y-119263842D02*
X141280714Y-119324318D01*
X141280714Y-119324318D02*
X141583095Y-119324318D01*
X141583095Y-119324318D02*
X141704047Y-119263842D01*
X141704047Y-119263842D02*
X141764523Y-119203365D01*
X141764523Y-119203365D02*
X141825000Y-119082413D01*
X141825000Y-119082413D02*
X141825000Y-118961461D01*
X141825000Y-118961461D02*
X141764523Y-118840508D01*
X141764523Y-118840508D02*
X141704047Y-118780032D01*
X141704047Y-118780032D02*
X141583095Y-118719556D01*
X141583095Y-118719556D02*
X141341190Y-118659080D01*
X141341190Y-118659080D02*
X141220238Y-118598603D01*
X141220238Y-118598603D02*
X141159761Y-118538127D01*
X141159761Y-118538127D02*
X141099285Y-118417175D01*
X141099285Y-118417175D02*
X141099285Y-118296222D01*
X141099285Y-118296222D02*
X141159761Y-118175270D01*
X141159761Y-118175270D02*
X141220238Y-118114794D01*
X141220238Y-118114794D02*
X141341190Y-118054318D01*
X141341190Y-118054318D02*
X141643571Y-118054318D01*
X141643571Y-118054318D02*
X141825000Y-118114794D01*
X142248333Y-118054318D02*
X142550714Y-119324318D01*
X142550714Y-119324318D02*
X142792619Y-118417175D01*
X142792619Y-118417175D02*
X143034524Y-119324318D01*
X143034524Y-119324318D02*
X143336905Y-118054318D01*
X143518334Y-119445270D02*
X144485953Y-119445270D01*
X145514048Y-119324318D02*
X145090714Y-118719556D01*
X144788333Y-119324318D02*
X144788333Y-118054318D01*
X144788333Y-118054318D02*
X145272143Y-118054318D01*
X145272143Y-118054318D02*
X145393095Y-118114794D01*
X145393095Y-118114794D02*
X145453572Y-118175270D01*
X145453572Y-118175270D02*
X145514048Y-118296222D01*
X145514048Y-118296222D02*
X145514048Y-118477651D01*
X145514048Y-118477651D02*
X145453572Y-118598603D01*
X145453572Y-118598603D02*
X145393095Y-118659080D01*
X145393095Y-118659080D02*
X145272143Y-118719556D01*
X145272143Y-118719556D02*
X144788333Y-118719556D01*
X145997857Y-119263842D02*
X146179286Y-119324318D01*
X146179286Y-119324318D02*
X146481667Y-119324318D01*
X146481667Y-119324318D02*
X146602619Y-119263842D01*
X146602619Y-119263842D02*
X146663095Y-119203365D01*
X146663095Y-119203365D02*
X146723572Y-119082413D01*
X146723572Y-119082413D02*
X146723572Y-118961461D01*
X146723572Y-118961461D02*
X146663095Y-118840508D01*
X146663095Y-118840508D02*
X146602619Y-118780032D01*
X146602619Y-118780032D02*
X146481667Y-118719556D01*
X146481667Y-118719556D02*
X146239762Y-118659080D01*
X146239762Y-118659080D02*
X146118810Y-118598603D01*
X146118810Y-118598603D02*
X146058333Y-118538127D01*
X146058333Y-118538127D02*
X145997857Y-118417175D01*
X145997857Y-118417175D02*
X145997857Y-118296222D01*
X145997857Y-118296222D02*
X146058333Y-118175270D01*
X146058333Y-118175270D02*
X146118810Y-118114794D01*
X146118810Y-118114794D02*
X146239762Y-118054318D01*
X146239762Y-118054318D02*
X146542143Y-118054318D01*
X146542143Y-118054318D02*
X146723572Y-118114794D01*
X147086429Y-118054318D02*
X147812143Y-118054318D01*
X147449286Y-119324318D02*
X147449286Y-118054318D01*
X148900715Y-119324318D02*
X148175000Y-119324318D01*
X148537857Y-119324318D02*
X148537857Y-118054318D01*
X148537857Y-118054318D02*
X148416905Y-118235746D01*
X148416905Y-118235746D02*
X148295953Y-118356699D01*
X148295953Y-118356699D02*
X148175000Y-118417175D01*
D13*
X152859419Y-107785240D02*
X152859419Y-106616840D01*
X154083457Y-107673963D02*
X154027819Y-107729602D01*
X154027819Y-107729602D02*
X153860905Y-107785240D01*
X153860905Y-107785240D02*
X153749629Y-107785240D01*
X153749629Y-107785240D02*
X153582714Y-107729602D01*
X153582714Y-107729602D02*
X153471438Y-107618325D01*
X153471438Y-107618325D02*
X153415800Y-107507049D01*
X153415800Y-107507049D02*
X153360162Y-107284497D01*
X153360162Y-107284497D02*
X153360162Y-107117582D01*
X153360162Y-107117582D02*
X153415800Y-106895030D01*
X153415800Y-106895030D02*
X153471438Y-106783754D01*
X153471438Y-106783754D02*
X153582714Y-106672478D01*
X153582714Y-106672478D02*
X153749629Y-106616840D01*
X153749629Y-106616840D02*
X153860905Y-106616840D01*
X153860905Y-106616840D02*
X154027819Y-106672478D01*
X154027819Y-106672478D02*
X154083457Y-106728116D01*
X155196219Y-107785240D02*
X154528562Y-107785240D01*
X154862390Y-107785240D02*
X154862390Y-106616840D01*
X154862390Y-106616840D02*
X154751114Y-106783754D01*
X154751114Y-106783754D02*
X154639838Y-106895030D01*
X154639838Y-106895030D02*
X154528562Y-106950668D01*
D11*
X160333333Y-114359580D02*
X160285714Y-114407200D01*
X160285714Y-114407200D02*
X160142857Y-114454819D01*
X160142857Y-114454819D02*
X160047619Y-114454819D01*
X160047619Y-114454819D02*
X159904762Y-114407200D01*
X159904762Y-114407200D02*
X159809524Y-114311961D01*
X159809524Y-114311961D02*
X159761905Y-114216723D01*
X159761905Y-114216723D02*
X159714286Y-114026247D01*
X159714286Y-114026247D02*
X159714286Y-113883390D01*
X159714286Y-113883390D02*
X159761905Y-113692914D01*
X159761905Y-113692914D02*
X159809524Y-113597676D01*
X159809524Y-113597676D02*
X159904762Y-113502438D01*
X159904762Y-113502438D02*
X160047619Y-113454819D01*
X160047619Y-113454819D02*
X160142857Y-113454819D01*
X160142857Y-113454819D02*
X160285714Y-113502438D01*
X160285714Y-113502438D02*
X160333333Y-113550057D01*
X161238095Y-113454819D02*
X160761905Y-113454819D01*
X160761905Y-113454819D02*
X160714286Y-113931009D01*
X160714286Y-113931009D02*
X160761905Y-113883390D01*
X160761905Y-113883390D02*
X160857143Y-113835771D01*
X160857143Y-113835771D02*
X161095238Y-113835771D01*
X161095238Y-113835771D02*
X161190476Y-113883390D01*
X161190476Y-113883390D02*
X161238095Y-113931009D01*
X161238095Y-113931009D02*
X161285714Y-114026247D01*
X161285714Y-114026247D02*
X161285714Y-114264342D01*
X161285714Y-114264342D02*
X161238095Y-114359580D01*
X161238095Y-114359580D02*
X161190476Y-114407200D01*
X161190476Y-114407200D02*
X161095238Y-114454819D01*
X161095238Y-114454819D02*
X160857143Y-114454819D01*
X160857143Y-114454819D02*
X160761905Y-114407200D01*
X160761905Y-114407200D02*
X160714286Y-114359580D01*
X168333333Y-83454819D02*
X168000000Y-82978628D01*
X167761905Y-83454819D02*
X167761905Y-82454819D01*
X167761905Y-82454819D02*
X168142857Y-82454819D01*
X168142857Y-82454819D02*
X168238095Y-82502438D01*
X168238095Y-82502438D02*
X168285714Y-82550057D01*
X168285714Y-82550057D02*
X168333333Y-82645295D01*
X168333333Y-82645295D02*
X168333333Y-82788152D01*
X168333333Y-82788152D02*
X168285714Y-82883390D01*
X168285714Y-82883390D02*
X168238095Y-82931009D01*
X168238095Y-82931009D02*
X168142857Y-82978628D01*
X168142857Y-82978628D02*
X167761905Y-82978628D01*
X168666667Y-82454819D02*
X169333333Y-82454819D01*
X169333333Y-82454819D02*
X168904762Y-83454819D01*
X157833333Y-94359580D02*
X157785714Y-94407200D01*
X157785714Y-94407200D02*
X157642857Y-94454819D01*
X157642857Y-94454819D02*
X157547619Y-94454819D01*
X157547619Y-94454819D02*
X157404762Y-94407200D01*
X157404762Y-94407200D02*
X157309524Y-94311961D01*
X157309524Y-94311961D02*
X157261905Y-94216723D01*
X157261905Y-94216723D02*
X157214286Y-94026247D01*
X157214286Y-94026247D02*
X157214286Y-93883390D01*
X157214286Y-93883390D02*
X157261905Y-93692914D01*
X157261905Y-93692914D02*
X157309524Y-93597676D01*
X157309524Y-93597676D02*
X157404762Y-93502438D01*
X157404762Y-93502438D02*
X157547619Y-93454819D01*
X157547619Y-93454819D02*
X157642857Y-93454819D01*
X157642857Y-93454819D02*
X157785714Y-93502438D01*
X157785714Y-93502438D02*
X157833333Y-93550057D01*
X158690476Y-93454819D02*
X158500000Y-93454819D01*
X158500000Y-93454819D02*
X158404762Y-93502438D01*
X158404762Y-93502438D02*
X158357143Y-93550057D01*
X158357143Y-93550057D02*
X158261905Y-93692914D01*
X158261905Y-93692914D02*
X158214286Y-93883390D01*
X158214286Y-93883390D02*
X158214286Y-94264342D01*
X158214286Y-94264342D02*
X158261905Y-94359580D01*
X158261905Y-94359580D02*
X158309524Y-94407200D01*
X158309524Y-94407200D02*
X158404762Y-94454819D01*
X158404762Y-94454819D02*
X158595238Y-94454819D01*
X158595238Y-94454819D02*
X158690476Y-94407200D01*
X158690476Y-94407200D02*
X158738095Y-94359580D01*
X158738095Y-94359580D02*
X158785714Y-94264342D01*
X158785714Y-94264342D02*
X158785714Y-94026247D01*
X158785714Y-94026247D02*
X158738095Y-93931009D01*
X158738095Y-93931009D02*
X158690476Y-93883390D01*
X158690476Y-93883390D02*
X158595238Y-93835771D01*
X158595238Y-93835771D02*
X158404762Y-93835771D01*
X158404762Y-93835771D02*
X158309524Y-93883390D01*
X158309524Y-93883390D02*
X158261905Y-93931009D01*
X158261905Y-93931009D02*
X158214286Y-94026247D01*
X162267142Y-125414819D02*
X161933809Y-124938628D01*
X161695714Y-125414819D02*
X161695714Y-124414819D01*
X161695714Y-124414819D02*
X162076666Y-124414819D01*
X162076666Y-124414819D02*
X162171904Y-124462438D01*
X162171904Y-124462438D02*
X162219523Y-124510057D01*
X162219523Y-124510057D02*
X162267142Y-124605295D01*
X162267142Y-124605295D02*
X162267142Y-124748152D01*
X162267142Y-124748152D02*
X162219523Y-124843390D01*
X162219523Y-124843390D02*
X162171904Y-124891009D01*
X162171904Y-124891009D02*
X162076666Y-124938628D01*
X162076666Y-124938628D02*
X161695714Y-124938628D01*
X163219523Y-125414819D02*
X162648095Y-125414819D01*
X162933809Y-125414819D02*
X162933809Y-124414819D01*
X162933809Y-124414819D02*
X162838571Y-124557676D01*
X162838571Y-124557676D02*
X162743333Y-124652914D01*
X162743333Y-124652914D02*
X162648095Y-124700533D01*
X164124285Y-124414819D02*
X163648095Y-124414819D01*
X163648095Y-124414819D02*
X163600476Y-124891009D01*
X163600476Y-124891009D02*
X163648095Y-124843390D01*
X163648095Y-124843390D02*
X163743333Y-124795771D01*
X163743333Y-124795771D02*
X163981428Y-124795771D01*
X163981428Y-124795771D02*
X164076666Y-124843390D01*
X164076666Y-124843390D02*
X164124285Y-124891009D01*
X164124285Y-124891009D02*
X164171904Y-124986247D01*
X164171904Y-124986247D02*
X164171904Y-125224342D01*
X164171904Y-125224342D02*
X164124285Y-125319580D01*
X164124285Y-125319580D02*
X164076666Y-125367200D01*
X164076666Y-125367200D02*
X163981428Y-125414819D01*
X163981428Y-125414819D02*
X163743333Y-125414819D01*
X163743333Y-125414819D02*
X163648095Y-125367200D01*
X163648095Y-125367200D02*
X163600476Y-125319580D01*
X162267142Y-120914819D02*
X161933809Y-120438628D01*
X161695714Y-120914819D02*
X161695714Y-119914819D01*
X161695714Y-119914819D02*
X162076666Y-119914819D01*
X162076666Y-119914819D02*
X162171904Y-119962438D01*
X162171904Y-119962438D02*
X162219523Y-120010057D01*
X162219523Y-120010057D02*
X162267142Y-120105295D01*
X162267142Y-120105295D02*
X162267142Y-120248152D01*
X162267142Y-120248152D02*
X162219523Y-120343390D01*
X162219523Y-120343390D02*
X162171904Y-120391009D01*
X162171904Y-120391009D02*
X162076666Y-120438628D01*
X162076666Y-120438628D02*
X161695714Y-120438628D01*
X163219523Y-120914819D02*
X162648095Y-120914819D01*
X162933809Y-120914819D02*
X162933809Y-119914819D01*
X162933809Y-119914819D02*
X162838571Y-120057676D01*
X162838571Y-120057676D02*
X162743333Y-120152914D01*
X162743333Y-120152914D02*
X162648095Y-120200533D01*
X163600476Y-120010057D02*
X163648095Y-119962438D01*
X163648095Y-119962438D02*
X163743333Y-119914819D01*
X163743333Y-119914819D02*
X163981428Y-119914819D01*
X163981428Y-119914819D02*
X164076666Y-119962438D01*
X164076666Y-119962438D02*
X164124285Y-120010057D01*
X164124285Y-120010057D02*
X164171904Y-120105295D01*
X164171904Y-120105295D02*
X164171904Y-120200533D01*
X164171904Y-120200533D02*
X164124285Y-120343390D01*
X164124285Y-120343390D02*
X163552857Y-120914819D01*
X163552857Y-120914819D02*
X164171904Y-120914819D01*
X160333333Y-116054819D02*
X160000000Y-115578628D01*
X159761905Y-116054819D02*
X159761905Y-115054819D01*
X159761905Y-115054819D02*
X160142857Y-115054819D01*
X160142857Y-115054819D02*
X160238095Y-115102438D01*
X160238095Y-115102438D02*
X160285714Y-115150057D01*
X160285714Y-115150057D02*
X160333333Y-115245295D01*
X160333333Y-115245295D02*
X160333333Y-115388152D01*
X160333333Y-115388152D02*
X160285714Y-115483390D01*
X160285714Y-115483390D02*
X160238095Y-115531009D01*
X160238095Y-115531009D02*
X160142857Y-115578628D01*
X160142857Y-115578628D02*
X159761905Y-115578628D01*
X161190476Y-115054819D02*
X161000000Y-115054819D01*
X161000000Y-115054819D02*
X160904762Y-115102438D01*
X160904762Y-115102438D02*
X160857143Y-115150057D01*
X160857143Y-115150057D02*
X160761905Y-115292914D01*
X160761905Y-115292914D02*
X160714286Y-115483390D01*
X160714286Y-115483390D02*
X160714286Y-115864342D01*
X160714286Y-115864342D02*
X160761905Y-115959580D01*
X160761905Y-115959580D02*
X160809524Y-116007200D01*
X160809524Y-116007200D02*
X160904762Y-116054819D01*
X160904762Y-116054819D02*
X161095238Y-116054819D01*
X161095238Y-116054819D02*
X161190476Y-116007200D01*
X161190476Y-116007200D02*
X161238095Y-115959580D01*
X161238095Y-115959580D02*
X161285714Y-115864342D01*
X161285714Y-115864342D02*
X161285714Y-115626247D01*
X161285714Y-115626247D02*
X161238095Y-115531009D01*
X161238095Y-115531009D02*
X161190476Y-115483390D01*
X161190476Y-115483390D02*
X161095238Y-115435771D01*
X161095238Y-115435771D02*
X160904762Y-115435771D01*
X160904762Y-115435771D02*
X160809524Y-115483390D01*
X160809524Y-115483390D02*
X160761905Y-115531009D01*
X160761905Y-115531009D02*
X160714286Y-115626247D01*
X162267142Y-122414819D02*
X161933809Y-121938628D01*
X161695714Y-122414819D02*
X161695714Y-121414819D01*
X161695714Y-121414819D02*
X162076666Y-121414819D01*
X162076666Y-121414819D02*
X162171904Y-121462438D01*
X162171904Y-121462438D02*
X162219523Y-121510057D01*
X162219523Y-121510057D02*
X162267142Y-121605295D01*
X162267142Y-121605295D02*
X162267142Y-121748152D01*
X162267142Y-121748152D02*
X162219523Y-121843390D01*
X162219523Y-121843390D02*
X162171904Y-121891009D01*
X162171904Y-121891009D02*
X162076666Y-121938628D01*
X162076666Y-121938628D02*
X161695714Y-121938628D01*
X163219523Y-122414819D02*
X162648095Y-122414819D01*
X162933809Y-122414819D02*
X162933809Y-121414819D01*
X162933809Y-121414819D02*
X162838571Y-121557676D01*
X162838571Y-121557676D02*
X162743333Y-121652914D01*
X162743333Y-121652914D02*
X162648095Y-121700533D01*
X163552857Y-121414819D02*
X164171904Y-121414819D01*
X164171904Y-121414819D02*
X163838571Y-121795771D01*
X163838571Y-121795771D02*
X163981428Y-121795771D01*
X163981428Y-121795771D02*
X164076666Y-121843390D01*
X164076666Y-121843390D02*
X164124285Y-121891009D01*
X164124285Y-121891009D02*
X164171904Y-121986247D01*
X164171904Y-121986247D02*
X164171904Y-122224342D01*
X164171904Y-122224342D02*
X164124285Y-122319580D01*
X164124285Y-122319580D02*
X164076666Y-122367200D01*
X164076666Y-122367200D02*
X163981428Y-122414819D01*
X163981428Y-122414819D02*
X163695714Y-122414819D01*
X163695714Y-122414819D02*
X163600476Y-122367200D01*
X163600476Y-122367200D02*
X163552857Y-122319580D01*
X152011905Y-90454819D02*
X152011905Y-89454819D01*
X152011905Y-89454819D02*
X152250000Y-89454819D01*
X152250000Y-89454819D02*
X152392857Y-89502438D01*
X152392857Y-89502438D02*
X152488095Y-89597676D01*
X152488095Y-89597676D02*
X152535714Y-89692914D01*
X152535714Y-89692914D02*
X152583333Y-89883390D01*
X152583333Y-89883390D02*
X152583333Y-90026247D01*
X152583333Y-90026247D02*
X152535714Y-90216723D01*
X152535714Y-90216723D02*
X152488095Y-90311961D01*
X152488095Y-90311961D02*
X152392857Y-90407200D01*
X152392857Y-90407200D02*
X152250000Y-90454819D01*
X152250000Y-90454819D02*
X152011905Y-90454819D01*
X152916667Y-89454819D02*
X153535714Y-89454819D01*
X153535714Y-89454819D02*
X153202381Y-89835771D01*
X153202381Y-89835771D02*
X153345238Y-89835771D01*
X153345238Y-89835771D02*
X153440476Y-89883390D01*
X153440476Y-89883390D02*
X153488095Y-89931009D01*
X153488095Y-89931009D02*
X153535714Y-90026247D01*
X153535714Y-90026247D02*
X153535714Y-90264342D01*
X153535714Y-90264342D02*
X153488095Y-90359580D01*
X153488095Y-90359580D02*
X153440476Y-90407200D01*
X153440476Y-90407200D02*
X153345238Y-90454819D01*
X153345238Y-90454819D02*
X153059524Y-90454819D01*
X153059524Y-90454819D02*
X152964286Y-90407200D01*
X152964286Y-90407200D02*
X152916667Y-90359580D01*
X159038095Y-108454819D02*
X159038095Y-109264342D01*
X159038095Y-109264342D02*
X159085714Y-109359580D01*
X159085714Y-109359580D02*
X159133333Y-109407200D01*
X159133333Y-109407200D02*
X159228571Y-109454819D01*
X159228571Y-109454819D02*
X159419047Y-109454819D01*
X159419047Y-109454819D02*
X159514285Y-109407200D01*
X159514285Y-109407200D02*
X159561904Y-109359580D01*
X159561904Y-109359580D02*
X159609523Y-109264342D01*
X159609523Y-109264342D02*
X159609523Y-108454819D01*
X160561904Y-108454819D02*
X160085714Y-108454819D01*
X160085714Y-108454819D02*
X160038095Y-108931009D01*
X160038095Y-108931009D02*
X160085714Y-108883390D01*
X160085714Y-108883390D02*
X160180952Y-108835771D01*
X160180952Y-108835771D02*
X160419047Y-108835771D01*
X160419047Y-108835771D02*
X160514285Y-108883390D01*
X160514285Y-108883390D02*
X160561904Y-108931009D01*
X160561904Y-108931009D02*
X160609523Y-109026247D01*
X160609523Y-109026247D02*
X160609523Y-109264342D01*
X160609523Y-109264342D02*
X160561904Y-109359580D01*
X160561904Y-109359580D02*
X160514285Y-109407200D01*
X160514285Y-109407200D02*
X160419047Y-109454819D01*
X160419047Y-109454819D02*
X160180952Y-109454819D01*
X160180952Y-109454819D02*
X160085714Y-109407200D01*
X160085714Y-109407200D02*
X160038095Y-109359580D01*
X150833333Y-87954819D02*
X150500000Y-87478628D01*
X150261905Y-87954819D02*
X150261905Y-86954819D01*
X150261905Y-86954819D02*
X150642857Y-86954819D01*
X150642857Y-86954819D02*
X150738095Y-87002438D01*
X150738095Y-87002438D02*
X150785714Y-87050057D01*
X150785714Y-87050057D02*
X150833333Y-87145295D01*
X150833333Y-87145295D02*
X150833333Y-87288152D01*
X150833333Y-87288152D02*
X150785714Y-87383390D01*
X150785714Y-87383390D02*
X150738095Y-87431009D01*
X150738095Y-87431009D02*
X150642857Y-87478628D01*
X150642857Y-87478628D02*
X150261905Y-87478628D01*
X151309524Y-87954819D02*
X151500000Y-87954819D01*
X151500000Y-87954819D02*
X151595238Y-87907200D01*
X151595238Y-87907200D02*
X151642857Y-87859580D01*
X151642857Y-87859580D02*
X151738095Y-87716723D01*
X151738095Y-87716723D02*
X151785714Y-87526247D01*
X151785714Y-87526247D02*
X151785714Y-87145295D01*
X151785714Y-87145295D02*
X151738095Y-87050057D01*
X151738095Y-87050057D02*
X151690476Y-87002438D01*
X151690476Y-87002438D02*
X151595238Y-86954819D01*
X151595238Y-86954819D02*
X151404762Y-86954819D01*
X151404762Y-86954819D02*
X151309524Y-87002438D01*
X151309524Y-87002438D02*
X151261905Y-87050057D01*
X151261905Y-87050057D02*
X151214286Y-87145295D01*
X151214286Y-87145295D02*
X151214286Y-87383390D01*
X151214286Y-87383390D02*
X151261905Y-87478628D01*
X151261905Y-87478628D02*
X151309524Y-87526247D01*
X151309524Y-87526247D02*
X151404762Y-87573866D01*
X151404762Y-87573866D02*
X151595238Y-87573866D01*
X151595238Y-87573866D02*
X151690476Y-87526247D01*
X151690476Y-87526247D02*
X151738095Y-87478628D01*
X151738095Y-87478628D02*
X151785714Y-87383390D01*
X170166666Y-91459819D02*
X170166666Y-92174104D01*
X170166666Y-92174104D02*
X170119047Y-92316961D01*
X170119047Y-92316961D02*
X170023809Y-92412200D01*
X170023809Y-92412200D02*
X169880952Y-92459819D01*
X169880952Y-92459819D02*
X169785714Y-92459819D01*
X171071428Y-91459819D02*
X170880952Y-91459819D01*
X170880952Y-91459819D02*
X170785714Y-91507438D01*
X170785714Y-91507438D02*
X170738095Y-91555057D01*
X170738095Y-91555057D02*
X170642857Y-91697914D01*
X170642857Y-91697914D02*
X170595238Y-91888390D01*
X170595238Y-91888390D02*
X170595238Y-92269342D01*
X170595238Y-92269342D02*
X170642857Y-92364580D01*
X170642857Y-92364580D02*
X170690476Y-92412200D01*
X170690476Y-92412200D02*
X170785714Y-92459819D01*
X170785714Y-92459819D02*
X170976190Y-92459819D01*
X170976190Y-92459819D02*
X171071428Y-92412200D01*
X171071428Y-92412200D02*
X171119047Y-92364580D01*
X171119047Y-92364580D02*
X171166666Y-92269342D01*
X171166666Y-92269342D02*
X171166666Y-92031247D01*
X171166666Y-92031247D02*
X171119047Y-91936009D01*
X171119047Y-91936009D02*
X171071428Y-91888390D01*
X171071428Y-91888390D02*
X170976190Y-91840771D01*
X170976190Y-91840771D02*
X170785714Y-91840771D01*
X170785714Y-91840771D02*
X170690476Y-91888390D01*
X170690476Y-91888390D02*
X170642857Y-91936009D01*
X170642857Y-91936009D02*
X170595238Y-92031247D01*
X170457142Y-122259580D02*
X170409523Y-122307200D01*
X170409523Y-122307200D02*
X170266666Y-122354819D01*
X170266666Y-122354819D02*
X170171428Y-122354819D01*
X170171428Y-122354819D02*
X170028571Y-122307200D01*
X170028571Y-122307200D02*
X169933333Y-122211961D01*
X169933333Y-122211961D02*
X169885714Y-122116723D01*
X169885714Y-122116723D02*
X169838095Y-121926247D01*
X169838095Y-121926247D02*
X169838095Y-121783390D01*
X169838095Y-121783390D02*
X169885714Y-121592914D01*
X169885714Y-121592914D02*
X169933333Y-121497676D01*
X169933333Y-121497676D02*
X170028571Y-121402438D01*
X170028571Y-121402438D02*
X170171428Y-121354819D01*
X170171428Y-121354819D02*
X170266666Y-121354819D01*
X170266666Y-121354819D02*
X170409523Y-121402438D01*
X170409523Y-121402438D02*
X170457142Y-121450057D01*
X171409523Y-122354819D02*
X170838095Y-122354819D01*
X171123809Y-122354819D02*
X171123809Y-121354819D01*
X171123809Y-121354819D02*
X171028571Y-121497676D01*
X171028571Y-121497676D02*
X170933333Y-121592914D01*
X170933333Y-121592914D02*
X170838095Y-121640533D01*
X171742857Y-121354819D02*
X172361904Y-121354819D01*
X172361904Y-121354819D02*
X172028571Y-121735771D01*
X172028571Y-121735771D02*
X172171428Y-121735771D01*
X172171428Y-121735771D02*
X172266666Y-121783390D01*
X172266666Y-121783390D02*
X172314285Y-121831009D01*
X172314285Y-121831009D02*
X172361904Y-121926247D01*
X172361904Y-121926247D02*
X172361904Y-122164342D01*
X172361904Y-122164342D02*
X172314285Y-122259580D01*
X172314285Y-122259580D02*
X172266666Y-122307200D01*
X172266666Y-122307200D02*
X172171428Y-122354819D01*
X172171428Y-122354819D02*
X171885714Y-122354819D01*
X171885714Y-122354819D02*
X171790476Y-122307200D01*
X171790476Y-122307200D02*
X171742857Y-122259580D01*
%TO.C,R14*%
D14*
X165497742Y-122937500D02*
X165972258Y-122937500D01*
X165497742Y-123982500D02*
X165972258Y-123982500D01*
%TO.C,D1*%
X143500000Y-96210000D02*
X143500000Y-92200000D01*
X143500000Y-96210000D02*
X145500000Y-96210000D01*
X145500000Y-96210000D02*
X145500000Y-92200000D01*
%TO.C,SELECT1*%
D15*
X140725000Y-115150000D02*
X140725000Y-115150000D01*
X140825000Y-115150000D02*
X140825000Y-115150000D01*
X140825000Y-115150000D02*
X140825000Y-115150000D01*
D16*
X146025000Y-112400000D02*
X142825000Y-112400000D01*
X146025000Y-115900000D02*
X142825000Y-115900000D01*
D15*
X140725000Y-115150000D02*
G75*
G02*
X140825000Y-115150000I50000J0D01*
G01*
X140725000Y-115150000D02*
G75*
G02*
X140825000Y-115150000I50000J0D01*
G01*
X140825000Y-115150000D02*
G75*
G02*
X140725000Y-115150000I-50000J0D01*
G01*
%TO.C,U3*%
D14*
X159862500Y-87440000D02*
X159062500Y-87440000D01*
X159862500Y-87440000D02*
X160662500Y-87440000D01*
X159862500Y-90560000D02*
X159062500Y-90560000D01*
X159862500Y-90560000D02*
X160662500Y-90560000D01*
X161162500Y-90510000D02*
X161402500Y-90840000D01*
X160922500Y-90840000D01*
X161162500Y-90510000D01*
G36*
X161402500Y-90840000D02*
G01*
X160922500Y-90840000D01*
X161162500Y-90510000D01*
X161402500Y-90840000D01*
G37*
%TO.C,MENU1*%
D15*
X140725000Y-107650000D02*
X140725000Y-107650000D01*
X140825000Y-107650000D02*
X140825000Y-107650000D01*
X140825000Y-107650000D02*
X140825000Y-107650000D01*
D16*
X146025000Y-104900000D02*
X142825000Y-104900000D01*
X146025000Y-108400000D02*
X142825000Y-108400000D01*
D15*
X140725000Y-107650000D02*
G75*
G02*
X140825000Y-107650000I50000J0D01*
G01*
X140725000Y-107650000D02*
G75*
G02*
X140825000Y-107650000I50000J0D01*
G01*
X140825000Y-107650000D02*
G75*
G02*
X140725000Y-107650000I-50000J0D01*
G01*
%TO.C,R5*%
D14*
X143437742Y-80977500D02*
X143912258Y-80977500D01*
X143437742Y-82022500D02*
X143912258Y-82022500D01*
%TO.C,J1*%
X147650000Y-101430000D02*
X147650000Y-100250000D01*
X147715000Y-97800000D02*
X151745000Y-97800000D01*
X147715000Y-98662077D02*
X147715000Y-97800000D01*
X148460000Y-101430000D02*
X147650000Y-101430000D01*
X149270000Y-101430000D02*
X149270000Y-100916708D01*
X149270000Y-101430000D02*
X151745000Y-101430000D01*
X151745000Y-98662077D02*
X151745000Y-97800000D01*
X151745000Y-99932077D02*
X151745000Y-99297923D01*
X151745000Y-101430000D02*
X151745000Y-100567923D01*
%TO.C,C11*%
X155740000Y-111915580D02*
X155740000Y-111634420D01*
X156760000Y-111915580D02*
X156760000Y-111634420D01*
%TO.C,R2*%
X164162258Y-111477500D02*
X163687742Y-111477500D01*
X164162258Y-112522500D02*
X163687742Y-112522500D01*
%TO.C,Q3*%
X160490000Y-83937500D02*
X160490000Y-83287500D01*
X160490000Y-83937500D02*
X160490000Y-84587500D01*
X163610000Y-83937500D02*
X163610000Y-83287500D01*
X163610000Y-83937500D02*
X163610000Y-84587500D01*
X163560000Y-82775000D02*
X163890000Y-82535000D01*
X163890000Y-83015000D01*
X163560000Y-82775000D01*
G36*
X163890000Y-83015000D02*
G01*
X163560000Y-82775000D01*
X163890000Y-82535000D01*
X163890000Y-83015000D01*
G37*
%TO.C,R4*%
X141477500Y-84762742D02*
X141477500Y-85237258D01*
X142522500Y-84762742D02*
X142522500Y-85237258D01*
%TO.C,C15*%
X168865580Y-124390000D02*
X168584420Y-124390000D01*
X168865580Y-125410000D02*
X168584420Y-125410000D01*
%TO.C,J7*%
X141440000Y-125440000D02*
X141440000Y-127560000D01*
X143500000Y-125440000D02*
X141440000Y-125440000D01*
X143500000Y-125440000D02*
X143500000Y-127560000D01*
X143500000Y-127560000D02*
X141440000Y-127560000D01*
X145560000Y-126500000D02*
X145560000Y-127560000D01*
X145560000Y-127560000D02*
X144500000Y-127560000D01*
%TO.C,MAX1*%
X155990000Y-83362500D02*
X155990000Y-82562500D01*
X155990000Y-83362500D02*
X155990000Y-84162500D01*
X159110000Y-83362500D02*
X159110000Y-82562500D01*
X159110000Y-83362500D02*
X159110000Y-84162500D01*
X159060000Y-82062500D02*
X159390000Y-81822500D01*
X159390000Y-82302500D01*
X159060000Y-82062500D01*
G36*
X159390000Y-82302500D02*
G01*
X159060000Y-82062500D01*
X159390000Y-81822500D01*
X159390000Y-82302500D01*
G37*
%TO.C,BOOT1*%
D16*
X167325000Y-114400000D02*
X170525000Y-114400000D01*
X167325000Y-117900000D02*
X170525000Y-117900000D01*
D15*
X172525000Y-115150000D02*
X172525000Y-115150000D01*
X172525000Y-115150000D02*
X172525000Y-115150000D01*
X172625000Y-115150000D02*
X172625000Y-115150000D01*
X172525000Y-115150000D02*
G75*
G02*
X172625000Y-115150000I50000J0D01*
G01*
X172625000Y-115150000D02*
G75*
G02*
X172525000Y-115150000I-50000J0D01*
G01*
X172625000Y-115150000D02*
G75*
G02*
X172525000Y-115150000I-50000J0D01*
G01*
%TO.C,Q2*%
D14*
X170562500Y-85890000D02*
X169912500Y-85890000D01*
X170562500Y-85890000D02*
X171212500Y-85890000D01*
X170562500Y-89010000D02*
X169912500Y-89010000D01*
X170562500Y-89010000D02*
X171212500Y-89010000D01*
X171725000Y-88960000D02*
X171965000Y-89290000D01*
X171485000Y-89290000D01*
X171725000Y-88960000D01*
G36*
X171965000Y-89290000D02*
G01*
X171485000Y-89290000D01*
X171725000Y-88960000D01*
X171965000Y-89290000D01*
G37*
%TO.C,R1*%
X162912258Y-105477500D02*
X162437742Y-105477500D01*
X162912258Y-106522500D02*
X162437742Y-106522500D01*
%TO.C,SW_PWR1*%
D16*
X154825000Y-72100000D02*
X158025000Y-72100000D01*
X154825000Y-75600000D02*
X158025000Y-75600000D01*
D15*
X160025000Y-72850000D02*
X160025000Y-72850000D01*
X160025000Y-72850000D02*
X160025000Y-72850000D01*
X160125000Y-72850000D02*
X160125000Y-72850000D01*
X160025000Y-72850000D02*
G75*
G02*
X160125000Y-72850000I50000J0D01*
G01*
X160125000Y-72850000D02*
G75*
G02*
X160025000Y-72850000I-50000J0D01*
G01*
X160125000Y-72850000D02*
G75*
G02*
X160025000Y-72850000I-50000J0D01*
G01*
%TO.C,C10*%
D14*
X157240000Y-111915580D02*
X157240000Y-111634420D01*
X158260000Y-111915580D02*
X158260000Y-111634420D01*
%TO.C,D2*%
X141877500Y-78540000D02*
X141877500Y-80460000D01*
X141877500Y-80460000D02*
X144562500Y-80460000D01*
X144562500Y-78540000D02*
X141877500Y-78540000D01*
%TO.C,C14*%
X168865580Y-122890000D02*
X168584420Y-122890000D01*
X168865580Y-123910000D02*
X168584420Y-123910000D01*
%TO.C,R8*%
X171412258Y-83977500D02*
X170937742Y-83977500D01*
X171412258Y-85022500D02*
X170937742Y-85022500D01*
%TO.C,C12*%
X168865580Y-119890000D02*
X168584420Y-119890000D01*
X168865580Y-120910000D02*
X168584420Y-120910000D01*
%TO.C,J3*%
D15*
X148675000Y-127750000D02*
X151025000Y-127750000D01*
X148675000Y-128250000D02*
X148675000Y-127750000D01*
X148675000Y-130050000D02*
X148675000Y-131550000D01*
X148675000Y-131550000D02*
X164375000Y-131550000D01*
X151725000Y-126350000D02*
X151725000Y-126350000D01*
X151825000Y-126350000D02*
X151825000Y-126350000D01*
X164375000Y-127750000D02*
X162025000Y-127750000D01*
X164375000Y-128250000D02*
X164375000Y-127750000D01*
X164375000Y-131550000D02*
X164375000Y-130050000D01*
X151725000Y-126350000D02*
G75*
G02*
X151825000Y-126350000I50000J0D01*
G01*
X151825000Y-126350000D02*
G75*
G02*
X151725000Y-126350000I-50000J0D01*
G01*
%TO.C,C8*%
D14*
X144490000Y-85084420D02*
X144490000Y-85365580D01*
X145510000Y-85084420D02*
X145510000Y-85365580D01*
%TO.C,J2*%
X167080000Y-79120000D02*
X167080000Y-81880000D01*
X169730000Y-79120000D02*
X167080000Y-79120000D01*
X169730000Y-79120000D02*
X169730000Y-81880000D01*
X169730000Y-81880000D02*
X167080000Y-81880000D01*
X171000000Y-79120000D02*
X172380000Y-79120000D01*
X172380000Y-79120000D02*
X172380000Y-80500000D01*
%TO.C,R3*%
X157437742Y-77977500D02*
X157912258Y-77977500D01*
X157437742Y-79022500D02*
X157912258Y-79022500D01*
%TO.C,C7*%
X162211252Y-91015000D02*
X161688748Y-91015000D01*
X162211252Y-92485000D02*
X161688748Y-92485000D01*
%TO.C,SCRN1*%
X152540000Y-100620000D02*
X152540000Y-103380000D01*
X160270000Y-100620000D02*
X152540000Y-100620000D01*
X160270000Y-100620000D02*
X160270000Y-103380000D01*
X160270000Y-103380000D02*
X152540000Y-103380000D01*
X161540000Y-100620000D02*
X162920000Y-100620000D01*
X162920000Y-100620000D02*
X162920000Y-102000000D01*
%TO.C,U4*%
X141990000Y-88862500D02*
X141990000Y-88062500D01*
X141990000Y-88862500D02*
X141990000Y-89662500D01*
X145110000Y-88862500D02*
X145110000Y-88062500D01*
X145110000Y-88862500D02*
X145110000Y-89662500D01*
X142040000Y-90162500D02*
X141710000Y-90402500D01*
X141710000Y-89922500D01*
X142040000Y-90162500D01*
G36*
X142040000Y-90162500D02*
G01*
X141710000Y-90402500D01*
X141710000Y-89922500D01*
X142040000Y-90162500D01*
G37*
%TO.C,SW_RST1*%
D16*
X143325000Y-119900000D02*
X146525000Y-119900000D01*
X143325000Y-123400000D02*
X146525000Y-123400000D01*
D15*
X148525000Y-120650000D02*
X148525000Y-120650000D01*
X148525000Y-120650000D02*
X148525000Y-120650000D01*
X148625000Y-120650000D02*
X148625000Y-120650000D01*
X148525000Y-120650000D02*
G75*
G02*
X148625000Y-120650000I50000J0D01*
G01*
X148625000Y-120650000D02*
G75*
G02*
X148525000Y-120650000I-50000J0D01*
G01*
X148625000Y-120650000D02*
G75*
G02*
X148525000Y-120650000I-50000J0D01*
G01*
%TO.C,IC1*%
X152850000Y-108000000D02*
X152850000Y-108700000D01*
X152850000Y-110300000D02*
X152850000Y-111000000D01*
X152850000Y-111000000D02*
X153100000Y-111000000D01*
X153000000Y-108000000D02*
X152850000Y-108000000D01*
X154800000Y-107600000D02*
X154800000Y-107600000D01*
X154900000Y-107600000D02*
X154900000Y-107600000D01*
X155100000Y-108000000D02*
X155350000Y-108000000D01*
X155350000Y-108000000D02*
X155350000Y-108700000D01*
X155350000Y-110300000D02*
X155350000Y-111000000D01*
X155350000Y-111000000D02*
X155100000Y-111000000D01*
X154800000Y-107600000D02*
G75*
G02*
X154900000Y-107600000I50000J0D01*
G01*
X154900000Y-107600000D02*
G75*
G02*
X154800000Y-107600000I-50000J0D01*
G01*
%TO.C,J4*%
D14*
X168645000Y-101480000D02*
X170645000Y-101480000D01*
X168645000Y-110880000D02*
X170645000Y-110880000D01*
X172545000Y-101480000D02*
X174445000Y-101480000D01*
X172545000Y-110880000D02*
X174445000Y-110880000D01*
X174445000Y-110880000D02*
X174445000Y-101480000D01*
%TO.C,C5*%
X162584420Y-113490000D02*
X162865580Y-113490000D01*
X162584420Y-114510000D02*
X162865580Y-114510000D01*
%TO.C,R7*%
X170762742Y-82477500D02*
X171237258Y-82477500D01*
X170762742Y-83522500D02*
X171237258Y-83522500D01*
%TO.C,C6*%
X157288748Y-91765000D02*
X157811252Y-91765000D01*
X157288748Y-93235000D02*
X157811252Y-93235000D01*
%TO.C,R15*%
X165497742Y-124437500D02*
X165972258Y-124437500D01*
X165497742Y-125482500D02*
X165972258Y-125482500D01*
%TO.C,R12*%
X165497742Y-119937500D02*
X165972258Y-119937500D01*
X165497742Y-120982500D02*
X165972258Y-120982500D01*
%TO.C,R6*%
X162437742Y-114977500D02*
X162912258Y-114977500D01*
X162437742Y-116022500D02*
X162912258Y-116022500D01*
%TO.C,R13*%
X165497742Y-121437500D02*
X165972258Y-121437500D01*
X165497742Y-122482500D02*
X165972258Y-122482500D01*
%TO.C,D3*%
X150890000Y-92437500D02*
X150890000Y-91787500D01*
X150890000Y-92437500D02*
X150890000Y-93087500D01*
X154010000Y-92437500D02*
X154010000Y-91787500D01*
X154010000Y-92437500D02*
X154010000Y-93087500D01*
X153960000Y-91275000D02*
X154290000Y-91035000D01*
X154290000Y-91515000D01*
X153960000Y-91275000D01*
G36*
X154290000Y-91515000D02*
G01*
X153960000Y-91275000D01*
X154290000Y-91035000D01*
X154290000Y-91515000D01*
G37*
%TO.C,U5*%
X161702500Y-107390000D02*
X163522500Y-107390000D01*
X161702500Y-107440000D02*
X161702500Y-107390000D01*
X161702500Y-110510000D02*
X161702500Y-110460000D01*
X163522500Y-107390000D02*
X163522500Y-107440000D01*
X163522500Y-110460000D02*
X163522500Y-110510000D01*
X163522500Y-110510000D02*
X161702500Y-110510000D01*
X161162500Y-107440000D02*
X160922500Y-107110000D01*
X161402500Y-107110000D01*
X161162500Y-107440000D01*
G36*
X161162500Y-107440000D02*
G01*
X160922500Y-107110000D01*
X161402500Y-107110000D01*
X161162500Y-107440000D01*
G37*
%TO.C,R9*%
X152937742Y-86977500D02*
X153412258Y-86977500D01*
X152937742Y-88022500D02*
X153412258Y-88022500D01*
%TO.C,J6*%
X169340000Y-92940000D02*
X170500000Y-92940000D01*
X169340000Y-93750000D02*
X169340000Y-92940000D01*
X169340000Y-94560000D02*
X169340000Y-97035000D01*
X169340000Y-94560000D02*
X169833292Y-94560000D01*
X169340000Y-97035000D02*
X170182077Y-97035000D01*
X170817923Y-97035000D02*
X171660000Y-97035000D01*
X171166708Y-94560000D02*
X171660000Y-94560000D01*
X171660000Y-94560000D02*
X171660000Y-97035000D01*
%TO.C,C13*%
X168865580Y-121390000D02*
X168584420Y-121390000D01*
X168865580Y-122410000D02*
X168584420Y-122410000D01*
%TD*%
M02*
