M48
; DRILL file KiCad 10.0.2 date 2026-05-30T16:51:17
; FORMAT={-:-/ absolute / metric / decimal}
; #@! TF.CreationDate,2026-05-30T16:51:17-05:00
; #@! TF.GenerationSoftware,Kicad,Pcbnew,10.0.2
; #@! TF.FileFunction,Plated,1,4,PTH
FMAT,2
METRIC
; #@! TA.AperFunction,Plated,PTH,ViaDrill
T1C0.300
; #@! TA.AperFunction,Plated,PTH,ComponentDrill
T2C0.600
; #@! TA.AperFunction,Plated,PTH,ComponentDrill
T3C0.650
; #@! TA.AperFunction,Plated,PTH,ComponentDrill
T4C0.800
; #@! TA.AperFunction,Plated,PTH,ComponentDrill
T5C1.000
%
G90
G05
T1
X141.5Y-87.0
X141.85Y-105.8
X141.85Y-113.3
X142.5Y-91.5
X143.55Y-90.0
X145.5Y-87.0
X145.5Y-91.5
X146.0Y-83.75
X147.5Y-120.8
X148.0Y-78.53
X148.0Y-97.0
X148.75Y-107.75
X150.0Y-124.5
X150.5Y-89.0
X150.75Y-107.5
X150.75Y-116.75
X150.75Y-120.75
X150.8Y-124.8
X151.5Y-114.75
X151.5Y-121.5
X151.5Y-127.0
X151.624Y-124.822
X151.9Y-119.522
X152.578Y-117.5
X152.752Y-108.872
X153.1Y-118.111
X153.166Y-125.02
X153.25Y-95.1
X153.772Y-118.546
X153.812Y-125.492
X154.0Y-87.5
X154.0Y-109.5
X154.57Y-118.5
X154.591Y-125.306
X155.0Y-97.75
X155.092Y-119.107
X155.615Y-124.484
X156.0Y-119.3
X156.5Y-94.0
X156.674Y-124.174
X156.85Y-87.65
X157.0Y-111.0
X157.0Y-119.7
X157.25Y-98.5
X157.75Y-94.0
X158.25Y-86.25
X158.5Y-78.5
X158.725Y-89.95
X159.275Y-115.5
X159.5Y-121.5
X159.925Y-96.29
X160.0Y-92.5
X160.5Y-81.5
X160.5Y-121.0
X161.1Y-83.0
X161.5Y-122.0
X161.85Y-106.0
X161.95Y-113.5
X162.5Y-88.0
X162.5Y-126.5
X162.9Y-91.75
X163.0Y-81.0
X163.1Y-112.0
X163.5Y-95.041
X163.75Y-108.95
X164.0Y-127.25
X164.874Y-104.912
X165.0Y-121.25
X165.0Y-124.25
X165.5Y-78.53
X165.5Y-91.23
X165.75Y-97.5
X166.003Y-98.259
X166.868Y-98.243
X167.0Y-99.25
X167.0Y-100.05
X167.965Y-100.265
X168.528Y-107.527
X168.575Y-104.88
X169.4Y-105.9
X169.75Y-89.75
X170.0Y-103.5
X170.0Y-121.25
X170.0Y-124.25
X171.5Y-115.3
T3
X148.46Y-98.98
X148.46Y-100.25
X149.73Y-98.98
X149.73Y-100.25
X151.0Y-98.98
X151.0Y-100.25
X170.5Y-93.75
X170.5Y-95.02
X170.5Y-96.29
T4
X142.0Y-102.0
X142.5Y-126.5
X144.0Y-102.0
X144.5Y-126.5
T5
X153.92Y-102.0
X156.46Y-102.0
X159.0Y-102.0
X161.54Y-102.0
X168.46Y-80.5
X171.0Y-80.5
T2
G00X166.865Y-101.86
M15
G01X167.965Y-101.86
M16
G05
G00X166.865Y-110.5
M15
G01X167.965Y-110.5
M16
G05
G00X171.295Y-101.86
M15
G01X171.895Y-101.86
M16
G05
G00X171.295Y-110.5
M15
G01X171.895Y-110.5
M16
G05
M30
