M48
; DRILL file KiCad 10.0.2 date 2026-06-23T17:28:03
; FORMAT={-:-/ absolute / inch / decimal}
; #@! TF.CreationDate,2026-06-23T17:28:03-05:00
; #@! TF.GenerationSoftware,Kicad,Pcbnew,10.0.2
; #@! TF.FileFunction,Plated,1,4,PTH
FMAT,2
INCH
; #@! TA.AperFunction,Plated,PTH,ViaDrill
T1C0.0118
; #@! TA.AperFunction,Plated,PTH,ComponentDrill
T2C0.0236
; #@! TA.AperFunction,Plated,PTH,ComponentDrill
T3C0.0256
; #@! TA.AperFunction,Plated,PTH,ComponentDrill
T4C0.0315
; #@! TA.AperFunction,Plated,PTH,ComponentDrill
T5C0.0394
%
G90
G05
T1
X5.5709Y-3.4252
X5.5846Y-4.1654
X5.5846Y-4.4606
X5.6043Y-4.8228
X5.6102Y-3.6024
X5.6516Y-3.5433
X5.7283Y-3.4252
X5.7283Y-3.6024
X5.748Y-3.2972
X5.8075Y-4.913
X5.8232Y-5.1236
X5.8248Y-3.3917
X5.8268Y-3.0917
X5.8268Y-3.3417
X5.8268Y-3.8189
X5.8341Y-4.975
X5.8567Y-4.6728
X5.8839Y-3.3917
X5.9059Y-4.7122
X5.9071Y-4.4366
X5.9083Y-4.9221
X5.9118Y-4.5843
X5.9169Y-5.273
X5.9217Y-4.3603
X5.9217Y-4.6261
X5.9252Y-3.5039
X5.9335Y-4.7299
X5.9374Y-4.5482
X5.9551Y-4.2909
X5.9551Y-4.8972
X5.961Y-4.7457
X5.9641Y-4.4686
X5.9704Y-4.9842
X5.9846Y-4.4927
X5.9866Y-4.2378
X6.0111Y-4.5098
X6.022Y-4.2654
X6.024Y-4.1787
X6.0335Y-3.7441
X6.0398Y-4.7516
X6.0425Y-4.508
X6.0551Y-4.5394
X6.063Y-3.4449
X6.0654Y-4.228
X6.0732Y-4.7398
X6.0988Y-4.5453
X6.1024Y-3.8484
X6.1124Y-4.7518
X6.1382Y-4.5552
X6.1417Y-4.7362
X6.1614Y-3.7008
X6.1697Y-4.1571
X6.1697Y-4.2181
X6.1752Y-3.4508
X6.1909Y-3.878
X6.1996Y-5.2736
X6.2106Y-3.7008
X6.2278Y-4.3899
X6.2303Y-3.3957
X6.2402Y-3.0906
X6.2443Y-4.6184
X6.249Y-3.5413
X6.2862Y-5.2736
X6.2963Y-3.7909
X6.2992Y-3.6417
X6.3189Y-3.2087
X6.3189Y-4.7638
X6.3425Y-3.2677
X6.3583Y-4.8031
X6.372Y-4.1732
X6.376Y-4.4685
X6.3976Y-3.4646
X6.3976Y-4.9803
X6.4134Y-3.6122
X6.4154Y-5.2539
X6.4173Y-3.189
X6.4185Y-4.8301
X6.4213Y-4.4094
X6.437Y-3.7418
X6.4469Y-4.2894
X6.4469Y-4.2894
X6.4567Y-5.0098
X6.4911Y-4.1304
X6.4961Y-4.7736
X6.4961Y-4.8917
X6.5157Y-3.0917
X6.5157Y-3.5917
X6.5256Y-3.8386
X6.5356Y-3.8685
X6.5696Y-3.8678
X6.5748Y-3.9075
X6.5748Y-3.939
X6.6128Y-3.9474
X6.6349Y-4.2334
X6.6368Y-4.1291
X6.6693Y-4.1693
X6.6831Y-3.5335
X6.6929Y-4.0748
X6.6929Y-4.7736
X6.6929Y-4.8917
X6.752Y-4.5394
T3
X5.8449Y-3.8969
X5.8449Y-3.9469
X5.8949Y-3.8969
X5.8949Y-3.9469
X5.9449Y-3.8969
X5.9449Y-3.9469
T4
X5.5906Y-4.0157
X5.6102Y-4.9803
X5.6693Y-4.0157
X5.689Y-4.9803
T5
X6.0598Y-4.0157
X6.1598Y-4.0157
X6.2598Y-4.0157
X6.3598Y-4.0157
X6.6323Y-3.1693
X6.7087Y-3.6563
X6.7087Y-3.7563
X6.7087Y-3.8563
X6.7323Y-3.1693
T2
G00X6.5695Y-4.0102
M15
G01X6.6128Y-4.0102
M16
G05
G00X6.5695Y-4.3504
M15
G01X6.6128Y-4.3504
M16
G05
G00X6.7439Y-4.0102
M15
G01X6.7675Y-4.0102
M16
G05
G00X6.7439Y-4.3504
M15
G01X6.7675Y-4.3504
M16
G05
M30
