%TF.GenerationSoftware,KiCad,Pcbnew,10.0.2*%
%TF.CreationDate,2026-05-30T19:47:25-05:00*%
%TF.ProjectId,OM-FlexGrid-Rigid-PCB,4f4d2d46-6c65-4784-9772-69642d526967,rev?*%
%TF.SameCoordinates,Original*%
%TF.FileFunction,Copper,L1,Top*%
%TF.FilePolarity,Positive*%
%FSLAX46Y46*%
G04 Gerber Fmt 4.6, Leading zero omitted, Abs format (unit mm)*
G04 Created by KiCad (PCBNEW 10.0.2) date 2026-05-30 19:47:25*
%MOMM*%
%LPD*%
G01*
G04 APERTURE LIST*
G04 Aperture macros list*
%AMRoundRect*
0 Rectangle with rounded corners*
0 $1 Rounding radius*
0 $2 $3 $4 $5 $6 $7 $8 $9 X,Y pos of 4 corners*
0 Add a 4 corners polygon primitive as box body*
4,1,4,$2,$3,$4,$5,$6,$7,$8,$9,$2,$3,0*
0 Add four circle primitives for the rounded corners*
1,1,$1+$1,$2,$3*
1,1,$1+$1,$4,$5*
1,1,$1+$1,$6,$7*
1,1,$1+$1,$8,$9*
0 Add four rect primitives between the rounded corners*
20,1,$1+$1,$2,$3,$4,$5,0*
20,1,$1+$1,$4,$5,$6,$7,0*
20,1,$1+$1,$6,$7,$8,$9,0*
20,1,$1+$1,$8,$9,$2,$3,0*%
G04 Aperture macros list end*
%TA.AperFunction,SMDPad,CuDef*%
%ADD10RoundRect,0.087500X-0.087500X0.225000X-0.087500X-0.225000X0.087500X-0.225000X0.087500X0.225000X0*%
%TD*%
%TA.AperFunction,SMDPad,CuDef*%
%ADD11RoundRect,0.087500X-0.225000X0.087500X-0.225000X-0.087500X0.225000X-0.087500X0.225000X0.087500X0*%
%TD*%
%TA.AperFunction,SMDPad,CuDef*%
%ADD12RoundRect,0.200000X-0.200000X-0.275000X0.200000X-0.275000X0.200000X0.275000X-0.200000X0.275000X0*%
%TD*%
%TA.AperFunction,SMDPad,CuDef*%
%ADD13RoundRect,0.225000X0.375000X-0.225000X0.375000X0.225000X-0.375000X0.225000X-0.375000X-0.225000X0*%
%TD*%
%TA.AperFunction,SMDPad,CuDef*%
%ADD14R,1.450000X1.000000*%
%TD*%
%TA.AperFunction,SMDPad,CuDef*%
%ADD15RoundRect,0.150000X0.512500X0.150000X-0.512500X0.150000X-0.512500X-0.150000X0.512500X-0.150000X0*%
%TD*%
%TA.AperFunction,ComponentPad*%
%ADD16R,1.000000X1.000000*%
%TD*%
%TA.AperFunction,ComponentPad*%
%ADD17C,1.000000*%
%TD*%
%TA.AperFunction,SMDPad,CuDef*%
%ADD18RoundRect,0.225000X0.250000X-0.225000X0.250000X0.225000X-0.250000X0.225000X-0.250000X-0.225000X0*%
%TD*%
%TA.AperFunction,SMDPad,CuDef*%
%ADD19RoundRect,0.200000X0.200000X0.275000X-0.200000X0.275000X-0.200000X-0.275000X0.200000X-0.275000X0*%
%TD*%
%TA.AperFunction,SMDPad,CuDef*%
%ADD20RoundRect,0.150000X-0.150000X0.587500X-0.150000X-0.587500X0.150000X-0.587500X0.150000X0.587500X0*%
%TD*%
%TA.AperFunction,SMDPad,CuDef*%
%ADD21RoundRect,0.200000X-0.275000X0.200000X-0.275000X-0.200000X0.275000X-0.200000X0.275000X0.200000X0*%
%TD*%
%TA.AperFunction,SMDPad,CuDef*%
%ADD22RoundRect,0.225000X0.225000X0.250000X-0.225000X0.250000X-0.225000X-0.250000X0.225000X-0.250000X0*%
%TD*%
%TA.AperFunction,ComponentPad*%
%ADD23R,1.350000X1.350000*%
%TD*%
%TA.AperFunction,ComponentPad*%
%ADD24C,1.350000*%
%TD*%
%TA.AperFunction,SMDPad,CuDef*%
%ADD25RoundRect,0.150000X-0.150000X0.512500X-0.150000X-0.512500X0.150000X-0.512500X0.150000X0.512500X0*%
%TD*%
%TA.AperFunction,SMDPad,CuDef*%
%ADD26RoundRect,0.150000X0.587500X0.150000X-0.587500X0.150000X-0.587500X-0.150000X0.587500X-0.150000X0*%
%TD*%
%TA.AperFunction,SMDPad,CuDef*%
%ADD27RoundRect,0.243750X-0.243750X-0.456250X0.243750X-0.456250X0.243750X0.456250X-0.243750X0.456250X0*%
%TD*%
%TA.AperFunction,SMDPad,CuDef*%
%ADD28R,0.300000X1.000000*%
%TD*%
%TA.AperFunction,SMDPad,CuDef*%
%ADD29R,1.650000X1.300000*%
%TD*%
%TA.AperFunction,SMDPad,CuDef*%
%ADD30RoundRect,0.225000X-0.250000X0.225000X-0.250000X-0.225000X0.250000X-0.225000X0.250000X0.225000X0*%
%TD*%
%TA.AperFunction,ComponentPad*%
%ADD31R,1.700000X1.700000*%
%TD*%
%TA.AperFunction,ComponentPad*%
%ADD32C,1.700000*%
%TD*%
%TA.AperFunction,SMDPad,CuDef*%
%ADD33RoundRect,0.250000X0.250000X0.475000X-0.250000X0.475000X-0.250000X-0.475000X0.250000X-0.475000X0*%
%TD*%
%TA.AperFunction,SMDPad,CuDef*%
%ADD34RoundRect,0.150000X0.150000X-0.512500X0.150000X0.512500X-0.150000X0.512500X-0.150000X-0.512500X0*%
%TD*%
%TA.AperFunction,SMDPad,CuDef*%
%ADD35R,1.450000X0.600000*%
%TD*%
%TA.AperFunction,SMDPad,CuDef*%
%ADD36R,1.450000X0.300000*%
%TD*%
%TA.AperFunction,HeatsinkPad*%
%ADD37O,2.100000X1.000000*%
%TD*%
%TA.AperFunction,HeatsinkPad*%
%ADD38O,1.600000X1.000000*%
%TD*%
%TA.AperFunction,SMDPad,CuDef*%
%ADD39RoundRect,0.225000X-0.225000X-0.250000X0.225000X-0.250000X0.225000X0.250000X-0.225000X0.250000X0*%
%TD*%
%TA.AperFunction,SMDPad,CuDef*%
%ADD40RoundRect,0.250000X-0.250000X-0.475000X0.250000X-0.475000X0.250000X0.475000X-0.250000X0.475000X0*%
%TD*%
%TA.AperFunction,SMDPad,CuDef*%
%ADD41RoundRect,0.150000X-0.512500X-0.150000X0.512500X-0.150000X0.512500X0.150000X-0.512500X0.150000X0*%
%TD*%
%TA.AperFunction,ViaPad*%
%ADD42C,0.600000*%
%TD*%
%TA.AperFunction,Conductor*%
%ADD43C,0.200000*%
%TD*%
%TA.AperFunction,Conductor*%
%ADD44C,0.330000*%
%TD*%
G04 APERTURE END LIST*
D10*
%TO.P,IC1,1,SDO/AD0_1*%
%TO.N,unconnected-(IC1-SDO{slash}AD0-Pad1)*%
X154850000Y-108337500D03*
%TO.P,IC1,2,RESV1_2*%
%TO.N,unconnected-(IC1-RESV1-Pad2)*%
X154350000Y-108337500D03*
%TO.P,IC1,3,RESV2_3*%
%TO.N,unconnected-(IC1-RESV2-Pad3)*%
X153850000Y-108337500D03*
%TO.P,IC1,4,INT1/INT_4*%
%TO.N,unconnected-(IC1-INT1{slash}INT-Pad4)*%
X153350000Y-108337500D03*
D11*
%TO.P,IC1,5,VDDIO_5*%
%TO.N,+3V3*%
X153187500Y-109000000D03*
%TO.P,IC1,6,GND_6*%
%TO.N,GND*%
X153187500Y-109500000D03*
%TO.P,IC1,7,RESV_3_7*%
X153187500Y-110000000D03*
D10*
%TO.P,IC1,8,VDD_8*%
%TO.N,+3V3*%
X153350000Y-110662500D03*
%TO.P,IC1,9,INT2/FSYNC/CLKIN_9*%
%TO.N,unconnected-(IC1-INT2{slash}FSYNC{slash}CLKIN-Pad9)*%
X153850000Y-110662500D03*
%TO.P,IC1,10,RESV_4_10*%
%TO.N,unconnected-(IC1-RESV_4-Pad10)*%
X154350000Y-110662500D03*
%TO.P,IC1,11,RESV_5_11*%
%TO.N,GND*%
X154850000Y-110662500D03*
D11*
%TO.P,IC1,12,AP_CS_12*%
%TO.N,unconnected-(IC1-AP_CS-Pad12)*%
X155012500Y-110000000D03*
%TO.P,IC1,13,SCL/SCLK_13*%
%TO.N,SCL*%
X155012500Y-109500000D03*
%TO.P,IC1,14,SDA/SDIO/ASDI_14*%
%TO.N,SDA*%
X155012500Y-109000000D03*
%TD*%
D12*
%TO.P,R14,1*%
%TO.N,GND*%
X164910000Y-123460000D03*
%TO.P,R14,2*%
%TO.N,ROW_2*%
X166560000Y-123460000D03*
%TD*%
D13*
%TO.P,D1,1,K_1*%
%TO.N,VIN*%
X144500000Y-95500000D03*
%TO.P,D1,2,A_2*%
%TO.N,VBUS*%
X144500000Y-92200000D03*
%TD*%
D14*
%TO.P,SELECT1,1,1_1*%
%TO.N,SELECT*%
X141850000Y-115000000D03*
%TO.P,SELECT1,2,2_2*%
%TO.N,GND*%
X141850000Y-113300000D03*
%TO.P,SELECT1,3*%
%TO.N,N/C*%
X147000000Y-115000000D03*
%TO.P,SELECT1,4*%
X147000000Y-113300000D03*
%TD*%
D15*
%TO.P,U3,1,IN_1*%
%TO.N,VIN*%
X161000000Y-89950000D03*
%TO.P,U3,2,GND_2*%
%TO.N,GND*%
X161000000Y-89000000D03*
%TO.P,U3,3,EN_3*%
%TO.N,Net-(U3-EN)*%
X161000000Y-88050000D03*
%TO.P,U3,4,NC_4*%
%TO.N,unconnected-(U3-NC-Pad4)*%
X158725000Y-88050000D03*
%TO.P,U3,5,OUT_5*%
%TO.N,+3V3*%
X158725000Y-89950000D03*
%TD*%
D14*
%TO.P,MENU1,1,1_1*%
%TO.N,MENU*%
X141850000Y-107500000D03*
%TO.P,MENU1,2,2_2*%
%TO.N,GND*%
X141850000Y-105800000D03*
%TO.P,MENU1,3*%
%TO.N,N/C*%
X147000000Y-107500000D03*
%TO.P,MENU1,4*%
X147000000Y-105800000D03*
%TD*%
D12*
%TO.P,R5,1*%
%TO.N,VBUS*%
X142850000Y-81500000D03*
%TO.P,R5,2*%
%TO.N,Net-(D2-A)*%
X144500000Y-81500000D03*
%TD*%
D16*
%TO.P,J1,1,Pin_1_1*%
%TO.N,GP41*%
X148460000Y-100250000D03*
D17*
%TO.P,J1,2,Pin_2_2*%
%TO.N,SPI_MOSI*%
X148460000Y-98980000D03*
%TO.P,J1,3,Pin_3_3*%
%TO.N,SPI_SCK*%
X149730000Y-100250000D03*
%TO.P,J1,4,Pin_4_4*%
%TO.N,SPI_MISO*%
X149730000Y-98980000D03*
%TO.P,J1,5,Pin_5_5*%
%TO.N,CS*%
X151000000Y-100250000D03*
%TO.P,J1,6,Pin_6_6*%
%TO.N,GP40*%
X151000000Y-98980000D03*
%TD*%
D18*
%TO.P,C11,1*%
%TO.N,+3V3*%
X156250000Y-112550000D03*
%TO.P,C11,2*%
%TO.N,GND*%
X156250000Y-111000000D03*
%TD*%
D19*
%TO.P,R2,1*%
%TO.N,Net-(J4-CC1)*%
X164750000Y-112000000D03*
%TO.P,R2,2*%
%TO.N,GND*%
X163100000Y-112000000D03*
%TD*%
D20*
%TO.P,Q3,1,G_1*%
%TO.N,PWR_OFF*%
X163000000Y-83000000D03*
%TO.P,Q3,2,S_2*%
%TO.N,GND*%
X161100000Y-83000000D03*
%TO.P,Q3,3,D_3*%
%TO.N,Net-(MAX1-In)*%
X162050000Y-84875000D03*
%TD*%
D21*
%TO.P,R4,1*%
%TO.N,Net-(U4-PROG)*%
X142000000Y-84175000D03*
%TO.P,R4,2*%
%TO.N,GND*%
X142000000Y-85825000D03*
%TD*%
D22*
%TO.P,C15,1*%
%TO.N,GND*%
X169500000Y-124900000D03*
%TO.P,C15,2*%
%TO.N,ROW_3*%
X167950000Y-124900000D03*
%TD*%
D23*
%TO.P,J7,1,Pin_1_1*%
%TO.N,GND*%
X144500000Y-126500000D03*
D24*
%TO.P,J7,2,Pin_2_2*%
%TO.N,+3V3*%
X142500000Y-126500000D03*
%TD*%
D25*
%TO.P,MAX1,1,In_1*%
%TO.N,Net-(MAX1-In)*%
X158500000Y-82225000D03*
%TO.P,MAX1,2,GND_2*%
%TO.N,GND*%
X157550000Y-82225000D03*
%TO.P,MAX1,3,CLEAR_3*%
%TO.N,Net-(MAX1-CLEAR)*%
X156600000Y-82225000D03*
%TO.P,MAX1,4,OU_4*%
%TO.N,unconnected-(MAX1-OU-Pad4)*%
X156600000Y-84500000D03*
%TO.P,MAX1,5,OUT_5*%
%TO.N,LDO_EN*%
X157550000Y-84500000D03*
%TO.P,MAX1,6,Vcc_6*%
%TO.N,VBAT*%
X158500000Y-84500000D03*
%TD*%
D14*
%TO.P,BOOT1,1,1_1*%
%TO.N,GND*%
X171500000Y-115300000D03*
%TO.P,BOOT1,2,2_2*%
%TO.N,EN*%
X171500000Y-117000000D03*
%TO.P,BOOT1,3*%
%TO.N,N/C*%
X166350000Y-115300000D03*
%TO.P,BOOT1,4*%
X166350000Y-117000000D03*
%TD*%
D26*
%TO.P,Q2,1,G_1*%
%TO.N,VBUS*%
X171500000Y-88400000D03*
%TO.P,Q2,2,S_2*%
%TO.N,VIN*%
X171500000Y-86500000D03*
%TO.P,Q2,3,D_3*%
%TO.N,VBAT*%
X169625000Y-87450000D03*
%TD*%
D19*
%TO.P,R1,1*%
%TO.N,Net-(J4-CC2)*%
X163500000Y-106000000D03*
%TO.P,R1,2*%
%TO.N,GND*%
X161850000Y-106000000D03*
%TD*%
D14*
%TO.P,SW_PWR1,1,1_1*%
%TO.N,GND*%
X159000000Y-73000000D03*
%TO.P,SW_PWR1,2,2_2*%
%TO.N,Net-(MAX1-In)*%
X159000000Y-74700000D03*
%TO.P,SW_PWR1,3*%
%TO.N,N/C*%
X153850000Y-73000000D03*
%TO.P,SW_PWR1,4*%
X153850000Y-74700000D03*
%TD*%
D18*
%TO.P,C10,1*%
%TO.N,+3V3*%
X157750000Y-112550000D03*
%TO.P,C10,2*%
%TO.N,GND*%
X157750000Y-111000000D03*
%TD*%
D27*
%TO.P,D2,1,K_1*%
%TO.N,Net-(D2-K)*%
X142625000Y-79500000D03*
%TO.P,D2,2,A_2*%
%TO.N,Net-(D2-A)*%
X144500000Y-79500000D03*
%TD*%
D22*
%TO.P,C14,1*%
%TO.N,GND*%
X169500000Y-123400000D03*
%TO.P,C14,2*%
%TO.N,ROW_2*%
X167950000Y-123400000D03*
%TD*%
D19*
%TO.P,R8,1*%
%TO.N,ADC_BAT*%
X172000000Y-84500000D03*
%TO.P,R8,2*%
%TO.N,GND*%
X170350000Y-84500000D03*
%TD*%
D22*
%TO.P,C12,1*%
%TO.N,GND*%
X169500000Y-120400000D03*
%TO.P,C12,2*%
%TO.N,ROW_0*%
X167950000Y-120400000D03*
%TD*%
D28*
%TO.P,J3,1,Pin_1_1*%
%TO.N,GND*%
X151775000Y-127250000D03*
%TO.P,J3,2,Pin_2_2*%
%TO.N,COL_0*%
X152275000Y-127250000D03*
%TO.P,J3,3,Pin_3_3*%
%TO.N,COL_1*%
X152775000Y-127250000D03*
%TO.P,J3,4,Pin_4_4*%
%TO.N,COL_2*%
X153275000Y-127250000D03*
%TO.P,J3,5,Pin_5_5*%
%TO.N,COL_3*%
X153775000Y-127250000D03*
%TO.P,J3,6,Pin_6_6*%
%TO.N,COL_4*%
X154275000Y-127250000D03*
%TO.P,J3,7,Pin_7_7*%
%TO.N,COL_5*%
X154775000Y-127250000D03*
%TO.P,J3,8,Pin_8_8*%
%TO.N,COL_6*%
X155275000Y-127250000D03*
%TO.P,J3,9,Pin_9_9*%
%TO.N,COL_7*%
X155775000Y-127250000D03*
%TO.P,J3,10,Pin_10_10*%
%TO.N,COL_8*%
X156275000Y-127250000D03*
%TO.P,J3,11,Pin_11_11*%
%TO.N,COL_9*%
X156775000Y-127250000D03*
%TO.P,J3,12,Pin_12_12*%
%TO.N,COL_10*%
X157275000Y-127250000D03*
%TO.P,J3,13,Pin_13_13*%
%TO.N,COL_11*%
X157775000Y-127250000D03*
%TO.P,J3,14,Pin_14_14*%
%TO.N,COL_12*%
X158275000Y-127250000D03*
%TO.P,J3,15,Pin_15_15*%
%TO.N,COL_13*%
X158775000Y-127250000D03*
%TO.P,J3,16,Pin_16_16*%
%TO.N,COL_14*%
X159275000Y-127250000D03*
%TO.P,J3,17,Pin_17_17*%
%TO.N,ROW_0*%
X159775000Y-127250000D03*
%TO.P,J3,18,Pin_18_18*%
%TO.N,ROW_1*%
X160275000Y-127250000D03*
%TO.P,J3,19,Pin_19_19*%
%TO.N,ROW_2*%
X160775000Y-127250000D03*
%TO.P,J3,20,Pin_20_20*%
%TO.N,ROW_3*%
X161275000Y-127250000D03*
D29*
%TO.P,J3,MP1*%
%TO.N,N/C*%
X149500000Y-129150000D03*
%TO.P,J3,MP2*%
X163550000Y-129150000D03*
%TD*%
D30*
%TO.P,C8,1*%
%TO.N,GND*%
X145000000Y-84450000D03*
%TO.P,C8,2*%
%TO.N,VBUS*%
X145000000Y-86000000D03*
%TD*%
D31*
%TO.P,J2,1,Pin_1_1*%
%TO.N,GND*%
X171000000Y-80500000D03*
D32*
%TO.P,J2,2,Pin_2_2*%
%TO.N,VBAT*%
X168460000Y-80500000D03*
%TD*%
D12*
%TO.P,R3,1*%
%TO.N,Net-(MAX1-CLEAR)*%
X156850000Y-78500000D03*
%TO.P,R3,2*%
%TO.N,GND*%
X158500000Y-78500000D03*
%TD*%
D33*
%TO.P,C7,1*%
%TO.N,+3V3*%
X162900000Y-91750000D03*
%TO.P,C7,2*%
%TO.N,GND*%
X161000000Y-91750000D03*
%TD*%
D31*
%TO.P,SCRN1,1,Pin_1_1*%
%TO.N,GND*%
X161540000Y-102000000D03*
D32*
%TO.P,SCRN1,2,Pin_2_2*%
%TO.N,+3V3*%
X159000000Y-102000000D03*
%TO.P,SCRN1,3,Pin_3_3*%
%TO.N,SCL*%
X156460000Y-102000000D03*
%TO.P,SCRN1,4,Pin_4_4*%
%TO.N,SDA*%
X153920000Y-102000000D03*
%TD*%
D34*
%TO.P,U4,1,~{CHRG}_1*%
%TO.N,Net-(D2-K)*%
X142600000Y-90000000D03*
%TO.P,U4,2,GND_2*%
%TO.N,GND*%
X143550000Y-90000000D03*
%TO.P,U4,3,BAT_3*%
%TO.N,VBAT*%
X144500000Y-90000000D03*
%TO.P,U4,4,V_{CC}_4*%
%TO.N,VBUS*%
X144500000Y-87725000D03*
%TO.P,U4,5,PROG_5*%
%TO.N,Net-(U4-PROG)*%
X142600000Y-87725000D03*
%TD*%
D14*
%TO.P,SW_RST1,1,1_1*%
%TO.N,GND*%
X147500000Y-120800000D03*
%TO.P,SW_RST1,2,2_2*%
%TO.N,100*%
X147500000Y-122500000D03*
%TO.P,SW_RST1,3*%
%TO.N,N/C*%
X142350000Y-120800000D03*
%TO.P,SW_RST1,4*%
X142350000Y-122500000D03*
%TD*%
D35*
%TO.P,J4,A1,GND_A1*%
%TO.N,GND*%
X166500000Y-109430000D03*
%TO.P,J4,A4,VBUS_A4*%
%TO.N,VBUS*%
X166500000Y-108630000D03*
D36*
%TO.P,J4,A5,CC1_A5*%
%TO.N,Net-(J4-CC1)*%
X166500000Y-107430000D03*
%TO.P,J4,A6,D+_A6*%
%TO.N,Net-(J4-D+-PadA6)*%
X166500000Y-106430000D03*
%TO.P,J4,A7,D-_A7*%
%TO.N,Net-(J4-D--PadA7)*%
X166500000Y-105930000D03*
%TO.P,J4,A8,SBU1_A8*%
%TO.N,unconnected-(J4-SBU1-PadA8)*%
X166500000Y-104930000D03*
D35*
%TO.P,J4,A9,VBUS_A9*%
%TO.N,VBUS*%
X166500000Y-103730000D03*
%TO.P,J4,A12,GND_A12*%
%TO.N,GND*%
X166500000Y-102930000D03*
%TO.P,J4,B1,GND_B1*%
X166500000Y-102930000D03*
%TO.P,J4,B4,VBUS_B4*%
%TO.N,VBUS*%
X166500000Y-103730000D03*
D36*
%TO.P,J4,B5,CC2_B5*%
%TO.N,Net-(J4-CC2)*%
X166500000Y-104430000D03*
%TO.P,J4,B6,D+_B6*%
%TO.N,Net-(J4-D+-PadA6)*%
X166500000Y-105430000D03*
%TO.P,J4,B7,D-_B7*%
%TO.N,Net-(J4-D--PadA7)*%
X166500000Y-106930000D03*
%TO.P,J4,B8,SBU2_B8*%
%TO.N,unconnected-(J4-SBU2-PadB8)*%
X166500000Y-107930000D03*
D35*
%TO.P,J4,B9,VBUS_B9*%
%TO.N,VBUS*%
X166500000Y-108630000D03*
%TO.P,J4,B12,GND_B12*%
%TO.N,GND*%
X166500000Y-109430000D03*
D37*
%TO.P,J4,S1,SHIELD_S1*%
X167415000Y-110500000D03*
D38*
X171595000Y-110500000D03*
D37*
X167415000Y-101860000D03*
D38*
X171595000Y-101860000D03*
%TD*%
D39*
%TO.P,C5,1*%
%TO.N,GND*%
X161950000Y-114000000D03*
%TO.P,C5,2*%
%TO.N,EN*%
X163500000Y-114000000D03*
%TD*%
D12*
%TO.P,R7,1*%
%TO.N,VBAT*%
X170175000Y-83000000D03*
%TO.P,R7,2*%
%TO.N,ADC_BAT*%
X171825000Y-83000000D03*
%TD*%
D40*
%TO.P,C6,1*%
%TO.N,VIN*%
X156600000Y-92500000D03*
%TO.P,C6,2*%
%TO.N,GND*%
X158500000Y-92500000D03*
%TD*%
D12*
%TO.P,R15,1*%
%TO.N,GND*%
X164910000Y-124960000D03*
%TO.P,R15,2*%
%TO.N,ROW_3*%
X166560000Y-124960000D03*
%TD*%
%TO.P,R12,1*%
%TO.N,GND*%
X164910000Y-120460000D03*
%TO.P,R12,2*%
%TO.N,ROW_0*%
X166560000Y-120460000D03*
%TD*%
%TO.P,R6,1*%
%TO.N,+3V3*%
X161850000Y-115500000D03*
%TO.P,R6,2*%
%TO.N,EN*%
X163500000Y-115500000D03*
%TD*%
%TO.P,R13,1*%
%TO.N,GND*%
X164910000Y-121960000D03*
%TO.P,R13,2*%
%TO.N,ROW_1*%
X166560000Y-121960000D03*
%TD*%
D20*
%TO.P,D3,1*%
%TO.N,LDO_EN*%
X153400000Y-91500000D03*
%TO.P,D3,2*%
%TO.N,VBUS*%
X151500000Y-91500000D03*
%TO.P,D3,3*%
%TO.N,Net-(U3-EN)*%
X152450000Y-93375000D03*
%TD*%
D41*
%TO.P,U5,1,I/O1_1*%
%TO.N,D+*%
X161475000Y-108000000D03*
%TO.P,U5,2,GND_2*%
%TO.N,VBUS*%
X161475000Y-108950000D03*
%TO.P,U5,3,I/O2_3*%
%TO.N,D-*%
X161475000Y-109900000D03*
%TO.P,U5,4,I/O2_4*%
%TO.N,Net-(J4-D--PadA7)*%
X163750000Y-109900000D03*
%TO.P,U5,5,VBUS_5*%
%TO.N,GND*%
X163750000Y-108950000D03*
%TO.P,U5,6,I/O1_6*%
%TO.N,Net-(J4-D+-PadA6)*%
X163750000Y-108000000D03*
%TD*%
D12*
%TO.P,R9,1*%
%TO.N,VBUS*%
X152350000Y-87500000D03*
%TO.P,R9,2*%
%TO.N,GND*%
X154000000Y-87500000D03*
%TD*%
D16*
%TO.P,J6,1,Pin_1_1*%
%TO.N,GND*%
X170500000Y-93750000D03*
D17*
%TO.P,J6,2,Pin_2_2*%
%TO.N,RX*%
X170500000Y-95020000D03*
%TO.P,J6,3,Pin_3_3*%
%TO.N,TX*%
X170500000Y-96290000D03*
%TD*%
D22*
%TO.P,C13,1*%
%TO.N,GND*%
X169500000Y-121900000D03*
%TO.P,C13,2*%
%TO.N,ROW_1*%
X167950000Y-121900000D03*
%TD*%
D23*
%TO.P,J5,1,Pin_1_1*%
%TO.N,VBAT*%
X144000000Y-102000000D03*
D24*
%TO.P,J5,2,Pin_2_2*%
%TO.N,MotorGND*%
X142000000Y-102000000D03*
%TD*%
D42*
%TO.N,GND*%
X162500000Y-88000000D03*
X147500000Y-120800000D03*
X154000000Y-87500000D03*
X157000000Y-111000000D03*
X171500000Y-115300000D03*
X161950000Y-113500000D03*
X165500000Y-78530000D03*
X160000000Y-92500000D03*
X146000000Y-83750000D03*
X161850000Y-106000000D03*
X148000000Y-78530000D03*
X154000000Y-109500000D03*
X165000000Y-121250000D03*
X151500000Y-127000000D03*
X170000000Y-124250000D03*
X163750000Y-108950000D03*
X158250000Y-86250000D03*
X143550000Y-90000000D03*
X141850000Y-113300000D03*
X170000000Y-121250000D03*
X156850000Y-87650000D03*
X141500000Y-87000000D03*
X141850000Y-105800000D03*
X163100000Y-112000000D03*
X151500000Y-121500000D03*
X158500000Y-78500000D03*
X161100000Y-83000000D03*
X165000000Y-124250000D03*
%TO.N,ROW_2*%
X162500000Y-126500000D03*
%TO.N,VBUS*%
X145500000Y-91500000D03*
X169750000Y-89750000D03*
X168527500Y-107527500D03*
X168575000Y-104880000D03*
X150500000Y-89000000D03*
X145500000Y-87000000D03*
%TO.N,SELECT*%
X159925000Y-96290000D03*
%TO.N,+3V3*%
X162900000Y-91750000D03*
X159500000Y-121500000D03*
X158725000Y-89950000D03*
X152752162Y-108872354D03*
X159275000Y-115500000D03*
X163000000Y-81000000D03*
%TO.N,MENU*%
X153250000Y-95100000D03*
%TO.N,SPI_MOSI*%
X155000000Y-97750000D03*
%TO.N,SPI_MISO*%
X157250000Y-98500000D03*
%TO.N,PWR_OFF*%
X160500000Y-81500000D03*
%TO.N,ROW_3*%
X164000000Y-127250000D03*
%TO.N,VBAT*%
X142500000Y-91500000D03*
%TO.N,EN*%
X170000000Y-103500000D03*
%TO.N,ADC_BAT*%
X165500000Y-91230000D03*
%TO.N,ROW_0*%
X160500000Y-121000000D03*
%TO.N,COL_0*%
X150000000Y-124500000D03*
%TO.N,COL_1*%
X150800000Y-124800000D03*
%TO.N,COL_2*%
X151623836Y-124821741D03*
%TO.N,COL_3*%
X153166175Y-125019853D03*
%TO.N,COL_4*%
X153812471Y-125491887D03*
%TO.N,COL_5*%
X154590572Y-125305976D03*
%TO.N,COL_6*%
X155614952Y-124483578D03*
%TO.N,COL_7*%
X156674265Y-124174265D03*
%TO.N,COL_8*%
X152578185Y-117500000D03*
%TO.N,COL_9*%
X153100000Y-118111472D03*
%TO.N,COL_10*%
X153771509Y-118546305D03*
%TO.N,COL_11*%
X154570170Y-118500000D03*
%TO.N,COL_12*%
X155091684Y-119106652D03*
%TO.N,COL_13*%
X156000000Y-119300000D03*
%TO.N,COL_14*%
X157000000Y-119700000D03*
%TO.N,ROW_1*%
X161500000Y-122000000D03*
%TO.N,SDA*%
X163500000Y-95040698D03*
%TO.N,100*%
X148000000Y-97000000D03*
%TO.N,D+*%
X164873894Y-104911881D03*
%TO.N,D-*%
X169400000Y-105900000D03*
%TO.N,RX*%
X157750000Y-94000000D03*
%TO.N,TX*%
X156500000Y-94000000D03*
%TO.N,S0*%
X167965148Y-100265153D03*
X151900000Y-119521815D03*
%TO.N,S1*%
X167000000Y-100050003D03*
X150750000Y-120750000D03*
%TO.N,S3*%
X166867731Y-98242731D03*
X151500000Y-114750000D03*
%TO.N,S2*%
X167000000Y-99250000D03*
X150750000Y-116750000D03*
%TO.N,GP16_E*%
X150750000Y-107500000D03*
X166002983Y-98258949D03*
%TO.N,MOT_SIG*%
X165750000Y-97500000D03*
X148750000Y-107750000D03*
%TD*%
%TO.N,GND*%
D43*
X145000000Y-84450000D02*
X145300000Y-84450000D01*
X153200000Y-109500000D02*
X154000000Y-109500000D01*
X160025000Y-76975000D02*
X158500000Y-78500000D01*
X161950000Y-113500000D02*
X161950000Y-114000000D01*
X151775000Y-127250000D02*
X151750000Y-127250000D01*
X164910000Y-121340000D02*
X164910000Y-121960000D01*
X170000000Y-124920000D02*
X169960000Y-124960000D01*
X169960000Y-120460000D02*
X170000000Y-120500000D01*
X145300000Y-84450000D02*
X146000000Y-83750000D01*
X164910000Y-124160000D02*
X164910000Y-123460000D01*
X166500000Y-102775000D02*
X167415000Y-101860000D01*
X161500000Y-89000000D02*
X162500000Y-88000000D01*
X160750000Y-91750000D02*
X160000000Y-92500000D01*
X170000000Y-124250000D02*
X170000000Y-123500000D01*
X153200000Y-110000000D02*
X153500000Y-110000000D01*
X160025000Y-74025000D02*
X160025000Y-76975000D01*
X153500000Y-110000000D02*
X154000000Y-109500000D01*
X170000000Y-121920000D02*
X169960000Y-121960000D01*
X157550000Y-79450000D02*
X158500000Y-78500000D01*
X157000000Y-111000000D02*
X156250000Y-111000000D01*
X166500000Y-102930000D02*
X166500000Y-102775000D01*
X154850000Y-110650000D02*
X155900000Y-110650000D01*
X157750000Y-111000000D02*
X157000000Y-111000000D01*
X151750000Y-127250000D02*
X151500000Y-127000000D01*
X165000000Y-124250000D02*
X164910000Y-124340000D01*
X157550000Y-82225000D02*
X157550000Y-79450000D01*
X170000000Y-124250000D02*
X170000000Y-124920000D01*
X170350000Y-84500000D02*
X171000000Y-83850000D01*
X165000000Y-124250000D02*
X164910000Y-124160000D01*
X171000000Y-83850000D02*
X171000000Y-80500000D01*
X170000000Y-121250000D02*
X170000000Y-121920000D01*
X161662499Y-89000000D02*
X161000000Y-89000000D01*
X166500000Y-109585000D02*
X167415000Y-110500000D01*
X164910000Y-124340000D02*
X164910000Y-124960000D01*
X170000000Y-120500000D02*
X170000000Y-121250000D01*
X165000000Y-121250000D02*
X164910000Y-121160000D01*
X155900000Y-110650000D02*
X156250000Y-111000000D01*
X165000000Y-121250000D02*
X164910000Y-121340000D01*
X164910000Y-121160000D02*
X164910000Y-120460000D01*
X161000000Y-91750000D02*
X160750000Y-91750000D01*
X166500000Y-109430000D02*
X166500000Y-109585000D01*
X142000000Y-85825000D02*
X142000000Y-86500000D01*
X170000000Y-123500000D02*
X169960000Y-123460000D01*
X158500000Y-92500000D02*
X160000000Y-92500000D01*
X142000000Y-86500000D02*
X141500000Y-87000000D01*
X159000000Y-73000000D02*
X160025000Y-74025000D01*
X161000000Y-89000000D02*
X161500000Y-89000000D01*
%TO.N,ROW_2*%
X166160000Y-125747648D02*
X165860000Y-125447648D01*
X160775000Y-126675000D02*
X160825000Y-126625000D01*
X168410000Y-123460000D02*
X166560000Y-123460000D01*
X161725000Y-126500000D02*
X162500000Y-126500000D01*
X160825000Y-126450000D02*
X161725000Y-126450000D01*
X160825000Y-126625000D02*
X160825000Y-126450000D01*
X165860000Y-124160000D02*
X166560000Y-123460000D01*
X165934314Y-126500000D02*
X166160000Y-126274314D01*
X160775000Y-127250000D02*
X160775000Y-126675000D01*
X161725000Y-126450000D02*
X161725000Y-126500000D01*
X162500000Y-126500000D02*
X165934314Y-126500000D01*
X165860000Y-125447648D02*
X165860000Y-124160000D01*
X166160000Y-126274314D02*
X166160000Y-125747648D01*
%TO.N,VIN*%
X163750000Y-91240256D02*
X163750000Y-90250000D01*
X145500000Y-94500000D02*
X154600000Y-94500000D01*
X164339744Y-91830000D02*
X163750000Y-91240256D01*
X163750000Y-90250000D02*
X163450000Y-89950000D01*
X144500000Y-95500000D02*
X145500000Y-94500000D01*
X172537500Y-88740552D02*
X170745209Y-90532843D01*
X154600000Y-94500000D02*
X156600000Y-92500000D01*
X170745209Y-90532843D02*
X168532843Y-90532843D01*
X171500000Y-86500000D02*
X172537500Y-87537500D01*
X172537500Y-87537500D02*
X172537500Y-88740552D01*
X160400000Y-90550000D02*
X158550000Y-90550000D01*
X158550000Y-90550000D02*
X156600000Y-92500000D01*
X167235686Y-91830000D02*
X164339744Y-91830000D01*
X168532843Y-90532843D02*
X167235686Y-91830000D01*
X161000000Y-89950000D02*
X160400000Y-90550000D01*
X163450000Y-89950000D02*
X161000000Y-89950000D01*
%TO.N,VBUS*%
X162437500Y-109250001D02*
X162437500Y-110149852D01*
D44*
X166500000Y-103730000D02*
X167338482Y-103730000D01*
X145500000Y-91500000D02*
X145200000Y-91500000D01*
D43*
X164050000Y-111762352D02*
X164050000Y-112487648D01*
X162137499Y-108950000D02*
X162437500Y-109250001D01*
D44*
X168527500Y-107527500D02*
X167725000Y-108330000D01*
D43*
X164337352Y-112775000D02*
X167475000Y-112775000D01*
X161475000Y-108950000D02*
X162137499Y-108950000D01*
D44*
X169750000Y-89750000D02*
X171100000Y-88400000D01*
X145225000Y-87000000D02*
X144500000Y-87725000D01*
D43*
X169250000Y-111000000D02*
X169250000Y-108250000D01*
D44*
X168640000Y-105654547D02*
X168640000Y-106205453D01*
X167725000Y-108330000D02*
X167638482Y-108330000D01*
D43*
X142850000Y-83850000D02*
X145000000Y-86000000D01*
D44*
X168575000Y-106270453D02*
X168575000Y-107480000D01*
X145500000Y-86500000D02*
X145000000Y-86000000D01*
D43*
X169250000Y-108250000D02*
X168527500Y-107527500D01*
D44*
X168640000Y-106205453D02*
X168575000Y-106270453D01*
D43*
X151500000Y-90000000D02*
X150500000Y-89000000D01*
D44*
X167638482Y-108330000D02*
X167338482Y-108630000D01*
D43*
X152350000Y-87500000D02*
X152000000Y-87500000D01*
D44*
X145200000Y-91500000D02*
X144500000Y-92200000D01*
X168575000Y-105589547D02*
X168640000Y-105654547D01*
X168575000Y-104880000D02*
X168575000Y-105589547D01*
D43*
X142850000Y-81500000D02*
X142850000Y-83850000D01*
D44*
X168575000Y-107480000D02*
X168527500Y-107527500D01*
D43*
X162437500Y-110149852D02*
X164050000Y-111762352D01*
X151500000Y-91500000D02*
X151500000Y-90000000D01*
D44*
X171100000Y-88400000D02*
X171500000Y-88400000D01*
D43*
X167475000Y-112775000D02*
X169250000Y-111000000D01*
D44*
X145500000Y-87000000D02*
X145225000Y-87000000D01*
D43*
X164050000Y-112487648D02*
X164337352Y-112775000D01*
D44*
X167725000Y-104030000D02*
X168575000Y-104880000D01*
X145500000Y-87000000D02*
X145500000Y-86500000D01*
X167638482Y-104030000D02*
X167725000Y-104030000D01*
X167338482Y-103730000D02*
X167638482Y-104030000D01*
X167338482Y-108630000D02*
X166500000Y-108630000D01*
D43*
X152000000Y-87500000D02*
X150500000Y-89000000D01*
%TO.N,SELECT*%
X146500000Y-96565686D02*
X146500000Y-103415686D01*
X159290000Y-96290000D02*
X159000000Y-96000000D01*
X146500000Y-103415686D02*
X143000000Y-106915686D01*
X147065686Y-96000000D02*
X146500000Y-96565686D01*
X159000000Y-96000000D02*
X147065686Y-96000000D01*
X159925000Y-96290000D02*
X159290000Y-96290000D01*
X143000000Y-113850000D02*
X141850000Y-115000000D01*
X143000000Y-106915686D02*
X143000000Y-113850000D01*
%TO.N,Net-(U3-EN)*%
X160028052Y-88050000D02*
X158728052Y-89350000D01*
X158728052Y-89350000D02*
X156928052Y-89350000D01*
X152903052Y-93375000D02*
X152450000Y-93375000D01*
X156928052Y-89350000D02*
X152903052Y-93375000D01*
X161000000Y-88050000D02*
X160028052Y-88050000D01*
%TO.N,+3V3*%
X152752162Y-108872354D02*
X152872354Y-108872354D01*
X152600000Y-109024516D02*
X152752162Y-108872354D01*
X153350000Y-110650000D02*
X152800000Y-110650000D01*
X154700000Y-112550000D02*
X152600000Y-110450000D01*
X152600000Y-110450000D02*
X152600000Y-109024516D01*
X161850000Y-115500000D02*
X159275000Y-115500000D01*
X152800000Y-110650000D02*
X152600000Y-110450000D01*
X153000000Y-109000000D02*
X153200000Y-109000000D01*
X152872354Y-108872354D02*
X153000000Y-109000000D01*
X157750000Y-112550000D02*
X154700000Y-112550000D01*
%TO.N,MENU*%
X153000000Y-95000000D02*
X147500000Y-95000000D01*
X146000000Y-96500000D02*
X146000000Y-103350000D01*
X146000000Y-103350000D02*
X141850000Y-107500000D01*
X153250000Y-95100000D02*
X153100000Y-95100000D01*
X147500000Y-95000000D02*
X146000000Y-96500000D01*
X153100000Y-95100000D02*
X153000000Y-95000000D01*
X153250000Y-95100000D02*
X153250000Y-95250000D01*
%TO.N,Net-(D2-A)*%
X144500000Y-79500000D02*
X144500000Y-81500000D01*
%TO.N,SPI_MOSI*%
X155000000Y-97750000D02*
X153250000Y-97750000D01*
X149940000Y-97500000D02*
X148460000Y-98980000D01*
X153000000Y-97500000D02*
X149940000Y-97500000D01*
X153250000Y-97750000D02*
X153000000Y-97500000D01*
%TO.N,SPI_MISO*%
X151430000Y-98180000D02*
X150530000Y-98180000D01*
X157250000Y-98500000D02*
X151750000Y-98500000D01*
X150530000Y-98180000D02*
X149730000Y-98980000D01*
X151750000Y-98500000D02*
X151430000Y-98180000D01*
%TO.N,Net-(J4-CC1)*%
X165475000Y-107480000D02*
X165475000Y-107500000D01*
X165750000Y-107480000D02*
X165475000Y-107480000D01*
X165250000Y-107705000D02*
X165250000Y-111500000D01*
X166500000Y-107430000D02*
X166450000Y-107480000D01*
X166450000Y-107480000D02*
X165750000Y-107480000D01*
X165250000Y-111500000D02*
X164750000Y-112000000D01*
X165475000Y-107480000D02*
X165250000Y-107705000D01*
%TO.N,PWR_OFF*%
X163000000Y-83000000D02*
X161500000Y-81500000D01*
X161500000Y-81500000D02*
X160500000Y-81500000D01*
%TO.N,Net-(MAX1-In)*%
X156259448Y-83187500D02*
X157890552Y-83187500D01*
X159000000Y-74700000D02*
X156000000Y-77700000D01*
X157890552Y-83187500D02*
X158500000Y-82578052D01*
X158500000Y-82578052D02*
X158500000Y-82225000D01*
X161150000Y-84875000D02*
X162050000Y-84875000D01*
X156000000Y-82928052D02*
X156259448Y-83187500D01*
X156000000Y-77700000D02*
X156000000Y-82928052D01*
X158500000Y-82225000D02*
X161150000Y-84875000D01*
%TO.N,Net-(U4-PROG)*%
X142899999Y-85074999D02*
X142899999Y-87425001D01*
X142000000Y-84175000D02*
X142899999Y-85074999D01*
X142899999Y-87425001D02*
X142600000Y-87725000D01*
%TO.N,ROW_3*%
X164000000Y-127250000D02*
X165750000Y-127250000D01*
X168410000Y-124960000D02*
X166560000Y-124960000D01*
X165750000Y-127250000D02*
X166560000Y-126440000D01*
X166560000Y-126440000D02*
X166560000Y-124960000D01*
X161275000Y-127250000D02*
X164000000Y-127250000D01*
%TO.N,Net-(MAX1-CLEAR)*%
X156600000Y-78750000D02*
X156850000Y-78500000D01*
X156600000Y-82225000D02*
X156600000Y-78750000D01*
%TO.N,LDO_EN*%
X153400000Y-91500000D02*
X153848529Y-91500000D01*
X157550000Y-87798529D02*
X157550000Y-84500000D01*
X153848529Y-91500000D02*
X157550000Y-87798529D01*
%TO.N,VBAT*%
X143662499Y-91500000D02*
X142500000Y-91500000D01*
X170175000Y-83000000D02*
X170175000Y-82215000D01*
X168460000Y-86285000D02*
X168460000Y-80500000D01*
X144500000Y-90662499D02*
X143662499Y-91500000D01*
X170175000Y-82215000D02*
X168460000Y-80500000D01*
X169625000Y-87450000D02*
X168460000Y-86285000D01*
X158500000Y-84500000D02*
X159912500Y-85912500D01*
X144500000Y-90000000D02*
X144500000Y-90662499D01*
X163047500Y-85912500D02*
X168460000Y-80500000D01*
X159912500Y-85912500D02*
X163047500Y-85912500D01*
%TO.N,EN*%
X170700000Y-116200000D02*
X164200000Y-116200000D01*
X170400000Y-111400000D02*
X167800000Y-114000000D01*
X167800000Y-114000000D02*
X163500000Y-114000000D01*
X170400000Y-103900000D02*
X170400000Y-111400000D01*
X163500000Y-115500000D02*
X163500000Y-114000000D01*
X171500000Y-117000000D02*
X170700000Y-116200000D01*
X170000000Y-103500000D02*
X170400000Y-103900000D01*
X164200000Y-116200000D02*
X163500000Y-115500000D01*
%TO.N,Net-(J4-CC2)*%
X164500000Y-104250000D02*
X163500000Y-105250000D01*
X163500000Y-105250000D02*
X163500000Y-106000000D01*
X166400000Y-104330000D02*
X165475000Y-104330000D01*
X165475000Y-104250000D02*
X164500000Y-104250000D01*
X165475000Y-104330000D02*
X165475000Y-104250000D01*
X166500000Y-104430000D02*
X166400000Y-104330000D01*
%TO.N,Net-(D2-K)*%
X140900000Y-88300000D02*
X142600000Y-90000000D01*
X140900000Y-81225000D02*
X140900000Y-88300000D01*
X142625000Y-79500000D02*
X140900000Y-81225000D01*
%TO.N,ADC_BAT*%
X165500000Y-91230000D02*
X165730000Y-91000000D01*
X170462500Y-86037500D02*
X172000000Y-84500000D01*
X170662500Y-87109448D02*
X170462500Y-86909448D01*
X170462500Y-86909448D02*
X170462500Y-86037500D01*
X171825000Y-84325000D02*
X172000000Y-84500000D01*
X170662500Y-87837500D02*
X170662500Y-87109448D01*
X165730000Y-91000000D02*
X167500000Y-91000000D01*
X167500000Y-91000000D02*
X170662500Y-87837500D01*
X171825000Y-83000000D02*
X171825000Y-84325000D01*
%TO.N,ROW_0*%
X160500000Y-121000000D02*
X160500000Y-125462740D01*
X165550000Y-119000000D02*
X162500000Y-119000000D01*
X166560000Y-120460000D02*
X166560000Y-120010000D01*
X160500000Y-125462740D02*
X159981370Y-125981370D01*
X166560000Y-120010000D02*
X165550000Y-119000000D01*
X168410000Y-120460000D02*
X166560000Y-120460000D01*
X162500000Y-119000000D02*
X160500000Y-121000000D01*
X159775000Y-127250000D02*
X159775000Y-126187741D01*
X159981370Y-125981370D02*
X160074265Y-125888476D01*
X159775000Y-126187741D02*
X159981370Y-125981370D01*
%TO.N,COL_0*%
X151798529Y-126450000D02*
X152225000Y-126450000D01*
X152225000Y-127225000D02*
X152250000Y-127250000D01*
X152250000Y-127250000D02*
X152275000Y-127250000D01*
X151748529Y-126400000D02*
X151798529Y-126450000D01*
X152225000Y-126450000D02*
X152225000Y-127225000D01*
X151400000Y-126400000D02*
X151748529Y-126400000D01*
X150000000Y-124500000D02*
X150000000Y-125000000D01*
X150000000Y-125000000D02*
X151400000Y-126400000D01*
%TO.N,COL_1*%
X152625000Y-126450000D02*
X152725000Y-126450000D01*
X151964214Y-126050000D02*
X152390685Y-126050000D01*
X152725000Y-127250000D02*
X152775000Y-127250000D01*
X150800000Y-124800000D02*
X151050734Y-125050734D01*
X152725000Y-126450000D02*
X152725000Y-127250000D01*
X152390685Y-126050000D02*
X152625000Y-126284315D01*
X151050734Y-125050734D02*
X151050734Y-125485048D01*
X152625000Y-126284315D02*
X152625000Y-126450000D01*
X151565686Y-126000000D02*
X151914215Y-126000000D01*
X151914215Y-126000000D02*
X151964214Y-126050000D01*
X151050734Y-125485048D02*
X151565686Y-126000000D01*
%TO.N,COL_2*%
X152452095Y-125650000D02*
X152556371Y-125650000D01*
X153125000Y-126284315D02*
X153125000Y-126322905D01*
X153275000Y-126472905D02*
X153275000Y-127250000D01*
X153025000Y-126118630D02*
X153025000Y-126184315D01*
X151623836Y-124821741D02*
X152452095Y-125650000D01*
X153125000Y-126322905D02*
X153275000Y-126472905D01*
X153025000Y-126184315D02*
X153125000Y-126284315D01*
X152556371Y-125650000D02*
X153025000Y-126118630D01*
%TO.N,COL_3*%
X153675000Y-126307220D02*
X153675000Y-126450000D01*
X153525000Y-126118630D02*
X153525000Y-126157219D01*
X153675000Y-126450000D02*
X153725000Y-126450000D01*
X153425000Y-126018629D02*
X153525000Y-126118630D01*
X153425000Y-125952945D02*
X153425000Y-126018629D01*
X153725000Y-126725000D02*
X153775000Y-126775000D01*
X153000000Y-125186028D02*
X153000000Y-125527944D01*
X153166175Y-125019853D02*
X153000000Y-125186028D01*
X153525000Y-126157219D02*
X153675000Y-126307220D01*
X153000000Y-125527944D02*
X153425000Y-125952945D01*
X153725000Y-126450000D02*
X153725000Y-126725000D01*
X153775000Y-126775000D02*
X153775000Y-127250000D01*
%TO.N,COL_4*%
X153812471Y-125491887D02*
X154275000Y-125954416D01*
X154275000Y-125954416D02*
X154275000Y-127250000D01*
%TO.N,COL_5*%
X154775000Y-125490404D02*
X154775000Y-127250000D01*
X154590572Y-125305976D02*
X154775000Y-125490404D01*
%TO.N,COL_6*%
X155175000Y-125570077D02*
X155190572Y-125554505D01*
X155175000Y-126125000D02*
X155175000Y-125570077D01*
X155275000Y-126225000D02*
X155175000Y-126125000D01*
X155115828Y-124982702D02*
X155614952Y-124483578D01*
X155190572Y-125554505D02*
X155190572Y-125057447D01*
X155275000Y-127250000D02*
X155275000Y-126225000D01*
X155190572Y-125057447D02*
X155115828Y-124982702D01*
%TO.N,COL_7*%
X155775000Y-126290685D02*
X155675000Y-126190685D01*
X155590572Y-125356487D02*
X155863481Y-125083578D01*
X156214952Y-124732107D02*
X156214952Y-124633578D01*
X155575000Y-125735763D02*
X155590572Y-125720190D01*
X155675000Y-126059314D02*
X155575000Y-125959314D01*
X155775000Y-127250000D02*
X155775000Y-126290685D01*
X155863481Y-125083578D02*
X156214952Y-124732107D01*
X155575000Y-125959314D02*
X155575000Y-125735763D01*
X155590572Y-125720190D02*
X155590572Y-125356487D01*
X156214952Y-124633578D02*
X156674265Y-124174265D01*
X155675000Y-126190685D02*
X155675000Y-126059314D01*
%TO.N,COL_8*%
X156275000Y-127250000D02*
X156275000Y-125237745D01*
X152500000Y-120000000D02*
X152500000Y-117578185D01*
X156275000Y-125237745D02*
X156506373Y-125006372D01*
X156922794Y-123574265D02*
X156425736Y-123574265D01*
X157274265Y-123925736D02*
X156922794Y-123574265D01*
X156425736Y-123574265D02*
X156250000Y-123750000D01*
X156506373Y-125006372D02*
X156690687Y-125006372D01*
X156690687Y-125006372D02*
X157274265Y-124422794D01*
X152500000Y-117578185D02*
X152578185Y-117500000D01*
X157274265Y-124422794D02*
X157274265Y-123925736D01*
X156250000Y-123750000D02*
X152500000Y-120000000D01*
%TO.N,COL_9*%
X156239951Y-123174265D02*
X153100000Y-120034314D01*
X156856373Y-125406372D02*
X157674265Y-124588479D01*
X157674265Y-123760050D02*
X157088479Y-123174265D01*
X157674265Y-124588479D02*
X157674265Y-123760050D01*
X153100000Y-120034314D02*
X153100000Y-118111472D01*
X156775000Y-127250000D02*
X156775000Y-125406372D01*
X157088479Y-123174265D02*
X156239951Y-123174265D01*
X156775000Y-125406372D02*
X156856373Y-125406372D01*
%TO.N,COL_10*%
X153500000Y-118817814D02*
X153771509Y-118546305D01*
X158074265Y-123574265D02*
X157274265Y-122774265D01*
X157275000Y-125553431D02*
X158074265Y-124754164D01*
X157275000Y-127250000D02*
X157275000Y-125553431D01*
X153500000Y-119774265D02*
X153500000Y-118817814D01*
X156500000Y-122774265D02*
X153500000Y-119774265D01*
X158074265Y-124754164D02*
X158074265Y-123574265D01*
X157274265Y-122774265D02*
X156500000Y-122774265D01*
%TO.N,COL_11*%
X154000000Y-119146305D02*
X154020038Y-119146305D01*
X154000000Y-119708579D02*
X154000000Y-119146305D01*
X156291421Y-122000000D02*
X154000000Y-119708579D01*
X158474265Y-123408579D02*
X157065686Y-122000000D01*
X157775000Y-127250000D02*
X157775000Y-125725000D01*
X154371509Y-118698661D02*
X154570170Y-118500000D01*
X157065686Y-122000000D02*
X156291421Y-122000000D01*
X154020038Y-119146305D02*
X154371509Y-118794834D01*
X158474265Y-125025735D02*
X158474265Y-123408579D01*
X157775000Y-125725000D02*
X158474265Y-125025735D01*
X154371509Y-118794834D02*
X154371509Y-118698661D01*
%TO.N,COL_12*%
X158874265Y-123242893D02*
X157131372Y-121500000D01*
X158175000Y-125890686D02*
X158874265Y-125191420D01*
X155091684Y-120234577D02*
X155091684Y-119106652D01*
X156357107Y-121500000D02*
X155091684Y-120234577D01*
X158175000Y-126450000D02*
X158175000Y-125890686D01*
X158874265Y-125191420D02*
X158874265Y-123242893D01*
X157131372Y-121500000D02*
X156357107Y-121500000D01*
X158225000Y-126450000D02*
X158175000Y-126450000D01*
X158275000Y-126565686D02*
X158225000Y-126515686D01*
X158225000Y-126515686D02*
X158225000Y-126450000D01*
X158275000Y-127250000D02*
X158275000Y-126565686D01*
%TO.N,COL_13*%
X158675000Y-126450000D02*
X158675000Y-126400000D01*
X158725000Y-126581371D02*
X158725000Y-126450000D01*
X158725000Y-126450000D02*
X158675000Y-126450000D01*
X158575000Y-126234315D02*
X158575000Y-126056372D01*
X157297057Y-121100000D02*
X156522793Y-121100000D01*
X156000000Y-120577207D02*
X156000000Y-119300000D01*
X158775000Y-126631371D02*
X158725000Y-126581371D01*
X158625000Y-126284315D02*
X158575000Y-126234315D01*
X159274265Y-125357105D02*
X159274265Y-123077207D01*
X156522793Y-121100000D02*
X156000000Y-120577207D01*
X158775000Y-127250000D02*
X158775000Y-126631371D01*
X158625000Y-126350000D02*
X158625000Y-126284315D01*
X159274265Y-123077207D02*
X157297057Y-121100000D01*
X158675000Y-126400000D02*
X158625000Y-126350000D01*
X158575000Y-126056372D02*
X159274265Y-125357105D01*
%TO.N,COL_14*%
X159275000Y-125922056D02*
X159674265Y-125522790D01*
X157000000Y-120237256D02*
X157000000Y-119700000D01*
X159275000Y-127250000D02*
X159275000Y-125922056D01*
X159674265Y-122911521D02*
X157000000Y-120237256D01*
X159674265Y-125522790D02*
X159674265Y-122911521D01*
%TO.N,ROW_1*%
X160275000Y-127250000D02*
X160275000Y-126253427D01*
X161500000Y-125028426D02*
X161500000Y-122000000D01*
X168410000Y-121960000D02*
X166560000Y-121960000D01*
X165860000Y-119972352D02*
X165860000Y-121260000D01*
X161500000Y-122000000D02*
X161500000Y-120565686D01*
X160275000Y-126253427D02*
X161500000Y-125028426D01*
X161500000Y-120565686D02*
X162665686Y-119400000D01*
X165860000Y-121260000D02*
X166560000Y-121960000D01*
X165287648Y-119400000D02*
X165860000Y-119972352D01*
X162665686Y-119400000D02*
X165287648Y-119400000D01*
%TO.N,SCL*%
X156000000Y-102460000D02*
X156460000Y-102000000D01*
X155000000Y-109500000D02*
X155500000Y-109500000D01*
X155500000Y-109500000D02*
X156000000Y-109000000D01*
X156000000Y-109000000D02*
X156000000Y-102460000D01*
%TO.N,SDA*%
X155600000Y-103680000D02*
X153920000Y-102000000D01*
X161250000Y-100000000D02*
X155920000Y-100000000D01*
X163500000Y-95040698D02*
X163500000Y-97750000D01*
X155000000Y-109000000D02*
X155250000Y-109000000D01*
X155250000Y-109000000D02*
X155600000Y-108650000D01*
X155600000Y-108650000D02*
X155600000Y-103680000D01*
X155920000Y-100000000D02*
X153920000Y-102000000D01*
X163500000Y-97750000D02*
X161250000Y-100000000D01*
%TO.N,100*%
X147000000Y-103481372D02*
X147000000Y-98000000D01*
X146000000Y-122500000D02*
X143500000Y-120000000D01*
X143500000Y-120000000D02*
X143500000Y-106981372D01*
X147000000Y-98000000D02*
X148000000Y-97000000D01*
X143500000Y-106981372D02*
X147000000Y-103481372D01*
X147500000Y-122500000D02*
X146000000Y-122500000D01*
%TO.N,Net-(J4-D+-PadA6)*%
X167475000Y-105430000D02*
X167750000Y-105705000D01*
X164750000Y-107000000D02*
X163750000Y-108000000D01*
X167750000Y-105705000D02*
X167750000Y-106155000D01*
X167475000Y-106430000D02*
X166500000Y-106430000D01*
X167750000Y-106155000D02*
X167475000Y-106430000D01*
X166500000Y-105430000D02*
X167475000Y-105430000D01*
X164750000Y-105856471D02*
X164750000Y-107000000D01*
X166500000Y-105430000D02*
X165176471Y-105430000D01*
X165176471Y-105430000D02*
X164750000Y-105856471D01*
%TO.N,Net-(J4-D--PadA7)*%
X164712500Y-109290552D02*
X164103052Y-109900000D01*
X164712500Y-107659448D02*
X164712500Y-109290552D01*
X165250000Y-106655000D02*
X165525000Y-106930000D01*
X165441948Y-106930000D02*
X164712500Y-107659448D01*
X165250000Y-106205000D02*
X165250000Y-106655000D01*
X166500000Y-106930000D02*
X165441948Y-106930000D01*
X165525000Y-105930000D02*
X165250000Y-106205000D01*
X165525000Y-106930000D02*
X166500000Y-106930000D01*
X166500000Y-105930000D02*
X165525000Y-105930000D01*
X164103052Y-109900000D02*
X163750000Y-109900000D01*
%TO.N,D+*%
X162075000Y-107400000D02*
X161475000Y-108000000D01*
X163300000Y-107400000D02*
X162075000Y-107400000D01*
X164873894Y-104911881D02*
X164350000Y-105435775D01*
X164350000Y-105435775D02*
X164350000Y-106350000D01*
X164350000Y-106350000D02*
X163300000Y-107400000D01*
%TO.N,D-*%
X161475000Y-111562648D02*
X163087352Y-113175000D01*
X169650000Y-111165685D02*
X169650000Y-106150000D01*
X169650000Y-106150000D02*
X169400000Y-105900000D01*
X163087352Y-113175000D02*
X167640685Y-113175000D01*
X167640685Y-113175000D02*
X169650000Y-111165685D01*
X161475000Y-109900000D02*
X161475000Y-111562648D01*
%TO.N,RX*%
X167825685Y-93050000D02*
X162200000Y-93050000D01*
X162200000Y-93050000D02*
X161250000Y-94000000D01*
X161250000Y-94000000D02*
X157750000Y-94000000D01*
X169795686Y-95020000D02*
X167825685Y-93050000D01*
X170500000Y-95020000D02*
X169795686Y-95020000D01*
%TO.N,TX*%
X157250000Y-94750000D02*
X161250000Y-94750000D01*
X161250000Y-94750000D02*
X162550000Y-93450000D01*
X156500000Y-94000000D02*
X157250000Y-94750000D01*
X167660000Y-93450000D02*
X170500000Y-96290000D01*
X162550000Y-93450000D02*
X167660000Y-93450000D01*
%TO.N,S0*%
X158675000Y-115325000D02*
X157750000Y-116250000D01*
X159100000Y-114900000D02*
X159026472Y-114900000D01*
X163000000Y-105000000D02*
X162487649Y-105000000D01*
X161150000Y-105512352D02*
X161150000Y-106350000D01*
X159026472Y-114900000D02*
X158675000Y-115251471D01*
X157750000Y-116250000D02*
X152979656Y-116250000D01*
X151978185Y-117251471D02*
X151978185Y-119443630D01*
X165670000Y-102330000D02*
X165475000Y-102330000D01*
X165475000Y-102525000D02*
X163000000Y-105000000D01*
X166065000Y-101528629D02*
X166065000Y-101935000D01*
X161150000Y-106350000D02*
X160200000Y-107300000D01*
X166065000Y-101935000D02*
X165670000Y-102330000D01*
X167580298Y-100650003D02*
X167099997Y-100650003D01*
X166689998Y-101060000D02*
X166533629Y-101060000D01*
X162262648Y-105225000D02*
X161437353Y-105225000D01*
X165475000Y-102330000D02*
X165475000Y-102525000D01*
X158675000Y-115251471D02*
X158675000Y-115325000D01*
X159750000Y-114176472D02*
X159750000Y-114250000D01*
X167099997Y-100650003D02*
X166689998Y-101060000D01*
X151978185Y-119443630D02*
X151900000Y-119521815D01*
X162487649Y-105000000D02*
X162262648Y-105225000D01*
X167965148Y-100265153D02*
X167580298Y-100650003D01*
X160050000Y-113876472D02*
X159750000Y-114176472D01*
X152979656Y-116250000D02*
X151978185Y-117251471D01*
X160199999Y-112997059D02*
X160050000Y-113147058D01*
X160050000Y-113147058D02*
X160050000Y-113876472D01*
X160200000Y-107300000D02*
X160199999Y-112997059D01*
X161437353Y-105225000D02*
X161150000Y-105512352D01*
X166533629Y-101060000D02*
X166065000Y-101528629D01*
X159750000Y-114250000D02*
X159100000Y-114900000D01*
%TO.N,S1*%
X150750000Y-119328185D02*
X150750000Y-120750000D01*
X166524313Y-100660000D02*
X166367943Y-100660000D01*
X162321962Y-104600000D02*
X162171963Y-104750000D01*
X166934311Y-100250003D02*
X166524313Y-100660000D01*
X165412157Y-101930000D02*
X165309315Y-101930000D01*
X165075000Y-102164315D02*
X165075000Y-102267157D01*
X159650000Y-112981372D02*
X159650000Y-113710786D01*
X165309315Y-101930000D02*
X165075000Y-102164315D01*
X165665000Y-101677157D02*
X165412157Y-101930000D01*
X162742157Y-104600000D02*
X162321962Y-104600000D01*
X166367943Y-100660000D02*
X165665000Y-101362944D01*
X167000000Y-100050003D02*
X167000000Y-100250003D01*
X161346667Y-104750000D02*
X159800000Y-106296666D01*
X159799999Y-112831373D02*
X159650000Y-112981372D01*
X151578185Y-118500000D02*
X150750000Y-119328185D01*
X159650000Y-113710786D02*
X157510786Y-115850000D01*
X167000000Y-100250003D02*
X166934311Y-100250003D01*
X159800000Y-106296666D02*
X159799999Y-112831373D01*
X162171963Y-104750000D02*
X161346667Y-104750000D01*
X165665000Y-101362944D02*
X165665000Y-101677157D01*
X165075000Y-102267157D02*
X162742157Y-104600000D01*
X151578185Y-117085786D02*
X151578185Y-118500000D01*
X152813970Y-115850000D02*
X151578185Y-117085786D01*
X157510786Y-115850000D02*
X152813970Y-115850000D01*
%TO.N,S3*%
X164865000Y-101242944D02*
X164275000Y-101832945D01*
X164275000Y-101832945D02*
X164275000Y-101909314D01*
X158223696Y-113300000D02*
X158200000Y-113300000D01*
X158525000Y-112998696D02*
X158223696Y-113300000D01*
X164275000Y-101909314D02*
X162384314Y-103800000D01*
X166000000Y-99110462D02*
X166000000Y-99896572D01*
X166867731Y-98242731D02*
X166000000Y-99110462D01*
X161940590Y-103850000D02*
X161115295Y-103850000D01*
X162384314Y-103800000D02*
X161990589Y-103800001D01*
X158525000Y-112975000D02*
X158525000Y-112998696D01*
X161990589Y-103800001D02*
X161940590Y-103850000D01*
X159000000Y-105965295D02*
X159000000Y-112500000D01*
X158200000Y-113300000D02*
X158010293Y-113489707D01*
X164865000Y-101031574D02*
X164865000Y-101242944D01*
X158010293Y-113489707D02*
X152760293Y-113489707D01*
X159000000Y-112500000D02*
X158525000Y-112975000D01*
X166000000Y-99896572D02*
X164865000Y-101031574D01*
X161115295Y-103850000D02*
X159000000Y-105965295D01*
X152760293Y-113489707D02*
X151500000Y-114750000D01*
%TO.N,S2*%
X166400000Y-99801474D02*
X166400000Y-100218628D01*
X165220000Y-101530000D02*
X165143629Y-101530000D01*
X167000000Y-99450003D02*
X166751471Y-99450003D01*
X166202257Y-100260000D02*
X165265000Y-101197259D01*
X162106275Y-104250000D02*
X161280981Y-104250000D01*
X164675000Y-101998630D02*
X164675000Y-102075000D01*
X159250000Y-113545100D02*
X158647550Y-114147550D01*
X165143629Y-101530000D02*
X164675000Y-101998630D01*
X164675000Y-102075000D02*
X162550000Y-104200000D01*
X167000000Y-99250000D02*
X167000000Y-99450003D01*
X159250000Y-112815685D02*
X159250000Y-113545100D01*
X165265000Y-101485000D02*
X165220000Y-101530000D01*
X162550000Y-104200000D02*
X162156275Y-104200001D01*
X153352450Y-114147550D02*
X150750000Y-116750000D01*
X166358628Y-100260000D02*
X166202257Y-100260000D01*
X159400000Y-112665686D02*
X159250000Y-112815685D01*
X158647550Y-114147550D02*
X153352450Y-114147550D01*
X165265000Y-101197259D02*
X165265000Y-101485000D01*
X166400000Y-100218628D02*
X166358628Y-100260000D01*
X162156275Y-104200001D02*
X162106275Y-104250000D01*
X161280981Y-104250000D02*
X159400000Y-106130981D01*
X159400000Y-106130981D02*
X159400000Y-112665686D01*
X166751471Y-99450003D02*
X166400000Y-99801474D01*
%TO.N,GP16_E*%
X163125000Y-94250000D02*
X163750000Y-94250000D01*
X160650000Y-99600000D02*
X162500000Y-97750000D01*
X150750000Y-104300000D02*
X150900000Y-104150000D01*
X150900000Y-104150000D02*
X150900000Y-103393654D01*
X164100000Y-97715686D02*
X164643263Y-98258949D01*
X162500000Y-94875000D02*
X163125000Y-94250000D01*
X150900000Y-103393654D02*
X154693654Y-99600000D01*
X164643263Y-98258949D02*
X166002983Y-98258949D01*
X163750000Y-94250000D02*
X164100000Y-94600000D01*
X150750000Y-107500000D02*
X150750000Y-104300000D01*
X154693654Y-99600000D02*
X160650000Y-99600000D01*
X162500000Y-97750000D02*
X162500000Y-94875000D01*
X164100000Y-94600000D02*
X164100000Y-97715686D01*
%TO.N,MOT_SIG*%
X162100000Y-96900000D02*
X159800000Y-99200000D01*
X159800000Y-99200000D02*
X154527968Y-99200000D01*
X163915686Y-93850000D02*
X162959314Y-93850000D01*
X165750000Y-97500000D02*
X165750000Y-95684314D01*
X162100000Y-94709315D02*
X162100000Y-96900000D01*
X150250000Y-106250000D02*
X148750000Y-107750000D01*
X165750000Y-95684314D02*
X163915686Y-93850000D01*
X150250000Y-103477968D02*
X150250000Y-106250000D01*
X154527968Y-99200000D02*
X150250000Y-103477968D01*
X162959314Y-93850000D02*
X162100000Y-94709315D01*
%TD*%
M02*
