%TF.GenerationSoftware,KiCad,Pcbnew,10.0.2*%
%TF.CreationDate,2026-05-30T19:47:25-05:00*%
%TF.ProjectId,OM-FlexGrid-Rigid-PCB,4f4d2d46-6c65-4784-9772-69642d526967,rev?*%
%TF.SameCoordinates,Original*%
%TF.FileFunction,Paste,Top*%
%TF.FilePolarity,Positive*%
%FSLAX46Y46*%
G04 Gerber Fmt 4.6, Leading zero omitted, Abs format (unit mm)*
G04 Created by KiCad (PCBNEW 10.0.2) date 2026-05-30 19:47:25*
%MOMM*%
%LPD*%
G01*
G04 APERTURE LIST*
G04 Aperture macros list*
%AMRoundRect*
0 Rectangle with rounded corners*
0 $1 Rounding radius*
0 $2 $3 $4 $5 $6 $7 $8 $9 X,Y pos of 4 corners*
0 Add a 4 corners polygon primitive as box body*
4,1,4,$2,$3,$4,$5,$6,$7,$8,$9,$2,$3,0*
0 Add four circle primitives for the rounded corners*
1,1,$1+$1,$2,$3*
1,1,$1+$1,$4,$5*
1,1,$1+$1,$6,$7*
1,1,$1+$1,$8,$9*
0 Add four rect primitives between the rounded corners*
20,1,$1+$1,$2,$3,$4,$5,0*
20,1,$1+$1,$4,$5,$6,$7,0*
20,1,$1+$1,$6,$7,$8,$9,0*
20,1,$1+$1,$8,$9,$2,$3,0*%
G04 Aperture macros list end*
%ADD10RoundRect,0.087500X-0.087500X0.225000X-0.087500X-0.225000X0.087500X-0.225000X0.087500X0.225000X0*%
%ADD11RoundRect,0.087500X-0.225000X0.087500X-0.225000X-0.087500X0.225000X-0.087500X0.225000X0.087500X0*%
%ADD12RoundRect,0.200000X-0.200000X-0.275000X0.200000X-0.275000X0.200000X0.275000X-0.200000X0.275000X0*%
%ADD13RoundRect,0.225000X0.375000X-0.225000X0.375000X0.225000X-0.375000X0.225000X-0.375000X-0.225000X0*%
%ADD14R,1.450000X1.000000*%
%ADD15RoundRect,0.150000X0.512500X0.150000X-0.512500X0.150000X-0.512500X-0.150000X0.512500X-0.150000X0*%
%ADD16RoundRect,0.225000X0.250000X-0.225000X0.250000X0.225000X-0.250000X0.225000X-0.250000X-0.225000X0*%
%ADD17RoundRect,0.200000X0.200000X0.275000X-0.200000X0.275000X-0.200000X-0.275000X0.200000X-0.275000X0*%
%ADD18RoundRect,0.150000X-0.150000X0.587500X-0.150000X-0.587500X0.150000X-0.587500X0.150000X0.587500X0*%
%ADD19RoundRect,0.200000X-0.275000X0.200000X-0.275000X-0.200000X0.275000X-0.200000X0.275000X0.200000X0*%
%ADD20RoundRect,0.225000X0.225000X0.250000X-0.225000X0.250000X-0.225000X-0.250000X0.225000X-0.250000X0*%
%ADD21RoundRect,0.150000X-0.150000X0.512500X-0.150000X-0.512500X0.150000X-0.512500X0.150000X0.512500X0*%
%ADD22RoundRect,0.150000X0.587500X0.150000X-0.587500X0.150000X-0.587500X-0.150000X0.587500X-0.150000X0*%
%ADD23RoundRect,0.243750X-0.243750X-0.456250X0.243750X-0.456250X0.243750X0.456250X-0.243750X0.456250X0*%
%ADD24R,0.300000X1.000000*%
%ADD25R,1.650000X1.300000*%
%ADD26RoundRect,0.225000X-0.250000X0.225000X-0.250000X-0.225000X0.250000X-0.225000X0.250000X0.225000X0*%
%ADD27RoundRect,0.250000X0.250000X0.475000X-0.250000X0.475000X-0.250000X-0.475000X0.250000X-0.475000X0*%
%ADD28RoundRect,0.150000X0.150000X-0.512500X0.150000X0.512500X-0.150000X0.512500X-0.150000X-0.512500X0*%
%ADD29R,1.450000X0.600000*%
%ADD30R,1.450000X0.300000*%
%ADD31RoundRect,0.225000X-0.225000X-0.250000X0.225000X-0.250000X0.225000X0.250000X-0.225000X0.250000X0*%
%ADD32RoundRect,0.250000X-0.250000X-0.475000X0.250000X-0.475000X0.250000X0.475000X-0.250000X0.475000X0*%
%ADD33RoundRect,0.150000X-0.512500X-0.150000X0.512500X-0.150000X0.512500X0.150000X-0.512500X0.150000X0*%
G04 APERTURE END LIST*
D10*
%TO.C,IC1*%
X154850000Y-108337500D03*
X154350000Y-108337500D03*
X153850000Y-108337500D03*
X153350000Y-108337500D03*
D11*
X153187500Y-109000000D03*
X153187500Y-109500000D03*
X153187500Y-110000000D03*
D10*
X153350000Y-110662500D03*
X153850000Y-110662500D03*
X154350000Y-110662500D03*
X154850000Y-110662500D03*
D11*
X155012500Y-110000000D03*
X155012500Y-109500000D03*
X155012500Y-109000000D03*
%TD*%
D12*
%TO.C,R14*%
X164910000Y-123460000D03*
X166560000Y-123460000D03*
%TD*%
D13*
%TO.C,D1*%
X144500000Y-95500000D03*
X144500000Y-92200000D03*
%TD*%
D14*
%TO.C,SELECT1*%
X141850000Y-115000000D03*
X141850000Y-113300000D03*
X147000000Y-115000000D03*
X147000000Y-113300000D03*
%TD*%
D15*
%TO.C,U3*%
X161000000Y-89950000D03*
X161000000Y-89000000D03*
X161000000Y-88050000D03*
X158725000Y-88050000D03*
X158725000Y-89950000D03*
%TD*%
D14*
%TO.C,MENU1*%
X141850000Y-107500000D03*
X141850000Y-105800000D03*
X147000000Y-107500000D03*
X147000000Y-105800000D03*
%TD*%
D12*
%TO.C,R5*%
X142850000Y-81500000D03*
X144500000Y-81500000D03*
%TD*%
D16*
%TO.C,C11*%
X156250000Y-112550000D03*
X156250000Y-111000000D03*
%TD*%
D17*
%TO.C,R2*%
X164750000Y-112000000D03*
X163100000Y-112000000D03*
%TD*%
D18*
%TO.C,Q3*%
X163000000Y-83000000D03*
X161100000Y-83000000D03*
X162050000Y-84875000D03*
%TD*%
D19*
%TO.C,R4*%
X142000000Y-84175000D03*
X142000000Y-85825000D03*
%TD*%
D20*
%TO.C,C15*%
X169500000Y-124900000D03*
X167950000Y-124900000D03*
%TD*%
D21*
%TO.C,MAX1*%
X158500000Y-82225000D03*
X157550000Y-82225000D03*
X156600000Y-82225000D03*
X156600000Y-84500000D03*
X157550000Y-84500000D03*
X158500000Y-84500000D03*
%TD*%
D14*
%TO.C,BOOT1*%
X171500000Y-115300000D03*
X171500000Y-117000000D03*
X166350000Y-115300000D03*
X166350000Y-117000000D03*
%TD*%
D22*
%TO.C,Q2*%
X171500000Y-88400000D03*
X171500000Y-86500000D03*
X169625000Y-87450000D03*
%TD*%
D17*
%TO.C,R1*%
X163500000Y-106000000D03*
X161850000Y-106000000D03*
%TD*%
D14*
%TO.C,SW_PWR1*%
X159000000Y-73000000D03*
X159000000Y-74700000D03*
X153850000Y-73000000D03*
X153850000Y-74700000D03*
%TD*%
D16*
%TO.C,C10*%
X157750000Y-112550000D03*
X157750000Y-111000000D03*
%TD*%
D23*
%TO.C,D2*%
X142625000Y-79500000D03*
X144500000Y-79500000D03*
%TD*%
D20*
%TO.C,C14*%
X169500000Y-123400000D03*
X167950000Y-123400000D03*
%TD*%
D17*
%TO.C,R8*%
X172000000Y-84500000D03*
X170350000Y-84500000D03*
%TD*%
D20*
%TO.C,C12*%
X169500000Y-120400000D03*
X167950000Y-120400000D03*
%TD*%
D24*
%TO.C,J3*%
X151775000Y-127250000D03*
X152275000Y-127250000D03*
X152775000Y-127250000D03*
X153275000Y-127250000D03*
X153775000Y-127250000D03*
X154275000Y-127250000D03*
X154775000Y-127250000D03*
X155275000Y-127250000D03*
X155775000Y-127250000D03*
X156275000Y-127250000D03*
X156775000Y-127250000D03*
X157275000Y-127250000D03*
X157775000Y-127250000D03*
X158275000Y-127250000D03*
X158775000Y-127250000D03*
X159275000Y-127250000D03*
X159775000Y-127250000D03*
X160275000Y-127250000D03*
X160775000Y-127250000D03*
X161275000Y-127250000D03*
D25*
X149500000Y-129150000D03*
X163550000Y-129150000D03*
%TD*%
D26*
%TO.C,C8*%
X145000000Y-84450000D03*
X145000000Y-86000000D03*
%TD*%
D12*
%TO.C,R3*%
X156850000Y-78500000D03*
X158500000Y-78500000D03*
%TD*%
D27*
%TO.C,C7*%
X162900000Y-91750000D03*
X161000000Y-91750000D03*
%TD*%
D28*
%TO.C,U4*%
X142600000Y-90000000D03*
X143550000Y-90000000D03*
X144500000Y-90000000D03*
X144500000Y-87725000D03*
X142600000Y-87725000D03*
%TD*%
D14*
%TO.C,SW_RST1*%
X147500000Y-120800000D03*
X147500000Y-122500000D03*
X142350000Y-120800000D03*
X142350000Y-122500000D03*
%TD*%
D29*
%TO.C,J4*%
X166500000Y-109430000D03*
X166500000Y-108630000D03*
D30*
X166500000Y-107430000D03*
X166500000Y-106430000D03*
X166500000Y-105930000D03*
X166500000Y-104930000D03*
D29*
X166500000Y-103730000D03*
X166500000Y-102930000D03*
X166500000Y-102930000D03*
X166500000Y-103730000D03*
D30*
X166500000Y-104430000D03*
X166500000Y-105430000D03*
X166500000Y-106930000D03*
X166500000Y-107930000D03*
D29*
X166500000Y-108630000D03*
X166500000Y-109430000D03*
%TD*%
D31*
%TO.C,C5*%
X161950000Y-114000000D03*
X163500000Y-114000000D03*
%TD*%
D12*
%TO.C,R7*%
X170175000Y-83000000D03*
X171825000Y-83000000D03*
%TD*%
D32*
%TO.C,C6*%
X156600000Y-92500000D03*
X158500000Y-92500000D03*
%TD*%
D12*
%TO.C,R15*%
X164910000Y-124960000D03*
X166560000Y-124960000D03*
%TD*%
%TO.C,R12*%
X164910000Y-120460000D03*
X166560000Y-120460000D03*
%TD*%
%TO.C,R6*%
X161850000Y-115500000D03*
X163500000Y-115500000D03*
%TD*%
%TO.C,R13*%
X164910000Y-121960000D03*
X166560000Y-121960000D03*
%TD*%
D18*
%TO.C,D3*%
X153400000Y-91500000D03*
X151500000Y-91500000D03*
X152450000Y-93375000D03*
%TD*%
D33*
%TO.C,U5*%
X161475000Y-108000000D03*
X161475000Y-108950000D03*
X161475000Y-109900000D03*
X163750000Y-109900000D03*
X163750000Y-108950000D03*
X163750000Y-108000000D03*
%TD*%
D12*
%TO.C,R9*%
X152350000Y-87500000D03*
X154000000Y-87500000D03*
%TD*%
D20*
%TO.C,C13*%
X169500000Y-121900000D03*
X167950000Y-121900000D03*
%TD*%
M02*
