%TF.GenerationSoftware,KiCad,Pcbnew,10.0.2*%
%TF.CreationDate,2026-06-07T13:47:17-05:00*%
%TF.ProjectId,OM-FlexGrid-Rigid-PCB,4f4d2d46-6c65-4784-9772-69642d526967,rev?*%
%TF.SameCoordinates,Original*%
%TF.FileFunction,Legend,Bot*%
%TF.FilePolarity,Positive*%
%FSLAX46Y46*%
G04 Gerber Fmt 4.6, Leading zero omitted, Abs format (unit mm)*
G04 Created by KiCad (PCBNEW 10.0.2) date 2026-06-07 13:47:17*
%MOMM*%
%LPD*%
G01*
G04 APERTURE LIST*
G04 Aperture macros list*
%AMRoundRect*
0 Rectangle with rounded corners*
0 $1 Rounding radius*
0 $2 $3 $4 $5 $6 $7 $8 $9 X,Y pos of 4 corners*
0 Add a 4 corners polygon primitive as box body*
4,1,4,$2,$3,$4,$5,$6,$7,$8,$9,$2,$3,0*
0 Add four circle primitives for the rounded corners*
1,1,$1+$1,$2,$3*
1,1,$1+$1,$4,$5*
1,1,$1+$1,$6,$7*
1,1,$1+$1,$8,$9*
0 Add four rect primitives between the rounded corners*
20,1,$1+$1,$2,$3,$4,$5,0*
20,1,$1+$1,$4,$5,$6,$7,0*
20,1,$1+$1,$6,$7,$8,$9,0*
20,1,$1+$1,$8,$9,$2,$3,0*%
G04 Aperture macros list end*
%ADD10C,0.150000*%
%ADD11C,0.120000*%
%ADD12C,0.152400*%
%ADD13C,0.508000*%
%ADD14RoundRect,0.225000X0.225000X0.375000X-0.225000X0.375000X-0.225000X-0.375000X0.225000X-0.375000X0*%
%ADD15R,1.000000X1.000000*%
%ADD16C,1.000000*%
%ADD17R,1.350000X1.350000*%
%ADD18C,1.350000*%
%ADD19C,2.200000*%
%ADD20R,1.700000X1.700000*%
%ADD21C,1.700000*%
%ADD22C,0.650000*%
%ADD23O,2.100000X1.000000*%
%ADD24O,1.600000X1.000000*%
%ADD25RoundRect,0.100000X0.100000X-0.637500X0.100000X0.637500X-0.100000X0.637500X-0.100000X-0.637500X0*%
%ADD26RoundRect,0.150000X-0.587500X-0.150000X0.587500X-0.150000X0.587500X0.150000X-0.587500X0.150000X0*%
%ADD27R,1.498600X0.812800*%
%ADD28R,0.812800X1.498600*%
%ADD29R,0.889000X0.889000*%
%ADD30R,0.711200X1.092200*%
%ADD31R,0.889000X0.939800*%
%ADD32R,1.041400X0.787400*%
%ADD33R,1.143000X1.828800*%
%ADD34R,0.711200X3.327400*%
%ADD35R,0.863600X2.794000*%
%ADD36RoundRect,0.200000X-0.275000X0.200000X-0.275000X-0.200000X0.275000X-0.200000X0.275000X0.200000X0*%
%ADD37RoundRect,0.225000X-0.225000X-0.250000X0.225000X-0.250000X0.225000X0.250000X-0.225000X0.250000X0*%
G04 APERTURE END LIST*
D10*
X143838094Y-97454819D02*
X143838094Y-96454819D01*
X143838094Y-96454819D02*
X143599999Y-96454819D01*
X143599999Y-96454819D02*
X143457142Y-96502438D01*
X143457142Y-96502438D02*
X143361904Y-96597676D01*
X143361904Y-96597676D02*
X143314285Y-96692914D01*
X143314285Y-96692914D02*
X143266666Y-96883390D01*
X143266666Y-96883390D02*
X143266666Y-97026247D01*
X143266666Y-97026247D02*
X143314285Y-97216723D01*
X143314285Y-97216723D02*
X143361904Y-97311961D01*
X143361904Y-97311961D02*
X143457142Y-97407200D01*
X143457142Y-97407200D02*
X143599999Y-97454819D01*
X143599999Y-97454819D02*
X143838094Y-97454819D01*
X142409523Y-96788152D02*
X142409523Y-97454819D01*
X142647618Y-96407200D02*
X142885713Y-97121485D01*
X142885713Y-97121485D02*
X142266666Y-97121485D01*
X158639819Y-113878095D02*
X159449342Y-113878095D01*
X159449342Y-113878095D02*
X159544580Y-113925714D01*
X159544580Y-113925714D02*
X159592200Y-113973333D01*
X159592200Y-113973333D02*
X159639819Y-114068571D01*
X159639819Y-114068571D02*
X159639819Y-114259047D01*
X159639819Y-114259047D02*
X159592200Y-114354285D01*
X159592200Y-114354285D02*
X159544580Y-114401904D01*
X159544580Y-114401904D02*
X159449342Y-114449523D01*
X159449342Y-114449523D02*
X158639819Y-114449523D01*
X159639819Y-115449523D02*
X159639819Y-114878095D01*
X159639819Y-115163809D02*
X158639819Y-115163809D01*
X158639819Y-115163809D02*
X158782676Y-115068571D01*
X158782676Y-115068571D02*
X158877914Y-114973333D01*
X158877914Y-114973333D02*
X158925533Y-114878095D01*
X143157738Y-110450057D02*
X143252976Y-110402438D01*
X143252976Y-110402438D02*
X143348214Y-110307200D01*
X143348214Y-110307200D02*
X143491071Y-110164342D01*
X143491071Y-110164342D02*
X143586309Y-110116723D01*
X143586309Y-110116723D02*
X143681547Y-110116723D01*
X143633928Y-110354819D02*
X143729166Y-110307200D01*
X143729166Y-110307200D02*
X143824404Y-110211961D01*
X143824404Y-110211961D02*
X143872023Y-110021485D01*
X143872023Y-110021485D02*
X143872023Y-109688152D01*
X143872023Y-109688152D02*
X143824404Y-109497676D01*
X143824404Y-109497676D02*
X143729166Y-109402438D01*
X143729166Y-109402438D02*
X143633928Y-109354819D01*
X143633928Y-109354819D02*
X143443452Y-109354819D01*
X143443452Y-109354819D02*
X143348214Y-109402438D01*
X143348214Y-109402438D02*
X143252976Y-109497676D01*
X143252976Y-109497676D02*
X143205357Y-109688152D01*
X143205357Y-109688152D02*
X143205357Y-110021485D01*
X143205357Y-110021485D02*
X143252976Y-110211961D01*
X143252976Y-110211961D02*
X143348214Y-110307200D01*
X143348214Y-110307200D02*
X143443452Y-110354819D01*
X143443452Y-110354819D02*
X143633928Y-110354819D01*
X142252976Y-110354819D02*
X142824404Y-110354819D01*
X142538690Y-110354819D02*
X142538690Y-109354819D01*
X142538690Y-109354819D02*
X142633928Y-109497676D01*
X142633928Y-109497676D02*
X142729166Y-109592914D01*
X142729166Y-109592914D02*
X142824404Y-109640533D01*
X157011904Y-80844819D02*
X157011904Y-81654342D01*
X157011904Y-81654342D02*
X156964285Y-81749580D01*
X156964285Y-81749580D02*
X156916666Y-81797200D01*
X156916666Y-81797200D02*
X156821428Y-81844819D01*
X156821428Y-81844819D02*
X156630952Y-81844819D01*
X156630952Y-81844819D02*
X156535714Y-81797200D01*
X156535714Y-81797200D02*
X156488095Y-81749580D01*
X156488095Y-81749580D02*
X156440476Y-81654342D01*
X156440476Y-81654342D02*
X156440476Y-80844819D01*
X156011904Y-80940057D02*
X155964285Y-80892438D01*
X155964285Y-80892438D02*
X155869047Y-80844819D01*
X155869047Y-80844819D02*
X155630952Y-80844819D01*
X155630952Y-80844819D02*
X155535714Y-80892438D01*
X155535714Y-80892438D02*
X155488095Y-80940057D01*
X155488095Y-80940057D02*
X155440476Y-81035295D01*
X155440476Y-81035295D02*
X155440476Y-81130533D01*
X155440476Y-81130533D02*
X155488095Y-81273390D01*
X155488095Y-81273390D02*
X156059523Y-81844819D01*
X156059523Y-81844819D02*
X155440476Y-81844819D01*
X158149999Y-81704819D02*
X158149999Y-81942914D01*
X158388094Y-81847676D02*
X158149999Y-81942914D01*
X158149999Y-81942914D02*
X157911904Y-81847676D01*
X158292856Y-82133390D02*
X158149999Y-81942914D01*
X158149999Y-81942914D02*
X158007142Y-82133390D01*
X145564819Y-101666666D02*
X146279104Y-101666666D01*
X146279104Y-101666666D02*
X146421961Y-101619047D01*
X146421961Y-101619047D02*
X146517200Y-101523809D01*
X146517200Y-101523809D02*
X146564819Y-101380952D01*
X146564819Y-101380952D02*
X146564819Y-101285714D01*
X145564819Y-102619047D02*
X145564819Y-102142857D01*
X145564819Y-102142857D02*
X146041009Y-102095238D01*
X146041009Y-102095238D02*
X145993390Y-102142857D01*
X145993390Y-102142857D02*
X145945771Y-102238095D01*
X145945771Y-102238095D02*
X145945771Y-102476190D01*
X145945771Y-102476190D02*
X145993390Y-102571428D01*
X145993390Y-102571428D02*
X146041009Y-102619047D01*
X146041009Y-102619047D02*
X146136247Y-102666666D01*
X146136247Y-102666666D02*
X146374342Y-102666666D01*
X146374342Y-102666666D02*
X146469580Y-102619047D01*
X146469580Y-102619047D02*
X146517200Y-102571428D01*
X146517200Y-102571428D02*
X146564819Y-102476190D01*
X146564819Y-102476190D02*
X146564819Y-102238095D01*
X146564819Y-102238095D02*
X146517200Y-102142857D01*
X146517200Y-102142857D02*
X146469580Y-102095238D01*
X152116666Y-134395180D02*
X152116666Y-133680895D01*
X152116666Y-133680895D02*
X152069047Y-133538038D01*
X152069047Y-133538038D02*
X151973809Y-133442800D01*
X151973809Y-133442800D02*
X151830952Y-133395180D01*
X151830952Y-133395180D02*
X151735714Y-133395180D01*
X152640476Y-133395180D02*
X152830952Y-133395180D01*
X152830952Y-133395180D02*
X152926190Y-133442800D01*
X152926190Y-133442800D02*
X152973809Y-133490419D01*
X152973809Y-133490419D02*
X153069047Y-133633276D01*
X153069047Y-133633276D02*
X153116666Y-133823752D01*
X153116666Y-133823752D02*
X153116666Y-134204704D01*
X153116666Y-134204704D02*
X153069047Y-134299942D01*
X153069047Y-134299942D02*
X153021428Y-134347561D01*
X153021428Y-134347561D02*
X152926190Y-134395180D01*
X152926190Y-134395180D02*
X152735714Y-134395180D01*
X152735714Y-134395180D02*
X152640476Y-134347561D01*
X152640476Y-134347561D02*
X152592857Y-134299942D01*
X152592857Y-134299942D02*
X152545238Y-134204704D01*
X152545238Y-134204704D02*
X152545238Y-133966609D01*
X152545238Y-133966609D02*
X152592857Y-133871371D01*
X152592857Y-133871371D02*
X152640476Y-133823752D01*
X152640476Y-133823752D02*
X152735714Y-133776133D01*
X152735714Y-133776133D02*
X152926190Y-133776133D01*
X152926190Y-133776133D02*
X153021428Y-133823752D01*
X153021428Y-133823752D02*
X153069047Y-133871371D01*
X153069047Y-133871371D02*
X153116666Y-133966609D01*
X146454819Y-106182142D02*
X145978628Y-105848809D01*
X146454819Y-105610714D02*
X145454819Y-105610714D01*
X145454819Y-105610714D02*
X145454819Y-105991666D01*
X145454819Y-105991666D02*
X145502438Y-106086904D01*
X145502438Y-106086904D02*
X145550057Y-106134523D01*
X145550057Y-106134523D02*
X145645295Y-106182142D01*
X145645295Y-106182142D02*
X145788152Y-106182142D01*
X145788152Y-106182142D02*
X145883390Y-106134523D01*
X145883390Y-106134523D02*
X145931009Y-106086904D01*
X145931009Y-106086904D02*
X145978628Y-105991666D01*
X145978628Y-105991666D02*
X145978628Y-105610714D01*
X146454819Y-107134523D02*
X146454819Y-106563095D01*
X146454819Y-106848809D02*
X145454819Y-106848809D01*
X145454819Y-106848809D02*
X145597676Y-106753571D01*
X145597676Y-106753571D02*
X145692914Y-106658333D01*
X145692914Y-106658333D02*
X145740533Y-106563095D01*
X145454819Y-107753571D02*
X145454819Y-107848809D01*
X145454819Y-107848809D02*
X145502438Y-107944047D01*
X145502438Y-107944047D02*
X145550057Y-107991666D01*
X145550057Y-107991666D02*
X145645295Y-108039285D01*
X145645295Y-108039285D02*
X145835771Y-108086904D01*
X145835771Y-108086904D02*
X146073866Y-108086904D01*
X146073866Y-108086904D02*
X146264342Y-108039285D01*
X146264342Y-108039285D02*
X146359580Y-107991666D01*
X146359580Y-107991666D02*
X146407200Y-107944047D01*
X146407200Y-107944047D02*
X146454819Y-107848809D01*
X146454819Y-107848809D02*
X146454819Y-107753571D01*
X146454819Y-107753571D02*
X146407200Y-107658333D01*
X146407200Y-107658333D02*
X146359580Y-107610714D01*
X146359580Y-107610714D02*
X146264342Y-107563095D01*
X146264342Y-107563095D02*
X146073866Y-107515476D01*
X146073866Y-107515476D02*
X145835771Y-107515476D01*
X145835771Y-107515476D02*
X145645295Y-107563095D01*
X145645295Y-107563095D02*
X145550057Y-107610714D01*
X145550057Y-107610714D02*
X145502438Y-107658333D01*
X145502438Y-107658333D02*
X145454819Y-107753571D01*
X143391666Y-106289580D02*
X143439285Y-106337200D01*
X143439285Y-106337200D02*
X143582142Y-106384819D01*
X143582142Y-106384819D02*
X143677380Y-106384819D01*
X143677380Y-106384819D02*
X143820237Y-106337200D01*
X143820237Y-106337200D02*
X143915475Y-106241961D01*
X143915475Y-106241961D02*
X143963094Y-106146723D01*
X143963094Y-106146723D02*
X144010713Y-105956247D01*
X144010713Y-105956247D02*
X144010713Y-105813390D01*
X144010713Y-105813390D02*
X143963094Y-105622914D01*
X143963094Y-105622914D02*
X143915475Y-105527676D01*
X143915475Y-105527676D02*
X143820237Y-105432438D01*
X143820237Y-105432438D02*
X143677380Y-105384819D01*
X143677380Y-105384819D02*
X143582142Y-105384819D01*
X143582142Y-105384819D02*
X143439285Y-105432438D01*
X143439285Y-105432438D02*
X143391666Y-105480057D01*
X142915475Y-106384819D02*
X142724999Y-106384819D01*
X142724999Y-106384819D02*
X142629761Y-106337200D01*
X142629761Y-106337200D02*
X142582142Y-106289580D01*
X142582142Y-106289580D02*
X142486904Y-106146723D01*
X142486904Y-106146723D02*
X142439285Y-105956247D01*
X142439285Y-105956247D02*
X142439285Y-105575295D01*
X142439285Y-105575295D02*
X142486904Y-105480057D01*
X142486904Y-105480057D02*
X142534523Y-105432438D01*
X142534523Y-105432438D02*
X142629761Y-105384819D01*
X142629761Y-105384819D02*
X142820237Y-105384819D01*
X142820237Y-105384819D02*
X142915475Y-105432438D01*
X142915475Y-105432438D02*
X142963094Y-105480057D01*
X142963094Y-105480057D02*
X143010713Y-105575295D01*
X143010713Y-105575295D02*
X143010713Y-105813390D01*
X143010713Y-105813390D02*
X142963094Y-105908628D01*
X142963094Y-105908628D02*
X142915475Y-105956247D01*
X142915475Y-105956247D02*
X142820237Y-106003866D01*
X142820237Y-106003866D02*
X142629761Y-106003866D01*
X142629761Y-106003866D02*
X142534523Y-105956247D01*
X142534523Y-105956247D02*
X142486904Y-105908628D01*
X142486904Y-105908628D02*
X142439285Y-105813390D01*
X146524819Y-103032142D02*
X146048628Y-102698809D01*
X146524819Y-102460714D02*
X145524819Y-102460714D01*
X145524819Y-102460714D02*
X145524819Y-102841666D01*
X145524819Y-102841666D02*
X145572438Y-102936904D01*
X145572438Y-102936904D02*
X145620057Y-102984523D01*
X145620057Y-102984523D02*
X145715295Y-103032142D01*
X145715295Y-103032142D02*
X145858152Y-103032142D01*
X145858152Y-103032142D02*
X145953390Y-102984523D01*
X145953390Y-102984523D02*
X146001009Y-102936904D01*
X146001009Y-102936904D02*
X146048628Y-102841666D01*
X146048628Y-102841666D02*
X146048628Y-102460714D01*
X146524819Y-103984523D02*
X146524819Y-103413095D01*
X146524819Y-103698809D02*
X145524819Y-103698809D01*
X145524819Y-103698809D02*
X145667676Y-103603571D01*
X145667676Y-103603571D02*
X145762914Y-103508333D01*
X145762914Y-103508333D02*
X145810533Y-103413095D01*
X146524819Y-104936904D02*
X146524819Y-104365476D01*
X146524819Y-104651190D02*
X145524819Y-104651190D01*
X145524819Y-104651190D02*
X145667676Y-104555952D01*
X145667676Y-104555952D02*
X145762914Y-104460714D01*
X145762914Y-104460714D02*
X145810533Y-104365476D01*
%TO.C,D4*%
D11*
X145460000Y-98000000D02*
X145460000Y-100000000D01*
X145460000Y-98000000D02*
X141450000Y-98000000D01*
X145460000Y-100000000D02*
X141450000Y-100000000D01*
%TO.C,U1*%
X150300000Y-114640000D02*
X150300000Y-112440000D01*
X150300000Y-114640000D02*
X150300000Y-116840000D01*
X158370000Y-114640000D02*
X158370000Y-112440000D01*
X158370000Y-114640000D02*
X158370000Y-116840000D01*
X157910000Y-118500000D02*
X157670000Y-118830000D01*
X158150000Y-118830000D01*
X157910000Y-118500000D01*
G36*
X158150000Y-118830000D02*
G01*
X157670000Y-118830000D01*
X157910000Y-118500000D01*
X158150000Y-118830000D01*
G37*
%TO.C,Q1*%
X143062500Y-105940000D02*
X142412500Y-105940000D01*
X143062500Y-105940000D02*
X143712500Y-105940000D01*
X143062500Y-109060000D02*
X142412500Y-109060000D01*
X143062500Y-109060000D02*
X143712500Y-109060000D01*
X141900000Y-109010000D02*
X141660000Y-109340000D01*
X142140000Y-109340000D01*
X141900000Y-109010000D01*
G36*
X142140000Y-109340000D02*
G01*
X141660000Y-109340000D01*
X141900000Y-109010000D01*
X142140000Y-109340000D01*
G37*
%TO.C,U2*%
D12*
X147618700Y-70912200D02*
X165881300Y-70912200D01*
X147618700Y-77790860D02*
X147618700Y-70912200D01*
X147618700Y-96667800D02*
X147618700Y-95779140D01*
X149025860Y-96667800D02*
X147618700Y-96667800D01*
X165881300Y-70912200D02*
X165881300Y-77790860D01*
X165881300Y-95779140D02*
X165881300Y-96667800D01*
X165881300Y-96667800D02*
X164474140Y-96667800D01*
%TO.C,J5*%
D11*
X140890000Y-103110000D02*
X140890000Y-100890000D01*
X143000000Y-100890000D02*
X140890000Y-100890000D01*
X143000000Y-103110000D02*
X140890000Y-103110000D01*
X143000000Y-103110000D02*
X143000000Y-100890000D01*
X144000000Y-103110000D02*
X145110000Y-103110000D01*
X145110000Y-103110000D02*
X145110000Y-102000000D01*
%TO.C,J9*%
D12*
X149869800Y-132687860D02*
X149869800Y-124681440D01*
X149869800Y-135476999D02*
X149869800Y-135182140D01*
X150758340Y-121176799D02*
X151602760Y-121176799D01*
X153157240Y-121176799D02*
X155791560Y-121176799D01*
X157498440Y-121176799D02*
X162341660Y-121176799D01*
X163230200Y-124681440D02*
X163230200Y-131720260D01*
X163230200Y-135179740D02*
X163230200Y-135476999D01*
X163230200Y-135476999D02*
X149869800Y-135476999D01*
D13*
X148472800Y-133949999D02*
G75*
G02*
X147710800Y-133949999I-381000J0D01*
G01*
X147710800Y-133949999D02*
G75*
G02*
X148472800Y-133949999I381000J0D01*
G01*
%TO.C,R10*%
D11*
X146977500Y-106587742D02*
X146977500Y-107062258D01*
X148022500Y-106587742D02*
X148022500Y-107062258D01*
%TO.C,C9*%
X143084420Y-103990000D02*
X143365580Y-103990000D01*
X143084420Y-105010000D02*
X143365580Y-105010000D01*
%TO.C,R11*%
X146977500Y-103437742D02*
X146977500Y-103912258D01*
X148022500Y-103437742D02*
X148022500Y-103912258D01*
%TD*%
%LPC*%
D14*
%TO.C,D4*%
X144750000Y-99000000D03*
X141450000Y-99000000D03*
%TD*%
D15*
%TO.C,J1*%
X148460000Y-100250000D03*
D16*
X148460000Y-98980000D03*
X149730000Y-100250000D03*
X149730000Y-98980000D03*
X151000000Y-100250000D03*
X151000000Y-98980000D03*
%TD*%
D17*
%TO.C,J7*%
X144500000Y-126500000D03*
D18*
X142500000Y-126500000D03*
%TD*%
D19*
%TO.C,H1*%
X168500000Y-75500000D03*
%TD*%
D20*
%TO.C,J2*%
X171000000Y-80500000D03*
D21*
X168460000Y-80500000D03*
%TD*%
D19*
%TO.C,H4*%
X145000000Y-75500000D03*
%TD*%
%TO.C,H2*%
X168000000Y-131000000D03*
%TD*%
D20*
%TO.C,SCRN1*%
X161540000Y-102000000D03*
D21*
X159000000Y-102000000D03*
X156460000Y-102000000D03*
X153920000Y-102000000D03*
%TD*%
D19*
%TO.C,H3*%
X145000000Y-131000000D03*
%TD*%
D22*
%TO.C,J4*%
X167945000Y-109070000D03*
X167945000Y-103290000D03*
D23*
X167415000Y-110500000D03*
D24*
X171595000Y-110500000D03*
D23*
X167415000Y-101860000D03*
D24*
X171595000Y-101860000D03*
%TD*%
D20*
%TO.C,J6*%
X170400000Y-92870000D03*
D21*
X170400000Y-95410000D03*
X170400000Y-97950000D03*
%TD*%
D25*
%TO.C,U1*%
X157910000Y-117502500D03*
X157260000Y-117502500D03*
X156610000Y-117502500D03*
X155960000Y-117502500D03*
X155310000Y-117502500D03*
X154660000Y-117502500D03*
X154010000Y-117502500D03*
X153360000Y-117502500D03*
X152710000Y-117502500D03*
X152060000Y-117502500D03*
X151410000Y-117502500D03*
X150760000Y-117502500D03*
X150760000Y-111777500D03*
X151410000Y-111777500D03*
X152060000Y-111777500D03*
X152710000Y-111777500D03*
X153360000Y-111777500D03*
X154010000Y-111777500D03*
X154660000Y-111777500D03*
X155310000Y-111777500D03*
X155960000Y-111777500D03*
X156610000Y-111777500D03*
X157260000Y-111777500D03*
X157910000Y-111777500D03*
%TD*%
D26*
%TO.C,Q1*%
X142125000Y-108450000D03*
X142125000Y-106550000D03*
X144000000Y-107500000D03*
%TD*%
D27*
%TO.C,U2*%
X165500000Y-78530000D03*
X165500000Y-79800000D03*
X165500000Y-81070000D03*
X165500000Y-82340000D03*
X165500000Y-83610000D03*
X165500000Y-84880000D03*
X165500000Y-86150000D03*
X165500000Y-87420000D03*
X165500000Y-88690000D03*
X165500000Y-89960000D03*
X165500000Y-91230000D03*
X165500000Y-92500000D03*
X165500000Y-93770000D03*
X165500000Y-95040000D03*
D28*
X163735000Y-96290000D03*
X162465000Y-96290000D03*
X161195000Y-96290000D03*
X159925000Y-96290000D03*
X158655000Y-96290000D03*
X157385000Y-96290000D03*
X156115000Y-96290000D03*
X154845000Y-96290000D03*
X153575000Y-96290000D03*
X152305000Y-96290000D03*
X151035000Y-96290000D03*
X149765000Y-96290000D03*
D27*
X148000000Y-95040000D03*
X148000000Y-93770000D03*
X148000000Y-92500000D03*
X148000000Y-91230000D03*
X148000000Y-89960000D03*
X148000000Y-88690000D03*
X148000000Y-87420000D03*
X148000000Y-86150000D03*
X148000000Y-84880000D03*
X148000000Y-83610000D03*
X148000000Y-82340000D03*
X148000000Y-81070000D03*
X148000000Y-79800000D03*
X148000000Y-78530000D03*
D29*
X158250000Y-86250000D03*
X159650000Y-84850000D03*
X159650000Y-86250000D03*
X159650000Y-87650000D03*
X158250000Y-87650000D03*
X156850000Y-87650000D03*
X156850000Y-86250000D03*
X156850000Y-84850000D03*
X158250000Y-84850000D03*
%TD*%
D17*
%TO.C,J5*%
X144000000Y-102000000D03*
D18*
X142000000Y-102000000D03*
%TD*%
D30*
%TO.C,J9*%
X154170000Y-133949999D03*
X155270000Y-133949999D03*
X156370000Y-133949999D03*
X157470001Y-133949999D03*
X158570001Y-133949999D03*
X159670001Y-133949999D03*
X160770002Y-133949999D03*
X161870000Y-133949999D03*
D31*
X152380000Y-121485000D03*
D32*
X156645000Y-121410000D03*
D33*
X150290000Y-133935000D03*
D34*
X150070000Y-122685000D03*
X163030000Y-122685000D03*
D35*
X162950000Y-133450000D03*
%TD*%
D36*
%TO.C,R10*%
X147500000Y-106000000D03*
X147500000Y-107650000D03*
%TD*%
D37*
%TO.C,C9*%
X142450000Y-104500000D03*
X144000000Y-104500000D03*
%TD*%
D36*
%TO.C,R11*%
X147500000Y-102850000D03*
X147500000Y-104500000D03*
%TD*%
%LPD*%
M02*
