%TF.GenerationSoftware,KiCad,Pcbnew,10.0.2*%
%TF.CreationDate,2026-06-07T13:47:17-05:00*%
%TF.ProjectId,OM-FlexGrid-Rigid-PCB,4f4d2d46-6c65-4784-9772-69642d526967,rev?*%
%TF.SameCoordinates,Original*%
%TF.FileFunction,Copper,L1,Top*%
%TF.FilePolarity,Positive*%
%FSLAX46Y46*%
G04 Gerber Fmt 4.6, Leading zero omitted, Abs format (unit mm)*
G04 Created by KiCad (PCBNEW 10.0.2) date 2026-06-07 13:47:17*
%MOMM*%
%LPD*%
G01*
G04 APERTURE LIST*
G04 Aperture macros list*
%AMRoundRect*
0 Rectangle with rounded corners*
0 $1 Rounding radius*
0 $2 $3 $4 $5 $6 $7 $8 $9 X,Y pos of 4 corners*
0 Add a 4 corners polygon primitive as box body*
4,1,4,$2,$3,$4,$5,$6,$7,$8,$9,$2,$3,0*
0 Add four circle primitives for the rounded corners*
1,1,$1+$1,$2,$3*
1,1,$1+$1,$4,$5*
1,1,$1+$1,$6,$7*
1,1,$1+$1,$8,$9*
0 Add four rect primitives between the rounded corners*
20,1,$1+$1,$2,$3,$4,$5,0*
20,1,$1+$1,$4,$5,$6,$7,0*
20,1,$1+$1,$6,$7,$8,$9,0*
20,1,$1+$1,$8,$9,$2,$3,0*%
G04 Aperture macros list end*
%TA.AperFunction,SMDPad,CuDef*%
%ADD10RoundRect,0.150000X-0.150000X0.512500X-0.150000X-0.512500X0.150000X-0.512500X0.150000X0.512500X0*%
%TD*%
%TA.AperFunction,SMDPad,CuDef*%
%ADD11RoundRect,0.200000X0.200000X0.275000X-0.200000X0.275000X-0.200000X-0.275000X0.200000X-0.275000X0*%
%TD*%
%TA.AperFunction,SMDPad,CuDef*%
%ADD12RoundRect,0.200000X-0.200000X-0.275000X0.200000X-0.275000X0.200000X0.275000X-0.200000X0.275000X0*%
%TD*%
%TA.AperFunction,SMDPad,CuDef*%
%ADD13RoundRect,0.225000X0.375000X-0.225000X0.375000X0.225000X-0.375000X0.225000X-0.375000X-0.225000X0*%
%TD*%
%TA.AperFunction,SMDPad,CuDef*%
%ADD14R,1.450000X1.000000*%
%TD*%
%TA.AperFunction,SMDPad,CuDef*%
%ADD15RoundRect,0.150000X0.512500X0.150000X-0.512500X0.150000X-0.512500X-0.150000X0.512500X-0.150000X0*%
%TD*%
%TA.AperFunction,ComponentPad*%
%ADD16R,1.000000X1.000000*%
%TD*%
%TA.AperFunction,ComponentPad*%
%ADD17C,1.000000*%
%TD*%
%TA.AperFunction,SMDPad,CuDef*%
%ADD18RoundRect,0.225000X0.250000X-0.225000X0.250000X0.225000X-0.250000X0.225000X-0.250000X-0.225000X0*%
%TD*%
%TA.AperFunction,SMDPad,CuDef*%
%ADD19RoundRect,0.150000X-0.150000X0.587500X-0.150000X-0.587500X0.150000X-0.587500X0.150000X0.587500X0*%
%TD*%
%TA.AperFunction,SMDPad,CuDef*%
%ADD20RoundRect,0.200000X-0.275000X0.200000X-0.275000X-0.200000X0.275000X-0.200000X0.275000X0.200000X0*%
%TD*%
%TA.AperFunction,SMDPad,CuDef*%
%ADD21RoundRect,0.225000X0.225000X0.250000X-0.225000X0.250000X-0.225000X-0.250000X0.225000X-0.250000X0*%
%TD*%
%TA.AperFunction,ComponentPad*%
%ADD22R,1.350000X1.350000*%
%TD*%
%TA.AperFunction,ComponentPad*%
%ADD23C,1.350000*%
%TD*%
%TA.AperFunction,SMDPad,CuDef*%
%ADD24RoundRect,0.150000X0.587500X0.150000X-0.587500X0.150000X-0.587500X-0.150000X0.587500X-0.150000X0*%
%TD*%
%TA.AperFunction,SMDPad,CuDef*%
%ADD25RoundRect,0.243750X-0.243750X-0.456250X0.243750X-0.456250X0.243750X0.456250X-0.243750X0.456250X0*%
%TD*%
%TA.AperFunction,SMDPad,CuDef*%
%ADD26R,1.300000X0.700000*%
%TD*%
%TA.AperFunction,SMDPad,CuDef*%
%ADD27R,0.300000X1.000000*%
%TD*%
%TA.AperFunction,SMDPad,CuDef*%
%ADD28R,1.650000X1.300000*%
%TD*%
%TA.AperFunction,SMDPad,CuDef*%
%ADD29RoundRect,0.225000X-0.250000X0.225000X-0.250000X-0.225000X0.250000X-0.225000X0.250000X0.225000X0*%
%TD*%
%TA.AperFunction,ComponentPad*%
%ADD30R,1.700000X1.700000*%
%TD*%
%TA.AperFunction,ComponentPad*%
%ADD31C,1.700000*%
%TD*%
%TA.AperFunction,SMDPad,CuDef*%
%ADD32RoundRect,0.250000X0.250000X0.475000X-0.250000X0.475000X-0.250000X-0.475000X0.250000X-0.475000X0*%
%TD*%
%TA.AperFunction,SMDPad,CuDef*%
%ADD33RoundRect,0.150000X0.150000X-0.512500X0.150000X0.512500X-0.150000X0.512500X-0.150000X-0.512500X0*%
%TD*%
%TA.AperFunction,SMDPad,CuDef*%
%ADD34RoundRect,0.087500X-0.087500X0.225000X-0.087500X-0.225000X0.087500X-0.225000X0.087500X0.225000X0*%
%TD*%
%TA.AperFunction,SMDPad,CuDef*%
%ADD35RoundRect,0.087500X-0.225000X0.087500X-0.225000X-0.087500X0.225000X-0.087500X0.225000X0.087500X0*%
%TD*%
%TA.AperFunction,SMDPad,CuDef*%
%ADD36R,1.450000X0.600000*%
%TD*%
%TA.AperFunction,SMDPad,CuDef*%
%ADD37R,1.450000X0.300000*%
%TD*%
%TA.AperFunction,HeatsinkPad*%
%ADD38O,2.100000X1.000000*%
%TD*%
%TA.AperFunction,HeatsinkPad*%
%ADD39O,1.600000X1.000000*%
%TD*%
%TA.AperFunction,SMDPad,CuDef*%
%ADD40RoundRect,0.225000X-0.225000X-0.250000X0.225000X-0.250000X0.225000X0.250000X-0.225000X0.250000X0*%
%TD*%
%TA.AperFunction,SMDPad,CuDef*%
%ADD41RoundRect,0.250000X-0.250000X-0.475000X0.250000X-0.475000X0.250000X0.475000X-0.250000X0.475000X0*%
%TD*%
%TA.AperFunction,SMDPad,CuDef*%
%ADD42RoundRect,0.150000X-0.512500X-0.150000X0.512500X-0.150000X0.512500X0.150000X-0.512500X0.150000X0*%
%TD*%
%TA.AperFunction,ViaPad*%
%ADD43C,0.600000*%
%TD*%
%TA.AperFunction,Conductor*%
%ADD44C,0.200000*%
%TD*%
%TA.AperFunction,Conductor*%
%ADD45C,0.330000*%
%TD*%
G04 APERTURE END LIST*
D10*
%TO.P,MAX1,1,In_1*%
%TO.N,Net-(MAX1-In)*%
X158500000Y-82225000D03*
%TO.P,MAX1,2,GND_2*%
%TO.N,GND*%
X157550000Y-82225000D03*
%TO.P,MAX1,3,CLEAR_3*%
%TO.N,Net-(MAX1-CLEAR)*%
X156600000Y-82225000D03*
%TO.P,MAX1,4,OU_4*%
%TO.N,unconnected-(MAX1-OU-Pad4)*%
X156600000Y-84500000D03*
%TO.P,MAX1,5,OUT_5*%
%TO.N,LDO_EN*%
X157550000Y-84500000D03*
%TO.P,MAX1,6,Vcc_6*%
%TO.N,VBAT*%
X158500000Y-84500000D03*
%TD*%
D11*
%TO.P,R17,1*%
%TO.N,Net-(D5-GA)*%
X152300000Y-84400000D03*
%TO.P,R17,2*%
%TO.N,GP41*%
X150650000Y-84400000D03*
%TD*%
%TO.P,R16,1*%
%TO.N,Net-(D5-RA)*%
X152250000Y-82850000D03*
%TO.P,R16,2*%
%TO.N,GP42*%
X150600000Y-82850000D03*
%TD*%
D12*
%TO.P,R14,1*%
%TO.N,GND*%
X164910000Y-123460000D03*
%TO.P,R14,2*%
%TO.N,ROW_2*%
X166560000Y-123460000D03*
%TD*%
D13*
%TO.P,D1,1,K_1*%
%TO.N,VIN*%
X144500000Y-95500000D03*
%TO.P,D1,2,A_2*%
%TO.N,VBUS*%
X144500000Y-92200000D03*
%TD*%
D14*
%TO.P,SELECT1,1,1_1*%
%TO.N,SELECT*%
X141850000Y-115000000D03*
%TO.P,SELECT1,2,2_2*%
%TO.N,GND*%
X141850000Y-113300000D03*
%TO.P,SELECT1,3*%
%TO.N,N/C*%
X147000000Y-115000000D03*
%TO.P,SELECT1,4*%
X147000000Y-113300000D03*
%TD*%
D15*
%TO.P,U3,1,IN_1*%
%TO.N,VIN*%
X161000000Y-89950000D03*
%TO.P,U3,2,GND_2*%
%TO.N,GND*%
X161000000Y-89000000D03*
%TO.P,U3,3,EN_3*%
%TO.N,Net-(U3-EN)*%
X161000000Y-88050000D03*
%TO.P,U3,4,NC_4*%
%TO.N,unconnected-(U3-NC-Pad4)*%
X158725000Y-88050000D03*
%TO.P,U3,5,OUT_5*%
%TO.N,+3V3*%
X158725000Y-89950000D03*
%TD*%
D14*
%TO.P,MENU1,1,1_1*%
%TO.N,MENU*%
X141850000Y-107500000D03*
%TO.P,MENU1,2,2_2*%
%TO.N,GND*%
X141850000Y-105800000D03*
%TO.P,MENU1,3*%
%TO.N,N/C*%
X147000000Y-107500000D03*
%TO.P,MENU1,4*%
X147000000Y-105800000D03*
%TD*%
D12*
%TO.P,R5,1*%
%TO.N,VBUS*%
X142850000Y-81500000D03*
%TO.P,R5,2*%
%TO.N,Net-(D2-A)*%
X144500000Y-81500000D03*
%TD*%
D16*
%TO.P,J1,1,Pin_1_1*%
%TO.N,GP41*%
X148460000Y-100250000D03*
D17*
%TO.P,J1,2,Pin_2_2*%
%TO.N,SPI_MOSI*%
X148460000Y-98980000D03*
%TO.P,J1,3,Pin_3_3*%
%TO.N,SPI_SCK*%
X149730000Y-100250000D03*
%TO.P,J1,4,Pin_4_4*%
%TO.N,SPI_MISO*%
X149730000Y-98980000D03*
%TO.P,J1,5,Pin_5_5*%
%TO.N,CS*%
X151000000Y-100250000D03*
%TO.P,J1,6,Pin_6_6*%
%TO.N,GP40*%
X151000000Y-98980000D03*
%TD*%
D18*
%TO.P,C11,1*%
%TO.N,+3V3*%
X155960000Y-107140000D03*
%TO.P,C11,2*%
%TO.N,GND*%
X155960000Y-105590000D03*
%TD*%
D11*
%TO.P,R2,1*%
%TO.N,Net-(J4-CC1)*%
X164750000Y-112000000D03*
%TO.P,R2,2*%
%TO.N,GND*%
X163100000Y-112000000D03*
%TD*%
D19*
%TO.P,Q3,1,G_1*%
%TO.N,PWR_OFF*%
X163000000Y-83000000D03*
%TO.P,Q3,2,S_2*%
%TO.N,GND*%
X161100000Y-83000000D03*
%TO.P,Q3,3,D_3*%
%TO.N,Net-(MAX1-In)*%
X162050000Y-84875000D03*
%TD*%
D20*
%TO.P,R4,1*%
%TO.N,Net-(U4-PROG)*%
X142000000Y-84175000D03*
%TO.P,R4,2*%
%TO.N,GND*%
X142000000Y-85825000D03*
%TD*%
D21*
%TO.P,C15,1*%
%TO.N,GND*%
X169500000Y-124900000D03*
%TO.P,C15,2*%
%TO.N,ROW_3*%
X167950000Y-124900000D03*
%TD*%
D22*
%TO.P,J7,1,Pin_1_1*%
%TO.N,GND*%
X144500000Y-126500000D03*
D23*
%TO.P,J7,2,Pin_2_2*%
%TO.N,+3V3*%
X142500000Y-126500000D03*
%TD*%
D14*
%TO.P,BOOT1,1,1_1*%
%TO.N,GND*%
X171500000Y-115300000D03*
%TO.P,BOOT1,2,2_2*%
%TO.N,EN*%
X171500000Y-117000000D03*
%TO.P,BOOT1,3*%
%TO.N,N/C*%
X166350000Y-115300000D03*
%TO.P,BOOT1,4*%
X166350000Y-117000000D03*
%TD*%
D24*
%TO.P,Q2,1,G_1*%
%TO.N,VBUS*%
X171500000Y-88400000D03*
%TO.P,Q2,2,S_2*%
%TO.N,VIN*%
X171500000Y-86500000D03*
%TO.P,Q2,3,D_3*%
%TO.N,VBAT*%
X169625000Y-87450000D03*
%TD*%
D11*
%TO.P,R1,1*%
%TO.N,Net-(J4-CC2)*%
X163500000Y-106000000D03*
%TO.P,R1,2*%
%TO.N,GND*%
X161850000Y-106000000D03*
%TD*%
D14*
%TO.P,SW_PWR1,1,1_1*%
%TO.N,GND*%
X159000000Y-73000000D03*
%TO.P,SW_PWR1,2,2_2*%
%TO.N,Net-(MAX1-In)*%
X159000000Y-74700000D03*
%TO.P,SW_PWR1,3*%
%TO.N,N/C*%
X153850000Y-73000000D03*
%TO.P,SW_PWR1,4*%
X153850000Y-74700000D03*
%TD*%
D18*
%TO.P,C10,1*%
%TO.N,+3V3*%
X157460000Y-107140000D03*
%TO.P,C10,2*%
%TO.N,GND*%
X157460000Y-105590000D03*
%TD*%
D25*
%TO.P,D2,1,K_1*%
%TO.N,Net-(D2-K)*%
X142625000Y-79500000D03*
%TO.P,D2,2,A_2*%
%TO.N,Net-(D2-A)*%
X144500000Y-79500000D03*
%TD*%
D26*
%TO.P,D5,1,RK_1*%
%TO.N,GND*%
X150900000Y-79000000D03*
%TO.P,D5,2,GK_2*%
X150900000Y-80100000D03*
%TO.P,D5,3,BK_3*%
X150900000Y-81200000D03*
%TO.P,D5,4,BA_4*%
%TO.N,Net-(D5-BA)*%
X154000000Y-81200000D03*
%TO.P,D5,5,GA_5*%
%TO.N,Net-(D5-GA)*%
X154000000Y-80100000D03*
%TO.P,D5,6,RA_6*%
%TO.N,Net-(D5-RA)*%
X154000000Y-79000000D03*
%TD*%
D21*
%TO.P,C14,1*%
%TO.N,GND*%
X169500000Y-123400000D03*
%TO.P,C14,2*%
%TO.N,ROW_2*%
X167950000Y-123400000D03*
%TD*%
D11*
%TO.P,R8,1*%
%TO.N,ADC_BAT*%
X172000000Y-84500000D03*
%TO.P,R8,2*%
%TO.N,GND*%
X170350000Y-84500000D03*
%TD*%
D21*
%TO.P,C12,1*%
%TO.N,GND*%
X169500000Y-120400000D03*
%TO.P,C12,2*%
%TO.N,ROW_0*%
X167950000Y-120400000D03*
%TD*%
D27*
%TO.P,J3,1,Pin_1_1*%
%TO.N,GND*%
X151775000Y-127250000D03*
%TO.P,J3,2,Pin_2_2*%
%TO.N,COL_0*%
X152275000Y-127250000D03*
%TO.P,J3,3,Pin_3_3*%
%TO.N,COL_1*%
X152775000Y-127250000D03*
%TO.P,J3,4,Pin_4_4*%
%TO.N,COL_2*%
X153275000Y-127250000D03*
%TO.P,J3,5,Pin_5_5*%
%TO.N,COL_3*%
X153775000Y-127250000D03*
%TO.P,J3,6,Pin_6_6*%
%TO.N,COL_4*%
X154275000Y-127250000D03*
%TO.P,J3,7,Pin_7_7*%
%TO.N,COL_5*%
X154775000Y-127250000D03*
%TO.P,J3,8,Pin_8_8*%
%TO.N,COL_6*%
X155275000Y-127250000D03*
%TO.P,J3,9,Pin_9_9*%
%TO.N,COL_7*%
X155775000Y-127250000D03*
%TO.P,J3,10,Pin_10_10*%
%TO.N,COL_8*%
X156275000Y-127250000D03*
%TO.P,J3,11,Pin_11_11*%
%TO.N,COL_9*%
X156775000Y-127250000D03*
%TO.P,J3,12,Pin_12_12*%
%TO.N,COL_10*%
X157275000Y-127250000D03*
%TO.P,J3,13,Pin_13_13*%
%TO.N,COL_11*%
X157775000Y-127250000D03*
%TO.P,J3,14,Pin_14_14*%
%TO.N,COL_12*%
X158275000Y-127250000D03*
%TO.P,J3,15,Pin_15_15*%
%TO.N,COL_13*%
X158775000Y-127250000D03*
%TO.P,J3,16,Pin_16_16*%
%TO.N,COL_14*%
X159275000Y-127250000D03*
%TO.P,J3,17,Pin_17_17*%
%TO.N,ROW_0*%
X159775000Y-127250000D03*
%TO.P,J3,18,Pin_18_18*%
%TO.N,ROW_1*%
X160275000Y-127250000D03*
%TO.P,J3,19,Pin_19_19*%
%TO.N,ROW_2*%
X160775000Y-127250000D03*
%TO.P,J3,20,Pin_20_20*%
%TO.N,ROW_3*%
X161275000Y-127250000D03*
D28*
%TO.P,J3,MP1*%
%TO.N,N/C*%
X149500000Y-129150000D03*
%TO.P,J3,MP2*%
X163550000Y-129150000D03*
%TD*%
D29*
%TO.P,C8,1*%
%TO.N,GND*%
X145000000Y-84450000D03*
%TO.P,C8,2*%
%TO.N,VBUS*%
X145000000Y-86000000D03*
%TD*%
D30*
%TO.P,J2,1,Pin_1_1*%
%TO.N,GND*%
X171000000Y-80500000D03*
D31*
%TO.P,J2,2,Pin_2_2*%
%TO.N,VBAT*%
X168460000Y-80500000D03*
%TD*%
D12*
%TO.P,R3,1*%
%TO.N,Net-(MAX1-CLEAR)*%
X156850000Y-78500000D03*
%TO.P,R3,2*%
%TO.N,GND*%
X158500000Y-78500000D03*
%TD*%
D11*
%TO.P,R18,1*%
%TO.N,Net-(D5-BA)*%
X152300000Y-86000000D03*
%TO.P,R18,2*%
%TO.N,GP40*%
X150650000Y-86000000D03*
%TD*%
D32*
%TO.P,C7,1*%
%TO.N,+3V3*%
X162900000Y-91750000D03*
%TO.P,C7,2*%
%TO.N,GND*%
X161000000Y-91750000D03*
%TD*%
D30*
%TO.P,SCRN1,1,Pin_1_1*%
%TO.N,GND*%
X161540000Y-102000000D03*
D31*
%TO.P,SCRN1,2,Pin_2_2*%
%TO.N,+3V3*%
X159000000Y-102000000D03*
%TO.P,SCRN1,3,Pin_3_3*%
%TO.N,SCL*%
X156460000Y-102000000D03*
%TO.P,SCRN1,4,Pin_4_4*%
%TO.N,SDA*%
X153920000Y-102000000D03*
%TD*%
D33*
%TO.P,U4,1,~{CHRG}_1*%
%TO.N,Net-(D2-K)*%
X142600000Y-90000000D03*
%TO.P,U4,2,GND_2*%
%TO.N,GND*%
X143550000Y-90000000D03*
%TO.P,U4,3,BAT_3*%
%TO.N,VBAT*%
X144500000Y-90000000D03*
%TO.P,U4,4,V_{CC}_4*%
%TO.N,VBUS*%
X144500000Y-87725000D03*
%TO.P,U4,5,PROG_5*%
%TO.N,Net-(U4-PROG)*%
X142600000Y-87725000D03*
%TD*%
D14*
%TO.P,SW_RST1,1,1_1*%
%TO.N,GND*%
X142350000Y-122500000D03*
%TO.P,SW_RST1,2,2_2*%
%TO.N,100*%
X142350000Y-120800000D03*
%TO.P,SW_RST1,3*%
%TO.N,N/C*%
X147500000Y-122500000D03*
%TO.P,SW_RST1,4*%
X147500000Y-120800000D03*
%TD*%
D34*
%TO.P,IC1,1,SDO/AD0_1*%
%TO.N,unconnected-(IC1-SDO{slash}AD0-Pad1)*%
X153822500Y-104977500D03*
%TO.P,IC1,2,RESV1_2*%
%TO.N,unconnected-(IC1-RESV1-Pad2)*%
X153322500Y-104977500D03*
%TO.P,IC1,3,RESV2_3*%
%TO.N,unconnected-(IC1-RESV2-Pad3)*%
X152822500Y-104977500D03*
%TO.P,IC1,4,INT1/INT_4*%
%TO.N,unconnected-(IC1-INT1{slash}INT-Pad4)*%
X152322500Y-104977500D03*
D35*
%TO.P,IC1,5,VDDIO_5*%
%TO.N,+3V3*%
X152160000Y-105640000D03*
%TO.P,IC1,6,GND_6*%
%TO.N,GND*%
X152160000Y-106140000D03*
%TO.P,IC1,7,RESV_3_7*%
X152160000Y-106640000D03*
D34*
%TO.P,IC1,8,VDD_8*%
%TO.N,+3V3*%
X152322500Y-107302500D03*
%TO.P,IC1,9,INT2/FSYNC/CLKIN_9*%
%TO.N,unconnected-(IC1-INT2{slash}FSYNC{slash}CLKIN-Pad9)*%
X152822500Y-107302500D03*
%TO.P,IC1,10,RESV_4_10*%
%TO.N,unconnected-(IC1-RESV_4-Pad10)*%
X153322500Y-107302500D03*
%TO.P,IC1,11,RESV_5_11*%
%TO.N,GND*%
X153822500Y-107302500D03*
D35*
%TO.P,IC1,12,AP_CS_12*%
%TO.N,unconnected-(IC1-AP_CS-Pad12)*%
X153985000Y-106640000D03*
%TO.P,IC1,13,SCL/SCLK_13*%
%TO.N,SCL*%
X153985000Y-106140000D03*
%TO.P,IC1,14,SDA/SDIO/ASDI_14*%
%TO.N,SDA*%
X153985000Y-105640000D03*
%TD*%
D36*
%TO.P,J4,A1,GND_A1*%
%TO.N,GND*%
X166500000Y-109430000D03*
%TO.P,J4,A4,VBUS_A4*%
%TO.N,VBUS*%
X166500000Y-108630000D03*
D37*
%TO.P,J4,A5,CC1_A5*%
%TO.N,Net-(J4-CC1)*%
X166500000Y-107430000D03*
%TO.P,J4,A6,D+_A6*%
%TO.N,Net-(J4-D+-PadA6)*%
X166500000Y-106430000D03*
%TO.P,J4,A7,D-_A7*%
%TO.N,Net-(J4-D--PadA7)*%
X166500000Y-105930000D03*
%TO.P,J4,A8,SBU1_A8*%
%TO.N,unconnected-(J4-SBU1-PadA8)*%
X166500000Y-104930000D03*
D36*
%TO.P,J4,A9,VBUS_A9*%
%TO.N,VBUS*%
X166500000Y-103730000D03*
%TO.P,J4,A12,GND_A12*%
%TO.N,GND*%
X166500000Y-102930000D03*
%TO.P,J4,B1,GND_B1*%
X166500000Y-102930000D03*
%TO.P,J4,B4,VBUS_B4*%
%TO.N,VBUS*%
X166500000Y-103730000D03*
D37*
%TO.P,J4,B5,CC2_B5*%
%TO.N,Net-(J4-CC2)*%
X166500000Y-104430000D03*
%TO.P,J4,B6,D+_B6*%
%TO.N,Net-(J4-D+-PadA6)*%
X166500000Y-105430000D03*
%TO.P,J4,B7,D-_B7*%
%TO.N,Net-(J4-D--PadA7)*%
X166500000Y-106930000D03*
%TO.P,J4,B8,SBU2_B8*%
%TO.N,unconnected-(J4-SBU2-PadB8)*%
X166500000Y-107930000D03*
D36*
%TO.P,J4,B9,VBUS_B9*%
%TO.N,VBUS*%
X166500000Y-108630000D03*
%TO.P,J4,B12,GND_B12*%
%TO.N,GND*%
X166500000Y-109430000D03*
D38*
%TO.P,J4,S1,SHIELD_S1*%
X167415000Y-110500000D03*
D39*
X171595000Y-110500000D03*
D38*
X167415000Y-101860000D03*
D39*
X171595000Y-101860000D03*
%TD*%
D40*
%TO.P,C5,1*%
%TO.N,GND*%
X161950000Y-114000000D03*
%TO.P,C5,2*%
%TO.N,EN*%
X163500000Y-114000000D03*
%TD*%
D12*
%TO.P,R7,1*%
%TO.N,VBAT*%
X170175000Y-83000000D03*
%TO.P,R7,2*%
%TO.N,ADC_BAT*%
X171825000Y-83000000D03*
%TD*%
D41*
%TO.P,C6,1*%
%TO.N,VIN*%
X156600000Y-92500000D03*
%TO.P,C6,2*%
%TO.N,GND*%
X158500000Y-92500000D03*
%TD*%
D12*
%TO.P,R15,1*%
%TO.N,GND*%
X164910000Y-124960000D03*
%TO.P,R15,2*%
%TO.N,ROW_3*%
X166560000Y-124960000D03*
%TD*%
%TO.P,R12,1*%
%TO.N,GND*%
X164910000Y-120460000D03*
%TO.P,R12,2*%
%TO.N,ROW_0*%
X166560000Y-120460000D03*
%TD*%
%TO.P,R6,1*%
%TO.N,+3V3*%
X161850000Y-115500000D03*
%TO.P,R6,2*%
%TO.N,EN*%
X163500000Y-115500000D03*
%TD*%
%TO.P,R13,1*%
%TO.N,GND*%
X164910000Y-121960000D03*
%TO.P,R13,2*%
%TO.N,ROW_1*%
X166560000Y-121960000D03*
%TD*%
D19*
%TO.P,D3,1*%
%TO.N,LDO_EN*%
X153400000Y-91500000D03*
%TO.P,D3,2*%
%TO.N,VBUS*%
X151500000Y-91500000D03*
%TO.P,D3,3*%
%TO.N,Net-(U3-EN)*%
X152450000Y-93375000D03*
%TD*%
D42*
%TO.P,U5,1,I/O1_1*%
%TO.N,D+*%
X161475000Y-108000000D03*
%TO.P,U5,2,GND_2*%
%TO.N,VBUS*%
X161475000Y-108950000D03*
%TO.P,U5,3,I/O2_3*%
%TO.N,D-*%
X161475000Y-109900000D03*
%TO.P,U5,4,I/O2_4*%
%TO.N,Net-(J4-D--PadA7)*%
X163750000Y-109900000D03*
%TO.P,U5,5,VBUS_5*%
%TO.N,GND*%
X163750000Y-108950000D03*
%TO.P,U5,6,I/O1_6*%
%TO.N,Net-(J4-D+-PadA6)*%
X163750000Y-108000000D03*
%TD*%
D12*
%TO.P,R9,1*%
%TO.N,VBUS*%
X152350000Y-87500000D03*
%TO.P,R9,2*%
%TO.N,GND*%
X154000000Y-87500000D03*
%TD*%
D30*
%TO.P,J6,1,Pin_1_1*%
%TO.N,GND*%
X170400000Y-92870000D03*
D31*
%TO.P,J6,2,Pin_2_2*%
%TO.N,RX*%
X170400000Y-95410000D03*
%TO.P,J6,3,Pin_3_3*%
%TO.N,TX*%
X170400000Y-97950000D03*
%TD*%
D21*
%TO.P,C13,1*%
%TO.N,GND*%
X169500000Y-121900000D03*
%TO.P,C13,2*%
%TO.N,ROW_1*%
X167950000Y-121900000D03*
%TD*%
D22*
%TO.P,J5,1,Pin_1_1*%
%TO.N,VBAT*%
X144000000Y-102000000D03*
D23*
%TO.P,J5,2,Pin_2_2*%
%TO.N,MotorGND*%
X142000000Y-102000000D03*
%TD*%
D43*
%TO.N,GND*%
X162500000Y-88000000D03*
X162950000Y-133450000D03*
X154000000Y-87500000D03*
X163030000Y-122685000D03*
X171500000Y-115300000D03*
X161950000Y-113500000D03*
X165500000Y-78530000D03*
X160000000Y-92500000D03*
X146000000Y-83750000D03*
X142350000Y-122500000D03*
X161850000Y-106000000D03*
X148000000Y-78530000D03*
X165000000Y-121250000D03*
X153010000Y-106140000D03*
X151648207Y-126599434D03*
X170000000Y-124250000D03*
X150070000Y-125021227D03*
X163750000Y-108950000D03*
X158250000Y-86250000D03*
X143550000Y-90000000D03*
X156710000Y-105590000D03*
X141850000Y-113300000D03*
X170000000Y-121250000D03*
X150290000Y-133935000D03*
X156850000Y-87650000D03*
X141500000Y-87000000D03*
X141850000Y-105800000D03*
X163100000Y-112000000D03*
X150410000Y-117502500D03*
X158500000Y-78500000D03*
X161100000Y-83000000D03*
X159670001Y-133949999D03*
X154060000Y-107390000D03*
X165000000Y-124250000D03*
%TO.N,ROW_2*%
X162500000Y-126500000D03*
%TO.N,VBUS*%
X145500000Y-91500000D03*
X169750000Y-89750000D03*
X168527500Y-107527500D03*
X168575000Y-104880000D03*
X150500000Y-89000000D03*
X145500000Y-87000000D03*
%TO.N,SELECT*%
X159925000Y-96290000D03*
%TO.N,+3V3*%
X162900000Y-91750000D03*
X157470001Y-133949999D03*
X158606250Y-117306250D03*
X158725000Y-89950000D03*
X152060000Y-107640000D03*
X158185000Y-111502500D03*
X156710000Y-107140000D03*
X163000000Y-81000000D03*
%TO.N,MENU*%
X153250000Y-95100000D03*
%TO.N,GP41*%
X147950000Y-86150000D03*
%TO.N,SPI_MOSI*%
X155000000Y-97750000D03*
X148185000Y-126365000D03*
%TO.N,SPI_SCK*%
X147510000Y-124790000D03*
%TO.N,SPI_MISO*%
X157250000Y-98500000D03*
X151260000Y-124390000D03*
%TO.N,CS*%
X147910000Y-130140000D03*
%TO.N,GP40*%
X149450000Y-86150000D03*
%TO.N,PWR_OFF*%
X160500000Y-81500000D03*
%TO.N,ROW_3*%
X164000000Y-127250000D03*
%TO.N,VBAT*%
X142500000Y-91500000D03*
%TO.N,EN*%
X170000000Y-103500000D03*
%TO.N,ADC_BAT*%
X165500000Y-91230000D03*
%TO.N,ROW_0*%
X160500000Y-121000000D03*
%TO.N,COL_0*%
X148760000Y-118690000D03*
%TO.N,COL_1*%
X150010000Y-119690000D03*
%TO.N,COL_2*%
X150710000Y-120140000D03*
%TO.N,COL_3*%
X151410000Y-120540000D03*
%TO.N,COL_4*%
X153410000Y-120690000D03*
%TO.N,COL_5*%
X154260000Y-120390000D03*
%TO.N,COL_6*%
X155254485Y-120695515D03*
%TO.N,COL_7*%
X156000000Y-120300000D03*
%TO.N,COL_8*%
X151488185Y-113502500D03*
%TO.N,COL_9*%
X152010000Y-114113972D03*
%TO.N,COL_10*%
X152681509Y-114548805D03*
%TO.N,COL_11*%
X153480170Y-114502500D03*
%TO.N,COL_12*%
X153800000Y-115300000D03*
%TO.N,COL_13*%
X154910000Y-115450000D03*
%TO.N,COL_14*%
X155910000Y-115702500D03*
%TO.N,ROW_1*%
X161500000Y-122000000D03*
%TO.N,SDA*%
X163500000Y-95040698D03*
%TO.N,100*%
X148000000Y-97000000D03*
%TO.N,D+*%
X164873894Y-104911881D03*
%TO.N,D-*%
X169400000Y-105900000D03*
%TO.N,RX*%
X157750000Y-94000000D03*
%TO.N,TX*%
X156500000Y-94000000D03*
%TO.N,S0*%
X167965148Y-100265153D03*
X150810000Y-115524315D03*
%TO.N,S1*%
X167000000Y-100050003D03*
X150160000Y-116440000D03*
%TO.N,S3*%
X166867731Y-98242731D03*
X150410000Y-110752500D03*
%TO.N,S2*%
X167000000Y-99250000D03*
X150039516Y-112689918D03*
%TO.N,GP16_E*%
X152960000Y-108340000D03*
X166002983Y-98258949D03*
%TO.N,MOT_SIG*%
X165750000Y-97500000D03*
X151260000Y-108990000D03*
%TO.N,GP42*%
X148000000Y-84880000D03*
%TD*%
%TO.N,GND*%
D44*
X145000000Y-84450000D02*
X145300000Y-84450000D01*
X151750000Y-127250000D02*
X151775000Y-127250000D01*
X160025000Y-76975000D02*
X158500000Y-78500000D01*
X164910000Y-121340000D02*
X164910000Y-121960000D01*
X151648207Y-126599434D02*
X151648207Y-127148207D01*
X170000000Y-124920000D02*
X169960000Y-124960000D01*
X148470000Y-79000000D02*
X148000000Y-78530000D01*
X169960000Y-120460000D02*
X170000000Y-120500000D01*
X145300000Y-84450000D02*
X146000000Y-83750000D01*
X155960000Y-105590000D02*
X156710000Y-105590000D01*
X164910000Y-124160000D02*
X164910000Y-123460000D01*
X156710000Y-105590000D02*
X157460000Y-105590000D01*
X166500000Y-102775000D02*
X167415000Y-101860000D01*
X161500000Y-89000000D02*
X162500000Y-88000000D01*
X160750000Y-91750000D02*
X160000000Y-92500000D01*
X153972500Y-107302500D02*
X154060000Y-107390000D01*
X150670000Y-81200000D02*
X148000000Y-78530000D01*
X151648207Y-127148207D02*
X151750000Y-127250000D01*
X170000000Y-124250000D02*
X170000000Y-123500000D01*
X160025000Y-74025000D02*
X160025000Y-76975000D01*
X170000000Y-121920000D02*
X169960000Y-121960000D01*
X152160000Y-106140000D02*
X153010000Y-106140000D01*
X150900000Y-79000000D02*
X148470000Y-79000000D01*
X157550000Y-79450000D02*
X158500000Y-78500000D01*
X166500000Y-102930000D02*
X166500000Y-102775000D01*
X165000000Y-124250000D02*
X164910000Y-124340000D01*
X157550000Y-82225000D02*
X157550000Y-79450000D01*
X149570000Y-80100000D02*
X148000000Y-78530000D01*
X170000000Y-124250000D02*
X170000000Y-124920000D01*
X170350000Y-84500000D02*
X171000000Y-83850000D01*
X165000000Y-124250000D02*
X164910000Y-124160000D01*
X171000000Y-83850000D02*
X171000000Y-80500000D01*
X170000000Y-121250000D02*
X170000000Y-121920000D01*
X161662499Y-89000000D02*
X161000000Y-89000000D01*
X166500000Y-109585000D02*
X167415000Y-110500000D01*
X164910000Y-124340000D02*
X164910000Y-124960000D01*
X170000000Y-120500000D02*
X170000000Y-121250000D01*
X165000000Y-121250000D02*
X164910000Y-121160000D01*
X150900000Y-80100000D02*
X149570000Y-80100000D01*
X165000000Y-121250000D02*
X164910000Y-121340000D01*
X164910000Y-121160000D02*
X164910000Y-120460000D01*
X161000000Y-91750000D02*
X160750000Y-91750000D01*
X152160000Y-106640000D02*
X152510000Y-106640000D01*
X166500000Y-109430000D02*
X166500000Y-109585000D01*
X142000000Y-85825000D02*
X142000000Y-86500000D01*
X170000000Y-123500000D02*
X169960000Y-123460000D01*
X158500000Y-92500000D02*
X160000000Y-92500000D01*
X142000000Y-86500000D02*
X141500000Y-87000000D01*
X150900000Y-81200000D02*
X150670000Y-81200000D01*
X153822500Y-107302500D02*
X153972500Y-107302500D01*
X159000000Y-73000000D02*
X160025000Y-74025000D01*
X152510000Y-106640000D02*
X153010000Y-106140000D01*
X161000000Y-89000000D02*
X161500000Y-89000000D01*
%TO.N,ROW_2*%
X160775000Y-126675000D02*
X160825000Y-126625000D01*
X168410000Y-123460000D02*
X166560000Y-123460000D01*
X161725000Y-126500000D02*
X162500000Y-126500000D01*
X160825000Y-126450000D02*
X161725000Y-126450000D01*
X165750000Y-124270000D02*
X166560000Y-123460000D01*
X162500000Y-126500000D02*
X165934314Y-126500000D01*
X160825000Y-126625000D02*
X160825000Y-126450000D01*
X160775000Y-127250000D02*
X160775000Y-126675000D01*
X166160000Y-125747648D02*
X165750000Y-125337648D01*
X161725000Y-126450000D02*
X161725000Y-126500000D01*
X165934314Y-126500000D02*
X166160000Y-126274314D01*
X165750000Y-125337648D02*
X165750000Y-124270000D01*
X166160000Y-126274314D02*
X166160000Y-125747648D01*
%TO.N,VIN*%
X163750000Y-91240256D02*
X163750000Y-90250000D01*
X145500000Y-94500000D02*
X154600000Y-94500000D01*
X164339744Y-91830000D02*
X163750000Y-91240256D01*
X163750000Y-90250000D02*
X163450000Y-89950000D01*
X144500000Y-95500000D02*
X145500000Y-94500000D01*
X172537500Y-88740552D02*
X170745209Y-90532843D01*
X154600000Y-94500000D02*
X156600000Y-92500000D01*
X170745209Y-90532843D02*
X168532843Y-90532843D01*
X171500000Y-86500000D02*
X172537500Y-87537500D01*
X172537500Y-87537500D02*
X172537500Y-88740552D01*
X160400000Y-90550000D02*
X158550000Y-90550000D01*
X158550000Y-90550000D02*
X156600000Y-92500000D01*
X167235686Y-91830000D02*
X164339744Y-91830000D01*
X168532843Y-90532843D02*
X167235686Y-91830000D01*
X161000000Y-89950000D02*
X160400000Y-90550000D01*
X163450000Y-89950000D02*
X161000000Y-89950000D01*
%TO.N,VBUS*%
X162437500Y-109250001D02*
X162437500Y-110149852D01*
D45*
X166500000Y-103730000D02*
X167338482Y-103730000D01*
X145500000Y-91500000D02*
X145200000Y-91500000D01*
D44*
X164050000Y-111762352D02*
X164050000Y-112487648D01*
X162137499Y-108950000D02*
X162437500Y-109250001D01*
D45*
X168527500Y-107527500D02*
X167725000Y-108330000D01*
D44*
X164337352Y-112775000D02*
X167475000Y-112775000D01*
X161475000Y-108950000D02*
X162137499Y-108950000D01*
D45*
X169750000Y-89750000D02*
X171100000Y-88400000D01*
X145225000Y-87000000D02*
X144500000Y-87725000D01*
D44*
X169250000Y-111000000D02*
X169250000Y-108250000D01*
D45*
X168640000Y-105654547D02*
X168640000Y-106205453D01*
X167725000Y-108330000D02*
X167638482Y-108330000D01*
D44*
X142850000Y-83850000D02*
X145000000Y-86000000D01*
D45*
X168575000Y-106270453D02*
X168575000Y-107480000D01*
X145500000Y-86500000D02*
X145000000Y-86000000D01*
D44*
X169250000Y-108250000D02*
X168527500Y-107527500D01*
D45*
X168640000Y-106205453D02*
X168575000Y-106270453D01*
D44*
X151500000Y-90000000D02*
X150500000Y-89000000D01*
D45*
X167638482Y-108330000D02*
X167338482Y-108630000D01*
D44*
X152350000Y-87500000D02*
X152000000Y-87500000D01*
D45*
X145200000Y-91500000D02*
X144500000Y-92200000D01*
X168575000Y-105589547D02*
X168640000Y-105654547D01*
X168575000Y-104880000D02*
X168575000Y-105589547D01*
D44*
X142850000Y-81500000D02*
X142850000Y-83850000D01*
D45*
X168575000Y-107480000D02*
X168527500Y-107527500D01*
D44*
X162437500Y-110149852D02*
X164050000Y-111762352D01*
X151500000Y-91500000D02*
X151500000Y-90000000D01*
D45*
X171100000Y-88400000D02*
X171500000Y-88400000D01*
D44*
X167475000Y-112775000D02*
X169250000Y-111000000D01*
D45*
X145500000Y-87000000D02*
X145225000Y-87000000D01*
D44*
X164050000Y-112487648D02*
X164337352Y-112775000D01*
D45*
X167725000Y-104030000D02*
X168575000Y-104880000D01*
X145500000Y-87000000D02*
X145500000Y-86500000D01*
X167638482Y-104030000D02*
X167725000Y-104030000D01*
X167338482Y-103730000D02*
X167638482Y-104030000D01*
X167338482Y-108630000D02*
X166500000Y-108630000D01*
D44*
X152000000Y-87500000D02*
X150500000Y-89000000D01*
%TO.N,SELECT*%
X146500000Y-96565686D02*
X146500000Y-103415686D01*
X159290000Y-96290000D02*
X159000000Y-96000000D01*
X146500000Y-103415686D02*
X143000000Y-106915686D01*
X147065686Y-96000000D02*
X146500000Y-96565686D01*
X159000000Y-96000000D02*
X147065686Y-96000000D01*
X159925000Y-96290000D02*
X159290000Y-96290000D01*
X143000000Y-113850000D02*
X141850000Y-115000000D01*
X143000000Y-106915686D02*
X143000000Y-113850000D01*
%TO.N,Net-(U3-EN)*%
X160028052Y-88050000D02*
X158728052Y-89350000D01*
X158728052Y-89350000D02*
X156928052Y-89350000D01*
X152903052Y-93375000D02*
X152450000Y-93375000D01*
X156928052Y-89350000D02*
X152903052Y-93375000D01*
X161000000Y-88050000D02*
X160028052Y-88050000D01*
%TO.N,+3V3*%
X152322500Y-107377500D02*
X152060000Y-107640000D01*
X151547500Y-105889568D02*
X151547500Y-107127500D01*
X155960000Y-107140000D02*
X156710000Y-107140000D01*
X152160000Y-105640000D02*
X151797068Y-105640000D01*
X151797068Y-105640000D02*
X151547500Y-105889568D01*
X156710000Y-107140000D02*
X157460000Y-107140000D01*
X160412500Y-115500000D02*
X161850000Y-115500000D01*
X152322500Y-107302500D02*
X152322500Y-107377500D01*
X151547500Y-107127500D02*
X152060000Y-107640000D01*
X158606250Y-117306250D02*
X160412500Y-115500000D01*
%TO.N,MENU*%
X153000000Y-95000000D02*
X147500000Y-95000000D01*
X146000000Y-96500000D02*
X146000000Y-103350000D01*
X146000000Y-103350000D02*
X141850000Y-107500000D01*
X153250000Y-95100000D02*
X153100000Y-95100000D01*
X147500000Y-95000000D02*
X146000000Y-96500000D01*
X153100000Y-95100000D02*
X153000000Y-95000000D01*
X153250000Y-95100000D02*
X153250000Y-95250000D01*
%TO.N,Net-(D2-A)*%
X144500000Y-79500000D02*
X144500000Y-81500000D01*
%TO.N,GP41*%
X149700000Y-84400000D02*
X150650000Y-84400000D01*
X147950000Y-86150000D02*
X149700000Y-84400000D01*
%TO.N,SPI_MOSI*%
X155000000Y-97750000D02*
X153250000Y-97750000D01*
X149940000Y-97500000D02*
X148460000Y-98980000D01*
X147660000Y-99450000D02*
X147660000Y-102260000D01*
X144410000Y-122590000D02*
X148185000Y-126365000D01*
X153000000Y-97500000D02*
X149940000Y-97500000D01*
X148130000Y-98980000D02*
X147660000Y-99450000D01*
X148060000Y-108540000D02*
X144410000Y-112190000D01*
X153250000Y-97750000D02*
X153000000Y-97500000D01*
X148460000Y-98980000D02*
X148130000Y-98980000D01*
X148060000Y-102660000D02*
X148060000Y-108540000D01*
X144410000Y-112190000D02*
X144410000Y-122590000D01*
X147660000Y-102260000D02*
X148060000Y-102660000D01*
%TO.N,SPI_SCK*%
X144810000Y-112355686D02*
X148460000Y-108705686D01*
X147175686Y-124790000D02*
X144810000Y-122424314D01*
X148460000Y-108705686D02*
X148460000Y-102224314D01*
X147510000Y-124790000D02*
X147175686Y-124790000D01*
X144810000Y-122424314D02*
X144810000Y-112355686D01*
X149730000Y-100954314D02*
X149730000Y-100250000D01*
X148460000Y-102224314D02*
X149730000Y-100954314D01*
%TO.N,SPI_MISO*%
X151430000Y-98180000D02*
X150530000Y-98180000D01*
X150205000Y-123335000D02*
X150160000Y-123335000D01*
X148525000Y-121700000D02*
X146475000Y-121700000D01*
X149260000Y-109037058D02*
X149260000Y-103121371D01*
X145610000Y-112687058D02*
X149260000Y-109037058D01*
X153881371Y-98500000D02*
X154110000Y-98500000D01*
X149260000Y-103121371D02*
X153881371Y-98500000D01*
X154110000Y-98500000D02*
X151750000Y-98500000D01*
X151260000Y-124390000D02*
X150205000Y-123335000D01*
X150160000Y-123335000D02*
X148525000Y-121700000D01*
X145610000Y-120835000D02*
X145610000Y-112687058D01*
X157250000Y-98500000D02*
X154110000Y-98500000D01*
X150530000Y-98180000D02*
X149730000Y-98980000D01*
X146475000Y-121700000D02*
X145610000Y-120835000D01*
X151750000Y-98500000D02*
X151430000Y-98180000D01*
%TO.N,CS*%
X148860000Y-125291471D02*
X148860000Y-127715000D01*
X151000000Y-100250000D02*
X148860000Y-102390000D01*
X147910000Y-128665000D02*
X147910000Y-130140000D01*
X148860000Y-127715000D02*
X147910000Y-128665000D01*
X148860000Y-108871372D02*
X145210000Y-112521372D01*
X147758529Y-124190000D02*
X148860000Y-125291471D01*
X148860000Y-102390000D02*
X148860000Y-108871372D01*
X147261471Y-124190000D02*
X147758529Y-124190000D01*
X145210000Y-122138529D02*
X147261471Y-124190000D01*
X145210000Y-112521372D02*
X145210000Y-122138529D01*
%TO.N,GP40*%
X149450000Y-86150000D02*
X150500000Y-86150000D01*
X150500000Y-86150000D02*
X150650000Y-86000000D01*
%TO.N,Net-(J4-CC1)*%
X165475000Y-107480000D02*
X165475000Y-107500000D01*
X165750000Y-107480000D02*
X165475000Y-107480000D01*
X165250000Y-107705000D02*
X165250000Y-111500000D01*
X166500000Y-107430000D02*
X166450000Y-107480000D01*
X166450000Y-107480000D02*
X165750000Y-107480000D01*
X165250000Y-111500000D02*
X164750000Y-112000000D01*
X165475000Y-107480000D02*
X165250000Y-107705000D01*
%TO.N,PWR_OFF*%
X163000000Y-83000000D02*
X161500000Y-81500000D01*
X161500000Y-81500000D02*
X160500000Y-81500000D01*
%TO.N,Net-(MAX1-In)*%
X156259448Y-83187500D02*
X157890552Y-83187500D01*
X159000000Y-74700000D02*
X156000000Y-77700000D01*
X157890552Y-83187500D02*
X158500000Y-82578052D01*
X158500000Y-82578052D02*
X158500000Y-82225000D01*
X161150000Y-84875000D02*
X162050000Y-84875000D01*
X156000000Y-82928052D02*
X156259448Y-83187500D01*
X156000000Y-77700000D02*
X156000000Y-82928052D01*
X158500000Y-82225000D02*
X161150000Y-84875000D01*
%TO.N,Net-(U4-PROG)*%
X142899999Y-85074999D02*
X142899999Y-87425001D01*
X142000000Y-84175000D02*
X142899999Y-85074999D01*
X142899999Y-87425001D02*
X142600000Y-87725000D01*
%TO.N,ROW_3*%
X164000000Y-127250000D02*
X165750000Y-127250000D01*
X168410000Y-124960000D02*
X166560000Y-124960000D01*
X165750000Y-127250000D02*
X166560000Y-126440000D01*
X166560000Y-126440000D02*
X166560000Y-124960000D01*
X161275000Y-127250000D02*
X164000000Y-127250000D01*
%TO.N,Net-(MAX1-CLEAR)*%
X156600000Y-78750000D02*
X156850000Y-78500000D01*
X156600000Y-82225000D02*
X156600000Y-78750000D01*
%TO.N,LDO_EN*%
X153400000Y-91500000D02*
X153848529Y-91500000D01*
X157550000Y-87798529D02*
X157550000Y-84500000D01*
X153848529Y-91500000D02*
X157550000Y-87798529D01*
%TO.N,VBAT*%
X143662499Y-91500000D02*
X142500000Y-91500000D01*
X170175000Y-83000000D02*
X170175000Y-82215000D01*
X168460000Y-86285000D02*
X168460000Y-80500000D01*
X144500000Y-90662499D02*
X143662499Y-91500000D01*
X170175000Y-82215000D02*
X168460000Y-80500000D01*
X169625000Y-87450000D02*
X168460000Y-86285000D01*
X158500000Y-84500000D02*
X159912500Y-85912500D01*
X144500000Y-90000000D02*
X144500000Y-90662499D01*
X163047500Y-85912500D02*
X168460000Y-80500000D01*
X159912500Y-85912500D02*
X163047500Y-85912500D01*
%TO.N,EN*%
X170700000Y-116200000D02*
X164200000Y-116200000D01*
X170400000Y-111400000D02*
X167800000Y-114000000D01*
X167800000Y-114000000D02*
X163500000Y-114000000D01*
X170400000Y-103900000D02*
X170400000Y-111400000D01*
X171500000Y-117000000D02*
X170700000Y-116200000D01*
X170000000Y-103500000D02*
X170400000Y-103900000D01*
X163500000Y-115500000D02*
X163500000Y-114000000D01*
X164200000Y-116200000D02*
X163500000Y-115500000D01*
%TO.N,Net-(J4-CC2)*%
X164500000Y-104250000D02*
X163500000Y-105250000D01*
X163500000Y-105250000D02*
X163500000Y-106000000D01*
X166400000Y-104330000D02*
X165475000Y-104330000D01*
X165475000Y-104250000D02*
X164500000Y-104250000D01*
X165475000Y-104330000D02*
X165475000Y-104250000D01*
X166500000Y-104430000D02*
X166400000Y-104330000D01*
%TO.N,Net-(D2-K)*%
X140900000Y-88300000D02*
X142600000Y-90000000D01*
X140900000Y-81225000D02*
X140900000Y-88300000D01*
X142625000Y-79500000D02*
X140900000Y-81225000D01*
%TO.N,ADC_BAT*%
X165500000Y-91230000D02*
X165730000Y-91000000D01*
X170462500Y-86037500D02*
X172000000Y-84500000D01*
X170662500Y-87109448D02*
X170462500Y-86909448D01*
X170462500Y-86909448D02*
X170462500Y-86037500D01*
X171825000Y-84325000D02*
X172000000Y-84500000D01*
X170662500Y-87837500D02*
X170662500Y-87109448D01*
X165730000Y-91000000D02*
X167500000Y-91000000D01*
X167500000Y-91000000D02*
X170662500Y-87837500D01*
X171825000Y-83000000D02*
X171825000Y-84325000D01*
%TO.N,ROW_0*%
X160500000Y-121000000D02*
X160500000Y-125462740D01*
X165550000Y-119000000D02*
X162500000Y-119000000D01*
X166560000Y-120460000D02*
X166560000Y-120010000D01*
X160500000Y-125462740D02*
X159981370Y-125981370D01*
X166560000Y-120010000D02*
X165550000Y-119000000D01*
X168410000Y-120460000D02*
X166560000Y-120460000D01*
X162500000Y-119000000D02*
X160500000Y-121000000D01*
X159775000Y-127250000D02*
X159775000Y-126187741D01*
X159981370Y-125981370D02*
X160074265Y-125888476D01*
X159775000Y-126187741D02*
X159981370Y-125981370D01*
%TO.N,COL_0*%
X152225000Y-127225000D02*
X152250000Y-127250000D01*
X148760000Y-118690000D02*
X148910000Y-118840000D01*
X152275000Y-124367500D02*
X152275000Y-127250000D01*
X152250000Y-127250000D02*
X152275000Y-127250000D01*
X148910000Y-118840000D02*
X148910000Y-121002500D01*
X148910000Y-121002500D02*
X152275000Y-124367500D01*
%TO.N,COL_1*%
X150010000Y-120740000D02*
X152775000Y-123505000D01*
X150010000Y-119690000D02*
X150010000Y-120740000D01*
X152725000Y-127250000D02*
X152775000Y-127250000D01*
X152775000Y-123505000D02*
X152775000Y-127250000D01*
%TO.N,COL_2*%
X150710000Y-120140000D02*
X150710000Y-120688529D01*
X151911471Y-121890000D02*
X152160000Y-121890000D01*
X153275000Y-123005000D02*
X153275000Y-127250000D01*
X152160000Y-121890000D02*
X153275000Y-123005000D01*
X150710000Y-120688529D02*
X151911471Y-121890000D01*
%TO.N,COL_3*%
X153775000Y-122905000D02*
X153775000Y-127250000D01*
X151410000Y-120540000D02*
X153775000Y-122905000D01*
%TO.N,COL_4*%
X155560000Y-122840000D02*
X155560000Y-123288579D01*
X153410000Y-120690000D02*
X155560000Y-122840000D01*
X155560000Y-123288579D02*
X154275000Y-124573579D01*
X154275000Y-124573579D02*
X154275000Y-127250000D01*
%TO.N,COL_5*%
X154775000Y-124639265D02*
X154775000Y-125490404D01*
X154775000Y-125490404D02*
X154775000Y-127250000D01*
X156074265Y-123340000D02*
X154775000Y-124639265D01*
X154260000Y-120549559D02*
X156074265Y-122363824D01*
X154260000Y-120390000D02*
X154260000Y-120549559D01*
X156074265Y-122363824D02*
X156074265Y-123340000D01*
%TO.N,COL_6*%
X155275000Y-127250000D02*
X155275000Y-126225000D01*
X156474265Y-121915294D02*
X156474265Y-123875735D01*
X155275000Y-125075000D02*
X155275000Y-127250000D01*
X156474265Y-123875735D02*
X155275000Y-125075000D01*
X155254485Y-120695515D02*
X156474265Y-121915294D01*
%TO.N,COL_7*%
X156874265Y-124072793D02*
X156108529Y-124838529D01*
X155900000Y-125050000D02*
X155775000Y-125175000D01*
X156214952Y-124732107D02*
X156108529Y-124838529D01*
X156874265Y-121466765D02*
X156874265Y-124072793D01*
X155775000Y-125175000D02*
X155775000Y-127250000D01*
X156108529Y-124838529D02*
X155900000Y-125047059D01*
X155900000Y-125047059D02*
X155900000Y-125050000D01*
X156000000Y-120592500D02*
X156874265Y-121466765D01*
X156000000Y-120300000D02*
X156000000Y-120592500D01*
%TO.N,COL_8*%
X156232649Y-119576765D02*
X157274265Y-120618381D01*
X157274265Y-124238480D02*
X156416372Y-125096372D01*
X151410000Y-113580685D02*
X151410000Y-116002500D01*
X155335736Y-119576765D02*
X156232649Y-119576765D01*
X157274265Y-120618381D02*
X157274265Y-124238480D01*
X156275000Y-127250000D02*
X156275000Y-125237745D01*
X151410000Y-116002500D02*
X155160000Y-119752500D01*
X151488185Y-113502500D02*
X151410000Y-113580685D01*
X156275000Y-125237745D02*
X156416372Y-125096372D01*
X155160000Y-119752500D02*
X155335736Y-119576765D01*
X156416372Y-125096372D02*
X156506373Y-125006372D01*
%TO.N,COL_9*%
X152010000Y-116036814D02*
X155149951Y-119176765D01*
X157674265Y-124588479D02*
X156856373Y-125406372D01*
X152010000Y-114113972D02*
X152010000Y-116036814D01*
X155149951Y-119176765D02*
X156398335Y-119176765D01*
X156775000Y-125406372D02*
X156775000Y-127250000D01*
X157674265Y-120452695D02*
X157674265Y-124588479D01*
X156398335Y-119176765D02*
X157674265Y-120452695D01*
X156856373Y-125406372D02*
X156775000Y-125406372D01*
%TO.N,COL_10*%
X157275000Y-125553431D02*
X157275000Y-127250000D01*
X158074265Y-124754164D02*
X157275000Y-125553431D01*
X152410000Y-115776765D02*
X155410000Y-118776765D01*
X156564021Y-118776765D02*
X158074265Y-120287009D01*
X155410000Y-118776765D02*
X156564021Y-118776765D01*
X152410000Y-114820314D02*
X152410000Y-115776765D01*
X158074265Y-120287009D02*
X158074265Y-124754164D01*
X152681509Y-114548805D02*
X152410000Y-114820314D01*
%TO.N,COL_11*%
X158474265Y-120121323D02*
X158474265Y-125025735D01*
X156355442Y-118002500D02*
X158474265Y-120121323D01*
X153281509Y-114797334D02*
X152930038Y-115148805D01*
X152930038Y-115148805D02*
X152910000Y-115148805D01*
X157775000Y-125725000D02*
X157775000Y-127250000D01*
X155201421Y-118002500D02*
X156355442Y-118002500D01*
X152910000Y-115711079D02*
X155201421Y-118002500D01*
X153480170Y-114502500D02*
X153281509Y-114701161D01*
X158474265Y-125025735D02*
X157775000Y-125725000D01*
X152910000Y-115148805D02*
X152910000Y-115711079D01*
X153281509Y-114701161D02*
X153281509Y-114797334D01*
%TO.N,COL_12*%
X153800000Y-115300000D02*
X154001684Y-115501684D01*
X158874265Y-125191420D02*
X158275000Y-125790685D01*
X155267108Y-117502500D02*
X156421128Y-117502500D01*
X156421128Y-117502500D02*
X158874265Y-119955637D01*
X154001684Y-115501684D02*
X154001684Y-116237077D01*
X158275000Y-125790685D02*
X158275000Y-127250000D01*
X158874265Y-119955637D02*
X158874265Y-125191420D01*
X154001684Y-116237077D02*
X155267108Y-117502500D01*
%TO.N,COL_13*%
X159274265Y-119789951D02*
X159274265Y-122940000D01*
X158775000Y-125856370D02*
X159274265Y-125357105D01*
X154910000Y-116579707D02*
X155432793Y-117102500D01*
X159274265Y-125357105D02*
X159274265Y-123077207D01*
X156586814Y-117102500D02*
X159274265Y-119789951D01*
X154910000Y-115450000D02*
X154910000Y-116579707D01*
X155432793Y-117102500D02*
X156586814Y-117102500D01*
X158775000Y-127250000D02*
X158775000Y-125856370D01*
%TO.N,COL_14*%
X159674265Y-119624265D02*
X159674265Y-125522790D01*
X159275000Y-125922056D02*
X159275000Y-127250000D01*
X159674265Y-125522790D02*
X159275000Y-125922056D01*
X155910000Y-115702500D02*
X155910000Y-115860000D01*
X155910000Y-115860000D02*
X159674265Y-119624265D01*
%TO.N,ROW_1*%
X161500000Y-120565686D02*
X162665686Y-119400000D01*
X162665686Y-119400000D02*
X165287648Y-119400000D01*
X160275000Y-127250000D02*
X160275000Y-126253427D01*
X161500000Y-125028426D02*
X161500000Y-122000000D01*
X168410000Y-121960000D02*
X166560000Y-121960000D01*
X165287648Y-119400000D02*
X165750000Y-119862352D01*
X160275000Y-126253427D02*
X161500000Y-125028426D01*
X165750000Y-121150000D02*
X166560000Y-121960000D01*
X165750000Y-119862352D02*
X165750000Y-121150000D01*
X161500000Y-122000000D02*
X161500000Y-120565686D01*
%TO.N,SCL*%
X154347932Y-106140000D02*
X155185000Y-105302932D01*
X155185000Y-105302932D02*
X155185000Y-103275000D01*
X155185000Y-103275000D02*
X156460000Y-102000000D01*
X153985000Y-106140000D02*
X154347932Y-106140000D01*
%TO.N,SDA*%
X153985000Y-105640000D02*
X154022932Y-105640000D01*
X154297500Y-105365432D02*
X154297500Y-102377500D01*
X161250000Y-100000000D02*
X155920000Y-100000000D01*
X154297500Y-102377500D02*
X153920000Y-102000000D01*
X163500000Y-95040698D02*
X163500000Y-97750000D01*
X154022932Y-105640000D02*
X154297500Y-105365432D01*
X155920000Y-100000000D02*
X153920000Y-102000000D01*
X163500000Y-97750000D02*
X161250000Y-100000000D01*
%TO.N,100*%
X143400000Y-114015686D02*
X143400000Y-107081372D01*
X142350000Y-115800000D02*
X142875000Y-115800000D01*
X147000000Y-103481372D02*
X147000000Y-98000000D01*
X142875000Y-114540686D02*
X143400000Y-114015686D01*
X142350000Y-120800000D02*
X142350000Y-115800000D01*
X147000000Y-98000000D02*
X148000000Y-97000000D01*
X142875000Y-115800000D02*
X142875000Y-114540686D01*
X143400000Y-107081372D02*
X147000000Y-103481372D01*
%TO.N,Net-(J4-D+-PadA6)*%
X167475000Y-105430000D02*
X167750000Y-105705000D01*
X164750000Y-107000000D02*
X163750000Y-108000000D01*
X167750000Y-105705000D02*
X167750000Y-106155000D01*
X167475000Y-106430000D02*
X166500000Y-106430000D01*
X167750000Y-106155000D02*
X167475000Y-106430000D01*
X166500000Y-105430000D02*
X167475000Y-105430000D01*
X164750000Y-105856471D02*
X164750000Y-107000000D01*
X166500000Y-105430000D02*
X165176471Y-105430000D01*
X165176471Y-105430000D02*
X164750000Y-105856471D01*
%TO.N,Net-(J4-D--PadA7)*%
X164712500Y-109290552D02*
X164103052Y-109900000D01*
X164712500Y-107659448D02*
X164712500Y-109290552D01*
X165250000Y-106655000D02*
X165525000Y-106930000D01*
X165441948Y-106930000D02*
X164712500Y-107659448D01*
X165250000Y-106205000D02*
X165250000Y-106655000D01*
X166500000Y-106930000D02*
X165441948Y-106930000D01*
X165525000Y-105930000D02*
X165250000Y-106205000D01*
X165525000Y-106930000D02*
X166500000Y-106930000D01*
X166500000Y-105930000D02*
X165525000Y-105930000D01*
X164103052Y-109900000D02*
X163750000Y-109900000D01*
%TO.N,D+*%
X162075000Y-107400000D02*
X161475000Y-108000000D01*
X163300000Y-107400000D02*
X162075000Y-107400000D01*
X164873894Y-104911881D02*
X164350000Y-105435775D01*
X164350000Y-105435775D02*
X164350000Y-106350000D01*
X164350000Y-106350000D02*
X163300000Y-107400000D01*
%TO.N,D-*%
X161475000Y-111562648D02*
X163087352Y-113175000D01*
X169650000Y-111165685D02*
X169650000Y-106150000D01*
X169650000Y-106150000D02*
X169400000Y-105900000D01*
X163087352Y-113175000D02*
X167640685Y-113175000D01*
X167640685Y-113175000D02*
X169650000Y-111165685D01*
X161475000Y-109900000D02*
X161475000Y-111562648D01*
%TO.N,RX*%
X161250000Y-94000000D02*
X162200000Y-93050000D01*
X157750000Y-94000000D02*
X161250000Y-94000000D01*
X168040000Y-93050000D02*
X170400000Y-95410000D01*
X162200000Y-93050000D02*
X168040000Y-93050000D01*
X170500000Y-95020000D02*
X169795686Y-95020000D01*
%TO.N,TX*%
X162550000Y-93450000D02*
X165900000Y-93450000D01*
X156500000Y-94000000D02*
X157250000Y-94750000D01*
X161250000Y-94750000D02*
X162550000Y-93450000D01*
X157250000Y-94750000D02*
X161250000Y-94750000D01*
X165900000Y-93450000D02*
X170400000Y-97950000D01*
%TO.N,S0*%
X161150000Y-106950000D02*
X161150000Y-105512352D01*
X166065000Y-101528629D02*
X166533629Y-101060000D01*
X161150000Y-105512352D02*
X161437353Y-105225000D01*
X150888185Y-113253971D02*
X153802156Y-110340000D01*
X166689998Y-101060000D02*
X167099997Y-100650003D01*
X163000000Y-105000000D02*
X165475000Y-102525000D01*
X150810000Y-115524315D02*
X150888185Y-115446130D01*
X165475000Y-102525000D02*
X165475000Y-102330000D01*
X165670000Y-102330000D02*
X166065000Y-101935000D01*
X167099997Y-100650003D02*
X167580298Y-100650003D01*
X161437353Y-105225000D02*
X162262648Y-105225000D01*
X150888185Y-115446130D02*
X150888185Y-113253971D01*
X162262648Y-105225000D02*
X162487649Y-105000000D01*
X165475000Y-102330000D02*
X165670000Y-102330000D01*
X166065000Y-101935000D02*
X166065000Y-101528629D01*
X153802156Y-110340000D02*
X157760000Y-110340000D01*
X162487649Y-105000000D02*
X163000000Y-105000000D01*
X157760000Y-110340000D02*
X161150000Y-106950000D01*
X166533629Y-101060000D02*
X166689998Y-101060000D01*
X167580298Y-100650003D02*
X167965148Y-100265153D01*
%TO.N,S1*%
X150160000Y-114830685D02*
X150488185Y-114502500D01*
X162321962Y-104600000D02*
X162742157Y-104600000D01*
X162742157Y-104600000D02*
X165075000Y-102267157D01*
X167000000Y-100250003D02*
X167000000Y-100050003D01*
X150488185Y-113088286D02*
X153636470Y-109940000D01*
X153636470Y-109940000D02*
X157594314Y-109940000D01*
X150160000Y-116440000D02*
X150160000Y-114830685D01*
X160750000Y-105346667D02*
X161271668Y-104825000D01*
X150488185Y-114502500D02*
X150488185Y-113088286D01*
X161271668Y-104825000D02*
X162096962Y-104825000D01*
X157594314Y-109940000D02*
X160750000Y-106784314D01*
X165412157Y-101930000D02*
X165665000Y-101677157D01*
X165075000Y-102267157D02*
X165075000Y-102164315D01*
X166524313Y-100660000D02*
X166934311Y-100250003D01*
X166367943Y-100660000D02*
X166524313Y-100660000D01*
X165665000Y-101362944D02*
X166367943Y-100660000D01*
X165665000Y-101677157D02*
X165665000Y-101362944D01*
X160750000Y-106784314D02*
X160750000Y-105346667D01*
X162096962Y-104825000D02*
X162321962Y-104600000D01*
X166934311Y-100250003D02*
X167000000Y-100250003D01*
X165309315Y-101930000D02*
X165412157Y-101930000D01*
X165075000Y-102164315D02*
X165309315Y-101930000D01*
%TO.N,S3*%
X166000000Y-99896572D02*
X164865000Y-101031574D01*
X164275000Y-101832945D02*
X164275000Y-101909314D01*
X153294314Y-109140000D02*
X151681814Y-110752500D01*
X159950000Y-106452942D02*
X157262942Y-109140000D01*
X164275000Y-101909314D02*
X162384314Y-103800000D01*
X162384314Y-103800000D02*
X161990593Y-103799999D01*
X166867731Y-98242731D02*
X166000000Y-99110462D01*
X159950000Y-105015297D02*
X159950000Y-106452942D01*
X151681814Y-110752500D02*
X150410000Y-110752500D01*
X164865000Y-101031574D02*
X164865000Y-101242944D01*
X166000000Y-99110462D02*
X166000000Y-99896572D01*
X161115295Y-103850000D02*
X159950000Y-105015297D01*
X161940590Y-103850000D02*
X161115295Y-103850000D01*
X157262942Y-109140000D02*
X153294314Y-109140000D01*
X161990593Y-103799999D02*
X161940590Y-103850000D01*
X164865000Y-101242944D02*
X164275000Y-101832945D01*
%TO.N,S2*%
X160350000Y-106618628D02*
X160350000Y-105180982D01*
X166400000Y-99801474D02*
X166751471Y-99450003D01*
X150247500Y-112752500D02*
X153460000Y-109540000D01*
X166358628Y-100260000D02*
X166400000Y-100218628D01*
X164675000Y-101998630D02*
X165143629Y-101530000D01*
X150039516Y-112689918D02*
X150102098Y-112752500D01*
X165265000Y-101197259D02*
X166202257Y-100260000D01*
X167000000Y-99450003D02*
X167000000Y-99250000D01*
X165265000Y-101485000D02*
X165265000Y-101197259D01*
X153460000Y-109540000D02*
X157428628Y-109540000D01*
X164675000Y-102075000D02*
X164675000Y-101998630D01*
X150102098Y-112752500D02*
X150247500Y-112752500D01*
X165220000Y-101530000D02*
X165265000Y-101485000D01*
X157428628Y-109540000D02*
X160350000Y-106618628D01*
X166202257Y-100260000D02*
X166358628Y-100260000D01*
X166751471Y-99450003D02*
X167000000Y-99450003D01*
X161280981Y-104250000D02*
X162106275Y-104250000D01*
X162156275Y-104200001D02*
X162550000Y-104200000D01*
X162550000Y-104200000D02*
X164675000Y-102075000D01*
X165143629Y-101530000D02*
X165220000Y-101530000D01*
X166400000Y-100218628D02*
X166400000Y-99801474D01*
X162106275Y-104250000D02*
X162156275Y-104200001D01*
X160350000Y-105180982D02*
X161280981Y-104250000D01*
%TO.N,GP16_E*%
X151160000Y-104410000D02*
X152060000Y-103510000D01*
X164100000Y-97715686D02*
X164643263Y-98258949D01*
X152060000Y-103510000D02*
X152060000Y-101655686D01*
X152960000Y-108340000D02*
X152460000Y-108840000D01*
X151147500Y-105723882D02*
X151160000Y-105711383D01*
X164100000Y-94600000D02*
X164100000Y-97715686D01*
X160650000Y-99600000D02*
X162500000Y-97750000D01*
X151147500Y-107293185D02*
X151147500Y-105723882D01*
X154115686Y-99600000D02*
X160650000Y-99600000D01*
X164643263Y-98258949D02*
X166002983Y-98258949D01*
X151160000Y-107940000D02*
X151160000Y-107305686D01*
X151160000Y-107305686D02*
X151147500Y-107293185D01*
X151160000Y-105711383D02*
X151160000Y-104410000D01*
X152060000Y-108840000D02*
X151160000Y-107940000D01*
X162500000Y-97750000D02*
X162500000Y-94875000D01*
X163125000Y-94250000D02*
X163750000Y-94250000D01*
X152460000Y-108840000D02*
X152060000Y-108840000D01*
X152060000Y-101655686D02*
X154115686Y-99600000D01*
X162500000Y-94875000D02*
X163125000Y-94250000D01*
X163750000Y-94250000D02*
X164100000Y-94600000D01*
%TO.N,MOT_SIG*%
X159800000Y-99200000D02*
X162100000Y-96900000D01*
X151660000Y-103344314D02*
X151660000Y-101490000D01*
X162100000Y-94709314D02*
X162959315Y-93850000D01*
X150760000Y-104244314D02*
X151660000Y-103344314D01*
X151660000Y-101490000D02*
X153950001Y-99200000D01*
X151260000Y-108990000D02*
X150760000Y-108490000D01*
X153950001Y-99200000D02*
X159800000Y-99200000D01*
X150760000Y-108490000D02*
X150760000Y-107471372D01*
X163915686Y-93850000D02*
X165750000Y-95684314D01*
X150747500Y-105558197D02*
X150760000Y-105545697D01*
X150760000Y-105545697D02*
X150760000Y-104244314D01*
X162100000Y-96900000D02*
X162100000Y-94709314D01*
X165750000Y-95684314D02*
X165750000Y-97500000D01*
X150760000Y-107471372D02*
X150747499Y-107458871D01*
X150747499Y-107458871D02*
X150747500Y-105558197D01*
X162959315Y-93850000D02*
X163915686Y-93850000D01*
%TO.N,Net-(D5-BA)*%
X154000000Y-81200000D02*
X154000000Y-84300000D01*
X154000000Y-84300000D02*
X152300000Y-86000000D01*
%TO.N,Net-(D5-GA)*%
X153150000Y-80100000D02*
X152950000Y-80300000D01*
X152950000Y-80300000D02*
X152950000Y-83750000D01*
X152950000Y-83750000D02*
X152300000Y-84400000D01*
X154000000Y-80100000D02*
X153150000Y-80100000D01*
%TO.N,Net-(D5-RA)*%
X152250000Y-79900000D02*
X152250000Y-82850000D01*
X154000000Y-79000000D02*
X153150000Y-79000000D01*
X153150000Y-79000000D02*
X152250000Y-79900000D01*
%TO.N,GP42*%
X150030000Y-82850000D02*
X150600000Y-82850000D01*
X148000000Y-84880000D02*
X150030000Y-82850000D01*
%TD*%
M02*
