%TF.GenerationSoftware,KiCad,Pcbnew,10.0.2*%
%TF.CreationDate,2026-06-23T17:28:03-05:00*%
%TF.ProjectId,OM-FlexGrid-Rigid-PCB,4f4d2d46-6c65-4784-9772-69642d526967,rev?*%
%TF.SameCoordinates,Original*%
%TF.FileFunction,Soldermask,Top*%
%TF.FilePolarity,Negative*%
%FSLAX46Y46*%
G04 Gerber Fmt 4.6, Leading zero omitted, Abs format (unit mm)*
G04 Created by KiCad (PCBNEW 10.0.2) date 2026-06-23 17:28:03*
%MOMM*%
%LPD*%
G01*
G04 APERTURE LIST*
G04 Aperture macros list*
%AMRoundRect*
0 Rectangle with rounded corners*
0 $1 Rounding radius*
0 $2 $3 $4 $5 $6 $7 $8 $9 X,Y pos of 4 corners*
0 Add a 4 corners polygon primitive as box body*
4,1,4,$2,$3,$4,$5,$6,$7,$8,$9,$2,$3,0*
0 Add four circle primitives for the rounded corners*
1,1,$1+$1,$2,$3*
1,1,$1+$1,$4,$5*
1,1,$1+$1,$6,$7*
1,1,$1+$1,$8,$9*
0 Add four rect primitives between the rounded corners*
20,1,$1+$1,$2,$3,$4,$5,0*
20,1,$1+$1,$4,$5,$6,$7,0*
20,1,$1+$1,$6,$7,$8,$9,0*
20,1,$1+$1,$8,$9,$2,$3,0*%
G04 Aperture macros list end*
%ADD10RoundRect,0.150000X0.512500X0.150000X-0.512500X0.150000X-0.512500X-0.150000X0.512500X-0.150000X0*%
%ADD11RoundRect,0.200000X0.200000X0.275000X-0.200000X0.275000X-0.200000X-0.275000X0.200000X-0.275000X0*%
%ADD12RoundRect,0.200000X-0.200000X-0.275000X0.200000X-0.275000X0.200000X0.275000X-0.200000X0.275000X0*%
%ADD13RoundRect,0.225000X0.375000X-0.225000X0.375000X0.225000X-0.375000X0.225000X-0.375000X-0.225000X0*%
%ADD14R,1.450000X1.000000*%
%ADD15R,1.000000X1.000000*%
%ADD16C,1.000000*%
%ADD17RoundRect,0.225000X0.250000X-0.225000X0.250000X0.225000X-0.250000X0.225000X-0.250000X-0.225000X0*%
%ADD18RoundRect,0.150000X-0.150000X0.587500X-0.150000X-0.587500X0.150000X-0.587500X0.150000X0.587500X0*%
%ADD19RoundRect,0.200000X-0.275000X0.200000X-0.275000X-0.200000X0.275000X-0.200000X0.275000X0.200000X0*%
%ADD20RoundRect,0.225000X0.225000X0.250000X-0.225000X0.250000X-0.225000X-0.250000X0.225000X-0.250000X0*%
%ADD21R,1.350000X1.350000*%
%ADD22C,1.350000*%
%ADD23RoundRect,0.150000X-0.150000X0.512500X-0.150000X-0.512500X0.150000X-0.512500X0.150000X0.512500X0*%
%ADD24RoundRect,0.150000X0.587500X0.150000X-0.587500X0.150000X-0.587500X-0.150000X0.587500X-0.150000X0*%
%ADD25RoundRect,0.243750X-0.243750X-0.456250X0.243750X-0.456250X0.243750X0.456250X-0.243750X0.456250X0*%
%ADD26R,1.300000X0.700000*%
%ADD27R,0.300000X1.000000*%
%ADD28R,1.650000X1.300000*%
%ADD29RoundRect,0.225000X-0.250000X0.225000X-0.250000X-0.225000X0.250000X-0.225000X0.250000X0.225000X0*%
%ADD30R,1.700000X1.700000*%
%ADD31C,1.700000*%
%ADD32RoundRect,0.250000X0.250000X0.475000X-0.250000X0.475000X-0.250000X-0.475000X0.250000X-0.475000X0*%
%ADD33RoundRect,0.150000X0.150000X-0.512500X0.150000X0.512500X-0.150000X0.512500X-0.150000X-0.512500X0*%
%ADD34RoundRect,0.087500X-0.087500X0.225000X-0.087500X-0.225000X0.087500X-0.225000X0.087500X0.225000X0*%
%ADD35RoundRect,0.087500X-0.225000X0.087500X-0.225000X-0.087500X0.225000X-0.087500X0.225000X0.087500X0*%
%ADD36R,1.450000X0.600000*%
%ADD37R,1.450000X0.300000*%
%ADD38O,2.100000X1.000000*%
%ADD39O,1.600000X1.000000*%
%ADD40RoundRect,0.225000X-0.225000X-0.250000X0.225000X-0.250000X0.225000X0.250000X-0.225000X0.250000X0*%
%ADD41RoundRect,0.250000X-0.250000X-0.475000X0.250000X-0.475000X0.250000X0.475000X-0.250000X0.475000X0*%
G04 APERTURE END LIST*
D10*
%TO.C,U5*%
X163750000Y-109900000D03*
X163750000Y-108950000D03*
X163750000Y-108000000D03*
X161475000Y-108000000D03*
X161475000Y-108950000D03*
X161475000Y-109900000D03*
%TD*%
D11*
%TO.C,R17*%
X152300000Y-84400000D03*
X150650000Y-84400000D03*
%TD*%
%TO.C,R16*%
X152250000Y-82850000D03*
X150600000Y-82850000D03*
%TD*%
D12*
%TO.C,R14*%
X164910000Y-123460000D03*
X166560000Y-123460000D03*
%TD*%
D13*
%TO.C,D1*%
X144500000Y-95500000D03*
X144500000Y-92200000D03*
%TD*%
D14*
%TO.C,SELECT1*%
X141850000Y-115000000D03*
X141850000Y-113300000D03*
X147000000Y-115000000D03*
X147000000Y-113300000D03*
%TD*%
D10*
%TO.C,U3*%
X161000000Y-89950000D03*
X161000000Y-89000000D03*
X161000000Y-88050000D03*
X158725000Y-88050000D03*
X158725000Y-89950000D03*
%TD*%
D14*
%TO.C,MENU1*%
X141850000Y-107500000D03*
X141850000Y-105800000D03*
X147000000Y-107500000D03*
X147000000Y-105800000D03*
%TD*%
D12*
%TO.C,R5*%
X142850000Y-81500000D03*
X144500000Y-81500000D03*
%TD*%
D15*
%TO.C,J1*%
X148460000Y-100250000D03*
D16*
X148460000Y-98980000D03*
X149730000Y-100250000D03*
X149730000Y-98980000D03*
X151000000Y-100250000D03*
X151000000Y-98980000D03*
%TD*%
D17*
%TO.C,C11*%
X155960000Y-107140000D03*
X155960000Y-105590000D03*
%TD*%
D11*
%TO.C,R2*%
X164750000Y-112000000D03*
X163100000Y-112000000D03*
%TD*%
D18*
%TO.C,Q3*%
X163000000Y-83000000D03*
X161100000Y-83000000D03*
X162050000Y-84875000D03*
%TD*%
D19*
%TO.C,R4*%
X142000000Y-84175000D03*
X142000000Y-85825000D03*
%TD*%
D20*
%TO.C,C15*%
X169500000Y-124900000D03*
X167950000Y-124900000D03*
%TD*%
D21*
%TO.C,J7*%
X144500000Y-126500000D03*
D22*
X142500000Y-126500000D03*
%TD*%
D23*
%TO.C,MAX1*%
X158500000Y-82225000D03*
X157550000Y-82225000D03*
X156600000Y-82225000D03*
X156600000Y-84500000D03*
X157550000Y-84500000D03*
X158500000Y-84500000D03*
%TD*%
D14*
%TO.C,BOOT1*%
X171500000Y-115300000D03*
X171500000Y-117000000D03*
X166350000Y-115300000D03*
X166350000Y-117000000D03*
%TD*%
D24*
%TO.C,Q2*%
X171500000Y-88400000D03*
X171500000Y-86500000D03*
X169625000Y-87450000D03*
%TD*%
D11*
%TO.C,R1*%
X163500000Y-106000000D03*
X161850000Y-106000000D03*
%TD*%
D14*
%TO.C,SW_PWR1*%
X159000000Y-73000000D03*
X159000000Y-74700000D03*
X153850000Y-73000000D03*
X153850000Y-74700000D03*
%TD*%
D17*
%TO.C,C10*%
X157460000Y-107140000D03*
X157460000Y-105590000D03*
%TD*%
D25*
%TO.C,D2*%
X142625000Y-79500000D03*
X144500000Y-79500000D03*
%TD*%
D26*
%TO.C,D5*%
X150900000Y-79000000D03*
X150900000Y-80100000D03*
X150900000Y-81200000D03*
X154000000Y-81200000D03*
X154000000Y-80100000D03*
X154000000Y-79000000D03*
%TD*%
D20*
%TO.C,C14*%
X169500000Y-123400000D03*
X167950000Y-123400000D03*
%TD*%
D11*
%TO.C,R8*%
X172000000Y-84500000D03*
X170350000Y-84500000D03*
%TD*%
D20*
%TO.C,C12*%
X169500000Y-120400000D03*
X167950000Y-120400000D03*
%TD*%
D27*
%TO.C,J3*%
X151775000Y-127250000D03*
X152275000Y-127250000D03*
X152775000Y-127250000D03*
X153275000Y-127250000D03*
X153775000Y-127250000D03*
X154275000Y-127250000D03*
X154775000Y-127250000D03*
X155275000Y-127250000D03*
X155775000Y-127250000D03*
X156275000Y-127250000D03*
X156775000Y-127250000D03*
X157275000Y-127250000D03*
X157775000Y-127250000D03*
X158275000Y-127250000D03*
X158775000Y-127250000D03*
X159275000Y-127250000D03*
X159775000Y-127250000D03*
X160275000Y-127250000D03*
X160775000Y-127250000D03*
X161275000Y-127250000D03*
D28*
X149500000Y-129150000D03*
X163550000Y-129150000D03*
%TD*%
D29*
%TO.C,C8*%
X145000000Y-84450000D03*
X145000000Y-86000000D03*
%TD*%
D30*
%TO.C,J2*%
X171000000Y-80500000D03*
D31*
X168460000Y-80500000D03*
%TD*%
D12*
%TO.C,R3*%
X156850000Y-78500000D03*
X158500000Y-78500000D03*
%TD*%
D11*
%TO.C,R18*%
X152300000Y-86000000D03*
X150650000Y-86000000D03*
%TD*%
D32*
%TO.C,C7*%
X162900000Y-91750000D03*
X161000000Y-91750000D03*
%TD*%
D30*
%TO.C,SCRN1*%
X161540000Y-102000000D03*
D31*
X159000000Y-102000000D03*
X156460000Y-102000000D03*
X153920000Y-102000000D03*
%TD*%
D33*
%TO.C,U4*%
X142600000Y-90000000D03*
X143550000Y-90000000D03*
X144500000Y-90000000D03*
X144500000Y-87725000D03*
X142600000Y-87725000D03*
%TD*%
D14*
%TO.C,SW_RST1*%
X142350000Y-122500000D03*
X142350000Y-120800000D03*
X147500000Y-122500000D03*
X147500000Y-120800000D03*
%TD*%
D34*
%TO.C,IC1*%
X153822500Y-104977500D03*
X153322500Y-104977500D03*
X152822500Y-104977500D03*
X152322500Y-104977500D03*
D35*
X152160000Y-105640000D03*
X152160000Y-106140000D03*
X152160000Y-106640000D03*
D34*
X152322500Y-107302500D03*
X152822500Y-107302500D03*
X153322500Y-107302500D03*
X153822500Y-107302500D03*
D35*
X153985000Y-106640000D03*
X153985000Y-106140000D03*
X153985000Y-105640000D03*
%TD*%
D36*
%TO.C,J4*%
X166500000Y-109430000D03*
X166500000Y-108630000D03*
D37*
X166500000Y-107430000D03*
X166500000Y-106430000D03*
X166500000Y-105930000D03*
X166500000Y-104930000D03*
D36*
X166500000Y-103730000D03*
X166500000Y-102930000D03*
X166500000Y-102930000D03*
X166500000Y-103730000D03*
D37*
X166500000Y-104430000D03*
X166500000Y-105430000D03*
X166500000Y-106930000D03*
X166500000Y-107930000D03*
D36*
X166500000Y-108630000D03*
X166500000Y-109430000D03*
D38*
X167415000Y-110500000D03*
D39*
X171595000Y-110500000D03*
D38*
X167415000Y-101860000D03*
D39*
X171595000Y-101860000D03*
%TD*%
D40*
%TO.C,C5*%
X161950000Y-114000000D03*
X163500000Y-114000000D03*
%TD*%
D12*
%TO.C,R7*%
X170175000Y-83000000D03*
X171825000Y-83000000D03*
%TD*%
D41*
%TO.C,C6*%
X156600000Y-92500000D03*
X158500000Y-92500000D03*
%TD*%
D12*
%TO.C,R15*%
X164910000Y-124960000D03*
X166560000Y-124960000D03*
%TD*%
%TO.C,R12*%
X164910000Y-120460000D03*
X166560000Y-120460000D03*
%TD*%
%TO.C,R6*%
X161850000Y-115500000D03*
X163500000Y-115500000D03*
%TD*%
%TO.C,R13*%
X164910000Y-121960000D03*
X166560000Y-121960000D03*
%TD*%
D18*
%TO.C,D3*%
X153400000Y-91500000D03*
X151500000Y-91500000D03*
X152450000Y-93375000D03*
%TD*%
D12*
%TO.C,R9*%
X152350000Y-87500000D03*
X154000000Y-87500000D03*
%TD*%
D30*
%TO.C,J6*%
X170400000Y-92870000D03*
D31*
X170400000Y-95410000D03*
X170400000Y-97950000D03*
%TD*%
D20*
%TO.C,C13*%
X169500000Y-121900000D03*
X167950000Y-121900000D03*
%TD*%
D21*
%TO.C,J5*%
X144000000Y-102000000D03*
D22*
X142000000Y-102000000D03*
%TD*%
M02*
