M48
; DRILL file KiCad 10.0.2 date 2026-05-30T19:47:26
; FORMAT={-:-/ absolute / inch / decimal}
; #@! TF.CreationDate,2026-05-30T19:47:26-05:00
; #@! TF.GenerationSoftware,Kicad,Pcbnew,10.0.2
; #@! TF.FileFunction,Plated,1,4,PTH
FMAT,2
INCH
; #@! TA.AperFunction,Plated,PTH,ViaDrill
T1C0.0118
; #@! TA.AperFunction,Plated,PTH,ComponentDrill
T2C0.0236
; #@! TA.AperFunction,Plated,PTH,ComponentDrill
T3C0.0256
; #@! TA.AperFunction,Plated,PTH,ComponentDrill
T4C0.0315
; #@! TA.AperFunction,Plated,PTH,ComponentDrill
T5C0.0394
%
G90
G05
T1
X5.5709Y-3.4252
X5.5846Y-4.1654
X5.5846Y-4.4606
X5.6102Y-3.6024
X5.6516Y-3.5433
X5.7283Y-3.4252
X5.7283Y-3.6024
X5.748Y-3.2972
X5.8071Y-4.7559
X5.8268Y-3.0917
X5.8268Y-3.8189
X5.8563Y-4.2421
X5.9055Y-4.9016
X5.9252Y-3.5039
X5.935Y-4.2323
X5.935Y-4.5965
X5.935Y-4.7539
X5.937Y-4.9134
X5.9646Y-4.5177
X5.9646Y-4.7835
X5.9646Y-5.0
X5.9694Y-4.9142
X5.9803Y-4.7056
X6.007Y-4.626
X6.0139Y-4.2863
X6.0276Y-4.6501
X6.0302Y-4.922
X6.0335Y-3.7441
X6.054Y-4.6672
X6.0556Y-4.9406
X6.063Y-3.4449
X6.063Y-4.311
X6.0854Y-4.6654
X6.0862Y-4.9333
X6.1024Y-3.8484
X6.106Y-4.6892
X6.1266Y-4.9009
X6.1417Y-4.6969
X6.1614Y-3.7008
X6.1683Y-4.8888
X6.1752Y-3.4508
X6.1811Y-4.3701
X6.1811Y-4.7126
X6.1909Y-3.878
X6.2106Y-3.7008
X6.2303Y-3.3957
X6.2402Y-3.0906
X6.249Y-3.5413
X6.2707Y-4.5472
X6.2795Y-4.7835
X6.2963Y-3.7909
X6.2992Y-3.6417
X6.3189Y-3.2087
X6.3189Y-4.7638
X6.3425Y-3.2677
X6.3583Y-4.8031
X6.372Y-4.1732
X6.376Y-4.4685
X6.3976Y-3.4646
X6.3976Y-4.9803
X6.4134Y-3.6122
X6.4173Y-3.189
X6.4213Y-4.4094
X6.437Y-3.7418
X6.4469Y-4.2894
X6.4567Y-5.0098
X6.4911Y-4.1304
X6.4961Y-4.7736
X6.4961Y-4.8917
X6.5157Y-3.0917
X6.5157Y-3.5917
X6.5256Y-3.8386
X6.5356Y-3.8685
X6.5696Y-3.8678
X6.5748Y-3.9075
X6.5748Y-3.939
X6.6128Y-3.9474
X6.6349Y-4.2334
X6.6368Y-4.1291
X6.6693Y-4.1693
X6.6831Y-3.5335
X6.6929Y-4.0748
X6.6929Y-4.7736
X6.6929Y-4.8917
X6.752Y-4.5394
T3
X5.8449Y-3.8969
X5.8449Y-3.9469
X5.8949Y-3.8969
X5.8949Y-3.9469
X5.9449Y-3.8969
X5.9449Y-3.9469
X6.7126Y-3.6909
X6.7126Y-3.7409
X6.7126Y-3.7909
T4
X5.5906Y-4.0157
X5.6102Y-4.9803
X5.6693Y-4.0157
X5.689Y-4.9803
T5
X6.0598Y-4.0157
X6.1598Y-4.0157
X6.2598Y-4.0157
X6.3598Y-4.0157
X6.6323Y-3.1693
X6.7323Y-3.1693
T2
G00X6.5695Y-4.0102
M15
G01X6.6128Y-4.0102
M16
G05
G00X6.5695Y-4.3504
M15
G01X6.6128Y-4.3504
M16
G05
G00X6.7439Y-4.0102
M15
G01X6.7675Y-4.0102
M16
G05
G00X6.7439Y-4.3504
M15
G01X6.7675Y-4.3504
M16
G05
M30
