%TF.GenerationSoftware,KiCad,Pcbnew,10.0.2*%
%TF.CreationDate,2026-06-12T08:40:29-05:00*%
%TF.ProjectId,OM-FlexGrid-Rigid-PCB,4f4d2d46-6c65-4784-9772-69642d526967,rev?*%
%TF.SameCoordinates,Original*%
%TF.FileFunction,Paste,Bot*%
%TF.FilePolarity,Positive*%
%FSLAX46Y46*%
G04 Gerber Fmt 4.6, Leading zero omitted, Abs format (unit mm)*
G04 Created by KiCad (PCBNEW 10.0.2) date 2026-06-12 08:40:29*
%MOMM*%
%LPD*%
G01*
G04 APERTURE LIST*
G04 Aperture macros list*
%AMRoundRect*
0 Rectangle with rounded corners*
0 $1 Rounding radius*
0 $2 $3 $4 $5 $6 $7 $8 $9 X,Y pos of 4 corners*
0 Add a 4 corners polygon primitive as box body*
4,1,4,$2,$3,$4,$5,$6,$7,$8,$9,$2,$3,0*
0 Add four circle primitives for the rounded corners*
1,1,$1+$1,$2,$3*
1,1,$1+$1,$4,$5*
1,1,$1+$1,$6,$7*
1,1,$1+$1,$8,$9*
0 Add four rect primitives between the rounded corners*
20,1,$1+$1,$2,$3,$4,$5,0*
20,1,$1+$1,$4,$5,$6,$7,0*
20,1,$1+$1,$6,$7,$8,$9,0*
20,1,$1+$1,$8,$9,$2,$3,0*%
G04 Aperture macros list end*
%ADD10RoundRect,0.100000X0.100000X-0.637500X0.100000X0.637500X-0.100000X0.637500X-0.100000X-0.637500X0*%
%ADD11RoundRect,0.150000X-0.587500X-0.150000X0.587500X-0.150000X0.587500X0.150000X-0.587500X0.150000X0*%
%ADD12R,1.498600X0.812800*%
%ADD13R,0.812800X1.498600*%
%ADD14R,0.889000X0.889000*%
%ADD15R,0.711200X1.092200*%
%ADD16R,0.889000X0.939800*%
%ADD17R,1.041400X0.787400*%
%ADD18R,1.143000X1.828800*%
%ADD19R,0.711200X3.327400*%
%ADD20R,0.863600X2.794000*%
%ADD21RoundRect,0.200000X-0.275000X0.200000X-0.275000X-0.200000X0.275000X-0.200000X0.275000X0.200000X0*%
%ADD22RoundRect,0.225000X-0.225000X-0.250000X0.225000X-0.250000X0.225000X0.250000X-0.225000X0.250000X0*%
%ADD23RoundRect,0.225000X0.225000X0.375000X-0.225000X0.375000X-0.225000X-0.375000X0.225000X-0.375000X0*%
G04 APERTURE END LIST*
D10*
%TO.C,U1*%
X157910000Y-117502500D03*
X157260000Y-117502500D03*
X156610000Y-117502500D03*
X155960000Y-117502500D03*
X155310000Y-117502500D03*
X154660000Y-117502500D03*
X154010000Y-117502500D03*
X153360000Y-117502500D03*
X152710000Y-117502500D03*
X152060000Y-117502500D03*
X151410000Y-117502500D03*
X150760000Y-117502500D03*
X150760000Y-111777500D03*
X151410000Y-111777500D03*
X152060000Y-111777500D03*
X152710000Y-111777500D03*
X153360000Y-111777500D03*
X154010000Y-111777500D03*
X154660000Y-111777500D03*
X155310000Y-111777500D03*
X155960000Y-111777500D03*
X156610000Y-111777500D03*
X157260000Y-111777500D03*
X157910000Y-111777500D03*
%TD*%
D11*
%TO.C,Q1*%
X142125000Y-108450000D03*
X142125000Y-106550000D03*
X144000000Y-107500000D03*
%TD*%
D12*
%TO.C,U2*%
X165500000Y-78530000D03*
X165500000Y-79800000D03*
X165500000Y-81070000D03*
X165500000Y-82340000D03*
X165500000Y-83610000D03*
X165500000Y-84880000D03*
X165500000Y-86150000D03*
X165500000Y-87420000D03*
X165500000Y-88690000D03*
X165500000Y-89960000D03*
X165500000Y-91230000D03*
X165500000Y-92500000D03*
X165500000Y-93770000D03*
X165500000Y-95040000D03*
D13*
X163735000Y-96290000D03*
X162465000Y-96290000D03*
X161195000Y-96290000D03*
X159925000Y-96290000D03*
X158655000Y-96290000D03*
X157385000Y-96290000D03*
X156115000Y-96290000D03*
X154845000Y-96290000D03*
X153575000Y-96290000D03*
X152305000Y-96290000D03*
X151035000Y-96290000D03*
X149765000Y-96290000D03*
D12*
X148000000Y-95040000D03*
X148000000Y-93770000D03*
X148000000Y-92500000D03*
X148000000Y-91230000D03*
X148000000Y-89960000D03*
X148000000Y-88690000D03*
X148000000Y-87420000D03*
X148000000Y-86150000D03*
X148000000Y-84880000D03*
X148000000Y-83610000D03*
X148000000Y-82340000D03*
X148000000Y-81070000D03*
X148000000Y-79800000D03*
X148000000Y-78530000D03*
D14*
X158250000Y-86250000D03*
X159650000Y-84850000D03*
X159650000Y-86250000D03*
X159650000Y-87650000D03*
X158250000Y-87650000D03*
X156850000Y-87650000D03*
X156850000Y-86250000D03*
X156850000Y-84850000D03*
X158250000Y-84850000D03*
%TD*%
D15*
%TO.C,J9*%
X154170000Y-133949999D03*
X155270000Y-133949999D03*
X156370000Y-133949999D03*
X157470001Y-133949999D03*
X158570001Y-133949999D03*
X159670001Y-133949999D03*
X160770002Y-133949999D03*
X161870000Y-133949999D03*
D16*
X152380000Y-121485000D03*
D17*
X156645000Y-121410000D03*
D18*
X150290000Y-133935000D03*
D19*
X150070000Y-122685000D03*
X163030000Y-122685000D03*
D20*
X162950000Y-133450000D03*
%TD*%
D21*
%TO.C,R10*%
X147500000Y-106000000D03*
X147500000Y-107650000D03*
%TD*%
D22*
%TO.C,C9*%
X142450000Y-104500000D03*
X144000000Y-104500000D03*
%TD*%
D21*
%TO.C,R11*%
X147500000Y-102850000D03*
X147500000Y-104500000D03*
%TD*%
D23*
%TO.C,D4*%
X144750000Y-99000000D03*
X141450000Y-99000000D03*
%TD*%
M02*
