%TF.GenerationSoftware,KiCad,Pcbnew,9.0.7*%
%TF.CreationDate,2026-04-25T21:23:02-05:00*%
%TF.ProjectId,OM-FlexGrid-Flex,4f4d2d46-6c65-4784-9772-69642d466c65,rev?*%
%TF.SameCoordinates,Original*%
%TF.FileFunction,Profile,NP*%
%FSLAX46Y46*%
G04 Gerber Fmt 4.6, Leading zero omitted, Abs format (unit mm)*
G04 Created by KiCad (PCBNEW 9.0.7) date 2026-04-25 21:23:02*
%MOMM*%
%LPD*%
G01*
G04 APERTURE LIST*
%TA.AperFunction,Profile*%
%ADD10C,0.000000*%
%TD*%
G04 APERTURE END LIST*
D10*
%TA.AperFunction,Profile*%
G36*
X252383249Y-47831720D02*
G01*
X252622079Y-47847964D01*
X252859189Y-47875551D01*
X253094181Y-47914324D01*
X253326657Y-47964125D01*
X253556219Y-48024797D01*
X253782468Y-48096182D01*
X254005005Y-48178123D01*
X254223432Y-48270463D01*
X254437352Y-48373043D01*
X254646364Y-48485707D01*
X254850072Y-48608298D01*
X255048076Y-48740657D01*
X255239978Y-48882626D01*
X255425380Y-49034050D01*
X255603883Y-49194770D01*
X255775089Y-49364629D01*
X255938600Y-49543469D01*
X256094016Y-49731133D01*
X256240941Y-49927463D01*
X256378974Y-50132302D01*
X256507719Y-50345493D01*
X256626776Y-50566878D01*
X256735746Y-50796300D01*
X277055296Y-96484971D01*
X277151467Y-96716701D01*
X277235547Y-96951903D01*
X277307527Y-97190116D01*
X277367397Y-97430883D01*
X277415147Y-97673743D01*
X277450767Y-97918239D01*
X277474248Y-98163912D01*
X277485579Y-98410303D01*
X277484750Y-98656952D01*
X277471753Y-98903402D01*
X277446576Y-99149193D01*
X277409210Y-99393867D01*
X277359646Y-99636965D01*
X277297873Y-99878027D01*
X277223882Y-100116596D01*
X277137663Y-100352212D01*
X277039739Y-100583211D01*
X276930866Y-100808016D01*
X276811365Y-101026299D01*
X276681556Y-101237730D01*
X276541759Y-101441983D01*
X276392295Y-101638727D01*
X276233485Y-101827635D01*
X276065649Y-102008379D01*
X275889108Y-102180628D01*
X275704181Y-102344056D01*
X275511191Y-102498334D01*
X275310456Y-102643132D01*
X275102299Y-102778124D01*
X274887038Y-102902979D01*
X274664995Y-103017370D01*
X274436491Y-103120968D01*
X270668302Y-104705597D01*
X266895994Y-106269757D01*
X263119505Y-107813405D01*
X259338835Y-109336491D01*
X255553938Y-110838917D01*
X251764784Y-112320592D01*
X247971296Y-113781376D01*
X244173414Y-115221116D01*
X240371092Y-116639649D01*
X236564222Y-118036770D01*
X232752729Y-119412274D01*
X228936506Y-120765935D01*
X225115492Y-122097504D01*
X221289564Y-123406727D01*
X217458631Y-124693326D01*
X213622557Y-125957024D01*
X209781279Y-127197526D01*
X207858625Y-127808987D01*
X205934599Y-128414534D01*
X204009245Y-129014134D01*
X202082518Y-129607747D01*
X200154387Y-130195334D01*
X198224836Y-130776860D01*
X196293882Y-131352282D01*
X194361479Y-131921567D01*
X192427641Y-132484675D01*
X190492338Y-133041569D01*
X188555571Y-133592215D01*
X186617277Y-134136578D01*
X184677534Y-134674611D01*
X182736250Y-135206299D01*
X180793455Y-135731598D01*
X178849119Y-136250474D01*
X176903227Y-136762902D01*
X174955809Y-137268845D01*
X173006804Y-137768283D01*
X171056211Y-138261183D01*
X169104063Y-138747525D01*
X167150297Y-139227280D01*
X165194944Y-139700430D01*
X163237974Y-140166964D01*
X161279402Y-140626849D01*
X159319212Y-141080083D01*
X157357390Y-141526646D01*
X155393950Y-141966538D01*
X153428877Y-142399745D01*
X151462187Y-142826271D01*
X149493849Y-143246107D01*
X147523893Y-143659262D01*
X145552320Y-144065747D01*
X143579107Y-144465561D01*
X141604284Y-144858722D01*
X139627844Y-145245246D01*
X137649794Y-145625152D01*
X135670141Y-145998454D01*
X133688894Y-146365180D01*
X131706060Y-146725354D01*
X129721647Y-147078995D01*
X127735670Y-147426142D01*
X125748121Y-147766819D01*
X123759039Y-148101058D01*
X121768415Y-148428893D01*
X119776266Y-148750357D01*
X117782599Y-149065485D01*
X115787428Y-149374313D01*
X113790777Y-149676876D01*
X111792639Y-149973216D01*
X109793051Y-150263372D01*
X107792006Y-150547376D01*
X105789526Y-150825277D01*
X103785612Y-151097107D01*
X101780317Y-151362915D01*
X99773611Y-151622730D01*
X97765539Y-151876602D01*
X95756094Y-152124572D01*
X91733175Y-152602954D01*
X87704977Y-153058195D01*
X83671606Y-153490620D01*
X79633185Y-153900533D01*
X75589819Y-154288240D01*
X71541620Y-154654021D01*
X67488684Y-154998155D01*
X63431120Y-155320902D01*
X59369017Y-155622501D01*
X55302454Y-155903182D01*
X51231523Y-156163144D01*
X47156292Y-156402573D01*
X43076826Y-156621628D01*
X38993174Y-156820450D01*
X34905401Y-156999149D01*
X30813528Y-157157817D01*
X26717592Y-157296519D01*
X22617603Y-157415294D01*
X22363923Y-157415593D01*
X22111705Y-157403115D01*
X21861391Y-157378034D01*
X21613421Y-157340524D01*
X21368237Y-157290757D01*
X21126280Y-157228908D01*
X20887991Y-157155151D01*
X20653812Y-157069658D01*
X20424182Y-156972604D01*
X20199544Y-156864161D01*
X19980339Y-156744505D01*
X19767008Y-156613808D01*
X19559991Y-156472243D01*
X19359731Y-156319985D01*
X19166668Y-156157207D01*
X18981243Y-155984082D01*
X18804828Y-155801785D01*
X18638621Y-155611666D01*
X18482804Y-155414163D01*
X18337558Y-155209713D01*
X18203065Y-154998755D01*
X18079505Y-154781727D01*
X17967061Y-154559066D01*
X17865914Y-154331211D01*
X17776245Y-154098599D01*
X17698236Y-153861669D01*
X17632068Y-153620857D01*
X17577922Y-153376604D01*
X17535981Y-153129345D01*
X17506425Y-152879519D01*
X17489436Y-152627565D01*
X17485195Y-152373919D01*
X17650000Y-133270846D01*
X17650000Y-65905209D01*
X28749996Y-65905209D01*
X28749996Y-93175992D01*
X28755152Y-93379119D01*
X28770518Y-93580800D01*
X28795947Y-93780684D01*
X28831290Y-93978423D01*
X28876398Y-94173664D01*
X28931121Y-94366058D01*
X28995311Y-94555254D01*
X29068819Y-94740903D01*
X29151496Y-94922654D01*
X29243194Y-95100157D01*
X29343763Y-95273061D01*
X29453054Y-95441017D01*
X29570919Y-95603674D01*
X29697209Y-95760681D01*
X29831774Y-95911689D01*
X29974466Y-96056347D01*
X30124313Y-96193581D01*
X30280204Y-96322459D01*
X30441783Y-96442844D01*
X30608695Y-96554600D01*
X30780585Y-96657594D01*
X30957096Y-96751687D01*
X31137875Y-96836745D01*
X31322564Y-96912631D01*
X31510808Y-96979210D01*
X31702253Y-97036346D01*
X31896542Y-97083902D01*
X32093320Y-97121745D01*
X32292232Y-97149736D01*
X32492921Y-97167741D01*
X32695034Y-97175624D01*
X32898212Y-97173249D01*
X36345135Y-97036694D01*
X39790636Y-96882684D01*
X43234707Y-96711159D01*
X46677338Y-96522046D01*
X50118536Y-96315259D01*
X53558279Y-96090684D01*
X56996561Y-95848198D01*
X60433371Y-95587655D01*
X63868696Y-95308888D01*
X67302523Y-95011727D01*
X70734831Y-94695981D01*
X74165609Y-94361443D01*
X77594835Y-94007908D01*
X81022497Y-93635144D01*
X84448568Y-93242924D01*
X87873037Y-92831006D01*
X91295881Y-92399128D01*
X94717070Y-91947064D01*
X98136603Y-91474553D01*
X101554441Y-90981343D01*
X104970564Y-90467198D01*
X108384970Y-89931859D01*
X111797621Y-89375096D01*
X115208517Y-88796689D01*
X118617628Y-88196438D01*
X122024946Y-87574147D01*
X125430433Y-86929631D01*
X128834120Y-86262753D01*
X132235960Y-85573407D01*
X135635961Y-84861477D01*
X139034124Y-84126935D01*
X142430433Y-83369740D01*
X145824904Y-82589924D01*
X149217527Y-81787549D01*
X152608320Y-80962720D01*
X155997297Y-80115559D01*
X159384459Y-79246228D01*
X162769850Y-78354909D01*
X166153440Y-77441800D01*
X169535277Y-76507130D01*
X172915388Y-75551114D01*
X176293760Y-74574017D01*
X179670439Y-73576062D01*
X183045454Y-72557515D01*
X186418791Y-71518651D01*
X189790495Y-70459713D01*
X193160582Y-69380948D01*
X196529081Y-68282643D01*
X199895994Y-67165036D01*
X203261381Y-66028355D01*
X206625197Y-64872861D01*
X209987517Y-63698750D01*
X213348341Y-62506268D01*
X216707670Y-61295598D01*
X220065550Y-60066930D01*
X223421934Y-58820431D01*
X226776930Y-57556271D01*
X230130461Y-56274563D01*
X233482603Y-54975476D01*
X236833311Y-53659077D01*
X240182615Y-52325467D01*
X243530516Y-50974713D01*
X246877027Y-49606869D01*
X250222151Y-48221951D01*
X250458526Y-48129021D01*
X250696767Y-48048850D01*
X250936477Y-47981283D01*
X251177256Y-47926161D01*
X251418706Y-47883326D01*
X251660429Y-47852623D01*
X251902026Y-47833892D01*
X252143099Y-47826977D01*
X252383249Y-47831720D01*
G37*
%TD.AperFunction*%
M02*
