%TF.GenerationSoftware,KiCad,Pcbnew,9.0.7*%
%TF.CreationDate,2026-04-29T22:29:37-05:00*%
%TF.ProjectId,OM-FlexGrid-Flex,4f4d2d46-6c65-4784-9772-69642d466c65,rev?*%
%TF.SameCoordinates,Original*%
%TF.FileFunction,Profile,NP*%
%FSLAX46Y46*%
G04 Gerber Fmt 4.6, Leading zero omitted, Abs format (unit mm)*
G04 Created by KiCad (PCBNEW 9.0.7) date 2026-04-29 22:29:37*
%MOMM*%
%LPD*%
G01*
G04 APERTURE LIST*
%TA.AperFunction,Profile*%
%ADD10C,0.000000*%
%TD*%
G04 APERTURE END LIST*
D10*
X252380364Y-47795084D02*
X252619112Y-47811340D01*
X252856148Y-47838931D01*
X253091074Y-47877701D01*
X253323491Y-47927494D01*
X253553001Y-47988152D01*
X253779204Y-48059521D01*
X254001703Y-48141443D01*
X254220099Y-48233763D01*
X254433993Y-48336323D01*
X254642987Y-48448969D01*
X254846682Y-48571542D01*
X255044680Y-48703888D01*
X255236582Y-48845849D01*
X255421990Y-48997270D01*
X255600504Y-49157993D01*
X255771727Y-49327864D01*
X255935260Y-49506724D01*
X256090705Y-49694419D01*
X256237662Y-49890792D01*
X256375733Y-50095686D01*
X256504520Y-50308945D01*
X256623625Y-50530413D01*
X256732648Y-50759934D01*
X277052634Y-96448182D01*
X277061110Y-96467309D01*
X277070256Y-96487428D01*
X277074872Y-96497756D01*
X277079405Y-96508208D01*
X277083773Y-96518742D01*
X277087892Y-96529318D01*
X277182479Y-96768853D01*
X277263941Y-97010269D01*
X277332446Y-97253157D01*
X277388163Y-97497102D01*
X277431257Y-97741693D01*
X277461897Y-97986518D01*
X277480249Y-98231165D01*
X277486481Y-98475221D01*
X277480760Y-98718274D01*
X277463253Y-98959913D01*
X277434129Y-99199726D01*
X277393554Y-99437299D01*
X277341694Y-99672221D01*
X277278719Y-99904080D01*
X277204795Y-100132464D01*
X277120089Y-100356960D01*
X277024768Y-100577157D01*
X276919000Y-100792642D01*
X276802953Y-101003004D01*
X276676793Y-101207829D01*
X276540688Y-101406707D01*
X276394805Y-101599225D01*
X276239312Y-101784970D01*
X276074375Y-101963531D01*
X275900162Y-102134496D01*
X275716841Y-102297452D01*
X275524578Y-102451987D01*
X275323541Y-102597690D01*
X275113898Y-102734147D01*
X274895815Y-102860947D01*
X274669460Y-102977679D01*
X274434999Y-103083929D01*
X270667340Y-104667903D01*
X266896140Y-106230708D01*
X263121421Y-107775874D01*
X259339642Y-109299881D01*
X255554343Y-110802709D01*
X251765525Y-112284373D01*
X247973167Y-113744874D01*
X244173728Y-115184210D01*
X240370790Y-116602374D01*
X236564313Y-117999375D01*
X232754315Y-119375209D01*
X228937258Y-120729874D01*
X225116681Y-122059845D01*
X221289044Y-123368650D01*
X217457888Y-124656289D01*
X213623191Y-125919233D01*
X209781435Y-127161011D01*
X207858787Y-127771317D01*
X205936159Y-128378095D01*
X204009971Y-128977817D01*
X202083803Y-129570483D01*
X200154116Y-130159623D01*
X198224428Y-130741705D01*
X196294741Y-131316732D01*
X194361513Y-131884705D01*
X192428286Y-132449148D01*
X190491538Y-133006539D01*
X188554791Y-133556870D01*
X186618054Y-134100149D01*
X184677767Y-134639898D01*
X182737490Y-135172593D01*
X180793683Y-135698232D01*
X178849876Y-136216815D01*
X176902549Y-136728343D01*
X174955213Y-137232815D01*
X173007886Y-137733759D01*
X171057029Y-138227649D01*
X169106163Y-138714482D01*
X167151776Y-139194260D01*
X165197380Y-139666982D01*
X163239473Y-140132649D01*
X161281557Y-140591259D01*
X159320111Y-141042815D01*
X157358675Y-141490843D01*
X155393699Y-141931815D01*
X153428723Y-142365732D01*
X151463747Y-142792593D01*
X149495252Y-143212398D01*
X147526756Y-143625147D01*
X145554730Y-144030841D01*
X143582705Y-144429481D01*
X141607149Y-144821064D01*
X139631594Y-145209119D01*
X137652509Y-145590120D01*
X135673434Y-145964065D01*
X133690829Y-146330955D01*
X131708213Y-146690787D01*
X129722079Y-147043566D01*
X127735934Y-147389287D01*
X125749789Y-147731481D01*
X123760124Y-148066621D01*
X121770449Y-148394704D01*
X119777255Y-148715732D01*
X117784070Y-149029704D01*
X115787346Y-149340148D01*
X113790621Y-149643537D01*
X111793897Y-149939870D01*
X109793642Y-150229148D01*
X107793388Y-150514898D01*
X105789614Y-150793593D01*
X103785840Y-151065232D01*
X101782061Y-151329815D01*
X99774752Y-151590870D01*
X97767448Y-151844871D01*
X95756615Y-152091815D01*
X91734952Y-152571592D01*
X87706230Y-153026675D01*
X83673983Y-153460593D01*
X79634681Y-153869814D01*
X75591845Y-154257870D01*
X71541954Y-154624759D01*
X67488538Y-154970481D01*
X63431592Y-155291509D01*
X59371124Y-155591370D01*
X55303596Y-155873592D01*
X51232541Y-156134648D01*
X47157956Y-156374537D01*
X43079847Y-156593259D01*
X38994682Y-156790814D01*
X34905987Y-156970731D01*
X30813765Y-157129481D01*
X26718016Y-157267064D01*
X22618738Y-157387009D01*
X22442350Y-157387009D01*
X22185032Y-157378204D01*
X21931210Y-157356632D01*
X21681193Y-157322608D01*
X21435293Y-157276449D01*
X21193822Y-157218472D01*
X20957092Y-157148992D01*
X20725412Y-157068328D01*
X20499095Y-156976795D01*
X20278453Y-156874709D01*
X20063795Y-156762387D01*
X19855435Y-156640147D01*
X19653683Y-156508303D01*
X19458850Y-156367173D01*
X19271248Y-156217074D01*
X19091188Y-156058321D01*
X18918982Y-155891231D01*
X18754940Y-155716122D01*
X18599375Y-155533308D01*
X18452597Y-155343108D01*
X18314919Y-155145837D01*
X18186650Y-154941811D01*
X18068103Y-154731349D01*
X17959589Y-154514765D01*
X17861420Y-154292376D01*
X17773906Y-154064500D01*
X17697360Y-153831452D01*
X17632091Y-153593549D01*
X17578412Y-153351107D01*
X17536635Y-153104444D01*
X17507070Y-152853875D01*
X17490028Y-152599717D01*
X17485822Y-152342287D01*
X17651628Y-133239373D01*
X17651628Y-65876450D01*
X28750000Y-65876450D01*
X28750000Y-93146165D01*
X28750000Y-93294332D01*
X28762762Y-93499903D01*
X28785661Y-93702380D01*
X28818437Y-93901522D01*
X28860828Y-94097089D01*
X28912576Y-94288840D01*
X28973420Y-94476533D01*
X29043099Y-94659928D01*
X29121353Y-94838784D01*
X29207922Y-95012860D01*
X29302545Y-95181915D01*
X29404963Y-95345708D01*
X29514914Y-95503998D01*
X29632139Y-95656544D01*
X29756376Y-95803105D01*
X29887367Y-95943440D01*
X30024850Y-96077309D01*
X30168565Y-96204470D01*
X30318252Y-96324683D01*
X30473651Y-96437706D01*
X30634501Y-96543299D01*
X30800542Y-96641220D01*
X30971513Y-96731229D01*
X31147155Y-96813085D01*
X31327206Y-96886547D01*
X31511408Y-96951374D01*
X31699498Y-97007324D01*
X31891218Y-97054158D01*
X32086306Y-97091633D01*
X32284502Y-97119510D01*
X32485547Y-97137547D01*
X32689179Y-97145504D01*
X32895139Y-97143138D01*
X36341778Y-97005555D01*
X39788416Y-96850332D01*
X43231527Y-96677470D01*
X46674639Y-96486975D01*
X50114222Y-96278834D01*
X53553805Y-96053055D01*
X56993388Y-95809637D01*
X60429446Y-95548584D01*
X63865496Y-95269888D01*
X67298022Y-94973557D01*
X70730552Y-94656062D01*
X74163078Y-94320923D01*
X77592079Y-93968145D01*
X81021075Y-93594203D01*
X84446551Y-93202617D01*
X87872027Y-92789867D01*
X91293968Y-92359477D01*
X94715914Y-91907924D01*
X98134330Y-91435202D01*
X101552747Y-90941315D01*
X104967633Y-90426260D01*
X108382520Y-89890035D01*
X111793886Y-89332647D01*
X115205253Y-88754090D01*
X118613080Y-88154368D01*
X122020917Y-87533483D01*
X125425224Y-86887899D01*
X128829521Y-86221146D01*
X132230308Y-85533234D01*
X135631096Y-84820618D01*
X139028343Y-84086843D01*
X142425590Y-83328370D01*
X145819318Y-82548732D01*
X149213035Y-81747925D01*
X152603223Y-80922425D01*
X155993410Y-80075760D01*
X159380078Y-79207922D01*
X162766746Y-78315395D01*
X166149884Y-77401704D01*
X169533022Y-76466843D01*
X172912630Y-75510814D01*
X176292238Y-74533621D01*
X179668327Y-73535258D01*
X183044405Y-72515732D01*
X186416964Y-71478562D01*
X189789512Y-70420233D01*
X193158551Y-69340734D01*
X196527570Y-68243587D01*
X199893068Y-67125291D01*
X203258567Y-65989345D01*
X206624046Y-64832230D01*
X209986025Y-63657487D01*
X213348024Y-62465094D01*
X216706464Y-61255072D01*
X220064923Y-60027400D01*
X223419842Y-58782090D01*
X226774762Y-57519150D01*
X230129681Y-56238572D01*
X233481061Y-54940354D01*
X236832460Y-53624487D01*
X240180320Y-52290991D01*
X243528180Y-50939855D01*
X246876019Y-49571071D01*
X250220359Y-48184657D01*
X250456579Y-48091862D01*
X250694674Y-48011809D01*
X250934245Y-47944342D01*
X251174895Y-47889304D01*
X251416224Y-47846539D01*
X251657834Y-47815891D01*
X251899326Y-47797203D01*
X252140302Y-47790319D01*
X252380364Y-47795084D01*
M02*
