M48
; DRILL file {KiCad 9.0.7} date 2026-04-25T21:22:58-0500
; FORMAT={-:-/ absolute / metric / decimal}
; #@! TF.CreationDate,2026-04-25T21:22:58-05:00
; #@! TF.GenerationSoftware,Kicad,Pcbnew,9.0.7
; #@! TF.FileFunction,Plated,1,2,PTH
FMAT,2
METRIC
; #@! TA.AperFunction,Plated,PTH,ViaDrill
T1C0.300
%
G90
G05
T1
X18.6Y-132.5
X23.05Y-135.55
X24.2Y-114.9
X26.45Y-127.35
X26.85Y-115.5
X27.475Y-138.975
X27.95Y-74.25
X28.0Y-128.25
X29.6Y-115.85
X30.5Y-129.15
X32.3Y-116.1
X32.45Y-130.05
X33.6Y-104.2
X34.3Y-118.1
X34.9Y-132.25
X35.35Y-145.9
X39.6Y-109.4
X40.3Y-123.3
X40.9Y-137.45
X41.35Y-151.1
X49.2Y-103.0
X50.1Y-117.1
X51.096Y-131.293
X52.15Y-145.0
X55.2Y-108.2
X56.1Y-122.3
X57.096Y-136.493
X58.15Y-150.2
X64.5Y-102.05
X65.95Y-115.9
X67.15Y-129.95
X68.4Y-143.8
X70.5Y-107.25
X71.95Y-121.1
X73.15Y-135.15
X74.4Y-149.0
X80.05Y-100.55
X81.6Y-114.25
X83.2Y-128.25
X84.846Y-142.243
X86.05Y-105.75
X87.6Y-119.45
X89.2Y-133.45
X90.846Y-147.443
X95.3Y-98.25
X97.4Y-112.3
X99.2Y-126.0
X101.3Y-103.45
X101.3Y-139.95
X103.4Y-117.5
X105.2Y-131.2
X107.3Y-145.15
X110.75Y-95.95
X113.05Y-109.7
X115.35Y-123.35
X116.75Y-101.15
X117.75Y-137.2
X119.05Y-114.9
X121.35Y-128.55
X123.75Y-142.4
X125.85Y-92.95
X128.6Y-106.75
X131.35Y-120.6
X131.85Y-98.15
X134.0Y-134.35
X134.6Y-111.95
X137.35Y-125.8
X140.0Y-139.55
X140.9Y-89.95
X143.95Y-103.6
X146.9Y-95.15
X147.05Y-117.2
X149.95Y-108.8
X150.196Y-130.843
X153.05Y-122.4
X155.9Y-86.4
X156.196Y-136.043
X159.346Y-99.943
X161.9Y-91.6
X162.846Y-113.393
X165.346Y-105.143
X166.3Y-126.95
X168.846Y-118.593
X170.85Y-82.3
X172.3Y-132.15
X174.4Y-95.95
X176.85Y-87.5
X178.45Y-109.2
X180.4Y-101.15
X182.25Y-122.85
X184.45Y-114.4
X185.55Y-78.0
X188.25Y-128.05
X189.9Y-91.45
X191.55Y-83.2
X193.896Y-104.793
X195.9Y-96.65
X198.096Y-118.243
X199.896Y-109.993
X200.546Y-73.143
X204.096Y-123.443
X204.796Y-86.793
X206.546Y-78.343
X209.496Y-99.893
X210.796Y-91.993
X213.846Y-113.193
X215.196Y-68.193
X215.496Y-105.093
X219.846Y-118.393
X219.95Y-81.05
X221.196Y-73.393
X224.796Y-94.443
X225.95Y-86.25
X229.546Y-107.693
X229.55Y-62.65
X230.796Y-99.643
X234.85Y-75.65
X235.546Y-112.893
X235.55Y-67.85
X239.95Y-88.7
X240.85Y-80.85
X243.95Y-56.6
X245.0Y-101.8
X245.95Y-93.9
X249.446Y-69.793
X249.95Y-61.8
X251.0Y-107.0
X254.95Y-82.55
X255.446Y-74.993
X260.3Y-95.4
X260.95Y-87.75
X266.3Y-100.6
M30
