%TF.GenerationSoftware,KiCad,Pcbnew,9.0.7*%
%TF.CreationDate,2026-04-29T22:29:36-05:00*%
%TF.ProjectId,OM-FlexGrid-Flex,4f4d2d46-6c65-4784-9772-69642d466c65,rev?*%
%TF.SameCoordinates,Original*%
%TF.FileFunction,Legend,Top*%
%TF.FilePolarity,Positive*%
%FSLAX46Y46*%
G04 Gerber Fmt 4.6, Leading zero omitted, Abs format (unit mm)*
G04 Created by KiCad (PCBNEW 9.0.7) date 2026-04-29 22:29:36*
%MOMM*%
%LPD*%
G01*
G04 APERTURE LIST*
%ADD10C,0.100000*%
G04 APERTURE END LIST*
D10*
X89155394Y-149785668D02*
X89155394Y-149071383D01*
X89155394Y-149071383D02*
X89203013Y-148928526D01*
X89203013Y-148928526D02*
X89298251Y-148833288D01*
X89298251Y-148833288D02*
X89441108Y-148785668D01*
X89441108Y-148785668D02*
X89536346Y-148785668D01*
X88679203Y-148785668D02*
X88679203Y-149785668D01*
X88679203Y-149785668D02*
X88298251Y-149785668D01*
X88298251Y-149785668D02*
X88203013Y-149738049D01*
X88203013Y-149738049D02*
X88155394Y-149690430D01*
X88155394Y-149690430D02*
X88107775Y-149595192D01*
X88107775Y-149595192D02*
X88107775Y-149452335D01*
X88107775Y-149452335D02*
X88155394Y-149357097D01*
X88155394Y-149357097D02*
X88203013Y-149309478D01*
X88203013Y-149309478D02*
X88298251Y-149261859D01*
X88298251Y-149261859D02*
X88679203Y-149261859D01*
X87155394Y-148785668D02*
X87726822Y-148785668D01*
X87441108Y-148785668D02*
X87441108Y-149785668D01*
X87441108Y-149785668D02*
X87536346Y-149642811D01*
X87536346Y-149642811D02*
X87631584Y-149547573D01*
X87631584Y-149547573D02*
X87726822Y-149499954D01*
X86774441Y-149690430D02*
X86726822Y-149738049D01*
X86726822Y-149738049D02*
X86631584Y-149785668D01*
X86631584Y-149785668D02*
X86393489Y-149785668D01*
X86393489Y-149785668D02*
X86298251Y-149738049D01*
X86298251Y-149738049D02*
X86250632Y-149690430D01*
X86250632Y-149690430D02*
X86203013Y-149595192D01*
X86203013Y-149595192D02*
X86203013Y-149499954D01*
X86203013Y-149499954D02*
X86250632Y-149357097D01*
X86250632Y-149357097D02*
X86822060Y-148785668D01*
X86822060Y-148785668D02*
X86203013Y-148785668D01*
X145209523Y-97492580D02*
X145209523Y-96778295D01*
X145209523Y-96778295D02*
X145257142Y-96635438D01*
X145257142Y-96635438D02*
X145352380Y-96540200D01*
X145352380Y-96540200D02*
X145495237Y-96492580D01*
X145495237Y-96492580D02*
X145590475Y-96492580D01*
X144733332Y-96492580D02*
X144733332Y-97492580D01*
X144733332Y-97492580D02*
X144352380Y-97492580D01*
X144352380Y-97492580D02*
X144257142Y-97444961D01*
X144257142Y-97444961D02*
X144209523Y-97397342D01*
X144209523Y-97397342D02*
X144161904Y-97302104D01*
X144161904Y-97302104D02*
X144161904Y-97159247D01*
X144161904Y-97159247D02*
X144209523Y-97064009D01*
X144209523Y-97064009D02*
X144257142Y-97016390D01*
X144257142Y-97016390D02*
X144352380Y-96968771D01*
X144352380Y-96968771D02*
X144733332Y-96968771D01*
X143257142Y-97492580D02*
X143733332Y-97492580D01*
X143733332Y-97492580D02*
X143780951Y-97016390D01*
X143780951Y-97016390D02*
X143733332Y-97064009D01*
X143733332Y-97064009D02*
X143638094Y-97111628D01*
X143638094Y-97111628D02*
X143399999Y-97111628D01*
X143399999Y-97111628D02*
X143304761Y-97064009D01*
X143304761Y-97064009D02*
X143257142Y-97016390D01*
X143257142Y-97016390D02*
X143209523Y-96921152D01*
X143209523Y-96921152D02*
X143209523Y-96683057D01*
X143209523Y-96683057D02*
X143257142Y-96587819D01*
X143257142Y-96587819D02*
X143304761Y-96540200D01*
X143304761Y-96540200D02*
X143399999Y-96492580D01*
X143399999Y-96492580D02*
X143638094Y-96492580D01*
X143638094Y-96492580D02*
X143733332Y-96540200D01*
X143733332Y-96540200D02*
X143780951Y-96587819D01*
X142876189Y-97492580D02*
X142257142Y-97492580D01*
X142257142Y-97492580D02*
X142590475Y-97111628D01*
X142590475Y-97111628D02*
X142447618Y-97111628D01*
X142447618Y-97111628D02*
X142352380Y-97064009D01*
X142352380Y-97064009D02*
X142304761Y-97016390D01*
X142304761Y-97016390D02*
X142257142Y-96921152D01*
X142257142Y-96921152D02*
X142257142Y-96683057D01*
X142257142Y-96683057D02*
X142304761Y-96587819D01*
X142304761Y-96587819D02*
X142352380Y-96540200D01*
X142352380Y-96540200D02*
X142447618Y-96492580D01*
X142447618Y-96492580D02*
X142733332Y-96492580D01*
X142733332Y-96492580D02*
X142828570Y-96540200D01*
X142828570Y-96540200D02*
X142876189Y-96587819D01*
X99609523Y-105792580D02*
X99609523Y-105078295D01*
X99609523Y-105078295D02*
X99657142Y-104935438D01*
X99657142Y-104935438D02*
X99752380Y-104840200D01*
X99752380Y-104840200D02*
X99895237Y-104792580D01*
X99895237Y-104792580D02*
X99990475Y-104792580D01*
X99133332Y-104792580D02*
X99133332Y-105792580D01*
X99133332Y-105792580D02*
X98752380Y-105792580D01*
X98752380Y-105792580D02*
X98657142Y-105744961D01*
X98657142Y-105744961D02*
X98609523Y-105697342D01*
X98609523Y-105697342D02*
X98561904Y-105602104D01*
X98561904Y-105602104D02*
X98561904Y-105459247D01*
X98561904Y-105459247D02*
X98609523Y-105364009D01*
X98609523Y-105364009D02*
X98657142Y-105316390D01*
X98657142Y-105316390D02*
X98752380Y-105268771D01*
X98752380Y-105268771D02*
X99133332Y-105268771D01*
X97657142Y-105792580D02*
X98133332Y-105792580D01*
X98133332Y-105792580D02*
X98180951Y-105316390D01*
X98180951Y-105316390D02*
X98133332Y-105364009D01*
X98133332Y-105364009D02*
X98038094Y-105411628D01*
X98038094Y-105411628D02*
X97799999Y-105411628D01*
X97799999Y-105411628D02*
X97704761Y-105364009D01*
X97704761Y-105364009D02*
X97657142Y-105316390D01*
X97657142Y-105316390D02*
X97609523Y-105221152D01*
X97609523Y-105221152D02*
X97609523Y-104983057D01*
X97609523Y-104983057D02*
X97657142Y-104887819D01*
X97657142Y-104887819D02*
X97704761Y-104840200D01*
X97704761Y-104840200D02*
X97799999Y-104792580D01*
X97799999Y-104792580D02*
X98038094Y-104792580D01*
X98038094Y-104792580D02*
X98133332Y-104840200D01*
X98133332Y-104840200D02*
X98180951Y-104887819D01*
X96752380Y-105792580D02*
X96942856Y-105792580D01*
X96942856Y-105792580D02*
X97038094Y-105744961D01*
X97038094Y-105744961D02*
X97085713Y-105697342D01*
X97085713Y-105697342D02*
X97180951Y-105554485D01*
X97180951Y-105554485D02*
X97228570Y-105364009D01*
X97228570Y-105364009D02*
X97228570Y-104983057D01*
X97228570Y-104983057D02*
X97180951Y-104887819D01*
X97180951Y-104887819D02*
X97133332Y-104840200D01*
X97133332Y-104840200D02*
X97038094Y-104792580D01*
X97038094Y-104792580D02*
X96847618Y-104792580D01*
X96847618Y-104792580D02*
X96752380Y-104840200D01*
X96752380Y-104840200D02*
X96704761Y-104887819D01*
X96704761Y-104887819D02*
X96657142Y-104983057D01*
X96657142Y-104983057D02*
X96657142Y-105221152D01*
X96657142Y-105221152D02*
X96704761Y-105316390D01*
X96704761Y-105316390D02*
X96752380Y-105364009D01*
X96752380Y-105364009D02*
X96847618Y-105411628D01*
X96847618Y-105411628D02*
X97038094Y-105411628D01*
X97038094Y-105411628D02*
X97133332Y-105364009D01*
X97133332Y-105364009D02*
X97180951Y-105316390D01*
X97180951Y-105316390D02*
X97228570Y-105221152D01*
X248259523Y-64142580D02*
X248259523Y-63428295D01*
X248259523Y-63428295D02*
X248307142Y-63285438D01*
X248307142Y-63285438D02*
X248402380Y-63190200D01*
X248402380Y-63190200D02*
X248545237Y-63142580D01*
X248545237Y-63142580D02*
X248640475Y-63142580D01*
X247783332Y-63142580D02*
X247783332Y-64142580D01*
X247783332Y-64142580D02*
X247402380Y-64142580D01*
X247402380Y-64142580D02*
X247307142Y-64094961D01*
X247307142Y-64094961D02*
X247259523Y-64047342D01*
X247259523Y-64047342D02*
X247211904Y-63952104D01*
X247211904Y-63952104D02*
X247211904Y-63809247D01*
X247211904Y-63809247D02*
X247259523Y-63714009D01*
X247259523Y-63714009D02*
X247307142Y-63666390D01*
X247307142Y-63666390D02*
X247402380Y-63618771D01*
X247402380Y-63618771D02*
X247783332Y-63618771D01*
X246354761Y-63809247D02*
X246354761Y-63142580D01*
X246592856Y-64190200D02*
X246830951Y-63475914D01*
X246830951Y-63475914D02*
X246211904Y-63475914D01*
X245402380Y-64142580D02*
X245592856Y-64142580D01*
X245592856Y-64142580D02*
X245688094Y-64094961D01*
X245688094Y-64094961D02*
X245735713Y-64047342D01*
X245735713Y-64047342D02*
X245830951Y-63904485D01*
X245830951Y-63904485D02*
X245878570Y-63714009D01*
X245878570Y-63714009D02*
X245878570Y-63333057D01*
X245878570Y-63333057D02*
X245830951Y-63237819D01*
X245830951Y-63237819D02*
X245783332Y-63190200D01*
X245783332Y-63190200D02*
X245688094Y-63142580D01*
X245688094Y-63142580D02*
X245497618Y-63142580D01*
X245497618Y-63142580D02*
X245402380Y-63190200D01*
X245402380Y-63190200D02*
X245354761Y-63237819D01*
X245354761Y-63237819D02*
X245307142Y-63333057D01*
X245307142Y-63333057D02*
X245307142Y-63571152D01*
X245307142Y-63571152D02*
X245354761Y-63666390D01*
X245354761Y-63666390D02*
X245402380Y-63714009D01*
X245402380Y-63714009D02*
X245497618Y-63761628D01*
X245497618Y-63761628D02*
X245688094Y-63761628D01*
X245688094Y-63761628D02*
X245783332Y-63714009D01*
X245783332Y-63714009D02*
X245830951Y-63666390D01*
X245830951Y-63666390D02*
X245878570Y-63571152D01*
X163655394Y-107485668D02*
X163655394Y-106771383D01*
X163655394Y-106771383D02*
X163703013Y-106628526D01*
X163703013Y-106628526D02*
X163798251Y-106533288D01*
X163798251Y-106533288D02*
X163941108Y-106485668D01*
X163941108Y-106485668D02*
X164036346Y-106485668D01*
X163179203Y-106485668D02*
X163179203Y-107485668D01*
X163179203Y-107485668D02*
X162798251Y-107485668D01*
X162798251Y-107485668D02*
X162703013Y-107438049D01*
X162703013Y-107438049D02*
X162655394Y-107390430D01*
X162655394Y-107390430D02*
X162607775Y-107295192D01*
X162607775Y-107295192D02*
X162607775Y-107152335D01*
X162607775Y-107152335D02*
X162655394Y-107057097D01*
X162655394Y-107057097D02*
X162703013Y-107009478D01*
X162703013Y-107009478D02*
X162798251Y-106961859D01*
X162798251Y-106961859D02*
X163179203Y-106961859D01*
X162274441Y-107485668D02*
X161655394Y-107485668D01*
X161655394Y-107485668D02*
X161988727Y-107104716D01*
X161988727Y-107104716D02*
X161845870Y-107104716D01*
X161845870Y-107104716D02*
X161750632Y-107057097D01*
X161750632Y-107057097D02*
X161703013Y-107009478D01*
X161703013Y-107009478D02*
X161655394Y-106914240D01*
X161655394Y-106914240D02*
X161655394Y-106676145D01*
X161655394Y-106676145D02*
X161703013Y-106580907D01*
X161703013Y-106580907D02*
X161750632Y-106533288D01*
X161750632Y-106533288D02*
X161845870Y-106485668D01*
X161845870Y-106485668D02*
X162131584Y-106485668D01*
X162131584Y-106485668D02*
X162226822Y-106533288D01*
X162226822Y-106533288D02*
X162274441Y-106580907D01*
X161322060Y-107485668D02*
X160655394Y-107485668D01*
X160655394Y-107485668D02*
X161083965Y-106485668D01*
X132909523Y-114292580D02*
X132909523Y-113578295D01*
X132909523Y-113578295D02*
X132957142Y-113435438D01*
X132957142Y-113435438D02*
X133052380Y-113340200D01*
X133052380Y-113340200D02*
X133195237Y-113292580D01*
X133195237Y-113292580D02*
X133290475Y-113292580D01*
X132433332Y-113292580D02*
X132433332Y-114292580D01*
X132433332Y-114292580D02*
X132052380Y-114292580D01*
X132052380Y-114292580D02*
X131957142Y-114244961D01*
X131957142Y-114244961D02*
X131909523Y-114197342D01*
X131909523Y-114197342D02*
X131861904Y-114102104D01*
X131861904Y-114102104D02*
X131861904Y-113959247D01*
X131861904Y-113959247D02*
X131909523Y-113864009D01*
X131909523Y-113864009D02*
X131957142Y-113816390D01*
X131957142Y-113816390D02*
X132052380Y-113768771D01*
X132052380Y-113768771D02*
X132433332Y-113768771D01*
X131528570Y-114292580D02*
X130909523Y-114292580D01*
X130909523Y-114292580D02*
X131242856Y-113911628D01*
X131242856Y-113911628D02*
X131099999Y-113911628D01*
X131099999Y-113911628D02*
X131004761Y-113864009D01*
X131004761Y-113864009D02*
X130957142Y-113816390D01*
X130957142Y-113816390D02*
X130909523Y-113721152D01*
X130909523Y-113721152D02*
X130909523Y-113483057D01*
X130909523Y-113483057D02*
X130957142Y-113387819D01*
X130957142Y-113387819D02*
X131004761Y-113340200D01*
X131004761Y-113340200D02*
X131099999Y-113292580D01*
X131099999Y-113292580D02*
X131385713Y-113292580D01*
X131385713Y-113292580D02*
X131480951Y-113340200D01*
X131480951Y-113340200D02*
X131528570Y-113387819D01*
X130433332Y-113292580D02*
X130242856Y-113292580D01*
X130242856Y-113292580D02*
X130147618Y-113340200D01*
X130147618Y-113340200D02*
X130099999Y-113387819D01*
X130099999Y-113387819D02*
X130004761Y-113530676D01*
X130004761Y-113530676D02*
X129957142Y-113721152D01*
X129957142Y-113721152D02*
X129957142Y-114102104D01*
X129957142Y-114102104D02*
X130004761Y-114197342D01*
X130004761Y-114197342D02*
X130052380Y-114244961D01*
X130052380Y-114244961D02*
X130147618Y-114292580D01*
X130147618Y-114292580D02*
X130338094Y-114292580D01*
X130338094Y-114292580D02*
X130433332Y-114244961D01*
X130433332Y-114244961D02*
X130480951Y-114197342D01*
X130480951Y-114197342D02*
X130528570Y-114102104D01*
X130528570Y-114102104D02*
X130528570Y-113864009D01*
X130528570Y-113864009D02*
X130480951Y-113768771D01*
X130480951Y-113768771D02*
X130433332Y-113721152D01*
X130433332Y-113721152D02*
X130338094Y-113673533D01*
X130338094Y-113673533D02*
X130147618Y-113673533D01*
X130147618Y-113673533D02*
X130052380Y-113721152D01*
X130052380Y-113721152D02*
X130004761Y-113768771D01*
X130004761Y-113768771D02*
X129957142Y-113864009D01*
X23516666Y-61157419D02*
X23516666Y-61871704D01*
X23516666Y-61871704D02*
X23469047Y-62014561D01*
X23469047Y-62014561D02*
X23373809Y-62109800D01*
X23373809Y-62109800D02*
X23230952Y-62157419D01*
X23230952Y-62157419D02*
X23135714Y-62157419D01*
X24516666Y-62157419D02*
X23945238Y-62157419D01*
X24230952Y-62157419D02*
X24230952Y-61157419D01*
X24230952Y-61157419D02*
X24135714Y-61300276D01*
X24135714Y-61300276D02*
X24040476Y-61395514D01*
X24040476Y-61395514D02*
X23945238Y-61443133D01*
X23516666Y-64157419D02*
X23516666Y-64871704D01*
X23516666Y-64871704D02*
X23469047Y-65014561D01*
X23469047Y-65014561D02*
X23373809Y-65109800D01*
X23373809Y-65109800D02*
X23230952Y-65157419D01*
X23230952Y-65157419D02*
X23135714Y-65157419D01*
X24516666Y-65157419D02*
X23945238Y-65157419D01*
X24230952Y-65157419D02*
X24230952Y-64157419D01*
X24230952Y-64157419D02*
X24135714Y-64300276D01*
X24135714Y-64300276D02*
X24040476Y-64395514D01*
X24040476Y-64395514D02*
X23945238Y-64443133D01*
X170133333Y-134492580D02*
X170133333Y-133778295D01*
X170133333Y-133778295D02*
X170180952Y-133635438D01*
X170180952Y-133635438D02*
X170276190Y-133540200D01*
X170276190Y-133540200D02*
X170419047Y-133492580D01*
X170419047Y-133492580D02*
X170514285Y-133492580D01*
X169657142Y-133492580D02*
X169657142Y-134492580D01*
X169657142Y-134492580D02*
X169276190Y-134492580D01*
X169276190Y-134492580D02*
X169180952Y-134444961D01*
X169180952Y-134444961D02*
X169133333Y-134397342D01*
X169133333Y-134397342D02*
X169085714Y-134302104D01*
X169085714Y-134302104D02*
X169085714Y-134159247D01*
X169085714Y-134159247D02*
X169133333Y-134064009D01*
X169133333Y-134064009D02*
X169180952Y-134016390D01*
X169180952Y-134016390D02*
X169276190Y-133968771D01*
X169276190Y-133968771D02*
X169657142Y-133968771D01*
X168752380Y-134492580D02*
X168085714Y-134492580D01*
X168085714Y-134492580D02*
X168514285Y-133492580D01*
X56459523Y-152542580D02*
X56459523Y-151828295D01*
X56459523Y-151828295D02*
X56507142Y-151685438D01*
X56507142Y-151685438D02*
X56602380Y-151590200D01*
X56602380Y-151590200D02*
X56745237Y-151542580D01*
X56745237Y-151542580D02*
X56840475Y-151542580D01*
X55983332Y-151542580D02*
X55983332Y-152542580D01*
X55983332Y-152542580D02*
X55602380Y-152542580D01*
X55602380Y-152542580D02*
X55507142Y-152494961D01*
X55507142Y-152494961D02*
X55459523Y-152447342D01*
X55459523Y-152447342D02*
X55411904Y-152352104D01*
X55411904Y-152352104D02*
X55411904Y-152209247D01*
X55411904Y-152209247D02*
X55459523Y-152114009D01*
X55459523Y-152114009D02*
X55507142Y-152066390D01*
X55507142Y-152066390D02*
X55602380Y-152018771D01*
X55602380Y-152018771D02*
X55983332Y-152018771D01*
X54459523Y-151542580D02*
X55030951Y-151542580D01*
X54745237Y-151542580D02*
X54745237Y-152542580D01*
X54745237Y-152542580D02*
X54840475Y-152399723D01*
X54840475Y-152399723D02*
X54935713Y-152304485D01*
X54935713Y-152304485D02*
X55030951Y-152256866D01*
X53602380Y-152209247D02*
X53602380Y-151542580D01*
X53840475Y-152590200D02*
X54078570Y-151875914D01*
X54078570Y-151875914D02*
X53459523Y-151875914D01*
X209105394Y-94335668D02*
X209105394Y-93621383D01*
X209105394Y-93621383D02*
X209153013Y-93478526D01*
X209153013Y-93478526D02*
X209248251Y-93383288D01*
X209248251Y-93383288D02*
X209391108Y-93335668D01*
X209391108Y-93335668D02*
X209486346Y-93335668D01*
X208629203Y-93335668D02*
X208629203Y-94335668D01*
X208629203Y-94335668D02*
X208248251Y-94335668D01*
X208248251Y-94335668D02*
X208153013Y-94288049D01*
X208153013Y-94288049D02*
X208105394Y-94240430D01*
X208105394Y-94240430D02*
X208057775Y-94145192D01*
X208057775Y-94145192D02*
X208057775Y-94002335D01*
X208057775Y-94002335D02*
X208105394Y-93907097D01*
X208105394Y-93907097D02*
X208153013Y-93859478D01*
X208153013Y-93859478D02*
X208248251Y-93811859D01*
X208248251Y-93811859D02*
X208629203Y-93811859D01*
X207724441Y-94335668D02*
X207105394Y-94335668D01*
X207105394Y-94335668D02*
X207438727Y-93954716D01*
X207438727Y-93954716D02*
X207295870Y-93954716D01*
X207295870Y-93954716D02*
X207200632Y-93907097D01*
X207200632Y-93907097D02*
X207153013Y-93859478D01*
X207153013Y-93859478D02*
X207105394Y-93764240D01*
X207105394Y-93764240D02*
X207105394Y-93526145D01*
X207105394Y-93526145D02*
X207153013Y-93430907D01*
X207153013Y-93430907D02*
X207200632Y-93383288D01*
X207200632Y-93383288D02*
X207295870Y-93335668D01*
X207295870Y-93335668D02*
X207581584Y-93335668D01*
X207581584Y-93335668D02*
X207676822Y-93383288D01*
X207676822Y-93383288D02*
X207724441Y-93430907D01*
X206248251Y-94002335D02*
X206248251Y-93335668D01*
X206486346Y-94383288D02*
X206724441Y-93669002D01*
X206724441Y-93669002D02*
X206105394Y-93669002D01*
X72709523Y-151342580D02*
X72709523Y-150628295D01*
X72709523Y-150628295D02*
X72757142Y-150485438D01*
X72757142Y-150485438D02*
X72852380Y-150390200D01*
X72852380Y-150390200D02*
X72995237Y-150342580D01*
X72995237Y-150342580D02*
X73090475Y-150342580D01*
X72233332Y-150342580D02*
X72233332Y-151342580D01*
X72233332Y-151342580D02*
X71852380Y-151342580D01*
X71852380Y-151342580D02*
X71757142Y-151294961D01*
X71757142Y-151294961D02*
X71709523Y-151247342D01*
X71709523Y-151247342D02*
X71661904Y-151152104D01*
X71661904Y-151152104D02*
X71661904Y-151009247D01*
X71661904Y-151009247D02*
X71709523Y-150914009D01*
X71709523Y-150914009D02*
X71757142Y-150866390D01*
X71757142Y-150866390D02*
X71852380Y-150818771D01*
X71852380Y-150818771D02*
X72233332Y-150818771D01*
X70709523Y-150342580D02*
X71280951Y-150342580D01*
X70995237Y-150342580D02*
X70995237Y-151342580D01*
X70995237Y-151342580D02*
X71090475Y-151199723D01*
X71090475Y-151199723D02*
X71185713Y-151104485D01*
X71185713Y-151104485D02*
X71280951Y-151056866D01*
X70376189Y-151342580D02*
X69757142Y-151342580D01*
X69757142Y-151342580D02*
X70090475Y-150961628D01*
X70090475Y-150961628D02*
X69947618Y-150961628D01*
X69947618Y-150961628D02*
X69852380Y-150914009D01*
X69852380Y-150914009D02*
X69804761Y-150866390D01*
X69804761Y-150866390D02*
X69757142Y-150771152D01*
X69757142Y-150771152D02*
X69757142Y-150533057D01*
X69757142Y-150533057D02*
X69804761Y-150437819D01*
X69804761Y-150437819D02*
X69852380Y-150390200D01*
X69852380Y-150390200D02*
X69947618Y-150342580D01*
X69947618Y-150342580D02*
X70233332Y-150342580D01*
X70233332Y-150342580D02*
X70328570Y-150390200D01*
X70328570Y-150390200D02*
X70376189Y-150437819D01*
X239159523Y-83192580D02*
X239159523Y-82478295D01*
X239159523Y-82478295D02*
X239207142Y-82335438D01*
X239207142Y-82335438D02*
X239302380Y-82240200D01*
X239302380Y-82240200D02*
X239445237Y-82192580D01*
X239445237Y-82192580D02*
X239540475Y-82192580D01*
X238683332Y-82192580D02*
X238683332Y-83192580D01*
X238683332Y-83192580D02*
X238302380Y-83192580D01*
X238302380Y-83192580D02*
X238207142Y-83144961D01*
X238207142Y-83144961D02*
X238159523Y-83097342D01*
X238159523Y-83097342D02*
X238111904Y-83002104D01*
X238111904Y-83002104D02*
X238111904Y-82859247D01*
X238111904Y-82859247D02*
X238159523Y-82764009D01*
X238159523Y-82764009D02*
X238207142Y-82716390D01*
X238207142Y-82716390D02*
X238302380Y-82668771D01*
X238302380Y-82668771D02*
X238683332Y-82668771D01*
X237778570Y-83192580D02*
X237159523Y-83192580D01*
X237159523Y-83192580D02*
X237492856Y-82811628D01*
X237492856Y-82811628D02*
X237349999Y-82811628D01*
X237349999Y-82811628D02*
X237254761Y-82764009D01*
X237254761Y-82764009D02*
X237207142Y-82716390D01*
X237207142Y-82716390D02*
X237159523Y-82621152D01*
X237159523Y-82621152D02*
X237159523Y-82383057D01*
X237159523Y-82383057D02*
X237207142Y-82287819D01*
X237207142Y-82287819D02*
X237254761Y-82240200D01*
X237254761Y-82240200D02*
X237349999Y-82192580D01*
X237349999Y-82192580D02*
X237635713Y-82192580D01*
X237635713Y-82192580D02*
X237730951Y-82240200D01*
X237730951Y-82240200D02*
X237778570Y-82287819D01*
X236778570Y-83097342D02*
X236730951Y-83144961D01*
X236730951Y-83144961D02*
X236635713Y-83192580D01*
X236635713Y-83192580D02*
X236397618Y-83192580D01*
X236397618Y-83192580D02*
X236302380Y-83144961D01*
X236302380Y-83144961D02*
X236254761Y-83097342D01*
X236254761Y-83097342D02*
X236207142Y-83002104D01*
X236207142Y-83002104D02*
X236207142Y-82906866D01*
X236207142Y-82906866D02*
X236254761Y-82764009D01*
X236254761Y-82764009D02*
X236826189Y-82192580D01*
X236826189Y-82192580D02*
X236207142Y-82192580D01*
X244259523Y-96242580D02*
X244259523Y-95528295D01*
X244259523Y-95528295D02*
X244307142Y-95385438D01*
X244307142Y-95385438D02*
X244402380Y-95290200D01*
X244402380Y-95290200D02*
X244545237Y-95242580D01*
X244545237Y-95242580D02*
X244640475Y-95242580D01*
X243783332Y-95242580D02*
X243783332Y-96242580D01*
X243783332Y-96242580D02*
X243402380Y-96242580D01*
X243402380Y-96242580D02*
X243307142Y-96194961D01*
X243307142Y-96194961D02*
X243259523Y-96147342D01*
X243259523Y-96147342D02*
X243211904Y-96052104D01*
X243211904Y-96052104D02*
X243211904Y-95909247D01*
X243211904Y-95909247D02*
X243259523Y-95814009D01*
X243259523Y-95814009D02*
X243307142Y-95766390D01*
X243307142Y-95766390D02*
X243402380Y-95718771D01*
X243402380Y-95718771D02*
X243783332Y-95718771D01*
X242259523Y-95242580D02*
X242830951Y-95242580D01*
X242545237Y-95242580D02*
X242545237Y-96242580D01*
X242545237Y-96242580D02*
X242640475Y-96099723D01*
X242640475Y-96099723D02*
X242735713Y-96004485D01*
X242735713Y-96004485D02*
X242830951Y-95956866D01*
X241926189Y-96242580D02*
X241259523Y-96242580D01*
X241259523Y-96242580D02*
X241688094Y-95242580D01*
X68809523Y-109592580D02*
X68809523Y-108878295D01*
X68809523Y-108878295D02*
X68857142Y-108735438D01*
X68857142Y-108735438D02*
X68952380Y-108640200D01*
X68952380Y-108640200D02*
X69095237Y-108592580D01*
X69095237Y-108592580D02*
X69190475Y-108592580D01*
X68333332Y-108592580D02*
X68333332Y-109592580D01*
X68333332Y-109592580D02*
X67952380Y-109592580D01*
X67952380Y-109592580D02*
X67857142Y-109544961D01*
X67857142Y-109544961D02*
X67809523Y-109497342D01*
X67809523Y-109497342D02*
X67761904Y-109402104D01*
X67761904Y-109402104D02*
X67761904Y-109259247D01*
X67761904Y-109259247D02*
X67809523Y-109164009D01*
X67809523Y-109164009D02*
X67857142Y-109116390D01*
X67857142Y-109116390D02*
X67952380Y-109068771D01*
X67952380Y-109068771D02*
X68333332Y-109068771D01*
X66857142Y-109592580D02*
X67333332Y-109592580D01*
X67333332Y-109592580D02*
X67380951Y-109116390D01*
X67380951Y-109116390D02*
X67333332Y-109164009D01*
X67333332Y-109164009D02*
X67238094Y-109211628D01*
X67238094Y-109211628D02*
X66999999Y-109211628D01*
X66999999Y-109211628D02*
X66904761Y-109164009D01*
X66904761Y-109164009D02*
X66857142Y-109116390D01*
X66857142Y-109116390D02*
X66809523Y-109021152D01*
X66809523Y-109021152D02*
X66809523Y-108783057D01*
X66809523Y-108783057D02*
X66857142Y-108687819D01*
X66857142Y-108687819D02*
X66904761Y-108640200D01*
X66904761Y-108640200D02*
X66999999Y-108592580D01*
X66999999Y-108592580D02*
X67238094Y-108592580D01*
X67238094Y-108592580D02*
X67333332Y-108640200D01*
X67333332Y-108640200D02*
X67380951Y-108687819D01*
X66238094Y-109164009D02*
X66333332Y-109211628D01*
X66333332Y-109211628D02*
X66380951Y-109259247D01*
X66380951Y-109259247D02*
X66428570Y-109354485D01*
X66428570Y-109354485D02*
X66428570Y-109402104D01*
X66428570Y-109402104D02*
X66380951Y-109497342D01*
X66380951Y-109497342D02*
X66333332Y-109544961D01*
X66333332Y-109544961D02*
X66238094Y-109592580D01*
X66238094Y-109592580D02*
X66047618Y-109592580D01*
X66047618Y-109592580D02*
X65952380Y-109544961D01*
X65952380Y-109544961D02*
X65904761Y-109497342D01*
X65904761Y-109497342D02*
X65857142Y-109402104D01*
X65857142Y-109402104D02*
X65857142Y-109354485D01*
X65857142Y-109354485D02*
X65904761Y-109259247D01*
X65904761Y-109259247D02*
X65952380Y-109211628D01*
X65952380Y-109211628D02*
X66047618Y-109164009D01*
X66047618Y-109164009D02*
X66238094Y-109164009D01*
X66238094Y-109164009D02*
X66333332Y-109116390D01*
X66333332Y-109116390D02*
X66380951Y-109068771D01*
X66380951Y-109068771D02*
X66428570Y-108973533D01*
X66428570Y-108973533D02*
X66428570Y-108783057D01*
X66428570Y-108783057D02*
X66380951Y-108687819D01*
X66380951Y-108687819D02*
X66333332Y-108640200D01*
X66333332Y-108640200D02*
X66238094Y-108592580D01*
X66238094Y-108592580D02*
X66047618Y-108592580D01*
X66047618Y-108592580D02*
X65952380Y-108640200D01*
X65952380Y-108640200D02*
X65904761Y-108687819D01*
X65904761Y-108687819D02*
X65857142Y-108783057D01*
X65857142Y-108783057D02*
X65857142Y-108973533D01*
X65857142Y-108973533D02*
X65904761Y-109068771D01*
X65904761Y-109068771D02*
X65952380Y-109116390D01*
X65952380Y-109116390D02*
X66047618Y-109164009D01*
X186083333Y-130392580D02*
X186083333Y-129678295D01*
X186083333Y-129678295D02*
X186130952Y-129535438D01*
X186130952Y-129535438D02*
X186226190Y-129440200D01*
X186226190Y-129440200D02*
X186369047Y-129392580D01*
X186369047Y-129392580D02*
X186464285Y-129392580D01*
X185607142Y-129392580D02*
X185607142Y-130392580D01*
X185607142Y-130392580D02*
X185226190Y-130392580D01*
X185226190Y-130392580D02*
X185130952Y-130344961D01*
X185130952Y-130344961D02*
X185083333Y-130297342D01*
X185083333Y-130297342D02*
X185035714Y-130202104D01*
X185035714Y-130202104D02*
X185035714Y-130059247D01*
X185035714Y-130059247D02*
X185083333Y-129964009D01*
X185083333Y-129964009D02*
X185130952Y-129916390D01*
X185130952Y-129916390D02*
X185226190Y-129868771D01*
X185226190Y-129868771D02*
X185607142Y-129868771D01*
X184178571Y-130392580D02*
X184369047Y-130392580D01*
X184369047Y-130392580D02*
X184464285Y-130344961D01*
X184464285Y-130344961D02*
X184511904Y-130297342D01*
X184511904Y-130297342D02*
X184607142Y-130154485D01*
X184607142Y-130154485D02*
X184654761Y-129964009D01*
X184654761Y-129964009D02*
X184654761Y-129583057D01*
X184654761Y-129583057D02*
X184607142Y-129487819D01*
X184607142Y-129487819D02*
X184559523Y-129440200D01*
X184559523Y-129440200D02*
X184464285Y-129392580D01*
X184464285Y-129392580D02*
X184273809Y-129392580D01*
X184273809Y-129392580D02*
X184178571Y-129440200D01*
X184178571Y-129440200D02*
X184130952Y-129487819D01*
X184130952Y-129487819D02*
X184083333Y-129583057D01*
X184083333Y-129583057D02*
X184083333Y-129821152D01*
X184083333Y-129821152D02*
X184130952Y-129916390D01*
X184130952Y-129916390D02*
X184178571Y-129964009D01*
X184178571Y-129964009D02*
X184273809Y-130011628D01*
X184273809Y-130011628D02*
X184464285Y-130011628D01*
X184464285Y-130011628D02*
X184559523Y-129964009D01*
X184559523Y-129964009D02*
X184607142Y-129916390D01*
X184607142Y-129916390D02*
X184654761Y-129821152D01*
X55405394Y-138835668D02*
X55405394Y-138121383D01*
X55405394Y-138121383D02*
X55453013Y-137978526D01*
X55453013Y-137978526D02*
X55548251Y-137883288D01*
X55548251Y-137883288D02*
X55691108Y-137835668D01*
X55691108Y-137835668D02*
X55786346Y-137835668D01*
X54929203Y-137835668D02*
X54929203Y-138835668D01*
X54929203Y-138835668D02*
X54548251Y-138835668D01*
X54548251Y-138835668D02*
X54453013Y-138788049D01*
X54453013Y-138788049D02*
X54405394Y-138740430D01*
X54405394Y-138740430D02*
X54357775Y-138645192D01*
X54357775Y-138645192D02*
X54357775Y-138502335D01*
X54357775Y-138502335D02*
X54405394Y-138407097D01*
X54405394Y-138407097D02*
X54453013Y-138359478D01*
X54453013Y-138359478D02*
X54548251Y-138311859D01*
X54548251Y-138311859D02*
X54929203Y-138311859D01*
X53976822Y-138740430D02*
X53929203Y-138788049D01*
X53929203Y-138788049D02*
X53833965Y-138835668D01*
X53833965Y-138835668D02*
X53595870Y-138835668D01*
X53595870Y-138835668D02*
X53500632Y-138788049D01*
X53500632Y-138788049D02*
X53453013Y-138740430D01*
X53453013Y-138740430D02*
X53405394Y-138645192D01*
X53405394Y-138645192D02*
X53405394Y-138549954D01*
X53405394Y-138549954D02*
X53453013Y-138407097D01*
X53453013Y-138407097D02*
X54024441Y-137835668D01*
X54024441Y-137835668D02*
X53405394Y-137835668D01*
X52929203Y-137835668D02*
X52738727Y-137835668D01*
X52738727Y-137835668D02*
X52643489Y-137883288D01*
X52643489Y-137883288D02*
X52595870Y-137930907D01*
X52595870Y-137930907D02*
X52500632Y-138073764D01*
X52500632Y-138073764D02*
X52453013Y-138264240D01*
X52453013Y-138264240D02*
X52453013Y-138645192D01*
X52453013Y-138645192D02*
X52500632Y-138740430D01*
X52500632Y-138740430D02*
X52548251Y-138788049D01*
X52548251Y-138788049D02*
X52643489Y-138835668D01*
X52643489Y-138835668D02*
X52833965Y-138835668D01*
X52833965Y-138835668D02*
X52929203Y-138788049D01*
X52929203Y-138788049D02*
X52976822Y-138740430D01*
X52976822Y-138740430D02*
X53024441Y-138645192D01*
X53024441Y-138645192D02*
X53024441Y-138407097D01*
X53024441Y-138407097D02*
X52976822Y-138311859D01*
X52976822Y-138311859D02*
X52929203Y-138264240D01*
X52929203Y-138264240D02*
X52833965Y-138216621D01*
X52833965Y-138216621D02*
X52643489Y-138216621D01*
X52643489Y-138216621D02*
X52548251Y-138264240D01*
X52548251Y-138264240D02*
X52500632Y-138311859D01*
X52500632Y-138311859D02*
X52453013Y-138407097D01*
X70259523Y-123442580D02*
X70259523Y-122728295D01*
X70259523Y-122728295D02*
X70307142Y-122585438D01*
X70307142Y-122585438D02*
X70402380Y-122490200D01*
X70402380Y-122490200D02*
X70545237Y-122442580D01*
X70545237Y-122442580D02*
X70640475Y-122442580D01*
X69783332Y-122442580D02*
X69783332Y-123442580D01*
X69783332Y-123442580D02*
X69402380Y-123442580D01*
X69402380Y-123442580D02*
X69307142Y-123394961D01*
X69307142Y-123394961D02*
X69259523Y-123347342D01*
X69259523Y-123347342D02*
X69211904Y-123252104D01*
X69211904Y-123252104D02*
X69211904Y-123109247D01*
X69211904Y-123109247D02*
X69259523Y-123014009D01*
X69259523Y-123014009D02*
X69307142Y-122966390D01*
X69307142Y-122966390D02*
X69402380Y-122918771D01*
X69402380Y-122918771D02*
X69783332Y-122918771D01*
X68354761Y-123109247D02*
X68354761Y-122442580D01*
X68592856Y-123490200D02*
X68830951Y-122775914D01*
X68830951Y-122775914D02*
X68211904Y-122775914D01*
X67926189Y-123442580D02*
X67307142Y-123442580D01*
X67307142Y-123442580D02*
X67640475Y-123061628D01*
X67640475Y-123061628D02*
X67497618Y-123061628D01*
X67497618Y-123061628D02*
X67402380Y-123014009D01*
X67402380Y-123014009D02*
X67354761Y-122966390D01*
X67354761Y-122966390D02*
X67307142Y-122871152D01*
X67307142Y-122871152D02*
X67307142Y-122633057D01*
X67307142Y-122633057D02*
X67354761Y-122537819D01*
X67354761Y-122537819D02*
X67402380Y-122490200D01*
X67402380Y-122490200D02*
X67497618Y-122442580D01*
X67497618Y-122442580D02*
X67783332Y-122442580D01*
X67783332Y-122442580D02*
X67878570Y-122490200D01*
X67878570Y-122490200D02*
X67926189Y-122537819D01*
X182759523Y-116742580D02*
X182759523Y-116028295D01*
X182759523Y-116028295D02*
X182807142Y-115885438D01*
X182807142Y-115885438D02*
X182902380Y-115790200D01*
X182902380Y-115790200D02*
X183045237Y-115742580D01*
X183045237Y-115742580D02*
X183140475Y-115742580D01*
X182283332Y-115742580D02*
X182283332Y-116742580D01*
X182283332Y-116742580D02*
X181902380Y-116742580D01*
X181902380Y-116742580D02*
X181807142Y-116694961D01*
X181807142Y-116694961D02*
X181759523Y-116647342D01*
X181759523Y-116647342D02*
X181711904Y-116552104D01*
X181711904Y-116552104D02*
X181711904Y-116409247D01*
X181711904Y-116409247D02*
X181759523Y-116314009D01*
X181759523Y-116314009D02*
X181807142Y-116266390D01*
X181807142Y-116266390D02*
X181902380Y-116218771D01*
X181902380Y-116218771D02*
X182283332Y-116218771D01*
X181330951Y-116647342D02*
X181283332Y-116694961D01*
X181283332Y-116694961D02*
X181188094Y-116742580D01*
X181188094Y-116742580D02*
X180949999Y-116742580D01*
X180949999Y-116742580D02*
X180854761Y-116694961D01*
X180854761Y-116694961D02*
X180807142Y-116647342D01*
X180807142Y-116647342D02*
X180759523Y-116552104D01*
X180759523Y-116552104D02*
X180759523Y-116456866D01*
X180759523Y-116456866D02*
X180807142Y-116314009D01*
X180807142Y-116314009D02*
X181378570Y-115742580D01*
X181378570Y-115742580D02*
X180759523Y-115742580D01*
X179807142Y-115742580D02*
X180378570Y-115742580D01*
X180092856Y-115742580D02*
X180092856Y-116742580D01*
X180092856Y-116742580D02*
X180188094Y-116599723D01*
X180188094Y-116599723D02*
X180283332Y-116504485D01*
X180283332Y-116504485D02*
X180378570Y-116456866D01*
X130159523Y-100492580D02*
X130159523Y-99778295D01*
X130159523Y-99778295D02*
X130207142Y-99635438D01*
X130207142Y-99635438D02*
X130302380Y-99540200D01*
X130302380Y-99540200D02*
X130445237Y-99492580D01*
X130445237Y-99492580D02*
X130540475Y-99492580D01*
X129683332Y-99492580D02*
X129683332Y-100492580D01*
X129683332Y-100492580D02*
X129302380Y-100492580D01*
X129302380Y-100492580D02*
X129207142Y-100444961D01*
X129207142Y-100444961D02*
X129159523Y-100397342D01*
X129159523Y-100397342D02*
X129111904Y-100302104D01*
X129111904Y-100302104D02*
X129111904Y-100159247D01*
X129111904Y-100159247D02*
X129159523Y-100064009D01*
X129159523Y-100064009D02*
X129207142Y-100016390D01*
X129207142Y-100016390D02*
X129302380Y-99968771D01*
X129302380Y-99968771D02*
X129683332Y-99968771D01*
X128207142Y-100492580D02*
X128683332Y-100492580D01*
X128683332Y-100492580D02*
X128730951Y-100016390D01*
X128730951Y-100016390D02*
X128683332Y-100064009D01*
X128683332Y-100064009D02*
X128588094Y-100111628D01*
X128588094Y-100111628D02*
X128349999Y-100111628D01*
X128349999Y-100111628D02*
X128254761Y-100064009D01*
X128254761Y-100064009D02*
X128207142Y-100016390D01*
X128207142Y-100016390D02*
X128159523Y-99921152D01*
X128159523Y-99921152D02*
X128159523Y-99683057D01*
X128159523Y-99683057D02*
X128207142Y-99587819D01*
X128207142Y-99587819D02*
X128254761Y-99540200D01*
X128254761Y-99540200D02*
X128349999Y-99492580D01*
X128349999Y-99492580D02*
X128588094Y-99492580D01*
X128588094Y-99492580D02*
X128683332Y-99540200D01*
X128683332Y-99540200D02*
X128730951Y-99587819D01*
X127302380Y-100159247D02*
X127302380Y-99492580D01*
X127540475Y-100540200D02*
X127778570Y-99825914D01*
X127778570Y-99825914D02*
X127159523Y-99825914D01*
X198205394Y-112335668D02*
X198205394Y-111621383D01*
X198205394Y-111621383D02*
X198253013Y-111478526D01*
X198253013Y-111478526D02*
X198348251Y-111383288D01*
X198348251Y-111383288D02*
X198491108Y-111335668D01*
X198491108Y-111335668D02*
X198586346Y-111335668D01*
X197729203Y-111335668D02*
X197729203Y-112335668D01*
X197729203Y-112335668D02*
X197348251Y-112335668D01*
X197348251Y-112335668D02*
X197253013Y-112288049D01*
X197253013Y-112288049D02*
X197205394Y-112240430D01*
X197205394Y-112240430D02*
X197157775Y-112145192D01*
X197157775Y-112145192D02*
X197157775Y-112002335D01*
X197157775Y-112002335D02*
X197205394Y-111907097D01*
X197205394Y-111907097D02*
X197253013Y-111859478D01*
X197253013Y-111859478D02*
X197348251Y-111811859D01*
X197348251Y-111811859D02*
X197729203Y-111811859D01*
X196776822Y-112240430D02*
X196729203Y-112288049D01*
X196729203Y-112288049D02*
X196633965Y-112335668D01*
X196633965Y-112335668D02*
X196395870Y-112335668D01*
X196395870Y-112335668D02*
X196300632Y-112288049D01*
X196300632Y-112288049D02*
X196253013Y-112240430D01*
X196253013Y-112240430D02*
X196205394Y-112145192D01*
X196205394Y-112145192D02*
X196205394Y-112049954D01*
X196205394Y-112049954D02*
X196253013Y-111907097D01*
X196253013Y-111907097D02*
X196824441Y-111335668D01*
X196824441Y-111335668D02*
X196205394Y-111335668D01*
X195586346Y-112335668D02*
X195491108Y-112335668D01*
X195491108Y-112335668D02*
X195395870Y-112288049D01*
X195395870Y-112288049D02*
X195348251Y-112240430D01*
X195348251Y-112240430D02*
X195300632Y-112145192D01*
X195300632Y-112145192D02*
X195253013Y-111954716D01*
X195253013Y-111954716D02*
X195253013Y-111716621D01*
X195253013Y-111716621D02*
X195300632Y-111526145D01*
X195300632Y-111526145D02*
X195348251Y-111430907D01*
X195348251Y-111430907D02*
X195395870Y-111383288D01*
X195395870Y-111383288D02*
X195491108Y-111335668D01*
X195491108Y-111335668D02*
X195586346Y-111335668D01*
X195586346Y-111335668D02*
X195681584Y-111383288D01*
X195681584Y-111383288D02*
X195729203Y-111430907D01*
X195729203Y-111430907D02*
X195776822Y-111526145D01*
X195776822Y-111526145D02*
X195824441Y-111716621D01*
X195824441Y-111716621D02*
X195824441Y-111954716D01*
X195824441Y-111954716D02*
X195776822Y-112145192D01*
X195776822Y-112145192D02*
X195729203Y-112240430D01*
X195729203Y-112240430D02*
X195681584Y-112288049D01*
X195681584Y-112288049D02*
X195586346Y-112335668D01*
X54409523Y-124642580D02*
X54409523Y-123928295D01*
X54409523Y-123928295D02*
X54457142Y-123785438D01*
X54457142Y-123785438D02*
X54552380Y-123690200D01*
X54552380Y-123690200D02*
X54695237Y-123642580D01*
X54695237Y-123642580D02*
X54790475Y-123642580D01*
X53933332Y-123642580D02*
X53933332Y-124642580D01*
X53933332Y-124642580D02*
X53552380Y-124642580D01*
X53552380Y-124642580D02*
X53457142Y-124594961D01*
X53457142Y-124594961D02*
X53409523Y-124547342D01*
X53409523Y-124547342D02*
X53361904Y-124452104D01*
X53361904Y-124452104D02*
X53361904Y-124309247D01*
X53361904Y-124309247D02*
X53409523Y-124214009D01*
X53409523Y-124214009D02*
X53457142Y-124166390D01*
X53457142Y-124166390D02*
X53552380Y-124118771D01*
X53552380Y-124118771D02*
X53933332Y-124118771D01*
X52504761Y-124309247D02*
X52504761Y-123642580D01*
X52742856Y-124690200D02*
X52980951Y-123975914D01*
X52980951Y-123975914D02*
X52361904Y-123975914D01*
X51552380Y-124309247D02*
X51552380Y-123642580D01*
X51790475Y-124690200D02*
X52028570Y-123975914D01*
X52028570Y-123975914D02*
X51409523Y-123975914D01*
X148259523Y-111142580D02*
X148259523Y-110428295D01*
X148259523Y-110428295D02*
X148307142Y-110285438D01*
X148307142Y-110285438D02*
X148402380Y-110190200D01*
X148402380Y-110190200D02*
X148545237Y-110142580D01*
X148545237Y-110142580D02*
X148640475Y-110142580D01*
X147783332Y-110142580D02*
X147783332Y-111142580D01*
X147783332Y-111142580D02*
X147402380Y-111142580D01*
X147402380Y-111142580D02*
X147307142Y-111094961D01*
X147307142Y-111094961D02*
X147259523Y-111047342D01*
X147259523Y-111047342D02*
X147211904Y-110952104D01*
X147211904Y-110952104D02*
X147211904Y-110809247D01*
X147211904Y-110809247D02*
X147259523Y-110714009D01*
X147259523Y-110714009D02*
X147307142Y-110666390D01*
X147307142Y-110666390D02*
X147402380Y-110618771D01*
X147402380Y-110618771D02*
X147783332Y-110618771D01*
X146878570Y-111142580D02*
X146259523Y-111142580D01*
X146259523Y-111142580D02*
X146592856Y-110761628D01*
X146592856Y-110761628D02*
X146449999Y-110761628D01*
X146449999Y-110761628D02*
X146354761Y-110714009D01*
X146354761Y-110714009D02*
X146307142Y-110666390D01*
X146307142Y-110666390D02*
X146259523Y-110571152D01*
X146259523Y-110571152D02*
X146259523Y-110333057D01*
X146259523Y-110333057D02*
X146307142Y-110237819D01*
X146307142Y-110237819D02*
X146354761Y-110190200D01*
X146354761Y-110190200D02*
X146449999Y-110142580D01*
X146449999Y-110142580D02*
X146735713Y-110142580D01*
X146735713Y-110142580D02*
X146830951Y-110190200D01*
X146830951Y-110190200D02*
X146878570Y-110237819D01*
X145688094Y-110714009D02*
X145783332Y-110761628D01*
X145783332Y-110761628D02*
X145830951Y-110809247D01*
X145830951Y-110809247D02*
X145878570Y-110904485D01*
X145878570Y-110904485D02*
X145878570Y-110952104D01*
X145878570Y-110952104D02*
X145830951Y-111047342D01*
X145830951Y-111047342D02*
X145783332Y-111094961D01*
X145783332Y-111094961D02*
X145688094Y-111142580D01*
X145688094Y-111142580D02*
X145497618Y-111142580D01*
X145497618Y-111142580D02*
X145402380Y-111094961D01*
X145402380Y-111094961D02*
X145354761Y-111047342D01*
X145354761Y-111047342D02*
X145307142Y-110952104D01*
X145307142Y-110952104D02*
X145307142Y-110904485D01*
X145307142Y-110904485D02*
X145354761Y-110809247D01*
X145354761Y-110809247D02*
X145402380Y-110761628D01*
X145402380Y-110761628D02*
X145497618Y-110714009D01*
X145497618Y-110714009D02*
X145688094Y-110714009D01*
X145688094Y-110714009D02*
X145783332Y-110666390D01*
X145783332Y-110666390D02*
X145830951Y-110618771D01*
X145830951Y-110618771D02*
X145878570Y-110523533D01*
X145878570Y-110523533D02*
X145878570Y-110333057D01*
X145878570Y-110333057D02*
X145830951Y-110237819D01*
X145830951Y-110237819D02*
X145783332Y-110190200D01*
X145783332Y-110190200D02*
X145688094Y-110142580D01*
X145688094Y-110142580D02*
X145497618Y-110142580D01*
X145497618Y-110142580D02*
X145402380Y-110190200D01*
X145402380Y-110190200D02*
X145354761Y-110237819D01*
X145354761Y-110237819D02*
X145307142Y-110333057D01*
X145307142Y-110333057D02*
X145307142Y-110523533D01*
X145307142Y-110523533D02*
X145354761Y-110618771D01*
X145354761Y-110618771D02*
X145402380Y-110666390D01*
X145402380Y-110666390D02*
X145497618Y-110714009D01*
X233379204Y-115235668D02*
X233379204Y-114521383D01*
X233379204Y-114521383D02*
X233426823Y-114378526D01*
X233426823Y-114378526D02*
X233522061Y-114283288D01*
X233522061Y-114283288D02*
X233664918Y-114235668D01*
X233664918Y-114235668D02*
X233760156Y-114235668D01*
X232903013Y-114235668D02*
X232903013Y-115235668D01*
X232903013Y-115235668D02*
X232522061Y-115235668D01*
X232522061Y-115235668D02*
X232426823Y-115188049D01*
X232426823Y-115188049D02*
X232379204Y-115140430D01*
X232379204Y-115140430D02*
X232331585Y-115045192D01*
X232331585Y-115045192D02*
X232331585Y-114902335D01*
X232331585Y-114902335D02*
X232379204Y-114807097D01*
X232379204Y-114807097D02*
X232426823Y-114759478D01*
X232426823Y-114759478D02*
X232522061Y-114711859D01*
X232522061Y-114711859D02*
X232903013Y-114711859D01*
X231998251Y-115235668D02*
X231379204Y-115235668D01*
X231379204Y-115235668D02*
X231712537Y-114854716D01*
X231712537Y-114854716D02*
X231569680Y-114854716D01*
X231569680Y-114854716D02*
X231474442Y-114807097D01*
X231474442Y-114807097D02*
X231426823Y-114759478D01*
X231426823Y-114759478D02*
X231379204Y-114664240D01*
X231379204Y-114664240D02*
X231379204Y-114426145D01*
X231379204Y-114426145D02*
X231426823Y-114330907D01*
X231426823Y-114330907D02*
X231474442Y-114283288D01*
X231474442Y-114283288D02*
X231569680Y-114235668D01*
X231569680Y-114235668D02*
X231855394Y-114235668D01*
X231855394Y-114235668D02*
X231950632Y-114283288D01*
X231950632Y-114283288D02*
X231998251Y-114330907D01*
X84359523Y-108092580D02*
X84359523Y-107378295D01*
X84359523Y-107378295D02*
X84407142Y-107235438D01*
X84407142Y-107235438D02*
X84502380Y-107140200D01*
X84502380Y-107140200D02*
X84645237Y-107092580D01*
X84645237Y-107092580D02*
X84740475Y-107092580D01*
X83883332Y-107092580D02*
X83883332Y-108092580D01*
X83883332Y-108092580D02*
X83502380Y-108092580D01*
X83502380Y-108092580D02*
X83407142Y-108044961D01*
X83407142Y-108044961D02*
X83359523Y-107997342D01*
X83359523Y-107997342D02*
X83311904Y-107902104D01*
X83311904Y-107902104D02*
X83311904Y-107759247D01*
X83311904Y-107759247D02*
X83359523Y-107664009D01*
X83359523Y-107664009D02*
X83407142Y-107616390D01*
X83407142Y-107616390D02*
X83502380Y-107568771D01*
X83502380Y-107568771D02*
X83883332Y-107568771D01*
X82407142Y-108092580D02*
X82883332Y-108092580D01*
X82883332Y-108092580D02*
X82930951Y-107616390D01*
X82930951Y-107616390D02*
X82883332Y-107664009D01*
X82883332Y-107664009D02*
X82788094Y-107711628D01*
X82788094Y-107711628D02*
X82549999Y-107711628D01*
X82549999Y-107711628D02*
X82454761Y-107664009D01*
X82454761Y-107664009D02*
X82407142Y-107616390D01*
X82407142Y-107616390D02*
X82359523Y-107521152D01*
X82359523Y-107521152D02*
X82359523Y-107283057D01*
X82359523Y-107283057D02*
X82407142Y-107187819D01*
X82407142Y-107187819D02*
X82454761Y-107140200D01*
X82454761Y-107140200D02*
X82549999Y-107092580D01*
X82549999Y-107092580D02*
X82788094Y-107092580D01*
X82788094Y-107092580D02*
X82883332Y-107140200D01*
X82883332Y-107140200D02*
X82930951Y-107187819D01*
X82026189Y-108092580D02*
X81359523Y-108092580D01*
X81359523Y-108092580D02*
X81788094Y-107092580D01*
X189859523Y-85542580D02*
X189859523Y-84828295D01*
X189859523Y-84828295D02*
X189907142Y-84685438D01*
X189907142Y-84685438D02*
X190002380Y-84590200D01*
X190002380Y-84590200D02*
X190145237Y-84542580D01*
X190145237Y-84542580D02*
X190240475Y-84542580D01*
X189383332Y-84542580D02*
X189383332Y-85542580D01*
X189383332Y-85542580D02*
X189002380Y-85542580D01*
X189002380Y-85542580D02*
X188907142Y-85494961D01*
X188907142Y-85494961D02*
X188859523Y-85447342D01*
X188859523Y-85447342D02*
X188811904Y-85352104D01*
X188811904Y-85352104D02*
X188811904Y-85209247D01*
X188811904Y-85209247D02*
X188859523Y-85114009D01*
X188859523Y-85114009D02*
X188907142Y-85066390D01*
X188907142Y-85066390D02*
X189002380Y-85018771D01*
X189002380Y-85018771D02*
X189383332Y-85018771D01*
X187907142Y-85542580D02*
X188383332Y-85542580D01*
X188383332Y-85542580D02*
X188430951Y-85066390D01*
X188430951Y-85066390D02*
X188383332Y-85114009D01*
X188383332Y-85114009D02*
X188288094Y-85161628D01*
X188288094Y-85161628D02*
X188049999Y-85161628D01*
X188049999Y-85161628D02*
X187954761Y-85114009D01*
X187954761Y-85114009D02*
X187907142Y-85066390D01*
X187907142Y-85066390D02*
X187859523Y-84971152D01*
X187859523Y-84971152D02*
X187859523Y-84733057D01*
X187859523Y-84733057D02*
X187907142Y-84637819D01*
X187907142Y-84637819D02*
X187954761Y-84590200D01*
X187954761Y-84590200D02*
X188049999Y-84542580D01*
X188049999Y-84542580D02*
X188288094Y-84542580D01*
X188288094Y-84542580D02*
X188383332Y-84590200D01*
X188383332Y-84590200D02*
X188430951Y-84637819D01*
X187240475Y-85542580D02*
X187145237Y-85542580D01*
X187145237Y-85542580D02*
X187049999Y-85494961D01*
X187049999Y-85494961D02*
X187002380Y-85447342D01*
X187002380Y-85447342D02*
X186954761Y-85352104D01*
X186954761Y-85352104D02*
X186907142Y-85161628D01*
X186907142Y-85161628D02*
X186907142Y-84923533D01*
X186907142Y-84923533D02*
X186954761Y-84733057D01*
X186954761Y-84733057D02*
X187002380Y-84637819D01*
X187002380Y-84637819D02*
X187049999Y-84590200D01*
X187049999Y-84590200D02*
X187145237Y-84542580D01*
X187145237Y-84542580D02*
X187240475Y-84542580D01*
X187240475Y-84542580D02*
X187335713Y-84590200D01*
X187335713Y-84590200D02*
X187383332Y-84637819D01*
X187383332Y-84637819D02*
X187430951Y-84733057D01*
X187430951Y-84733057D02*
X187478570Y-84923533D01*
X187478570Y-84923533D02*
X187478570Y-85161628D01*
X187478570Y-85161628D02*
X187430951Y-85352104D01*
X187430951Y-85352104D02*
X187383332Y-85447342D01*
X187383332Y-85447342D02*
X187335713Y-85494961D01*
X187335713Y-85494961D02*
X187240475Y-85542580D01*
X119659523Y-130892580D02*
X119659523Y-130178295D01*
X119659523Y-130178295D02*
X119707142Y-130035438D01*
X119707142Y-130035438D02*
X119802380Y-129940200D01*
X119802380Y-129940200D02*
X119945237Y-129892580D01*
X119945237Y-129892580D02*
X120040475Y-129892580D01*
X119183332Y-129892580D02*
X119183332Y-130892580D01*
X119183332Y-130892580D02*
X118802380Y-130892580D01*
X118802380Y-130892580D02*
X118707142Y-130844961D01*
X118707142Y-130844961D02*
X118659523Y-130797342D01*
X118659523Y-130797342D02*
X118611904Y-130702104D01*
X118611904Y-130702104D02*
X118611904Y-130559247D01*
X118611904Y-130559247D02*
X118659523Y-130464009D01*
X118659523Y-130464009D02*
X118707142Y-130416390D01*
X118707142Y-130416390D02*
X118802380Y-130368771D01*
X118802380Y-130368771D02*
X119183332Y-130368771D01*
X118230951Y-130797342D02*
X118183332Y-130844961D01*
X118183332Y-130844961D02*
X118088094Y-130892580D01*
X118088094Y-130892580D02*
X117849999Y-130892580D01*
X117849999Y-130892580D02*
X117754761Y-130844961D01*
X117754761Y-130844961D02*
X117707142Y-130797342D01*
X117707142Y-130797342D02*
X117659523Y-130702104D01*
X117659523Y-130702104D02*
X117659523Y-130606866D01*
X117659523Y-130606866D02*
X117707142Y-130464009D01*
X117707142Y-130464009D02*
X118278570Y-129892580D01*
X118278570Y-129892580D02*
X117659523Y-129892580D01*
X116754761Y-130892580D02*
X117230951Y-130892580D01*
X117230951Y-130892580D02*
X117278570Y-130416390D01*
X117278570Y-130416390D02*
X117230951Y-130464009D01*
X117230951Y-130464009D02*
X117135713Y-130511628D01*
X117135713Y-130511628D02*
X116897618Y-130511628D01*
X116897618Y-130511628D02*
X116802380Y-130464009D01*
X116802380Y-130464009D02*
X116754761Y-130416390D01*
X116754761Y-130416390D02*
X116707142Y-130321152D01*
X116707142Y-130321152D02*
X116707142Y-130083057D01*
X116707142Y-130083057D02*
X116754761Y-129987819D01*
X116754761Y-129987819D02*
X116802380Y-129940200D01*
X116802380Y-129940200D02*
X116897618Y-129892580D01*
X116897618Y-129892580D02*
X117135713Y-129892580D01*
X117135713Y-129892580D02*
X117230951Y-129940200D01*
X117230951Y-129940200D02*
X117278570Y-129987819D01*
X137833333Y-141892580D02*
X137833333Y-141178295D01*
X137833333Y-141178295D02*
X137880952Y-141035438D01*
X137880952Y-141035438D02*
X137976190Y-140940200D01*
X137976190Y-140940200D02*
X138119047Y-140892580D01*
X138119047Y-140892580D02*
X138214285Y-140892580D01*
X137357142Y-140892580D02*
X137357142Y-141892580D01*
X137357142Y-141892580D02*
X136976190Y-141892580D01*
X136976190Y-141892580D02*
X136880952Y-141844961D01*
X136880952Y-141844961D02*
X136833333Y-141797342D01*
X136833333Y-141797342D02*
X136785714Y-141702104D01*
X136785714Y-141702104D02*
X136785714Y-141559247D01*
X136785714Y-141559247D02*
X136833333Y-141464009D01*
X136833333Y-141464009D02*
X136880952Y-141416390D01*
X136880952Y-141416390D02*
X136976190Y-141368771D01*
X136976190Y-141368771D02*
X137357142Y-141368771D01*
X136309523Y-140892580D02*
X136119047Y-140892580D01*
X136119047Y-140892580D02*
X136023809Y-140940200D01*
X136023809Y-140940200D02*
X135976190Y-140987819D01*
X135976190Y-140987819D02*
X135880952Y-141130676D01*
X135880952Y-141130676D02*
X135833333Y-141321152D01*
X135833333Y-141321152D02*
X135833333Y-141702104D01*
X135833333Y-141702104D02*
X135880952Y-141797342D01*
X135880952Y-141797342D02*
X135928571Y-141844961D01*
X135928571Y-141844961D02*
X136023809Y-141892580D01*
X136023809Y-141892580D02*
X136214285Y-141892580D01*
X136214285Y-141892580D02*
X136309523Y-141844961D01*
X136309523Y-141844961D02*
X136357142Y-141797342D01*
X136357142Y-141797342D02*
X136404761Y-141702104D01*
X136404761Y-141702104D02*
X136404761Y-141464009D01*
X136404761Y-141464009D02*
X136357142Y-141368771D01*
X136357142Y-141368771D02*
X136309523Y-141321152D01*
X136309523Y-141321152D02*
X136214285Y-141273533D01*
X136214285Y-141273533D02*
X136023809Y-141273533D01*
X136023809Y-141273533D02*
X135928571Y-141321152D01*
X135928571Y-141321152D02*
X135880952Y-141368771D01*
X135880952Y-141368771D02*
X135833333Y-141464009D01*
X71459523Y-137492580D02*
X71459523Y-136778295D01*
X71459523Y-136778295D02*
X71507142Y-136635438D01*
X71507142Y-136635438D02*
X71602380Y-136540200D01*
X71602380Y-136540200D02*
X71745237Y-136492580D01*
X71745237Y-136492580D02*
X71840475Y-136492580D01*
X70983332Y-136492580D02*
X70983332Y-137492580D01*
X70983332Y-137492580D02*
X70602380Y-137492580D01*
X70602380Y-137492580D02*
X70507142Y-137444961D01*
X70507142Y-137444961D02*
X70459523Y-137397342D01*
X70459523Y-137397342D02*
X70411904Y-137302104D01*
X70411904Y-137302104D02*
X70411904Y-137159247D01*
X70411904Y-137159247D02*
X70459523Y-137064009D01*
X70459523Y-137064009D02*
X70507142Y-137016390D01*
X70507142Y-137016390D02*
X70602380Y-136968771D01*
X70602380Y-136968771D02*
X70983332Y-136968771D01*
X70030951Y-137397342D02*
X69983332Y-137444961D01*
X69983332Y-137444961D02*
X69888094Y-137492580D01*
X69888094Y-137492580D02*
X69649999Y-137492580D01*
X69649999Y-137492580D02*
X69554761Y-137444961D01*
X69554761Y-137444961D02*
X69507142Y-137397342D01*
X69507142Y-137397342D02*
X69459523Y-137302104D01*
X69459523Y-137302104D02*
X69459523Y-137206866D01*
X69459523Y-137206866D02*
X69507142Y-137064009D01*
X69507142Y-137064009D02*
X70078570Y-136492580D01*
X70078570Y-136492580D02*
X69459523Y-136492580D01*
X68888094Y-137064009D02*
X68983332Y-137111628D01*
X68983332Y-137111628D02*
X69030951Y-137159247D01*
X69030951Y-137159247D02*
X69078570Y-137254485D01*
X69078570Y-137254485D02*
X69078570Y-137302104D01*
X69078570Y-137302104D02*
X69030951Y-137397342D01*
X69030951Y-137397342D02*
X68983332Y-137444961D01*
X68983332Y-137444961D02*
X68888094Y-137492580D01*
X68888094Y-137492580D02*
X68697618Y-137492580D01*
X68697618Y-137492580D02*
X68602380Y-137444961D01*
X68602380Y-137444961D02*
X68554761Y-137397342D01*
X68554761Y-137397342D02*
X68507142Y-137302104D01*
X68507142Y-137302104D02*
X68507142Y-137254485D01*
X68507142Y-137254485D02*
X68554761Y-137159247D01*
X68554761Y-137159247D02*
X68602380Y-137111628D01*
X68602380Y-137111628D02*
X68697618Y-137064009D01*
X68697618Y-137064009D02*
X68888094Y-137064009D01*
X68888094Y-137064009D02*
X68983332Y-137016390D01*
X68983332Y-137016390D02*
X69030951Y-136968771D01*
X69030951Y-136968771D02*
X69078570Y-136873533D01*
X69078570Y-136873533D02*
X69078570Y-136683057D01*
X69078570Y-136683057D02*
X69030951Y-136587819D01*
X69030951Y-136587819D02*
X68983332Y-136540200D01*
X68983332Y-136540200D02*
X68888094Y-136492580D01*
X68888094Y-136492580D02*
X68697618Y-136492580D01*
X68697618Y-136492580D02*
X68602380Y-136540200D01*
X68602380Y-136540200D02*
X68554761Y-136587819D01*
X68554761Y-136587819D02*
X68507142Y-136683057D01*
X68507142Y-136683057D02*
X68507142Y-136873533D01*
X68507142Y-136873533D02*
X68554761Y-136968771D01*
X68554761Y-136968771D02*
X68602380Y-137016390D01*
X68602380Y-137016390D02*
X68697618Y-137064009D01*
X160209523Y-93942580D02*
X160209523Y-93228295D01*
X160209523Y-93228295D02*
X160257142Y-93085438D01*
X160257142Y-93085438D02*
X160352380Y-92990200D01*
X160352380Y-92990200D02*
X160495237Y-92942580D01*
X160495237Y-92942580D02*
X160590475Y-92942580D01*
X159733332Y-92942580D02*
X159733332Y-93942580D01*
X159733332Y-93942580D02*
X159352380Y-93942580D01*
X159352380Y-93942580D02*
X159257142Y-93894961D01*
X159257142Y-93894961D02*
X159209523Y-93847342D01*
X159209523Y-93847342D02*
X159161904Y-93752104D01*
X159161904Y-93752104D02*
X159161904Y-93609247D01*
X159161904Y-93609247D02*
X159209523Y-93514009D01*
X159209523Y-93514009D02*
X159257142Y-93466390D01*
X159257142Y-93466390D02*
X159352380Y-93418771D01*
X159352380Y-93418771D02*
X159733332Y-93418771D01*
X158257142Y-93942580D02*
X158733332Y-93942580D01*
X158733332Y-93942580D02*
X158780951Y-93466390D01*
X158780951Y-93466390D02*
X158733332Y-93514009D01*
X158733332Y-93514009D02*
X158638094Y-93561628D01*
X158638094Y-93561628D02*
X158399999Y-93561628D01*
X158399999Y-93561628D02*
X158304761Y-93514009D01*
X158304761Y-93514009D02*
X158257142Y-93466390D01*
X158257142Y-93466390D02*
X158209523Y-93371152D01*
X158209523Y-93371152D02*
X158209523Y-93133057D01*
X158209523Y-93133057D02*
X158257142Y-93037819D01*
X158257142Y-93037819D02*
X158304761Y-92990200D01*
X158304761Y-92990200D02*
X158399999Y-92942580D01*
X158399999Y-92942580D02*
X158638094Y-92942580D01*
X158638094Y-92942580D02*
X158733332Y-92990200D01*
X158733332Y-92990200D02*
X158780951Y-93037819D01*
X157828570Y-93847342D02*
X157780951Y-93894961D01*
X157780951Y-93894961D02*
X157685713Y-93942580D01*
X157685713Y-93942580D02*
X157447618Y-93942580D01*
X157447618Y-93942580D02*
X157352380Y-93894961D01*
X157352380Y-93894961D02*
X157304761Y-93847342D01*
X157304761Y-93847342D02*
X157257142Y-93752104D01*
X157257142Y-93752104D02*
X157257142Y-93656866D01*
X157257142Y-93656866D02*
X157304761Y-93514009D01*
X157304761Y-93514009D02*
X157876189Y-92942580D01*
X157876189Y-92942580D02*
X157257142Y-92942580D01*
X178709523Y-103492580D02*
X178709523Y-102778295D01*
X178709523Y-102778295D02*
X178757142Y-102635438D01*
X178757142Y-102635438D02*
X178852380Y-102540200D01*
X178852380Y-102540200D02*
X178995237Y-102492580D01*
X178995237Y-102492580D02*
X179090475Y-102492580D01*
X178233332Y-102492580D02*
X178233332Y-103492580D01*
X178233332Y-103492580D02*
X177852380Y-103492580D01*
X177852380Y-103492580D02*
X177757142Y-103444961D01*
X177757142Y-103444961D02*
X177709523Y-103397342D01*
X177709523Y-103397342D02*
X177661904Y-103302104D01*
X177661904Y-103302104D02*
X177661904Y-103159247D01*
X177661904Y-103159247D02*
X177709523Y-103064009D01*
X177709523Y-103064009D02*
X177757142Y-103016390D01*
X177757142Y-103016390D02*
X177852380Y-102968771D01*
X177852380Y-102968771D02*
X178233332Y-102968771D01*
X177328570Y-103492580D02*
X176709523Y-103492580D01*
X176709523Y-103492580D02*
X177042856Y-103111628D01*
X177042856Y-103111628D02*
X176899999Y-103111628D01*
X176899999Y-103111628D02*
X176804761Y-103064009D01*
X176804761Y-103064009D02*
X176757142Y-103016390D01*
X176757142Y-103016390D02*
X176709523Y-102921152D01*
X176709523Y-102921152D02*
X176709523Y-102683057D01*
X176709523Y-102683057D02*
X176757142Y-102587819D01*
X176757142Y-102587819D02*
X176804761Y-102540200D01*
X176804761Y-102540200D02*
X176899999Y-102492580D01*
X176899999Y-102492580D02*
X177185713Y-102492580D01*
X177185713Y-102492580D02*
X177280951Y-102540200D01*
X177280951Y-102540200D02*
X177328570Y-102587819D01*
X175852380Y-103492580D02*
X176042856Y-103492580D01*
X176042856Y-103492580D02*
X176138094Y-103444961D01*
X176138094Y-103444961D02*
X176185713Y-103397342D01*
X176185713Y-103397342D02*
X176280951Y-103254485D01*
X176280951Y-103254485D02*
X176328570Y-103064009D01*
X176328570Y-103064009D02*
X176328570Y-102683057D01*
X176328570Y-102683057D02*
X176280951Y-102587819D01*
X176280951Y-102587819D02*
X176233332Y-102540200D01*
X176233332Y-102540200D02*
X176138094Y-102492580D01*
X176138094Y-102492580D02*
X175947618Y-102492580D01*
X175947618Y-102492580D02*
X175852380Y-102540200D01*
X175852380Y-102540200D02*
X175804761Y-102587819D01*
X175804761Y-102587819D02*
X175757142Y-102683057D01*
X175757142Y-102683057D02*
X175757142Y-102921152D01*
X175757142Y-102921152D02*
X175804761Y-103016390D01*
X175804761Y-103016390D02*
X175852380Y-103064009D01*
X175852380Y-103064009D02*
X175947618Y-103111628D01*
X175947618Y-103111628D02*
X176138094Y-103111628D01*
X176138094Y-103111628D02*
X176233332Y-103064009D01*
X176233332Y-103064009D02*
X176280951Y-103016390D01*
X176280951Y-103016390D02*
X176328570Y-102921152D01*
X105609523Y-147492580D02*
X105609523Y-146778295D01*
X105609523Y-146778295D02*
X105657142Y-146635438D01*
X105657142Y-146635438D02*
X105752380Y-146540200D01*
X105752380Y-146540200D02*
X105895237Y-146492580D01*
X105895237Y-146492580D02*
X105990475Y-146492580D01*
X105133332Y-146492580D02*
X105133332Y-147492580D01*
X105133332Y-147492580D02*
X104752380Y-147492580D01*
X104752380Y-147492580D02*
X104657142Y-147444961D01*
X104657142Y-147444961D02*
X104609523Y-147397342D01*
X104609523Y-147397342D02*
X104561904Y-147302104D01*
X104561904Y-147302104D02*
X104561904Y-147159247D01*
X104561904Y-147159247D02*
X104609523Y-147064009D01*
X104609523Y-147064009D02*
X104657142Y-147016390D01*
X104657142Y-147016390D02*
X104752380Y-146968771D01*
X104752380Y-146968771D02*
X105133332Y-146968771D01*
X103609523Y-146492580D02*
X104180951Y-146492580D01*
X103895237Y-146492580D02*
X103895237Y-147492580D01*
X103895237Y-147492580D02*
X103990475Y-147349723D01*
X103990475Y-147349723D02*
X104085713Y-147254485D01*
X104085713Y-147254485D02*
X104180951Y-147206866D01*
X102657142Y-146492580D02*
X103228570Y-146492580D01*
X102942856Y-146492580D02*
X102942856Y-147492580D01*
X102942856Y-147492580D02*
X103038094Y-147349723D01*
X103038094Y-147349723D02*
X103133332Y-147254485D01*
X103133332Y-147254485D02*
X103228570Y-147206866D01*
X194209523Y-98992580D02*
X194209523Y-98278295D01*
X194209523Y-98278295D02*
X194257142Y-98135438D01*
X194257142Y-98135438D02*
X194352380Y-98040200D01*
X194352380Y-98040200D02*
X194495237Y-97992580D01*
X194495237Y-97992580D02*
X194590475Y-97992580D01*
X193733332Y-97992580D02*
X193733332Y-98992580D01*
X193733332Y-98992580D02*
X193352380Y-98992580D01*
X193352380Y-98992580D02*
X193257142Y-98944961D01*
X193257142Y-98944961D02*
X193209523Y-98897342D01*
X193209523Y-98897342D02*
X193161904Y-98802104D01*
X193161904Y-98802104D02*
X193161904Y-98659247D01*
X193161904Y-98659247D02*
X193209523Y-98564009D01*
X193209523Y-98564009D02*
X193257142Y-98516390D01*
X193257142Y-98516390D02*
X193352380Y-98468771D01*
X193352380Y-98468771D02*
X193733332Y-98468771D01*
X192828570Y-98992580D02*
X192209523Y-98992580D01*
X192209523Y-98992580D02*
X192542856Y-98611628D01*
X192542856Y-98611628D02*
X192399999Y-98611628D01*
X192399999Y-98611628D02*
X192304761Y-98564009D01*
X192304761Y-98564009D02*
X192257142Y-98516390D01*
X192257142Y-98516390D02*
X192209523Y-98421152D01*
X192209523Y-98421152D02*
X192209523Y-98183057D01*
X192209523Y-98183057D02*
X192257142Y-98087819D01*
X192257142Y-98087819D02*
X192304761Y-98040200D01*
X192304761Y-98040200D02*
X192399999Y-97992580D01*
X192399999Y-97992580D02*
X192685713Y-97992580D01*
X192685713Y-97992580D02*
X192780951Y-98040200D01*
X192780951Y-98040200D02*
X192828570Y-98087819D01*
X191304761Y-98992580D02*
X191780951Y-98992580D01*
X191780951Y-98992580D02*
X191828570Y-98516390D01*
X191828570Y-98516390D02*
X191780951Y-98564009D01*
X191780951Y-98564009D02*
X191685713Y-98611628D01*
X191685713Y-98611628D02*
X191447618Y-98611628D01*
X191447618Y-98611628D02*
X191352380Y-98564009D01*
X191352380Y-98564009D02*
X191304761Y-98516390D01*
X191304761Y-98516390D02*
X191257142Y-98421152D01*
X191257142Y-98421152D02*
X191257142Y-98183057D01*
X191257142Y-98183057D02*
X191304761Y-98087819D01*
X191304761Y-98087819D02*
X191352380Y-98040200D01*
X191352380Y-98040200D02*
X191447618Y-97992580D01*
X191447618Y-97992580D02*
X191685713Y-97992580D01*
X191685713Y-97992580D02*
X191780951Y-98040200D01*
X191780951Y-98040200D02*
X191828570Y-98087819D01*
X122059523Y-144742580D02*
X122059523Y-144028295D01*
X122059523Y-144028295D02*
X122107142Y-143885438D01*
X122107142Y-143885438D02*
X122202380Y-143790200D01*
X122202380Y-143790200D02*
X122345237Y-143742580D01*
X122345237Y-143742580D02*
X122440475Y-143742580D01*
X121583332Y-143742580D02*
X121583332Y-144742580D01*
X121583332Y-144742580D02*
X121202380Y-144742580D01*
X121202380Y-144742580D02*
X121107142Y-144694961D01*
X121107142Y-144694961D02*
X121059523Y-144647342D01*
X121059523Y-144647342D02*
X121011904Y-144552104D01*
X121011904Y-144552104D02*
X121011904Y-144409247D01*
X121011904Y-144409247D02*
X121059523Y-144314009D01*
X121059523Y-144314009D02*
X121107142Y-144266390D01*
X121107142Y-144266390D02*
X121202380Y-144218771D01*
X121202380Y-144218771D02*
X121583332Y-144218771D01*
X120059523Y-143742580D02*
X120630951Y-143742580D01*
X120345237Y-143742580D02*
X120345237Y-144742580D01*
X120345237Y-144742580D02*
X120440475Y-144599723D01*
X120440475Y-144599723D02*
X120535713Y-144504485D01*
X120535713Y-144504485D02*
X120630951Y-144456866D01*
X119440475Y-144742580D02*
X119345237Y-144742580D01*
X119345237Y-144742580D02*
X119249999Y-144694961D01*
X119249999Y-144694961D02*
X119202380Y-144647342D01*
X119202380Y-144647342D02*
X119154761Y-144552104D01*
X119154761Y-144552104D02*
X119107142Y-144361628D01*
X119107142Y-144361628D02*
X119107142Y-144123533D01*
X119107142Y-144123533D02*
X119154761Y-143933057D01*
X119154761Y-143933057D02*
X119202380Y-143837819D01*
X119202380Y-143837819D02*
X119249999Y-143790200D01*
X119249999Y-143790200D02*
X119345237Y-143742580D01*
X119345237Y-143742580D02*
X119440475Y-143742580D01*
X119440475Y-143742580D02*
X119535713Y-143790200D01*
X119535713Y-143790200D02*
X119583332Y-143837819D01*
X119583332Y-143837819D02*
X119630951Y-143933057D01*
X119630951Y-143933057D02*
X119678570Y-144123533D01*
X119678570Y-144123533D02*
X119678570Y-144361628D01*
X119678570Y-144361628D02*
X119630951Y-144552104D01*
X119630951Y-144552104D02*
X119583332Y-144647342D01*
X119583332Y-144647342D02*
X119535713Y-144694961D01*
X119535713Y-144694961D02*
X119440475Y-144742580D01*
X264133333Y-102942580D02*
X264133333Y-102228295D01*
X264133333Y-102228295D02*
X264180952Y-102085438D01*
X264180952Y-102085438D02*
X264276190Y-101990200D01*
X264276190Y-101990200D02*
X264419047Y-101942580D01*
X264419047Y-101942580D02*
X264514285Y-101942580D01*
X263657142Y-101942580D02*
X263657142Y-102942580D01*
X263657142Y-102942580D02*
X263276190Y-102942580D01*
X263276190Y-102942580D02*
X263180952Y-102894961D01*
X263180952Y-102894961D02*
X263133333Y-102847342D01*
X263133333Y-102847342D02*
X263085714Y-102752104D01*
X263085714Y-102752104D02*
X263085714Y-102609247D01*
X263085714Y-102609247D02*
X263133333Y-102514009D01*
X263133333Y-102514009D02*
X263180952Y-102466390D01*
X263180952Y-102466390D02*
X263276190Y-102418771D01*
X263276190Y-102418771D02*
X263657142Y-102418771D01*
X262133333Y-101942580D02*
X262704761Y-101942580D01*
X262419047Y-101942580D02*
X262419047Y-102942580D01*
X262419047Y-102942580D02*
X262514285Y-102799723D01*
X262514285Y-102799723D02*
X262609523Y-102704485D01*
X262609523Y-102704485D02*
X262704761Y-102656866D01*
X217679204Y-120735668D02*
X217679204Y-120021383D01*
X217679204Y-120021383D02*
X217726823Y-119878526D01*
X217726823Y-119878526D02*
X217822061Y-119783288D01*
X217822061Y-119783288D02*
X217964918Y-119735668D01*
X217964918Y-119735668D02*
X218060156Y-119735668D01*
X217203013Y-119735668D02*
X217203013Y-120735668D01*
X217203013Y-120735668D02*
X216822061Y-120735668D01*
X216822061Y-120735668D02*
X216726823Y-120688049D01*
X216726823Y-120688049D02*
X216679204Y-120640430D01*
X216679204Y-120640430D02*
X216631585Y-120545192D01*
X216631585Y-120545192D02*
X216631585Y-120402335D01*
X216631585Y-120402335D02*
X216679204Y-120307097D01*
X216679204Y-120307097D02*
X216726823Y-120259478D01*
X216726823Y-120259478D02*
X216822061Y-120211859D01*
X216822061Y-120211859D02*
X217203013Y-120211859D01*
X215774442Y-120402335D02*
X215774442Y-119735668D01*
X216012537Y-120783288D02*
X216250632Y-120069002D01*
X216250632Y-120069002D02*
X215631585Y-120069002D01*
X101709523Y-119842580D02*
X101709523Y-119128295D01*
X101709523Y-119128295D02*
X101757142Y-118985438D01*
X101757142Y-118985438D02*
X101852380Y-118890200D01*
X101852380Y-118890200D02*
X101995237Y-118842580D01*
X101995237Y-118842580D02*
X102090475Y-118842580D01*
X101233332Y-118842580D02*
X101233332Y-119842580D01*
X101233332Y-119842580D02*
X100852380Y-119842580D01*
X100852380Y-119842580D02*
X100757142Y-119794961D01*
X100757142Y-119794961D02*
X100709523Y-119747342D01*
X100709523Y-119747342D02*
X100661904Y-119652104D01*
X100661904Y-119652104D02*
X100661904Y-119509247D01*
X100661904Y-119509247D02*
X100709523Y-119414009D01*
X100709523Y-119414009D02*
X100757142Y-119366390D01*
X100757142Y-119366390D02*
X100852380Y-119318771D01*
X100852380Y-119318771D02*
X101233332Y-119318771D01*
X99804761Y-119509247D02*
X99804761Y-118842580D01*
X100042856Y-119890200D02*
X100280951Y-119175914D01*
X100280951Y-119175914D02*
X99661904Y-119175914D01*
X98757142Y-118842580D02*
X99328570Y-118842580D01*
X99042856Y-118842580D02*
X99042856Y-119842580D01*
X99042856Y-119842580D02*
X99138094Y-119699723D01*
X99138094Y-119699723D02*
X99233332Y-119604485D01*
X99233332Y-119604485D02*
X99328570Y-119556866D01*
X201929204Y-125785668D02*
X201929204Y-125071383D01*
X201929204Y-125071383D02*
X201976823Y-124928526D01*
X201976823Y-124928526D02*
X202072061Y-124833288D01*
X202072061Y-124833288D02*
X202214918Y-124785668D01*
X202214918Y-124785668D02*
X202310156Y-124785668D01*
X201453013Y-124785668D02*
X201453013Y-125785668D01*
X201453013Y-125785668D02*
X201072061Y-125785668D01*
X201072061Y-125785668D02*
X200976823Y-125738049D01*
X200976823Y-125738049D02*
X200929204Y-125690430D01*
X200929204Y-125690430D02*
X200881585Y-125595192D01*
X200881585Y-125595192D02*
X200881585Y-125452335D01*
X200881585Y-125452335D02*
X200929204Y-125357097D01*
X200929204Y-125357097D02*
X200976823Y-125309478D01*
X200976823Y-125309478D02*
X201072061Y-125261859D01*
X201072061Y-125261859D02*
X201453013Y-125261859D01*
X199976823Y-125785668D02*
X200453013Y-125785668D01*
X200453013Y-125785668D02*
X200500632Y-125309478D01*
X200500632Y-125309478D02*
X200453013Y-125357097D01*
X200453013Y-125357097D02*
X200357775Y-125404716D01*
X200357775Y-125404716D02*
X200119680Y-125404716D01*
X200119680Y-125404716D02*
X200024442Y-125357097D01*
X200024442Y-125357097D02*
X199976823Y-125309478D01*
X199976823Y-125309478D02*
X199929204Y-125214240D01*
X199929204Y-125214240D02*
X199929204Y-124976145D01*
X199929204Y-124976145D02*
X199976823Y-124880907D01*
X199976823Y-124880907D02*
X200024442Y-124833288D01*
X200024442Y-124833288D02*
X200119680Y-124785668D01*
X200119680Y-124785668D02*
X200357775Y-124785668D01*
X200357775Y-124785668D02*
X200453013Y-124833288D01*
X200453013Y-124833288D02*
X200500632Y-124880907D01*
X224259523Y-88592580D02*
X224259523Y-87878295D01*
X224259523Y-87878295D02*
X224307142Y-87735438D01*
X224307142Y-87735438D02*
X224402380Y-87640200D01*
X224402380Y-87640200D02*
X224545237Y-87592580D01*
X224545237Y-87592580D02*
X224640475Y-87592580D01*
X223783332Y-87592580D02*
X223783332Y-88592580D01*
X223783332Y-88592580D02*
X223402380Y-88592580D01*
X223402380Y-88592580D02*
X223307142Y-88544961D01*
X223307142Y-88544961D02*
X223259523Y-88497342D01*
X223259523Y-88497342D02*
X223211904Y-88402104D01*
X223211904Y-88402104D02*
X223211904Y-88259247D01*
X223211904Y-88259247D02*
X223259523Y-88164009D01*
X223259523Y-88164009D02*
X223307142Y-88116390D01*
X223307142Y-88116390D02*
X223402380Y-88068771D01*
X223402380Y-88068771D02*
X223783332Y-88068771D01*
X222878570Y-88592580D02*
X222259523Y-88592580D01*
X222259523Y-88592580D02*
X222592856Y-88211628D01*
X222592856Y-88211628D02*
X222449999Y-88211628D01*
X222449999Y-88211628D02*
X222354761Y-88164009D01*
X222354761Y-88164009D02*
X222307142Y-88116390D01*
X222307142Y-88116390D02*
X222259523Y-88021152D01*
X222259523Y-88021152D02*
X222259523Y-87783057D01*
X222259523Y-87783057D02*
X222307142Y-87687819D01*
X222307142Y-87687819D02*
X222354761Y-87640200D01*
X222354761Y-87640200D02*
X222449999Y-87592580D01*
X222449999Y-87592580D02*
X222735713Y-87592580D01*
X222735713Y-87592580D02*
X222830951Y-87640200D01*
X222830951Y-87640200D02*
X222878570Y-87687819D01*
X221926189Y-88592580D02*
X221307142Y-88592580D01*
X221307142Y-88592580D02*
X221640475Y-88211628D01*
X221640475Y-88211628D02*
X221497618Y-88211628D01*
X221497618Y-88211628D02*
X221402380Y-88164009D01*
X221402380Y-88164009D02*
X221354761Y-88116390D01*
X221354761Y-88116390D02*
X221307142Y-88021152D01*
X221307142Y-88021152D02*
X221307142Y-87783057D01*
X221307142Y-87783057D02*
X221354761Y-87687819D01*
X221354761Y-87687819D02*
X221402380Y-87640200D01*
X221402380Y-87640200D02*
X221497618Y-87592580D01*
X221497618Y-87592580D02*
X221783332Y-87592580D01*
X221783332Y-87592580D02*
X221878570Y-87640200D01*
X221878570Y-87640200D02*
X221926189Y-87687819D01*
X259259523Y-90092580D02*
X259259523Y-89378295D01*
X259259523Y-89378295D02*
X259307142Y-89235438D01*
X259307142Y-89235438D02*
X259402380Y-89140200D01*
X259402380Y-89140200D02*
X259545237Y-89092580D01*
X259545237Y-89092580D02*
X259640475Y-89092580D01*
X258783332Y-89092580D02*
X258783332Y-90092580D01*
X258783332Y-90092580D02*
X258402380Y-90092580D01*
X258402380Y-90092580D02*
X258307142Y-90044961D01*
X258307142Y-90044961D02*
X258259523Y-89997342D01*
X258259523Y-89997342D02*
X258211904Y-89902104D01*
X258211904Y-89902104D02*
X258211904Y-89759247D01*
X258211904Y-89759247D02*
X258259523Y-89664009D01*
X258259523Y-89664009D02*
X258307142Y-89616390D01*
X258307142Y-89616390D02*
X258402380Y-89568771D01*
X258402380Y-89568771D02*
X258783332Y-89568771D01*
X257259523Y-89092580D02*
X257830951Y-89092580D01*
X257545237Y-89092580D02*
X257545237Y-90092580D01*
X257545237Y-90092580D02*
X257640475Y-89949723D01*
X257640475Y-89949723D02*
X257735713Y-89854485D01*
X257735713Y-89854485D02*
X257830951Y-89806866D01*
X256402380Y-90092580D02*
X256592856Y-90092580D01*
X256592856Y-90092580D02*
X256688094Y-90044961D01*
X256688094Y-90044961D02*
X256735713Y-89997342D01*
X256735713Y-89997342D02*
X256830951Y-89854485D01*
X256830951Y-89854485D02*
X256878570Y-89664009D01*
X256878570Y-89664009D02*
X256878570Y-89283057D01*
X256878570Y-89283057D02*
X256830951Y-89187819D01*
X256830951Y-89187819D02*
X256783332Y-89140200D01*
X256783332Y-89140200D02*
X256688094Y-89092580D01*
X256688094Y-89092580D02*
X256497618Y-89092580D01*
X256497618Y-89092580D02*
X256402380Y-89140200D01*
X256402380Y-89140200D02*
X256354761Y-89187819D01*
X256354761Y-89187819D02*
X256307142Y-89283057D01*
X256307142Y-89283057D02*
X256307142Y-89521152D01*
X256307142Y-89521152D02*
X256354761Y-89616390D01*
X256354761Y-89616390D02*
X256402380Y-89664009D01*
X256402380Y-89664009D02*
X256497618Y-89711628D01*
X256497618Y-89711628D02*
X256688094Y-89711628D01*
X256688094Y-89711628D02*
X256783332Y-89664009D01*
X256783332Y-89664009D02*
X256830951Y-89616390D01*
X256830951Y-89616390D02*
X256878570Y-89521152D01*
X135659523Y-128142580D02*
X135659523Y-127428295D01*
X135659523Y-127428295D02*
X135707142Y-127285438D01*
X135707142Y-127285438D02*
X135802380Y-127190200D01*
X135802380Y-127190200D02*
X135945237Y-127142580D01*
X135945237Y-127142580D02*
X136040475Y-127142580D01*
X135183332Y-127142580D02*
X135183332Y-128142580D01*
X135183332Y-128142580D02*
X134802380Y-128142580D01*
X134802380Y-128142580D02*
X134707142Y-128094961D01*
X134707142Y-128094961D02*
X134659523Y-128047342D01*
X134659523Y-128047342D02*
X134611904Y-127952104D01*
X134611904Y-127952104D02*
X134611904Y-127809247D01*
X134611904Y-127809247D02*
X134659523Y-127714009D01*
X134659523Y-127714009D02*
X134707142Y-127666390D01*
X134707142Y-127666390D02*
X134802380Y-127618771D01*
X134802380Y-127618771D02*
X135183332Y-127618771D01*
X134230951Y-128047342D02*
X134183332Y-128094961D01*
X134183332Y-128094961D02*
X134088094Y-128142580D01*
X134088094Y-128142580D02*
X133849999Y-128142580D01*
X133849999Y-128142580D02*
X133754761Y-128094961D01*
X133754761Y-128094961D02*
X133707142Y-128047342D01*
X133707142Y-128047342D02*
X133659523Y-127952104D01*
X133659523Y-127952104D02*
X133659523Y-127856866D01*
X133659523Y-127856866D02*
X133707142Y-127714009D01*
X133707142Y-127714009D02*
X134278570Y-127142580D01*
X134278570Y-127142580D02*
X133659523Y-127142580D01*
X132802380Y-127809247D02*
X132802380Y-127142580D01*
X133040475Y-128190200D02*
X133278570Y-127475914D01*
X133278570Y-127475914D02*
X132659523Y-127475914D01*
X204855394Y-80685668D02*
X204855394Y-79971383D01*
X204855394Y-79971383D02*
X204903013Y-79828526D01*
X204903013Y-79828526D02*
X204998251Y-79733288D01*
X204998251Y-79733288D02*
X205141108Y-79685668D01*
X205141108Y-79685668D02*
X205236346Y-79685668D01*
X204379203Y-79685668D02*
X204379203Y-80685668D01*
X204379203Y-80685668D02*
X203998251Y-80685668D01*
X203998251Y-80685668D02*
X203903013Y-80638049D01*
X203903013Y-80638049D02*
X203855394Y-80590430D01*
X203855394Y-80590430D02*
X203807775Y-80495192D01*
X203807775Y-80495192D02*
X203807775Y-80352335D01*
X203807775Y-80352335D02*
X203855394Y-80257097D01*
X203855394Y-80257097D02*
X203903013Y-80209478D01*
X203903013Y-80209478D02*
X203998251Y-80161859D01*
X203998251Y-80161859D02*
X204379203Y-80161859D01*
X202950632Y-80352335D02*
X202950632Y-79685668D01*
X203188727Y-80733288D02*
X203426822Y-80019002D01*
X203426822Y-80019002D02*
X202807775Y-80019002D01*
X202379203Y-79685668D02*
X202188727Y-79685668D01*
X202188727Y-79685668D02*
X202093489Y-79733288D01*
X202093489Y-79733288D02*
X202045870Y-79780907D01*
X202045870Y-79780907D02*
X201950632Y-79923764D01*
X201950632Y-79923764D02*
X201903013Y-80114240D01*
X201903013Y-80114240D02*
X201903013Y-80495192D01*
X201903013Y-80495192D02*
X201950632Y-80590430D01*
X201950632Y-80590430D02*
X201998251Y-80638049D01*
X201998251Y-80638049D02*
X202093489Y-80685668D01*
X202093489Y-80685668D02*
X202283965Y-80685668D01*
X202283965Y-80685668D02*
X202379203Y-80638049D01*
X202379203Y-80638049D02*
X202426822Y-80590430D01*
X202426822Y-80590430D02*
X202474441Y-80495192D01*
X202474441Y-80495192D02*
X202474441Y-80257097D01*
X202474441Y-80257097D02*
X202426822Y-80161859D01*
X202426822Y-80161859D02*
X202379203Y-80114240D01*
X202379203Y-80114240D02*
X202283965Y-80066621D01*
X202283965Y-80066621D02*
X202093489Y-80066621D01*
X202093489Y-80066621D02*
X201998251Y-80114240D01*
X201998251Y-80114240D02*
X201950632Y-80161859D01*
X201950632Y-80161859D02*
X201903013Y-80257097D01*
X37909523Y-111742580D02*
X37909523Y-111028295D01*
X37909523Y-111028295D02*
X37957142Y-110885438D01*
X37957142Y-110885438D02*
X38052380Y-110790200D01*
X38052380Y-110790200D02*
X38195237Y-110742580D01*
X38195237Y-110742580D02*
X38290475Y-110742580D01*
X37433332Y-110742580D02*
X37433332Y-111742580D01*
X37433332Y-111742580D02*
X37052380Y-111742580D01*
X37052380Y-111742580D02*
X36957142Y-111694961D01*
X36957142Y-111694961D02*
X36909523Y-111647342D01*
X36909523Y-111647342D02*
X36861904Y-111552104D01*
X36861904Y-111552104D02*
X36861904Y-111409247D01*
X36861904Y-111409247D02*
X36909523Y-111314009D01*
X36909523Y-111314009D02*
X36957142Y-111266390D01*
X36957142Y-111266390D02*
X37052380Y-111218771D01*
X37052380Y-111218771D02*
X37433332Y-111218771D01*
X36004761Y-111742580D02*
X36195237Y-111742580D01*
X36195237Y-111742580D02*
X36290475Y-111694961D01*
X36290475Y-111694961D02*
X36338094Y-111647342D01*
X36338094Y-111647342D02*
X36433332Y-111504485D01*
X36433332Y-111504485D02*
X36480951Y-111314009D01*
X36480951Y-111314009D02*
X36480951Y-110933057D01*
X36480951Y-110933057D02*
X36433332Y-110837819D01*
X36433332Y-110837819D02*
X36385713Y-110790200D01*
X36385713Y-110790200D02*
X36290475Y-110742580D01*
X36290475Y-110742580D02*
X36099999Y-110742580D01*
X36099999Y-110742580D02*
X36004761Y-110790200D01*
X36004761Y-110790200D02*
X35957142Y-110837819D01*
X35957142Y-110837819D02*
X35909523Y-110933057D01*
X35909523Y-110933057D02*
X35909523Y-111171152D01*
X35909523Y-111171152D02*
X35957142Y-111266390D01*
X35957142Y-111266390D02*
X36004761Y-111314009D01*
X36004761Y-111314009D02*
X36099999Y-111361628D01*
X36099999Y-111361628D02*
X36290475Y-111361628D01*
X36290475Y-111361628D02*
X36385713Y-111314009D01*
X36385713Y-111314009D02*
X36433332Y-111266390D01*
X36433332Y-111266390D02*
X36480951Y-111171152D01*
X35290475Y-111742580D02*
X35195237Y-111742580D01*
X35195237Y-111742580D02*
X35099999Y-111694961D01*
X35099999Y-111694961D02*
X35052380Y-111647342D01*
X35052380Y-111647342D02*
X35004761Y-111552104D01*
X35004761Y-111552104D02*
X34957142Y-111361628D01*
X34957142Y-111361628D02*
X34957142Y-111123533D01*
X34957142Y-111123533D02*
X35004761Y-110933057D01*
X35004761Y-110933057D02*
X35052380Y-110837819D01*
X35052380Y-110837819D02*
X35099999Y-110790200D01*
X35099999Y-110790200D02*
X35195237Y-110742580D01*
X35195237Y-110742580D02*
X35290475Y-110742580D01*
X35290475Y-110742580D02*
X35385713Y-110790200D01*
X35385713Y-110790200D02*
X35433332Y-110837819D01*
X35433332Y-110837819D02*
X35480951Y-110933057D01*
X35480951Y-110933057D02*
X35528570Y-111123533D01*
X35528570Y-111123533D02*
X35528570Y-111361628D01*
X35528570Y-111361628D02*
X35480951Y-111552104D01*
X35480951Y-111552104D02*
X35433332Y-111647342D01*
X35433332Y-111647342D02*
X35385713Y-111694961D01*
X35385713Y-111694961D02*
X35290475Y-111742580D01*
X87509523Y-135792580D02*
X87509523Y-135078295D01*
X87509523Y-135078295D02*
X87557142Y-134935438D01*
X87557142Y-134935438D02*
X87652380Y-134840200D01*
X87652380Y-134840200D02*
X87795237Y-134792580D01*
X87795237Y-134792580D02*
X87890475Y-134792580D01*
X87033332Y-134792580D02*
X87033332Y-135792580D01*
X87033332Y-135792580D02*
X86652380Y-135792580D01*
X86652380Y-135792580D02*
X86557142Y-135744961D01*
X86557142Y-135744961D02*
X86509523Y-135697342D01*
X86509523Y-135697342D02*
X86461904Y-135602104D01*
X86461904Y-135602104D02*
X86461904Y-135459247D01*
X86461904Y-135459247D02*
X86509523Y-135364009D01*
X86509523Y-135364009D02*
X86557142Y-135316390D01*
X86557142Y-135316390D02*
X86652380Y-135268771D01*
X86652380Y-135268771D02*
X87033332Y-135268771D01*
X86080951Y-135697342D02*
X86033332Y-135744961D01*
X86033332Y-135744961D02*
X85938094Y-135792580D01*
X85938094Y-135792580D02*
X85699999Y-135792580D01*
X85699999Y-135792580D02*
X85604761Y-135744961D01*
X85604761Y-135744961D02*
X85557142Y-135697342D01*
X85557142Y-135697342D02*
X85509523Y-135602104D01*
X85509523Y-135602104D02*
X85509523Y-135506866D01*
X85509523Y-135506866D02*
X85557142Y-135364009D01*
X85557142Y-135364009D02*
X86128570Y-134792580D01*
X86128570Y-134792580D02*
X85509523Y-134792580D01*
X85176189Y-135792580D02*
X84509523Y-135792580D01*
X84509523Y-135792580D02*
X84938094Y-134792580D01*
X39659523Y-153442580D02*
X39659523Y-152728295D01*
X39659523Y-152728295D02*
X39707142Y-152585438D01*
X39707142Y-152585438D02*
X39802380Y-152490200D01*
X39802380Y-152490200D02*
X39945237Y-152442580D01*
X39945237Y-152442580D02*
X40040475Y-152442580D01*
X39183332Y-152442580D02*
X39183332Y-153442580D01*
X39183332Y-153442580D02*
X38802380Y-153442580D01*
X38802380Y-153442580D02*
X38707142Y-153394961D01*
X38707142Y-153394961D02*
X38659523Y-153347342D01*
X38659523Y-153347342D02*
X38611904Y-153252104D01*
X38611904Y-153252104D02*
X38611904Y-153109247D01*
X38611904Y-153109247D02*
X38659523Y-153014009D01*
X38659523Y-153014009D02*
X38707142Y-152966390D01*
X38707142Y-152966390D02*
X38802380Y-152918771D01*
X38802380Y-152918771D02*
X39183332Y-152918771D01*
X37659523Y-152442580D02*
X38230951Y-152442580D01*
X37945237Y-152442580D02*
X37945237Y-153442580D01*
X37945237Y-153442580D02*
X38040475Y-153299723D01*
X38040475Y-153299723D02*
X38135713Y-153204485D01*
X38135713Y-153204485D02*
X38230951Y-153156866D01*
X36754761Y-153442580D02*
X37230951Y-153442580D01*
X37230951Y-153442580D02*
X37278570Y-152966390D01*
X37278570Y-152966390D02*
X37230951Y-153014009D01*
X37230951Y-153014009D02*
X37135713Y-153061628D01*
X37135713Y-153061628D02*
X36897618Y-153061628D01*
X36897618Y-153061628D02*
X36802380Y-153014009D01*
X36802380Y-153014009D02*
X36754761Y-152966390D01*
X36754761Y-152966390D02*
X36707142Y-152871152D01*
X36707142Y-152871152D02*
X36707142Y-152633057D01*
X36707142Y-152633057D02*
X36754761Y-152537819D01*
X36754761Y-152537819D02*
X36802380Y-152490200D01*
X36802380Y-152490200D02*
X36897618Y-152442580D01*
X36897618Y-152442580D02*
X37135713Y-152442580D01*
X37135713Y-152442580D02*
X37230951Y-152490200D01*
X37230951Y-152490200D02*
X37278570Y-152537819D01*
X151359523Y-124742580D02*
X151359523Y-124028295D01*
X151359523Y-124028295D02*
X151407142Y-123885438D01*
X151407142Y-123885438D02*
X151502380Y-123790200D01*
X151502380Y-123790200D02*
X151645237Y-123742580D01*
X151645237Y-123742580D02*
X151740475Y-123742580D01*
X150883332Y-123742580D02*
X150883332Y-124742580D01*
X150883332Y-124742580D02*
X150502380Y-124742580D01*
X150502380Y-124742580D02*
X150407142Y-124694961D01*
X150407142Y-124694961D02*
X150359523Y-124647342D01*
X150359523Y-124647342D02*
X150311904Y-124552104D01*
X150311904Y-124552104D02*
X150311904Y-124409247D01*
X150311904Y-124409247D02*
X150359523Y-124314009D01*
X150359523Y-124314009D02*
X150407142Y-124266390D01*
X150407142Y-124266390D02*
X150502380Y-124218771D01*
X150502380Y-124218771D02*
X150883332Y-124218771D01*
X149930951Y-124647342D02*
X149883332Y-124694961D01*
X149883332Y-124694961D02*
X149788094Y-124742580D01*
X149788094Y-124742580D02*
X149549999Y-124742580D01*
X149549999Y-124742580D02*
X149454761Y-124694961D01*
X149454761Y-124694961D02*
X149407142Y-124647342D01*
X149407142Y-124647342D02*
X149359523Y-124552104D01*
X149359523Y-124552104D02*
X149359523Y-124456866D01*
X149359523Y-124456866D02*
X149407142Y-124314009D01*
X149407142Y-124314009D02*
X149978570Y-123742580D01*
X149978570Y-123742580D02*
X149359523Y-123742580D01*
X149026189Y-124742580D02*
X148407142Y-124742580D01*
X148407142Y-124742580D02*
X148740475Y-124361628D01*
X148740475Y-124361628D02*
X148597618Y-124361628D01*
X148597618Y-124361628D02*
X148502380Y-124314009D01*
X148502380Y-124314009D02*
X148454761Y-124266390D01*
X148454761Y-124266390D02*
X148407142Y-124171152D01*
X148407142Y-124171152D02*
X148407142Y-123933057D01*
X148407142Y-123933057D02*
X148454761Y-123837819D01*
X148454761Y-123837819D02*
X148502380Y-123790200D01*
X148502380Y-123790200D02*
X148597618Y-123742580D01*
X148597618Y-123742580D02*
X148883332Y-123742580D01*
X148883332Y-123742580D02*
X148978570Y-123790200D01*
X148978570Y-123790200D02*
X149026189Y-123837819D01*
X38609523Y-125642580D02*
X38609523Y-124928295D01*
X38609523Y-124928295D02*
X38657142Y-124785438D01*
X38657142Y-124785438D02*
X38752380Y-124690200D01*
X38752380Y-124690200D02*
X38895237Y-124642580D01*
X38895237Y-124642580D02*
X38990475Y-124642580D01*
X38133332Y-124642580D02*
X38133332Y-125642580D01*
X38133332Y-125642580D02*
X37752380Y-125642580D01*
X37752380Y-125642580D02*
X37657142Y-125594961D01*
X37657142Y-125594961D02*
X37609523Y-125547342D01*
X37609523Y-125547342D02*
X37561904Y-125452104D01*
X37561904Y-125452104D02*
X37561904Y-125309247D01*
X37561904Y-125309247D02*
X37609523Y-125214009D01*
X37609523Y-125214009D02*
X37657142Y-125166390D01*
X37657142Y-125166390D02*
X37752380Y-125118771D01*
X37752380Y-125118771D02*
X38133332Y-125118771D01*
X36704761Y-125309247D02*
X36704761Y-124642580D01*
X36942856Y-125690200D02*
X37180951Y-124975914D01*
X37180951Y-124975914D02*
X36561904Y-124975914D01*
X35704761Y-125642580D02*
X36180951Y-125642580D01*
X36180951Y-125642580D02*
X36228570Y-125166390D01*
X36228570Y-125166390D02*
X36180951Y-125214009D01*
X36180951Y-125214009D02*
X36085713Y-125261628D01*
X36085713Y-125261628D02*
X35847618Y-125261628D01*
X35847618Y-125261628D02*
X35752380Y-125214009D01*
X35752380Y-125214009D02*
X35704761Y-125166390D01*
X35704761Y-125166390D02*
X35657142Y-125071152D01*
X35657142Y-125071152D02*
X35657142Y-124833057D01*
X35657142Y-124833057D02*
X35704761Y-124737819D01*
X35704761Y-124737819D02*
X35752380Y-124690200D01*
X35752380Y-124690200D02*
X35847618Y-124642580D01*
X35847618Y-124642580D02*
X36085713Y-124642580D01*
X36085713Y-124642580D02*
X36180951Y-124690200D01*
X36180951Y-124690200D02*
X36228570Y-124737819D01*
X39209523Y-139792580D02*
X39209523Y-139078295D01*
X39209523Y-139078295D02*
X39257142Y-138935438D01*
X39257142Y-138935438D02*
X39352380Y-138840200D01*
X39352380Y-138840200D02*
X39495237Y-138792580D01*
X39495237Y-138792580D02*
X39590475Y-138792580D01*
X38733332Y-138792580D02*
X38733332Y-139792580D01*
X38733332Y-139792580D02*
X38352380Y-139792580D01*
X38352380Y-139792580D02*
X38257142Y-139744961D01*
X38257142Y-139744961D02*
X38209523Y-139697342D01*
X38209523Y-139697342D02*
X38161904Y-139602104D01*
X38161904Y-139602104D02*
X38161904Y-139459247D01*
X38161904Y-139459247D02*
X38209523Y-139364009D01*
X38209523Y-139364009D02*
X38257142Y-139316390D01*
X38257142Y-139316390D02*
X38352380Y-139268771D01*
X38352380Y-139268771D02*
X38733332Y-139268771D01*
X37828570Y-139792580D02*
X37209523Y-139792580D01*
X37209523Y-139792580D02*
X37542856Y-139411628D01*
X37542856Y-139411628D02*
X37399999Y-139411628D01*
X37399999Y-139411628D02*
X37304761Y-139364009D01*
X37304761Y-139364009D02*
X37257142Y-139316390D01*
X37257142Y-139316390D02*
X37209523Y-139221152D01*
X37209523Y-139221152D02*
X37209523Y-138983057D01*
X37209523Y-138983057D02*
X37257142Y-138887819D01*
X37257142Y-138887819D02*
X37304761Y-138840200D01*
X37304761Y-138840200D02*
X37399999Y-138792580D01*
X37399999Y-138792580D02*
X37685713Y-138792580D01*
X37685713Y-138792580D02*
X37780951Y-138840200D01*
X37780951Y-138840200D02*
X37828570Y-138887819D01*
X36590475Y-139792580D02*
X36495237Y-139792580D01*
X36495237Y-139792580D02*
X36399999Y-139744961D01*
X36399999Y-139744961D02*
X36352380Y-139697342D01*
X36352380Y-139697342D02*
X36304761Y-139602104D01*
X36304761Y-139602104D02*
X36257142Y-139411628D01*
X36257142Y-139411628D02*
X36257142Y-139173533D01*
X36257142Y-139173533D02*
X36304761Y-138983057D01*
X36304761Y-138983057D02*
X36352380Y-138887819D01*
X36352380Y-138887819D02*
X36399999Y-138840200D01*
X36399999Y-138840200D02*
X36495237Y-138792580D01*
X36495237Y-138792580D02*
X36590475Y-138792580D01*
X36590475Y-138792580D02*
X36685713Y-138840200D01*
X36685713Y-138840200D02*
X36733332Y-138887819D01*
X36733332Y-138887819D02*
X36780951Y-138983057D01*
X36780951Y-138983057D02*
X36828570Y-139173533D01*
X36828570Y-139173533D02*
X36828570Y-139411628D01*
X36828570Y-139411628D02*
X36780951Y-139602104D01*
X36780951Y-139602104D02*
X36733332Y-139697342D01*
X36733332Y-139697342D02*
X36685713Y-139744961D01*
X36685713Y-139744961D02*
X36590475Y-139792580D01*
X167155394Y-120935668D02*
X167155394Y-120221383D01*
X167155394Y-120221383D02*
X167203013Y-120078526D01*
X167203013Y-120078526D02*
X167298251Y-119983288D01*
X167298251Y-119983288D02*
X167441108Y-119935668D01*
X167441108Y-119935668D02*
X167536346Y-119935668D01*
X166679203Y-119935668D02*
X166679203Y-120935668D01*
X166679203Y-120935668D02*
X166298251Y-120935668D01*
X166298251Y-120935668D02*
X166203013Y-120888049D01*
X166203013Y-120888049D02*
X166155394Y-120840430D01*
X166155394Y-120840430D02*
X166107775Y-120745192D01*
X166107775Y-120745192D02*
X166107775Y-120602335D01*
X166107775Y-120602335D02*
X166155394Y-120507097D01*
X166155394Y-120507097D02*
X166203013Y-120459478D01*
X166203013Y-120459478D02*
X166298251Y-120411859D01*
X166298251Y-120411859D02*
X166679203Y-120411859D01*
X165726822Y-120840430D02*
X165679203Y-120888049D01*
X165679203Y-120888049D02*
X165583965Y-120935668D01*
X165583965Y-120935668D02*
X165345870Y-120935668D01*
X165345870Y-120935668D02*
X165250632Y-120888049D01*
X165250632Y-120888049D02*
X165203013Y-120840430D01*
X165203013Y-120840430D02*
X165155394Y-120745192D01*
X165155394Y-120745192D02*
X165155394Y-120649954D01*
X165155394Y-120649954D02*
X165203013Y-120507097D01*
X165203013Y-120507097D02*
X165774441Y-119935668D01*
X165774441Y-119935668D02*
X165155394Y-119935668D01*
X164774441Y-120840430D02*
X164726822Y-120888049D01*
X164726822Y-120888049D02*
X164631584Y-120935668D01*
X164631584Y-120935668D02*
X164393489Y-120935668D01*
X164393489Y-120935668D02*
X164298251Y-120888049D01*
X164298251Y-120888049D02*
X164250632Y-120840430D01*
X164250632Y-120840430D02*
X164203013Y-120745192D01*
X164203013Y-120745192D02*
X164203013Y-120649954D01*
X164203013Y-120649954D02*
X164250632Y-120507097D01*
X164250632Y-120507097D02*
X164822060Y-119935668D01*
X164822060Y-119935668D02*
X164203013Y-119935668D01*
X219505394Y-75735668D02*
X219505394Y-75021383D01*
X219505394Y-75021383D02*
X219553013Y-74878526D01*
X219553013Y-74878526D02*
X219648251Y-74783288D01*
X219648251Y-74783288D02*
X219791108Y-74735668D01*
X219791108Y-74735668D02*
X219886346Y-74735668D01*
X219029203Y-74735668D02*
X219029203Y-75735668D01*
X219029203Y-75735668D02*
X218648251Y-75735668D01*
X218648251Y-75735668D02*
X218553013Y-75688049D01*
X218553013Y-75688049D02*
X218505394Y-75640430D01*
X218505394Y-75640430D02*
X218457775Y-75545192D01*
X218457775Y-75545192D02*
X218457775Y-75402335D01*
X218457775Y-75402335D02*
X218505394Y-75307097D01*
X218505394Y-75307097D02*
X218553013Y-75259478D01*
X218553013Y-75259478D02*
X218648251Y-75211859D01*
X218648251Y-75211859D02*
X219029203Y-75211859D01*
X217600632Y-75402335D02*
X217600632Y-74735668D01*
X217838727Y-75783288D02*
X218076822Y-75069002D01*
X218076822Y-75069002D02*
X217457775Y-75069002D01*
X216933965Y-75307097D02*
X217029203Y-75354716D01*
X217029203Y-75354716D02*
X217076822Y-75402335D01*
X217076822Y-75402335D02*
X217124441Y-75497573D01*
X217124441Y-75497573D02*
X217124441Y-75545192D01*
X217124441Y-75545192D02*
X217076822Y-75640430D01*
X217076822Y-75640430D02*
X217029203Y-75688049D01*
X217029203Y-75688049D02*
X216933965Y-75735668D01*
X216933965Y-75735668D02*
X216743489Y-75735668D01*
X216743489Y-75735668D02*
X216648251Y-75688049D01*
X216648251Y-75688049D02*
X216600632Y-75640430D01*
X216600632Y-75640430D02*
X216553013Y-75545192D01*
X216553013Y-75545192D02*
X216553013Y-75497573D01*
X216553013Y-75497573D02*
X216600632Y-75402335D01*
X216600632Y-75402335D02*
X216648251Y-75354716D01*
X216648251Y-75354716D02*
X216743489Y-75307097D01*
X216743489Y-75307097D02*
X216933965Y-75307097D01*
X216933965Y-75307097D02*
X217029203Y-75259478D01*
X217029203Y-75259478D02*
X217076822Y-75211859D01*
X217076822Y-75211859D02*
X217124441Y-75116621D01*
X217124441Y-75116621D02*
X217124441Y-74926145D01*
X217124441Y-74926145D02*
X217076822Y-74830907D01*
X217076822Y-74830907D02*
X217029203Y-74783288D01*
X217029203Y-74783288D02*
X216933965Y-74735668D01*
X216933965Y-74735668D02*
X216743489Y-74735668D01*
X216743489Y-74735668D02*
X216648251Y-74783288D01*
X216648251Y-74783288D02*
X216600632Y-74830907D01*
X216600632Y-74830907D02*
X216553013Y-74926145D01*
X216553013Y-74926145D02*
X216553013Y-75116621D01*
X216553013Y-75116621D02*
X216600632Y-75211859D01*
X216600632Y-75211859D02*
X216648251Y-75259478D01*
X216648251Y-75259478D02*
X216743489Y-75307097D01*
X233859523Y-70192580D02*
X233859523Y-69478295D01*
X233859523Y-69478295D02*
X233907142Y-69335438D01*
X233907142Y-69335438D02*
X234002380Y-69240200D01*
X234002380Y-69240200D02*
X234145237Y-69192580D01*
X234145237Y-69192580D02*
X234240475Y-69192580D01*
X233383332Y-69192580D02*
X233383332Y-70192580D01*
X233383332Y-70192580D02*
X233002380Y-70192580D01*
X233002380Y-70192580D02*
X232907142Y-70144961D01*
X232907142Y-70144961D02*
X232859523Y-70097342D01*
X232859523Y-70097342D02*
X232811904Y-70002104D01*
X232811904Y-70002104D02*
X232811904Y-69859247D01*
X232811904Y-69859247D02*
X232859523Y-69764009D01*
X232859523Y-69764009D02*
X232907142Y-69716390D01*
X232907142Y-69716390D02*
X233002380Y-69668771D01*
X233002380Y-69668771D02*
X233383332Y-69668771D01*
X231954761Y-69859247D02*
X231954761Y-69192580D01*
X232192856Y-70240200D02*
X232430951Y-69525914D01*
X232430951Y-69525914D02*
X231811904Y-69525914D01*
X231526189Y-70192580D02*
X230859523Y-70192580D01*
X230859523Y-70192580D02*
X231288094Y-69192580D01*
X53509523Y-110542580D02*
X53509523Y-109828295D01*
X53509523Y-109828295D02*
X53557142Y-109685438D01*
X53557142Y-109685438D02*
X53652380Y-109590200D01*
X53652380Y-109590200D02*
X53795237Y-109542580D01*
X53795237Y-109542580D02*
X53890475Y-109542580D01*
X53033332Y-109542580D02*
X53033332Y-110542580D01*
X53033332Y-110542580D02*
X52652380Y-110542580D01*
X52652380Y-110542580D02*
X52557142Y-110494961D01*
X52557142Y-110494961D02*
X52509523Y-110447342D01*
X52509523Y-110447342D02*
X52461904Y-110352104D01*
X52461904Y-110352104D02*
X52461904Y-110209247D01*
X52461904Y-110209247D02*
X52509523Y-110114009D01*
X52509523Y-110114009D02*
X52557142Y-110066390D01*
X52557142Y-110066390D02*
X52652380Y-110018771D01*
X52652380Y-110018771D02*
X53033332Y-110018771D01*
X51557142Y-110542580D02*
X52033332Y-110542580D01*
X52033332Y-110542580D02*
X52080951Y-110066390D01*
X52080951Y-110066390D02*
X52033332Y-110114009D01*
X52033332Y-110114009D02*
X51938094Y-110161628D01*
X51938094Y-110161628D02*
X51699999Y-110161628D01*
X51699999Y-110161628D02*
X51604761Y-110114009D01*
X51604761Y-110114009D02*
X51557142Y-110066390D01*
X51557142Y-110066390D02*
X51509523Y-109971152D01*
X51509523Y-109971152D02*
X51509523Y-109733057D01*
X51509523Y-109733057D02*
X51557142Y-109637819D01*
X51557142Y-109637819D02*
X51604761Y-109590200D01*
X51604761Y-109590200D02*
X51699999Y-109542580D01*
X51699999Y-109542580D02*
X51938094Y-109542580D01*
X51938094Y-109542580D02*
X52033332Y-109590200D01*
X52033332Y-109590200D02*
X52080951Y-109637819D01*
X51033332Y-109542580D02*
X50842856Y-109542580D01*
X50842856Y-109542580D02*
X50747618Y-109590200D01*
X50747618Y-109590200D02*
X50699999Y-109637819D01*
X50699999Y-109637819D02*
X50604761Y-109780676D01*
X50604761Y-109780676D02*
X50557142Y-109971152D01*
X50557142Y-109971152D02*
X50557142Y-110352104D01*
X50557142Y-110352104D02*
X50604761Y-110447342D01*
X50604761Y-110447342D02*
X50652380Y-110494961D01*
X50652380Y-110494961D02*
X50747618Y-110542580D01*
X50747618Y-110542580D02*
X50938094Y-110542580D01*
X50938094Y-110542580D02*
X51033332Y-110494961D01*
X51033332Y-110494961D02*
X51080951Y-110447342D01*
X51080951Y-110447342D02*
X51128570Y-110352104D01*
X51128570Y-110352104D02*
X51128570Y-110114009D01*
X51128570Y-110114009D02*
X51080951Y-110018771D01*
X51080951Y-110018771D02*
X51033332Y-109971152D01*
X51033332Y-109971152D02*
X50938094Y-109923533D01*
X50938094Y-109923533D02*
X50747618Y-109923533D01*
X50747618Y-109923533D02*
X50652380Y-109971152D01*
X50652380Y-109971152D02*
X50604761Y-110018771D01*
X50604761Y-110018771D02*
X50557142Y-110114009D01*
X175159523Y-89842580D02*
X175159523Y-89128295D01*
X175159523Y-89128295D02*
X175207142Y-88985438D01*
X175207142Y-88985438D02*
X175302380Y-88890200D01*
X175302380Y-88890200D02*
X175445237Y-88842580D01*
X175445237Y-88842580D02*
X175540475Y-88842580D01*
X174683332Y-88842580D02*
X174683332Y-89842580D01*
X174683332Y-89842580D02*
X174302380Y-89842580D01*
X174302380Y-89842580D02*
X174207142Y-89794961D01*
X174207142Y-89794961D02*
X174159523Y-89747342D01*
X174159523Y-89747342D02*
X174111904Y-89652104D01*
X174111904Y-89652104D02*
X174111904Y-89509247D01*
X174111904Y-89509247D02*
X174159523Y-89414009D01*
X174159523Y-89414009D02*
X174207142Y-89366390D01*
X174207142Y-89366390D02*
X174302380Y-89318771D01*
X174302380Y-89318771D02*
X174683332Y-89318771D01*
X173207142Y-89842580D02*
X173683332Y-89842580D01*
X173683332Y-89842580D02*
X173730951Y-89366390D01*
X173730951Y-89366390D02*
X173683332Y-89414009D01*
X173683332Y-89414009D02*
X173588094Y-89461628D01*
X173588094Y-89461628D02*
X173349999Y-89461628D01*
X173349999Y-89461628D02*
X173254761Y-89414009D01*
X173254761Y-89414009D02*
X173207142Y-89366390D01*
X173207142Y-89366390D02*
X173159523Y-89271152D01*
X173159523Y-89271152D02*
X173159523Y-89033057D01*
X173159523Y-89033057D02*
X173207142Y-88937819D01*
X173207142Y-88937819D02*
X173254761Y-88890200D01*
X173254761Y-88890200D02*
X173349999Y-88842580D01*
X173349999Y-88842580D02*
X173588094Y-88842580D01*
X173588094Y-88842580D02*
X173683332Y-88890200D01*
X173683332Y-88890200D02*
X173730951Y-88937819D01*
X172207142Y-88842580D02*
X172778570Y-88842580D01*
X172492856Y-88842580D02*
X172492856Y-89842580D01*
X172492856Y-89842580D02*
X172588094Y-89699723D01*
X172588094Y-89699723D02*
X172683332Y-89604485D01*
X172683332Y-89604485D02*
X172778570Y-89556866D01*
X229105394Y-101985668D02*
X229105394Y-101271383D01*
X229105394Y-101271383D02*
X229153013Y-101128526D01*
X229153013Y-101128526D02*
X229248251Y-101033288D01*
X229248251Y-101033288D02*
X229391108Y-100985668D01*
X229391108Y-100985668D02*
X229486346Y-100985668D01*
X228629203Y-100985668D02*
X228629203Y-101985668D01*
X228629203Y-101985668D02*
X228248251Y-101985668D01*
X228248251Y-101985668D02*
X228153013Y-101938049D01*
X228153013Y-101938049D02*
X228105394Y-101890430D01*
X228105394Y-101890430D02*
X228057775Y-101795192D01*
X228057775Y-101795192D02*
X228057775Y-101652335D01*
X228057775Y-101652335D02*
X228105394Y-101557097D01*
X228105394Y-101557097D02*
X228153013Y-101509478D01*
X228153013Y-101509478D02*
X228248251Y-101461859D01*
X228248251Y-101461859D02*
X228629203Y-101461859D01*
X227105394Y-100985668D02*
X227676822Y-100985668D01*
X227391108Y-100985668D02*
X227391108Y-101985668D01*
X227391108Y-101985668D02*
X227486346Y-101842811D01*
X227486346Y-101842811D02*
X227581584Y-101747573D01*
X227581584Y-101747573D02*
X227676822Y-101699954D01*
X226533965Y-101557097D02*
X226629203Y-101604716D01*
X226629203Y-101604716D02*
X226676822Y-101652335D01*
X226676822Y-101652335D02*
X226724441Y-101747573D01*
X226724441Y-101747573D02*
X226724441Y-101795192D01*
X226724441Y-101795192D02*
X226676822Y-101890430D01*
X226676822Y-101890430D02*
X226629203Y-101938049D01*
X226629203Y-101938049D02*
X226533965Y-101985668D01*
X226533965Y-101985668D02*
X226343489Y-101985668D01*
X226343489Y-101985668D02*
X226248251Y-101938049D01*
X226248251Y-101938049D02*
X226200632Y-101890430D01*
X226200632Y-101890430D02*
X226153013Y-101795192D01*
X226153013Y-101795192D02*
X226153013Y-101747573D01*
X226153013Y-101747573D02*
X226200632Y-101652335D01*
X226200632Y-101652335D02*
X226248251Y-101604716D01*
X226248251Y-101604716D02*
X226343489Y-101557097D01*
X226343489Y-101557097D02*
X226533965Y-101557097D01*
X226533965Y-101557097D02*
X226629203Y-101509478D01*
X226629203Y-101509478D02*
X226676822Y-101461859D01*
X226676822Y-101461859D02*
X226724441Y-101366621D01*
X226724441Y-101366621D02*
X226724441Y-101176145D01*
X226724441Y-101176145D02*
X226676822Y-101080907D01*
X226676822Y-101080907D02*
X226629203Y-101033288D01*
X226629203Y-101033288D02*
X226533965Y-100985668D01*
X226533965Y-100985668D02*
X226343489Y-100985668D01*
X226343489Y-100985668D02*
X226248251Y-101033288D01*
X226248251Y-101033288D02*
X226200632Y-101080907D01*
X226200632Y-101080907D02*
X226153013Y-101176145D01*
X226153013Y-101176145D02*
X226153013Y-101366621D01*
X226153013Y-101366621D02*
X226200632Y-101461859D01*
X226200632Y-101461859D02*
X226248251Y-101509478D01*
X226248251Y-101509478D02*
X226343489Y-101557097D01*
X115059523Y-103492580D02*
X115059523Y-102778295D01*
X115059523Y-102778295D02*
X115107142Y-102635438D01*
X115107142Y-102635438D02*
X115202380Y-102540200D01*
X115202380Y-102540200D02*
X115345237Y-102492580D01*
X115345237Y-102492580D02*
X115440475Y-102492580D01*
X114583332Y-102492580D02*
X114583332Y-103492580D01*
X114583332Y-103492580D02*
X114202380Y-103492580D01*
X114202380Y-103492580D02*
X114107142Y-103444961D01*
X114107142Y-103444961D02*
X114059523Y-103397342D01*
X114059523Y-103397342D02*
X114011904Y-103302104D01*
X114011904Y-103302104D02*
X114011904Y-103159247D01*
X114011904Y-103159247D02*
X114059523Y-103064009D01*
X114059523Y-103064009D02*
X114107142Y-103016390D01*
X114107142Y-103016390D02*
X114202380Y-102968771D01*
X114202380Y-102968771D02*
X114583332Y-102968771D01*
X113107142Y-103492580D02*
X113583332Y-103492580D01*
X113583332Y-103492580D02*
X113630951Y-103016390D01*
X113630951Y-103016390D02*
X113583332Y-103064009D01*
X113583332Y-103064009D02*
X113488094Y-103111628D01*
X113488094Y-103111628D02*
X113249999Y-103111628D01*
X113249999Y-103111628D02*
X113154761Y-103064009D01*
X113154761Y-103064009D02*
X113107142Y-103016390D01*
X113107142Y-103016390D02*
X113059523Y-102921152D01*
X113059523Y-102921152D02*
X113059523Y-102683057D01*
X113059523Y-102683057D02*
X113107142Y-102587819D01*
X113107142Y-102587819D02*
X113154761Y-102540200D01*
X113154761Y-102540200D02*
X113249999Y-102492580D01*
X113249999Y-102492580D02*
X113488094Y-102492580D01*
X113488094Y-102492580D02*
X113583332Y-102540200D01*
X113583332Y-102540200D02*
X113630951Y-102587819D01*
X112154761Y-103492580D02*
X112630951Y-103492580D01*
X112630951Y-103492580D02*
X112678570Y-103016390D01*
X112678570Y-103016390D02*
X112630951Y-103064009D01*
X112630951Y-103064009D02*
X112535713Y-103111628D01*
X112535713Y-103111628D02*
X112297618Y-103111628D01*
X112297618Y-103111628D02*
X112202380Y-103064009D01*
X112202380Y-103064009D02*
X112154761Y-103016390D01*
X112154761Y-103016390D02*
X112107142Y-102921152D01*
X112107142Y-102921152D02*
X112107142Y-102683057D01*
X112107142Y-102683057D02*
X112154761Y-102587819D01*
X112154761Y-102587819D02*
X112202380Y-102540200D01*
X112202380Y-102540200D02*
X112297618Y-102492580D01*
X112297618Y-102492580D02*
X112535713Y-102492580D01*
X112535713Y-102492580D02*
X112630951Y-102540200D01*
X112630951Y-102540200D02*
X112678570Y-102587819D01*
X103509523Y-133542580D02*
X103509523Y-132828295D01*
X103509523Y-132828295D02*
X103557142Y-132685438D01*
X103557142Y-132685438D02*
X103652380Y-132590200D01*
X103652380Y-132590200D02*
X103795237Y-132542580D01*
X103795237Y-132542580D02*
X103890475Y-132542580D01*
X103033332Y-132542580D02*
X103033332Y-133542580D01*
X103033332Y-133542580D02*
X102652380Y-133542580D01*
X102652380Y-133542580D02*
X102557142Y-133494961D01*
X102557142Y-133494961D02*
X102509523Y-133447342D01*
X102509523Y-133447342D02*
X102461904Y-133352104D01*
X102461904Y-133352104D02*
X102461904Y-133209247D01*
X102461904Y-133209247D02*
X102509523Y-133114009D01*
X102509523Y-133114009D02*
X102557142Y-133066390D01*
X102557142Y-133066390D02*
X102652380Y-133018771D01*
X102652380Y-133018771D02*
X103033332Y-133018771D01*
X102080951Y-133447342D02*
X102033332Y-133494961D01*
X102033332Y-133494961D02*
X101938094Y-133542580D01*
X101938094Y-133542580D02*
X101699999Y-133542580D01*
X101699999Y-133542580D02*
X101604761Y-133494961D01*
X101604761Y-133494961D02*
X101557142Y-133447342D01*
X101557142Y-133447342D02*
X101509523Y-133352104D01*
X101509523Y-133352104D02*
X101509523Y-133256866D01*
X101509523Y-133256866D02*
X101557142Y-133114009D01*
X101557142Y-133114009D02*
X102128570Y-132542580D01*
X102128570Y-132542580D02*
X101509523Y-132542580D01*
X100652380Y-133542580D02*
X100842856Y-133542580D01*
X100842856Y-133542580D02*
X100938094Y-133494961D01*
X100938094Y-133494961D02*
X100985713Y-133447342D01*
X100985713Y-133447342D02*
X101080951Y-133304485D01*
X101080951Y-133304485D02*
X101128570Y-133114009D01*
X101128570Y-133114009D02*
X101128570Y-132733057D01*
X101128570Y-132733057D02*
X101080951Y-132637819D01*
X101080951Y-132637819D02*
X101033332Y-132590200D01*
X101033332Y-132590200D02*
X100938094Y-132542580D01*
X100938094Y-132542580D02*
X100747618Y-132542580D01*
X100747618Y-132542580D02*
X100652380Y-132590200D01*
X100652380Y-132590200D02*
X100604761Y-132637819D01*
X100604761Y-132637819D02*
X100557142Y-132733057D01*
X100557142Y-132733057D02*
X100557142Y-132971152D01*
X100557142Y-132971152D02*
X100604761Y-133066390D01*
X100604761Y-133066390D02*
X100652380Y-133114009D01*
X100652380Y-133114009D02*
X100747618Y-133161628D01*
X100747618Y-133161628D02*
X100938094Y-133161628D01*
X100938094Y-133161628D02*
X101033332Y-133114009D01*
X101033332Y-133114009D02*
X101080951Y-133066390D01*
X101080951Y-133066390D02*
X101128570Y-132971152D01*
X85909523Y-121792580D02*
X85909523Y-121078295D01*
X85909523Y-121078295D02*
X85957142Y-120935438D01*
X85957142Y-120935438D02*
X86052380Y-120840200D01*
X86052380Y-120840200D02*
X86195237Y-120792580D01*
X86195237Y-120792580D02*
X86290475Y-120792580D01*
X85433332Y-120792580D02*
X85433332Y-121792580D01*
X85433332Y-121792580D02*
X85052380Y-121792580D01*
X85052380Y-121792580D02*
X84957142Y-121744961D01*
X84957142Y-121744961D02*
X84909523Y-121697342D01*
X84909523Y-121697342D02*
X84861904Y-121602104D01*
X84861904Y-121602104D02*
X84861904Y-121459247D01*
X84861904Y-121459247D02*
X84909523Y-121364009D01*
X84909523Y-121364009D02*
X84957142Y-121316390D01*
X84957142Y-121316390D02*
X85052380Y-121268771D01*
X85052380Y-121268771D02*
X85433332Y-121268771D01*
X84004761Y-121459247D02*
X84004761Y-120792580D01*
X84242856Y-121840200D02*
X84480951Y-121125914D01*
X84480951Y-121125914D02*
X83861904Y-121125914D01*
X83528570Y-121697342D02*
X83480951Y-121744961D01*
X83480951Y-121744961D02*
X83385713Y-121792580D01*
X83385713Y-121792580D02*
X83147618Y-121792580D01*
X83147618Y-121792580D02*
X83052380Y-121744961D01*
X83052380Y-121744961D02*
X83004761Y-121697342D01*
X83004761Y-121697342D02*
X82957142Y-121602104D01*
X82957142Y-121602104D02*
X82957142Y-121506866D01*
X82957142Y-121506866D02*
X83004761Y-121364009D01*
X83004761Y-121364009D02*
X83576189Y-120792580D01*
X83576189Y-120792580D02*
X82957142Y-120792580D01*
X213805394Y-107435668D02*
X213805394Y-106721383D01*
X213805394Y-106721383D02*
X213853013Y-106578526D01*
X213853013Y-106578526D02*
X213948251Y-106483288D01*
X213948251Y-106483288D02*
X214091108Y-106435668D01*
X214091108Y-106435668D02*
X214186346Y-106435668D01*
X213329203Y-106435668D02*
X213329203Y-107435668D01*
X213329203Y-107435668D02*
X212948251Y-107435668D01*
X212948251Y-107435668D02*
X212853013Y-107388049D01*
X212853013Y-107388049D02*
X212805394Y-107340430D01*
X212805394Y-107340430D02*
X212757775Y-107245192D01*
X212757775Y-107245192D02*
X212757775Y-107102335D01*
X212757775Y-107102335D02*
X212805394Y-107007097D01*
X212805394Y-107007097D02*
X212853013Y-106959478D01*
X212853013Y-106959478D02*
X212948251Y-106911859D01*
X212948251Y-106911859D02*
X213329203Y-106911859D01*
X211805394Y-106435668D02*
X212376822Y-106435668D01*
X212091108Y-106435668D02*
X212091108Y-107435668D01*
X212091108Y-107435668D02*
X212186346Y-107292811D01*
X212186346Y-107292811D02*
X212281584Y-107197573D01*
X212281584Y-107197573D02*
X212376822Y-107149954D01*
X211329203Y-106435668D02*
X211138727Y-106435668D01*
X211138727Y-106435668D02*
X211043489Y-106483288D01*
X211043489Y-106483288D02*
X210995870Y-106530907D01*
X210995870Y-106530907D02*
X210900632Y-106673764D01*
X210900632Y-106673764D02*
X210853013Y-106864240D01*
X210853013Y-106864240D02*
X210853013Y-107245192D01*
X210853013Y-107245192D02*
X210900632Y-107340430D01*
X210900632Y-107340430D02*
X210948251Y-107388049D01*
X210948251Y-107388049D02*
X211043489Y-107435668D01*
X211043489Y-107435668D02*
X211233965Y-107435668D01*
X211233965Y-107435668D02*
X211329203Y-107388049D01*
X211329203Y-107388049D02*
X211376822Y-107340430D01*
X211376822Y-107340430D02*
X211424441Y-107245192D01*
X211424441Y-107245192D02*
X211424441Y-107007097D01*
X211424441Y-107007097D02*
X211376822Y-106911859D01*
X211376822Y-106911859D02*
X211329203Y-106864240D01*
X211329203Y-106864240D02*
X211233965Y-106816621D01*
X211233965Y-106816621D02*
X211043489Y-106816621D01*
X211043489Y-106816621D02*
X210948251Y-106864240D01*
X210948251Y-106864240D02*
X210900632Y-106911859D01*
X210900632Y-106911859D02*
X210853013Y-107007097D01*
X253755394Y-77335668D02*
X253755394Y-76621383D01*
X253755394Y-76621383D02*
X253803013Y-76478526D01*
X253803013Y-76478526D02*
X253898251Y-76383288D01*
X253898251Y-76383288D02*
X254041108Y-76335668D01*
X254041108Y-76335668D02*
X254136346Y-76335668D01*
X253279203Y-76335668D02*
X253279203Y-77335668D01*
X253279203Y-77335668D02*
X252898251Y-77335668D01*
X252898251Y-77335668D02*
X252803013Y-77288049D01*
X252803013Y-77288049D02*
X252755394Y-77240430D01*
X252755394Y-77240430D02*
X252707775Y-77145192D01*
X252707775Y-77145192D02*
X252707775Y-77002335D01*
X252707775Y-77002335D02*
X252755394Y-76907097D01*
X252755394Y-76907097D02*
X252803013Y-76859478D01*
X252803013Y-76859478D02*
X252898251Y-76811859D01*
X252898251Y-76811859D02*
X253279203Y-76811859D01*
X252374441Y-77335668D02*
X251755394Y-77335668D01*
X251755394Y-77335668D02*
X252088727Y-76954716D01*
X252088727Y-76954716D02*
X251945870Y-76954716D01*
X251945870Y-76954716D02*
X251850632Y-76907097D01*
X251850632Y-76907097D02*
X251803013Y-76859478D01*
X251803013Y-76859478D02*
X251755394Y-76764240D01*
X251755394Y-76764240D02*
X251755394Y-76526145D01*
X251755394Y-76526145D02*
X251803013Y-76430907D01*
X251803013Y-76430907D02*
X251850632Y-76383288D01*
X251850632Y-76383288D02*
X251945870Y-76335668D01*
X251945870Y-76335668D02*
X252231584Y-76335668D01*
X252231584Y-76335668D02*
X252326822Y-76383288D01*
X252326822Y-76383288D02*
X252374441Y-76430907D01*
X250803013Y-76335668D02*
X251374441Y-76335668D01*
X251088727Y-76335668D02*
X251088727Y-77335668D01*
X251088727Y-77335668D02*
X251183965Y-77192811D01*
X251183965Y-77192811D02*
X251279203Y-77097573D01*
X251279203Y-77097573D02*
X251374441Y-77049954D01*
X117359523Y-117242580D02*
X117359523Y-116528295D01*
X117359523Y-116528295D02*
X117407142Y-116385438D01*
X117407142Y-116385438D02*
X117502380Y-116290200D01*
X117502380Y-116290200D02*
X117645237Y-116242580D01*
X117645237Y-116242580D02*
X117740475Y-116242580D01*
X116883332Y-116242580D02*
X116883332Y-117242580D01*
X116883332Y-117242580D02*
X116502380Y-117242580D01*
X116502380Y-117242580D02*
X116407142Y-117194961D01*
X116407142Y-117194961D02*
X116359523Y-117147342D01*
X116359523Y-117147342D02*
X116311904Y-117052104D01*
X116311904Y-117052104D02*
X116311904Y-116909247D01*
X116311904Y-116909247D02*
X116359523Y-116814009D01*
X116359523Y-116814009D02*
X116407142Y-116766390D01*
X116407142Y-116766390D02*
X116502380Y-116718771D01*
X116502380Y-116718771D02*
X116883332Y-116718771D01*
X115454761Y-116909247D02*
X115454761Y-116242580D01*
X115692856Y-117290200D02*
X115930951Y-116575914D01*
X115930951Y-116575914D02*
X115311904Y-116575914D01*
X114740475Y-117242580D02*
X114645237Y-117242580D01*
X114645237Y-117242580D02*
X114549999Y-117194961D01*
X114549999Y-117194961D02*
X114502380Y-117147342D01*
X114502380Y-117147342D02*
X114454761Y-117052104D01*
X114454761Y-117052104D02*
X114407142Y-116861628D01*
X114407142Y-116861628D02*
X114407142Y-116623533D01*
X114407142Y-116623533D02*
X114454761Y-116433057D01*
X114454761Y-116433057D02*
X114502380Y-116337819D01*
X114502380Y-116337819D02*
X114549999Y-116290200D01*
X114549999Y-116290200D02*
X114645237Y-116242580D01*
X114645237Y-116242580D02*
X114740475Y-116242580D01*
X114740475Y-116242580D02*
X114835713Y-116290200D01*
X114835713Y-116290200D02*
X114883332Y-116337819D01*
X114883332Y-116337819D02*
X114930951Y-116433057D01*
X114930951Y-116433057D02*
X114978570Y-116623533D01*
X114978570Y-116623533D02*
X114978570Y-116861628D01*
X114978570Y-116861628D02*
X114930951Y-117052104D01*
X114930951Y-117052104D02*
X114883332Y-117147342D01*
X114883332Y-117147342D02*
X114835713Y-117194961D01*
X114835713Y-117194961D02*
X114740475Y-117242580D01*
X248833333Y-109342580D02*
X248833333Y-108628295D01*
X248833333Y-108628295D02*
X248880952Y-108485438D01*
X248880952Y-108485438D02*
X248976190Y-108390200D01*
X248976190Y-108390200D02*
X249119047Y-108342580D01*
X249119047Y-108342580D02*
X249214285Y-108342580D01*
X248357142Y-108342580D02*
X248357142Y-109342580D01*
X248357142Y-109342580D02*
X247976190Y-109342580D01*
X247976190Y-109342580D02*
X247880952Y-109294961D01*
X247880952Y-109294961D02*
X247833333Y-109247342D01*
X247833333Y-109247342D02*
X247785714Y-109152104D01*
X247785714Y-109152104D02*
X247785714Y-109009247D01*
X247785714Y-109009247D02*
X247833333Y-108914009D01*
X247833333Y-108914009D02*
X247880952Y-108866390D01*
X247880952Y-108866390D02*
X247976190Y-108818771D01*
X247976190Y-108818771D02*
X248357142Y-108818771D01*
X247404761Y-109247342D02*
X247357142Y-109294961D01*
X247357142Y-109294961D02*
X247261904Y-109342580D01*
X247261904Y-109342580D02*
X247023809Y-109342580D01*
X247023809Y-109342580D02*
X246928571Y-109294961D01*
X246928571Y-109294961D02*
X246880952Y-109247342D01*
X246880952Y-109247342D02*
X246833333Y-109152104D01*
X246833333Y-109152104D02*
X246833333Y-109056866D01*
X246833333Y-109056866D02*
X246880952Y-108914009D01*
X246880952Y-108914009D02*
X247452380Y-108342580D01*
X247452380Y-108342580D02*
X246833333Y-108342580D01*
X154029204Y-138385668D02*
X154029204Y-137671383D01*
X154029204Y-137671383D02*
X154076823Y-137528526D01*
X154076823Y-137528526D02*
X154172061Y-137433288D01*
X154172061Y-137433288D02*
X154314918Y-137385668D01*
X154314918Y-137385668D02*
X154410156Y-137385668D01*
X153553013Y-137385668D02*
X153553013Y-138385668D01*
X153553013Y-138385668D02*
X153172061Y-138385668D01*
X153172061Y-138385668D02*
X153076823Y-138338049D01*
X153076823Y-138338049D02*
X153029204Y-138290430D01*
X153029204Y-138290430D02*
X152981585Y-138195192D01*
X152981585Y-138195192D02*
X152981585Y-138052335D01*
X152981585Y-138052335D02*
X153029204Y-137957097D01*
X153029204Y-137957097D02*
X153076823Y-137909478D01*
X153076823Y-137909478D02*
X153172061Y-137861859D01*
X153172061Y-137861859D02*
X153553013Y-137861859D01*
X152410156Y-137957097D02*
X152505394Y-138004716D01*
X152505394Y-138004716D02*
X152553013Y-138052335D01*
X152553013Y-138052335D02*
X152600632Y-138147573D01*
X152600632Y-138147573D02*
X152600632Y-138195192D01*
X152600632Y-138195192D02*
X152553013Y-138290430D01*
X152553013Y-138290430D02*
X152505394Y-138338049D01*
X152505394Y-138338049D02*
X152410156Y-138385668D01*
X152410156Y-138385668D02*
X152219680Y-138385668D01*
X152219680Y-138385668D02*
X152124442Y-138338049D01*
X152124442Y-138338049D02*
X152076823Y-138290430D01*
X152076823Y-138290430D02*
X152029204Y-138195192D01*
X152029204Y-138195192D02*
X152029204Y-138147573D01*
X152029204Y-138147573D02*
X152076823Y-138052335D01*
X152076823Y-138052335D02*
X152124442Y-138004716D01*
X152124442Y-138004716D02*
X152219680Y-137957097D01*
X152219680Y-137957097D02*
X152410156Y-137957097D01*
X152410156Y-137957097D02*
X152505394Y-137909478D01*
X152505394Y-137909478D02*
X152553013Y-137861859D01*
X152553013Y-137861859D02*
X152600632Y-137766621D01*
X152600632Y-137766621D02*
X152600632Y-137576145D01*
X152600632Y-137576145D02*
X152553013Y-137480907D01*
X152553013Y-137480907D02*
X152505394Y-137433288D01*
X152505394Y-137433288D02*
X152410156Y-137385668D01*
X152410156Y-137385668D02*
X152219680Y-137385668D01*
X152219680Y-137385668D02*
X152124442Y-137433288D01*
X152124442Y-137433288D02*
X152076823Y-137480907D01*
X152076823Y-137480907D02*
X152029204Y-137576145D01*
X152029204Y-137576145D02*
X152029204Y-137766621D01*
X152029204Y-137766621D02*
X152076823Y-137861859D01*
X152076823Y-137861859D02*
X152124442Y-137909478D01*
X152124442Y-137909478D02*
X152219680Y-137957097D01*
M02*
