<?xml version="1.0" standalone="no"?>
<!DOCTYPE svg PUBLIC "-//W3C//DTD SVG 1.1//EN"
  "http://www.w3.org/Graphics/SVG/1.1/DTD/svg11.dtd">
<svg width="262mm" height="98.99999999999997mm" viewBox="-131 -49.499999999999986 262 98.99999999999997" xmlns="http://www.w3.org/2000/svg" version="1.1">
	<title>svgOutput</title>
	<desc>made with tinkercad</desc>
<path d="M 129.8300018310547 -12.793999671936032 L 130 -11.499999999999998 L 130 43.49999999999999 L 129.8300018310547 44.79399871826171 L 129.3300018310547 45.99999999999999 L 128.53599548339844 47.035999298095696 L 127.5 47.83000183105468 L 126.29399871826172 48.33000183105467 L 125 48.499999999999986 L 0 48.499999999999986 L -65.53600311279297 48.499999999999986 L -125 48.499999999999986 L -126.29399871826172 48.33000183105467 L -127.5 47.83000183105468 L -128.53599548339844 47.035999298095696 L -129.3300018310547 45.99999999999999 L -129.8300018310547 44.79399871826171 L -130 43.49999999999999 L -130 1.1102230246251565e-16 L -130 -11.499999999999998 L -129.8300018310547 -12.793999671936032 L -129.3300018310547 -13.999999999999996 L -128.53599548339844 -15.036000251770016 L -127.5 -15.829999923706051 L -126.29399871826172 -16.32999992370605 L -125 -16.499999999999996 L -98.30400085449219 -16.499999999999996 L -93.5 -16.499999999999996 L -92.7239990234375 -16.60199928283691 L -92 -16.90200042724609 L -91.37899780273438 -17.378999710083004 L -90.9020004272461 -17.999999999999996 L -90.60199737548828 -18.72400093078613 L -90.5 -19.499999999999996 L -90.5 -48.499999999999986 L -86.68814086914062 -48.499999999999986 L -79.30000305175781 -48.499999999999986 L -79.30000305175781 -19.499999999999996 L -79.197998046875 -18.72400093078613 L -78.89800262451172 -17.999999999999996 L -78.4209976196289 -17.378999710083004 L -77.80000305175781 -16.90200042724609 L -77.07599639892578 -16.60199928283691 L -76.30000305175781 -16.499999999999996 L -65.53600311279297 -16.499999999999996 L 0 -16.499999999999996 L 125 -16.499999999999996 L 126.29399871826172 -16.32999992370605 L 127.5 -15.829999923706051 L 128.53599548339844 -15.036000251770016 L 129.3300018310547 -13.999999999999996 L 129.8300018310547 -12.793999671936032 z" fill="none" stroke="rgb(255,0,0)" stroke-width="0.001mm" />
</svg>