<?xml version="1.0" standalone="no"?>
<!DOCTYPE svg PUBLIC "-//W3C//DTD SVG 1.1//EN"
  "http://www.w3.org/Graphics/SVG/1.1/DTD/svg11.dtd">
<svg width="262mm" height="85.99999999999999mm" viewBox="-131 -42.99999999999999 262 85.99999999999999" xmlns="http://www.w3.org/2000/svg" version="1.1">
	<title>svgOutput</title>
	<desc>made with tinkercad</desc>
<path d="M 129.8300018310547 -9.293999671936033 L 130 -7.999999999999998 L 130 36.99999999999999 L 129.8300018310547 38.29399871826171 L 129.3300018310547 39.49999999999999 L 128.53599548339844 40.535999298095696 L 127.5 41.33000183105468 L 126.29399871826172 41.83000183105468 L 125 41.99999999999999 L 0 41.99999999999999 L -65.53600311279297 41.99999999999999 L -125 41.99999999999999 L -126.29399871826172 41.83000183105468 L -127.5 41.33000183105468 L -128.53599548339844 40.535999298095696 L -129.3300018310547 39.49999999999999 L -129.8300018310547 38.29399871826171 L -130 36.99999999999999 L -130 1.1102230246251565e-16 L -130 -7.999999999999998 L -129.8300018310547 -9.293999671936033 L -129.3300018310547 -10.499999999999998 L -128.53599548339844 -11.536000251770018 L -127.5 -12.329999923706051 L -126.29399871826172 -12.829999923706051 L -125 -12.999999999999996 L -98.30400085449219 -12.999999999999996 L -93.65499877929688 -12.999999999999996 L -92.87899780273438 -13.102000236511227 L -92.15499877929688 -13.40200042724609 L -91.53399658203125 -13.878999710083004 L -91.05699920654297 -14.499999999999996 L -90.75700378417969 -15.223999977111813 L -90.65499877929688 -15.999999999999996 L -90.65499877929688 -41.99999999999999 L -87.23747253417969 -41.99999999999999 L -78.25499725341797 -41.99999999999999 L -78.25499725341797 -15.999999999999996 L -78.15299987792969 -15.223999977111813 L -77.85299682617188 -14.499999999999996 L -77.37699890136719 -13.878999710083004 L -76.75499725341797 -13.40200042724609 L -76.03199768066406 -13.102000236511227 L -75.25499725341797 -12.999999999999996 L -65.53600311279297 -12.999999999999996 L 0 -12.999999999999996 L 125 -12.999999999999996 L 126.29399871826172 -12.829999923706051 L 127.5 -12.329999923706051 L 128.53599548339844 -11.536000251770018 L 129.3300018310547 -10.499999999999998 L 129.8300018310547 -9.293999671936033 z" fill="none" stroke="rgb(255,0,0)" stroke-width="0.001mm" />
</svg>