<?xml version="1.0" encoding="utf-8"?>
<!-- Generator: Fusion 360, Shaper Origin Export Add-In, Version 1.9.0  -->
<svg xmlns="http://www.w3.org/2000/svg" xmlns:xlink="http://www.w3.org/1999/xlink" xmlns:shaper="http://www.shapertools.com/namespaces/shaper" shaper:fusionaddin="version:1.9.0" width="10.9738775cm" height="25.9993247cm" version="1.1" x="0cm" y="0cm" viewBox="0 0 10.9738775 25.9993247" enable-background="new 0 0 10.9738775 25.9993247" xml:space="preserve"><path d="M-5.1460038,13.0751794 A0.5,0.5 89.5618469 0,1 -5.6496517,12.5619423 L-5.6496517,12.5619423 -5.6377499,12.1512851 -5.6238295,11.7411024 -5.6078843,11.3313957 -5.5899061,10.9221669 -5.5698845,10.5134184 -5.5478073,10.1051531 -5.5236599,9.6973745 -5.4974259,9.2900863 -5.4690873,8.8832928 -5.438624,8.4769988 -5.4060146,8.0712093 -5.3712359,7.6659297 -5.3342635,7.2611657 -5.2950717,6.8569235 -5.2536337,6.4532092 -5.2099218,6.0500295 -5.1639075,5.6473909 -5.140028,5.4462768 -5.1155619,5.2453004 -5.0905058,5.0444628 -5.0648558,4.8437648 -5.0386083,4.6432072 -5.0117597,4.442791 -4.9843063,4.2425169 -4.9562444,4.0423858 -4.9275705,3.8423986 -4.8982811,3.642556 -4.8683726,3.442859 -4.8378416,3.2433084 -4.8066847,3.0439048 -4.7748986,2.8446492 -4.7424802,2.6455422 -4.7094264,2.4465845 -4.6757341,2.247777 -4.6414006,2.0491201 -4.6064229,1.8506147 -4.5707987,1.6522613 -4.5345253,1.4540605 -4.4976005,1.2560127 -4.4600222,1.0581186 -4.4217885,0.8603786 -4.3828977,0.662793 -4.3433483,0.4653622 -4.3031391,0.2680866 -4.2622691,0.0709663 -4.2207374,-0.1259986 -4.1785437,-0.3228077 -4.1356878,-0.5194613 -4.0921698,-0.7159591 -4.04799,-0.9123015 -4.0031492,-1.1084884 -3.9576483,-1.3045202 -3.9114885,-1.5003971 -3.8646711,-1.6961194 -3.8171979,-1.8916876 -3.7690707,-2.087102 -3.7202915,-2.2823631 -3.6708625,-2.4774716 -3.6207862,-2.6724278 -3.5700651,-2.8672325 -3.5187018,-3.0618862 -3.4666993,-3.2563897 -3.4140604,-3.4507436 -3.3607883,-3.6449486 -3.306886,-3.8390056 -3.2523569,-4.0329151 -3.1972042,-4.2266781 -3.1414314,-4.4202953 -3.085042,-4.6137676 -3.0280394,-4.8070957 -2.9704272,-5.0002806 -2.9122091,-5.193323 -2.8533886,-5.3862238 -2.7939694,-5.5789839 -2.7339553,-5.7716041 -2.6733497,-5.9640853 -2.6121564,-6.1564283 -2.4880212,-6.5407034 -2.3615784,-6.924436 -2.2328564,-7.3076329 -2.1018827,-7.6903005 -1.9686843,-8.0724451 -1.8332866,-8.4540727 -1.6957141,-8.8351892 -1.5559899,-9.2157998 -1.4141354,-9.5959097 -1.2701706,-9.9755235 -1.1241136,-10.3546455 -0.9759808,-10.7332796 -0.8257866,-11.1114291 -0.6735435,-11.489097 -0.5192616,-11.8662856 -0.3629493,-12.242997 -0.2046126,-12.6192325 A0.5,0.5 202.9671625 0,1 0.4590585,-12.8809308 L5.027357,-10.8477298 A0.5,0.5 293.9922904 0,1 5.2846146,-10.196301 L5.2846146,-10.196301 5.1447162,-9.8630034 5.0065588,-9.5293281 4.8701475,-9.1952739 4.7354894,-8.8608393 4.602593,-8.5260224 4.4714686,-8.190821 4.3421284,-7.8552325 4.2145858,-7.519254 4.0888561,-7.1828821 3.9649556,-6.8461133 3.8429024,-6.5089436 3.7227155,-6.1713691 3.6044151,-5.8333851 3.4880227,-5.4949872 3.3735605,-5.1561705 3.2610515,-4.8169299 3.1505195,-4.4772604 3.0419884,-4.1371567 2.9354829,-3.7966136 2.8310274,-3.4556255 2.7286466,-3.1141874 2.6283648,-2.7722938 2.5302059,-2.4299395 2.4341931,-2.0871196 2.3403485,-1.7438293 2.2486932,-1.4000639 2.1592468,-1.0558192 2.0720273,-0.7110913 1.9870507,-0.3658768 1.9043304,-0.0201727 1.8238775,0.3260234 1.7456998,0.6727132 1.669802,1.0198977 1.5961848,1.367577 1.5248456,1.7157506 1.4557778,2.064417 1.3889719,2.4135743 1.3244156,2.7632196 1.262094,3.1133499 1.20199,3.4639613 1.1440849,3.8150498 1.0883581,4.166611 1.0347881,4.5186402 0.9833519,4.8711324 0.9340262,5.2240824 0.8867867,5.5774852 0.841609,5.9313353 0.7984684,6.2856275 0.7573403,6.6403563 0.7182006,6.9955166 0.6810252,7.3511031 0.6457909,7.7071107 0.6124749,8.0635346 0.5810555,8.42037 0.5515118,8.7776125 0.5238243,9.1352576 0.4979744,9.4933015 0.4739449,9.8517404 0.4517201,10.2105709 0.4312857,10.5697898 0.4126288,10.9293945 0.3957383,11.2893824 0.3806048,11.6497515 0.3672205,12.0105002 3.5117626,12.0105002 3.5117626,13.0605002 -3.2265011,13.0605002 -5.1460038,13.0751794z" transform="matrix(1,0,0,-1,5.6498273,13.075194)" fill="rgb(0,0,0)" shaper:cutDepth="0.03cm" stroke-linecap="round" stroke-linejoin="round" /><path d="M-1.3647152,2.0006709 a0.5,0.5 0 1,1 1,0 a0.5,0.5 0 1,1 -1,0z" transform="matrix(1,0,0,-1,5.6498273,13.075194)" fill="rgb(255,255,255)" stroke="rgb(0,0,0)" stroke-width="0.0010cm" stroke-linecap="round" stroke-linejoin="round" shaper:cutDepth="0.03cm" /><path d="M-4.1154103,1.4775298 a0.5,0.5 0 1,1 1,0 a0.5,0.5 0 1,1 -1,0z" transform="matrix(1,0,0,-1,5.6498273,13.075194)" fill="rgb(255,255,255)" stroke="rgb(0,0,0)" stroke-width="0.0010cm" stroke-linecap="round" stroke-linejoin="round" shaper:cutDepth="0.03cm" /><path d="M-2.417286,0.1529031 a0.5,0.5 0 1,1 1,0 a0.5,0.5 0 1,1 -1,0z" transform="matrix(1,0,0,-1,5.6498273,13.075194)" fill="rgb(255,255,255)" stroke="rgb(0,0,0)" stroke-width="0.0010cm" stroke-linecap="round" stroke-linejoin="round" shaper:cutDepth="0.03cm" /><path d="M0.134597,-4.1479296 a0.5,0.5 0 1,1 1,0 a0.5,0.5 0 1,1 -1,0z" transform="matrix(1,0,0,-1,5.6498273,13.075194)" fill="rgb(255,255,255)" stroke="rgb(0,0,0)" stroke-width="0.0010cm" stroke-linecap="round" stroke-linejoin="round" shaper:cutDepth="0.03cm" /><path d="M2.4374937,-6.6875177 a0.5,0.5 0 1,1 1,0 a0.5,0.5 0 1,1 -1,0z" transform="matrix(1,0,0,-1,5.6498273,13.075194)" fill="rgb(255,255,255)" stroke="rgb(0,0,0)" stroke-width="0.0010cm" stroke-linecap="round" stroke-linejoin="round" shaper:cutDepth="0.03cm" /><path d="M-0.2006711,-7.6256468 a0.5,0.5 0 1,1 1,0 a0.5,0.5 0 1,1 -1,0z" transform="matrix(1,0,0,-1,5.6498273,13.075194)" fill="rgb(255,255,255)" stroke="rgb(0,0,0)" stroke-width="0.0010cm" stroke-linecap="round" stroke-linejoin="round" shaper:cutDepth="0.03cm" /><path d="M1.667795,-8.6410212 a0.5,0.5 0 1,1 1,0 a0.5,0.5 0 1,1 -1,0z" transform="matrix(1,0,0,-1,5.6498273,13.075194)" fill="rgb(255,255,255)" stroke="rgb(0,0,0)" stroke-width="0.0010cm" stroke-linecap="round" stroke-linejoin="round" shaper:cutDepth="0.03cm" /><path d="M-3.7395759,9.7653195 a0.5,0.5 0 1,1 1,0 a0.5,0.5 0 1,1 -1,0z" transform="matrix(1,0,0,-1,5.6498273,13.075194)" fill="rgb(255,255,255)" stroke="rgb(0,0,0)" stroke-width="0.0010cm" stroke-linecap="round" stroke-linejoin="round" shaper:cutDepth="0.03cm" /><path d="M-5.2148659,11.3343261 a0.5,0.5 0 1,1 1,0 a0.5,0.5 0 1,1 -1,0z" transform="matrix(1,0,0,-1,5.6498273,13.075194)" fill="rgb(255,255,255)" stroke="rgb(0,0,0)" stroke-width="0.0010cm" stroke-linecap="round" stroke-linejoin="round" shaper:cutDepth="0.03cm" /><path d="M-5.1370696,9.6815854 a0.5,0.5 0 1,1 1,0 a0.5,0.5 0 1,1 -1,0z" transform="matrix(1,0,0,-1,5.6498273,13.075194)" fill="rgb(255,255,255)" stroke="rgb(0,0,0)" stroke-width="0.0010cm" stroke-linecap="round" stroke-linejoin="round" shaper:cutDepth="0.03cm" /><path d="M-3.4632507,6.53999 a0.5,0.5 0 1,1 1,0 a0.5,0.5 0 1,1 -1,0z" transform="matrix(1,0,0,-1,5.6498273,13.075194)" fill="rgb(255,255,255)" stroke="rgb(0,0,0)" stroke-width="0.0010cm" stroke-linecap="round" stroke-linejoin="round" shaper:cutDepth="0.03cm" /><path d="M-0.6805084,6.8503851 a0.5,0.5 0 1,1 1,0 a0.5,0.5 0 1,1 -1,0z" transform="matrix(1,0,0,-1,5.6498273,13.075194)" fill="rgb(255,255,255)" stroke="rgb(0,0,0)" stroke-width="0.0010cm" stroke-linecap="round" stroke-linejoin="round" shaper:cutDepth="0.03cm" /><path d="M-2.0539828,-1.4245053 a0.5,0.5 0 1,1 1,0 a0.5,0.5 0 1,1 -1,0z" transform="matrix(1,0,0,-1,5.6498273,13.075194)" fill="rgb(255,255,255)" stroke="rgb(0,0,0)" stroke-width="0.0010cm" stroke-linecap="round" stroke-linejoin="round" shaper:cutDepth="0.03cm" /><path d="M-3.0015955,-3.3584888 a0.5,0.5 0 1,1 1,0 a0.5,0.5 0 1,1 -1,0z" transform="matrix(1,0,0,-1,5.6498273,13.075194)" fill="rgb(255,255,255)" stroke="rgb(0,0,0)" stroke-width="0.0010cm" stroke-linecap="round" stroke-linejoin="round" shaper:cutDepth="0.03cm" /><path d="M-1.6503917,-2.9920897 a0.5,0.5 0 1,1 1,0 a0.5,0.5 0 1,1 -1,0z" transform="matrix(1,0,0,-1,5.6498273,13.075194)" fill="rgb(255,255,255)" stroke="rgb(0,0,0)" stroke-width="0.0010cm" stroke-linecap="round" stroke-linejoin="round" shaper:cutDepth="0.03cm" /><path d="M-0.2589082,3.7855526 a0.5,0.5 0 1,1 1,0 a0.5,0.5 0 1,1 -1,0z" transform="matrix(1,0,0,-1,5.6498273,13.075194)" fill="rgb(255,255,255)" stroke="rgb(0,0,0)" stroke-width="0.0010cm" stroke-linecap="round" stroke-linejoin="round" shaper:cutDepth="0.03cm" /><path d="M-3.4141289,-1.7561716 a0.5,0.5 0 1,1 1,0 a0.5,0.5 0 1,1 -1,0z" transform="matrix(1,0,0,-1,5.6498273,13.075194)" fill="rgb(255,255,255)" stroke="rgb(0,0,0)" stroke-width="0.0010cm" stroke-linecap="round" stroke-linejoin="round" shaper:cutDepth="0.03cm" /><path d="M1.4759716,-3.7470381 a0.5,0.5 0 1,1 1,0 a0.5,0.5 0 1,1 -1,0z" transform="matrix(1,0,0,-1,5.6498273,13.075194)" fill="rgb(255,255,255)" stroke="rgb(0,0,0)" stroke-width="0.0010cm" stroke-linecap="round" stroke-linejoin="round" shaper:cutDepth="0.03cm" /><path d="M-3.0221015,3.3330454 a0.5,0.5 0 1,1 1,0 a0.5,0.5 0 1,1 -1,0z" transform="matrix(1,0,0,-1,5.6498273,13.075194)" fill="rgb(255,255,255)" stroke="rgb(0,0,0)" stroke-width="0.0010cm" stroke-linecap="round" stroke-linejoin="round" shaper:cutDepth="0.03cm" /><path d="M-2.0718796,6.6951875 a0.5,0.5 0 1,1 1,0 a0.5,0.5 0 1,1 -1,0z" transform="matrix(1,0,0,-1,5.6498273,13.075194)" fill="rgb(255,255,255)" stroke="rgb(0,0,0)" stroke-width="0.0010cm" stroke-linecap="round" stroke-linejoin="round" shaper:cutDepth="0.03cm" /><path d="M1.9378987,-5.2234365 a0.5,0.5 0 1,1 1,0 a0.5,0.5 0 1,1 -1,0z" transform="matrix(1,0,0,-1,5.6498273,13.075194)" fill="rgb(255,255,255)" stroke="rgb(0,0,0)" stroke-width="0.0010cm" stroke-linecap="round" stroke-linejoin="round" shaper:cutDepth="0.03cm" /><path d="M-2.4165058,11.4301427 a0.5,0.5 0 1,1 1,0 a0.5,0.5 0 1,1 -1,0z" transform="matrix(1,0,0,-1,5.6498273,13.075194)" fill="rgb(255,255,255)" stroke="rgb(0,0,0)" stroke-width="0.0010cm" stroke-linecap="round" stroke-linejoin="round" shaper:cutDepth="0.03cm" /><path d="M-0.3316318,-11.1829127 a0.5,0.5 0 1,1 1,0 a0.5,0.5 0 1,1 -1,0z" transform="matrix(1,0,0,-1,5.6498273,13.075194)" fill="rgb(255,255,255)" stroke="rgb(0,0,0)" stroke-width="0.0010cm" stroke-linecap="round" stroke-linejoin="round" shaper:cutDepth="0.03cm" /><path d="M-3.8156859,11.3822344 a0.5,0.5 0 1,1 1,0 a0.5,0.5 0 1,1 -1,0z" transform="matrix(1,0,0,-1,5.6498273,13.075194)" fill="rgb(255,255,255)" stroke="rgb(0,0,0)" stroke-width="0.0010cm" stroke-linecap="round" stroke-linejoin="round" shaper:cutDepth="0.03cm" /><path d="M2.974429,-8.1383207 a0.5,0.5 0 1,1 1,0 a0.5,0.5 0 1,1 -1,0z" transform="matrix(1,0,0,-1,5.6498273,13.075194)" fill="rgb(255,255,255)" stroke="rgb(0,0,0)" stroke-width="0.0010cm" stroke-linecap="round" stroke-linejoin="round" shaper:cutDepth="0.03cm" /><path d="M-2.2271817,8.2703899 a0.5,0.5 0 1,1 1,0 a0.5,0.5 0 1,1 -1,0z" transform="matrix(1,0,0,-1,5.6498273,13.075194)" fill="rgb(255,255,255)" stroke="rgb(0,0,0)" stroke-width="0.0010cm" stroke-linecap="round" stroke-linejoin="round" shaper:cutDepth="0.03cm" /><path d="M-5.016962,8.0313798 a0.5,0.5 0 1,1 1,0 a0.5,0.5 0 1,1 -1,0z" transform="matrix(1,0,0,-1,5.6498273,13.075194)" fill="rgb(255,255,255)" stroke="rgb(0,0,0)" stroke-width="0.0010cm" stroke-linecap="round" stroke-linejoin="round" shaper:cutDepth="0.03cm" /><path d="M-2.5481523,-4.9497128 a0.5,0.5 0 1,1 1,0 a0.5,0.5 0 1,1 -1,0z" transform="matrix(1,0,0,-1,5.6498273,13.075194)" fill="rgb(255,255,255)" stroke="rgb(0,0,0)" stroke-width="0.0010cm" stroke-linecap="round" stroke-linejoin="round" shaper:cutDepth="0.03cm" /><path d="M-3.7854817,-0.1438127 a0.5,0.5 0 1,1 1,0 a0.5,0.5 0 1,1 -1,0z" transform="matrix(1,0,0,-1,5.6498273,13.075194)" fill="rgb(255,255,255)" stroke="rgb(0,0,0)" stroke-width="0.0010cm" stroke-linecap="round" stroke-linejoin="round" shaper:cutDepth="0.03cm" /><path d="M-1.0490902,0.4496189 a0.5,0.5 0 1,1 1,0 a0.5,0.5 0 1,1 -1,0z" transform="matrix(1,0,0,-1,5.6498273,13.075194)" fill="rgb(255,255,255)" stroke="rgb(0,0,0)" stroke-width="0.0010cm" stroke-linecap="round" stroke-linejoin="round" shaper:cutDepth="0.03cm" /><path d="M0.6663094,-0.7611727 a0.5,0.5 0 1,1 1,0 a0.5,0.5 0 1,1 -1,0z" transform="matrix(1,0,0,-1,5.6498273,13.075194)" fill="rgb(255,255,255)" stroke="rgb(0,0,0)" stroke-width="0.0010cm" stroke-linecap="round" stroke-linejoin="round" shaper:cutDepth="0.03cm" /><path d="M0.0106323,2.2622414 a0.5,0.5 0 1,1 1,0 a0.5,0.5 0 1,1 -1,0z" transform="matrix(1,0,0,-1,5.6498273,13.075194)" fill="rgb(255,255,255)" stroke="rgb(0,0,0)" stroke-width="0.0010cm" stroke-linecap="round" stroke-linejoin="round" shaper:cutDepth="0.03cm" /><path d="M0.3191056,0.7463347 a0.5,0.5 0 1,1 1,0 a0.5,0.5 0 1,1 -1,0z" transform="matrix(1,0,0,-1,5.6498273,13.075194)" fill="rgb(255,255,255)" stroke="rgb(0,0,0)" stroke-width="0.0010cm" stroke-linecap="round" stroke-linejoin="round" shaper:cutDepth="0.03cm" /><path d="M-1.2067777,-4.5488212 a0.5,0.5 0 1,1 1,0 a0.5,0.5 0 1,1 -1,0z" transform="matrix(1,0,0,-1,5.6498273,13.075194)" fill="rgb(255,255,255)" stroke="rgb(0,0,0)" stroke-width="0.0010cm" stroke-linecap="round" stroke-linejoin="round" shaper:cutDepth="0.03cm" /><path d="M-3.6220719,8.1508849 a0.5,0.5 0 1,1 1,0 a0.5,0.5 0 1,1 -1,0z" transform="matrix(1,0,0,-1,5.6498273,13.075194)" fill="rgb(255,255,255)" stroke="rgb(0,0,0)" stroke-width="0.0010cm" stroke-linecap="round" stroke-linejoin="round" shaper:cutDepth="0.03cm" /><path d="M-0.8322915,8.389895 a0.5,0.5 0 1,1 1,0 a0.5,0.5 0 1,1 -1,0z" transform="matrix(1,0,0,-1,5.6498273,13.075194)" fill="rgb(255,255,255)" stroke="rgb(0,0,0)" stroke-width="0.0010cm" stroke-linecap="round" stroke-linejoin="round" shaper:cutDepth="0.03cm" /><path d="M0.9616961,-10.6469063 a0.5,0.5 0 1,1 1,0 a0.5,0.5 0 1,1 -1,0z" transform="matrix(1,0,0,-1,5.6498273,13.075194)" fill="rgb(255,255,255)" stroke="rgb(0,0,0)" stroke-width="0.0010cm" stroke-linecap="round" stroke-linejoin="round" shaper:cutDepth="0.03cm" /><path d="M0.3611611,-9.1437216 a0.5,0.5 0 1,1 1,0 a0.5,0.5 0 1,1 -1,0z" transform="matrix(1,0,0,-1,5.6498273,13.075194)" fill="rgb(255,255,255)" stroke="rgb(0,0,0)" stroke-width="0.0010cm" stroke-linecap="round" stroke-linejoin="round" shaper:cutDepth="0.03cm" /><path d="M-2.3420823,9.8490537 a0.5,0.5 0 1,1 1,0 a0.5,0.5 0 1,1 -1,0z" transform="matrix(1,0,0,-1,5.6498273,13.075194)" fill="rgb(255,255,255)" stroke="rgb(0,0,0)" stroke-width="0.0010cm" stroke-linecap="round" stroke-linejoin="round" shaper:cutDepth="0.03cm" /><path d="M3.548352,-9.5748935 a0.5,0.5 0 1,1 1,0 a0.5,0.5 0 1,1 -1,0z" transform="matrix(1,0,0,-1,5.6498273,13.075194)" fill="rgb(255,255,255)" stroke="rgb(0,0,0)" stroke-width="0.0010cm" stroke-linecap="round" stroke-linejoin="round" shaper:cutDepth="0.03cm" /><path d="M0.6072335,-5.6585574 a0.5,0.5 0 1,1 1,0 a0.5,0.5 0 1,1 -1,0z" transform="matrix(1,0,0,-1,5.6498273,13.075194)" fill="rgb(255,255,255)" stroke="rgb(0,0,0)" stroke-width="0.0010cm" stroke-linecap="round" stroke-linejoin="round" shaper:cutDepth="0.03cm" /><path d="M-4.8546219,6.3847924 a0.5,0.5 0 1,1 1,0 a0.5,0.5 0 1,1 -1,0z" transform="matrix(1,0,0,-1,5.6498273,13.075194)" fill="rgb(255,255,255)" stroke="rgb(0,0,0)" stroke-width="0.0010cm" stroke-linecap="round" stroke-linejoin="round" shaper:cutDepth="0.03cm" /><path d="M-4.6501559,4.7429039 a0.5,0.5 0 1,1 1,0 a0.5,0.5 0 1,1 -1,0z" transform="matrix(1,0,0,-1,5.6498273,13.075194)" fill="rgb(255,255,255)" stroke="rgb(0,0,0)" stroke-width="0.0010cm" stroke-linecap="round" stroke-linejoin="round" shaper:cutDepth="0.03cm" /><path d="M-4.4036981,3.1067918 a0.5,0.5 0 1,1 1,0 a0.5,0.5 0 1,1 -1,0z" transform="matrix(1,0,0,-1,5.6498273,13.075194)" fill="rgb(255,255,255)" stroke="rgb(0,0,0)" stroke-width="0.0010cm" stroke-linecap="round" stroke-linejoin="round" shaper:cutDepth="0.03cm" /><path d="M1.0520158,-2.2592913 a0.5,0.5 0 1,1 1,0 a0.5,0.5 0 1,1 -1,0z" transform="matrix(1,0,0,-1,5.6498273,13.075194)" fill="rgb(255,255,255)" stroke="rgb(0,0,0)" stroke-width="0.0010cm" stroke-linecap="round" stroke-linejoin="round" shaper:cutDepth="0.03cm" /><path d="M-0.299188,-2.6256905 a0.5,0.5 0 1,1 1,0 a0.5,0.5 0 1,1 -1,0z" transform="matrix(1,0,0,-1,5.6498273,13.075194)" fill="rgb(255,255,255)" stroke="rgb(0,0,0)" stroke-width="0.0010cm" stroke-linecap="round" stroke-linejoin="round" shaper:cutDepth="0.03cm" /><path d="M-1.6405048,3.559299 a0.5,0.5 0 1,1 1,0 a0.5,0.5 0 1,1 -1,0z" transform="matrix(1,0,0,-1,5.6498273,13.075194)" fill="rgb(255,255,255)" stroke="rgb(0,0,0)" stroke-width="0.0010cm" stroke-linecap="round" stroke-linejoin="round" shaper:cutDepth="0.03cm" /><path d="M-3.2632169,4.9336921 a0.5,0.5 0 1,1 1,0 a0.5,0.5 0 1,1 -1,0z" transform="matrix(1,0,0,-1,5.6498273,13.075194)" fill="rgb(255,255,255)" stroke="rgb(0,0,0)" stroke-width="0.0010cm" stroke-linecap="round" stroke-linejoin="round" shaper:cutDepth="0.03cm" /><path d="M-0.6938367,-1.092839 a0.5,0.5 0 1,1 1,0 a0.5,0.5 0 1,1 -1,0z" transform="matrix(1,0,0,-1,5.6498273,13.075194)" fill="rgb(255,255,255)" stroke="rgb(0,0,0)" stroke-width="0.0010cm" stroke-linecap="round" stroke-linejoin="round" shaper:cutDepth="0.03cm" /><path d="M-0.7234317,-6.0936782 a0.5,0.5 0 1,1 1,0 a0.5,0.5 0 1,1 -1,0z" transform="matrix(1,0,0,-1,5.6498273,13.075194)" fill="rgb(255,255,255)" stroke="rgb(0,0,0)" stroke-width="0.0010cm" stroke-linecap="round" stroke-linejoin="round" shaper:cutDepth="0.03cm" /><path d="M-2.0540969,-6.5287991 a0.5,0.5 0 1,1 1,0 a0.5,0.5 0 1,1 -1,0z" transform="matrix(1,0,0,-1,5.6498273,13.075194)" fill="rgb(255,255,255)" stroke="rgb(0,0,0)" stroke-width="0.0010cm" stroke-linecap="round" stroke-linejoin="round" shaper:cutDepth="0.03cm" /><path d="M-0.9454728,-9.6464221 a0.5,0.5 0 1,1 1,0 a0.5,0.5 0 1,1 -1,0z" transform="matrix(1,0,0,-1,5.6498273,13.075194)" fill="rgb(255,255,255)" stroke="rgb(0,0,0)" stroke-width="0.0010cm" stroke-linecap="round" stroke-linejoin="round" shaper:cutDepth="0.03cm" /><path d="M2.2550241,-10.1108999 a0.5,0.5 0 1,1 1,0 a0.5,0.5 0 1,1 -1,0z" transform="matrix(1,0,0,-1,5.6498273,13.075194)" fill="rgb(255,255,255)" stroke="rgb(0,0,0)" stroke-width="0.0010cm" stroke-linecap="round" stroke-linejoin="round" shaper:cutDepth="0.03cm" /><path d="M-0.9445886,9.9327879 a0.5,0.5 0 1,1 1,0 a0.5,0.5 0 1,1 -1,0z" transform="matrix(1,0,0,-1,5.6498273,13.075194)" fill="rgb(255,255,255)" stroke="rgb(0,0,0)" stroke-width="0.0010cm" stroke-linecap="round" stroke-linejoin="round" shaper:cutDepth="0.03cm" /><path d="M-1.5197535,-8.0947114 a0.5,0.5 0 1,1 1,0 a0.5,0.5 0 1,1 -1,0z" transform="matrix(1,0,0,-1,5.6498273,13.075194)" fill="rgb(255,255,255)" stroke="rgb(0,0,0)" stroke-width="0.0010cm" stroke-linecap="round" stroke-linejoin="round" shaper:cutDepth="0.03cm" /><path d="M1.1184113,-7.1565823 a0.5,0.5 0 1,1 1,0 a0.5,0.5 0 1,1 -1,0z" transform="matrix(1,0,0,-1,5.6498273,13.075194)" fill="rgb(255,255,255)" stroke="rgb(0,0,0)" stroke-width="0.0010cm" stroke-linecap="round" stroke-linejoin="round" shaper:cutDepth="0.03cm" /><path d="M-0.4893388,5.3152685 a0.5,0.5 0 1,1 1,0 a0.5,0.5 0 1,1 -1,0z" transform="matrix(1,0,0,-1,5.6498273,13.075194)" fill="rgb(255,255,255)" stroke="rgb(0,0,0)" stroke-width="0.0010cm" stroke-linecap="round" stroke-linejoin="round" shaper:cutDepth="0.03cm" /><path d="M-1.8762778,5.1244803 a0.5,0.5 0 1,1 1,0 a0.5,0.5 0 1,1 -1,0z" transform="matrix(1,0,0,-1,5.6498273,13.075194)" fill="rgb(255,255,255)" stroke="rgb(0,0,0)" stroke-width="0.0010cm" stroke-linecap="round" stroke-linejoin="round" shaper:cutDepth="0.03cm" /><path d="M-2.7400628,1.7391003 a0.5,0.5 0 1,1 1,0 a0.5,0.5 0 1,1 -1,0z" transform="matrix(1,0,0,-1,5.6498273,13.075194)" fill="rgb(255,255,255)" stroke="rgb(0,0,0)" stroke-width="0.0010cm" stroke-linecap="round" stroke-linejoin="round" shaper:cutDepth="0.03cm" /><path d="M-1.0173258,11.478051 a0.5,0.5 0 1,1 1,0 a0.5,0.5 0 1,1 -1,0z" transform="matrix(1,0,0,-1,5.6498273,13.075194)" fill="rgb(255,255,255)" stroke="rgb(0,0,0)" stroke-width="0.0010cm" stroke-linecap="round" stroke-linejoin="round" shaper:cutDepth="0.03cm" /></svg>