<?xml version="1.0" encoding="utf-8"?>
<!-- Generator: Fusion 360, Shaper Origin Export Add-In, Version 1.9.0  -->
<svg xmlns="http://www.w3.org/2000/svg" xmlns:xlink="http://www.w3.org/1999/xlink" xmlns:shaper="http://www.shapertools.com/namespaces/shaper" shaper:fusionaddin="version:1.9.0" width="10.9738775cm" height="25.9993247cm" version="1.1" x="0cm" y="0cm" viewBox="0 0 10.9738775 25.9993247" enable-background="new 0 0 10.9738775 25.9993247" xml:space="preserve"><path d="M-6.0212623,12.2776805 A0.5,0.5 89.5618469 0,1 -6.5249102,11.7644434 L-6.5249102,11.7644434 -6.5130084,11.3537863 -6.499088,10.9436036 -6.4831428,10.5338969 -6.4651646,10.1246681 -6.445143,9.7159196 -6.4230658,9.3076543 -6.3989184,8.8998756 -6.3726844,8.4925874 -6.3443458,8.085794 -6.3138825,7.6795 -6.2812731,7.2737105 -6.2464944,6.8684308 -6.209522,6.4636669 -6.1703302,6.0594246 -6.1288922,5.6557104 -6.0851803,5.2525306 -6.039166,4.8498921 -6.0152865,4.6487779 -5.9908204,4.4478016 -5.9657643,4.246964 -5.9401143,4.046266 -5.9138668,3.8457084 -5.8870182,3.6452921 -5.8595648,3.445018 -5.8315029,3.2448869 -5.802829,3.0448997 -5.7735396,2.8450572 -5.7436311,2.6453602 -5.7131001,2.4458095 -5.6819432,2.246406 -5.6501571,2.0471503 -5.6177387,1.8480433 -5.5846849,1.6490857 -5.5509926,1.4502781 -5.5166591,1.2516213 -5.4816814,1.0531159 -5.4460572,0.8547624 -5.4097838,0.6565616 -5.372859,0.4585139 -5.3352807,0.2606198 -5.297047,0.0628797 -5.2581562,-0.1347058 -5.2186068,-0.3321366 -5.1783976,-0.5294123 -5.1375275,-0.7265326 -5.0959959,-0.9234974 -5.0538022,-1.1203066 -5.0109463,-1.3169601 -4.9674283,-1.513458 -4.9232485,-1.7098003 -4.8784077,-1.9059873 -4.8329068,-2.102019 -4.786747,-2.2978959 -4.7399296,-2.4936182 -4.6924564,-2.6891864 -4.6443292,-2.8846008 -4.59555,-3.079862 -4.546121,-3.2749704 -4.4960447,-3.4699267 -4.4453236,-3.6647313 -4.3939603,-3.8593851 -4.3419578,-4.0538886 -4.2893189,-4.2482425 -4.2360468,-4.4424475 -4.1821445,-4.6365044 -4.1276154,-4.830414 -4.0724627,-5.024177 -4.0166899,-5.2177942 -3.9603005,-5.4112664 -3.9032979,-5.6045946 -3.8456857,-5.7977794 -3.7874676,-5.9908218 -3.7286471,-6.1837226 -3.6692279,-6.3764827 -3.6092137,-6.5691029 -3.5486082,-6.7615841 -3.4874149,-6.9539272 -3.3632797,-7.3382022 -3.2368369,-7.7219349 -3.1081149,-8.1051317 -2.9771412,-8.4877993 -2.8439428,-8.8699439 -2.7085451,-9.2515716 -2.5709726,-9.632688 -2.4312484,-10.0132986 -2.2893939,-10.3934085 -2.1454291,-10.7730223 -1.9993721,-11.1521444 -1.8512393,-11.5307784 -1.7010451,-11.908928 -1.548802,-12.2865958 -1.3945201,-12.6637845 -1.2382078,-13.0404958 -1.0798711,-13.4167313 A0.5,0.5 202.9671625 0,1 -0.4162,-13.6784297 L4.1520985,-11.6452287 A0.5,0.5 293.9922904 0,1 4.4093561,-10.9937999 L4.4093561,-10.9937999 4.2694577,-10.6605023 4.1313003,-10.3268269 3.994889,-9.9927727 3.8602309,-9.6583381 3.7273345,-9.3235213 3.5962101,-8.9883199 3.4668699,-8.6527314 3.3393273,-8.3167528 3.2135976,-7.9803809 3.0896972,-7.6436121 2.9676439,-7.3064425 2.847457,-6.9688679 2.7291566,-6.630884 2.6127642,-6.292486 2.498302,-5.9536693 2.385793,-5.6144288 2.275261,-5.2747593 2.1667299,-4.9346556 2.0602244,-4.5941124 1.9557689,-4.2531244 1.8533881,-3.9116862 1.7531063,-3.5697926 1.6549474,-3.2274384 1.5589346,-2.8846185 1.46509,-2.5413281 1.3734347,-2.1975627 1.2839883,-1.853318 1.1967688,-1.5085902 1.1117922,-1.1633756 1.0290719,-0.8176715 0.948619,-0.4714754 0.8704413,-0.1247856 0.7945435,0.2223988 0.7209263,0.5700782 0.6495871,0.9182517 0.5805193,1.2669182 0.5137134,1.6160754 0.4491571,1.9657208 0.3868355,2.315851 0.3267315,2.6664625 0.2688264,3.017551 0.2130996,3.3691122 0.1595296,3.7211413 0.1080935,4.0736335 0.0587677,4.4265836 0.0115282,4.7799864 -0.0336495,5.1338365 -0.0767901,5.4881286 -0.1179182,5.8428575 -0.1570579,6.1980177 -0.1942333,6.5536042 -0.2294676,6.9096119 -0.2627836,7.2660358 -0.294203,7.6228712 -0.3237467,7.9801136 -0.3514342,8.3377588 -0.3772841,8.6958027 -0.4013136,9.0542416 -0.4235384,9.413072 -0.4439728,9.772291 -0.4626297,10.1318956 -0.4795202,10.4918835 -0.4946537,10.8522527 -0.508038,11.2130014 2.6365041,11.2130014 2.6365041,12.2630014 -4.1017596,12.2630014 -6.0212623,12.2776805z" transform="matrix(1,0,0,-1,6.5250858,12.2776951)" fill="rgb(0,0,0)" shaper:cutDepth="0.03cm" stroke-linecap="round" stroke-linejoin="round" /></svg>