<?xml version="1.0" encoding="utf-8"?>
<!-- Generator: Fusion 360, Shaper Origin Export Add-In, Version 1.9.0  -->
<svg xmlns="http://www.w3.org/2000/svg" xmlns:xlink="http://www.w3.org/1999/xlink" xmlns:shaper="http://www.shapertools.com/namespaces/shaper" shaper:fusionaddin="version:1.9.0" width="10.9588928cm" height="26.0001723cm" version="1.1" x="0cm" y="0cm" viewBox="0 0 10.9588928 26.0001723" enable-background="new 0 0 10.9588928 26.0001723" xml:space="preserve"><path d="M-6.0080573,12.2800616 A0.5,0.5 89.505722 0,1 -6.5121948,11.7668209 L-6.5121948,11.7668209 -6.5003173,11.3568222 -6.486447,10.9472284 -6.4705801,10.5380413 -6.4527101,10.1292636 -6.432828,9.720899 -6.4109225,9.3129523 -6.3869796,8.9054291 -6.3609834,8.4983358 -6.3329154,8.0916799 -6.3027553,7.6854693 -6.2704805,7.2797127 -6.2360671,6.8744194 -6.1994889,6.4695994 -6.1607185,6.0652629 -6.1197272,5.6614207 -6.0764848,5.2580839 -6.0309604,4.8552638 -5.9831223,4.4529719 -5.9583256,4.2520277 -5.9329383,4.0512198 -5.9069565,3.8505498 -5.880376,3.6500191 -5.8531928,3.449629 -5.8254029,3.2493811 -5.7970023,3.0492767 -5.7679869,2.8493172 -5.7383529,2.649504 -5.7080964,2.4498383 -5.6772136,2.2503216 -5.6457009,2.050955 -5.6135545,1.8517398 -5.5807711,1.6526772 -5.5473472,1.4537684 -5.5132795,1.2550144 -5.4785649,1.0564163 -5.4432004,0.8579751 -5.4071832,0.6596917 -5.3705106,0.4615671 -5.3331803,0.2636019 -5.2951899,0.065797 -5.2565375,-0.131847 -5.2172212,-0.3293295 -5.1772397,-0.5266501 -5.1365915,-0.7238083 -5.0952759,-0.9208039 -5.0532921,-1.1176367 -5.0106398,-1.3143065 -4.967319,-1.5108135 -4.92333,-1.7071577 -4.8786734,-1.9033393 -4.8333501,-2.0993588 -4.7873614,-2.2952164 -4.7407085,-2.4909128 -4.6933933,-2.6864485 -4.6454176,-2.8818242 -4.5967835,-3.0770406 -4.5474933,-3.2720985 -4.4975496,-3.4669989 -4.4469551,-3.6617426 -4.3957124,-3.8563307 -4.3438247,-4.0507642 -4.291295,-4.2450441 -4.2381265,-4.4391718 -4.1843226,-4.6331482 -4.1298866,-4.8269747 -4.074822,-5.0206525 -4.0191325,-5.2141829 -3.9628217,-5.4075672 -3.9058933,-5.6008067 -3.8483509,-5.7939028 -3.7901985,-5.9868568 -3.7314398,-6.1796702 -3.6720785,-6.3723443 -3.6121185,-6.5648806 -3.5515637,-6.7572804 -3.4904177,-6.9495451 -3.3663676,-7.3336752 -3.2399979,-7.7172818 -3.1113378,-8.100376 -2.9804156,-8.4829687 -2.8472586,-8.8650703 -2.7118926,-9.246691 -2.574342,-9.6278403 -2.4346298,-10.0085273 -2.2927769,-10.3887607 -2.1488027,-10.7685481 -2.0027244,-11.1478967 -1.8545572,-11.5268129 -1.7043141,-11.9053022 -1.5520058,-12.2833692 -1.3976406,-12.6610176 -1.2412247,-13.03825 -1.0827616,-13.4150681 A0.5,0.5 202.9515167 0,1 -0.4191623,-13.6769479 L4.1497039,-11.6449938 A0.5,0.5 293.9765918 0,1 4.4071396,-10.9936347 L4.4071396,-10.9936347 4.2686479,-10.6591222 4.1318628,-10.3244705 3.9967873,-9.9896794 3.8634264,-9.6547485 3.7317867,-9.3196773 3.6018771,-8.984465 3.4737079,-8.6491107 3.3472915,-8.3136135 3.2226419,-7.9779723 3.0997749,-7.6421857 2.9787077,-7.3062523 2.859459,-6.9701706 2.7420489,-6.633939 2.6264988,-6.2975558 2.5128313,-5.961019 2.4010699,-5.6243268 2.2912391,-5.2874772 2.1833638,-4.9504681 2.0774698,-4.6132974 1.9735827,-4.2759631 1.8717287,-3.938463 1.7719335,-3.6007951 1.674223,-3.2629571 1.5786219,-2.9249471 1.4851546,-2.5867631 1.3938441,-2.2484033 1.3047122,-1.9098658 1.2177791,-1.571149 1.133063,-1.2322514 1.0505799,-0.8931717 0.9703426,-0.5539089 0.8923612,-0.2144622 0.8166419,0.125169 0.7431868,0.4649849 0.6719944,0.8049852 0.6030591,1.1451697 0.5363718,1.4855374 0.4719207,1.8260874 0.4096909,2.1668187 0.3496655,2.5077296 0.2918252,2.8488187 0.2361492,3.1900844 0.1826153,3.5315247 0.1312001,3.8731377 0.0818794,4.2149216 0.0346283,4.5568742 -0.0105782,4.8989936 -0.0537652,5.2412776 -0.0949575,5.5837243 -0.1341798,5.9263316 -0.1714561,6.2690976 -0.2068097,6.6120204 -0.2402631,6.9550982 -0.2718378,7.2983291 -0.3015539,7.6417116 -0.3294305,7.9852441 -0.3554851,8.3289252 -0.3797338,8.6727535 -0.4021912,9.0167279 -0.4228699,9.3608473 -0.4417809,9.7051109 -0.4589334,10.0495179 -0.4743346,10.3940677 -0.4879899,10.7387598 A0.4,0.4 182.1235229 0,0 -0.0882646,11.1535814 L2.6388129,11.1535814 2.6388129,12.2635814 -4.0977498,12.2635814 -6.0080573,12.2800616z" transform="matrix(1,0,0,-1,6.5123707,12.2800802)" fill="rgb(0,0,0)" shaper:cutDepth="0.03cm" stroke-linecap="round" stroke-linejoin="round" /></svg>