<?xml version="1.0" encoding="UTF-8"?><svg id="Layer_1" xmlns="http://www.w3.org/2000/svg" width="805.69" height="374.58" viewBox="0 0 805.69 374.58"><defs><style>.cls-1{fill:none;stroke:#000;stroke-miterlimit:10;}</style></defs><path class="cls-1" d="M34.35,328.54c-.06,7.83,6.24,14.22,14.06,14.28.16,0,.32,0,.48,0h0l11.64-.34,11.63-.39,11.61-.45,11.6-.51,11.59-.57,11.57-.63,11.56-.68,11.55-.74,11.53-.8,11.52-.86,11.5-.92,11.49-.99,11.47-1.05,11.46-1.11,11.44-1.17,11.43-1.24,11.41-1.3,5.7-.68,5.7-.69,5.69-.71,5.69-.73,5.69-.74,5.68-.76,5.68-.78,5.67-.8,5.67-.81,5.66-.83,5.66-.85,5.66-.87,5.65-.88,5.65-.9,5.64-.92,5.64-.94,5.64-.96,5.63-.97,5.63-.99,5.62-1.01,5.62-1.03,5.61-1.05,5.61-1.07,5.61-1.08,5.6-1.1,5.6-1.12,5.59-1.14,5.59-1.16,5.58-1.18,5.58-1.2,5.57-1.21,5.57-1.23,5.57-1.25,5.56-1.27,5.56-1.29,5.55-1.31,5.55-1.33,5.54-1.35,5.54-1.36,5.53-1.38,5.53-1.4,5.53-1.42,5.52-1.44,5.52-1.46,5.51-1.47,5.51-1.49,5.51-1.51,5.5-1.53,5.5-1.55,5.49-1.56,5.49-1.58,5.48-1.6,5.48-1.62,5.48-1.63,5.47-1.65,5.47-1.67,5.46-1.68,5.46-1.7,5.46-1.72,5.45-1.73,10.89-3.52,10.88-3.58,10.86-3.65,10.85-3.71,10.83-3.78,10.82-3.84,10.8-3.9,10.79-3.96,10.77-4.02,10.76-4.08,10.75-4.14,10.73-4.2,10.72-4.26,10.71-4.32,10.69-4.37,10.68-4.43,10.66-4.49c7.21-3.05,10.57-11.37,7.52-18.58-.03-.08-.07-.16-.1-.23l-57.63-129.5c-3.14-7.06-11.35-10.3-18.47-7.29h0l-9.45,3.97-9.46,3.92-9.47,3.87-9.48,3.82-9.49,3.77-9.5,3.72-9.51,3.67-9.52,3.62-9.53,3.56-9.55,3.51-9.56,3.46-9.57,3.41-9.58,3.35-9.59,3.3-9.6,3.24-9.62,3.19-9.63,3.13-9.64,3.08-9.65,3.02-9.67,2.96-9.68,2.9-9.69,2.84-9.7,2.78-9.72,2.72-9.73,2.66-9.74,2.6-9.76,2.54-9.77,2.47-9.79,2.41-9.8,2.34-9.81,2.28-9.83,2.22-9.84,2.15-9.86,2.09-9.87,2.02-9.88,1.96-9.9,1.89-9.91,1.83-9.92,1.77-9.94,1.7-9.95,1.64-9.97,1.58-9.98,1.52-9.99,1.46-10,1.4-10.02,1.34-10.03,1.28-10.04,1.22-10.06,1.17-10.07,1.11-10.08,1.05-10.09,1-10.1.94-10.12.89-10.13.84-10.14.78-10.15.73-10.16.68-10.17.63-10.18.58-10.19.53-10.2.48-10.22.43-10.23.38v-89.14h-29.76v191.01l-.42,54.41Z"/></svg>