M48
; DRILL file {KiCad 9.0.1} date 2025-11-02T10:53:34-0600
; FORMAT={-:-/ absolute / metric / decimal}
; #@! TF.CreationDate,2025-11-02T10:53:34-06:00
; #@! TF.GenerationSoftware,Kicad,Pcbnew,9.0.1
; #@! TF.FileFunction,Plated,1,2,PTH
FMAT,2
METRIC
; #@! TA.AperFunction,Plated,PTH,ViaDrill
T1C0.300
%
G90
G05
T1
X26.074Y-122.976
X26.09Y-112.541
X26.232Y-102.0
X26.342Y-91.35
X32.09Y-117.741
X32.15Y-128.1
X32.232Y-107.2
X32.342Y-96.55
X42.59Y-112.541
X42.65Y-122.846
X42.732Y-102.0
X42.842Y-91.35
X48.59Y-117.741
X48.65Y-128.046
X48.732Y-107.2
X48.842Y-96.55
X58.59Y-112.541
X58.65Y-122.846
X58.732Y-102.0
X58.842Y-91.35
X64.59Y-117.741
X64.65Y-128.046
X64.732Y-107.2
X64.842Y-96.55
X74.95Y-112.6
X75.01Y-122.954
X75.092Y-102.059
X75.203Y-91.409
X80.95Y-117.8
X81.01Y-128.154
X81.092Y-107.259
X81.203Y-96.609
X90.95Y-112.602
X91.01Y-122.907
X91.092Y-102.062
X91.203Y-91.412
X96.95Y-117.802
X97.01Y-128.107
X97.092Y-107.262
X97.203Y-96.612
X107.34Y-112.541
X107.4Y-122.9
X107.482Y-102.0
X107.592Y-91.35
X113.34Y-117.741
X113.4Y-128.1
X113.482Y-107.2
X113.592Y-96.55
X123.7Y-112.541
X123.76Y-122.894
X123.842Y-102.0
X123.953Y-91.35
X129.7Y-117.741
X129.76Y-128.094
X129.842Y-107.2
X129.953Y-96.55
X139.59Y-112.541
X139.65Y-122.846
X139.732Y-102.0
X139.842Y-91.35
X145.59Y-117.741
X145.65Y-128.046
X145.732Y-107.2
X145.842Y-96.55
X155.84Y-112.541
X155.9Y-122.846
X155.982Y-102.0
X156.092Y-91.35
X161.84Y-117.741
X161.9Y-128.046
X161.982Y-107.2
X162.092Y-96.55
X172.2Y-112.541
X172.26Y-122.846
X172.342Y-102.0
X172.453Y-91.35
X178.2Y-117.741
X178.26Y-128.046
X178.342Y-107.2
X178.453Y-96.55
X188.34Y-112.541
X188.4Y-122.846
X188.482Y-102.0
X188.592Y-91.35
X194.34Y-117.741
X194.4Y-128.046
X194.482Y-107.2
X194.592Y-96.55
X204.438Y-112.541
X204.564Y-122.966
X204.581Y-102.0
X204.691Y-91.35
X210.438Y-117.741
X210.499Y-128.094
X210.581Y-107.2
X210.691Y-96.55
X220.795Y-112.541
X220.935Y-122.846
X220.937Y-102.0
X221.047Y-91.35
X226.795Y-117.741
X226.855Y-128.046
X226.937Y-107.2
X227.047Y-96.55
X237.151Y-112.541
X237.212Y-122.846
X237.294Y-102.0
X237.404Y-91.35
X243.151Y-117.741
X243.212Y-128.046
X243.294Y-107.2
X243.404Y-96.55
X253.508Y-112.541
X253.51Y-122.846
X253.65Y-102.0
X253.76Y-91.35
X259.508Y-117.741
X259.51Y-128.046
X259.65Y-107.2
X259.76Y-96.55
M30
