<?xml version="1.0" encoding="UTF-8"?>
<svg id="Layer_1" xmlns="http://www.w3.org/2000/svg" version="1.1" xmlns:shaper="http://www.shapertools.com/namespaces/shaper" viewBox="0 0 310.65 737.01">
  <!-- Generator: Adobe Illustrator 30.3.0, SVG Export Plug-In . SVG Version: 2.1.3 Build 182)  -->
  <defs>
    <style>
      .st0 {
        fill: none;
        stroke: #000;
        stroke-miterlimit: 10;
      }
    </style>
  </defs>
  <path class="st0" d="M14.3,0C6.47-.07.07,6.22,0,14.05c0,.17,0,.33,0,.5H0l.34,11.62.39,11.61.45,11.6.51,11.59.56,11.58.62,11.56.68,11.55.74,11.54.8,11.53.85,11.51.91,11.5.98,11.49,1.04,11.48,1.1,11.46,1.16,11.45,1.23,11.43,1.29,11.42,1.36,11.4.7,5.7.72,5.69.74,5.69.75,5.68.77,5.68.79,5.68.81,5.67.82,5.67.84,5.66.86,5.66.88,5.66.89,5.65.91,5.65.93,5.64.95,5.64.97,5.63.98,5.63,1,5.63,1.02,5.62,1.04,5.62,1.06,5.61,1.08,5.61,1.1,5.6,1.11,5.6,1.13,5.59,1.15,5.59,1.17,5.58,1.19,5.58,1.21,5.57,1.23,5.57,1.25,5.57,1.27,5.56,1.28,5.56,1.3,5.55,1.32,5.55,1.34,5.54,1.36,5.54,1.38,5.53,1.4,5.53,1.42,5.52,1.43,5.52,1.45,5.52,1.47,5.51,1.49,5.51,1.51,5.5,1.53,5.5,1.54,5.49,1.56,5.49,1.58,5.49,1.6,5.48,1.61,5.48,1.63,5.47,1.65,5.47,1.67,5.47,1.68,5.46,1.7,5.46,1.72,5.45,1.73,5.45,3.52,10.89,3.58,10.87,3.65,10.86,3.71,10.85,3.77,10.83,3.84,10.82,3.9,10.8,3.96,10.79,4.02,10.78,4.08,10.77,4.14,10.75,4.2,10.74,4.26,10.73,4.32,10.72,4.38,10.7,4.43,10.69,4.49,10.68c3.05,7.21,11.37,10.58,18.58,7.52.08-.03.16-.07.23-.1l129.51-57.6c7.06-3.14,10.3-11.35,7.3-18.46h0l-3.93-9.48-3.88-9.49-3.83-9.49-3.78-9.49-3.73-9.5-3.68-9.5-3.63-9.51-3.58-9.51-3.53-9.51-3.48-9.52-3.43-9.52-3.38-9.53-3.33-9.53-3.28-9.54-3.22-9.54-3.17-9.54-3.11-9.55-3.06-9.55-3-9.56-2.94-9.56-2.89-9.57-2.83-9.57-2.77-9.58-2.71-9.58-2.65-9.59-2.59-9.59-2.53-9.6-2.46-9.6-2.4-9.61-2.34-9.61-2.27-9.62-2.21-9.62-2.15-9.63-2.08-9.63-2.02-9.64-1.95-9.64-1.89-9.65-1.83-9.65-1.76-9.66-1.7-9.66-1.64-9.67-1.58-9.67-1.52-9.68-1.46-9.68-1.4-9.69-1.34-9.69-1.28-9.7-1.22-9.7-1.17-9.71-1.11-9.71-1.06-9.72-1-9.72-.95-9.73-.9-9.73-.84-9.73-.79-9.74-.74-9.74-.69-9.75-.64-9.75-.59-9.75-.54-9.76-.49-9.76-.44-9.77-.39-9.77c-.23-6.26,4.65-11.52,10.91-11.75.14,0,.28,0,.42,0h77.3V.47H68.45L14.3,0Z" shaper:cutDepth="0.03cm"/>
</svg>