<?xml version="1.0" encoding="utf-8"?>
<svg xmlns="http://www.w3.org/2000/svg" width="28.842836768848063cm" height="10.327247823723226cm"
     viewBox="0 0 28.842836768848063 10.327247823723226" version="1.1">
  <!-- Generated by scripts/prep_flex_svgs.py for KiCad import. -->
  <!-- Leftmost edge is rotated to be perfectly vertical. -->
  <path d="M 1.834380,8.774079 L 1.826915,8.773736 L 1.819455,8.773301 L 1.812000,8.772772 L 1.804553,8.772151 L 1.797114,8.771437 L 1.789685,8.770631 L 1.782266,8.769732 L 1.774859,8.768741 L 1.767465,8.767657 L 1.760085,8.766482 L 1.752720,8.765215 L 1.745371,8.763856 L 1.738040,8.762405 L 1.730728,8.760864 L 1.723435,8.759231 L 1.716164,8.757508 L 1.708914,8.755695 L 1.701688,8.753791 L 1.694485,8.751797 L 1.687308,8.749714 L 1.680158,8.747542 L 1.673035,8.745280 L 1.665941,8.742930 L 1.658877,8.740492 L 1.651844,8.737967 L 1.644843,8.735353 L 1.637874,8.732653 L 1.630940,8.729867 L 1.624042,8.726994 L 1.617179,8.724035 L 1.610354,8.720991 L 1.603567,8.717862 L 1.596820,8.714650 L 1.590114,8.711353 L 1.583449,8.707973 L 1.576826,8.704510 L 1.570247,8.700965 L 1.563713,8.697339 L 1.557225,8.693631 L 1.550783,8.689843 L 1.544389,8.685975 L 1.538044,8.682027 L 1.531748,8.678001 L 1.525503,8.673897 L 1.519309,8.669715 L 1.513168,8.665456 L 1.507081,8.661121 L 1.501048,8.656711 L 1.495070,8.652226 L 1.489149,8.647667 L 1.483285,8.643034 L 1.477479,8.638329 L 1.471732,8.633552 L 1.466046,8.628704 L 1.460420,8.623785 L 1.454855,8.618796 L 1.449354,8.613739 L 1.443915,8.608613 L 1.438541,8.603421 L 1.433232,8.598161 L 1.427989,8.592836 L 1.422813,8.587446 L 1.417704,8.581992 L 1.412663,8.576475 L 1.407692,8.570895 L 1.402791,8.565254 L 1.397960,8.559552 L 1.393200,8.553791 L 1.388513,8.547970 L 1.383898,8.542092 L 1.379358,8.536157 L 1.374891,8.530166 L 1.370499,8.524119 L 1.366183,8.518018 L 1.361943,8.511864 L 1.357781,8.505658 L 1.353696,8.499400 L 1.349689,8.493092 L 1.345761,8.486735 L 1.341912,8.480329 L 1.338144,8.473875 L 1.334456,8.467376 L 1.330850,8.460830 L 1.327325,8.454241 L 1.323883,8.447608 L 1.320523,8.440932 L 1.317247,8.434216 L 1.314055,8.427459 L 1.310947,8.420662 L 1.307924,8.413828 L 1.304987,8.406956 L 1.302135,8.400049 L 1.299370,8.393106 L 1.296691,8.386130 L 1.294099,8.379121 L 1.291595,8.372080 L 1.289179,8.365008 L 1.286851,8.357907 L 1.284612,8.350777 L 1.282461,8.343620 L 1.280400,8.336437 L 1.278429,8.329228 L 1.276547,8.321996 L 1.274756,8.314741 L 1.273055,8.307464 L 1.271445,8.300166 L 1.269926,8.292849 L 1.268498,8.285514 L 1.267162,8.278161 L 1.265917,8.270793 L 1.264764,8.263409 L 1.263704,8.256011 L 1.262735,8.248601 L 1.261859,8.241180 L 1.261075,8.233748 L 1.260384,8.226307 L 1.259786,8.218858 L 1.259281,8.211402 L 1.258868,8.203940 L 1.258549,8.196474 L 1.258322,8.189004 L 1.258189,8.181532 L 1.258148,8.174059 L 1.258201,8.166587 L 1.258347,8.159115 L 1.258585,8.151646 L 1.258917,8.144180 L 1.259342,8.136719 L 1.309783,7.338311 L 0.112170,7.262649 L 0.002382,9.000449 L 0.001561,9.014804 L 0.000912,9.029169 L 0.000436,9.043540 L 0.000132,9.057916 L 0.000000,9.072294 L 0.000040,9.086673 L 0.000253,9.101051 L 0.000638,9.115424 L 0.001195,9.129793 L 0.001925,9.144153 L 0.002826,9.158504 L 0.003899,9.172843 L 0.005144,9.187168 L 0.006561,9.201477 L 0.008148,9.215768 L 0.009907,9.230039 L 0.011837,9.244288 L 0.013938,9.258513 L 0.016208,9.272711 L 0.018649,9.286882 L 0.021260,9.301022 L 0.024039,9.315130 L 0.026988,9.329203 L 0.030104,9.343240 L 0.033389,9.357239 L 0.036841,9.371197 L 0.040461,9.385113 L 0.044247,9.398985 L 0.048198,9.412810 L 0.052316,9.426587 L 0.056597,9.440314 L 0.061044,9.453989 L 0.065653,9.467609 L 0.070426,9.481173 L 0.075360,9.494678 L 0.080456,9.508124 L 0.085713,9.521508 L 0.091130,9.534827 L 0.096706,9.548081 L 0.102441,9.561267 L 0.108333,9.574383 L 0.114382,9.587428 L 0.120586,9.600400 L 0.126946,9.613296 L 0.133460,9.626115 L 0.140127,9.638855 L 0.146946,9.651514 L 0.153916,9.664091 L 0.161037,9.676583 L 0.168306,9.688989 L 0.175724,9.701307 L 0.183289,9.713535 L 0.191000,9.725672 L 0.198855,9.737715 L 0.206855,9.749664 L 0.214997,9.761516 L 0.223280,9.773269 L 0.231704,9.784922 L 0.240267,9.796474 L 0.248967,9.807922 L 0.257804,9.819265 L 0.266776,9.830501 L 0.275883,9.841629 L 0.285122,9.852647 L 0.294492,9.863553 L 0.303993,9.874347 L 0.313622,9.885026 L 0.323378,9.895588 L 0.333260,9.906033 L 0.343267,9.916359 L 0.353396,9.926564 L 0.363647,9.936648 L 0.374019,9.946607 L 0.384509,9.956442 L 0.395115,9.966150 L 0.405838,9.975730 L 0.416675,9.985182 L 0.427624,9.994502 L 0.438683,10.003691 L 0.449853,10.012747 L 0.461130,10.021668 L 0.472513,10.030453 L 0.484000,10.039102 L 0.495590,10.047612 L 0.507282,10.055983 L 0.519072,10.064212 L 0.530961,10.072301 L 0.542946,10.080246 L 0.555025,10.088046 L 0.567196,10.095702 L 0.579459,10.103211 L 0.591810,10.110573 L 0.604249,10.117786 L 0.616774,10.124850 L 0.629382,10.131763 L 0.642072,10.138524 L 0.654842,10.145133 L 0.667691,10.151589 L 0.680616,10.157890 L 0.693615,10.164035 L 0.706687,10.170025 L 0.719830,10.175857 L 0.733042,10.181532 L 0.746321,10.187047 L 0.759666,10.192404 L 0.773073,10.197600 L 0.786542,10.202635 L 0.800070,10.207508 L 0.813655,10.212219 L 0.827296,10.216766 L 0.840991,10.221150 L 0.854736,10.225370 L 0.868532,10.229424 L 0.882375,10.233313 L 0.896264,10.237036 L 0.910196,10.240592 L 0.924170,10.243981 L 0.938184,10.247202 L 0.952235,10.250255 L 0.966322,10.253139 L 0.980442,10.255855 L 0.994594,10.258401 L 1.008775,10.260777 L 1.022984,10.262983 L 1.037218,10.265019 L 1.051476,10.266884 L 1.065755,10.268578 L 1.080053,10.270101 L 1.093337,10.270704 L 1.106622,10.271304 L 1.119907,10.271902 L 1.133192,10.272496 L 1.146477,10.273088 L 1.159762,10.273678 L 1.173047,10.274264 L 1.186332,10.274848 L 1.199618,10.275429 L 1.212903,10.276008 L 1.226189,10.276584 L 1.239475,10.277157 L 1.252761,10.277728 L 1.266047,10.278295 L 1.279333,10.278860 L 1.292620,10.279423 L 1.305906,10.279982 L 1.319193,10.280539 L 1.332479,10.281094 L 1.345766,10.281645 L 1.359053,10.282194 L 1.372340,10.282740 L 1.385627,10.283284 L 1.398914,10.283825 L 1.412201,10.284363 L 1.425489,10.284898 L 1.438776,10.285431 L 1.452064,10.285961 L 1.465352,10.286488 L 1.478640,10.287013 L 1.491928,10.287535 L 1.505216,10.288054 L 1.518504,10.288570 L 1.531792,10.289084 L 1.545080,10.289595 L 1.558369,10.290104 L 1.571658,10.290609 L 1.584946,10.291112 L 1.598235,10.291613 L 1.611524,10.292110 L 1.624813,10.292605 L 1.638102,10.293097 L 1.651391,10.293587 L 1.664681,10.294074 L 1.677970,10.294558 L 1.691259,10.295039 L 1.704549,10.295518 L 1.717839,10.295994 L 1.731128,10.296467 L 1.744418,10.296938 L 1.757708,10.297406 L 1.770998,10.297871 L 1.784289,10.298334 L 1.797579,10.298794 L 1.810869,10.299251 L 1.824160,10.299705 L 1.837450,10.300157 L 1.850741,10.300606 L 1.864031,10.301052 L 1.877322,10.301496 L 1.890613,10.301937 L 1.903904,10.302375 L 1.917195,10.302811 L 1.930486,10.303244 L 1.943778,10.303674 L 1.957069,10.304101 L 1.970360,10.304526 L 1.983652,10.304948 L 1.996943,10.305367 L 2.010235,10.305784 L 2.023527,10.306198 L 2.036819,10.306609 L 2.050111,10.307018 L 2.063403,10.307424 L 2.076695,10.307827 L 2.089987,10.308227 L 2.103279,10.308625 L 2.116572,10.309020 L 2.129864,10.309413 L 2.143156,10.309802 L 2.156449,10.310189 L 2.169742,10.310574 L 2.183034,10.310955 L 2.196327,10.311334 L 2.209620,10.311710 L 2.222913,10.312084 L 2.236206,10.312454 L 2.249499,10.312823 L 2.262792,10.313188 L 2.276086,10.313551 L 2.289379,10.313911 L 2.302672,10.314268 L 2.315966,10.314622 L 2.329259,10.314974 L 2.342553,10.315324 L 2.355847,10.315670 L 2.369140,10.316014 L 2.382434,10.316355 L 2.395728,10.316693 L 2.409022,10.317029 L 2.422316,10.317362 L 2.435610,10.317692 L 2.448905,10.318020 L 2.462199,10.318345 L 2.475493,10.318667 L 2.488787,10.318987 L 2.502082,10.319303 L 2.515376,10.319617 L 2.528671,10.319929 L 2.541966,10.320238 L 2.555260,10.320544 L 2.568555,10.320847 L 2.581850,10.321147 L 2.595145,10.321445 L 2.608440,10.321741 L 2.621735,10.322033 L 2.635030,10.322323 L 2.648325,10.322610 L 2.661620,10.322894 L 2.674915,10.323176 L 2.688210,10.323455 L 2.701506,10.323731 L 2.714801,10.324005 L 2.728097,10.324276 L 2.741392,10.324544 L 2.754688,10.324810 L 2.767983,10.325073 L 2.781279,10.325333 L 2.781279,10.325333 L 3.205690,10.327248 L 3.629692,10.326981 L 4.053283,10.324527 L 4.476462,10.319881 L 4.899228,10.313033 L 5.321578,10.303972 L 5.743510,10.292684 L 6.165021,10.279153 L 6.586107,10.263360 L 7.006764,10.245284 L 7.426989,10.224904 L 7.846776,10.202194 L 8.056504,10.189958 L 8.266121,10.177129 L 8.475626,10.163705 L 8.685018,10.149680 L 8.894298,10.135053 L 9.103463,10.119819 L 9.312513,10.103974 L 9.521448,10.087515 L 9.730267,10.070437 L 9.938969,10.052736 L 10.147554,10.034409 L 10.356020,10.015450 L 10.564366,9.995857 L 10.772593,9.975625 L 10.980699,9.954751 L 11.188684,9.933228 L 11.396546,9.911055 L 11.604285,9.888226 L 11.811900,9.864738 L 12.019391,9.840586 L 12.226756,9.815767 L 12.433995,9.790277 L 12.641108,9.764111 L 12.848093,9.737267 L 13.054950,9.709740 L 13.261678,9.681527 L 13.468276,9.652625 L 13.674745,9.623030 L 13.881083,9.592738 L 14.087289,9.561749 L 14.293364,9.530057 L 14.499307,9.497661 L 14.705117,9.464559 L 14.910794,9.430748 L 15.116337,9.396226 L 15.321747,9.360992 L 15.527022,9.325043 L 15.732164,9.288380 L 15.937171,9.251001 L 16.142043,9.212906 L 16.142043,9.212906 L 16.339140,9.175556 L 16.536113,9.137542 L 16.732961,9.098864 L 16.929685,9.059524 L 17.126285,9.019522 L 17.322760,8.978860 L 17.519112,8.937538 L 17.715340,8.895559 L 17.911445,8.852925 L 18.107428,8.809637 L 18.303288,8.765698 L 18.499026,8.721110 L 18.694643,8.675876 L 18.890140,8.629999 L 19.085515,8.583481 L 19.280772,8.536325 L 19.475909,8.488535 L 19.670927,8.440114 L 19.865828,8.391065 L 20.060611,8.341390 L 20.255278,8.291095 L 20.449828,8.240182 L 20.644264,8.188655 L 20.838584,8.136516 L 21.032791,8.083771 L 21.226884,8.030423 L 21.420865,7.976475 L 21.614734,7.921931 L 22.002138,7.811069 L 22.389103,7.697868 L 22.775635,7.582355 L 23.161737,7.464560 L 23.547416,7.344510 L 23.932677,7.222231 L 24.317525,7.097751 L 24.701963,6.971093 L 25.085997,6.842280 L 25.469630,6.711334 L 25.852866,6.578274 L 26.235709,6.443120 L 26.618162,6.305888 L 27.000227,6.166591 L 27.381907,6.025243 L 27.763204,5.881854 L 28.144119,5.736432 L 28.524653,5.588982 L 28.530422,5.586689 L 28.536162,5.584324 L 28.541873,5.581888 L 28.547553,5.579382 L 28.553201,5.576805 L 28.558817,5.574158 L 28.564399,5.571442 L 28.569948,5.568656 L 28.575461,5.565802 L 28.580939,5.562880 L 28.586379,5.559890 L 28.591783,5.556832 L 28.597147,5.553708 L 28.602473,5.550517 L 28.607759,5.547261 L 28.613004,5.543939 L 28.618207,5.540552 L 28.623367,5.537101 L 28.628485,5.533586 L 28.633558,5.530007 L 28.638587,5.526366 L 28.643570,5.522663 L 28.648506,5.518898 L 28.653396,5.515073 L 28.658238,5.511187 L 28.663031,5.507241 L 28.667774,5.503235 L 28.672468,5.499172 L 28.677110,5.495050 L 28.681702,5.490871 L 28.686241,5.486635 L 28.690727,5.482343 L 28.695159,5.477996 L 28.699537,5.473595 L 28.703860,5.469139 L 28.708127,5.464630 L 28.712338,5.460068 L 28.716493,5.455454 L 28.720589,5.450789 L 28.724627,5.446074 L 28.728607,5.441308 L 28.732527,5.436494 L 28.736387,5.431631 L 28.740186,5.426721 L 28.743924,5.421764 L 28.747600,5.416761 L 28.751213,5.411713 L 28.754764,5.406620 L 28.758251,5.401484 L 28.761675,5.396305 L 28.765033,5.391083 L 28.768327,5.385820 L 28.771555,5.380517 L 28.774716,5.375174 L 28.777812,5.369793 L 28.780840,5.364373 L 28.783800,5.358916 L 28.786693,5.353423 L 28.789517,5.347894 L 28.792273,5.342331 L 28.794959,5.336733 L 28.797575,5.331103 L 28.800121,5.325441 L 28.802597,5.319748 L 28.805002,5.314024 L 28.807336,5.308271 L 28.809598,5.302490 L 28.811788,5.296680 L 28.813906,5.290845 L 28.815951,5.284983 L 28.817923,5.279096 L 28.819822,5.273185 L 28.821647,5.267251 L 28.823399,5.261295 L 28.825076,5.255318 L 28.826679,5.249320 L 28.828208,5.243303 L 28.829662,5.237267 L 28.831040,5.231214 L 28.832344,5.225144 L 28.833572,5.219058 L 28.834724,5.212958 L 28.835801,5.206843 L 28.836801,5.200716 L 28.837725,5.194577 L 28.838573,5.188427 L 28.839345,5.182267 L 28.840040,5.176097 L 28.840658,5.169920 L 28.841200,5.163735 L 28.841665,5.157544 L 28.842053,5.151348 L 28.842364,5.145148 L 28.842597,5.138944 L 28.842754,5.132737 L 28.842834,5.126530 L 28.842837,5.120321 L 28.842762,5.114113 L 28.842611,5.107907 L 28.842382,5.101703 L 28.842077,5.095502 L 28.841694,5.089305 L 28.841235,5.083114 L 28.840699,5.076929 L 28.840086,5.070751 L 28.839396,5.064581 L 28.838630,5.058420 L 28.837787,5.052269 L 28.836868,5.046129 L 28.835873,5.040001 L 28.834802,5.033886 L 28.833655,5.027785 L 28.832432,5.021698 L 28.831134,5.015627 L 28.829761,5.009572 L 28.828312,5.003535 L 28.826789,4.997517 L 28.825191,4.991518 L 28.823519,4.985539 L 28.821772,4.979581 L 28.819952,4.973646 L 28.818058,4.967733 L 28.816091,4.961845 L 28.814051,4.955981 L 28.811939,4.950143 L 28.809754,4.944332 L 28.807497,4.938549 L 28.805168,4.932794 L 26.901035,0.309586 L 26.898906,0.304497 L 26.896721,0.299432 L 26.894481,0.294391 L 26.892185,0.289375 L 26.889833,0.284385 L 26.887427,0.279421 L 26.884966,0.274484 L 26.882451,0.269575 L 26.879882,0.264693 L 26.877259,0.259840 L 26.874583,0.255017 L 26.871853,0.250223 L 26.869071,0.245459 L 26.866237,0.240727 L 26.863351,0.236026 L 26.860412,0.231357 L 26.857423,0.226721 L 26.854383,0.222118 L 26.851292,0.217549 L 26.848150,0.213015 L 26.844959,0.208515 L 26.841719,0.204051 L 26.838429,0.199623 L 26.835091,0.195231 L 26.831704,0.190877 L 26.828270,0.186560 L 26.824788,0.182281 L 26.821260,0.178041 L 26.817684,0.173840 L 26.814063,0.169679 L 26.810396,0.165558 L 26.806684,0.161478 L 26.802926,0.157439 L 26.799125,0.153442 L 26.795280,0.149487 L 26.791391,0.145574 L 26.787459,0.141705 L 26.783485,0.137879 L 26.779469,0.134097 L 26.775411,0.130360 L 26.771313,0.126668 L 26.767174,0.123021 L 26.762995,0.119421 L 26.758776,0.115866 L 26.754519,0.112358 L 26.750223,0.108898 L 26.745889,0.105485 L 26.741518,0.102120 L 26.737110,0.098803 L 26.732666,0.095536 L 26.728186,0.092317 L 26.723670,0.089149 L 26.719120,0.086030 L 26.714536,0.082961 L 26.709918,0.079944 L 26.705268,0.076977 L 26.700584,0.074062 L 26.695869,0.071199 L 26.691123,0.068388 L 26.686346,0.065630 L 26.681538,0.062924 L 26.676702,0.060272 L 26.671836,0.057673 L 26.666942,0.055128 L 26.662020,0.052637 L 26.657071,0.050200 L 26.652095,0.047819 L 26.647093,0.045492 L 26.642066,0.043221 L 26.637015,0.041005 L 26.631939,0.038845 L 26.626839,0.036742 L 26.621717,0.034694 L 26.616572,0.032704 L 26.611406,0.030770 L 26.606219,0.028893 L 26.601011,0.027074 L 26.595784,0.025312 L 26.590537,0.023608 L 26.585272,0.021962 L 26.579989,0.020374 L 26.574689,0.018845 L 26.569372,0.017374 L 26.564040,0.015962 L 26.558692,0.014609 L 26.553330,0.013314 L 26.547954,0.012080 L 26.542564,0.010904 L 26.537162,0.009788 L 26.531747,0.008732 L 26.526322,0.007735 L 26.520886,0.006799 L 26.515439,0.005922 L 26.509984,0.005106 L 26.504520,0.004349 L 26.499047,0.003654 L 26.493568,0.003018 L 26.488081,0.002443 L 26.482589,0.001929 L 26.477091,0.001475 L 26.471589,0.001082 L 26.466083,0.000750 L 26.460573,0.000478 L 26.455061,0.000267 L 26.449547,0.000117 L 26.444031,0.000028 L 26.438515,0.000000 L 26.432999,0.000033 L 26.427483,0.000126 L 26.421969,0.000280 L 26.416457,0.000496 L 26.410947,0.000771 L 26.405441,0.001108 L 26.399939,0.001506 L 26.394442,0.001964 L 26.388950,0.002482 L 26.383464,0.003062 L 26.377985,0.003701 L 26.372514,0.004402 L 26.367050,0.005162 L 26.361595,0.005983 L 26.356149,0.006864 L 26.350714,0.007805 L 26.345289,0.008805 L 26.339876,0.009866 L 26.334474,0.010986 L 26.329086,0.012166 L 26.323710,0.013405 L 26.152917,0.082032 L 25.981912,0.150131 L 25.810697,0.217700 L 25.639273,0.284739 L 25.467644,0.351247 L 25.295809,0.417224 L 25.123771,0.482669 L 24.951531,0.547582 L 24.779091,0.611961 L 24.606453,0.675807 L 24.433619,0.739118 L 24.260589,0.801894 L 24.087366,0.864135 L 23.913951,0.925839 L 23.740346,0.987007 L 23.566553,1.047637 L 23.392573,1.107730 L 23.218407,1.167283 L 23.044059,1.226298 L 22.869528,1.284773 L 22.694818,1.342708 L 22.519929,1.400102 L 22.344864,1.456954 L 22.169623,1.513265 L 21.994209,1.569033 L 21.818624,1.624259 L 21.642868,1.678941 L 21.466944,1.733078 L 21.290853,1.786672 L 21.114598,1.839720 L 20.938179,1.892223 L 20.761599,1.944180 L 20.584858,1.995590 L 20.407960,2.046453 L 20.230905,2.096769 L 20.053695,2.146536 L 19.876332,2.195755 L 19.698817,2.244426 L 19.521153,2.292546 L 19.343341,2.340117 L 19.165383,2.387138 L 18.987280,2.433608 L 18.809034,2.479526 L 18.630646,2.524893 L 18.452120,2.569708 L 18.273455,2.613970 L 18.094655,2.657680 L 17.915720,2.700836 L 17.736652,2.743438 L 17.557454,2.785486 L 17.378126,2.826979 L 17.198671,2.867918 L 17.019089,2.908301 L 16.839384,2.948128 L 16.659557,2.987399 L 16.479609,3.026114 L 16.299542,3.064271 L 16.119357,3.101872 L 15.939058,3.138915 L 15.758644,3.175399 L 15.578119,3.211326 L 15.397483,3.246694 L 15.216739,3.281503 L 15.035888,3.315752 L 14.854931,3.349442 L 14.673872,3.382572 L 14.492711,3.415141 L 14.311450,3.447150 L 14.130090,3.478598 L 13.948635,3.509485 L 13.767084,3.539810 L 13.585441,3.569573 L 13.403706,3.598775 L 13.221882,3.627414 L 13.039971,3.655490 L 12.857973,3.683003 L 12.675891,3.709953 L 12.493727,3.736340 L 12.311481,3.762163 L 12.129157,3.787422 L 11.946756,3.812117 L 11.764279,3.836248 L 11.581728,3.859813 L 11.399105,3.882814 L 11.216412,3.905250 L 11.033650,3.927121 L 10.850822,3.948426 L 10.667928,3.969165 L 10.484971,3.989339 L 10.301953,4.008946 L 10.118875,4.027987 L 9.935739,4.046461 L 9.752546,4.064369 L 9.569299,4.081710 L 9.386000,4.098484 L 9.202649,4.114691 L 9.019249,4.130330 L 8.835801,4.145402 L 8.652308,4.159907 L 8.468771,4.173843 L 8.285191,4.187212 L 8.101571,4.200013 L 7.917913,4.212246 L 7.734217,4.223910 L 7.550486,4.235006 L 7.366722,4.245534 L 7.182926,4.255493 L 6.999100,4.264883 L 6.815246,4.273705 L 6.631365,4.281957 L 6.447460,4.289641 L 6.263532,4.296756 L 6.079583,4.303302 L 5.895614,4.309278 L 5.711628,4.314686 L 5.527626,4.319524 L 5.343610,4.323793 L 5.159582,4.327493 L 4.975543,4.330623 L 4.791495,4.333184 L 4.607440,4.335175 L 4.423380,4.336598 L 4.239316,4.337450 L 4.055251,4.337733 L 3.871185,4.337447 L 3.687122,4.336591 L 3.503062,4.335166 L 3.319007,4.333172 L 3.313548,4.333967 L 3.308098,4.334822 L 3.302659,4.335738 L 3.297229,4.336713 L 3.291811,4.337749 L 3.286404,4.338844 L 3.281010,4.339998 L 3.275629,4.341212 L 3.270262,4.342486 L 3.264909,4.343818 L 3.259571,4.345210 L 3.254249,4.346660 L 3.248943,4.348169 L 3.243654,4.349736 L 3.238382,4.351362 L 3.233129,4.353045 L 3.227895,4.354787 L 3.222680,4.356586 L 3.217486,4.358442 L 3.212312,4.360356 L 3.207160,4.362327 L 3.202030,4.364354 L 3.196922,4.366438 L 3.191838,4.368578 L 3.186777,4.370774 L 3.181742,4.373026 L 3.176731,4.375333 L 3.171746,4.377696 L 3.166787,4.380113 L 3.161856,4.382585 L 3.156952,4.385111 L 3.152076,4.387690 L 3.147229,4.390324 L 3.142411,4.393011 L 3.137624,4.395751 L 3.132866,4.398543 L 3.128140,4.401388 L 3.123446,4.404285 L 3.118783,4.407234 L 3.114154,4.410233 L 3.109558,4.413284 L 3.104996,4.416385 L 3.100468,4.419536 L 3.095976,4.422737 L 3.091519,4.425988 L 3.087098,4.429287 L 3.082714,4.432635 L 3.078367,4.436031 L 3.074057,4.439475 L 3.069786,4.442966 L 3.065554,4.446504 L 3.061361,4.450089 L 3.057208,4.453719 L 3.053095,4.457395 L 3.049023,4.461117 L 3.044992,4.464883 L 3.041003,4.468693 L 3.037057,4.472547 L 3.033153,4.476445 L 3.029292,4.480385 L 3.025475,4.484367 L 3.021703,4.488392 L 3.017974,4.492458 L 3.014291,4.496564 L 3.010654,4.500711 L 3.007062,4.504898 L 3.003517,4.509125 L 3.000019,4.513390 L 2.996568,4.517693 L 2.993164,4.522035 L 2.989809,4.526413 L 2.986502,4.530829 L 2.983245,4.535280 L 2.980036,4.539767 L 2.976877,4.544290 L 2.973769,4.548847 L 2.970710,4.553438 L 2.967703,4.558062 L 2.964747,4.562719 L 2.961842,4.567409 L 2.958989,4.572130 L 2.956189,4.576883 L 2.953441,4.581666 L 2.950746,4.586479 L 2.948104,4.591322 L 2.945516,4.596194 L 2.942982,4.601093 L 2.940502,4.606021 L 2.938077,4.610975 L 2.935706,4.615956 L 2.933390,4.620963 L 2.931130,4.625995 L 2.928926,4.631052 L 2.926777,4.636132 L 2.924685,4.641236 L 2.922649,4.646363 L 2.920669,4.651512 L 2.918747,4.656683 L 2.916882,4.661874 L 2.915074,4.667086 L 2.913324,4.672317 L 2.911631,4.677568 L 2.909997,4.682836 L 2.908421,4.688123 L 2.906903,4.693426 L 2.905444,4.698746 L 2.904044,4.704081 L 2.902702,4.709432 L 2.901420,4.714797 L 2.900197,4.720176 L 2.899033,4.725569 L 2.897929,4.730973 L 2.896885,4.736390 L 2.895901,4.741818 L 2.894976,4.747256 L 2.894111,4.752704 L 2.893307,4.758162 L 2.892563,4.763627 L 2.891879,4.769101 L 2.891256,4.774582 L 2.890693,4.780070 L 2.890191,4.785563 L 2.889749,4.791062 L 2.889368,4.796565 L 2.889048,4.802072 L 2.888789,4.807582 L 2.888590,4.813095 L 2.888452,4.818610 L 2.825608,8.047652 L 2.825368,8.056971 L 2.825013,8.066287 L 2.824543,8.075597 L 2.823956,8.084900 L 2.823254,8.094196 L 2.822436,8.103482 L 2.821503,8.112757 L 2.820455,8.122020 L 2.819292,8.131269 L 2.818014,8.140503 L 2.816621,8.149720 L 2.815114,8.158919 L 2.813492,8.168099 L 2.811757,8.177258 L 2.809908,8.186395 L 2.807945,8.195508 L 2.805870,8.204596 L 2.803681,8.213657 L 2.801380,8.222691 L 2.798967,8.231695 L 2.796443,8.240669 L 2.793806,8.249610 L 2.791059,8.258518 L 2.788202,8.267392 L 2.785234,8.276229 L 2.782157,8.285028 L 2.778971,8.293789 L 2.775676,8.302509 L 2.772273,8.311187 L 2.768762,8.319823 L 2.765144,8.328414 L 2.761420,8.336960 L 2.757590,8.345459 L 2.753655,8.353909 L 2.749614,8.362310 L 2.745470,8.370660 L 2.741222,8.378958 L 2.736872,8.387203 L 2.732419,8.395392 L 2.727865,8.403526 L 2.723210,8.411603 L 2.718455,8.419621 L 2.713600,8.427579 L 2.708648,8.435477 L 2.703597,8.443312 L 2.698450,8.451084 L 2.693206,8.458791 L 2.687867,8.466432 L 2.682433,8.474007 L 2.676905,8.481513 L 2.671285,8.488951 L 2.665573,8.496317 L 2.659769,8.503613 L 2.653876,8.510835 L 2.647893,8.517984 L 2.641821,8.525057 L 2.635663,8.532055 L 2.629417,8.538976 L 2.623087,8.545818 L 2.616671,8.552581 L 2.610172,8.559264 L 2.603591,8.565866 L 2.596928,8.572386 L 2.590184,8.578822 L 2.583361,8.585173 L 2.576459,8.591440 L 2.569481,8.597620 L 2.562426,8.603713 L 2.555295,8.609718 L 2.548091,8.615634 L 2.540814,8.621460 L 2.533464,8.627194 L 2.526044,8.632837 L 2.518555,8.638388 L 2.510997,8.643845 L 2.503372,8.649207 L 2.495681,8.654475 L 2.487925,8.659646 L 2.480105,8.664720 L 2.472223,8.669697 L 2.464279,8.674576 L 2.456276,8.679356 L 2.448214,8.684035 L 2.440094,8.688614 L 2.431918,8.693092 L 2.423687,8.697468 L 2.415402,8.701741 L 2.407065,8.705911 L 2.398676,8.709977 L 2.390238,8.713938 L 2.381751,8.717795 L 2.373216,8.721545 L 2.364636,8.725189 L 2.356011,8.728726 L 2.347343,8.732156 L 2.338633,8.735477 L 2.329882,8.738691 L 2.321092,8.741795 L 2.312265,8.744789 L 2.303400,8.747674 L 2.294501,8.750448 L 2.285567,8.753112 L 2.276601,8.755664 L 2.267605,8.758105 L 2.258578,8.760433 L 2.249523,8.762649 L 2.240442,8.764753 L 2.231335,8.766743 L 2.222204,8.768620 L 2.213050,8.770384 L 2.203875,8.772033 L 2.194681,8.773569 L 2.185468,8.774990 L 2.176238,8.776296 L 2.166992,8.777488 L 2.157733,8.778564 L 2.148460,8.779526 L 2.139177,8.780372 L 2.129884,8.781102 L 2.120582,8.781717 L 2.111273,8.782217 L 2.101959,8.782600 L 2.092641,8.782868 L 2.083320,8.783020 L 2.073998,8.783056 L 2.064677,8.782977 L 2.055357,8.782781 L 2.046040,8.782470 L 1.834380,8.774079 Z" fill="none" stroke="black" stroke-width="0.01" stroke-linecap="round" stroke-linejoin="round"/>
</svg>
