<?xml version="1.0" encoding="utf-8"?>
<svg xmlns="http://www.w3.org/2000/svg" width="10.327440587711624cm" height="28.84280397806419cm"
     viewBox="0 0 10.327440587711624 28.84280397806419" version="1.1">
  <!-- Generated by scripts/prep_flex_svgs.py for KiCad import. -->
  <!-- Leftmost edge is rotated to be perfectly vertical. -->
  <path d="M 7.332577,27.682959 L 7.266382,28.730871 L 9.000668,28.840423 L 9.015024,28.841243 L 9.029388,28.841892 L 9.043759,28.842368 L 9.058135,28.842672 L 9.072513,28.842804 L 9.086892,28.842763 L 9.101270,28.842551 L 9.115644,28.842166 L 9.130012,28.841608 L 9.144372,28.840879 L 9.158723,28.839977 L 9.173062,28.838904 L 9.187387,28.837659 L 9.201696,28.836242 L 9.215987,28.834654 L 9.230258,28.832895 L 9.244507,28.830965 L 9.258732,28.828865 L 9.272931,28.826594 L 9.287101,28.824153 L 9.301241,28.821543 L 9.315349,28.818763 L 9.329422,28.815814 L 9.343459,28.812697 L 9.357458,28.809412 L 9.371416,28.805960 L 9.385332,28.802341 L 9.399204,28.798555 L 9.413029,28.794603 L 9.426806,28.790486 L 9.440533,28.786203 L 9.454207,28.781757 L 9.467827,28.777148 L 9.481391,28.772375 L 9.494897,28.767440 L 9.508343,28.762344 L 9.521726,28.757087 L 9.535046,28.751670 L 9.548300,28.746094 L 9.561486,28.740359 L 9.574602,28.734467 L 9.587647,28.728418 L 9.600618,28.722213 L 9.613514,28.715853 L 9.626333,28.709340 L 9.639073,28.702673 L 9.651732,28.695853 L 9.664309,28.688883 L 9.676801,28.681762 L 9.689207,28.674493 L 9.701525,28.667075 L 9.713753,28.659510 L 9.725890,28.651799 L 9.737933,28.643943 L 9.749881,28.635944 L 9.761733,28.627802 L 9.773486,28.619518 L 9.785140,28.611094 L 9.796691,28.602531 L 9.808139,28.593831 L 9.819482,28.584994 L 9.830718,28.576021 L 9.841846,28.566915 L 9.852864,28.557676 L 9.863770,28.548305 L 9.874564,28.538805 L 9.885242,28.529176 L 9.895805,28.519419 L 9.906250,28.509537 L 9.916576,28.499530 L 9.926781,28.489401 L 9.936864,28.479149 L 9.946823,28.468778 L 9.956658,28.458288 L 9.966366,28.447681 L 9.975946,28.436959 L 9.985398,28.426122 L 9.994718,28.415173 L 10.003907,28.404113 L 10.012962,28.392944 L 10.021884,28.381667 L 10.030669,28.370284 L 10.039317,28.358796 L 10.047827,28.347206 L 10.056198,28.335514 L 10.064428,28.323723 L 10.072516,28.311835 L 10.080460,28.299850 L 10.088261,28.287771 L 10.095917,28.275599 L 10.103426,28.263337 L 10.110787,28.250985 L 10.118000,28.238546 L 10.125064,28.226021 L 10.131977,28.213413 L 10.138738,28.200723 L 10.145347,28.187953 L 10.151802,28.175104 L 10.158103,28.162179 L 10.164249,28.149180 L 10.170238,28.136107 L 10.176070,28.122964 L 10.181745,28.109752 L 10.187261,28.096473 L 10.192617,28.083129 L 10.197813,28.069722 L 10.202848,28.056253 L 10.207721,28.042725 L 10.212431,28.029139 L 10.216979,28.015498 L 10.221363,28.001804 L 10.225582,27.988058 L 10.229636,27.974262 L 10.233525,27.960419 L 10.237248,27.946530 L 10.240804,27.932598 L 10.244192,27.918624 L 10.247413,27.904610 L 10.250466,27.890559 L 10.253351,27.876472 L 10.256066,27.862352 L 10.258612,27.848200 L 10.260988,27.834019 L 10.263194,27.819810 L 10.265230,27.805576 L 10.267095,27.791318 L 10.268789,27.777039 L 10.270312,27.762741 L 10.270914,27.749457 L 10.271514,27.736172 L 10.272112,27.722887 L 10.272706,27.709602 L 10.273298,27.696317 L 10.273887,27.683032 L 10.274474,27.669747 L 10.275058,27.656462 L 10.275639,27.643176 L 10.276217,27.629891 L 10.276793,27.616605 L 10.277366,27.603319 L 10.277936,27.590033 L 10.278504,27.576747 L 10.279069,27.563461 L 10.279631,27.550174 L 10.280191,27.536888 L 10.280748,27.523601 L 10.281302,27.510315 L 10.281853,27.497028 L 10.282402,27.483741 L 10.282948,27.470454 L 10.283492,27.457167 L 10.284032,27.443880 L 10.284570,27.430592 L 10.285106,27.417305 L 10.285638,27.404018 L 10.286168,27.390730 L 10.286695,27.377442 L 10.287220,27.364154 L 10.287741,27.350866 L 10.288261,27.337578 L 10.288777,27.324290 L 10.289291,27.311002 L 10.289802,27.297713 L 10.290310,27.284425 L 10.290816,27.271136 L 10.291318,27.257848 L 10.291819,27.244559 L 10.292316,27.231270 L 10.292811,27.217981 L 10.293303,27.204692 L 10.293793,27.191403 L 10.294279,27.178113 L 10.294763,27.164824 L 10.295245,27.151534 L 10.295723,27.138245 L 10.296199,27.124955 L 10.296672,27.111665 L 10.297143,27.098375 L 10.297611,27.085086 L 10.298076,27.071795 L 10.298538,27.058505 L 10.298998,27.045215 L 10.299455,27.031925 L 10.299909,27.018634 L 10.300361,27.005344 L 10.300810,26.992053 L 10.301256,26.978762 L 10.301700,26.965472 L 10.302141,26.952181 L 10.302579,26.938890 L 10.303014,26.925599 L 10.303447,26.912307 L 10.303877,26.899016 L 10.304304,26.885725 L 10.304729,26.872433 L 10.305151,26.859142 L 10.305570,26.845850 L 10.305987,26.832559 L 10.306401,26.819267 L 10.306812,26.805975 L 10.307220,26.792683 L 10.307626,26.779391 L 10.308029,26.766099 L 10.308429,26.752807 L 10.308827,26.739515 L 10.309222,26.726222 L 10.309614,26.712930 L 10.310004,26.699637 L 10.310391,26.686345 L 10.310775,26.673052 L 10.311156,26.659759 L 10.311535,26.646466 L 10.311911,26.633174 L 10.312285,26.619881 L 10.312655,26.606588 L 10.313023,26.593294 L 10.313388,26.580001 L 10.313751,26.566708 L 10.314111,26.553415 L 10.314468,26.540121 L 10.314823,26.526828 L 10.315174,26.513534 L 10.315523,26.500241 L 10.315870,26.486947 L 10.316214,26.473653 L 10.316555,26.460359 L 10.316893,26.447065 L 10.317228,26.433771 L 10.317561,26.420477 L 10.317891,26.407183 L 10.318219,26.393889 L 10.318544,26.380595 L 10.318866,26.367301 L 10.319185,26.354006 L 10.319502,26.340712 L 10.319816,26.327417 L 10.320127,26.314123 L 10.320436,26.300828 L 10.320742,26.287533 L 10.321045,26.274239 L 10.321345,26.260944 L 10.321643,26.247649 L 10.321938,26.234354 L 10.322231,26.221059 L 10.322520,26.207764 L 10.322807,26.194469 L 10.323092,26.181174 L 10.323373,26.167879 L 10.323652,26.154583 L 10.323928,26.141288 L 10.324202,26.127992 L 10.324473,26.114697 L 10.324741,26.101402 L 10.325006,26.088106 L 10.325269,26.074810 L 10.325529,26.061515 L 10.325529,26.061515 L 10.327441,25.637103 L 10.327170,25.213102 L 10.324713,24.789511 L 10.320063,24.366332 L 10.313212,23.943566 L 10.304147,23.521216 L 10.292856,23.099284 L 10.279321,22.677773 L 10.263524,22.256687 L 10.245446,21.836030 L 10.225062,21.415806 L 10.202349,20.996019 L 10.190111,20.786291 L 10.177280,20.576674 L 10.163854,20.367169 L 10.149828,20.157777 L 10.135199,19.948498 L 10.119963,19.739332 L 10.104116,19.530282 L 10.087655,19.321347 L 10.070575,19.112528 L 10.052873,18.903826 L 10.034544,18.695242 L 10.015584,18.486776 L 9.995989,18.278430 L 9.975755,18.070203 L 9.954879,17.862098 L 9.933355,17.654113 L 9.911180,17.446251 L 9.888349,17.238512 L 9.864859,17.030897 L 9.840706,16.823407 L 9.815885,16.616042 L 9.790393,16.408803 L 9.764226,16.201690 L 9.737380,15.994705 L 9.709851,15.787849 L 9.681636,15.581121 L 9.652732,15.374523 L 9.623135,15.168054 L 9.592843,14.961717 L 9.561851,14.755510 L 9.530158,14.549436 L 9.497761,14.343493 L 9.464656,14.137684 L 9.430844,13.932007 L 9.396320,13.726464 L 9.361084,13.521055 L 9.325134,13.315779 L 9.288469,13.110638 L 9.251088,12.905632 L 9.212991,12.700760 L 9.212991,12.700760 L 9.175639,12.503663 L 9.137624,12.306690 L 9.098945,12.109842 L 9.059603,11.913119 L 9.019599,11.716520 L 8.978935,11.520045 L 8.937612,11.323693 L 8.895632,11.127465 L 8.852996,10.931361 L 8.809706,10.735378 L 8.765766,10.539519 L 8.721176,10.343781 L 8.675941,10.148164 L 8.630062,9.952668 L 8.583542,9.757293 L 8.536385,9.562037 L 8.488593,9.366900 L 8.440170,9.171882 L 8.391119,8.976982 L 8.341443,8.782199 L 8.291146,8.587533 L 8.240232,8.392983 L 8.188703,8.198548 L 8.136563,8.004228 L 8.083816,7.810021 L 8.030466,7.615929 L 7.976517,7.421948 L 7.921971,7.228080 L 7.811106,6.840676 L 7.697901,6.453712 L 7.582386,6.067182 L 7.464587,5.681080 L 7.344534,5.295402 L 7.222252,4.910142 L 7.097769,4.525296 L 6.971107,4.140859 L 6.842291,3.756826 L 6.711342,3.373194 L 6.578279,2.989959 L 6.443122,2.607117 L 6.305887,2.224665 L 6.166587,1.842601 L 6.025235,1.460922 L 5.881843,1.079627 L 5.736417,0.698713 L 5.588965,0.318180 L 5.586672,0.312411 L 5.584307,0.306671 L 5.581871,0.300960 L 5.579364,0.295280 L 5.576787,0.289632 L 5.574141,0.284016 L 5.571424,0.278434 L 5.568639,0.272885 L 5.565784,0.267372 L 5.562862,0.261895 L 5.559872,0.256454 L 5.556814,0.251051 L 5.553690,0.245686 L 5.550499,0.240360 L 5.547243,0.235074 L 5.543920,0.229830 L 5.540534,0.224627 L 5.537082,0.219466 L 5.533567,0.214349 L 5.529989,0.209275 L 5.526348,0.204247 L 5.522645,0.199264 L 5.518880,0.194327 L 5.515054,0.189438 L 5.511168,0.184596 L 5.507222,0.179803 L 5.503217,0.175059 L 5.499153,0.170366 L 5.495031,0.165723 L 5.490852,0.161132 L 5.486617,0.156593 L 5.482325,0.152107 L 5.477978,0.147675 L 5.473576,0.143297 L 5.469120,0.138974 L 5.464611,0.134707 L 5.460049,0.130495 L 5.455435,0.126341 L 5.450770,0.122245 L 5.446055,0.118207 L 5.441289,0.114227 L 5.436475,0.110307 L 5.431612,0.106448 L 5.426702,0.102648 L 5.421745,0.098911 L 5.416742,0.095235 L 5.411694,0.091621 L 5.406601,0.088070 L 5.401465,0.084583 L 5.396285,0.081160 L 5.391064,0.077801 L 5.385801,0.074508 L 5.380498,0.071280 L 5.375155,0.068118 L 5.369773,0.065023 L 5.364354,0.061995 L 5.358897,0.059034 L 5.353403,0.056142 L 5.347875,0.053318 L 5.342311,0.050562 L 5.336714,0.047876 L 5.331084,0.045260 L 5.325422,0.042714 L 5.319728,0.040238 L 5.314005,0.037833 L 5.308252,0.035500 L 5.302470,0.033238 L 5.296661,0.031048 L 5.290825,0.028930 L 5.284963,0.026885 L 5.279076,0.024913 L 5.273165,0.023014 L 5.267231,0.021188 L 5.261275,0.019437 L 5.255298,0.017759 L 5.249300,0.016156 L 5.243283,0.014628 L 5.237247,0.013174 L 5.231194,0.011795 L 5.225124,0.010492 L 5.219038,0.009264 L 5.212938,0.008112 L 5.206823,0.007035 L 5.200696,0.006035 L 5.194557,0.005111 L 5.188407,0.004263 L 5.182247,0.003491 L 5.176077,0.002796 L 5.169900,0.002178 L 5.163715,0.001636 L 5.157524,0.001172 L 5.151328,0.000784 L 5.145128,0.000473 L 5.138924,0.000239 L 5.132717,0.000082 L 5.126510,0.000003 L 5.120301,0.000000 L 5.114093,0.000074 L 5.107887,0.000226 L 5.101683,0.000455 L 5.095482,0.000760 L 5.089285,0.001143 L 5.083094,0.001602 L 5.076909,0.002138 L 5.070731,0.002751 L 5.064561,0.003441 L 5.058400,0.004207 L 5.052249,0.005050 L 5.046109,0.005969 L 5.039981,0.006964 L 5.033866,0.008035 L 5.027765,0.009182 L 5.021678,0.010405 L 5.015607,0.011703 L 5.009552,0.013077 L 5.003515,0.014525 L 4.997497,0.016049 L 4.991498,0.017647 L 4.985519,0.019319 L 4.979561,0.021066 L 4.973626,0.022886 L 4.967713,0.024780 L 4.961825,0.026747 L 4.955961,0.028787 L 4.950124,0.030900 L 4.944313,0.033085 L 4.938529,0.035342 L 4.932774,0.037670 L 0.309582,1.941842 L 0.304493,1.943971 L 0.299428,1.946155 L 0.294387,1.948396 L 0.289371,1.950692 L 0.284381,1.953044 L 0.279417,1.955450 L 0.274480,1.957911 L 0.269571,1.960426 L 0.264689,1.962995 L 0.259837,1.965618 L 0.255013,1.968294 L 0.250219,1.971024 L 0.245456,1.973806 L 0.240723,1.976640 L 0.236023,1.979527 L 0.231354,1.982465 L 0.226718,1.985454 L 0.222115,1.988495 L 0.217546,1.991586 L 0.213011,1.994727 L 0.208512,1.997918 L 0.204048,2.001159 L 0.199620,2.004448 L 0.195228,2.007787 L 0.190874,2.011173 L 0.186557,2.014608 L 0.182278,2.018089 L 0.178038,2.021618 L 0.173837,2.025193 L 0.169676,2.028815 L 0.165555,2.032482 L 0.161475,2.036194 L 0.157436,2.039952 L 0.153439,2.043753 L 0.149484,2.047598 L 0.145571,2.051487 L 0.141702,2.055419 L 0.137876,2.059393 L 0.134094,2.063409 L 0.130357,2.067467 L 0.126665,2.071565 L 0.123019,2.075704 L 0.119418,2.079883 L 0.115863,2.084102 L 0.112356,2.088359 L 0.108895,2.092655 L 0.105482,2.096989 L 0.102117,2.101360 L 0.098801,2.105768 L 0.095533,2.110213 L 0.092315,2.114693 L 0.089146,2.119208 L 0.086027,2.123758 L 0.082959,2.128343 L 0.079941,2.132960 L 0.076975,2.137611 L 0.074060,2.142294 L 0.071197,2.147009 L 0.068386,2.151756 L 0.065628,2.156533 L 0.062922,2.161340 L 0.060270,2.166177 L 0.057671,2.171043 L 0.055126,2.175937 L 0.052635,2.180859 L 0.050199,2.185808 L 0.047817,2.190784 L 0.045490,2.195786 L 0.043219,2.200813 L 0.041004,2.205864 L 0.038844,2.210940 L 0.036740,2.216040 L 0.034693,2.221162 L 0.032702,2.226307 L 0.030768,2.231473 L 0.028892,2.236660 L 0.027073,2.241868 L 0.025311,2.247095 L 0.023607,2.252342 L 0.021961,2.257607 L 0.020373,2.262890 L 0.018844,2.268190 L 0.017373,2.273507 L 0.015961,2.278839 L 0.014608,2.284187 L 0.013313,2.289549 L 0.012079,2.294926 L 0.010903,2.300315 L 0.009787,2.305718 L 0.008731,2.311132 L 0.007735,2.316557 L 0.006798,2.321994 L 0.005921,2.327440 L 0.005105,2.332895 L 0.004349,2.338360 L 0.003653,2.343832 L 0.003018,2.349312 L 0.002443,2.354798 L 0.001928,2.360290 L 0.001475,2.365788 L 0.001082,2.371290 L 0.000749,2.376796 L 0.000478,2.382306 L 0.000267,2.387818 L 0.000117,2.393333 L 0.000028,2.398848 L 0.000000,2.404364 L 0.000033,2.409881 L 0.000126,2.415396 L 0.000281,2.420910 L 0.000496,2.426423 L 0.000772,2.431932 L 0.001108,2.437438 L 0.001506,2.442940 L 0.001964,2.448437 L 0.002483,2.453929 L 0.003062,2.459415 L 0.003702,2.464894 L 0.004402,2.470366 L 0.005163,2.475829 L 0.005983,2.481284 L 0.006864,2.486730 L 0.007805,2.492165 L 0.008806,2.497590 L 0.009867,2.503003 L 0.010987,2.508405 L 0.012167,2.513794 L 0.013406,2.519169 L 0.082035,2.689962 L 0.150134,2.860966 L 0.217705,3.032181 L 0.284745,3.203604 L 0.351255,3.375233 L 0.417234,3.547067 L 0.482680,3.719104 L 0.547594,3.891344 L 0.611975,4.063783 L 0.675822,4.236420 L 0.739135,4.409254 L 0.801912,4.582284 L 0.864155,4.755506 L 0.925860,4.928921 L 0.987029,5.102525 L 1.047661,5.276318 L 1.107755,5.450298 L 1.167310,5.624462 L 1.226326,5.798810 L 1.284803,5.973340 L 1.342739,6.148050 L 1.400134,6.322938 L 1.456988,6.498003 L 1.513300,6.673243 L 1.569070,6.848657 L 1.624297,7.024242 L 1.678980,7.199997 L 1.733120,7.375921 L 1.786714,7.552011 L 1.839764,7.728266 L 1.892269,7.904685 L 1.944227,8.081265 L 1.995638,8.258004 L 2.046503,8.434903 L 2.096820,8.611957 L 2.146589,8.789167 L 2.195810,8.966529 L 2.244482,9.144043 L 2.292604,9.321707 L 2.340176,9.499519 L 2.387198,9.677477 L 2.433670,9.855579 L 2.479590,10.033825 L 2.524958,10.212212 L 2.569774,10.390738 L 2.614038,10.569402 L 2.657749,10.748203 L 2.700906,10.927137 L 2.743510,11.106204 L 2.785560,11.285403 L 2.827055,11.464730 L 2.867994,11.644185 L 2.908379,11.823766 L 2.948208,12.003471 L 2.987480,12.183298 L 3.026196,12.363246 L 3.064356,12.543312 L 3.101957,12.723496 L 3.139002,12.903796 L 3.175488,13.084209 L 3.211416,13.264734 L 3.246785,13.445369 L 3.281596,13.626113 L 3.315847,13.806964 L 3.349538,13.987920 L 3.382669,14.168979 L 3.415240,14.350140 L 3.447251,14.531401 L 3.478700,14.712760 L 3.509588,14.894216 L 3.539915,15.075766 L 3.569680,15.257409 L 3.598883,15.439143 L 3.627523,15.620967 L 3.655601,15.802878 L 3.683116,15.984876 L 3.710068,16.166957 L 3.736456,16.349122 L 3.762280,16.531367 L 3.787541,16.713691 L 3.812237,16.896092 L 3.836369,17.078569 L 3.859937,17.261120 L 3.882939,17.443742 L 3.905377,17.626435 L 3.927249,17.809197 L 3.948555,17.992025 L 3.969296,18.174918 L 3.989471,18.357875 L 4.009080,18.540893 L 4.028122,18.723971 L 4.046598,18.907107 L 4.064507,19.090299 L 4.081850,19.273546 L 4.098625,19.456846 L 4.114834,19.640196 L 4.130475,19.823596 L 4.145548,20.007044 L 4.160054,20.190537 L 4.173993,20.374074 L 4.187363,20.557653 L 4.200165,20.741273 L 4.212399,20.924932 L 4.224065,21.108627 L 4.235163,21.292358 L 4.245692,21.476122 L 4.255652,21.659918 L 4.265044,21.843744 L 4.273867,22.027598 L 4.282122,22.211478 L 4.289807,22.395384 L 4.296923,22.579312 L 4.303471,22.763261 L 4.309449,22.947229 L 4.314858,23.131215 L 4.319698,23.315217 L 4.323968,23.499233 L 4.327669,23.683262 L 4.330801,23.867301 L 4.333364,24.051349 L 4.335357,24.235403 L 4.336780,24.419463 L 4.337634,24.603527 L 4.337919,24.787593 L 4.337634,24.971658 L 4.336780,25.155722 L 4.335357,25.339782 L 4.333364,25.523836 L 4.334159,25.529295 L 4.335014,25.534745 L 4.335930,25.540185 L 4.336905,25.545614 L 4.337941,25.551032 L 4.339036,25.556439 L 4.340190,25.561833 L 4.341404,25.567214 L 4.342678,25.572581 L 4.344010,25.577934 L 4.345402,25.583272 L 4.346852,25.588595 L 4.348361,25.593901 L 4.349928,25.599189 L 4.351554,25.604461 L 4.353238,25.609714 L 4.354979,25.614948 L 4.356778,25.620163 L 4.358635,25.625357 L 4.360549,25.630531 L 4.362519,25.635683 L 4.364547,25.640814 L 4.366631,25.645921 L 4.368771,25.651005 L 4.370967,25.656066 L 4.373219,25.661101 L 4.375526,25.666112 L 4.377889,25.671097 L 4.380306,25.676055 L 4.382778,25.680987 L 4.385304,25.685891 L 4.387884,25.690767 L 4.390517,25.695614 L 4.393204,25.700431 L 4.395944,25.705219 L 4.398737,25.709976 L 4.401582,25.714703 L 4.404479,25.719397 L 4.407427,25.724059 L 4.410427,25.728689 L 4.413477,25.733285 L 4.416579,25.737847 L 4.419730,25.742374 L 4.422931,25.746867 L 4.426181,25.751324 L 4.429481,25.755745 L 4.432829,25.760129 L 4.436225,25.764476 L 4.439669,25.768785 L 4.443160,25.773056 L 4.446698,25.777288 L 4.450283,25.781481 L 4.453913,25.785634 L 4.457590,25.789747 L 4.461311,25.793819 L 4.465077,25.797850 L 4.468887,25.801839 L 4.472741,25.805785 L 4.476639,25.809689 L 4.480579,25.813550 L 4.484562,25.817367 L 4.488586,25.821139 L 4.492652,25.824868 L 4.496759,25.828551 L 4.500906,25.832188 L 4.505093,25.835780 L 4.509319,25.839325 L 4.513584,25.842823 L 4.517888,25.846274 L 4.522229,25.849677 L 4.526608,25.853032 L 4.531023,25.856339 L 4.535475,25.859597 L 4.539962,25.862805 L 4.544484,25.865964 L 4.549041,25.869073 L 4.553632,25.872131 L 4.558257,25.875138 L 4.562914,25.878095 L 4.567604,25.880999 L 4.572325,25.883852 L 4.577078,25.886652 L 4.581861,25.889400 L 4.586674,25.892095 L 4.591517,25.894737 L 4.596389,25.897325 L 4.601288,25.899859 L 4.606216,25.902339 L 4.611170,25.904764 L 4.616151,25.907135 L 4.621158,25.909450 L 4.626190,25.911711 L 4.631247,25.913915 L 4.636327,25.916064 L 4.641432,25.918156 L 4.646558,25.920192 L 4.651707,25.922171 L 4.656878,25.924094 L 4.662069,25.925959 L 4.667281,25.927767 L 4.672512,25.929517 L 4.677763,25.931209 L 4.683031,25.932843 L 4.688318,25.934419 L 4.693621,25.935937 L 4.698941,25.937396 L 4.704277,25.938797 L 4.709627,25.940138 L 4.714993,25.941420 L 4.720372,25.942643 L 4.725764,25.943807 L 4.731169,25.944911 L 4.736585,25.945955 L 4.742013,25.946939 L 4.747451,25.947864 L 4.752900,25.948728 L 4.758357,25.949533 L 4.763823,25.950277 L 4.769297,25.950960 L 4.774778,25.951584 L 4.780265,25.952146 L 4.785759,25.952649 L 4.791257,25.953090 L 4.796760,25.953471 L 4.802267,25.953791 L 4.807778,25.954051 L 4.813290,25.954249 L 4.818805,25.954387 L 8.047848,26.017205 L 8.057167,26.017444 L 8.066483,26.017799 L 8.075793,26.018270 L 8.085096,26.018856 L 8.094392,26.019558 L 8.103678,26.020376 L 8.112953,26.021309 L 8.122216,26.022357 L 8.131465,26.023520 L 8.140699,26.024798 L 8.149916,26.026191 L 8.159115,26.027698 L 8.168295,26.029319 L 8.177454,26.031055 L 8.186591,26.032904 L 8.195704,26.034866 L 8.204792,26.036942 L 8.213854,26.039130 L 8.222887,26.041431 L 8.231891,26.043844 L 8.240865,26.046368 L 8.249806,26.049004 L 8.258715,26.051751 L 8.267588,26.054609 L 8.276425,26.057576 L 8.285224,26.060653 L 8.293985,26.063840 L 8.302705,26.067134 L 8.311384,26.070537 L 8.320019,26.074048 L 8.328611,26.077666 L 8.337156,26.081390 L 8.345655,26.085220 L 8.354106,26.089155 L 8.362507,26.093196 L 8.370857,26.097340 L 8.379155,26.101588 L 8.387399,26.105938 L 8.395589,26.110391 L 8.403723,26.114945 L 8.411800,26.119600 L 8.419818,26.124355 L 8.427776,26.129209 L 8.435673,26.134162 L 8.443509,26.139212 L 8.451281,26.144360 L 8.458988,26.149603 L 8.466630,26.154942 L 8.474204,26.160376 L 8.481711,26.165903 L 8.489148,26.171524 L 8.496515,26.177236 L 8.503810,26.183039 L 8.511032,26.188933 L 8.518181,26.194916 L 8.525255,26.200987 L 8.532253,26.207146 L 8.539173,26.213391 L 8.546016,26.219722 L 8.552779,26.226137 L 8.559462,26.232636 L 8.566064,26.239218 L 8.572583,26.245881 L 8.579020,26.252624 L 8.585371,26.259447 L 8.591638,26.266349 L 8.597818,26.273327 L 8.603911,26.280382 L 8.609916,26.287513 L 8.615832,26.294717 L 8.621658,26.301994 L 8.627393,26.309343 L 8.633036,26.316763 L 8.638586,26.324253 L 8.644043,26.331810 L 8.649406,26.339436 L 8.654673,26.347127 L 8.659845,26.354883 L 8.664919,26.362702 L 8.669896,26.370584 L 8.674775,26.378528 L 8.679555,26.386531 L 8.684234,26.394594 L 8.688813,26.402713 L 8.693291,26.410889 L 8.697667,26.419120 L 8.701940,26.427405 L 8.706110,26.435743 L 8.710176,26.444131 L 8.714138,26.452569 L 8.717994,26.461056 L 8.721745,26.469591 L 8.725389,26.478171 L 8.728926,26.486796 L 8.732356,26.495464 L 8.735677,26.504174 L 8.738891,26.512924 L 8.741995,26.521714 L 8.744990,26.530542 L 8.747874,26.539407 L 8.750649,26.548306 L 8.753312,26.557239 L 8.755864,26.566205 L 8.758305,26.575202 L 8.760634,26.584228 L 8.762850,26.593283 L 8.764954,26.602365 L 8.766944,26.611472 L 8.768821,26.620603 L 8.770585,26.629756 L 8.772234,26.638931 L 8.773770,26.648126 L 8.775191,26.657339 L 8.776497,26.666569 L 8.777689,26.675814 L 8.778766,26.685074 L 8.779727,26.694346 L 8.780573,26.703630 L 8.781304,26.712923 L 8.781919,26.722225 L 8.782419,26.731533 L 8.782802,26.740847 L 8.783070,26.750165 L 8.783222,26.759486 L 8.783259,26.768808 L 8.783179,26.778130 L 8.782984,26.787449 L 8.782672,26.796766 L 8.768341,27.158350 L 8.767998,27.165815 L 8.767563,27.173275 L 8.767034,27.180730 L 8.766413,27.188177 L 8.765699,27.195616 L 8.764893,27.203045 L 8.763994,27.210464 L 8.763003,27.217871 L 8.761920,27.225265 L 8.760744,27.232645 L 8.759477,27.240010 L 8.758118,27.247359 L 8.756668,27.254690 L 8.755126,27.262002 L 8.753494,27.269295 L 8.751771,27.276566 L 8.749957,27.283816 L 8.748054,27.291043 L 8.746060,27.298245 L 8.743977,27.305422 L 8.741805,27.312572 L 8.739543,27.319695 L 8.737194,27.326789 L 8.734756,27.333853 L 8.732230,27.340887 L 8.729617,27.347888 L 8.726917,27.354856 L 8.724130,27.361790 L 8.721257,27.368689 L 8.718299,27.375551 L 8.715255,27.382376 L 8.712126,27.389163 L 8.708913,27.395910 L 8.705617,27.402617 L 8.702237,27.409282 L 8.698774,27.415904 L 8.695229,27.422483 L 8.691603,27.429017 L 8.687895,27.435506 L 8.684107,27.441948 L 8.680239,27.448342 L 8.676291,27.454687 L 8.672265,27.460983 L 8.668161,27.467228 L 8.663979,27.473422 L 8.659721,27.479563 L 8.655386,27.485650 L 8.650976,27.491683 L 8.646491,27.497661 L 8.641932,27.503582 L 8.637299,27.509446 L 8.632594,27.515252 L 8.627817,27.520999 L 8.622969,27.526686 L 8.618050,27.532312 L 8.613061,27.537876 L 8.608004,27.543378 L 8.602878,27.548816 L 8.597686,27.554190 L 8.592426,27.559499 L 8.587101,27.564742 L 8.581711,27.569919 L 8.576257,27.575028 L 8.570740,27.580068 L 8.565160,27.585040 L 8.559519,27.589941 L 8.553817,27.594772 L 8.548056,27.599532 L 8.542236,27.604219 L 8.536358,27.608834 L 8.530422,27.613374 L 8.524431,27.617841 L 8.518385,27.622233 L 8.512284,27.626549 L 8.506130,27.630789 L 8.499924,27.634951 L 8.493666,27.639037 L 8.487358,27.643044 L 8.481001,27.646972 L 8.474595,27.650820 L 8.468141,27.654589 L 8.461642,27.658276 L 8.455096,27.661883 L 8.448507,27.665408 L 8.441874,27.668850 L 8.435198,27.672210 L 8.428482,27.675486 L 8.421725,27.678678 L 8.414929,27.681786 L 8.408094,27.684809 L 8.401223,27.687746 L 8.394315,27.690598 L 8.387373,27.693363 L 8.380396,27.696042 L 8.373387,27.698634 L 8.366346,27.701138 L 8.359274,27.703554 L 8.352173,27.705883 L 8.345043,27.708122 L 8.337886,27.710272 L 8.330703,27.712334 L 8.323495,27.714305 L 8.316263,27.716187 L 8.309007,27.717978 L 8.301730,27.719679 L 8.294433,27.721289 L 8.287116,27.722808 L 8.279780,27.724236 L 8.272428,27.725572 L 8.265059,27.726817 L 8.257675,27.727970 L 8.250278,27.729031 L 8.242868,27.729999 L 8.235446,27.730875 L 8.228015,27.731659 L 8.220574,27.732350 L 8.213124,27.732948 L 8.205669,27.733454 L 8.198207,27.733867 L 8.190741,27.734186 L 8.183271,27.734413 L 8.175799,27.734546 L 8.168326,27.734587 L 8.160853,27.734534 L 8.153382,27.734389 L 8.145912,27.734150 L 8.138447,27.733818 L 8.130986,27.733394 L 7.332577,27.682959 Z" fill="none" stroke="black" stroke-width="0.01" stroke-linecap="round" stroke-linejoin="round"/>
</svg>
