<?xml version="1.0" encoding="utf-8"?>
<!-- Generator: Fusion 360, Shaper Origin Export Add-In, Version 1.9.0  -->
<svg xmlns="http://www.w3.org/2000/svg" xmlns:xlink="http://www.w3.org/1999/xlink" xmlns:shaper="http://www.shapertools.com/namespaces/shaper" shaper:fusionaddin="version:1.9.0" width="10.7760247cm" height="28.3028997cm" version="1.1" x="0cm" y="0cm" viewBox="0 0 10.7760247 28.3028997" enable-background="new 0 0 10.7760247 28.3028997" xml:space="preserve"><path d="M-3.6404899,-12.483187 L-4.100779,-13.426921 -2.5389055,-14.1886965 A1.2,1.2 244.0000329 0,1 -0.9545192,-13.675752 A65.4961902,65.4961902 335.0109817 0,1 -0.2555745,-12.1237541 L-0.2555745,-12.1237541 -0.0921758,-11.7320534 0.069049,-11.3399005 0.2280958,-10.9472946 0.3849584,-10.5542343 0.5396276,-10.1607178 0.6920922,-9.7667428 0.8423384,-9.3723064 0.99035,-8.9774051 1.1361085,-8.5820352 1.2795936,-8.1861924 1.4207825,-7.7898721 1.5596511,-7.3930691 1.6282071,-7.1944849 1.696173,-6.995778 1.7635455,-6.7969476 1.8303207,-6.597993 1.8964952,-6.3989135 1.9620651,-6.1997082 2.0270265,-6.0003763 2.0913757,-5.8009171 2.1551086,-5.6013297 2.2182213,-5.4016133 2.2807098,-5.2017671 2.3425699,-5.0017902 2.4037977,-4.8016817 2.464389,-4.6014409 2.5243397,-4.4010668 2.5836457,-4.2005586 2.642303,-3.9999155 2.7003074,-3.7991366 2.7576549,-3.598221 2.8143415,-3.397168 2.8703632,-3.1959767 2.9257163,-2.9946463 2.9803967,-2.793176 3.0344009,-2.591565 3.0877252,-2.3898127 3.1403661,-2.1879181 3.1923202,-1.9858808 3.2435843,-1.7836999 3.2941551,-1.5813748 3.3440298,-1.3789049 3.3932056,-1.1762896 3.4416798,-0.9735284 3.4894501,-0.7706208 3.5365143,-0.5675663 3.5828705,-0.3643646 3.628517,-0.1610152 3.6734524,0.0424821 3.7176755,0.2461275 3.7611855,0.4499212 3.803982,0.6538634 3.803982,0.6538634 3.8445067,0.8503327 3.88437,1.0469396 3.9235724,1.2436839 3.9621147,1.4405655 3.9999978,1.6375843 4.0372229,1.8347399 4.0737914,2.0320321 4.1097051,2.2294604 4.1449658,2.4270246 4.1795755,2.6247242 4.2135366,2.8225588 4.2468514,3.0205277 4.2795225,3.2186306 4.3115527,3.4168667 4.3429448,3.6152356 4.3737017,3.8137366 4.4038265,4.012369 4.4333224,4.2111323 4.4621927,4.4100257 4.4904407,4.6090486 4.5180699,4.8082001 4.5450836,5.0074797 4.5714855,5.2068865 4.597279,5.4064199 4.622468,5.606079 4.6470558,5.8058632 4.6710463,6.0057716 4.6944431,6.2058035 4.7394701,6.6062347 4.7821661,7.0071508 4.8225599,7.4085458 4.8606797,7.8104137 4.8965534,8.2127488 4.9302075,8.6155456 4.9616679,9.0187987 4.9909589,9.4225031 5.0181034,9.8266538 5.0431231,10.2312466 5.0660378,10.6362772 5.0868657,11.0417419 5.1056231,11.4476372 5.1223243,11.8539602 5.1369819,12.2607083 5.1496061,12.6678793 5.1602051,13.0754716 5.168785,13.4834838 A0.5,0.5 358.9373877 0,1 4.668871,13.9927563 L-0.3311062,13.9927563 A0.5,0.5 90 0,1 -0.8248301,13.5717294 A59.4961902,59.4961902 359.594541 0,0 -5.5914187,-9.3445618 A0.5,0.5 165.5877436 0,1 -5.306528,-9.9275405 L-2.3447401,-11.2153605 A0.75,0.75 66.5000329 0,0 -1.9621758,-12.2160237 L-2.1131315,-12.5449013 A0.6,0.6 335.3447545 0,0 -2.9214544,-12.8338835 L-3.6404899,-12.483187z" transform="matrix(1,0,0,-1,5.6071537,13.9927563)" fill="rgb(0,0,0)" shaper:cutDepth="0.03cm" stroke-linecap="round" stroke-linejoin="round" /></svg>