M48
; DRILL file KiCad 10.0.2 date 2026-06-12T08:37:16
; FORMAT={-:-/ absolute / metric / decimal}
; #@! TF.CreationDate,2026-06-12T08:37:16-05:00
; #@! TF.GenerationSoftware,Kicad,Pcbnew,10.0.2
; #@! TF.FileFunction,Plated,1,2,PTH
FMAT,2
METRIC
; #@! TA.AperFunction,Plated,PTH,ViaDrill
T1C0.300
%
G90
G05
T1
X17.607Y-139.388
X37.507Y-157.638
X38.957Y-155.988
X39.757Y-155.188
X40.807Y-132.988
X42.357Y-131.338
X42.62Y-117.238
X42.657Y-116.338
X43.825Y-130.254
X44.991Y-117.805
X45.528Y-128.893
X47.698Y-117.961
X48.582Y-106.023
X49.767Y-119.89
X50.86Y-134.01
X51.786Y-147.636
X54.76Y-111.01
X55.945Y-124.877
X57.038Y-138.998
X57.964Y-152.624
X64.131Y-104.279
X65.522Y-118.339
X67.013Y-132.489
X68.545Y-146.151
X70.309Y-109.267
X71.7Y-123.327
X73.191Y-137.476
X74.723Y-151.138
X79.388Y-102.796
X81.321Y-116.587
X83.01Y-130.586
X84.743Y-144.384
X85.566Y-107.783
X87.499Y-121.574
X89.188Y-135.574
X90.921Y-149.372
X94.876Y-100.754
X96.904Y-114.391
X98.991Y-128.327
X101.054Y-105.741
X101.125Y-142.254
X103.081Y-119.379
X105.169Y-133.315
X107.302Y-147.242
X110.037Y-97.923
X112.626Y-111.891
X114.903Y-125.52
X116.215Y-102.911
X117.489Y-139.388
X118.804Y-116.879
X121.081Y-130.508
X123.666Y-144.376
X125.397Y-95.085
X128.176Y-108.747
X130.951Y-122.308
X131.575Y-100.073
X133.833Y-136.066
X134.354Y-113.734
X137.129Y-127.296
X140.01Y-141.053
X140.383Y-91.56
X143.613Y-105.256
X146.561Y-96.548
X146.845Y-119.001
X149.791Y-110.243
X149.973Y-132.651
X153.023Y-123.989
X155.319Y-88.037
X156.151Y-137.638
X158.844Y-101.572
X161.497Y-93.024
X162.417Y-115.056
X165.022Y-106.559
X166.037Y-128.581
X168.595Y-120.043
X170.186Y-83.965
X172.215Y-133.568
X174.103Y-97.38
X176.364Y-88.953
X178.07Y-110.7
X180.281Y-102.367
X181.995Y-124.128
X184.248Y-115.687
X184.984Y-79.346
X188.173Y-129.115
X189.008Y-92.864
X191.162Y-84.334
X193.518Y-105.965
X195.186Y-97.851
X197.792Y-119.474
X199.525Y-74.536
X199.696Y-110.952
X203.97Y-124.461
X204.342Y-87.826
X205.703Y-79.523
X208.801Y-101.021
X210.52Y-92.813
X213.468Y-114.316
X214.342Y-69.158
X214.979Y-106.009
X219.066Y-82.652
X219.646Y-119.304
X220.52Y-74.146
X224.221Y-95.58
X225.244Y-87.639
X228.811Y-63.7
X229.032Y-108.72
X230.398Y-100.567
X234.011Y-76.383
X234.989Y-68.688
X235.21Y-113.707
X239.321Y-89.599
X240.189Y-81.371
X242.963Y-57.66
X244.531Y-102.675
X245.499Y-94.587
X248.713Y-70.467
X249.141Y-62.647
X250.708Y-107.663
X254.266Y-83.331
X254.891Y-75.454
X257.143Y-51.111
X259.77Y-96.246
X260.443Y-88.318
X263.096Y-64.104
X263.321Y-56.098
X265.947Y-101.234
X269.042Y-76.661
X269.274Y-69.091
X274.837Y-89.316
X275.22Y-81.648
X281.015Y-94.304
M30
