%TF.GenerationSoftware,KiCad,Pcbnew,10.0.2*%
%TF.CreationDate,2026-06-12T08:37:29-05:00*%
%TF.ProjectId,OM-FlexGrid-Flex,4f4d2d46-6c65-4784-9772-69642d466c65,rev?*%
%TF.SameCoordinates,Original*%
%TF.FileFunction,Legend,Top*%
%TF.FilePolarity,Positive*%
%FSLAX46Y46*%
G04 Gerber Fmt 4.6, Leading zero omitted, Abs format (unit mm)*
G04 Created by KiCad (PCBNEW 10.0.2) date 2026-06-12 08:37:29*
%MOMM*%
%LPD*%
G01*
G04 APERTURE LIST*
%ADD10C,0.100000*%
G04 APERTURE END LIST*
D10*
X105694643Y-149641827D02*
X105669715Y-148927977D01*
X105669715Y-148927977D02*
X105712319Y-148783545D01*
X105712319Y-148783545D02*
X105804176Y-148685041D01*
X105804176Y-148685041D02*
X105945284Y-148632465D01*
X105945284Y-148632465D02*
X106040464Y-148629141D01*
X105183843Y-148659055D02*
X105218742Y-149658446D01*
X105218742Y-149658446D02*
X104838022Y-149671741D01*
X104838022Y-149671741D02*
X104741180Y-149627475D01*
X104741180Y-149627475D02*
X104691928Y-149581547D01*
X104691928Y-149581547D02*
X104641014Y-149488028D01*
X104641014Y-149488028D02*
X104636029Y-149345258D01*
X104636029Y-149345258D02*
X104680295Y-149248416D01*
X104680295Y-149248416D02*
X104726223Y-149199164D01*
X104726223Y-149199164D02*
X104819741Y-149148251D01*
X104819741Y-149148251D02*
X105200462Y-149134956D01*
X103660962Y-148712235D02*
X104232042Y-148692293D01*
X103946502Y-148702264D02*
X103981401Y-149701655D01*
X103981401Y-149701655D02*
X104071596Y-149555561D01*
X104071596Y-149555561D02*
X104163452Y-149457057D01*
X104163452Y-149457057D02*
X104256970Y-149406143D01*
X103311817Y-149629741D02*
X103265889Y-149678993D01*
X103265889Y-149678993D02*
X103172371Y-149729907D01*
X103172371Y-149729907D02*
X102934420Y-149738216D01*
X102934420Y-149738216D02*
X102837579Y-149693950D01*
X102837579Y-149693950D02*
X102788327Y-149648022D01*
X102788327Y-149648022D02*
X102737413Y-149554504D01*
X102737413Y-149554504D02*
X102734089Y-149459324D01*
X102734089Y-149459324D02*
X102776693Y-149314892D01*
X102776693Y-149314892D02*
X103327831Y-148723869D01*
X103327831Y-148723869D02*
X102709161Y-148745473D01*
X159889622Y-95424335D02*
X159864694Y-94710485D01*
X159864694Y-94710485D02*
X159907298Y-94566053D01*
X159907298Y-94566053D02*
X159999155Y-94467549D01*
X159999155Y-94467549D02*
X160140263Y-94414973D01*
X160140263Y-94414973D02*
X160235443Y-94411649D01*
X159378822Y-94441563D02*
X159413721Y-95440954D01*
X159413721Y-95440954D02*
X159033001Y-95454249D01*
X159033001Y-95454249D02*
X158936159Y-95409983D01*
X158936159Y-95409983D02*
X158886907Y-95364055D01*
X158886907Y-95364055D02*
X158835993Y-95270536D01*
X158835993Y-95270536D02*
X158831008Y-95127766D01*
X158831008Y-95127766D02*
X158875274Y-95030924D01*
X158875274Y-95030924D02*
X158921202Y-94981672D01*
X158921202Y-94981672D02*
X159014720Y-94930759D01*
X159014720Y-94930759D02*
X159395441Y-94917464D01*
X157938430Y-95492472D02*
X158414331Y-95475854D01*
X158414331Y-95475854D02*
X158445302Y-94998291D01*
X158445302Y-94998291D02*
X158399374Y-95047543D01*
X158399374Y-95047543D02*
X158305855Y-95098457D01*
X158305855Y-95098457D02*
X158067905Y-95106766D01*
X158067905Y-95106766D02*
X157971063Y-95062500D01*
X157971063Y-95062500D02*
X157921811Y-95016572D01*
X157921811Y-95016572D02*
X157870898Y-94923054D01*
X157870898Y-94923054D02*
X157862588Y-94685104D01*
X157862588Y-94685104D02*
X157906854Y-94588262D01*
X157906854Y-94588262D02*
X157952783Y-94539010D01*
X157952783Y-94539010D02*
X158046301Y-94488096D01*
X158046301Y-94488096D02*
X158284251Y-94479786D01*
X158284251Y-94479786D02*
X158381093Y-94524053D01*
X158381093Y-94524053D02*
X158430345Y-94569981D01*
X157557710Y-95505767D02*
X156939039Y-95527372D01*
X156939039Y-95527372D02*
X157258875Y-95135018D01*
X157258875Y-95135018D02*
X157116104Y-95140004D01*
X157116104Y-95140004D02*
X157019262Y-95095738D01*
X157019262Y-95095738D02*
X156970011Y-95049810D01*
X156970011Y-95049810D02*
X156919097Y-94956291D01*
X156919097Y-94956291D02*
X156910787Y-94718341D01*
X156910787Y-94718341D02*
X156955054Y-94621499D01*
X156955054Y-94621499D02*
X157000982Y-94572247D01*
X157000982Y-94572247D02*
X157094500Y-94521333D01*
X157094500Y-94521333D02*
X157380040Y-94511362D01*
X157380040Y-94511362D02*
X157476882Y-94555628D01*
X157476882Y-94555628D02*
X157526134Y-94601557D01*
X114607066Y-105310696D02*
X114582138Y-104596846D01*
X114582138Y-104596846D02*
X114624742Y-104452414D01*
X114624742Y-104452414D02*
X114716599Y-104353910D01*
X114716599Y-104353910D02*
X114857707Y-104301334D01*
X114857707Y-104301334D02*
X114952887Y-104298010D01*
X114096266Y-104327924D02*
X114131165Y-105327315D01*
X114131165Y-105327315D02*
X113750445Y-105340610D01*
X113750445Y-105340610D02*
X113653603Y-105296344D01*
X113653603Y-105296344D02*
X113604351Y-105250416D01*
X113604351Y-105250416D02*
X113553437Y-105156897D01*
X113553437Y-105156897D02*
X113548452Y-105014127D01*
X113548452Y-105014127D02*
X113592718Y-104917285D01*
X113592718Y-104917285D02*
X113638646Y-104868033D01*
X113638646Y-104868033D02*
X113732164Y-104817120D01*
X113732164Y-104817120D02*
X114112885Y-104803825D01*
X112655874Y-105378833D02*
X113131775Y-105362215D01*
X113131775Y-105362215D02*
X113162746Y-104884652D01*
X113162746Y-104884652D02*
X113116818Y-104933904D01*
X113116818Y-104933904D02*
X113023299Y-104984818D01*
X113023299Y-104984818D02*
X112785349Y-104993127D01*
X112785349Y-104993127D02*
X112688507Y-104948861D01*
X112688507Y-104948861D02*
X112639255Y-104902933D01*
X112639255Y-104902933D02*
X112588342Y-104809415D01*
X112588342Y-104809415D02*
X112580032Y-104571465D01*
X112580032Y-104571465D02*
X112624298Y-104474623D01*
X112624298Y-104474623D02*
X112670227Y-104425371D01*
X112670227Y-104425371D02*
X112763745Y-104374457D01*
X112763745Y-104374457D02*
X113001695Y-104366147D01*
X113001695Y-104366147D02*
X113098537Y-104410414D01*
X113098537Y-104410414D02*
X113147789Y-104456342D01*
X111751663Y-105410409D02*
X111942024Y-105403762D01*
X111942024Y-105403762D02*
X112035542Y-105352848D01*
X112035542Y-105352848D02*
X112081470Y-105303596D01*
X112081470Y-105303596D02*
X112171664Y-105157502D01*
X112171664Y-105157502D02*
X112212607Y-104965480D01*
X112212607Y-104965480D02*
X112199312Y-104584760D01*
X112199312Y-104584760D02*
X112148398Y-104491241D01*
X112148398Y-104491241D02*
X112099146Y-104445313D01*
X112099146Y-104445313D02*
X112002304Y-104401047D01*
X112002304Y-104401047D02*
X111811944Y-104407694D01*
X111811944Y-104407694D02*
X111718426Y-104458608D01*
X111718426Y-104458608D02*
X111672498Y-104507860D01*
X111672498Y-104507860D02*
X111628231Y-104604702D01*
X111628231Y-104604702D02*
X111636541Y-104842652D01*
X111636541Y-104842652D02*
X111687455Y-104936171D01*
X111687455Y-104936171D02*
X111736706Y-104982099D01*
X111736706Y-104982099D02*
X111833548Y-105026365D01*
X111833548Y-105026365D02*
X112023909Y-105019717D01*
X112023909Y-105019717D02*
X112117427Y-104968804D01*
X112117427Y-104968804D02*
X112163355Y-104919552D01*
X112163355Y-104919552D02*
X112207621Y-104822710D01*
X261712949Y-58498257D02*
X261688021Y-57784407D01*
X261688021Y-57784407D02*
X261730625Y-57639975D01*
X261730625Y-57639975D02*
X261822482Y-57541471D01*
X261822482Y-57541471D02*
X261963590Y-57488895D01*
X261963590Y-57488895D02*
X262058770Y-57485571D01*
X261202149Y-57515485D02*
X261237048Y-58514876D01*
X261237048Y-58514876D02*
X260856328Y-58528171D01*
X260856328Y-58528171D02*
X260759486Y-58483905D01*
X260759486Y-58483905D02*
X260710234Y-58437977D01*
X260710234Y-58437977D02*
X260659320Y-58344458D01*
X260659320Y-58344458D02*
X260654335Y-58201688D01*
X260654335Y-58201688D02*
X260698601Y-58104846D01*
X260698601Y-58104846D02*
X260744529Y-58055594D01*
X260744529Y-58055594D02*
X260838047Y-58004681D01*
X260838047Y-58004681D02*
X261218768Y-57991386D01*
X259797714Y-58231602D02*
X259774448Y-57565342D01*
X260048959Y-58604013D02*
X260261981Y-57881853D01*
X260261981Y-57881853D02*
X259643311Y-57903458D01*
X258857546Y-58597970D02*
X259047907Y-58591323D01*
X259047907Y-58591323D02*
X259141425Y-58540409D01*
X259141425Y-58540409D02*
X259187353Y-58491157D01*
X259187353Y-58491157D02*
X259277547Y-58345063D01*
X259277547Y-58345063D02*
X259318490Y-58153041D01*
X259318490Y-58153041D02*
X259305195Y-57772321D01*
X259305195Y-57772321D02*
X259254281Y-57678802D01*
X259254281Y-57678802D02*
X259205029Y-57632874D01*
X259205029Y-57632874D02*
X259108187Y-57588608D01*
X259108187Y-57588608D02*
X258917827Y-57595255D01*
X258917827Y-57595255D02*
X258824309Y-57646169D01*
X258824309Y-57646169D02*
X258778381Y-57695421D01*
X258778381Y-57695421D02*
X258734114Y-57792263D01*
X258734114Y-57792263D02*
X258742424Y-58030213D01*
X258742424Y-58030213D02*
X258793338Y-58123732D01*
X258793338Y-58123732D02*
X258842589Y-58169660D01*
X258842589Y-58169660D02*
X258939431Y-58213926D01*
X258939431Y-58213926D02*
X259129792Y-58207278D01*
X259129792Y-58207278D02*
X259223310Y-58156365D01*
X259223310Y-58156365D02*
X259269238Y-58107113D01*
X259269238Y-58107113D02*
X259313504Y-58010271D01*
X178673011Y-104767582D02*
X178648083Y-104053732D01*
X178648083Y-104053732D02*
X178690687Y-103909300D01*
X178690687Y-103909300D02*
X178782544Y-103810796D01*
X178782544Y-103810796D02*
X178923652Y-103758220D01*
X178923652Y-103758220D02*
X179018832Y-103754896D01*
X178162211Y-103784810D02*
X178197110Y-104784201D01*
X178197110Y-104784201D02*
X177816390Y-104797496D01*
X177816390Y-104797496D02*
X177719548Y-104753230D01*
X177719548Y-104753230D02*
X177670296Y-104707302D01*
X177670296Y-104707302D02*
X177619382Y-104613783D01*
X177619382Y-104613783D02*
X177614397Y-104471013D01*
X177614397Y-104471013D02*
X177658663Y-104374171D01*
X177658663Y-104374171D02*
X177704591Y-104324919D01*
X177704591Y-104324919D02*
X177798109Y-104274006D01*
X177798109Y-104274006D02*
X178178830Y-104260711D01*
X177292900Y-104815777D02*
X176674229Y-104837381D01*
X176674229Y-104837381D02*
X176994064Y-104445028D01*
X176994064Y-104445028D02*
X176851294Y-104450013D01*
X176851294Y-104450013D02*
X176754452Y-104405747D01*
X176754452Y-104405747D02*
X176705200Y-104359819D01*
X176705200Y-104359819D02*
X176654287Y-104266301D01*
X176654287Y-104266301D02*
X176645977Y-104028351D01*
X176645977Y-104028351D02*
X176690243Y-103931509D01*
X176690243Y-103931509D02*
X176736172Y-103882257D01*
X176736172Y-103882257D02*
X176829690Y-103831343D01*
X176829690Y-103831343D02*
X177115230Y-103821372D01*
X177115230Y-103821372D02*
X177212072Y-103865638D01*
X177212072Y-103865638D02*
X177261324Y-103911566D01*
X176341099Y-104849014D02*
X175674838Y-104872281D01*
X175674838Y-104872281D02*
X176068249Y-103857933D01*
X148183427Y-112643364D02*
X148158499Y-111929514D01*
X148158499Y-111929514D02*
X148201103Y-111785082D01*
X148201103Y-111785082D02*
X148292960Y-111686578D01*
X148292960Y-111686578D02*
X148434068Y-111634002D01*
X148434068Y-111634002D02*
X148529248Y-111630678D01*
X147672627Y-111660592D02*
X147707526Y-112659983D01*
X147707526Y-112659983D02*
X147326806Y-112673278D01*
X147326806Y-112673278D02*
X147229964Y-112629012D01*
X147229964Y-112629012D02*
X147180712Y-112583084D01*
X147180712Y-112583084D02*
X147129798Y-112489565D01*
X147129798Y-112489565D02*
X147124813Y-112346795D01*
X147124813Y-112346795D02*
X147169079Y-112249953D01*
X147169079Y-112249953D02*
X147215007Y-112200701D01*
X147215007Y-112200701D02*
X147308525Y-112149788D01*
X147308525Y-112149788D02*
X147689246Y-112136493D01*
X146803316Y-112691559D02*
X146184645Y-112713163D01*
X146184645Y-112713163D02*
X146504480Y-112320810D01*
X146504480Y-112320810D02*
X146361710Y-112325795D01*
X146361710Y-112325795D02*
X146264868Y-112281529D01*
X146264868Y-112281529D02*
X146215616Y-112235601D01*
X146215616Y-112235601D02*
X146164703Y-112142083D01*
X146164703Y-112142083D02*
X146156393Y-111904133D01*
X146156393Y-111904133D02*
X146200659Y-111807291D01*
X146200659Y-111807291D02*
X146246588Y-111758039D01*
X146246588Y-111758039D02*
X146340106Y-111707125D01*
X146340106Y-111707125D02*
X146625646Y-111697154D01*
X146625646Y-111697154D02*
X146722488Y-111741420D01*
X146722488Y-111741420D02*
X146771740Y-111787348D01*
X145673845Y-111730391D02*
X145483485Y-111737039D01*
X145483485Y-111737039D02*
X145389967Y-111787953D01*
X145389967Y-111787953D02*
X145344039Y-111837204D01*
X145344039Y-111837204D02*
X145253844Y-111983298D01*
X145253844Y-111983298D02*
X145212902Y-112175320D01*
X145212902Y-112175320D02*
X145226197Y-112556041D01*
X145226197Y-112556041D02*
X145277111Y-112649559D01*
X145277111Y-112649559D02*
X145326363Y-112695487D01*
X145326363Y-112695487D02*
X145423204Y-112739753D01*
X145423204Y-112739753D02*
X145613565Y-112733106D01*
X145613565Y-112733106D02*
X145707083Y-112682192D01*
X145707083Y-112682192D02*
X145753011Y-112632940D01*
X145753011Y-112632940D02*
X145797277Y-112536098D01*
X145797277Y-112536098D02*
X145788968Y-112298148D01*
X145788968Y-112298148D02*
X145738054Y-112204630D01*
X145738054Y-112204630D02*
X145688802Y-112158702D01*
X145688802Y-112158702D02*
X145591960Y-112114435D01*
X145591960Y-112114435D02*
X145401600Y-112121083D01*
X145401600Y-112121083D02*
X145308082Y-112171997D01*
X145308082Y-112171997D02*
X145262154Y-112221249D01*
X145262154Y-112221249D02*
X145217887Y-112318090D01*
X13073807Y-125195036D02*
X13073807Y-125909321D01*
X13073807Y-125909321D02*
X13026188Y-126052178D01*
X13026188Y-126052178D02*
X12930950Y-126147417D01*
X12930950Y-126147417D02*
X12788093Y-126195036D01*
X12788093Y-126195036D02*
X12692855Y-126195036D01*
X14073807Y-126195036D02*
X13502379Y-126195036D01*
X13788093Y-126195036D02*
X13788093Y-125195036D01*
X13788093Y-125195036D02*
X13692855Y-125337893D01*
X13692855Y-125337893D02*
X13597617Y-125433131D01*
X13597617Y-125433131D02*
X13502379Y-125480750D01*
X13073807Y-128195036D02*
X13073807Y-128909321D01*
X13073807Y-128909321D02*
X13026188Y-129052178D01*
X13026188Y-129052178D02*
X12930950Y-129147417D01*
X12930950Y-129147417D02*
X12788093Y-129195036D01*
X12788093Y-129195036D02*
X12692855Y-129195036D01*
X14073807Y-129195036D02*
X13502379Y-129195036D01*
X13788093Y-129195036D02*
X13788093Y-128195036D01*
X13788093Y-128195036D02*
X13692855Y-128337893D01*
X13692855Y-128337893D02*
X13597617Y-128433131D01*
X13597617Y-128433131D02*
X13502379Y-128480750D01*
X186089530Y-131531967D02*
X186064602Y-130818116D01*
X186064602Y-130818116D02*
X186107206Y-130673684D01*
X186107206Y-130673684D02*
X186199063Y-130575181D01*
X186199063Y-130575181D02*
X186340171Y-130522605D01*
X186340171Y-130522605D02*
X186435351Y-130519281D01*
X185578730Y-130549195D02*
X185613630Y-131548586D01*
X185613630Y-131548586D02*
X185232909Y-131561881D01*
X185232909Y-131561881D02*
X185136067Y-131517615D01*
X185136067Y-131517615D02*
X185086815Y-131471686D01*
X185086815Y-131471686D02*
X185035902Y-131378168D01*
X185035902Y-131378168D02*
X185030916Y-131235398D01*
X185030916Y-131235398D02*
X185075182Y-131138556D01*
X185075182Y-131138556D02*
X185121110Y-131089304D01*
X185121110Y-131089304D02*
X185214628Y-131038390D01*
X185214628Y-131038390D02*
X185595349Y-131025095D01*
X184709419Y-131580162D02*
X184043158Y-131603428D01*
X184043158Y-131603428D02*
X184436569Y-130589080D01*
X73114903Y-153538130D02*
X73089975Y-152824280D01*
X73089975Y-152824280D02*
X73132579Y-152679848D01*
X73132579Y-152679848D02*
X73224436Y-152581344D01*
X73224436Y-152581344D02*
X73365544Y-152528768D01*
X73365544Y-152528768D02*
X73460724Y-152525444D01*
X72604103Y-152555358D02*
X72639002Y-153554749D01*
X72639002Y-153554749D02*
X72258282Y-153568044D01*
X72258282Y-153568044D02*
X72161440Y-153523778D01*
X72161440Y-153523778D02*
X72112188Y-153477850D01*
X72112188Y-153477850D02*
X72061274Y-153384331D01*
X72061274Y-153384331D02*
X72056289Y-153241561D01*
X72056289Y-153241561D02*
X72100555Y-153144719D01*
X72100555Y-153144719D02*
X72146483Y-153095467D01*
X72146483Y-153095467D02*
X72240001Y-153044554D01*
X72240001Y-153044554D02*
X72620722Y-153031259D01*
X71081222Y-152608538D02*
X71652302Y-152588596D01*
X71366762Y-152598567D02*
X71401661Y-153597958D01*
X71401661Y-153597958D02*
X71491856Y-153451864D01*
X71491856Y-153451864D02*
X71583712Y-153353360D01*
X71583712Y-153353360D02*
X71677230Y-153302446D01*
X70247867Y-153304713D02*
X70224601Y-152638452D01*
X70499112Y-153677124D02*
X70712134Y-152954964D01*
X70712134Y-152954964D02*
X70093464Y-152976568D01*
X223636395Y-90039412D02*
X223611467Y-89325562D01*
X223611467Y-89325562D02*
X223654071Y-89181130D01*
X223654071Y-89181130D02*
X223745928Y-89082626D01*
X223745928Y-89082626D02*
X223887036Y-89030050D01*
X223887036Y-89030050D02*
X223982216Y-89026726D01*
X223125595Y-89056640D02*
X223160494Y-90056031D01*
X223160494Y-90056031D02*
X222779774Y-90069326D01*
X222779774Y-90069326D02*
X222682932Y-90025060D01*
X222682932Y-90025060D02*
X222633680Y-89979132D01*
X222633680Y-89979132D02*
X222582766Y-89885613D01*
X222582766Y-89885613D02*
X222577781Y-89742843D01*
X222577781Y-89742843D02*
X222622047Y-89646001D01*
X222622047Y-89646001D02*
X222667975Y-89596749D01*
X222667975Y-89596749D02*
X222761493Y-89545836D01*
X222761493Y-89545836D02*
X223142214Y-89532541D01*
X222256284Y-90087607D02*
X221637613Y-90109211D01*
X221637613Y-90109211D02*
X221957448Y-89716858D01*
X221957448Y-89716858D02*
X221814678Y-89721843D01*
X221814678Y-89721843D02*
X221717836Y-89677577D01*
X221717836Y-89677577D02*
X221668584Y-89631649D01*
X221668584Y-89631649D02*
X221617671Y-89538131D01*
X221617671Y-89538131D02*
X221609361Y-89300181D01*
X221609361Y-89300181D02*
X221653627Y-89203339D01*
X221653627Y-89203339D02*
X221699556Y-89154087D01*
X221699556Y-89154087D02*
X221793074Y-89103173D01*
X221793074Y-89103173D02*
X222078614Y-89093202D01*
X222078614Y-89093202D02*
X222175456Y-89137468D01*
X222175456Y-89137468D02*
X222224708Y-89183396D01*
X220769359Y-89805995D02*
X220746093Y-89139734D01*
X221020604Y-90178406D02*
X221233626Y-89456246D01*
X221233626Y-89456246D02*
X220614956Y-89477850D01*
X89313126Y-151771743D02*
X89288198Y-151057893D01*
X89288198Y-151057893D02*
X89330802Y-150913461D01*
X89330802Y-150913461D02*
X89422659Y-150814957D01*
X89422659Y-150814957D02*
X89563767Y-150762381D01*
X89563767Y-150762381D02*
X89658947Y-150759057D01*
X88802326Y-150788971D02*
X88837225Y-151788362D01*
X88837225Y-151788362D02*
X88456505Y-151801657D01*
X88456505Y-151801657D02*
X88359663Y-151757391D01*
X88359663Y-151757391D02*
X88310411Y-151711463D01*
X88310411Y-151711463D02*
X88259497Y-151617944D01*
X88259497Y-151617944D02*
X88254512Y-151475174D01*
X88254512Y-151475174D02*
X88298778Y-151378332D01*
X88298778Y-151378332D02*
X88344706Y-151329080D01*
X88344706Y-151329080D02*
X88438224Y-151278167D01*
X88438224Y-151278167D02*
X88818945Y-151264872D01*
X87279445Y-150842151D02*
X87850525Y-150822209D01*
X87564985Y-150832180D02*
X87599884Y-151831571D01*
X87599884Y-151831571D02*
X87690079Y-151685477D01*
X87690079Y-151685477D02*
X87781935Y-151586973D01*
X87781935Y-151586973D02*
X87875453Y-151536059D01*
X86981214Y-151853175D02*
X86362543Y-151874780D01*
X86362543Y-151874780D02*
X86682379Y-151482426D01*
X86682379Y-151482426D02*
X86539608Y-151487412D01*
X86539608Y-151487412D02*
X86442766Y-151443146D01*
X86442766Y-151443146D02*
X86393515Y-151397218D01*
X86393515Y-151397218D02*
X86342601Y-151303699D01*
X86342601Y-151303699D02*
X86334291Y-151065749D01*
X86334291Y-151065749D02*
X86378558Y-150968907D01*
X86378558Y-150968907D02*
X86424486Y-150919655D01*
X86424486Y-150919655D02*
X86518004Y-150868741D01*
X86518004Y-150868741D02*
X86803544Y-150858770D01*
X86803544Y-150858770D02*
X86900386Y-150903036D01*
X86900386Y-150903036D02*
X86949638Y-150948965D01*
X253283327Y-77854237D02*
X253258399Y-77140387D01*
X253258399Y-77140387D02*
X253301003Y-76995955D01*
X253301003Y-76995955D02*
X253392860Y-76897451D01*
X253392860Y-76897451D02*
X253533968Y-76844875D01*
X253533968Y-76844875D02*
X253629148Y-76841551D01*
X252772527Y-76871465D02*
X252807426Y-77870856D01*
X252807426Y-77870856D02*
X252426706Y-77884151D01*
X252426706Y-77884151D02*
X252329864Y-77839885D01*
X252329864Y-77839885D02*
X252280612Y-77793957D01*
X252280612Y-77793957D02*
X252229698Y-77700438D01*
X252229698Y-77700438D02*
X252224713Y-77557668D01*
X252224713Y-77557668D02*
X252268979Y-77460826D01*
X252268979Y-77460826D02*
X252314907Y-77411574D01*
X252314907Y-77411574D02*
X252408425Y-77360661D01*
X252408425Y-77360661D02*
X252789146Y-77347366D01*
X251903216Y-77902432D02*
X251284545Y-77924036D01*
X251284545Y-77924036D02*
X251604380Y-77531683D01*
X251604380Y-77531683D02*
X251461610Y-77536668D01*
X251461610Y-77536668D02*
X251364768Y-77492402D01*
X251364768Y-77492402D02*
X251315516Y-77446474D01*
X251315516Y-77446474D02*
X251264603Y-77352956D01*
X251264603Y-77352956D02*
X251256293Y-77115006D01*
X251256293Y-77115006D02*
X251300559Y-77018164D01*
X251300559Y-77018164D02*
X251346488Y-76968912D01*
X251346488Y-76968912D02*
X251440006Y-76917998D01*
X251440006Y-76917998D02*
X251725546Y-76908027D01*
X251725546Y-76908027D02*
X251822388Y-76952293D01*
X251822388Y-76952293D02*
X251871640Y-76998221D01*
X250900501Y-77842151D02*
X250854573Y-77891403D01*
X250854573Y-77891403D02*
X250761055Y-77942317D01*
X250761055Y-77942317D02*
X250523104Y-77950626D01*
X250523104Y-77950626D02*
X250426263Y-77906360D01*
X250426263Y-77906360D02*
X250377011Y-77860432D01*
X250377011Y-77860432D02*
X250326097Y-77766914D01*
X250326097Y-77766914D02*
X250322773Y-77671734D01*
X250322773Y-77671734D02*
X250365377Y-77527302D01*
X250365377Y-77527302D02*
X250916515Y-76936279D01*
X250916515Y-76936279D02*
X250297845Y-76957883D01*
X258835660Y-90718301D02*
X258810732Y-90004451D01*
X258810732Y-90004451D02*
X258853336Y-89860019D01*
X258853336Y-89860019D02*
X258945193Y-89761515D01*
X258945193Y-89761515D02*
X259086301Y-89708939D01*
X259086301Y-89708939D02*
X259181481Y-89705615D01*
X258324860Y-89735529D02*
X258359759Y-90734920D01*
X258359759Y-90734920D02*
X257979039Y-90748215D01*
X257979039Y-90748215D02*
X257882197Y-90703949D01*
X257882197Y-90703949D02*
X257832945Y-90658021D01*
X257832945Y-90658021D02*
X257782031Y-90564502D01*
X257782031Y-90564502D02*
X257777046Y-90421732D01*
X257777046Y-90421732D02*
X257821312Y-90324890D01*
X257821312Y-90324890D02*
X257867240Y-90275638D01*
X257867240Y-90275638D02*
X257960758Y-90224725D01*
X257960758Y-90224725D02*
X258341479Y-90211430D01*
X256801979Y-89788709D02*
X257373059Y-89768767D01*
X257087519Y-89778738D02*
X257122418Y-90778129D01*
X257122418Y-90778129D02*
X257212613Y-90632035D01*
X257212613Y-90632035D02*
X257304469Y-90533531D01*
X257304469Y-90533531D02*
X257397987Y-90482617D01*
X256503748Y-90799733D02*
X255837487Y-90823000D01*
X255837487Y-90823000D02*
X256230898Y-89808652D01*
X83958447Y-110183285D02*
X83933519Y-109469435D01*
X83933519Y-109469435D02*
X83976123Y-109325003D01*
X83976123Y-109325003D02*
X84067980Y-109226499D01*
X84067980Y-109226499D02*
X84209088Y-109173923D01*
X84209088Y-109173923D02*
X84304268Y-109170599D01*
X83447647Y-109200513D02*
X83482546Y-110199904D01*
X83482546Y-110199904D02*
X83101826Y-110213199D01*
X83101826Y-110213199D02*
X83004984Y-110168933D01*
X83004984Y-110168933D02*
X82955732Y-110123005D01*
X82955732Y-110123005D02*
X82904818Y-110029486D01*
X82904818Y-110029486D02*
X82899833Y-109886716D01*
X82899833Y-109886716D02*
X82944099Y-109789874D01*
X82944099Y-109789874D02*
X82990027Y-109740622D01*
X82990027Y-109740622D02*
X83083545Y-109689709D01*
X83083545Y-109689709D02*
X83464266Y-109676414D01*
X82007255Y-110251422D02*
X82483156Y-110234804D01*
X82483156Y-110234804D02*
X82514127Y-109757241D01*
X82514127Y-109757241D02*
X82468199Y-109806493D01*
X82468199Y-109806493D02*
X82374680Y-109857407D01*
X82374680Y-109857407D02*
X82136730Y-109865716D01*
X82136730Y-109865716D02*
X82039888Y-109821450D01*
X82039888Y-109821450D02*
X81990636Y-109775522D01*
X81990636Y-109775522D02*
X81939723Y-109682004D01*
X81939723Y-109682004D02*
X81931413Y-109444054D01*
X81931413Y-109444054D02*
X81975679Y-109347212D01*
X81975679Y-109347212D02*
X82021608Y-109297960D01*
X82021608Y-109297960D02*
X82115126Y-109247046D01*
X82115126Y-109247046D02*
X82353076Y-109238736D01*
X82353076Y-109238736D02*
X82449918Y-109283003D01*
X82449918Y-109283003D02*
X82499170Y-109328931D01*
X81373628Y-109844716D02*
X81470470Y-109888983D01*
X81470470Y-109888983D02*
X81519722Y-109934911D01*
X81519722Y-109934911D02*
X81570635Y-110028429D01*
X81570635Y-110028429D02*
X81572297Y-110076019D01*
X81572297Y-110076019D02*
X81528031Y-110172861D01*
X81528031Y-110172861D02*
X81482103Y-110222113D01*
X81482103Y-110222113D02*
X81388585Y-110273027D01*
X81388585Y-110273027D02*
X81198224Y-110279674D01*
X81198224Y-110279674D02*
X81101383Y-110235408D01*
X81101383Y-110235408D02*
X81052131Y-110189480D01*
X81052131Y-110189480D02*
X81001217Y-110095962D01*
X81001217Y-110095962D02*
X80999555Y-110048372D01*
X80999555Y-110048372D02*
X81043821Y-109951530D01*
X81043821Y-109951530D02*
X81089749Y-109902278D01*
X81089749Y-109902278D02*
X81183268Y-109851364D01*
X81183268Y-109851364D02*
X81373628Y-109844716D01*
X81373628Y-109844716D02*
X81467146Y-109793803D01*
X81467146Y-109793803D02*
X81513074Y-109744551D01*
X81513074Y-109744551D02*
X81557340Y-109647709D01*
X81557340Y-109647709D02*
X81550693Y-109457349D01*
X81550693Y-109457349D02*
X81499779Y-109363830D01*
X81499779Y-109363830D02*
X81450527Y-109317902D01*
X81450527Y-109317902D02*
X81353685Y-109273636D01*
X81353685Y-109273636D02*
X81163325Y-109280283D01*
X81163325Y-109280283D02*
X81069807Y-109331197D01*
X81069807Y-109331197D02*
X81023879Y-109380449D01*
X81023879Y-109380449D02*
X80979612Y-109477291D01*
X80979612Y-109477291D02*
X80986260Y-109667651D01*
X80986260Y-109667651D02*
X81037174Y-109761170D01*
X81037174Y-109761170D02*
X81086426Y-109807098D01*
X81086426Y-109807098D02*
X81183268Y-109851364D01*
X201886727Y-126877816D02*
X201861799Y-126163965D01*
X201861799Y-126163965D02*
X201904403Y-126019533D01*
X201904403Y-126019533D02*
X201996260Y-125921030D01*
X201996260Y-125921030D02*
X202137368Y-125868454D01*
X202137368Y-125868454D02*
X202232548Y-125865130D01*
X201375927Y-125895044D02*
X201410827Y-126894435D01*
X201410827Y-126894435D02*
X201030106Y-126907730D01*
X201030106Y-126907730D02*
X200933264Y-126863464D01*
X200933264Y-126863464D02*
X200884012Y-126817535D01*
X200884012Y-126817535D02*
X200833099Y-126724017D01*
X200833099Y-126724017D02*
X200828113Y-126581247D01*
X200828113Y-126581247D02*
X200872379Y-126484405D01*
X200872379Y-126484405D02*
X200918307Y-126435153D01*
X200918307Y-126435153D02*
X201011825Y-126384239D01*
X201011825Y-126384239D02*
X201392546Y-126370944D01*
X199983125Y-126944291D02*
X200173485Y-126937644D01*
X200173485Y-126937644D02*
X200267004Y-126886730D01*
X200267004Y-126886730D02*
X200312932Y-126837478D01*
X200312932Y-126837478D02*
X200403126Y-126691384D01*
X200403126Y-126691384D02*
X200444069Y-126499362D01*
X200444069Y-126499362D02*
X200430774Y-126118642D01*
X200430774Y-126118642D02*
X200379860Y-126025124D01*
X200379860Y-126025124D02*
X200330608Y-125979195D01*
X200330608Y-125979195D02*
X200233766Y-125934929D01*
X200233766Y-125934929D02*
X200043406Y-125941577D01*
X200043406Y-125941577D02*
X199949888Y-125992490D01*
X199949888Y-125992490D02*
X199903960Y-126041742D01*
X199903960Y-126041742D02*
X199859693Y-126138584D01*
X199859693Y-126138584D02*
X199868003Y-126376535D01*
X199868003Y-126376535D02*
X199918916Y-126470053D01*
X199918916Y-126470053D02*
X199968168Y-126515981D01*
X199968168Y-126515981D02*
X200065010Y-126560247D01*
X200065010Y-126560247D02*
X200255371Y-126553600D01*
X200255371Y-126553600D02*
X200348889Y-126502686D01*
X200348889Y-126502686D02*
X200394817Y-126453434D01*
X200394817Y-126453434D02*
X200439083Y-126356592D01*
X71583053Y-139876357D02*
X71558125Y-139162507D01*
X71558125Y-139162507D02*
X71600729Y-139018075D01*
X71600729Y-139018075D02*
X71692586Y-138919571D01*
X71692586Y-138919571D02*
X71833694Y-138866995D01*
X71833694Y-138866995D02*
X71928874Y-138863671D01*
X71072253Y-138893585D02*
X71107152Y-139892976D01*
X71107152Y-139892976D02*
X70726432Y-139906271D01*
X70726432Y-139906271D02*
X70629590Y-139862005D01*
X70629590Y-139862005D02*
X70580338Y-139816077D01*
X70580338Y-139816077D02*
X70529424Y-139722558D01*
X70529424Y-139722558D02*
X70524439Y-139579788D01*
X70524439Y-139579788D02*
X70568705Y-139482946D01*
X70568705Y-139482946D02*
X70614633Y-139433694D01*
X70614633Y-139433694D02*
X70708151Y-139382781D01*
X70708151Y-139382781D02*
X71088872Y-139369486D01*
X70152028Y-139831034D02*
X70106100Y-139880285D01*
X70106100Y-139880285D02*
X70012582Y-139931199D01*
X70012582Y-139931199D02*
X69774631Y-139939509D01*
X69774631Y-139939509D02*
X69677789Y-139895242D01*
X69677789Y-139895242D02*
X69628537Y-139849314D01*
X69628537Y-139849314D02*
X69577624Y-139755796D01*
X69577624Y-139755796D02*
X69574300Y-139660616D01*
X69574300Y-139660616D02*
X69616904Y-139516184D01*
X69616904Y-139516184D02*
X70168042Y-138925161D01*
X70168042Y-138925161D02*
X69549372Y-138946765D01*
X69073471Y-138963384D02*
X68883111Y-138970032D01*
X68883111Y-138970032D02*
X68789593Y-139020946D01*
X68789593Y-139020946D02*
X68743665Y-139070197D01*
X68743665Y-139070197D02*
X68653470Y-139216291D01*
X68653470Y-139216291D02*
X68612528Y-139408313D01*
X68612528Y-139408313D02*
X68625823Y-139789034D01*
X68625823Y-139789034D02*
X68676737Y-139882552D01*
X68676737Y-139882552D02*
X68725989Y-139928480D01*
X68725989Y-139928480D02*
X68822830Y-139972746D01*
X68822830Y-139972746D02*
X69013191Y-139966099D01*
X69013191Y-139966099D02*
X69106709Y-139915185D01*
X69106709Y-139915185D02*
X69152637Y-139865933D01*
X69152637Y-139865933D02*
X69196903Y-139769091D01*
X69196903Y-139769091D02*
X69188594Y-139531141D01*
X69188594Y-139531141D02*
X69137680Y-139437623D01*
X69137680Y-139437623D02*
X69088428Y-139391695D01*
X69088428Y-139391695D02*
X68991586Y-139347428D01*
X68991586Y-139347428D02*
X68801226Y-139354076D01*
X68801226Y-139354076D02*
X68707708Y-139404990D01*
X68707708Y-139404990D02*
X68661780Y-139454242D01*
X68661780Y-139454242D02*
X68617513Y-139551083D01*
X85890923Y-123974244D02*
X85865995Y-123260394D01*
X85865995Y-123260394D02*
X85908599Y-123115962D01*
X85908599Y-123115962D02*
X86000456Y-123017458D01*
X86000456Y-123017458D02*
X86141564Y-122964882D01*
X86141564Y-122964882D02*
X86236744Y-122961558D01*
X85380123Y-122991472D02*
X85415022Y-123990863D01*
X85415022Y-123990863D02*
X85034302Y-124004158D01*
X85034302Y-124004158D02*
X84937460Y-123959892D01*
X84937460Y-123959892D02*
X84888208Y-123913964D01*
X84888208Y-123913964D02*
X84837294Y-123820445D01*
X84837294Y-123820445D02*
X84832309Y-123677675D01*
X84832309Y-123677675D02*
X84876575Y-123580833D01*
X84876575Y-123580833D02*
X84922503Y-123531581D01*
X84922503Y-123531581D02*
X85016021Y-123480668D01*
X85016021Y-123480668D02*
X85396742Y-123467373D01*
X83975688Y-123707589D02*
X83952422Y-123041329D01*
X84226933Y-124080000D02*
X84439955Y-123357840D01*
X84439955Y-123357840D02*
X83821285Y-123379445D01*
X83559011Y-124055676D02*
X82940340Y-124077281D01*
X82940340Y-124077281D02*
X83260176Y-123684927D01*
X83260176Y-123684927D02*
X83117405Y-123689913D01*
X83117405Y-123689913D02*
X83020563Y-123645647D01*
X83020563Y-123645647D02*
X82971312Y-123599719D01*
X82971312Y-123599719D02*
X82920398Y-123506200D01*
X82920398Y-123506200D02*
X82912088Y-123268250D01*
X82912088Y-123268250D02*
X82956355Y-123171408D01*
X82956355Y-123171408D02*
X83002283Y-123122156D01*
X83002283Y-123122156D02*
X83095801Y-123071242D01*
X83095801Y-123071242D02*
X83381341Y-123061271D01*
X83381341Y-123061271D02*
X83478183Y-123105537D01*
X83478183Y-123105537D02*
X83527435Y-123151466D01*
X198088563Y-113352131D02*
X198063635Y-112638281D01*
X198063635Y-112638281D02*
X198106239Y-112493849D01*
X198106239Y-112493849D02*
X198198096Y-112395345D01*
X198198096Y-112395345D02*
X198339204Y-112342769D01*
X198339204Y-112342769D02*
X198434384Y-112339445D01*
X197577763Y-112369359D02*
X197612662Y-113368750D01*
X197612662Y-113368750D02*
X197231942Y-113382045D01*
X197231942Y-113382045D02*
X197135100Y-113337779D01*
X197135100Y-113337779D02*
X197085848Y-113291851D01*
X197085848Y-113291851D02*
X197034934Y-113198332D01*
X197034934Y-113198332D02*
X197029949Y-113055562D01*
X197029949Y-113055562D02*
X197074215Y-112958720D01*
X197074215Y-112958720D02*
X197120143Y-112909468D01*
X197120143Y-112909468D02*
X197213661Y-112858555D01*
X197213661Y-112858555D02*
X197594382Y-112845260D01*
X196657538Y-113306808D02*
X196611610Y-113356059D01*
X196611610Y-113356059D02*
X196518092Y-113406973D01*
X196518092Y-113406973D02*
X196280141Y-113415283D01*
X196280141Y-113415283D02*
X196183299Y-113371016D01*
X196183299Y-113371016D02*
X196134047Y-113325088D01*
X196134047Y-113325088D02*
X196083134Y-113231570D01*
X196083134Y-113231570D02*
X196079810Y-113136390D01*
X196079810Y-113136390D02*
X196122414Y-112991958D01*
X196122414Y-112991958D02*
X196673552Y-112400935D01*
X196673552Y-112400935D02*
X196054882Y-112422539D01*
X195103081Y-112455777D02*
X195674161Y-112435834D01*
X195388621Y-112445806D02*
X195423521Y-113445197D01*
X195423521Y-113445197D02*
X195513715Y-113299103D01*
X195513715Y-113299103D02*
X195605571Y-113200599D01*
X195605571Y-113200599D02*
X195699090Y-113149685D01*
X144953489Y-98947744D02*
X144928561Y-98233894D01*
X144928561Y-98233894D02*
X144971165Y-98089462D01*
X144971165Y-98089462D02*
X145063022Y-97990958D01*
X145063022Y-97990958D02*
X145204130Y-97938382D01*
X145204130Y-97938382D02*
X145299310Y-97935058D01*
X144442689Y-97964972D02*
X144477588Y-98964363D01*
X144477588Y-98964363D02*
X144096868Y-98977658D01*
X144096868Y-98977658D02*
X144000026Y-98933392D01*
X144000026Y-98933392D02*
X143950774Y-98887464D01*
X143950774Y-98887464D02*
X143899860Y-98793945D01*
X143899860Y-98793945D02*
X143894875Y-98651175D01*
X143894875Y-98651175D02*
X143939141Y-98554333D01*
X143939141Y-98554333D02*
X143985069Y-98505081D01*
X143985069Y-98505081D02*
X144078587Y-98454168D01*
X144078587Y-98454168D02*
X144459308Y-98440873D01*
X143002297Y-99015881D02*
X143478198Y-98999263D01*
X143478198Y-98999263D02*
X143509169Y-98521700D01*
X143509169Y-98521700D02*
X143463241Y-98570952D01*
X143463241Y-98570952D02*
X143369722Y-98621866D01*
X143369722Y-98621866D02*
X143131772Y-98630175D01*
X143131772Y-98630175D02*
X143034930Y-98585909D01*
X143034930Y-98585909D02*
X142985678Y-98539981D01*
X142985678Y-98539981D02*
X142934765Y-98446463D01*
X142934765Y-98446463D02*
X142926455Y-98208513D01*
X142926455Y-98208513D02*
X142970721Y-98111671D01*
X142970721Y-98111671D02*
X143016650Y-98062419D01*
X143016650Y-98062419D02*
X143110168Y-98011505D01*
X143110168Y-98011505D02*
X143348118Y-98003195D01*
X143348118Y-98003195D02*
X143444960Y-98047462D01*
X143444960Y-98047462D02*
X143494212Y-98093390D01*
X142086453Y-98714327D02*
X142063187Y-98048066D01*
X142337698Y-99086738D02*
X142550720Y-98364578D01*
X142550720Y-98364578D02*
X141932050Y-98386182D01*
X213371227Y-108408851D02*
X213346299Y-107695001D01*
X213346299Y-107695001D02*
X213388903Y-107550569D01*
X213388903Y-107550569D02*
X213480760Y-107452065D01*
X213480760Y-107452065D02*
X213621868Y-107399489D01*
X213621868Y-107399489D02*
X213717048Y-107396165D01*
X212860427Y-107426079D02*
X212895326Y-108425470D01*
X212895326Y-108425470D02*
X212514606Y-108438765D01*
X212514606Y-108438765D02*
X212417764Y-108394499D01*
X212417764Y-108394499D02*
X212368512Y-108348571D01*
X212368512Y-108348571D02*
X212317598Y-108255052D01*
X212317598Y-108255052D02*
X212312613Y-108112282D01*
X212312613Y-108112282D02*
X212356879Y-108015440D01*
X212356879Y-108015440D02*
X212402807Y-107966188D01*
X212402807Y-107966188D02*
X212496325Y-107915275D01*
X212496325Y-107915275D02*
X212877046Y-107901980D01*
X211940202Y-108363528D02*
X211894274Y-108412779D01*
X211894274Y-108412779D02*
X211800756Y-108463693D01*
X211800756Y-108463693D02*
X211562805Y-108472003D01*
X211562805Y-108472003D02*
X211465963Y-108427736D01*
X211465963Y-108427736D02*
X211416711Y-108381808D01*
X211416711Y-108381808D02*
X211365798Y-108288290D01*
X211365798Y-108288290D02*
X211362474Y-108193110D01*
X211362474Y-108193110D02*
X211405078Y-108048678D01*
X211405078Y-108048678D02*
X211956216Y-107457655D01*
X211956216Y-107457655D02*
X211337546Y-107479259D01*
X210753775Y-108500255D02*
X210658595Y-108503578D01*
X210658595Y-108503578D02*
X210561753Y-108459312D01*
X210561753Y-108459312D02*
X210512501Y-108413384D01*
X210512501Y-108413384D02*
X210461587Y-108319866D01*
X210461587Y-108319866D02*
X210407349Y-108131168D01*
X210407349Y-108131168D02*
X210399040Y-107893217D01*
X210399040Y-107893217D02*
X210439982Y-107701195D01*
X210439982Y-107701195D02*
X210484249Y-107604353D01*
X210484249Y-107604353D02*
X210530177Y-107555101D01*
X210530177Y-107555101D02*
X210623695Y-107504188D01*
X210623695Y-107504188D02*
X210718875Y-107500864D01*
X210718875Y-107500864D02*
X210815717Y-107545130D01*
X210815717Y-107545130D02*
X210864969Y-107591058D01*
X210864969Y-107591058D02*
X210915883Y-107684576D01*
X210915883Y-107684576D02*
X210970120Y-107873275D01*
X210970120Y-107873275D02*
X210978430Y-108111225D01*
X210978430Y-108111225D02*
X210937487Y-108303247D01*
X210937487Y-108303247D02*
X210893221Y-108400089D01*
X210893221Y-108400089D02*
X210847293Y-108449341D01*
X210847293Y-108449341D02*
X210753775Y-108500255D01*
X70092458Y-125726670D02*
X70067530Y-125012820D01*
X70067530Y-125012820D02*
X70110134Y-124868388D01*
X70110134Y-124868388D02*
X70201991Y-124769884D01*
X70201991Y-124769884D02*
X70343099Y-124717308D01*
X70343099Y-124717308D02*
X70438279Y-124713984D01*
X69581658Y-124743898D02*
X69616557Y-125743289D01*
X69616557Y-125743289D02*
X69235837Y-125756584D01*
X69235837Y-125756584D02*
X69138995Y-125712318D01*
X69138995Y-125712318D02*
X69089743Y-125666390D01*
X69089743Y-125666390D02*
X69038829Y-125572871D01*
X69038829Y-125572871D02*
X69033844Y-125430101D01*
X69033844Y-125430101D02*
X69078110Y-125333259D01*
X69078110Y-125333259D02*
X69124038Y-125284007D01*
X69124038Y-125284007D02*
X69217556Y-125233094D01*
X69217556Y-125233094D02*
X69598277Y-125219799D01*
X68177223Y-125460015D02*
X68153957Y-124793755D01*
X68428468Y-125832426D02*
X68641490Y-125110266D01*
X68641490Y-125110266D02*
X68022820Y-125131871D01*
X67225422Y-125493253D02*
X67202156Y-124826992D01*
X67476667Y-125865664D02*
X67689689Y-125143504D01*
X67689689Y-125143504D02*
X67071019Y-125165108D01*
X163414142Y-108959575D02*
X163389214Y-108245725D01*
X163389214Y-108245725D02*
X163431818Y-108101293D01*
X163431818Y-108101293D02*
X163523675Y-108002789D01*
X163523675Y-108002789D02*
X163664783Y-107950213D01*
X163664783Y-107950213D02*
X163759963Y-107946889D01*
X162903342Y-107976803D02*
X162938241Y-108976194D01*
X162938241Y-108976194D02*
X162557521Y-108989489D01*
X162557521Y-108989489D02*
X162460679Y-108945223D01*
X162460679Y-108945223D02*
X162411427Y-108899295D01*
X162411427Y-108899295D02*
X162360513Y-108805776D01*
X162360513Y-108805776D02*
X162355528Y-108663006D01*
X162355528Y-108663006D02*
X162399794Y-108566164D01*
X162399794Y-108566164D02*
X162445722Y-108516912D01*
X162445722Y-108516912D02*
X162539240Y-108465999D01*
X162539240Y-108465999D02*
X162919961Y-108452704D01*
X162034031Y-109007770D02*
X161415360Y-109029374D01*
X161415360Y-109029374D02*
X161735195Y-108637021D01*
X161735195Y-108637021D02*
X161592425Y-108642006D01*
X161592425Y-108642006D02*
X161495583Y-108597740D01*
X161495583Y-108597740D02*
X161446331Y-108551812D01*
X161446331Y-108551812D02*
X161395418Y-108458294D01*
X161395418Y-108458294D02*
X161387108Y-108220344D01*
X161387108Y-108220344D02*
X161431374Y-108123502D01*
X161431374Y-108123502D02*
X161477303Y-108074250D01*
X161477303Y-108074250D02*
X161570821Y-108023336D01*
X161570821Y-108023336D02*
X161856361Y-108013365D01*
X161856361Y-108013365D02*
X161953203Y-108057631D01*
X161953203Y-108057631D02*
X162002455Y-108103559D01*
X160829323Y-108621006D02*
X160926165Y-108665273D01*
X160926165Y-108665273D02*
X160975417Y-108711201D01*
X160975417Y-108711201D02*
X161026330Y-108804719D01*
X161026330Y-108804719D02*
X161027992Y-108852309D01*
X161027992Y-108852309D02*
X160983726Y-108949151D01*
X160983726Y-108949151D02*
X160937798Y-108998403D01*
X160937798Y-108998403D02*
X160844280Y-109049317D01*
X160844280Y-109049317D02*
X160653919Y-109055964D01*
X160653919Y-109055964D02*
X160557078Y-109011698D01*
X160557078Y-109011698D02*
X160507826Y-108965770D01*
X160507826Y-108965770D02*
X160456912Y-108872252D01*
X160456912Y-108872252D02*
X160455250Y-108824662D01*
X160455250Y-108824662D02*
X160499516Y-108727820D01*
X160499516Y-108727820D02*
X160545444Y-108678568D01*
X160545444Y-108678568D02*
X160638963Y-108627654D01*
X160638963Y-108627654D02*
X160829323Y-108621006D01*
X160829323Y-108621006D02*
X160922841Y-108570093D01*
X160922841Y-108570093D02*
X160968769Y-108520841D01*
X160968769Y-108520841D02*
X161013035Y-108423999D01*
X161013035Y-108423999D02*
X161006388Y-108233639D01*
X161006388Y-108233639D02*
X160955474Y-108140120D01*
X160955474Y-108140120D02*
X160906222Y-108094192D01*
X160906222Y-108094192D02*
X160809380Y-108049926D01*
X160809380Y-108049926D02*
X160619020Y-108056573D01*
X160619020Y-108056573D02*
X160525502Y-108107487D01*
X160525502Y-108107487D02*
X160479574Y-108156739D01*
X160479574Y-108156739D02*
X160435307Y-108253581D01*
X160435307Y-108253581D02*
X160441955Y-108443941D01*
X160441955Y-108443941D02*
X160492869Y-108537460D01*
X160492869Y-108537460D02*
X160542121Y-108583388D01*
X160542121Y-108583388D02*
X160638963Y-108627654D01*
X248624816Y-110079536D02*
X248599888Y-109365685D01*
X248599888Y-109365685D02*
X248642492Y-109221253D01*
X248642492Y-109221253D02*
X248734349Y-109122750D01*
X248734349Y-109122750D02*
X248875457Y-109070174D01*
X248875457Y-109070174D02*
X248970637Y-109066850D01*
X248114016Y-109096764D02*
X248148916Y-110096155D01*
X248148916Y-110096155D02*
X247768195Y-110109450D01*
X247768195Y-110109450D02*
X247671353Y-110065184D01*
X247671353Y-110065184D02*
X247622101Y-110019255D01*
X247622101Y-110019255D02*
X247571188Y-109925737D01*
X247571188Y-109925737D02*
X247566202Y-109782967D01*
X247566202Y-109782967D02*
X247610468Y-109686125D01*
X247610468Y-109686125D02*
X247656396Y-109636873D01*
X247656396Y-109636873D02*
X247749914Y-109585959D01*
X247749914Y-109585959D02*
X248130635Y-109572664D01*
X247244705Y-110127731D02*
X246626034Y-110149335D01*
X246626034Y-110149335D02*
X246945869Y-109756982D01*
X246945869Y-109756982D02*
X246803099Y-109761967D01*
X246803099Y-109761967D02*
X246706257Y-109717701D01*
X246706257Y-109717701D02*
X246657005Y-109671773D01*
X246657005Y-109671773D02*
X246606092Y-109578255D01*
X246606092Y-109578255D02*
X246597782Y-109340304D01*
X246597782Y-109340304D02*
X246642049Y-109243462D01*
X246642049Y-109243462D02*
X246687977Y-109194210D01*
X246687977Y-109194210D02*
X246781495Y-109143297D01*
X246781495Y-109143297D02*
X247067035Y-109133325D01*
X247067035Y-109133325D02*
X247163877Y-109177592D01*
X247163877Y-109177592D02*
X247213129Y-109223520D01*
X99446625Y-108141512D02*
X99421697Y-107427662D01*
X99421697Y-107427662D02*
X99464301Y-107283230D01*
X99464301Y-107283230D02*
X99556158Y-107184726D01*
X99556158Y-107184726D02*
X99697266Y-107132150D01*
X99697266Y-107132150D02*
X99792446Y-107128826D01*
X98935825Y-107158740D02*
X98970724Y-108158131D01*
X98970724Y-108158131D02*
X98590004Y-108171426D01*
X98590004Y-108171426D02*
X98493162Y-108127160D01*
X98493162Y-108127160D02*
X98443910Y-108081232D01*
X98443910Y-108081232D02*
X98392996Y-107987713D01*
X98392996Y-107987713D02*
X98388011Y-107844943D01*
X98388011Y-107844943D02*
X98432277Y-107748101D01*
X98432277Y-107748101D02*
X98478205Y-107698849D01*
X98478205Y-107698849D02*
X98571723Y-107647936D01*
X98571723Y-107647936D02*
X98952444Y-107634641D01*
X97495433Y-108209649D02*
X97971334Y-108193031D01*
X97971334Y-108193031D02*
X98002305Y-107715468D01*
X98002305Y-107715468D02*
X97956377Y-107764720D01*
X97956377Y-107764720D02*
X97862858Y-107815634D01*
X97862858Y-107815634D02*
X97624908Y-107823943D01*
X97624908Y-107823943D02*
X97528066Y-107779677D01*
X97528066Y-107779677D02*
X97478814Y-107733749D01*
X97478814Y-107733749D02*
X97427901Y-107640231D01*
X97427901Y-107640231D02*
X97419591Y-107402281D01*
X97419591Y-107402281D02*
X97463857Y-107305439D01*
X97463857Y-107305439D02*
X97509786Y-107256187D01*
X97509786Y-107256187D02*
X97603304Y-107205273D01*
X97603304Y-107205273D02*
X97841254Y-107196963D01*
X97841254Y-107196963D02*
X97938096Y-107241230D01*
X97938096Y-107241230D02*
X97987348Y-107287158D01*
X97114713Y-108222944D02*
X96448452Y-108246211D01*
X96448452Y-108246211D02*
X96841863Y-107231863D01*
X204095374Y-81923351D02*
X204070446Y-81209501D01*
X204070446Y-81209501D02*
X204113050Y-81065069D01*
X204113050Y-81065069D02*
X204204907Y-80966565D01*
X204204907Y-80966565D02*
X204346015Y-80913989D01*
X204346015Y-80913989D02*
X204441195Y-80910665D01*
X203584574Y-80940579D02*
X203619473Y-81939970D01*
X203619473Y-81939970D02*
X203238753Y-81953265D01*
X203238753Y-81953265D02*
X203141911Y-81908999D01*
X203141911Y-81908999D02*
X203092659Y-81863071D01*
X203092659Y-81863071D02*
X203041745Y-81769552D01*
X203041745Y-81769552D02*
X203036760Y-81626782D01*
X203036760Y-81626782D02*
X203081026Y-81529940D01*
X203081026Y-81529940D02*
X203126954Y-81480688D01*
X203126954Y-81480688D02*
X203220472Y-81429775D01*
X203220472Y-81429775D02*
X203601193Y-81416480D01*
X202144182Y-81991488D02*
X202620083Y-81974870D01*
X202620083Y-81974870D02*
X202651054Y-81497307D01*
X202651054Y-81497307D02*
X202605126Y-81546559D01*
X202605126Y-81546559D02*
X202511607Y-81597473D01*
X202511607Y-81597473D02*
X202273657Y-81605782D01*
X202273657Y-81605782D02*
X202176815Y-81561516D01*
X202176815Y-81561516D02*
X202127563Y-81515588D01*
X202127563Y-81515588D02*
X202076650Y-81422070D01*
X202076650Y-81422070D02*
X202068340Y-81184120D01*
X202068340Y-81184120D02*
X202112606Y-81087278D01*
X202112606Y-81087278D02*
X202158535Y-81038026D01*
X202158535Y-81038026D02*
X202252053Y-80987112D01*
X202252053Y-80987112D02*
X202490003Y-80978802D01*
X202490003Y-80978802D02*
X202586845Y-81023069D01*
X202586845Y-81023069D02*
X202636097Y-81068997D01*
X201477922Y-82014755D02*
X201382742Y-82018078D01*
X201382742Y-82018078D02*
X201285900Y-81973812D01*
X201285900Y-81973812D02*
X201236648Y-81927884D01*
X201236648Y-81927884D02*
X201185734Y-81834366D01*
X201185734Y-81834366D02*
X201131496Y-81645668D01*
X201131496Y-81645668D02*
X201123187Y-81407717D01*
X201123187Y-81407717D02*
X201164129Y-81215695D01*
X201164129Y-81215695D02*
X201208396Y-81118853D01*
X201208396Y-81118853D02*
X201254324Y-81069601D01*
X201254324Y-81069601D02*
X201347842Y-81018688D01*
X201347842Y-81018688D02*
X201443022Y-81015364D01*
X201443022Y-81015364D02*
X201539864Y-81059630D01*
X201539864Y-81059630D02*
X201589116Y-81105558D01*
X201589116Y-81105558D02*
X201640030Y-81199076D01*
X201640030Y-81199076D02*
X201694267Y-81387775D01*
X201694267Y-81387775D02*
X201702577Y-81625725D01*
X201702577Y-81625725D02*
X201661634Y-81817747D01*
X201661634Y-81817747D02*
X201617368Y-81914589D01*
X201617368Y-81914589D02*
X201571440Y-81963841D01*
X201571440Y-81963841D02*
X201477922Y-82014755D01*
X135520829Y-129695670D02*
X135495901Y-128981820D01*
X135495901Y-128981820D02*
X135538505Y-128837388D01*
X135538505Y-128837388D02*
X135630362Y-128738884D01*
X135630362Y-128738884D02*
X135771470Y-128686308D01*
X135771470Y-128686308D02*
X135866650Y-128682984D01*
X135010029Y-128712898D02*
X135044928Y-129712289D01*
X135044928Y-129712289D02*
X134664208Y-129725584D01*
X134664208Y-129725584D02*
X134567366Y-129681318D01*
X134567366Y-129681318D02*
X134518114Y-129635390D01*
X134518114Y-129635390D02*
X134467200Y-129541871D01*
X134467200Y-129541871D02*
X134462215Y-129399101D01*
X134462215Y-129399101D02*
X134506481Y-129302259D01*
X134506481Y-129302259D02*
X134552409Y-129253007D01*
X134552409Y-129253007D02*
X134645927Y-129202094D01*
X134645927Y-129202094D02*
X135026648Y-129188799D01*
X134089804Y-129650347D02*
X134043876Y-129699598D01*
X134043876Y-129699598D02*
X133950358Y-129750512D01*
X133950358Y-129750512D02*
X133712407Y-129758822D01*
X133712407Y-129758822D02*
X133615565Y-129714555D01*
X133615565Y-129714555D02*
X133566313Y-129668627D01*
X133566313Y-129668627D02*
X133515400Y-129575109D01*
X133515400Y-129575109D02*
X133512076Y-129479929D01*
X133512076Y-129479929D02*
X133554680Y-129335497D01*
X133554680Y-129335497D02*
X134105818Y-128744474D01*
X134105818Y-128744474D02*
X133487148Y-128766078D01*
X132617836Y-129797045D02*
X133093737Y-129780426D01*
X133093737Y-129780426D02*
X133124708Y-129302864D01*
X133124708Y-129302864D02*
X133078780Y-129352116D01*
X133078780Y-129352116D02*
X132985262Y-129403030D01*
X132985262Y-129403030D02*
X132747311Y-129411339D01*
X132747311Y-129411339D02*
X132650469Y-129367073D01*
X132650469Y-129367073D02*
X132601218Y-129321145D01*
X132601218Y-129321145D02*
X132550304Y-129227626D01*
X132550304Y-129227626D02*
X132541994Y-128989676D01*
X132541994Y-128989676D02*
X132586261Y-128892834D01*
X132586261Y-128892834D02*
X132632189Y-128843582D01*
X132632189Y-128843582D02*
X132725707Y-128792668D01*
X132725707Y-128792668D02*
X132963657Y-128784359D01*
X132963657Y-128784359D02*
X133060499Y-128828625D01*
X133060499Y-128828625D02*
X133109751Y-128874554D01*
X154067463Y-140054713D02*
X154042535Y-139340862D01*
X154042535Y-139340862D02*
X154085139Y-139196430D01*
X154085139Y-139196430D02*
X154176996Y-139097927D01*
X154176996Y-139097927D02*
X154318104Y-139045351D01*
X154318104Y-139045351D02*
X154413284Y-139042027D01*
X153556663Y-139071941D02*
X153591563Y-140071332D01*
X153591563Y-140071332D02*
X153210842Y-140084627D01*
X153210842Y-140084627D02*
X153114000Y-140040361D01*
X153114000Y-140040361D02*
X153064748Y-139994432D01*
X153064748Y-139994432D02*
X153013835Y-139900914D01*
X153013835Y-139900914D02*
X153008849Y-139758144D01*
X153008849Y-139758144D02*
X153053115Y-139661302D01*
X153053115Y-139661302D02*
X153099043Y-139612050D01*
X153099043Y-139612050D02*
X153192561Y-139561136D01*
X153192561Y-139561136D02*
X153573282Y-139547841D01*
X152509682Y-139108502D02*
X152319322Y-139115150D01*
X152319322Y-139115150D02*
X152225804Y-139166064D01*
X152225804Y-139166064D02*
X152179876Y-139215316D01*
X152179876Y-139215316D02*
X152089681Y-139361409D01*
X152089681Y-139361409D02*
X152048739Y-139553432D01*
X152048739Y-139553432D02*
X152062034Y-139934152D01*
X152062034Y-139934152D02*
X152112948Y-140027670D01*
X152112948Y-140027670D02*
X152162199Y-140073598D01*
X152162199Y-140073598D02*
X152259041Y-140117864D01*
X152259041Y-140117864D02*
X152449402Y-140111217D01*
X152449402Y-140111217D02*
X152542920Y-140060303D01*
X152542920Y-140060303D02*
X152588848Y-140011051D01*
X152588848Y-140011051D02*
X152633114Y-139914209D01*
X152633114Y-139914209D02*
X152624805Y-139676259D01*
X152624805Y-139676259D02*
X152573891Y-139582741D01*
X152573891Y-139582741D02*
X152524639Y-139536813D01*
X152524639Y-139536813D02*
X152427797Y-139492546D01*
X152427797Y-139492546D02*
X152237437Y-139499194D01*
X152237437Y-139499194D02*
X152143919Y-139550108D01*
X152143919Y-139550108D02*
X152097991Y-139599360D01*
X152097991Y-139599360D02*
X152053724Y-139696202D01*
X87580529Y-137973806D02*
X87555601Y-137259956D01*
X87555601Y-137259956D02*
X87598205Y-137115524D01*
X87598205Y-137115524D02*
X87690062Y-137017020D01*
X87690062Y-137017020D02*
X87831170Y-136964444D01*
X87831170Y-136964444D02*
X87926350Y-136961120D01*
X87069729Y-136991034D02*
X87104628Y-137990425D01*
X87104628Y-137990425D02*
X86723908Y-138003720D01*
X86723908Y-138003720D02*
X86627066Y-137959454D01*
X86627066Y-137959454D02*
X86577814Y-137913526D01*
X86577814Y-137913526D02*
X86526900Y-137820007D01*
X86526900Y-137820007D02*
X86521915Y-137677237D01*
X86521915Y-137677237D02*
X86566181Y-137580395D01*
X86566181Y-137580395D02*
X86612109Y-137531143D01*
X86612109Y-137531143D02*
X86705627Y-137480230D01*
X86705627Y-137480230D02*
X87086348Y-137466935D01*
X86149504Y-137928483D02*
X86103576Y-137977734D01*
X86103576Y-137977734D02*
X86010058Y-138028648D01*
X86010058Y-138028648D02*
X85772107Y-138036958D01*
X85772107Y-138036958D02*
X85675265Y-137992691D01*
X85675265Y-137992691D02*
X85626013Y-137946763D01*
X85626013Y-137946763D02*
X85575100Y-137853245D01*
X85575100Y-137853245D02*
X85571776Y-137758065D01*
X85571776Y-137758065D02*
X85614380Y-137613633D01*
X85614380Y-137613633D02*
X86165518Y-137022610D01*
X86165518Y-137022610D02*
X85546848Y-137044214D01*
X84995710Y-137635237D02*
X85092552Y-137679504D01*
X85092552Y-137679504D02*
X85141804Y-137725432D01*
X85141804Y-137725432D02*
X85192717Y-137818950D01*
X85192717Y-137818950D02*
X85194379Y-137866540D01*
X85194379Y-137866540D02*
X85150113Y-137963382D01*
X85150113Y-137963382D02*
X85104185Y-138012634D01*
X85104185Y-138012634D02*
X85010667Y-138063548D01*
X85010667Y-138063548D02*
X84820306Y-138070195D01*
X84820306Y-138070195D02*
X84723465Y-138025929D01*
X84723465Y-138025929D02*
X84674213Y-137980001D01*
X84674213Y-137980001D02*
X84623299Y-137886483D01*
X84623299Y-137886483D02*
X84621637Y-137838893D01*
X84621637Y-137838893D02*
X84665903Y-137742051D01*
X84665903Y-137742051D02*
X84711831Y-137692799D01*
X84711831Y-137692799D02*
X84805350Y-137641885D01*
X84805350Y-137641885D02*
X84995710Y-137635237D01*
X84995710Y-137635237D02*
X85089228Y-137584324D01*
X85089228Y-137584324D02*
X85135156Y-137535072D01*
X85135156Y-137535072D02*
X85179422Y-137438230D01*
X85179422Y-137438230D02*
X85172775Y-137247870D01*
X85172775Y-137247870D02*
X85121861Y-137154351D01*
X85121861Y-137154351D02*
X85072609Y-137108423D01*
X85072609Y-137108423D02*
X84975767Y-137064157D01*
X84975767Y-137064157D02*
X84785407Y-137070804D01*
X84785407Y-137070804D02*
X84691889Y-137121718D01*
X84691889Y-137121718D02*
X84645961Y-137170970D01*
X84645961Y-137170970D02*
X84601694Y-137267812D01*
X84601694Y-137267812D02*
X84608342Y-137458172D01*
X84608342Y-137458172D02*
X84659256Y-137551691D01*
X84659256Y-137551691D02*
X84708508Y-137597619D01*
X84708508Y-137597619D02*
X84805350Y-137641885D01*
X174756591Y-91353004D02*
X174731663Y-90639154D01*
X174731663Y-90639154D02*
X174774267Y-90494722D01*
X174774267Y-90494722D02*
X174866124Y-90396218D01*
X174866124Y-90396218D02*
X175007232Y-90343642D01*
X175007232Y-90343642D02*
X175102412Y-90340318D01*
X174245791Y-90370232D02*
X174280690Y-91369623D01*
X174280690Y-91369623D02*
X173899970Y-91382918D01*
X173899970Y-91382918D02*
X173803128Y-91338652D01*
X173803128Y-91338652D02*
X173753876Y-91292724D01*
X173753876Y-91292724D02*
X173702962Y-91199205D01*
X173702962Y-91199205D02*
X173697977Y-91056435D01*
X173697977Y-91056435D02*
X173742243Y-90959593D01*
X173742243Y-90959593D02*
X173788171Y-90910341D01*
X173788171Y-90910341D02*
X173881689Y-90859428D01*
X173881689Y-90859428D02*
X174262410Y-90846133D01*
X172805399Y-91421141D02*
X173281300Y-91404523D01*
X173281300Y-91404523D02*
X173312271Y-90926960D01*
X173312271Y-90926960D02*
X173266343Y-90976212D01*
X173266343Y-90976212D02*
X173172824Y-91027126D01*
X173172824Y-91027126D02*
X172934874Y-91035435D01*
X172934874Y-91035435D02*
X172838032Y-90991169D01*
X172838032Y-90991169D02*
X172788780Y-90945241D01*
X172788780Y-90945241D02*
X172737867Y-90851723D01*
X172737867Y-90851723D02*
X172729557Y-90613773D01*
X172729557Y-90613773D02*
X172773823Y-90516931D01*
X172773823Y-90516931D02*
X172819752Y-90467679D01*
X172819752Y-90467679D02*
X172913270Y-90416765D01*
X172913270Y-90416765D02*
X173151220Y-90408455D01*
X173151220Y-90408455D02*
X173248062Y-90452722D01*
X173248062Y-90452722D02*
X173297314Y-90498650D01*
X172373765Y-91340918D02*
X172327837Y-91390170D01*
X172327837Y-91390170D02*
X172234319Y-91441084D01*
X172234319Y-91441084D02*
X171996368Y-91449393D01*
X171996368Y-91449393D02*
X171899527Y-91405127D01*
X171899527Y-91405127D02*
X171850275Y-91359199D01*
X171850275Y-91359199D02*
X171799361Y-91265681D01*
X171799361Y-91265681D02*
X171796037Y-91170501D01*
X171796037Y-91170501D02*
X171838641Y-91026069D01*
X171838641Y-91026069D02*
X172389779Y-90435046D01*
X172389779Y-90435046D02*
X171771109Y-90456650D01*
X193578612Y-100251545D02*
X193553684Y-99537695D01*
X193553684Y-99537695D02*
X193596288Y-99393263D01*
X193596288Y-99393263D02*
X193688145Y-99294759D01*
X193688145Y-99294759D02*
X193829253Y-99242183D01*
X193829253Y-99242183D02*
X193924433Y-99238859D01*
X193067812Y-99268773D02*
X193102711Y-100268164D01*
X193102711Y-100268164D02*
X192721991Y-100281459D01*
X192721991Y-100281459D02*
X192625149Y-100237193D01*
X192625149Y-100237193D02*
X192575897Y-100191265D01*
X192575897Y-100191265D02*
X192524983Y-100097746D01*
X192524983Y-100097746D02*
X192519998Y-99954976D01*
X192519998Y-99954976D02*
X192564264Y-99858134D01*
X192564264Y-99858134D02*
X192610192Y-99808882D01*
X192610192Y-99808882D02*
X192703710Y-99757969D01*
X192703710Y-99757969D02*
X193084431Y-99744674D01*
X192198501Y-100299740D02*
X191579830Y-100321344D01*
X191579830Y-100321344D02*
X191899665Y-99928991D01*
X191899665Y-99928991D02*
X191756895Y-99933976D01*
X191756895Y-99933976D02*
X191660053Y-99889710D01*
X191660053Y-99889710D02*
X191610801Y-99843782D01*
X191610801Y-99843782D02*
X191559888Y-99750264D01*
X191559888Y-99750264D02*
X191551578Y-99512314D01*
X191551578Y-99512314D02*
X191595844Y-99415472D01*
X191595844Y-99415472D02*
X191641773Y-99366220D01*
X191641773Y-99366220D02*
X191735291Y-99315306D01*
X191735291Y-99315306D02*
X192020831Y-99305335D01*
X192020831Y-99305335D02*
X192117673Y-99349601D01*
X192117673Y-99349601D02*
X192166925Y-99395529D01*
X190723209Y-100351258D02*
X190913570Y-100344611D01*
X190913570Y-100344611D02*
X191007088Y-100293697D01*
X191007088Y-100293697D02*
X191053016Y-100244445D01*
X191053016Y-100244445D02*
X191143210Y-100098351D01*
X191143210Y-100098351D02*
X191184153Y-99906329D01*
X191184153Y-99906329D02*
X191170858Y-99525609D01*
X191170858Y-99525609D02*
X191119944Y-99432090D01*
X191119944Y-99432090D02*
X191070692Y-99386162D01*
X191070692Y-99386162D02*
X190973850Y-99341896D01*
X190973850Y-99341896D02*
X190783490Y-99348543D01*
X190783490Y-99348543D02*
X190689972Y-99399457D01*
X190689972Y-99399457D02*
X190644044Y-99448709D01*
X190644044Y-99448709D02*
X190599777Y-99545551D01*
X190599777Y-99545551D02*
X190608087Y-99783501D01*
X190608087Y-99783501D02*
X190659001Y-99877020D01*
X190659001Y-99877020D02*
X190708252Y-99922948D01*
X190708252Y-99922948D02*
X190805094Y-99967214D01*
X190805094Y-99967214D02*
X190995455Y-99960566D01*
X190995455Y-99960566D02*
X191088973Y-99909653D01*
X191088973Y-99909653D02*
X191134901Y-99860401D01*
X191134901Y-99860401D02*
X191179167Y-99763559D01*
X122058719Y-146775895D02*
X122033791Y-146062045D01*
X122033791Y-146062045D02*
X122076395Y-145917613D01*
X122076395Y-145917613D02*
X122168252Y-145819109D01*
X122168252Y-145819109D02*
X122309360Y-145766533D01*
X122309360Y-145766533D02*
X122404540Y-145763209D01*
X121547919Y-145793123D02*
X121582818Y-146792514D01*
X121582818Y-146792514D02*
X121202098Y-146805809D01*
X121202098Y-146805809D02*
X121105256Y-146761543D01*
X121105256Y-146761543D02*
X121056004Y-146715615D01*
X121056004Y-146715615D02*
X121005090Y-146622096D01*
X121005090Y-146622096D02*
X121000105Y-146479326D01*
X121000105Y-146479326D02*
X121044371Y-146382484D01*
X121044371Y-146382484D02*
X121090299Y-146333232D01*
X121090299Y-146333232D02*
X121183817Y-146282319D01*
X121183817Y-146282319D02*
X121564538Y-146269024D01*
X120025038Y-145846303D02*
X120596118Y-145826361D01*
X120310578Y-145836332D02*
X120345477Y-146835723D01*
X120345477Y-146835723D02*
X120435672Y-146689629D01*
X120435672Y-146689629D02*
X120527528Y-146591125D01*
X120527528Y-146591125D02*
X120621046Y-146540211D01*
X119073237Y-145879541D02*
X119644317Y-145859598D01*
X119358777Y-145869570D02*
X119393677Y-146868961D01*
X119393677Y-146868961D02*
X119483871Y-146722867D01*
X119483871Y-146722867D02*
X119575727Y-146624363D01*
X119575727Y-146624363D02*
X119669246Y-146573449D01*
X208912122Y-95213345D02*
X208887194Y-94499495D01*
X208887194Y-94499495D02*
X208929798Y-94355063D01*
X208929798Y-94355063D02*
X209021655Y-94256559D01*
X209021655Y-94256559D02*
X209162763Y-94203983D01*
X209162763Y-94203983D02*
X209257943Y-94200659D01*
X208401322Y-94230573D02*
X208436221Y-95229964D01*
X208436221Y-95229964D02*
X208055501Y-95243259D01*
X208055501Y-95243259D02*
X207958659Y-95198993D01*
X207958659Y-95198993D02*
X207909407Y-95153065D01*
X207909407Y-95153065D02*
X207858493Y-95059546D01*
X207858493Y-95059546D02*
X207853508Y-94916776D01*
X207853508Y-94916776D02*
X207897774Y-94819934D01*
X207897774Y-94819934D02*
X207943702Y-94770682D01*
X207943702Y-94770682D02*
X208037220Y-94719769D01*
X208037220Y-94719769D02*
X208417941Y-94706474D01*
X207532011Y-95261540D02*
X206913340Y-95283144D01*
X206913340Y-95283144D02*
X207233175Y-94890791D01*
X207233175Y-94890791D02*
X207090405Y-94895776D01*
X207090405Y-94895776D02*
X206993563Y-94851510D01*
X206993563Y-94851510D02*
X206944311Y-94805582D01*
X206944311Y-94805582D02*
X206893398Y-94712064D01*
X206893398Y-94712064D02*
X206885088Y-94474114D01*
X206885088Y-94474114D02*
X206929354Y-94377272D01*
X206929354Y-94377272D02*
X206975283Y-94328020D01*
X206975283Y-94328020D02*
X207068801Y-94277106D01*
X207068801Y-94277106D02*
X207354341Y-94267135D01*
X207354341Y-94267135D02*
X207451183Y-94311401D01*
X207451183Y-94311401D02*
X207500435Y-94357329D01*
X206009129Y-95314720D02*
X206485030Y-95298101D01*
X206485030Y-95298101D02*
X206516001Y-94820539D01*
X206516001Y-94820539D02*
X206470073Y-94869791D01*
X206470073Y-94869791D02*
X206376555Y-94920705D01*
X206376555Y-94920705D02*
X206138604Y-94929014D01*
X206138604Y-94929014D02*
X206041762Y-94884748D01*
X206041762Y-94884748D02*
X205992511Y-94838820D01*
X205992511Y-94838820D02*
X205941597Y-94745301D01*
X205941597Y-94745301D02*
X205933287Y-94507351D01*
X205933287Y-94507351D02*
X205977554Y-94410509D01*
X205977554Y-94410509D02*
X206023482Y-94361257D01*
X206023482Y-94361257D02*
X206117000Y-94310343D01*
X206117000Y-94310343D02*
X206354950Y-94302034D01*
X206354950Y-94302034D02*
X206451792Y-94346300D01*
X206451792Y-94346300D02*
X206501044Y-94392229D01*
X138402725Y-143453474D02*
X138377797Y-142739624D01*
X138377797Y-142739624D02*
X138420401Y-142595192D01*
X138420401Y-142595192D02*
X138512258Y-142496688D01*
X138512258Y-142496688D02*
X138653366Y-142444112D01*
X138653366Y-142444112D02*
X138748546Y-142440788D01*
X137891925Y-142470702D02*
X137926824Y-143470093D01*
X137926824Y-143470093D02*
X137546104Y-143483388D01*
X137546104Y-143483388D02*
X137449262Y-143439122D01*
X137449262Y-143439122D02*
X137400010Y-143393194D01*
X137400010Y-143393194D02*
X137349096Y-143299675D01*
X137349096Y-143299675D02*
X137344111Y-143156905D01*
X137344111Y-143156905D02*
X137388377Y-143060063D01*
X137388377Y-143060063D02*
X137434305Y-143010811D01*
X137434305Y-143010811D02*
X137527823Y-142959898D01*
X137527823Y-142959898D02*
X137908544Y-142946603D01*
X136369044Y-142523882D02*
X136940124Y-142503940D01*
X136654584Y-142513911D02*
X136689483Y-143513302D01*
X136689483Y-143513302D02*
X136779678Y-143367208D01*
X136779678Y-143367208D02*
X136871534Y-143268704D01*
X136871534Y-143268704D02*
X136965052Y-143217790D01*
X135785273Y-143544878D02*
X135690093Y-143548201D01*
X135690093Y-143548201D02*
X135593251Y-143503935D01*
X135593251Y-143503935D02*
X135543999Y-143458007D01*
X135543999Y-143458007D02*
X135493085Y-143364489D01*
X135493085Y-143364489D02*
X135438847Y-143175791D01*
X135438847Y-143175791D02*
X135430538Y-142937840D01*
X135430538Y-142937840D02*
X135471480Y-142745818D01*
X135471480Y-142745818D02*
X135515747Y-142648976D01*
X135515747Y-142648976D02*
X135561675Y-142599724D01*
X135561675Y-142599724D02*
X135655193Y-142548811D01*
X135655193Y-142548811D02*
X135750373Y-142545487D01*
X135750373Y-142545487D02*
X135847215Y-142589753D01*
X135847215Y-142589753D02*
X135896467Y-142635681D01*
X135896467Y-142635681D02*
X135947381Y-142729199D01*
X135947381Y-142729199D02*
X136001618Y-142917898D01*
X136001618Y-142917898D02*
X136009928Y-143155848D01*
X136009928Y-143155848D02*
X135968985Y-143347870D01*
X135968985Y-143347870D02*
X135924719Y-143444712D01*
X135924719Y-143444712D02*
X135878791Y-143493964D01*
X135878791Y-143493964D02*
X135785273Y-143544878D01*
X278931188Y-96720634D02*
X278906260Y-96006783D01*
X278906260Y-96006783D02*
X278948864Y-95862351D01*
X278948864Y-95862351D02*
X279040721Y-95763848D01*
X279040721Y-95763848D02*
X279181829Y-95711272D01*
X279181829Y-95711272D02*
X279277009Y-95707948D01*
X278420388Y-95737862D02*
X278455288Y-96737253D01*
X278455288Y-96737253D02*
X278074567Y-96750548D01*
X278074567Y-96750548D02*
X277977725Y-96706282D01*
X277977725Y-96706282D02*
X277928473Y-96660353D01*
X277928473Y-96660353D02*
X277877560Y-96566835D01*
X277877560Y-96566835D02*
X277872574Y-96424065D01*
X277872574Y-96424065D02*
X277916840Y-96327223D01*
X277916840Y-96327223D02*
X277962768Y-96277971D01*
X277962768Y-96277971D02*
X278056286Y-96227057D01*
X278056286Y-96227057D02*
X278437007Y-96213762D01*
X276897507Y-95791042D02*
X277468587Y-95771100D01*
X277183047Y-95781071D02*
X277217946Y-96780462D01*
X277217946Y-96780462D02*
X277308141Y-96634368D01*
X277308141Y-96634368D02*
X277399997Y-96535864D01*
X277399997Y-96535864D02*
X277493515Y-96484950D01*
X233126328Y-116124108D02*
X233101400Y-115410257D01*
X233101400Y-115410257D02*
X233144004Y-115265825D01*
X233144004Y-115265825D02*
X233235861Y-115167322D01*
X233235861Y-115167322D02*
X233376969Y-115114746D01*
X233376969Y-115114746D02*
X233472149Y-115111422D01*
X232615528Y-115141336D02*
X232650428Y-116140727D01*
X232650428Y-116140727D02*
X232269707Y-116154022D01*
X232269707Y-116154022D02*
X232172865Y-116109756D01*
X232172865Y-116109756D02*
X232123613Y-116063827D01*
X232123613Y-116063827D02*
X232072700Y-115970309D01*
X232072700Y-115970309D02*
X232067714Y-115827539D01*
X232067714Y-115827539D02*
X232111980Y-115730697D01*
X232111980Y-115730697D02*
X232157908Y-115681445D01*
X232157908Y-115681445D02*
X232251426Y-115630531D01*
X232251426Y-115630531D02*
X232632147Y-115617236D01*
X231211093Y-115857453D02*
X231187827Y-115191192D01*
X231462338Y-116229864D02*
X231675360Y-115507704D01*
X231675360Y-115507704D02*
X231056690Y-115529308D01*
X117196125Y-119278847D02*
X117171197Y-118564997D01*
X117171197Y-118564997D02*
X117213801Y-118420565D01*
X117213801Y-118420565D02*
X117305658Y-118322061D01*
X117305658Y-118322061D02*
X117446766Y-118269485D01*
X117446766Y-118269485D02*
X117541946Y-118266161D01*
X116685325Y-118296075D02*
X116720224Y-119295466D01*
X116720224Y-119295466D02*
X116339504Y-119308761D01*
X116339504Y-119308761D02*
X116242662Y-119264495D01*
X116242662Y-119264495D02*
X116193410Y-119218567D01*
X116193410Y-119218567D02*
X116142496Y-119125048D01*
X116142496Y-119125048D02*
X116137511Y-118982278D01*
X116137511Y-118982278D02*
X116181777Y-118885436D01*
X116181777Y-118885436D02*
X116227705Y-118836184D01*
X116227705Y-118836184D02*
X116321223Y-118785271D01*
X116321223Y-118785271D02*
X116701944Y-118771976D01*
X115280890Y-119012192D02*
X115257624Y-118345932D01*
X115532135Y-119384603D02*
X115745157Y-118662443D01*
X115745157Y-118662443D02*
X115126487Y-118684048D01*
X114210643Y-118382493D02*
X114781723Y-118362550D01*
X114496183Y-118372522D02*
X114531083Y-119371913D01*
X114531083Y-119371913D02*
X114621277Y-119225819D01*
X114621277Y-119225819D02*
X114713133Y-119127315D01*
X114713133Y-119127315D02*
X114806652Y-119076401D01*
X217562166Y-121720699D02*
X217537238Y-121006848D01*
X217537238Y-121006848D02*
X217579842Y-120862416D01*
X217579842Y-120862416D02*
X217671699Y-120763913D01*
X217671699Y-120763913D02*
X217812807Y-120711337D01*
X217812807Y-120711337D02*
X217907987Y-120708013D01*
X217051366Y-120737927D02*
X217086266Y-121737318D01*
X217086266Y-121737318D02*
X216705545Y-121750613D01*
X216705545Y-121750613D02*
X216608703Y-121706347D01*
X216608703Y-121706347D02*
X216559451Y-121660418D01*
X216559451Y-121660418D02*
X216508538Y-121566900D01*
X216508538Y-121566900D02*
X216503552Y-121424130D01*
X216503552Y-121424130D02*
X216547818Y-121327288D01*
X216547818Y-121327288D02*
X216593746Y-121278036D01*
X216593746Y-121278036D02*
X216687264Y-121227122D01*
X216687264Y-121227122D02*
X217067985Y-121213827D01*
X215610974Y-121788836D02*
X216086875Y-121772217D01*
X216086875Y-121772217D02*
X216117846Y-121294655D01*
X216117846Y-121294655D02*
X216071918Y-121343907D01*
X216071918Y-121343907D02*
X215978400Y-121394821D01*
X215978400Y-121394821D02*
X215740449Y-121403130D01*
X215740449Y-121403130D02*
X215643607Y-121358864D01*
X215643607Y-121358864D02*
X215594355Y-121312936D01*
X215594355Y-121312936D02*
X215543442Y-121219418D01*
X215543442Y-121219418D02*
X215535132Y-120981467D01*
X215535132Y-120981467D02*
X215579399Y-120884625D01*
X215579399Y-120884625D02*
X215625327Y-120835373D01*
X215625327Y-120835373D02*
X215718845Y-120784460D01*
X215718845Y-120784460D02*
X215956795Y-120776150D01*
X215956795Y-120776150D02*
X216053637Y-120820417D01*
X216053637Y-120820417D02*
X216102889Y-120866345D01*
X238580861Y-83770951D02*
X238555933Y-83057101D01*
X238555933Y-83057101D02*
X238598537Y-82912669D01*
X238598537Y-82912669D02*
X238690394Y-82814165D01*
X238690394Y-82814165D02*
X238831502Y-82761589D01*
X238831502Y-82761589D02*
X238926682Y-82758265D01*
X238070061Y-82788179D02*
X238104960Y-83787570D01*
X238104960Y-83787570D02*
X237724240Y-83800865D01*
X237724240Y-83800865D02*
X237627398Y-83756599D01*
X237627398Y-83756599D02*
X237578146Y-83710671D01*
X237578146Y-83710671D02*
X237527232Y-83617152D01*
X237527232Y-83617152D02*
X237522247Y-83474382D01*
X237522247Y-83474382D02*
X237566513Y-83377540D01*
X237566513Y-83377540D02*
X237612441Y-83328288D01*
X237612441Y-83328288D02*
X237705959Y-83277375D01*
X237705959Y-83277375D02*
X238086680Y-83264080D01*
X237200750Y-83819146D02*
X236582079Y-83840750D01*
X236582079Y-83840750D02*
X236901914Y-83448397D01*
X236901914Y-83448397D02*
X236759144Y-83453382D01*
X236759144Y-83453382D02*
X236662302Y-83409116D01*
X236662302Y-83409116D02*
X236613050Y-83363188D01*
X236613050Y-83363188D02*
X236562137Y-83269670D01*
X236562137Y-83269670D02*
X236553827Y-83031720D01*
X236553827Y-83031720D02*
X236598093Y-82934878D01*
X236598093Y-82934878D02*
X236644022Y-82885626D01*
X236644022Y-82885626D02*
X236737540Y-82834712D01*
X236737540Y-82834712D02*
X237023080Y-82824741D01*
X237023080Y-82824741D02*
X237119922Y-82869007D01*
X237119922Y-82869007D02*
X237169174Y-82914935D01*
X236248949Y-83852383D02*
X235630278Y-83873988D01*
X235630278Y-83873988D02*
X235950114Y-83481634D01*
X235950114Y-83481634D02*
X235807343Y-83486620D01*
X235807343Y-83486620D02*
X235710501Y-83442354D01*
X235710501Y-83442354D02*
X235661250Y-83396426D01*
X235661250Y-83396426D02*
X235610336Y-83302907D01*
X235610336Y-83302907D02*
X235602026Y-83064957D01*
X235602026Y-83064957D02*
X235646293Y-82968115D01*
X235646293Y-82968115D02*
X235692221Y-82918863D01*
X235692221Y-82918863D02*
X235785739Y-82867949D01*
X235785739Y-82867949D02*
X236071279Y-82857978D01*
X236071279Y-82857978D02*
X236168121Y-82902244D01*
X236168121Y-82902244D02*
X236217373Y-82948173D01*
X273611889Y-84048554D02*
X273586961Y-83334704D01*
X273586961Y-83334704D02*
X273629565Y-83190272D01*
X273629565Y-83190272D02*
X273721422Y-83091768D01*
X273721422Y-83091768D02*
X273862530Y-83039192D01*
X273862530Y-83039192D02*
X273957710Y-83035868D01*
X273101089Y-83065782D02*
X273135988Y-84065173D01*
X273135988Y-84065173D02*
X272755268Y-84078468D01*
X272755268Y-84078468D02*
X272658426Y-84034202D01*
X272658426Y-84034202D02*
X272609174Y-83988274D01*
X272609174Y-83988274D02*
X272558260Y-83894755D01*
X272558260Y-83894755D02*
X272553275Y-83751985D01*
X272553275Y-83751985D02*
X272597541Y-83655143D01*
X272597541Y-83655143D02*
X272643469Y-83605891D01*
X272643469Y-83605891D02*
X272736987Y-83554978D01*
X272736987Y-83554978D02*
X273117708Y-83541683D01*
X271578208Y-83118962D02*
X272149288Y-83099020D01*
X271863748Y-83108991D02*
X271898647Y-84108382D01*
X271898647Y-84108382D02*
X271988842Y-83962288D01*
X271988842Y-83962288D02*
X272080698Y-83863784D01*
X272080698Y-83863784D02*
X272174216Y-83812870D01*
X270756486Y-84148267D02*
X270946847Y-84141620D01*
X270946847Y-84141620D02*
X271040365Y-84090706D01*
X271040365Y-84090706D02*
X271086293Y-84041454D01*
X271086293Y-84041454D02*
X271176487Y-83895360D01*
X271176487Y-83895360D02*
X271217430Y-83703338D01*
X271217430Y-83703338D02*
X271204135Y-83322618D01*
X271204135Y-83322618D02*
X271153221Y-83229099D01*
X271153221Y-83229099D02*
X271103969Y-83183171D01*
X271103969Y-83183171D02*
X271007127Y-83138905D01*
X271007127Y-83138905D02*
X270816767Y-83145552D01*
X270816767Y-83145552D02*
X270723249Y-83196466D01*
X270723249Y-83196466D02*
X270677321Y-83245718D01*
X270677321Y-83245718D02*
X270633054Y-83342560D01*
X270633054Y-83342560D02*
X270641364Y-83580510D01*
X270641364Y-83580510D02*
X270692278Y-83674029D01*
X270692278Y-83674029D02*
X270741529Y-83719957D01*
X270741529Y-83719957D02*
X270838371Y-83764223D01*
X270838371Y-83764223D02*
X271028732Y-83757575D01*
X271028732Y-83757575D02*
X271122250Y-83706662D01*
X271122250Y-83706662D02*
X271168178Y-83657410D01*
X271168178Y-83657410D02*
X271212444Y-83560568D01*
X151415110Y-126388953D02*
X151390182Y-125675103D01*
X151390182Y-125675103D02*
X151432786Y-125530671D01*
X151432786Y-125530671D02*
X151524643Y-125432167D01*
X151524643Y-125432167D02*
X151665751Y-125379591D01*
X151665751Y-125379591D02*
X151760931Y-125376267D01*
X150904310Y-125406181D02*
X150939209Y-126405572D01*
X150939209Y-126405572D02*
X150558489Y-126418867D01*
X150558489Y-126418867D02*
X150461647Y-126374601D01*
X150461647Y-126374601D02*
X150412395Y-126328673D01*
X150412395Y-126328673D02*
X150361481Y-126235154D01*
X150361481Y-126235154D02*
X150356496Y-126092384D01*
X150356496Y-126092384D02*
X150400762Y-125995542D01*
X150400762Y-125995542D02*
X150446690Y-125946290D01*
X150446690Y-125946290D02*
X150540208Y-125895377D01*
X150540208Y-125895377D02*
X150920929Y-125882082D01*
X149984085Y-126343630D02*
X149938157Y-126392881D01*
X149938157Y-126392881D02*
X149844639Y-126443795D01*
X149844639Y-126443795D02*
X149606688Y-126452105D01*
X149606688Y-126452105D02*
X149509846Y-126407838D01*
X149509846Y-126407838D02*
X149460594Y-126361910D01*
X149460594Y-126361910D02*
X149409681Y-126268392D01*
X149409681Y-126268392D02*
X149406357Y-126173212D01*
X149406357Y-126173212D02*
X149448961Y-126028780D01*
X149448961Y-126028780D02*
X150000099Y-125437757D01*
X150000099Y-125437757D02*
X149381429Y-125459361D01*
X148548074Y-126155536D02*
X148524808Y-125489275D01*
X148799319Y-126527947D02*
X149012341Y-125805787D01*
X149012341Y-125805787D02*
X148393671Y-125827391D01*
X218912605Y-76546050D02*
X218887677Y-75832200D01*
X218887677Y-75832200D02*
X218930281Y-75687768D01*
X218930281Y-75687768D02*
X219022138Y-75589264D01*
X219022138Y-75589264D02*
X219163246Y-75536688D01*
X219163246Y-75536688D02*
X219258426Y-75533364D01*
X218401805Y-75563278D02*
X218436704Y-76562669D01*
X218436704Y-76562669D02*
X218055984Y-76575964D01*
X218055984Y-76575964D02*
X217959142Y-76531698D01*
X217959142Y-76531698D02*
X217909890Y-76485770D01*
X217909890Y-76485770D02*
X217858976Y-76392251D01*
X217858976Y-76392251D02*
X217853991Y-76249481D01*
X217853991Y-76249481D02*
X217898257Y-76152639D01*
X217898257Y-76152639D02*
X217944185Y-76103387D01*
X217944185Y-76103387D02*
X218037703Y-76052474D01*
X218037703Y-76052474D02*
X218418424Y-76039179D01*
X216997370Y-76279395D02*
X216974104Y-75613135D01*
X217248615Y-76651806D02*
X217461637Y-75929646D01*
X217461637Y-75929646D02*
X216842967Y-75951251D01*
X216403023Y-75633077D02*
X216212663Y-75639725D01*
X216212663Y-75639725D02*
X216119145Y-75690639D01*
X216119145Y-75690639D02*
X216073217Y-75739890D01*
X216073217Y-75739890D02*
X215983022Y-75885984D01*
X215983022Y-75885984D02*
X215942080Y-76078006D01*
X215942080Y-76078006D02*
X215955375Y-76458727D01*
X215955375Y-76458727D02*
X216006289Y-76552245D01*
X216006289Y-76552245D02*
X216055541Y-76598173D01*
X216055541Y-76598173D02*
X216152382Y-76642439D01*
X216152382Y-76642439D02*
X216342743Y-76635792D01*
X216342743Y-76635792D02*
X216436261Y-76584878D01*
X216436261Y-76584878D02*
X216482189Y-76535626D01*
X216482189Y-76535626D02*
X216526455Y-76438784D01*
X216526455Y-76438784D02*
X216518146Y-76200834D01*
X216518146Y-76200834D02*
X216467232Y-76107316D01*
X216467232Y-76107316D02*
X216417980Y-76061388D01*
X216417980Y-76061388D02*
X216321138Y-76017121D01*
X216321138Y-76017121D02*
X216130778Y-76023769D01*
X216130778Y-76023769D02*
X216037260Y-76074683D01*
X216037260Y-76074683D02*
X215991332Y-76123935D01*
X215991332Y-76123935D02*
X215947065Y-76220776D01*
X53152305Y-113410368D02*
X53127377Y-112696518D01*
X53127377Y-112696518D02*
X53169981Y-112552086D01*
X53169981Y-112552086D02*
X53261838Y-112453582D01*
X53261838Y-112453582D02*
X53402946Y-112401006D01*
X53402946Y-112401006D02*
X53498126Y-112397682D01*
X52641505Y-112427596D02*
X52676404Y-113426987D01*
X52676404Y-113426987D02*
X52295684Y-113440282D01*
X52295684Y-113440282D02*
X52198842Y-113396016D01*
X52198842Y-113396016D02*
X52149590Y-113350088D01*
X52149590Y-113350088D02*
X52098676Y-113256569D01*
X52098676Y-113256569D02*
X52093691Y-113113799D01*
X52093691Y-113113799D02*
X52137957Y-113016957D01*
X52137957Y-113016957D02*
X52183885Y-112967705D01*
X52183885Y-112967705D02*
X52277403Y-112916792D01*
X52277403Y-112916792D02*
X52658124Y-112903497D01*
X51248703Y-113476843D02*
X51439063Y-113470196D01*
X51439063Y-113470196D02*
X51532582Y-113419282D01*
X51532582Y-113419282D02*
X51578510Y-113370030D01*
X51578510Y-113370030D02*
X51668704Y-113223936D01*
X51668704Y-113223936D02*
X51709647Y-113031914D01*
X51709647Y-113031914D02*
X51696352Y-112651194D01*
X51696352Y-112651194D02*
X51645438Y-112557676D01*
X51645438Y-112557676D02*
X51596186Y-112511748D01*
X51596186Y-112511748D02*
X51499344Y-112467481D01*
X51499344Y-112467481D02*
X51308984Y-112474129D01*
X51308984Y-112474129D02*
X51215466Y-112525043D01*
X51215466Y-112525043D02*
X51169537Y-112574295D01*
X51169537Y-112574295D02*
X51125271Y-112671137D01*
X51125271Y-112671137D02*
X51133581Y-112909087D01*
X51133581Y-112909087D02*
X51184494Y-113002605D01*
X51184494Y-113002605D02*
X51233746Y-113048533D01*
X51233746Y-113048533D02*
X51330588Y-113092799D01*
X51330588Y-113092799D02*
X51520948Y-113086152D01*
X51520948Y-113086152D02*
X51614467Y-113035238D01*
X51614467Y-113035238D02*
X51660395Y-112985986D01*
X51660395Y-112985986D02*
X51704661Y-112889144D01*
X50534853Y-113501772D02*
X50439673Y-113505095D01*
X50439673Y-113505095D02*
X50342831Y-113460829D01*
X50342831Y-113460829D02*
X50293579Y-113414901D01*
X50293579Y-113414901D02*
X50242665Y-113321383D01*
X50242665Y-113321383D02*
X50188427Y-113132685D01*
X50188427Y-113132685D02*
X50180118Y-112894734D01*
X50180118Y-112894734D02*
X50221060Y-112702712D01*
X50221060Y-112702712D02*
X50265327Y-112605870D01*
X50265327Y-112605870D02*
X50311255Y-112556618D01*
X50311255Y-112556618D02*
X50404773Y-112505705D01*
X50404773Y-112505705D02*
X50499953Y-112502381D01*
X50499953Y-112502381D02*
X50596795Y-112546647D01*
X50596795Y-112546647D02*
X50646047Y-112592575D01*
X50646047Y-112592575D02*
X50696961Y-112686093D01*
X50696961Y-112686093D02*
X50751198Y-112874792D01*
X50751198Y-112874792D02*
X50759508Y-113112742D01*
X50759508Y-113112742D02*
X50718565Y-113304764D01*
X50718565Y-113304764D02*
X50674299Y-113401606D01*
X50674299Y-113401606D02*
X50628371Y-113450858D01*
X50628371Y-113450858D02*
X50534853Y-113501772D01*
X103561422Y-135714704D02*
X103536494Y-135000854D01*
X103536494Y-135000854D02*
X103579098Y-134856422D01*
X103579098Y-134856422D02*
X103670955Y-134757918D01*
X103670955Y-134757918D02*
X103812063Y-134705342D01*
X103812063Y-134705342D02*
X103907243Y-134702018D01*
X103050622Y-134731932D02*
X103085521Y-135731323D01*
X103085521Y-135731323D02*
X102704801Y-135744618D01*
X102704801Y-135744618D02*
X102607959Y-135700352D01*
X102607959Y-135700352D02*
X102558707Y-135654424D01*
X102558707Y-135654424D02*
X102507793Y-135560905D01*
X102507793Y-135560905D02*
X102502808Y-135418135D01*
X102502808Y-135418135D02*
X102547074Y-135321293D01*
X102547074Y-135321293D02*
X102593002Y-135272041D01*
X102593002Y-135272041D02*
X102686520Y-135221128D01*
X102686520Y-135221128D02*
X103067241Y-135207833D01*
X102130397Y-135669381D02*
X102084469Y-135718632D01*
X102084469Y-135718632D02*
X101990951Y-135769546D01*
X101990951Y-135769546D02*
X101753000Y-135777856D01*
X101753000Y-135777856D02*
X101656158Y-135733589D01*
X101656158Y-135733589D02*
X101606906Y-135687661D01*
X101606906Y-135687661D02*
X101555993Y-135594143D01*
X101555993Y-135594143D02*
X101552669Y-135498963D01*
X101552669Y-135498963D02*
X101595273Y-135354531D01*
X101595273Y-135354531D02*
X102146411Y-134763508D01*
X102146411Y-134763508D02*
X101527741Y-134785112D01*
X101229510Y-135796136D02*
X100563249Y-135819403D01*
X100563249Y-135819403D02*
X100956660Y-134805055D01*
X56356547Y-155023893D02*
X56331619Y-154310043D01*
X56331619Y-154310043D02*
X56374223Y-154165611D01*
X56374223Y-154165611D02*
X56466080Y-154067107D01*
X56466080Y-154067107D02*
X56607188Y-154014531D01*
X56607188Y-154014531D02*
X56702368Y-154011207D01*
X55845747Y-154041121D02*
X55880646Y-155040512D01*
X55880646Y-155040512D02*
X55499926Y-155053807D01*
X55499926Y-155053807D02*
X55403084Y-155009541D01*
X55403084Y-155009541D02*
X55353832Y-154963613D01*
X55353832Y-154963613D02*
X55302918Y-154870094D01*
X55302918Y-154870094D02*
X55297933Y-154727324D01*
X55297933Y-154727324D02*
X55342199Y-154630482D01*
X55342199Y-154630482D02*
X55388127Y-154581230D01*
X55388127Y-154581230D02*
X55481645Y-154530317D01*
X55481645Y-154530317D02*
X55862366Y-154517022D01*
X54322866Y-154094301D02*
X54893946Y-154074359D01*
X54608406Y-154084330D02*
X54643305Y-155083721D01*
X54643305Y-155083721D02*
X54733500Y-154937627D01*
X54733500Y-154937627D02*
X54825356Y-154839123D01*
X54825356Y-154839123D02*
X54918874Y-154788209D01*
X53453554Y-155125268D02*
X53929455Y-155108649D01*
X53929455Y-155108649D02*
X53960426Y-154631087D01*
X53960426Y-154631087D02*
X53914498Y-154680339D01*
X53914498Y-154680339D02*
X53820980Y-154731253D01*
X53820980Y-154731253D02*
X53583029Y-154739562D01*
X53583029Y-154739562D02*
X53486187Y-154695296D01*
X53486187Y-154695296D02*
X53436936Y-154649368D01*
X53436936Y-154649368D02*
X53386022Y-154555849D01*
X53386022Y-154555849D02*
X53377712Y-154317899D01*
X53377712Y-154317899D02*
X53421979Y-154221057D01*
X53421979Y-154221057D02*
X53467907Y-154171805D01*
X53467907Y-154171805D02*
X53561425Y-154120891D01*
X53561425Y-154120891D02*
X53799375Y-154112582D01*
X53799375Y-154112582D02*
X53896217Y-154156848D01*
X53896217Y-154156848D02*
X53945469Y-154202777D01*
X166986888Y-122443101D02*
X166961960Y-121729251D01*
X166961960Y-121729251D02*
X167004564Y-121584819D01*
X167004564Y-121584819D02*
X167096421Y-121486315D01*
X167096421Y-121486315D02*
X167237529Y-121433739D01*
X167237529Y-121433739D02*
X167332709Y-121430415D01*
X166476088Y-121460329D02*
X166510987Y-122459720D01*
X166510987Y-122459720D02*
X166130267Y-122473015D01*
X166130267Y-122473015D02*
X166033425Y-122428749D01*
X166033425Y-122428749D02*
X165984173Y-122382821D01*
X165984173Y-122382821D02*
X165933259Y-122289302D01*
X165933259Y-122289302D02*
X165928274Y-122146532D01*
X165928274Y-122146532D02*
X165972540Y-122049690D01*
X165972540Y-122049690D02*
X166018468Y-122000438D01*
X166018468Y-122000438D02*
X166111986Y-121949525D01*
X166111986Y-121949525D02*
X166492707Y-121936230D01*
X165555863Y-122397778D02*
X165509935Y-122447029D01*
X165509935Y-122447029D02*
X165416417Y-122497943D01*
X165416417Y-122497943D02*
X165178466Y-122506253D01*
X165178466Y-122506253D02*
X165081624Y-122461986D01*
X165081624Y-122461986D02*
X165032372Y-122416058D01*
X165032372Y-122416058D02*
X164981459Y-122322540D01*
X164981459Y-122322540D02*
X164978135Y-122227360D01*
X164978135Y-122227360D02*
X165020739Y-122082928D01*
X165020739Y-122082928D02*
X165571877Y-121491905D01*
X165571877Y-121491905D02*
X164953207Y-121513509D01*
X164654976Y-122524533D02*
X164036305Y-122546138D01*
X164036305Y-122546138D02*
X164356141Y-122153784D01*
X164356141Y-122153784D02*
X164213370Y-122158770D01*
X164213370Y-122158770D02*
X164116528Y-122114504D01*
X164116528Y-122114504D02*
X164067277Y-122068576D01*
X164067277Y-122068576D02*
X164016363Y-121975057D01*
X164016363Y-121975057D02*
X164008053Y-121737107D01*
X164008053Y-121737107D02*
X164052320Y-121640265D01*
X164052320Y-121640265D02*
X164098248Y-121591013D01*
X164098248Y-121591013D02*
X164191766Y-121540099D01*
X164191766Y-121540099D02*
X164477306Y-121530128D01*
X164477306Y-121530128D02*
X164574148Y-121574394D01*
X164574148Y-121574394D02*
X164623400Y-121620323D01*
X54336981Y-127277472D02*
X54312053Y-126563622D01*
X54312053Y-126563622D02*
X54354657Y-126419190D01*
X54354657Y-126419190D02*
X54446514Y-126320686D01*
X54446514Y-126320686D02*
X54587622Y-126268110D01*
X54587622Y-126268110D02*
X54682802Y-126264786D01*
X53826181Y-126294700D02*
X53861080Y-127294091D01*
X53861080Y-127294091D02*
X53480360Y-127307386D01*
X53480360Y-127307386D02*
X53383518Y-127263120D01*
X53383518Y-127263120D02*
X53334266Y-127217192D01*
X53334266Y-127217192D02*
X53283352Y-127123673D01*
X53283352Y-127123673D02*
X53278367Y-126980903D01*
X53278367Y-126980903D02*
X53322633Y-126884061D01*
X53322633Y-126884061D02*
X53368561Y-126834809D01*
X53368561Y-126834809D02*
X53462079Y-126783896D01*
X53462079Y-126783896D02*
X53842800Y-126770601D01*
X52421746Y-127010817D02*
X52398480Y-126344557D01*
X52672991Y-127383228D02*
X52886013Y-126661068D01*
X52886013Y-126661068D02*
X52267343Y-126682673D01*
X51433988Y-127378847D02*
X51909889Y-127362228D01*
X51909889Y-127362228D02*
X51940860Y-126884666D01*
X51940860Y-126884666D02*
X51894932Y-126933918D01*
X51894932Y-126933918D02*
X51801414Y-126984832D01*
X51801414Y-126984832D02*
X51563463Y-126993141D01*
X51563463Y-126993141D02*
X51466621Y-126948875D01*
X51466621Y-126948875D02*
X51417370Y-126902947D01*
X51417370Y-126902947D02*
X51366456Y-126809428D01*
X51366456Y-126809428D02*
X51358146Y-126571478D01*
X51358146Y-126571478D02*
X51402413Y-126474636D01*
X51402413Y-126474636D02*
X51448341Y-126425384D01*
X51448341Y-126425384D02*
X51541859Y-126374470D01*
X51541859Y-126374470D02*
X51779809Y-126366161D01*
X51779809Y-126366161D02*
X51876651Y-126410427D01*
X51876651Y-126410427D02*
X51925903Y-126456356D01*
X55430444Y-141397912D02*
X55405516Y-140684062D01*
X55405516Y-140684062D02*
X55448120Y-140539630D01*
X55448120Y-140539630D02*
X55539977Y-140441126D01*
X55539977Y-140441126D02*
X55681085Y-140388550D01*
X55681085Y-140388550D02*
X55776265Y-140385226D01*
X54919644Y-140415140D02*
X54954543Y-141414531D01*
X54954543Y-141414531D02*
X54573823Y-141427826D01*
X54573823Y-141427826D02*
X54476981Y-141383560D01*
X54476981Y-141383560D02*
X54427729Y-141337632D01*
X54427729Y-141337632D02*
X54376815Y-141244113D01*
X54376815Y-141244113D02*
X54371830Y-141101343D01*
X54371830Y-141101343D02*
X54416096Y-141004501D01*
X54416096Y-141004501D02*
X54462024Y-140955249D01*
X54462024Y-140955249D02*
X54555542Y-140904336D01*
X54555542Y-140904336D02*
X54936263Y-140891041D01*
X54050333Y-141446107D02*
X53431662Y-141467711D01*
X53431662Y-141467711D02*
X53751497Y-141075358D01*
X53751497Y-141075358D02*
X53608727Y-141080343D01*
X53608727Y-141080343D02*
X53511885Y-141036077D01*
X53511885Y-141036077D02*
X53462633Y-140990149D01*
X53462633Y-140990149D02*
X53411720Y-140896631D01*
X53411720Y-140896631D02*
X53403410Y-140658681D01*
X53403410Y-140658681D02*
X53447676Y-140561839D01*
X53447676Y-140561839D02*
X53493605Y-140512587D01*
X53493605Y-140512587D02*
X53587123Y-140461673D01*
X53587123Y-140461673D02*
X53872663Y-140451702D01*
X53872663Y-140451702D02*
X53969505Y-140495968D01*
X53969505Y-140495968D02*
X54018757Y-140541896D01*
X52812992Y-141489316D02*
X52717812Y-141492639D01*
X52717812Y-141492639D02*
X52620970Y-141448373D01*
X52620970Y-141448373D02*
X52571718Y-141402445D01*
X52571718Y-141402445D02*
X52520804Y-141308927D01*
X52520804Y-141308927D02*
X52466566Y-141120229D01*
X52466566Y-141120229D02*
X52458257Y-140882278D01*
X52458257Y-140882278D02*
X52499199Y-140690256D01*
X52499199Y-140690256D02*
X52543466Y-140593414D01*
X52543466Y-140593414D02*
X52589394Y-140544162D01*
X52589394Y-140544162D02*
X52682912Y-140493249D01*
X52682912Y-140493249D02*
X52778092Y-140489925D01*
X52778092Y-140489925D02*
X52874934Y-140534191D01*
X52874934Y-140534191D02*
X52924186Y-140580119D01*
X52924186Y-140580119D02*
X52975100Y-140673637D01*
X52975100Y-140673637D02*
X53029337Y-140862336D01*
X53029337Y-140862336D02*
X53037647Y-141100286D01*
X53037647Y-141100286D02*
X52996704Y-141292308D01*
X52996704Y-141292308D02*
X52952438Y-141389150D01*
X52952438Y-141389150D02*
X52906510Y-141438402D01*
X52906510Y-141438402D02*
X52812992Y-141489316D01*
X182640277Y-118087242D02*
X182615349Y-117373392D01*
X182615349Y-117373392D02*
X182657953Y-117228960D01*
X182657953Y-117228960D02*
X182749810Y-117130456D01*
X182749810Y-117130456D02*
X182890918Y-117077880D01*
X182890918Y-117077880D02*
X182986098Y-117074556D01*
X182129477Y-117104470D02*
X182164376Y-118103861D01*
X182164376Y-118103861D02*
X181783656Y-118117156D01*
X181783656Y-118117156D02*
X181686814Y-118072890D01*
X181686814Y-118072890D02*
X181637562Y-118026962D01*
X181637562Y-118026962D02*
X181586648Y-117933443D01*
X181586648Y-117933443D02*
X181581663Y-117790673D01*
X181581663Y-117790673D02*
X181625929Y-117693831D01*
X181625929Y-117693831D02*
X181671857Y-117644579D01*
X181671857Y-117644579D02*
X181765375Y-117593666D01*
X181765375Y-117593666D02*
X182146096Y-117580371D01*
X181209252Y-118041919D02*
X181163324Y-118091170D01*
X181163324Y-118091170D02*
X181069806Y-118142084D01*
X181069806Y-118142084D02*
X180831855Y-118150394D01*
X180831855Y-118150394D02*
X180735013Y-118106127D01*
X180735013Y-118106127D02*
X180685761Y-118060199D01*
X180685761Y-118060199D02*
X180634848Y-117966681D01*
X180634848Y-117966681D02*
X180631524Y-117871501D01*
X180631524Y-117871501D02*
X180674128Y-117727069D01*
X180674128Y-117727069D02*
X181225266Y-117136046D01*
X181225266Y-117136046D02*
X180606596Y-117157650D01*
X180257451Y-118075156D02*
X180211523Y-118124408D01*
X180211523Y-118124408D02*
X180118005Y-118175322D01*
X180118005Y-118175322D02*
X179880054Y-118183631D01*
X179880054Y-118183631D02*
X179783213Y-118139365D01*
X179783213Y-118139365D02*
X179733961Y-118093437D01*
X179733961Y-118093437D02*
X179683047Y-117999919D01*
X179683047Y-117999919D02*
X179679723Y-117904739D01*
X179679723Y-117904739D02*
X179722327Y-117760307D01*
X179722327Y-117760307D02*
X180273465Y-117169284D01*
X180273465Y-117169284D02*
X179654795Y-117190888D01*
X233380930Y-71087787D02*
X233356002Y-70373937D01*
X233356002Y-70373937D02*
X233398606Y-70229505D01*
X233398606Y-70229505D02*
X233490463Y-70131001D01*
X233490463Y-70131001D02*
X233631571Y-70078425D01*
X233631571Y-70078425D02*
X233726751Y-70075101D01*
X232870130Y-70105015D02*
X232905029Y-71104406D01*
X232905029Y-71104406D02*
X232524309Y-71117701D01*
X232524309Y-71117701D02*
X232427467Y-71073435D01*
X232427467Y-71073435D02*
X232378215Y-71027507D01*
X232378215Y-71027507D02*
X232327301Y-70933988D01*
X232327301Y-70933988D02*
X232322316Y-70791218D01*
X232322316Y-70791218D02*
X232366582Y-70694376D01*
X232366582Y-70694376D02*
X232412510Y-70645124D01*
X232412510Y-70645124D02*
X232506028Y-70594211D01*
X232506028Y-70594211D02*
X232886749Y-70580916D01*
X231465695Y-70821132D02*
X231442429Y-70154872D01*
X231716940Y-71193543D02*
X231929962Y-70471383D01*
X231929962Y-70471383D02*
X231311292Y-70492988D01*
X230796111Y-70749218D02*
X230892953Y-70793485D01*
X230892953Y-70793485D02*
X230942205Y-70839413D01*
X230942205Y-70839413D02*
X230993118Y-70932931D01*
X230993118Y-70932931D02*
X230994780Y-70980521D01*
X230994780Y-70980521D02*
X230950514Y-71077363D01*
X230950514Y-71077363D02*
X230904586Y-71126615D01*
X230904586Y-71126615D02*
X230811068Y-71177529D01*
X230811068Y-71177529D02*
X230620707Y-71184176D01*
X230620707Y-71184176D02*
X230523866Y-71139910D01*
X230523866Y-71139910D02*
X230474614Y-71093982D01*
X230474614Y-71093982D02*
X230423700Y-71000464D01*
X230423700Y-71000464D02*
X230422038Y-70952874D01*
X230422038Y-70952874D02*
X230466304Y-70856032D01*
X230466304Y-70856032D02*
X230512232Y-70806780D01*
X230512232Y-70806780D02*
X230605751Y-70755866D01*
X230605751Y-70755866D02*
X230796111Y-70749218D01*
X230796111Y-70749218D02*
X230889629Y-70698305D01*
X230889629Y-70698305D02*
X230935557Y-70649053D01*
X230935557Y-70649053D02*
X230979823Y-70552211D01*
X230979823Y-70552211D02*
X230973176Y-70361851D01*
X230973176Y-70361851D02*
X230922262Y-70268332D01*
X230922262Y-70268332D02*
X230873010Y-70222404D01*
X230873010Y-70222404D02*
X230776168Y-70178138D01*
X230776168Y-70178138D02*
X230585808Y-70184785D01*
X230585808Y-70184785D02*
X230492290Y-70235699D01*
X230492290Y-70235699D02*
X230446362Y-70284951D01*
X230446362Y-70284951D02*
X230402095Y-70381793D01*
X230402095Y-70381793D02*
X230408743Y-70572153D01*
X230408743Y-70572153D02*
X230459657Y-70665672D01*
X230459657Y-70665672D02*
X230508909Y-70711600D01*
X230508909Y-70711600D02*
X230605751Y-70755866D01*
X247532863Y-65047124D02*
X247507935Y-64333274D01*
X247507935Y-64333274D02*
X247550539Y-64188842D01*
X247550539Y-64188842D02*
X247642396Y-64090338D01*
X247642396Y-64090338D02*
X247783504Y-64037762D01*
X247783504Y-64037762D02*
X247878684Y-64034438D01*
X247022063Y-64064352D02*
X247056962Y-65063743D01*
X247056962Y-65063743D02*
X246676242Y-65077038D01*
X246676242Y-65077038D02*
X246579400Y-65032772D01*
X246579400Y-65032772D02*
X246530148Y-64986844D01*
X246530148Y-64986844D02*
X246479234Y-64893325D01*
X246479234Y-64893325D02*
X246474249Y-64750555D01*
X246474249Y-64750555D02*
X246518515Y-64653713D01*
X246518515Y-64653713D02*
X246564443Y-64604461D01*
X246564443Y-64604461D02*
X246657961Y-64553548D01*
X246657961Y-64553548D02*
X247038682Y-64540253D01*
X245617628Y-64780469D02*
X245594362Y-64114209D01*
X245868873Y-65152880D02*
X246081895Y-64430720D01*
X246081895Y-64430720D02*
X245463225Y-64452325D01*
X245200951Y-65128556D02*
X244534690Y-65151823D01*
X244534690Y-65151823D02*
X244928101Y-64137475D01*
X68700922Y-111666668D02*
X68675994Y-110952818D01*
X68675994Y-110952818D02*
X68718598Y-110808386D01*
X68718598Y-110808386D02*
X68810455Y-110709882D01*
X68810455Y-110709882D02*
X68951563Y-110657306D01*
X68951563Y-110657306D02*
X69046743Y-110653982D01*
X68190122Y-110683896D02*
X68225021Y-111683287D01*
X68225021Y-111683287D02*
X67844301Y-111696582D01*
X67844301Y-111696582D02*
X67747459Y-111652316D01*
X67747459Y-111652316D02*
X67698207Y-111606388D01*
X67698207Y-111606388D02*
X67647293Y-111512869D01*
X67647293Y-111512869D02*
X67642308Y-111370099D01*
X67642308Y-111370099D02*
X67686574Y-111273257D01*
X67686574Y-111273257D02*
X67732502Y-111224005D01*
X67732502Y-111224005D02*
X67826020Y-111173092D01*
X67826020Y-111173092D02*
X68206741Y-111159797D01*
X66749730Y-111734805D02*
X67225631Y-111718187D01*
X67225631Y-111718187D02*
X67256602Y-111240624D01*
X67256602Y-111240624D02*
X67210674Y-111289876D01*
X67210674Y-111289876D02*
X67117155Y-111340790D01*
X67117155Y-111340790D02*
X66879205Y-111349099D01*
X66879205Y-111349099D02*
X66782363Y-111304833D01*
X66782363Y-111304833D02*
X66733111Y-111258905D01*
X66733111Y-111258905D02*
X66682198Y-111165387D01*
X66682198Y-111165387D02*
X66673888Y-110927437D01*
X66673888Y-110927437D02*
X66718154Y-110830595D01*
X66718154Y-110830595D02*
X66764083Y-110781343D01*
X66764083Y-110781343D02*
X66857601Y-110730429D01*
X66857601Y-110730429D02*
X67095551Y-110722119D01*
X67095551Y-110722119D02*
X67192393Y-110766386D01*
X67192393Y-110766386D02*
X67241645Y-110812314D01*
X66191340Y-110753695D02*
X66000980Y-110760343D01*
X66000980Y-110760343D02*
X65907462Y-110811257D01*
X65907462Y-110811257D02*
X65861534Y-110860508D01*
X65861534Y-110860508D02*
X65771339Y-111006602D01*
X65771339Y-111006602D02*
X65730397Y-111198624D01*
X65730397Y-111198624D02*
X65743692Y-111579345D01*
X65743692Y-111579345D02*
X65794606Y-111672863D01*
X65794606Y-111672863D02*
X65843858Y-111718791D01*
X65843858Y-111718791D02*
X65940699Y-111763057D01*
X65940699Y-111763057D02*
X66131060Y-111756410D01*
X66131060Y-111756410D02*
X66224578Y-111705496D01*
X66224578Y-111705496D02*
X66270506Y-111656244D01*
X66270506Y-111656244D02*
X66314772Y-111559402D01*
X66314772Y-111559402D02*
X66306463Y-111321452D01*
X66306463Y-111321452D02*
X66255549Y-111227934D01*
X66255549Y-111227934D02*
X66206297Y-111182006D01*
X66206297Y-111182006D02*
X66109455Y-111137739D01*
X66109455Y-111137739D02*
X65919095Y-111144387D01*
X65919095Y-111144387D02*
X65825577Y-111195301D01*
X65825577Y-111195301D02*
X65779649Y-111244553D01*
X65779649Y-111244553D02*
X65735382Y-111341394D01*
X189554396Y-86733754D02*
X189529468Y-86019904D01*
X189529468Y-86019904D02*
X189572072Y-85875472D01*
X189572072Y-85875472D02*
X189663929Y-85776968D01*
X189663929Y-85776968D02*
X189805037Y-85724392D01*
X189805037Y-85724392D02*
X189900217Y-85721068D01*
X189043596Y-85750982D02*
X189078495Y-86750373D01*
X189078495Y-86750373D02*
X188697775Y-86763668D01*
X188697775Y-86763668D02*
X188600933Y-86719402D01*
X188600933Y-86719402D02*
X188551681Y-86673474D01*
X188551681Y-86673474D02*
X188500767Y-86579955D01*
X188500767Y-86579955D02*
X188495782Y-86437185D01*
X188495782Y-86437185D02*
X188540048Y-86340343D01*
X188540048Y-86340343D02*
X188585976Y-86291091D01*
X188585976Y-86291091D02*
X188679494Y-86240178D01*
X188679494Y-86240178D02*
X189060215Y-86226883D01*
X187603204Y-86801891D02*
X188079105Y-86785273D01*
X188079105Y-86785273D02*
X188110076Y-86307710D01*
X188110076Y-86307710D02*
X188064148Y-86356962D01*
X188064148Y-86356962D02*
X187970629Y-86407876D01*
X187970629Y-86407876D02*
X187732679Y-86416185D01*
X187732679Y-86416185D02*
X187635837Y-86371919D01*
X187635837Y-86371919D02*
X187586585Y-86325991D01*
X187586585Y-86325991D02*
X187535672Y-86232473D01*
X187535672Y-86232473D02*
X187527362Y-85994523D01*
X187527362Y-85994523D02*
X187571628Y-85897681D01*
X187571628Y-85897681D02*
X187617557Y-85848429D01*
X187617557Y-85848429D02*
X187711075Y-85797515D01*
X187711075Y-85797515D02*
X187949025Y-85789205D01*
X187949025Y-85789205D02*
X188045867Y-85833472D01*
X188045867Y-85833472D02*
X188095119Y-85879400D01*
X186568914Y-85837400D02*
X187139994Y-85817457D01*
X186854454Y-85827429D02*
X186889354Y-86826820D01*
X186889354Y-86826820D02*
X186979548Y-86680726D01*
X186979548Y-86680726D02*
X187071404Y-86582222D01*
X187071404Y-86582222D02*
X187164923Y-86531308D01*
X243891193Y-96986760D02*
X243866265Y-96272910D01*
X243866265Y-96272910D02*
X243908869Y-96128478D01*
X243908869Y-96128478D02*
X244000726Y-96029974D01*
X244000726Y-96029974D02*
X244141834Y-95977398D01*
X244141834Y-95977398D02*
X244237014Y-95974074D01*
X243380393Y-96003988D02*
X243415292Y-97003379D01*
X243415292Y-97003379D02*
X243034572Y-97016674D01*
X243034572Y-97016674D02*
X242937730Y-96972408D01*
X242937730Y-96972408D02*
X242888478Y-96926480D01*
X242888478Y-96926480D02*
X242837564Y-96832961D01*
X242837564Y-96832961D02*
X242832579Y-96690191D01*
X242832579Y-96690191D02*
X242876845Y-96593349D01*
X242876845Y-96593349D02*
X242922773Y-96544097D01*
X242922773Y-96544097D02*
X243016291Y-96493184D01*
X243016291Y-96493184D02*
X243397012Y-96479889D01*
X241857512Y-96057168D02*
X242428592Y-96037226D01*
X242143052Y-96047197D02*
X242177951Y-97046588D01*
X242177951Y-97046588D02*
X242268146Y-96900494D01*
X242268146Y-96900494D02*
X242360002Y-96801990D01*
X242360002Y-96801990D02*
X242453520Y-96751076D01*
X241306374Y-96648191D02*
X241403216Y-96692458D01*
X241403216Y-96692458D02*
X241452468Y-96738386D01*
X241452468Y-96738386D02*
X241503381Y-96831904D01*
X241503381Y-96831904D02*
X241505043Y-96879494D01*
X241505043Y-96879494D02*
X241460777Y-96976336D01*
X241460777Y-96976336D02*
X241414849Y-97025588D01*
X241414849Y-97025588D02*
X241321331Y-97076502D01*
X241321331Y-97076502D02*
X241130970Y-97083149D01*
X241130970Y-97083149D02*
X241034129Y-97038883D01*
X241034129Y-97038883D02*
X240984877Y-96992955D01*
X240984877Y-96992955D02*
X240933963Y-96899437D01*
X240933963Y-96899437D02*
X240932301Y-96851847D01*
X240932301Y-96851847D02*
X240976567Y-96755005D01*
X240976567Y-96755005D02*
X241022495Y-96705753D01*
X241022495Y-96705753D02*
X241116014Y-96654839D01*
X241116014Y-96654839D02*
X241306374Y-96648191D01*
X241306374Y-96648191D02*
X241399892Y-96597278D01*
X241399892Y-96597278D02*
X241445820Y-96548026D01*
X241445820Y-96548026D02*
X241490086Y-96451184D01*
X241490086Y-96451184D02*
X241483439Y-96260824D01*
X241483439Y-96260824D02*
X241432525Y-96167305D01*
X241432525Y-96167305D02*
X241383273Y-96121377D01*
X241383273Y-96121377D02*
X241286431Y-96077111D01*
X241286431Y-96077111D02*
X241096071Y-96083758D01*
X241096071Y-96083758D02*
X241002553Y-96134672D01*
X241002553Y-96134672D02*
X240956625Y-96183924D01*
X240956625Y-96183924D02*
X240912358Y-96280766D01*
X240912358Y-96280766D02*
X240919006Y-96471126D01*
X240919006Y-96471126D02*
X240969920Y-96564645D01*
X240969920Y-96564645D02*
X241019172Y-96610573D01*
X241019172Y-96610573D02*
X241116014Y-96654839D01*
X129967386Y-102472898D02*
X129942458Y-101759048D01*
X129942458Y-101759048D02*
X129985062Y-101614616D01*
X129985062Y-101614616D02*
X130076919Y-101516112D01*
X130076919Y-101516112D02*
X130218027Y-101463536D01*
X130218027Y-101463536D02*
X130313207Y-101460212D01*
X129456586Y-101490126D02*
X129491485Y-102489517D01*
X129491485Y-102489517D02*
X129110765Y-102502812D01*
X129110765Y-102502812D02*
X129013923Y-102458546D01*
X129013923Y-102458546D02*
X128964671Y-102412618D01*
X128964671Y-102412618D02*
X128913757Y-102319099D01*
X128913757Y-102319099D02*
X128908772Y-102176329D01*
X128908772Y-102176329D02*
X128953038Y-102079487D01*
X128953038Y-102079487D02*
X128998966Y-102030235D01*
X128998966Y-102030235D02*
X129092484Y-101979322D01*
X129092484Y-101979322D02*
X129473205Y-101966027D01*
X128016194Y-102541035D02*
X128492095Y-102524417D01*
X128492095Y-102524417D02*
X128523066Y-102046854D01*
X128523066Y-102046854D02*
X128477138Y-102096106D01*
X128477138Y-102096106D02*
X128383619Y-102147020D01*
X128383619Y-102147020D02*
X128145669Y-102155329D01*
X128145669Y-102155329D02*
X128048827Y-102111063D01*
X128048827Y-102111063D02*
X127999575Y-102065135D01*
X127999575Y-102065135D02*
X127948662Y-101971617D01*
X127948662Y-101971617D02*
X127940352Y-101733667D01*
X127940352Y-101733667D02*
X127984618Y-101636825D01*
X127984618Y-101636825D02*
X128030547Y-101587573D01*
X128030547Y-101587573D02*
X128124065Y-101536659D01*
X128124065Y-101536659D02*
X128362015Y-101528349D01*
X128362015Y-101528349D02*
X128458857Y-101572616D01*
X128458857Y-101572616D02*
X128508109Y-101618544D01*
X127064393Y-102574273D02*
X127540294Y-102557654D01*
X127540294Y-102557654D02*
X127571265Y-102080092D01*
X127571265Y-102080092D02*
X127525337Y-102129344D01*
X127525337Y-102129344D02*
X127431819Y-102180258D01*
X127431819Y-102180258D02*
X127193868Y-102188567D01*
X127193868Y-102188567D02*
X127097026Y-102144301D01*
X127097026Y-102144301D02*
X127047775Y-102098373D01*
X127047775Y-102098373D02*
X126996861Y-102004854D01*
X126996861Y-102004854D02*
X126988551Y-101766904D01*
X126988551Y-101766904D02*
X127032818Y-101670062D01*
X127032818Y-101670062D02*
X127078746Y-101620810D01*
X127078746Y-101620810D02*
X127172264Y-101569896D01*
X127172264Y-101569896D02*
X127410214Y-101561587D01*
X127410214Y-101561587D02*
X127507056Y-101605853D01*
X127507056Y-101605853D02*
X127556308Y-101651782D01*
X119473152Y-132907683D02*
X119448224Y-132193833D01*
X119448224Y-132193833D02*
X119490828Y-132049401D01*
X119490828Y-132049401D02*
X119582685Y-131950897D01*
X119582685Y-131950897D02*
X119723793Y-131898321D01*
X119723793Y-131898321D02*
X119818973Y-131894997D01*
X118962352Y-131924911D02*
X118997251Y-132924302D01*
X118997251Y-132924302D02*
X118616531Y-132937597D01*
X118616531Y-132937597D02*
X118519689Y-132893331D01*
X118519689Y-132893331D02*
X118470437Y-132847403D01*
X118470437Y-132847403D02*
X118419523Y-132753884D01*
X118419523Y-132753884D02*
X118414538Y-132611114D01*
X118414538Y-132611114D02*
X118458804Y-132514272D01*
X118458804Y-132514272D02*
X118504732Y-132465020D01*
X118504732Y-132465020D02*
X118598250Y-132414107D01*
X118598250Y-132414107D02*
X118978971Y-132400812D01*
X118042127Y-132862360D02*
X117996199Y-132911611D01*
X117996199Y-132911611D02*
X117902681Y-132962525D01*
X117902681Y-132962525D02*
X117664730Y-132970835D01*
X117664730Y-132970835D02*
X117567888Y-132926568D01*
X117567888Y-132926568D02*
X117518636Y-132880640D01*
X117518636Y-132880640D02*
X117467723Y-132787122D01*
X117467723Y-132787122D02*
X117464399Y-132691942D01*
X117464399Y-132691942D02*
X117507003Y-132547510D01*
X117507003Y-132547510D02*
X118058141Y-131956487D01*
X118058141Y-131956487D02*
X117439471Y-131978091D01*
X116617749Y-133007396D02*
X116808110Y-133000749D01*
X116808110Y-133000749D02*
X116901628Y-132949835D01*
X116901628Y-132949835D02*
X116947556Y-132900583D01*
X116947556Y-132900583D02*
X117037750Y-132754489D01*
X117037750Y-132754489D02*
X117078693Y-132562467D01*
X117078693Y-132562467D02*
X117065398Y-132181747D01*
X117065398Y-132181747D02*
X117014484Y-132088228D01*
X117014484Y-132088228D02*
X116965232Y-132042300D01*
X116965232Y-132042300D02*
X116868390Y-131998034D01*
X116868390Y-131998034D02*
X116678030Y-132004681D01*
X116678030Y-132004681D02*
X116584512Y-132055595D01*
X116584512Y-132055595D02*
X116538584Y-132104847D01*
X116538584Y-132104847D02*
X116494317Y-132201689D01*
X116494317Y-132201689D02*
X116502627Y-132439639D01*
X116502627Y-132439639D02*
X116553541Y-132533158D01*
X116553541Y-132533158D02*
X116602792Y-132579086D01*
X116602792Y-132579086D02*
X116699634Y-132623352D01*
X116699634Y-132623352D02*
X116889995Y-132616704D01*
X116889995Y-132616704D02*
X116983513Y-132565791D01*
X116983513Y-132565791D02*
X117029441Y-132516539D01*
X117029441Y-132516539D02*
X117073707Y-132419697D01*
X101473805Y-121779072D02*
X101448877Y-121065222D01*
X101448877Y-121065222D02*
X101491481Y-120920790D01*
X101491481Y-120920790D02*
X101583338Y-120822286D01*
X101583338Y-120822286D02*
X101724446Y-120769710D01*
X101724446Y-120769710D02*
X101819626Y-120766386D01*
X100963005Y-120796300D02*
X100997904Y-121795691D01*
X100997904Y-121795691D02*
X100617184Y-121808986D01*
X100617184Y-121808986D02*
X100520342Y-121764720D01*
X100520342Y-121764720D02*
X100471090Y-121718792D01*
X100471090Y-121718792D02*
X100420176Y-121625273D01*
X100420176Y-121625273D02*
X100415191Y-121482503D01*
X100415191Y-121482503D02*
X100459457Y-121385661D01*
X100459457Y-121385661D02*
X100505385Y-121336409D01*
X100505385Y-121336409D02*
X100598903Y-121285496D01*
X100598903Y-121285496D02*
X100979624Y-121272201D01*
X99558570Y-121512417D02*
X99535304Y-120846157D01*
X99809815Y-121884828D02*
X100022837Y-121162668D01*
X100022837Y-121162668D02*
X99404167Y-121184273D01*
X99090979Y-121766986D02*
X99045051Y-121816238D01*
X99045051Y-121816238D02*
X98951533Y-121867152D01*
X98951533Y-121867152D02*
X98713582Y-121875461D01*
X98713582Y-121875461D02*
X98616741Y-121831195D01*
X98616741Y-121831195D02*
X98567489Y-121785267D01*
X98567489Y-121785267D02*
X98516575Y-121691749D01*
X98516575Y-121691749D02*
X98513251Y-121596569D01*
X98513251Y-121596569D02*
X98555855Y-121452137D01*
X98555855Y-121452137D02*
X99106993Y-120861114D01*
X99106993Y-120861114D02*
X98488323Y-120882718D01*
X228790716Y-102967404D02*
X228765788Y-102253554D01*
X228765788Y-102253554D02*
X228808392Y-102109122D01*
X228808392Y-102109122D02*
X228900249Y-102010618D01*
X228900249Y-102010618D02*
X229041357Y-101958042D01*
X229041357Y-101958042D02*
X229136537Y-101954718D01*
X228279916Y-101984632D02*
X228314815Y-102984023D01*
X228314815Y-102984023D02*
X227934095Y-102997318D01*
X227934095Y-102997318D02*
X227837253Y-102953052D01*
X227837253Y-102953052D02*
X227788001Y-102907124D01*
X227788001Y-102907124D02*
X227737087Y-102813605D01*
X227737087Y-102813605D02*
X227732102Y-102670835D01*
X227732102Y-102670835D02*
X227776368Y-102573993D01*
X227776368Y-102573993D02*
X227822296Y-102524741D01*
X227822296Y-102524741D02*
X227915814Y-102473828D01*
X227915814Y-102473828D02*
X228296535Y-102460533D01*
X226757035Y-102037812D02*
X227328115Y-102017870D01*
X227042575Y-102027841D02*
X227077474Y-103027232D01*
X227077474Y-103027232D02*
X227167669Y-102881138D01*
X227167669Y-102881138D02*
X227259525Y-102782634D01*
X227259525Y-102782634D02*
X227353043Y-102731720D01*
X226281134Y-102054431D02*
X226090774Y-102061079D01*
X226090774Y-102061079D02*
X225997256Y-102111993D01*
X225997256Y-102111993D02*
X225951328Y-102161244D01*
X225951328Y-102161244D02*
X225861133Y-102307338D01*
X225861133Y-102307338D02*
X225820191Y-102499360D01*
X225820191Y-102499360D02*
X225833486Y-102880081D01*
X225833486Y-102880081D02*
X225884400Y-102973599D01*
X225884400Y-102973599D02*
X225933652Y-103019527D01*
X225933652Y-103019527D02*
X226030493Y-103063793D01*
X226030493Y-103063793D02*
X226220854Y-103057146D01*
X226220854Y-103057146D02*
X226314372Y-103006232D01*
X226314372Y-103006232D02*
X226360300Y-102956980D01*
X226360300Y-102956980D02*
X226404566Y-102860138D01*
X226404566Y-102860138D02*
X226396257Y-102622188D01*
X226396257Y-102622188D02*
X226345343Y-102528670D01*
X226345343Y-102528670D02*
X226296091Y-102482742D01*
X226296091Y-102482742D02*
X226199249Y-102438475D01*
X226199249Y-102438475D02*
X226008889Y-102445123D01*
X226008889Y-102445123D02*
X225915371Y-102496037D01*
X225915371Y-102496037D02*
X225869443Y-102545289D01*
X225869443Y-102545289D02*
X225825176Y-102642130D01*
X267665904Y-71491505D02*
X267640976Y-70777655D01*
X267640976Y-70777655D02*
X267683580Y-70633223D01*
X267683580Y-70633223D02*
X267775437Y-70534719D01*
X267775437Y-70534719D02*
X267916545Y-70482143D01*
X267916545Y-70482143D02*
X268011725Y-70478819D01*
X267155104Y-70508733D02*
X267190003Y-71508124D01*
X267190003Y-71508124D02*
X266809283Y-71521419D01*
X266809283Y-71521419D02*
X266712441Y-71477153D01*
X266712441Y-71477153D02*
X266663189Y-71431225D01*
X266663189Y-71431225D02*
X266612275Y-71337706D01*
X266612275Y-71337706D02*
X266607290Y-71194936D01*
X266607290Y-71194936D02*
X266651556Y-71098094D01*
X266651556Y-71098094D02*
X266697484Y-71048842D01*
X266697484Y-71048842D02*
X266791002Y-70997929D01*
X266791002Y-70997929D02*
X267171723Y-70984634D01*
X266285793Y-71539700D02*
X265667122Y-71561304D01*
X265667122Y-71561304D02*
X265986957Y-71168951D01*
X265986957Y-71168951D02*
X265844187Y-71173936D01*
X265844187Y-71173936D02*
X265747345Y-71129670D01*
X265747345Y-71129670D02*
X265698093Y-71083742D01*
X265698093Y-71083742D02*
X265647180Y-70990224D01*
X265647180Y-70990224D02*
X265638870Y-70752274D01*
X265638870Y-70752274D02*
X265683136Y-70655432D01*
X265683136Y-70655432D02*
X265729065Y-70606180D01*
X265729065Y-70606180D02*
X265822583Y-70555266D01*
X265822583Y-70555266D02*
X266108123Y-70545295D01*
X266108123Y-70545295D02*
X266204965Y-70589561D01*
X266204965Y-70589561D02*
X266254217Y-70635489D01*
X264680422Y-70595151D02*
X265251502Y-70575208D01*
X264965962Y-70585180D02*
X265000862Y-71584571D01*
X265000862Y-71584571D02*
X265091056Y-71438477D01*
X265091056Y-71438477D02*
X265182912Y-71339973D01*
X265182912Y-71339973D02*
X265276431Y-71289059D01*
X132745853Y-116134254D02*
X132720925Y-115420404D01*
X132720925Y-115420404D02*
X132763529Y-115275972D01*
X132763529Y-115275972D02*
X132855386Y-115177468D01*
X132855386Y-115177468D02*
X132996494Y-115124892D01*
X132996494Y-115124892D02*
X133091674Y-115121568D01*
X132235053Y-115151482D02*
X132269952Y-116150873D01*
X132269952Y-116150873D02*
X131889232Y-116164168D01*
X131889232Y-116164168D02*
X131792390Y-116119902D01*
X131792390Y-116119902D02*
X131743138Y-116073974D01*
X131743138Y-116073974D02*
X131692224Y-115980455D01*
X131692224Y-115980455D02*
X131687239Y-115837685D01*
X131687239Y-115837685D02*
X131731505Y-115740843D01*
X131731505Y-115740843D02*
X131777433Y-115691591D01*
X131777433Y-115691591D02*
X131870951Y-115640678D01*
X131870951Y-115640678D02*
X132251672Y-115627383D01*
X130830618Y-115867599D02*
X130807352Y-115201339D01*
X131081863Y-116240010D02*
X131294885Y-115517850D01*
X131294885Y-115517850D02*
X130676215Y-115539455D01*
X130128401Y-116225658D02*
X130033221Y-116228981D01*
X130033221Y-116228981D02*
X129936379Y-116184715D01*
X129936379Y-116184715D02*
X129887127Y-116138787D01*
X129887127Y-116138787D02*
X129836213Y-116045269D01*
X129836213Y-116045269D02*
X129781975Y-115856571D01*
X129781975Y-115856571D02*
X129773666Y-115618620D01*
X129773666Y-115618620D02*
X129814608Y-115426598D01*
X129814608Y-115426598D02*
X129858875Y-115329756D01*
X129858875Y-115329756D02*
X129904803Y-115280504D01*
X129904803Y-115280504D02*
X129998321Y-115229591D01*
X129998321Y-115229591D02*
X130093501Y-115226267D01*
X130093501Y-115226267D02*
X130190343Y-115270533D01*
X130190343Y-115270533D02*
X130239595Y-115316461D01*
X130239595Y-115316461D02*
X130290509Y-115409979D01*
X130290509Y-115409979D02*
X130344746Y-115598678D01*
X130344746Y-115598678D02*
X130353056Y-115836628D01*
X130353056Y-115836628D02*
X130312113Y-116028650D01*
X130312113Y-116028650D02*
X130267847Y-116125492D01*
X130267847Y-116125492D02*
X130221919Y-116174744D01*
X130221919Y-116174744D02*
X130128401Y-116225658D01*
X263863867Y-103650697D02*
X263838939Y-102936846D01*
X263838939Y-102936846D02*
X263881543Y-102792414D01*
X263881543Y-102792414D02*
X263973400Y-102693911D01*
X263973400Y-102693911D02*
X264114508Y-102641335D01*
X264114508Y-102641335D02*
X264209688Y-102638011D01*
X263353067Y-102667925D02*
X263387967Y-103667316D01*
X263387967Y-103667316D02*
X263007246Y-103680611D01*
X263007246Y-103680611D02*
X262910404Y-103636345D01*
X262910404Y-103636345D02*
X262861152Y-103590416D01*
X262861152Y-103590416D02*
X262810239Y-103496898D01*
X262810239Y-103496898D02*
X262805253Y-103354128D01*
X262805253Y-103354128D02*
X262849519Y-103257286D01*
X262849519Y-103257286D02*
X262895447Y-103208034D01*
X262895447Y-103208034D02*
X262988965Y-103157120D01*
X262988965Y-103157120D02*
X263369686Y-103143825D01*
X262432842Y-103605373D02*
X262386914Y-103654625D01*
X262386914Y-103654625D02*
X262293396Y-103705539D01*
X262293396Y-103705539D02*
X262055445Y-103713848D01*
X262055445Y-103713848D02*
X261958603Y-103669582D01*
X261958603Y-103669582D02*
X261909352Y-103623654D01*
X261909352Y-103623654D02*
X261858438Y-103530136D01*
X261858438Y-103530136D02*
X261855114Y-103434956D01*
X261855114Y-103434956D02*
X261897718Y-103290524D01*
X261897718Y-103290524D02*
X262448856Y-102699501D01*
X262448856Y-102699501D02*
X261830186Y-102721105D01*
X170131078Y-135984710D02*
X170106150Y-135270859D01*
X170106150Y-135270859D02*
X170148754Y-135126427D01*
X170148754Y-135126427D02*
X170240611Y-135027924D01*
X170240611Y-135027924D02*
X170381719Y-134975348D01*
X170381719Y-134975348D02*
X170476899Y-134972024D01*
X169620278Y-135001938D02*
X169655178Y-136001329D01*
X169655178Y-136001329D02*
X169274457Y-136014624D01*
X169274457Y-136014624D02*
X169177615Y-135970358D01*
X169177615Y-135970358D02*
X169128363Y-135924429D01*
X169128363Y-135924429D02*
X169077450Y-135830911D01*
X169077450Y-135830911D02*
X169072464Y-135688141D01*
X169072464Y-135688141D02*
X169116730Y-135591299D01*
X169116730Y-135591299D02*
X169162658Y-135542047D01*
X169162658Y-135542047D02*
X169256176Y-135491133D01*
X169256176Y-135491133D02*
X169636897Y-135477838D01*
X168498060Y-135612904D02*
X168594902Y-135657170D01*
X168594902Y-135657170D02*
X168644154Y-135703098D01*
X168644154Y-135703098D02*
X168695067Y-135796616D01*
X168695067Y-135796616D02*
X168696729Y-135844206D01*
X168696729Y-135844206D02*
X168652463Y-135941048D01*
X168652463Y-135941048D02*
X168606535Y-135990300D01*
X168606535Y-135990300D02*
X168513017Y-136041214D01*
X168513017Y-136041214D02*
X168322656Y-136047861D01*
X168322656Y-136047861D02*
X168225814Y-136003595D01*
X168225814Y-136003595D02*
X168176563Y-135957667D01*
X168176563Y-135957667D02*
X168125649Y-135864149D01*
X168125649Y-135864149D02*
X168123987Y-135816559D01*
X168123987Y-135816559D02*
X168168253Y-135719717D01*
X168168253Y-135719717D02*
X168214181Y-135670465D01*
X168214181Y-135670465D02*
X168307699Y-135619551D01*
X168307699Y-135619551D02*
X168498060Y-135612904D01*
X168498060Y-135612904D02*
X168591578Y-135561990D01*
X168591578Y-135561990D02*
X168637506Y-135512738D01*
X168637506Y-135512738D02*
X168681772Y-135415896D01*
X168681772Y-135415896D02*
X168675125Y-135225536D01*
X168675125Y-135225536D02*
X168624211Y-135132018D01*
X168624211Y-135132018D02*
X168574959Y-135086089D01*
X168574959Y-135086089D02*
X168478117Y-135041823D01*
X168478117Y-135041823D02*
X168287757Y-135048471D01*
X168287757Y-135048471D02*
X168194239Y-135099384D01*
X168194239Y-135099384D02*
X168148311Y-135148636D01*
X168148311Y-135148636D02*
X168104044Y-135245478D01*
X168104044Y-135245478D02*
X168110692Y-135435838D01*
X168110692Y-135435838D02*
X168161606Y-135529357D01*
X168161606Y-135529357D02*
X168210858Y-135575285D01*
X168210858Y-135575285D02*
X168307699Y-135619551D01*
M02*
