%TF.GenerationSoftware,KiCad,Pcbnew,10.0.2*%
%TF.CreationDate,2026-06-12T08:37:29-05:00*%
%TF.ProjectId,OM-FlexGrid-Flex,4f4d2d46-6c65-4784-9772-69642d466c65,rev?*%
%TF.SameCoordinates,Original*%
%TF.FileFunction,Profile,NP*%
%FSLAX46Y46*%
G04 Gerber Fmt 4.6, Leading zero omitted, Abs format (unit mm)*
G04 Created by KiCad (PCBNEW 10.0.2) date 2026-06-12 08:37:29*
%MOMM*%
%LPD*%
G01*
G04 APERTURE LIST*
%TA.AperFunction,Profile*%
%ADD10C,0.099999*%
%TD*%
G04 APERTURE END LIST*
D10*
X292989110Y-91077517D02*
X292992111Y-91139521D01*
X292994333Y-91201571D01*
X292995784Y-91263633D01*
X292996466Y-91325711D01*
X292996376Y-91387795D01*
X292995523Y-91449868D01*
X292993889Y-91511935D01*
X292991492Y-91573968D01*
X292988321Y-91635980D01*
X292984378Y-91697933D01*
X292979668Y-91759841D01*
X292974192Y-91821676D01*
X292967951Y-91883441D01*
X292960934Y-91945132D01*
X292953159Y-92006727D01*
X292944619Y-92068219D01*
X292935319Y-92129605D01*
X292925250Y-92190862D01*
X292914421Y-92251996D01*
X292902843Y-92312990D01*
X292890506Y-92373835D01*
X292877406Y-92434516D01*
X292863564Y-92495038D01*
X292848960Y-92555382D01*
X292833614Y-92615542D01*
X292817524Y-92675503D01*
X292800691Y-92735263D01*
X292783113Y-92794804D01*
X292764801Y-92854127D01*
X292745754Y-92913216D01*
X292725979Y-92972067D01*
X292705468Y-93030655D01*
X292684230Y-93088998D01*
X292662273Y-93147069D01*
X292639599Y-93204862D01*
X292616205Y-93262367D01*
X292592094Y-93319586D01*
X292567283Y-93376490D01*
X292541770Y-93433094D01*
X292515547Y-93489369D01*
X292488632Y-93545304D01*
X292461024Y-93600914D01*
X292432725Y-93656173D01*
X292403742Y-93711073D01*
X292374087Y-93765621D01*
X292343748Y-93819781D01*
X292312743Y-93873576D01*
X292281074Y-93926967D01*
X292248739Y-93979972D01*
X292215749Y-94032558D01*
X292182112Y-94084740D01*
X292147838Y-94136500D01*
X292112906Y-94187832D01*
X292077357Y-94238723D01*
X292041168Y-94289168D01*
X292004352Y-94339170D01*
X291966925Y-94388696D01*
X291928890Y-94437759D01*
X291890244Y-94486351D01*
X291850989Y-94534459D01*
X291811151Y-94582068D01*
X291770721Y-94629185D01*
X291729711Y-94675798D01*
X291688126Y-94721890D01*
X291645970Y-94767468D01*
X291603251Y-94812506D01*
X291559976Y-94857021D01*
X291516151Y-94901005D01*
X291471789Y-94944432D01*
X291426883Y-94987303D01*
X291381451Y-95029616D01*
X291335493Y-95071361D01*
X291289032Y-95112530D01*
X291242051Y-95153123D01*
X291194575Y-95193129D01*
X291146611Y-95232534D01*
X291098151Y-95271348D01*
X291049221Y-95309559D01*
X290999815Y-95347164D01*
X290949950Y-95384139D01*
X290899637Y-95420510D01*
X290848863Y-95456236D01*
X290797650Y-95491337D01*
X290746007Y-95525796D01*
X290693945Y-95559617D01*
X290641461Y-95592778D01*
X290588577Y-95625289D01*
X290535293Y-95657149D01*
X290481608Y-95688336D01*
X290427549Y-95718865D01*
X290373110Y-95748704D01*
X290318309Y-95777872D01*
X290263145Y-95806366D01*
X290207628Y-95834169D01*
X290151781Y-95861275D01*
X290095597Y-95887685D01*
X286387383Y-97591760D01*
X282674129Y-99275852D01*
X278955829Y-100939876D01*
X275232451Y-102583764D01*
X271503980Y-104207413D01*
X267770373Y-105810683D01*
X264031604Y-107393452D01*
X260287635Y-108955558D01*
X256538415Y-110496811D01*
X252783886Y-112017017D01*
X249024015Y-113515965D01*
X245258729Y-114993411D01*
X241487967Y-116449151D01*
X237711670Y-117882893D01*
X233929768Y-119294394D01*
X230142194Y-120683359D01*
X226348886Y-122049535D01*
X222549755Y-123392620D01*
X220647987Y-124055420D01*
X218744726Y-124712319D01*
X216840000Y-125363315D01*
X214933760Y-126008365D01*
X213026009Y-126647413D01*
X211116744Y-127280450D01*
X209205959Y-127907409D01*
X207293632Y-128528281D01*
X205379762Y-129143024D01*
X203464345Y-129751610D01*
X201547355Y-130353993D01*
X199628801Y-130950142D01*
X197708678Y-131540036D01*
X195786972Y-132123645D01*
X193863672Y-132700930D01*
X191938760Y-133271853D01*
X190012257Y-133836416D01*
X188084138Y-134394560D01*
X186154398Y-134946304D01*
X184223040Y-135491580D01*
X182290048Y-136030392D01*
X180355420Y-136562728D01*
X178419158Y-137088555D01*
X176481258Y-137607862D01*
X174541715Y-138120651D01*
X172600524Y-138626888D01*
X170657673Y-139126585D01*
X168713188Y-139619726D01*
X166691545Y-140125061D01*
X164668127Y-140623325D01*
X162642929Y-141114532D01*
X160615939Y-141598676D01*
X158587189Y-142075782D01*
X156556680Y-142545856D01*
X154524380Y-143008908D01*
X152490339Y-143464982D01*
X150454540Y-143914075D01*
X148416987Y-144356217D01*
X146377681Y-144791444D01*
X144336651Y-145219764D01*
X142293874Y-145641231D01*
X140249393Y-146055858D01*
X138203199Y-146463688D01*
X136155305Y-146864747D01*
X134105700Y-147259063D01*
X132054401Y-147646688D01*
X130001457Y-148027640D01*
X127946840Y-148401984D01*
X125890532Y-148769730D01*
X123832605Y-149130937D01*
X121773023Y-149485644D01*
X119711812Y-149833883D01*
X117648982Y-150175693D01*
X115584553Y-150511106D01*
X113518528Y-150840185D01*
X111450911Y-151162967D01*
X109381720Y-151479478D01*
X107310968Y-151789761D01*
X105238646Y-152093856D01*
X103164788Y-152391826D01*
X101089378Y-152683684D01*
X99012438Y-152969473D01*
X96933995Y-153249238D01*
X94854024Y-153523023D01*
X92772591Y-153790849D01*
X90689651Y-154052769D01*
X88605216Y-154308800D01*
X86519308Y-154558985D01*
X82343144Y-155041967D01*
X78161186Y-155501971D01*
X73973493Y-155939217D01*
X69780130Y-156353956D01*
X65581154Y-156746382D01*
X61376602Y-157116663D01*
X57166503Y-157464985D01*
X52950925Y-157791454D01*
X48729860Y-158096212D01*
X44503344Y-158379339D01*
X40271414Y-158640887D01*
X36034021Y-158880901D01*
X35901176Y-158886421D01*
X35768297Y-158891911D01*
X35635421Y-158897393D01*
X35502570Y-158902828D01*
X35369688Y-158908235D01*
X35236803Y-158913617D01*
X35103947Y-158918984D01*
X34971061Y-158924317D01*
X34838201Y-158929627D01*
X34705312Y-158934906D01*
X34572449Y-158940149D01*
X34439557Y-158945388D01*
X34306691Y-158950572D01*
X34173792Y-158955743D01*
X34040924Y-158960888D01*
X33908024Y-158966012D01*
X33775152Y-158971096D01*
X33642248Y-158976161D01*
X33509374Y-158981192D01*
X33376497Y-158986202D01*
X33243589Y-158991188D01*
X33110708Y-158996144D01*
X32977797Y-159001069D01*
X32844944Y-159005977D01*
X32712028Y-159010849D01*
X32579142Y-159015692D01*
X32446254Y-159020511D01*
X32313363Y-159025306D01*
X32180441Y-159030071D01*
X32047550Y-159034821D01*
X31914655Y-159039525D01*
X31781758Y-159044214D01*
X31648858Y-159048865D01*
X31515960Y-159053500D01*
X31383059Y-159058113D01*
X31250156Y-159062685D01*
X31117249Y-159067231D01*
X30984344Y-159071759D01*
X30851436Y-159076242D01*
X30718528Y-159080718D01*
X30585614Y-159085163D01*
X30452703Y-159089584D01*
X30319788Y-159093961D01*
X30186902Y-159098328D01*
X30053984Y-159102658D01*
X29921065Y-159106967D01*
X29788176Y-159111257D01*
X29655251Y-159115504D01*
X29522328Y-159119727D01*
X29389432Y-159123929D01*
X29256474Y-159128109D01*
X29123573Y-159132239D01*
X28990644Y-159136371D01*
X28857741Y-159140457D01*
X28724838Y-159144527D01*
X28591901Y-159148568D01*
X28458965Y-159152579D01*
X28326055Y-159156556D01*
X28193144Y-159160507D01*
X28060201Y-159164439D01*
X27927288Y-159168350D01*
X27794342Y-159172216D01*
X27661425Y-159176066D01*
X27528506Y-159179884D01*
X27395586Y-159183681D01*
X27262633Y-159187455D01*
X27129710Y-159191198D01*
X26996785Y-159194902D01*
X26863858Y-159198589D01*
X26730930Y-159202250D01*
X26597997Y-159205878D01*
X26465068Y-159209484D01*
X26332134Y-159213066D01*
X26199197Y-159216618D01*
X26066261Y-159220146D01*
X25933322Y-159223638D01*
X25800383Y-159227121D01*
X25667441Y-159230560D01*
X25534497Y-159233968D01*
X25401581Y-159237356D01*
X25268635Y-159240727D01*
X25135687Y-159244066D01*
X25002737Y-159247366D01*
X24869786Y-159250653D01*
X24736863Y-159253914D01*
X24603907Y-159257130D01*
X24470982Y-159260338D01*
X24338024Y-159263518D01*
X24205093Y-159266656D01*
X24072133Y-159269774D01*
X23939201Y-159272875D01*
X23806236Y-159275940D01*
X23673299Y-159278973D01*
X23540331Y-159281998D01*
X23407423Y-159284976D01*
X23274453Y-159287942D01*
X23141509Y-159290854D01*
X23008564Y-159293770D01*
X22875617Y-159296636D01*
X22742641Y-159299494D01*
X22609692Y-159302313D01*
X22476740Y-159305111D01*
X22343817Y-159307873D01*
X22210833Y-159310619D01*
X22077879Y-159313339D01*
X21944952Y-159316019D01*
X21811961Y-159318689D01*
X21679031Y-159321315D01*
X21546069Y-159323930D01*
X21413106Y-159326512D01*
X21280141Y-159329065D01*
X21147200Y-159331577D01*
X21014232Y-159334085D01*
X20881263Y-159336560D01*
X20748322Y-159338998D01*
X20615346Y-159341412D01*
X20482372Y-159343806D01*
X20349425Y-159346174D01*
X20216477Y-159348511D01*
X20083495Y-159350819D01*
X19950544Y-159353104D01*
X19817590Y-159355350D01*
X19684605Y-159357592D01*
X19551649Y-159359792D01*
X19418692Y-159361969D01*
X19285731Y-159364109D01*
X19152769Y-159366233D01*
X19019806Y-159368334D01*
X18876167Y-159361863D01*
X18732577Y-159353668D01*
X18589159Y-159343759D01*
X18445816Y-159332125D01*
X18302675Y-159318784D01*
X18159674Y-159303719D01*
X18016843Y-159286956D01*
X17874244Y-159268474D01*
X17731908Y-159248280D01*
X17589771Y-159226375D01*
X17447931Y-159202786D01*
X17306382Y-159177499D01*
X17165160Y-159150517D01*
X17024259Y-159121834D01*
X16883715Y-159091463D01*
X16743530Y-159059427D01*
X16603758Y-159025705D01*
X16464405Y-158990301D01*
X16325469Y-158953235D01*
X16186982Y-158914513D01*
X16048976Y-158874142D01*
X15911478Y-158832103D01*
X15774463Y-158788429D01*
X15637987Y-158743110D01*
X15502087Y-158696158D01*
X15366759Y-158647583D01*
X15232032Y-158597385D01*
X15097885Y-158545605D01*
X14964370Y-158492187D01*
X14831523Y-158437190D01*
X14699311Y-158380595D01*
X14567831Y-158322428D01*
X14437047Y-158262696D01*
X14306963Y-158201387D01*
X14177641Y-158138531D01*
X14049080Y-158074130D01*
X13921311Y-158008192D01*
X13794336Y-157940731D01*
X13668154Y-157871744D01*
X13542827Y-157801251D01*
X13418361Y-157729280D01*
X13294748Y-157655809D01*
X13172054Y-157580861D01*
X13050218Y-157504440D01*
X12929365Y-157426572D01*
X12809431Y-157347268D01*
X12690449Y-157266529D01*
X12572421Y-157184371D01*
X12455407Y-157100805D01*
X12339407Y-157015833D01*
X12224424Y-156929499D01*
X12110488Y-156841769D01*
X11997630Y-156752691D01*
X11885825Y-156662271D01*
X11775126Y-156570507D01*
X11665509Y-156477432D01*
X11557037Y-156383047D01*
X11449708Y-156287378D01*
X11343524Y-156190416D01*
X11238517Y-156092197D01*
X11134655Y-155992722D01*
X11032033Y-155892020D01*
X10930619Y-155790072D01*
X10830447Y-155686940D01*
X10731487Y-155582612D01*
X10633797Y-155477096D01*
X10537384Y-155370417D01*
X10442276Y-155262596D01*
X10348413Y-155153644D01*
X10255919Y-155043575D01*
X10164704Y-154932399D01*
X10074857Y-154820142D01*
X9986352Y-154706812D01*
X9899191Y-154592444D01*
X9813464Y-154477032D01*
X9729079Y-154360590D01*
X9646103Y-154243151D01*
X9564532Y-154124734D01*
X9484402Y-154005342D01*
X9405711Y-153884998D01*
X9328462Y-153763733D01*
X9252653Y-153641539D01*
X9178350Y-153518441D01*
X9105492Y-153394469D01*
X9034137Y-153269633D01*
X8964293Y-153143955D01*
X8895955Y-153017435D01*
X8829131Y-152890120D01*
X8763843Y-152762001D01*
X8700070Y-152633116D01*
X8637870Y-152503470D01*
X8577248Y-152373100D01*
X8518169Y-152242002D01*
X8460671Y-152110211D01*
X8404748Y-151977735D01*
X8350439Y-151844609D01*
X8297708Y-151710830D01*
X8246593Y-151576437D01*
X8197060Y-151441433D01*
X8149172Y-151305858D01*
X8102934Y-151169703D01*
X8058312Y-151033012D01*
X8015339Y-150895799D01*
X7974019Y-150758081D01*
X7934317Y-150619872D01*
X7896271Y-150481204D01*
X7859938Y-150342080D01*
X7825232Y-150202543D01*
X7792243Y-150062595D01*
X7760882Y-149922258D01*
X7731241Y-149781555D01*
X7703292Y-149640511D01*
X7677034Y-149499143D01*
X7652439Y-149357467D01*
X7629571Y-149215507D01*
X7608397Y-149073286D01*
X7588921Y-148930815D01*
X7571175Y-148788123D01*
X7555128Y-148645235D01*
X7540781Y-148502169D01*
X7528168Y-148358926D01*
X7517259Y-148215549D01*
X7508084Y-148072050D01*
X7500617Y-147928461D01*
X7494886Y-147784783D01*
X7490867Y-147641054D01*
X7488553Y-147497278D01*
X7487983Y-147353484D01*
X7522705Y-129976103D01*
X18022697Y-129997081D01*
X18006691Y-137997066D01*
X18007011Y-138071793D01*
X18008279Y-138146507D01*
X18010432Y-138221215D01*
X18013561Y-138295878D01*
X18017574Y-138370504D01*
X18022564Y-138445068D01*
X18028433Y-138519563D01*
X18035280Y-138593976D01*
X18043006Y-138668311D01*
X18051705Y-138742541D01*
X18061280Y-138816641D01*
X18071828Y-138890638D01*
X18083256Y-138964487D01*
X18095620Y-139038179D01*
X18108896Y-139111725D01*
X18123074Y-139185100D01*
X18138190Y-139258281D01*
X18154212Y-139331283D01*
X18171107Y-139404064D01*
X18188938Y-139476645D01*
X18207672Y-139548993D01*
X18227308Y-139621093D01*
X18247817Y-139692952D01*
X18269255Y-139764539D01*
X18291565Y-139835873D01*
X18314745Y-139906909D01*
X18338822Y-139977652D01*
X18363798Y-140048089D01*
X18389612Y-140118216D01*
X18416323Y-140188011D01*
X18443900Y-140257465D01*
X18472342Y-140326583D01*
X18501649Y-140395333D01*
X18531790Y-140463705D01*
X18562791Y-140531710D01*
X18594629Y-140599312D01*
X18627296Y-140666527D01*
X18660824Y-140733315D01*
X18695153Y-140799695D01*
X18730310Y-140865633D01*
X18766328Y-140931124D01*
X18803111Y-140996153D01*
X18840724Y-141060735D01*
X18879132Y-141124847D01*
X18918338Y-141188468D01*
X18958339Y-141251603D01*
X18999103Y-141314211D01*
X19040661Y-141376333D01*
X19082984Y-141437922D01*
X19126067Y-141498982D01*
X19169913Y-141559491D01*
X19214521Y-141619463D01*
X19259858Y-141678872D01*
X19305923Y-141737706D01*
X19352750Y-141795961D01*
X19400243Y-141853633D01*
X19448495Y-141910706D01*
X19497446Y-141967181D01*
X19547092Y-142023039D01*
X19597430Y-142078257D01*
X19648464Y-142132860D01*
X19700165Y-142186821D01*
X19752528Y-142240135D01*
X19805558Y-142292797D01*
X19859246Y-142344784D01*
X19913566Y-142396107D01*
X19968519Y-142446748D01*
X20024101Y-142496701D01*
X20080314Y-142545958D01*
X20137123Y-142594497D01*
X20194504Y-142642340D01*
X20252540Y-142689459D01*
X20311118Y-142735857D01*
X20370259Y-142781519D01*
X20429999Y-142826440D01*
X20490271Y-142870620D01*
X20551109Y-142914028D01*
X20612453Y-142956689D01*
X20674332Y-142998591D01*
X20736741Y-143039704D01*
X20799654Y-143080035D01*
X20863070Y-143119596D01*
X20926955Y-143158340D01*
X20991344Y-143196303D01*
X21056172Y-143233456D01*
X21121471Y-143269804D01*
X21187207Y-143305324D01*
X21253384Y-143340029D01*
X21320000Y-143373906D01*
X21387053Y-143406953D01*
X21454451Y-143439160D01*
X21522321Y-143470531D01*
X21590503Y-143501055D01*
X21659093Y-143530721D01*
X21728057Y-143559523D01*
X21797368Y-143587471D01*
X21867023Y-143614565D01*
X21936990Y-143640783D01*
X22007301Y-143666119D01*
X22077927Y-143690577D01*
X22148806Y-143714171D01*
X22220027Y-143736865D01*
X22291498Y-143758674D01*
X22363253Y-143779593D01*
X22435227Y-143799613D01*
X22507481Y-143818730D01*
X22579957Y-143836958D01*
X22652653Y-143854266D01*
X22725568Y-143870683D01*
X22798674Y-143886182D01*
X22871965Y-143900772D01*
X22945446Y-143914446D01*
X23019057Y-143927210D01*
X23092852Y-143939048D01*
X23166778Y-143949974D01*
X23240829Y-143959968D01*
X23315039Y-143969041D01*
X23389313Y-143977195D01*
X23463687Y-143984433D01*
X23538154Y-143990732D01*
X23612688Y-143996095D01*
X23687285Y-144000536D01*
X23761919Y-144004052D01*
X23836616Y-144006629D01*
X23911318Y-144008282D01*
X23986060Y-144009015D01*
X24060771Y-144008803D01*
X24135517Y-144007670D01*
X27753337Y-143929974D01*
X27846551Y-143927392D01*
X27939669Y-143923660D01*
X28032776Y-143918767D01*
X28125808Y-143912703D01*
X28218712Y-143905492D01*
X28311577Y-143897130D01*
X28404309Y-143887623D01*
X28496909Y-143876942D01*
X28589377Y-143865133D01*
X28681683Y-143852158D01*
X28773858Y-143838051D01*
X28865811Y-143822797D01*
X28957572Y-143806392D01*
X29049138Y-143788850D01*
X29140457Y-143770187D01*
X29231547Y-143750376D01*
X29322388Y-143729426D01*
X29412947Y-143707370D01*
X29503222Y-143684176D01*
X29593245Y-143659867D01*
X29682923Y-143634438D01*
X29772292Y-143607893D01*
X29861314Y-143580257D01*
X29949964Y-143551492D01*
X30038303Y-143521636D01*
X30126238Y-143490691D01*
X30213771Y-143458660D01*
X30300901Y-143425530D01*
X30387627Y-143391334D01*
X30473922Y-143356039D01*
X30559753Y-143319697D01*
X30645123Y-143282271D01*
X30730029Y-143243813D01*
X30814474Y-143204274D01*
X30898397Y-143163705D01*
X30981797Y-143122099D01*
X31064704Y-143079452D01*
X31147063Y-143035783D01*
X31228866Y-142991086D01*
X31310090Y-142945378D01*
X31390795Y-142898661D01*
X31470856Y-142850961D01*
X31550368Y-142802251D01*
X31629238Y-142752570D01*
X31707468Y-142701906D01*
X31785089Y-142650281D01*
X31862070Y-142597685D01*
X31938377Y-142544136D01*
X32014020Y-142489643D01*
X32088963Y-142434229D01*
X32163206Y-142377863D01*
X32236782Y-142320608D01*
X32309600Y-142262419D01*
X32381718Y-142203332D01*
X32453079Y-142143360D01*
X32523686Y-142082510D01*
X32593534Y-142020788D01*
X32662627Y-141958196D01*
X32730901Y-141894743D01*
X32798422Y-141830457D01*
X32865128Y-141765327D01*
X32930987Y-141699379D01*
X32996062Y-141632614D01*
X33060297Y-141565051D01*
X33123685Y-141496691D01*
X33186200Y-141427554D01*
X33247875Y-141357633D01*
X33308645Y-141286973D01*
X33368545Y-141215549D01*
X33427573Y-141143384D01*
X33485670Y-141070501D01*
X33542868Y-140996888D01*
X33599166Y-140922573D01*
X33654503Y-140847567D01*
X33708946Y-140771881D01*
X33762398Y-140695524D01*
X33814924Y-140618503D01*
X33866491Y-140540847D01*
X33917073Y-140462542D01*
X33966700Y-140383620D01*
X34015310Y-140304087D01*
X34062935Y-140223952D01*
X34109578Y-140143238D01*
X34155176Y-140061943D01*
X34199794Y-139980103D01*
X34243398Y-139897705D01*
X34285962Y-139814774D01*
X34327512Y-139731300D01*
X34367994Y-139647336D01*
X34407437Y-139562870D01*
X34445840Y-139477931D01*
X34483176Y-139392516D01*
X34519414Y-139306638D01*
X34554615Y-139220323D01*
X34588750Y-139133565D01*
X34621790Y-139046394D01*
X34653735Y-138958831D01*
X34684615Y-138870858D01*
X34714374Y-138782530D01*
X34743040Y-138693822D01*
X34770583Y-138604777D01*
X34797065Y-138515386D01*
X34822428Y-138425679D01*
X34846612Y-138335656D01*
X34869736Y-138245346D01*
X34891712Y-138154755D01*
X34912571Y-138063896D01*
X34932284Y-137972785D01*
X34950883Y-137881438D01*
X34968334Y-137789869D01*
X34984642Y-137698088D01*
X34999808Y-137606118D01*
X35013832Y-137513958D01*
X35026711Y-137421622D01*
X35038422Y-137329143D01*
X35049023Y-137236527D01*
X35058425Y-137143783D01*
X35066718Y-137050941D01*
X35073842Y-136957995D01*
X35079803Y-136864965D01*
X35084595Y-136771869D01*
X35088255Y-136678716D01*
X35090748Y-136585532D01*
X35092079Y-136492319D01*
X35092250Y-136399111D01*
X35091256Y-136305888D01*
X35089134Y-136212689D01*
X35085819Y-136119524D01*
X33741540Y-103850983D01*
X33739572Y-103795847D01*
X33738188Y-103740708D01*
X33737414Y-103685543D01*
X33737249Y-103630383D01*
X33737667Y-103575220D01*
X33738727Y-103520075D01*
X33740368Y-103464928D01*
X33742654Y-103409820D01*
X33745521Y-103354731D01*
X33749003Y-103299676D01*
X33753099Y-103244662D01*
X33757778Y-103189704D01*
X33763104Y-103134784D01*
X33769014Y-103079942D01*
X33775506Y-103025170D01*
X33782648Y-102970468D01*
X33790344Y-102915843D01*
X33798689Y-102861316D01*
X33807591Y-102806880D01*
X33817107Y-102752539D01*
X33827244Y-102698319D01*
X33837968Y-102644203D01*
X33849281Y-102590210D01*
X33861182Y-102536353D01*
X33873703Y-102482621D01*
X33886782Y-102429040D01*
X33900452Y-102375598D01*
X33914743Y-102322315D01*
X33929626Y-102269187D01*
X33945068Y-102216233D01*
X33961101Y-102163449D01*
X33977696Y-102110844D01*
X33994914Y-102058436D01*
X34012661Y-102006204D01*
X34031005Y-101954191D01*
X34049912Y-101902371D01*
X34069411Y-101850765D01*
X34089473Y-101799369D01*
X34110102Y-101748205D01*
X34131262Y-101697283D01*
X34153019Y-101646577D01*
X34175310Y-101596131D01*
X34198167Y-101545923D01*
X34221589Y-101495972D01*
X34245547Y-101446286D01*
X34270073Y-101396865D01*
X34295104Y-101347718D01*
X34320701Y-101298852D01*
X34346806Y-101250268D01*
X34373510Y-101201977D01*
X34400690Y-101153975D01*
X34428409Y-101106283D01*
X34456637Y-101058906D01*
X34485434Y-101011838D01*
X34514708Y-100965094D01*
X34544522Y-100918671D01*
X34574848Y-100872581D01*
X34605648Y-100826828D01*
X34636962Y-100781418D01*
X34668786Y-100736355D01*
X34701090Y-100691646D01*
X34733906Y-100647302D01*
X34767202Y-100603318D01*
X34800948Y-100559706D01*
X34835208Y-100516462D01*
X34869947Y-100473603D01*
X34905141Y-100431133D01*
X34940786Y-100389050D01*
X34976943Y-100347364D01*
X35013522Y-100306076D01*
X35050555Y-100265198D01*
X35088041Y-100224731D01*
X35125981Y-100184684D01*
X35164344Y-100145058D01*
X35203190Y-100105843D01*
X35242400Y-100067077D01*
X35282065Y-100028734D01*
X35322154Y-99990833D01*
X35362638Y-99953386D01*
X35403546Y-99916375D01*
X35444848Y-99879828D01*
X35486578Y-99843736D01*
X35528699Y-99808092D01*
X35571218Y-99772938D01*
X35614102Y-99738241D01*
X35657352Y-99704023D01*
X35700997Y-99670280D01*
X35745009Y-99637032D01*
X35789385Y-99604258D01*
X35834130Y-99571988D01*
X35879210Y-99540204D01*
X35924657Y-99508926D01*
X35970439Y-99478146D01*
X36016529Y-99447873D01*
X36062986Y-99418111D01*
X36109749Y-99388874D01*
X36156852Y-99360141D01*
X36204261Y-99331939D01*
X36251975Y-99304250D01*
X36299999Y-99277100D01*
X36348298Y-99250472D01*
X36396906Y-99224383D01*
X36445790Y-99198829D01*
X36494985Y-99173823D01*
X36544395Y-99149360D01*
X36594114Y-99125437D01*
X36644081Y-99102064D01*
X36694294Y-99079257D01*
X36744789Y-99056994D01*
X36795499Y-99035288D01*
X36846459Y-99014147D01*
X36897633Y-98993575D01*
X36949029Y-98973557D01*
X37000657Y-98954110D01*
X37052490Y-98935241D01*
X37104524Y-98916939D01*
X37156761Y-98899217D01*
X37209204Y-98882064D01*
X37261817Y-98865503D01*
X37314621Y-98849511D01*
X37367583Y-98834106D01*
X37420717Y-98819295D01*
X37474024Y-98805065D01*
X37527459Y-98791418D01*
X37581039Y-98778373D01*
X37634807Y-98765907D01*
X37688670Y-98754043D01*
X37742665Y-98742779D01*
X39580993Y-98650312D01*
X41419038Y-98552147D01*
X43256747Y-98448302D01*
X45094140Y-98338783D01*
X46931201Y-98223563D01*
X48767899Y-98102674D01*
X50604188Y-97976104D01*
X52440069Y-97843849D01*
X54275540Y-97705907D01*
X56110605Y-97562294D01*
X57945199Y-97413002D01*
X59779326Y-97258044D01*
X61612962Y-97097402D01*
X63446073Y-96931095D01*
X65278668Y-96759117D01*
X67110749Y-96581459D01*
X68942253Y-96398144D01*
X70773196Y-96209169D01*
X72603519Y-96014515D01*
X74433233Y-95814211D01*
X76262344Y-95608242D01*
X78090787Y-95396622D01*
X79918563Y-95179346D01*
X81745671Y-94956402D01*
X83572082Y-94727820D01*
X85397766Y-94493587D01*
X87222739Y-94253711D01*
X89046937Y-94008186D01*
X90870378Y-93757011D01*
X92693030Y-93500200D01*
X94514895Y-93237758D01*
X96335909Y-92969678D01*
X98156089Y-92695961D01*
X99975438Y-92416621D01*
X101793892Y-92131644D01*
X103611480Y-91841053D01*
X105428145Y-91544832D01*
X107243870Y-91243002D01*
X109058671Y-90935550D01*
X110872516Y-90622481D01*
X112685361Y-90303807D01*
X114497238Y-89979531D01*
X116308096Y-89649641D01*
X118117911Y-89314154D01*
X119926695Y-88973070D01*
X121734402Y-88626388D01*
X123541048Y-88274119D01*
X125346560Y-87916262D01*
X127150997Y-87552818D01*
X128954280Y-87183803D01*
X130756413Y-86809208D01*
X132557379Y-86429033D01*
X134357164Y-86043289D01*
X136155737Y-85651979D01*
X137953099Y-85255113D01*
X139749220Y-84852681D01*
X141544097Y-84444695D01*
X143337700Y-84031156D01*
X145130018Y-83612076D01*
X146921023Y-83187458D01*
X148710703Y-82757287D01*
X150499057Y-82321589D01*
X152286046Y-81880363D01*
X154071659Y-81433608D01*
X155855879Y-80981332D01*
X157638704Y-80523527D01*
X159420092Y-80060226D01*
X161200031Y-79591407D01*
X162978527Y-79117090D01*
X164755544Y-78637258D01*
X166531077Y-78151951D01*
X168305083Y-77661135D01*
X170077565Y-77164839D01*
X171848509Y-76663073D01*
X173617894Y-76155818D01*
X175385696Y-75643089D01*
X177151904Y-75124909D01*
X178916501Y-74601255D01*
X180679480Y-74072141D01*
X182440796Y-73537579D01*
X184200447Y-72997575D01*
X185958445Y-72452126D01*
X187714734Y-71901238D01*
X189469301Y-71344928D01*
X191222145Y-70783191D01*
X192973242Y-70216033D01*
X194722578Y-69643448D01*
X196470123Y-69065467D01*
X198215895Y-68482082D01*
X199959836Y-67893299D01*
X201701951Y-67299117D01*
X203442215Y-66699548D01*
X205180629Y-66094604D01*
X206917146Y-65484285D01*
X208651784Y-64868587D01*
X210384491Y-64247540D01*
X212115277Y-63621130D01*
X213844122Y-62989357D01*
X215571001Y-62352245D01*
X217295898Y-61709803D01*
X219018806Y-61062016D01*
X220739697Y-60408912D01*
X222458552Y-59750477D01*
X224175376Y-59086730D01*
X225890127Y-58417681D01*
X227602803Y-57743325D01*
X229313385Y-57063679D01*
X231021854Y-56378743D01*
X232728200Y-55688515D01*
X234432397Y-54993019D01*
X236134436Y-54292254D01*
X237834301Y-53586223D01*
X239531974Y-52874937D01*
X241227431Y-52158404D01*
X242920677Y-51436639D01*
X244611671Y-50709619D01*
X246300417Y-49977390D01*
X247986880Y-49239928D01*
X249671051Y-48497256D01*
X251352923Y-47749376D01*
X253032482Y-46996295D01*
X254709690Y-46238031D01*
X256384544Y-45474570D01*
X258057029Y-44705935D01*
X259727135Y-43932133D01*
X261394842Y-43153159D01*
X263060120Y-42369043D01*
X264722963Y-41579767D01*
X264775859Y-41564119D01*
X264828929Y-41549049D01*
X264882164Y-41534575D01*
X264935542Y-41520679D01*
X264989081Y-41507376D01*
X265042755Y-41494665D01*
X265096578Y-41482546D01*
X265150525Y-41471032D01*
X265204589Y-41460103D01*
X265258776Y-41449774D01*
X265313077Y-41440041D01*
X265367480Y-41430912D01*
X265421981Y-41422379D01*
X265476569Y-41414452D01*
X265531241Y-41407121D01*
X265585996Y-41400407D01*
X265640812Y-41394287D01*
X265695711Y-41388776D01*
X265750652Y-41383861D01*
X265805642Y-41379567D01*
X265860689Y-41375870D01*
X265915765Y-41372783D01*
X265970865Y-41370302D01*
X266026001Y-41368434D01*
X266081149Y-41367175D01*
X266136313Y-41366516D01*
X266191472Y-41366479D01*
X266246630Y-41367043D01*
X266301784Y-41368206D01*
X266356915Y-41369994D01*
X266412025Y-41372385D01*
X266467110Y-41375379D01*
X266522153Y-41378985D01*
X266577160Y-41383194D01*
X266632108Y-41388008D01*
X266687004Y-41393438D01*
X266741844Y-41399470D01*
X266796601Y-41406101D01*
X266851285Y-41413337D01*
X266905895Y-41421177D01*
X266960402Y-41429623D01*
X267014825Y-41438659D01*
X267069134Y-41448311D01*
X267123340Y-41458550D01*
X267177424Y-41469390D01*
X267231396Y-41480826D01*
X267285227Y-41492851D01*
X267338929Y-41505477D01*
X267392484Y-41518693D01*
X267445898Y-41532497D01*
X267499146Y-41546893D01*
X267552240Y-41561871D01*
X267605157Y-41577427D01*
X267657903Y-41593578D01*
X267710472Y-41610311D01*
X267762847Y-41627616D01*
X267815037Y-41645502D01*
X267867019Y-41663963D01*
X267918785Y-41682989D01*
X267970350Y-41702588D01*
X268021698Y-41722760D01*
X268072819Y-41743498D01*
X268123703Y-41764792D01*
X268174353Y-41786650D01*
X268224756Y-41809066D01*
X268274910Y-41832035D01*
X268324809Y-41855554D01*
X268374442Y-41879629D01*
X268423805Y-41904241D01*
X268472906Y-41929400D01*
X268521715Y-41955098D01*
X268570238Y-41981334D01*
X268618469Y-42008101D01*
X268666396Y-42035406D01*
X268714032Y-42063229D01*
X268761352Y-42091584D01*
X268808354Y-42120457D01*
X268855034Y-42149843D01*
X268901396Y-42179750D01*
X268947419Y-42210156D01*
X268993102Y-42241074D01*
X269038444Y-42272496D01*
X269083436Y-42304417D01*
X269128070Y-42336825D01*
X269172351Y-42369731D01*
X269216260Y-42403123D01*
X269259800Y-42436989D01*
X269302957Y-42471336D01*
X269345743Y-42506160D01*
X269388137Y-42541458D01*
X269430138Y-42577222D01*
X269471747Y-42613439D01*
X269512955Y-42650121D01*
X269553745Y-42687250D01*
X269594125Y-42724826D01*
X269634100Y-42762846D01*
X269673641Y-42801303D01*
X269712759Y-42840198D01*
X269751451Y-42879519D01*
X269789702Y-42919268D01*
X269827510Y-42959435D01*
X269864871Y-43000020D01*
X269901791Y-43041012D01*
X269938248Y-43082404D01*
X269974255Y-43124203D01*
X270009787Y-43166394D01*
X270044864Y-43208972D01*
X270079460Y-43251930D01*
X270113580Y-43295277D01*
X270147220Y-43338995D01*
X270180383Y-43383082D01*
X270213048Y-43427532D01*
X270245223Y-43472341D01*
X270276910Y-43517491D01*
X270308085Y-43563003D01*
X270338759Y-43608846D01*
X270368937Y-43655029D01*
X270398591Y-43701545D01*
X270427734Y-43748374D01*
X270456358Y-43795534D01*
X270484456Y-43842996D01*
X270512034Y-43890773D01*
X270539081Y-43938852D01*
X270565604Y-43987224D01*
X270591586Y-44035888D01*
X270617029Y-44084835D01*
X270641919Y-44134057D01*
X270666278Y-44183553D01*
X292494870Y-89166767D01*
X292521620Y-89222787D01*
X292547679Y-89279144D01*
X292573035Y-89335808D01*
X292597690Y-89392785D01*
X292621630Y-89450066D01*
X292644859Y-89507635D01*
X292667374Y-89565500D01*
X292689163Y-89623627D01*
X292710238Y-89682032D01*
X292730576Y-89740686D01*
X292750189Y-89799593D01*
X292769073Y-89858724D01*
X292787213Y-89918102D01*
X292804623Y-89977697D01*
X292821286Y-90037502D01*
X292837209Y-90097510D01*
X292852383Y-90157708D01*
X292866805Y-90218090D01*
X292880478Y-90278651D01*
X292893399Y-90339374D01*
X292905570Y-90400256D01*
X292916976Y-90461279D01*
X292927629Y-90522447D01*
X292937520Y-90583737D01*
X292946645Y-90645144D01*
X292955006Y-90706659D01*
X292962613Y-90768279D01*
X292969441Y-90829990D01*
X292975514Y-90891768D01*
X292980819Y-90953622D01*
X292985349Y-91015541D01*
X292989110Y-91077517D01*
M02*
