<?xml version="1.0" encoding="utf-8"?>
<!-- Generator: Fusion 360, Shaper Origin Export Add-In, Version 1.9.0  -->
<svg xmlns="http://www.w3.org/2000/svg" xmlns:xlink="http://www.w3.org/1999/xlink" xmlns:shaper="http://www.shapertools.com/namespaces/shaper" shaper:fusionaddin="version:1.9.0" width="11.149211cm" height="25.9572565cm" version="1.1" x="0cm" y="0cm" viewBox="0 0 11.149211 25.9572565" enable-background="new 0 0 11.149211 25.9572565" xml:space="preserve"><path d="M-1.9985921,-12.2746429 L3.0020265,-12.2746429 A0.5,0.5 270 0,1 3.5017349,-11.7575693 L3.5017349,-11.7575693 3.4866931,-11.3470152 3.4696363,-10.936951 3.4505585,-10.5273782 3.4294514,-10.1182988 3.4063047,-9.7097154 3.381106,-9.3016308 3.353841,-8.8940488 3.3244932,-8.4869731 3.2930446,-8.0804083 3.2594752,-7.6743591 3.2237636,-7.2688308 3.1858867,-6.863829 3.1458201,-6.4593596 3.1035382,-6.0554288 3.0590142,-5.6520433 3.0122204,-5.2492096 2.9631284,-4.8469347 2.9377116,-4.646009 2.9117093,-4.4452257 2.8851181,-4.2445856 2.8579341,-4.0440895 2.8301537,-3.8437385 2.8017732,-3.6435335 2.7727891,-3.4434752 2.7431976,-3.2435645 2.7129953,-3.0438024 2.6821785,-2.8441897 2.6507437,-2.6447273 2.6186876,-2.4454159 2.5860067,-2.2462565 2.5526979,-2.0472497 2.5187579,-1.8483964 2.4841835,-1.6496974 2.4489719,-1.4511533 2.4131202,-1.2527648 2.3766256,-1.0545327 2.3394855,-0.8564575 2.3016975,-0.6585398 2.2632593,-0.4607803 2.2241688,-0.2631793 2.1844241,-0.0657374 2.1440235,0.131545 2.1029655,0.3286675 2.0612488,0.5256299 2.0188726,0.7224319 1.9758359,0.9190734 1.9321384,1.1155542 1.8877799,1.3118742 1.8427605,1.5080336 1.7970806,1.7040323 1.7507408,1.8998706 1.7037422,2.0955487 1.6560858,2.2910669 1.6077731,2.4864254 1.5588058,2.6816248 1.5091856,2.8766655 1.4589146,3.0715479 1.4079951,3.2662727 1.3564293,3.4608403 1.30422,3.6552514 1.2513697,3.8495067 1.1978813,4.0436068 1.1437578,4.2375525 1.0890021,4.4313445 1.0336174,4.6249835 0.977607,4.8184704 0.9209742,5.0118059 0.8637224,5.204991 0.8058551,5.3980264 0.7473758,5.590913 0.688288,5.7836516 0.6285953,5.9762431 0.5683014,6.1686885 0.5074099,6.3609886 0.4459245,6.5531442 0.3838488,6.7451563 0.3211864,6.9370258 0.1941162,7.3203403 0.0647427,7.7030948 -0.066906,8.0852961 -0.2008021,8.466951 -0.336919,8.8480658 -0.475231,9.2286469 -0.6157139,9.6087002 -0.7583446,9.9882312 -0.9031017,10.3672452 -1.0499653,10.745747 -1.1989172,11.123741 -1.3499411,11.5012312 -1.5030227,11.8782211 -1.6581495,12.2547137 -1.8153113,12.6307115 -1.9744997,13.0062165 -2.1357089,13.3812302 A0.5,0.5 23.4053156 0,1 -2.8013619,13.6378457 L-7.3539786,11.5697697 A0.5,0.5 114.4304435 0,1 -7.6062472,10.9163926 L-7.6062472,10.9163926 -7.4604967,10.5764077 -7.3165665,10.2360132 -7.1744622,9.8952078 -7.0341914,9.5539899 -6.8957635,9.2123574 -6.7591897,8.8703076 -6.6244831,8.5278378 -6.4916584,8.1849445 -6.3607322,7.8416241 -6.2317223,7.4978724 -6.1046483,7.1536853 -5.9795308,6.8090578 -5.856392,6.4639852 -5.7352548,6.1184622 -5.6161436,5.7724834 -5.499083,5.4260432 -5.3840987,5.0791358 -5.2712167,4.7317554 -5.1604631,4.3838961 -5.0518643,4.0355519 -4.9454465,3.6867171 -4.8412356,3.3373856 -4.7392567,2.987552 -4.6395341,2.6372107 -4.542091,2.2863565 -4.4469489,1.9349846 -4.354128,1.5830904 -4.3085936,1.4069462 -4.2636461,1.2306699 -4.2192871,1.0542613 -4.1755186,0.8777197 -4.1323418,0.701045 -4.0897582,0.5242369 -4.0477688,0.3472951 -4.0063745,0.1702193 -3.9655759,-0.0069904 -3.9253735,-0.1843343 -3.8857672,-0.3618124 -3.846757,-0.5394245 -3.8083425,-0.7171707 -3.7705231,-0.8950508 -3.7332978,-1.0730646 -3.6966656,-1.2512118 -3.6606252,-1.4294922 -3.6251751,-1.6079054 -3.5903135,-1.786451 -3.5560387,-1.9651286 -3.489241,-2.3228781 -3.4247639,-2.6811496 -3.3625875,-3.0399389 -3.3026901,-3.3992409 -3.2450484,-3.7590505 -3.1896383,-4.1193622 -3.1364345,-4.4801702 -3.0854112,-4.8414689 -3.0365421,-5.2032523 -2.9898009,-5.5655145 -2.9451613,-5.9282496 -2.9025975,-6.2914517 -2.8620839,-6.6551151 -2.8235956,-7.0192342 -2.7871085,-7.3838036 -2.7525995,-7.748818 -2.7200467,-8.1142726 -2.6894293,-8.4801627 -2.6607278,-8.8464838 -2.6339244,-9.2132321 -2.6090027,-9.5804037 -2.5859478,-9.9479953 -2.5647468,-10.3160041 -2.5453884,-10.6844274 -2.5278633,-11.0532633 -2.512164,-11.4225099 -2.4982849,-11.7921661 A0.5,0.5 182.0084301 0,1 -1.9985921,-12.2746429z" transform="matrix(1,0,0,-1,7.6471845,13.6826137)" fill="rgb(0,0,0)" shaper:cutDepth="0.03cm" stroke-linecap="round" stroke-linejoin="round" /><path d="M-1.8638252,-1.2331978 a0.5,0.5 0 1,1 1,0 a0.5,0.5 0 1,1 -1,0z" transform="matrix(1,0,0,-1,7.6471845,13.6826137)" fill="rgb(255,255,255)" stroke="rgb(0,0,0)" stroke-width="0.0010cm" stroke-linecap="round" stroke-linejoin="round" shaper:cutDepth="0.03cm" /><path d="M0.8827889,-0.6890371 a0.5,0.5 0 1,1 1,0 a0.5,0.5 0 1,1 -1,0z" transform="matrix(1,0,0,-1,7.6471845,13.6826137)" fill="rgb(255,255,255)" stroke="rgb(0,0,0)" stroke-width="0.0010cm" stroke-linecap="round" stroke-linejoin="round" shaper:cutDepth="0.03cm" /><path d="M-0.8254154,0.6225651 a0.5,0.5 0 1,1 1,0 a0.5,0.5 0 1,1 -1,0z" transform="matrix(1,0,0,-1,7.6471845,13.6826137)" fill="rgb(255,255,255)" stroke="rgb(0,0,0)" stroke-width="0.0010cm" stroke-linecap="round" stroke-linejoin="round" shaper:cutDepth="0.03cm" /><path d="M-3.4101128,4.9037575 a0.5,0.5 0 1,1 1,0 a0.5,0.5 0 1,1 -1,0z" transform="matrix(1,0,0,-1,7.6471845,13.6826137)" fill="rgb(255,255,255)" stroke="rgb(0,0,0)" stroke-width="0.0010cm" stroke-linecap="round" stroke-linejoin="round" shaper:cutDepth="0.03cm" /><path d="M-5.7323628,7.4256607 a0.5,0.5 0 1,1 1,0 a0.5,0.5 0 1,1 -1,0z" transform="matrix(1,0,0,-1,7.6471845,13.6826137)" fill="rgb(255,255,255)" stroke="rgb(0,0,0)" stroke-width="0.0010cm" stroke-linecap="round" stroke-linejoin="round" shaper:cutDepth="0.03cm" /><path d="M-3.1014491,8.3839368 a0.5,0.5 0 1,1 1,0 a0.5,0.5 0 1,1 -1,0z" transform="matrix(1,0,0,-1,7.6471845,13.6826137)" fill="rgb(255,255,255)" stroke="rgb(0,0,0)" stroke-width="0.0010cm" stroke-linecap="round" stroke-linejoin="round" shaper:cutDepth="0.03cm" /><path d="M-4.9776253,9.3849931 a0.5,0.5 0 1,1 1,0 a0.5,0.5 0 1,1 -1,0z" transform="matrix(1,0,0,-1,7.6471845,13.6826137)" fill="rgb(255,255,255)" stroke="rgb(0,0,0)" stroke-width="0.0010cm" stroke-linecap="round" stroke-linejoin="round" shaper:cutDepth="0.03cm" /><path d="M0.5703434,-8.9794585 a0.5,0.5 0 1,1 1,0 a0.5,0.5 0 1,1 -1,0z" transform="matrix(1,0,0,-1,7.6471845,13.6826137)" fill="rgb(255,255,255)" stroke="rgb(0,0,0)" stroke-width="0.0010cm" stroke-linecap="round" stroke-linejoin="round" shaper:cutDepth="0.03cm" /><path d="M2.0575887,-10.5371375 a0.5,0.5 0 1,1 1,0 a0.5,0.5 0 1,1 -1,0z" transform="matrix(1,0,0,-1,7.6471845,13.6826137)" fill="rgb(255,255,255)" stroke="rgb(0,0,0)" stroke-width="0.0010cm" stroke-linecap="round" stroke-linejoin="round" shaper:cutDepth="0.03cm" /><path d="M1.9671559,-8.88504 a0.5,0.5 0 1,1 1,0 a0.5,0.5 0 1,1 -1,0z" transform="matrix(1,0,0,-1,7.6471845,13.6826137)" fill="rgb(255,255,255)" stroke="rgb(0,0,0)" stroke-width="0.0010cm" stroke-linecap="round" stroke-linejoin="round" shaper:cutDepth="0.03cm" /><path d="M0.2693618,-5.7563364 a0.5,0.5 0 1,1 1,0 a0.5,0.5 0 1,1 -1,0z" transform="matrix(1,0,0,-1,7.6471845,13.6826137)" fill="rgb(255,255,255)" stroke="rgb(0,0,0)" stroke-width="0.0010cm" stroke-linecap="round" stroke-linejoin="round" shaper:cutDepth="0.03cm" /><path d="M-2.5109256,-6.0880025 a0.5,0.5 0 1,1 1,0 a0.5,0.5 0 1,1 -1,0z" transform="matrix(1,0,0,-1,7.6471845,13.6826137)" fill="rgb(255,255,255)" stroke="rgb(0,0,0)" stroke-width="0.0010cm" stroke-linecap="round" stroke-linejoin="round" shaper:cutDepth="0.03cm" /><path d="M-1.2007706,2.1971491 a0.5,0.5 0 1,1 1,0 a0.5,0.5 0 1,1 -1,0z" transform="matrix(1,0,0,-1,7.6471845,13.6826137)" fill="rgb(255,255,255)" stroke="rgb(0,0,0)" stroke-width="0.0010cm" stroke-linecap="round" stroke-linejoin="round" shaper:cutDepth="0.03cm" /><path d="M-0.267975,4.1383227 a0.5,0.5 0 1,1 1,0 a0.5,0.5 0 1,1 -1,0z" transform="matrix(1,0,0,-1,7.6471845,13.6826137)" fill="rgb(255,255,255)" stroke="rgb(0,0,0)" stroke-width="0.0010cm" stroke-linecap="round" stroke-linejoin="round" shaper:cutDepth="0.03cm" /><path d="M-1.6163374,3.7616013 a0.5,0.5 0 1,1 1,0 a0.5,0.5 0 1,1 -1,0z" transform="matrix(1,0,0,-1,7.6471845,13.6826137)" fill="rgb(255,255,255)" stroke="rgb(0,0,0)" stroke-width="0.0010cm" stroke-linecap="round" stroke-linejoin="round" shaper:cutDepth="0.03cm" /><path d="M-2.9559507,-3.0264836 a0.5,0.5 0 1,1 1,0 a0.5,0.5 0 1,1 -1,0z" transform="matrix(1,0,0,-1,7.6471845,13.6826137)" fill="rgb(255,255,255)" stroke="rgb(0,0,0)" stroke-width="0.0010cm" stroke-linecap="round" stroke-linejoin="round" shaper:cutDepth="0.03cm" /><path d="M0.1567995,2.539207 a0.5,0.5 0 1,1 1,0 a0.5,0.5 0 1,1 -1,0z" transform="matrix(1,0,0,-1,7.6471845,13.6826137)" fill="rgb(255,255,255)" stroke="rgb(0,0,0)" stroke-width="0.0010cm" stroke-linecap="round" stroke-linejoin="round" shaper:cutDepth="0.03cm" /><path d="M-4.7483825,4.4926199 a0.5,0.5 0 1,1 1,0 a0.5,0.5 0 1,1 -1,0z" transform="matrix(1,0,0,-1,7.6471845,13.6826137)" fill="rgb(255,255,255)" stroke="rgb(0,0,0)" stroke-width="0.0010cm" stroke-linecap="round" stroke-linejoin="round" shaper:cutDepth="0.03cm" /><path d="M-0.1962986,-2.5528591 a0.5,0.5 0 1,1 1,0 a0.5,0.5 0 1,1 -1,0z" transform="matrix(1,0,0,-1,7.6471845,13.6826137)" fill="rgb(255,255,255)" stroke="rgb(0,0,0)" stroke-width="0.0010cm" stroke-linecap="round" stroke-linejoin="round" shaper:cutDepth="0.03cm" /><path d="M-1.1207819,-5.9221694 a0.5,0.5 0 1,1 1,0 a0.5,0.5 0 1,1 -1,0z" transform="matrix(1,0,0,-1,7.6471845,13.6826137)" fill="rgb(255,255,255)" stroke="rgb(0,0,0)" stroke-width="0.0010cm" stroke-linecap="round" stroke-linejoin="round" shaper:cutDepth="0.03cm" /><path d="M-5.2215863,5.9654428 a0.5,0.5 0 1,1 1,0 a0.5,0.5 0 1,1 -1,0z" transform="matrix(1,0,0,-1,7.6471845,13.6826137)" fill="rgb(255,255,255)" stroke="rgb(0,0,0)" stroke-width="0.0010cm" stroke-linecap="round" stroke-linejoin="round" shaper:cutDepth="0.03cm" /><path d="M-0.7399569,-10.6543508 a0.5,0.5 0 1,1 1,0 a0.5,0.5 0 1,1 -1,0z" transform="matrix(1,0,0,-1,7.6471845,13.6826137)" fill="rgb(255,255,255)" stroke="rgb(0,0,0)" stroke-width="0.0010cm" stroke-linecap="round" stroke-linejoin="round" shaper:cutDepth="0.03cm" /><path d="M-2.9976951,11.9421002 a0.5,0.5 0 1,1 1,0 a0.5,0.5 0 1,1 -1,0z" transform="matrix(1,0,0,-1,7.6471845,13.6826137)" fill="rgb(255,255,255)" stroke="rgb(0,0,0)" stroke-width="0.0010cm" stroke-linecap="round" stroke-linejoin="round" shaper:cutDepth="0.03cm" /><path d="M0.6588159,-10.5957441 a0.5,0.5 0 1,1 1,0 a0.5,0.5 0 1,1 -1,0z" transform="matrix(1,0,0,-1,7.6471845,13.6826137)" fill="rgb(255,255,255)" stroke="rgb(0,0,0)" stroke-width="0.0010cm" stroke-linecap="round" stroke-linejoin="round" shaper:cutDepth="0.03cm" /><path d="M-6.2803768,8.8723153 a0.5,0.5 0 1,1 1,0 a0.5,0.5 0 1,1 -1,0z" transform="matrix(1,0,0,-1,7.6471845,13.6826137)" fill="rgb(255,255,255)" stroke="rgb(0,0,0)" stroke-width="0.0010cm" stroke-linecap="round" stroke-linejoin="round" shaper:cutDepth="0.03cm" /><path d="M-0.9534385,-7.4961382 a0.5,0.5 0 1,1 1,0 a0.5,0.5 0 1,1 -1,0z" transform="matrix(1,0,0,-1,7.6471845,13.6826137)" fill="rgb(255,255,255)" stroke="rgb(0,0,0)" stroke-width="0.0010cm" stroke-linecap="round" stroke-linejoin="round" shaper:cutDepth="0.03cm" /><path d="M1.8344325,-7.2358011 a0.5,0.5 0 1,1 1,0 a0.5,0.5 0 1,1 -1,0z" transform="matrix(1,0,0,-1,7.6471845,13.6826137)" fill="rgb(255,255,255)" stroke="rgb(0,0,0)" stroke-width="0.0010cm" stroke-linecap="round" stroke-linejoin="round" shaper:cutDepth="0.03cm" /><path d="M-0.7335733,5.7260325 a0.5,0.5 0 1,1 1,0 a0.5,0.5 0 1,1 -1,0z" transform="matrix(1,0,0,-1,7.6471845,13.6826137)" fill="rgb(255,255,255)" stroke="rgb(0,0,0)" stroke-width="0.0010cm" stroke-linecap="round" stroke-linejoin="round" shaper:cutDepth="0.03cm" /><path d="M0.5404714,0.929735 a0.5,0.5 0 1,1 1,0 a0.5,0.5 0 1,1 -1,0z" transform="matrix(1,0,0,-1,7.6471845,13.6826137)" fill="rgb(255,255,255)" stroke="rgb(0,0,0)" stroke-width="0.0010cm" stroke-linecap="round" stroke-linejoin="round" shaper:cutDepth="0.03cm" /><path d="M-2.1913021,0.3153952 a0.5,0.5 0 1,1 1,0 a0.5,0.5 0 1,1 -1,0z" transform="matrix(1,0,0,-1,7.6471845,13.6826137)" fill="rgb(255,255,255)" stroke="rgb(0,0,0)" stroke-width="0.0010cm" stroke-linecap="round" stroke-linejoin="round" shaper:cutDepth="0.03cm" /><path d="M-3.9159107,1.5130334 a0.5,0.5 0 1,1 1,0 a0.5,0.5 0 1,1 -1,0z" transform="matrix(1,0,0,-1,7.6471845,13.6826137)" fill="rgb(255,255,255)" stroke="rgb(0,0,0)" stroke-width="0.0010cm" stroke-linecap="round" stroke-linejoin="round" shaper:cutDepth="0.03cm" /><path d="M-3.2371322,-1.5052782 a0.5,0.5 0 1,1 1,0 a0.5,0.5 0 1,1 -1,0z" transform="matrix(1,0,0,-1,7.6471845,13.6826137)" fill="rgb(255,255,255)" stroke="rgb(0,0,0)" stroke-width="0.0010cm" stroke-linecap="round" stroke-linejoin="round" shaper:cutDepth="0.03cm" /><path d="M-3.5571889,0.0082253 a0.5,0.5 0 1,1 1,0 a0.5,0.5 0 1,1 -1,0z" transform="matrix(1,0,0,-1,7.6471845,13.6826137)" fill="rgb(255,255,255)" stroke="rgb(0,0,0)" stroke-width="0.0010cm" stroke-linecap="round" stroke-linejoin="round" shaper:cutDepth="0.03cm" /><path d="M-2.071843,5.314895 a0.5,0.5 0 1,1 1,0 a0.5,0.5 0 1,1 -1,0z" transform="matrix(1,0,0,-1,7.6471845,13.6826137)" fill="rgb(255,255,255)" stroke="rgb(0,0,0)" stroke-width="0.0010cm" stroke-linecap="round" stroke-linejoin="round" shaper:cutDepth="0.03cm" /><path d="M0.440497,-7.3659697 a0.5,0.5 0 1,1 1,0 a0.5,0.5 0 1,1 -1,0z" transform="matrix(1,0,0,-1,7.6471845,13.6826137)" fill="rgb(255,255,255)" stroke="rgb(0,0,0)" stroke-width="0.0010cm" stroke-linecap="round" stroke-linejoin="round" shaper:cutDepth="0.03cm" /><path d="M-2.347374,-7.6263067 a0.5,0.5 0 1,1 1,0 a0.5,0.5 0 1,1 -1,0z" transform="matrix(1,0,0,-1,7.6471845,13.6826137)" fill="rgb(255,255,255)" stroke="rgb(0,0,0)" stroke-width="0.0010cm" stroke-linecap="round" stroke-linejoin="round" shaper:cutDepth="0.03cm" /><path d="M-4.2868863,11.3962192 a0.5,0.5 0 1,1 1,0 a0.5,0.5 0 1,1 -1,0z" transform="matrix(1,0,0,-1,7.6471845,13.6826137)" fill="rgb(255,255,255)" stroke="rgb(0,0,0)" stroke-width="0.0010cm" stroke-linecap="round" stroke-linejoin="round" shaper:cutDepth="0.03cm" /><path d="M-3.6748738,9.8976708 a0.5,0.5 0 1,1 1,0 a0.5,0.5 0 1,1 -1,0z" transform="matrix(1,0,0,-1,7.6471845,13.6826137)" fill="rgb(255,255,255)" stroke="rgb(0,0,0)" stroke-width="0.0010cm" stroke-linecap="round" stroke-linejoin="round" shaper:cutDepth="0.03cm" /><path d="M-0.8264691,-9.0738771 a0.5,0.5 0 1,1 1,0 a0.5,0.5 0 1,1 -1,0z" transform="matrix(1,0,0,-1,7.6471845,13.6826137)" fill="rgb(255,255,255)" stroke="rgb(0,0,0)" stroke-width="0.0010cm" stroke-linecap="round" stroke-linejoin="round" shaper:cutDepth="0.03cm" /><path d="M-6.8652687,10.3044572 a0.5,0.5 0 1,1 1,0 a0.5,0.5 0 1,1 -1,0z" transform="matrix(1,0,0,-1,7.6471845,13.6826137)" fill="rgb(255,255,255)" stroke="rgb(0,0,0)" stroke-width="0.0010cm" stroke-linecap="round" stroke-linejoin="round" shaper:cutDepth="0.03cm" /><path d="M-3.8942874,6.4107267 a0.5,0.5 0 1,1 1,0 a0.5,0.5 0 1,1 -1,0z" transform="matrix(1,0,0,-1,7.6471845,13.6826137)" fill="rgb(255,255,255)" stroke="rgb(0,0,0)" stroke-width="0.0010cm" stroke-linecap="round" stroke-linejoin="round" shaper:cutDepth="0.03cm" /><path d="M1.6595054,-5.5905033 a0.5,0.5 0 1,1 1,0 a0.5,0.5 0 1,1 -1,0z" transform="matrix(1,0,0,-1,7.6471845,13.6826137)" fill="rgb(255,255,255)" stroke="rgb(0,0,0)" stroke-width="0.0010cm" stroke-linecap="round" stroke-linejoin="round" shaper:cutDepth="0.03cm" /><path d="M1.4424896,-3.9502264 a0.5,0.5 0 1,1 1,0 a0.5,0.5 0 1,1 -1,0z" transform="matrix(1,0,0,-1,7.6471845,13.6826137)" fill="rgb(255,255,255)" stroke="rgb(0,0,0)" stroke-width="0.0010cm" stroke-linecap="round" stroke-linejoin="round" shaper:cutDepth="0.03cm" /><path d="M1.1835275,-2.3160468 a0.5,0.5 0 1,1 1,0 a0.5,0.5 0 1,1 -1,0z" transform="matrix(1,0,0,-1,7.6471845,13.6826137)" fill="rgb(255,255,255)" stroke="rgb(0,0,0)" stroke-width="0.0010cm" stroke-linecap="round" stroke-linejoin="round" shaper:cutDepth="0.03cm" /><path d="M-4.3130621,3.0081587 a0.5,0.5 0 1,1 1,0 a0.5,0.5 0 1,1 -1,0z" transform="matrix(1,0,0,-1,7.6471845,13.6826137)" fill="rgb(255,255,255)" stroke="rgb(0,0,0)" stroke-width="0.0010cm" stroke-linecap="round" stroke-linejoin="round" shaper:cutDepth="0.03cm" /><path d="M-2.9646997,3.38488 a0.5,0.5 0 1,1 1,0 a0.5,0.5 0 1,1 -1,0z" transform="matrix(1,0,0,-1,7.6471845,13.6826137)" fill="rgb(255,255,255)" stroke="rgb(0,0,0)" stroke-width="0.0010cm" stroke-linecap="round" stroke-linejoin="round" shaper:cutDepth="0.03cm" /><path d="M-1.5761246,-2.7896713 a0.5,0.5 0 1,1 1,0 a0.5,0.5 0 1,1 -1,0z" transform="matrix(1,0,0,-1,7.6471845,13.6826137)" fill="rgb(255,255,255)" stroke="rgb(0,0,0)" stroke-width="0.0010cm" stroke-linecap="round" stroke-linejoin="round" shaper:cutDepth="0.03cm" /><path d="M0.0570501,-4.1516151 a0.5,0.5 0 1,1 1,0 a0.5,0.5 0 1,1 -1,0z" transform="matrix(1,0,0,-1,7.6471845,13.6826137)" fill="rgb(255,255,255)" stroke="rgb(0,0,0)" stroke-width="0.0010cm" stroke-linecap="round" stroke-linejoin="round" shaper:cutDepth="0.03cm" /><path d="M-2.5583406,1.8550913 a0.5,0.5 0 1,1 1,0 a0.5,0.5 0 1,1 -1,0z" transform="matrix(1,0,0,-1,7.6471845,13.6826137)" fill="rgb(255,255,255)" stroke="rgb(0,0,0)" stroke-width="0.0010cm" stroke-linecap="round" stroke-linejoin="round" shaper:cutDepth="0.03cm" /><path d="M-2.5669886,6.8560106 a0.5,0.5 0 1,1 1,0 a0.5,0.5 0 1,1 -1,0z" transform="matrix(1,0,0,-1,7.6471845,13.6826137)" fill="rgb(255,255,255)" stroke="rgb(0,0,0)" stroke-width="0.0010cm" stroke-linecap="round" stroke-linejoin="round" shaper:cutDepth="0.03cm" /><path d="M-1.2396897,7.3012945 a0.5,0.5 0 1,1 1,0 a0.5,0.5 0 1,1 -1,0z" transform="matrix(1,0,0,-1,7.6471845,13.6826137)" fill="rgb(255,255,255)" stroke="rgb(0,0,0)" stroke-width="0.0010cm" stroke-linecap="round" stroke-linejoin="round" shaper:cutDepth="0.03cm" /><path d="M-2.3721223,10.4103486 a0.5,0.5 0 1,1 1,0 a0.5,0.5 0 1,1 -1,0z" transform="matrix(1,0,0,-1,7.6471845,13.6826137)" fill="rgb(255,255,255)" stroke="rgb(0,0,0)" stroke-width="0.0010cm" stroke-linecap="round" stroke-linejoin="round" shaper:cutDepth="0.03cm" /><path d="M-5.5760775,10.8503382 a0.5,0.5 0 1,1 1,0 a0.5,0.5 0 1,1 -1,0z" transform="matrix(1,0,0,-1,7.6471845,13.6826137)" fill="rgb(255,255,255)" stroke="rgb(0,0,0)" stroke-width="0.0010cm" stroke-linecap="round" stroke-linejoin="round" shaper:cutDepth="0.03cm" /><path d="M-2.2232816,-9.1682956 a0.5,0.5 0 1,1 1,0 a0.5,0.5 0 1,1 -1,0z" transform="matrix(1,0,0,-1,7.6471845,13.6826137)" fill="rgb(255,255,255)" stroke="rgb(0,0,0)" stroke-width="0.0010cm" stroke-linecap="round" stroke-linejoin="round" shaper:cutDepth="0.03cm" /><path d="M-1.7859922,8.8630749 a0.5,0.5 0 1,1 1,0 a0.5,0.5 0 1,1 -1,0z" transform="matrix(1,0,0,-1,7.6471845,13.6826137)" fill="rgb(255,255,255)" stroke="rgb(0,0,0)" stroke-width="0.0010cm" stroke-linecap="round" stroke-linejoin="round" shaper:cutDepth="0.03cm" /><path d="M-4.4169059,7.9047988 a0.5,0.5 0 1,1 1,0 a0.5,0.5 0 1,1 -1,0z" transform="matrix(1,0,0,-1,7.6471845,13.6826137)" fill="rgb(255,255,255)" stroke="rgb(0,0,0)" stroke-width="0.0010cm" stroke-linecap="round" stroke-linejoin="round" shaper:cutDepth="0.03cm" /><path d="M-2.7138288,-4.5543926 a0.5,0.5 0 1,1 1,0 a0.5,0.5 0 1,1 -1,0z" transform="matrix(1,0,0,-1,7.6471845,13.6826137)" fill="rgb(255,255,255)" stroke="rgb(0,0,0)" stroke-width="0.0010cm" stroke-linecap="round" stroke-linejoin="round" shaper:cutDepth="0.03cm" /><path d="M-1.3283893,-4.3530039 a0.5,0.5 0 1,1 1,0 a0.5,0.5 0 1,1 -1,0z" transform="matrix(1,0,0,-1,7.6471845,13.6826137)" fill="rgb(255,255,255)" stroke="rgb(0,0,0)" stroke-width="0.0010cm" stroke-linecap="round" stroke-linejoin="round" shaper:cutDepth="0.03cm" /><path d="M-0.4905181,-0.9611175 a0.5,0.5 0 1,1 1,0 a0.5,0.5 0 1,1 -1,0z" transform="matrix(1,0,0,-1,7.6471845,13.6826137)" fill="rgb(255,255,255)" stroke="rgb(0,0,0)" stroke-width="0.0010cm" stroke-linecap="round" stroke-linejoin="round" shaper:cutDepth="0.03cm" /><path d="M-2.1387296,-10.7129574 a0.5,0.5 0 1,1 1,0 a0.5,0.5 0 1,1 -1,0z" transform="matrix(1,0,0,-1,7.6471845,13.6826137)" fill="rgb(255,255,255)" stroke="rgb(0,0,0)" stroke-width="0.0010cm" stroke-linecap="round" stroke-linejoin="round" shaper:cutDepth="0.03cm" /></svg>