<?xml version="1.0" encoding="UTF-8"?><svg id="Layer_1" xmlns="http://www.w3.org/2000/svg" width="805.69" height="374.58" viewBox="0 0 805.69 374.58"><defs><style>.cls-1{fill:none;stroke:#000;stroke-miterlimit:10;}</style></defs><path class="cls-1" d="M42.39,345.68l11.64-.43,11.62-.48,11.61-.54,11.6-.6,11.58-.66,11.57-.71,11.55-.77,11.54-.83,11.52-.89,11.51-.95,11.5-1.01,11.48-1.07,11.47-1.14,11.45-1.2,11.43-1.26,11.42-1.33,11.4-1.39,5.7-.72,5.69-.74,5.69-.75,5.68-.77,5.68-.79,5.68-.8,5.67-.82,5.67-.84,5.66-.86,5.66-.87,5.65-.89,5.65-.91,5.65-.93,5.64-.94,5.64-.96,5.63-.98,5.63-1,5.62-1.02,5.62-1.03,5.61-1.05,5.61-1.07,5.61-1.09,5.6-1.11,5.6-1.13,5.59-1.15,5.59-1.16,5.58-1.18,5.58-1.2,5.57-1.22,5.57-1.24,5.56-1.26,5.56-1.28,5.56-1.29,5.55-1.31,5.55-1.33,5.54-1.35,5.54-1.37,5.53-1.39,5.53-1.41,5.52-1.42,5.52-1.44,5.52-1.46,5.51-1.48,5.51-1.5,5.5-1.52,5.5-1.53,5.49-1.55,5.49-1.57,5.48-1.59,5.48-1.61,5.48-1.62,5.47-1.64,5.47-1.66,5.46-1.67,5.46-1.69,5.46-1.71,5.45-1.73,5.45-1.74,5.44-1.76,5.44-1.78,10.87-3.6,10.85-3.67,10.83-3.73,10.82-3.8,10.8-3.86,10.79-3.92,10.77-3.98,10.76-4.04,10.74-4.1,10.73-4.16,10.71-4.22,10.7-4.28,10.69-4.34,10.67-4.4,10.66-4.45,10.64-4.51,10.63-4.57c7.18-3.11,10.49-11.45,7.38-18.64-.03-.08-.07-.15-.1-.23l-58.62-129.05c-3.19-7.03-11.43-10.21-18.52-7.15l-9.64,4.13-9.65,4.08-9.66,4.03-9.67,3.98-9.68,3.92-9.7,3.87-9.71,3.82-9.72,3.77-9.73,3.71-9.74,3.66-9.76,3.6-9.77,3.55-9.78,3.49-9.79,3.43-9.81,3.38-9.82,3.32-9.83,3.26-9.85,3.2-9.86,3.14-9.87,3.08-9.89,3.02-9.9,2.95-9.92,2.89-9.93,2.83-9.95,2.76-9.96,2.7-9.97,2.63-4.99,1.29-5,1.27-5,1.26-5,1.24-5.01,1.22-5.01,1.21-5.02,1.19-5.02,1.17-5.02,1.16-5.03,1.14-5.03,1.12-5.03,1.11-5.04,1.09-5.04,1.07-5.05,1.06-5.05,1.04-5.05,1.02-5.06,1-5.06.99-5.06.97-10.14,1.89-10.16,1.83-10.17,1.76-10.18,1.7-10.2,1.63-10.21,1.57-10.23,1.51-10.24,1.45-10.26,1.39-10.27,1.32-10.28,1.27-10.3,1.21-10.31,1.15-10.32,1.09-10.33,1.03-10.35.98-10.36.92-10.37.87-10.38.81-10.4.76-10.41.71-10.42.65-10.43.6-10.44.55-10.46.5-10.47.45-10.48.39c-7.63.27-13.68,6.53-13.68,14.16v141.75c0,7.83,6.35,14.17,14.17,14.17.16,0,.32,0,.48,0Z"/></svg>