%TF.GenerationSoftware,KiCad,Pcbnew,9.0.1*%
%TF.CreationDate,2025-11-02T14:12:38-06:00*%
%TF.ProjectId,OM-FlexGrid-Rigid-PCB,4f4d2d46-6c65-4784-9772-69642d526967,rev?*%
%TF.SameCoordinates,Original*%
%TF.FileFunction,Legend,Top*%
%TF.FilePolarity,Positive*%
%FSLAX46Y46*%
G04 Gerber Fmt 4.6, Leading zero omitted, Abs format (unit mm)*
G04 Created by KiCad (PCBNEW 9.0.1) date 2025-11-02 14:12:38*
%MOMM*%
%LPD*%
G01*
G04 APERTURE LIST*
%ADD10C,0.000000*%
%ADD11C,0.100000*%
%ADD12C,0.101600*%
%ADD13C,0.150000*%
%ADD14C,0.254000*%
%ADD15C,0.120000*%
%ADD16C,0.200000*%
G04 APERTURE END LIST*
D10*
G36*
X201617371Y-113793455D02*
G01*
X200997716Y-113793455D01*
X200997716Y-114094551D01*
X201529000Y-114094551D01*
X201529000Y-114403584D01*
X200997716Y-114403584D01*
X200997716Y-114722142D01*
X201617371Y-114722142D01*
X201617371Y-115030117D01*
X200688154Y-115030117D01*
X200688154Y-113488655D01*
X201617371Y-113488655D01*
X201617371Y-113793455D01*
G37*
G36*
X200000004Y-113489336D02*
G01*
X200027460Y-113491358D01*
X200054524Y-113494686D01*
X200081162Y-113499288D01*
X200107340Y-113505130D01*
X200133023Y-113512179D01*
X200158177Y-113520402D01*
X200182767Y-113529765D01*
X200206758Y-113540234D01*
X200230116Y-113551778D01*
X200252807Y-113564361D01*
X200274796Y-113577952D01*
X200296049Y-113592516D01*
X200316530Y-113608020D01*
X200336207Y-113624432D01*
X200355043Y-113641716D01*
X200373006Y-113659842D01*
X200390059Y-113678774D01*
X200406169Y-113698479D01*
X200421301Y-113718925D01*
X200435421Y-113740078D01*
X200448494Y-113761904D01*
X200460485Y-113784371D01*
X200471361Y-113807445D01*
X200481086Y-113831092D01*
X200489627Y-113855280D01*
X200496948Y-113879974D01*
X200503016Y-113905142D01*
X200507795Y-113930751D01*
X200511251Y-113956766D01*
X200513351Y-113983155D01*
X200514058Y-114009884D01*
X200513349Y-114036607D01*
X200511246Y-114062979D01*
X200507782Y-114088965D01*
X200502994Y-114114535D01*
X200496916Y-114139655D01*
X200489582Y-114164293D01*
X200481027Y-114188417D01*
X200471286Y-114211993D01*
X200460395Y-114234989D01*
X200448387Y-114257373D01*
X200435298Y-114279112D01*
X200421161Y-114300173D01*
X200406013Y-114320525D01*
X200389888Y-114340134D01*
X200372820Y-114358968D01*
X200354845Y-114376994D01*
X200335997Y-114394179D01*
X200316311Y-114410492D01*
X200295821Y-114425900D01*
X200274564Y-114440370D01*
X200252572Y-114453869D01*
X200229882Y-114466365D01*
X200206527Y-114477825D01*
X200182543Y-114488218D01*
X200157965Y-114497510D01*
X200132827Y-114505668D01*
X200107164Y-114512661D01*
X200081011Y-114518455D01*
X200054402Y-114523018D01*
X200027373Y-114526318D01*
X199999958Y-114528322D01*
X199972192Y-114528997D01*
X199740946Y-114528997D01*
X199740946Y-115030118D01*
X199431383Y-115030118D01*
X199431383Y-114222080D01*
X199431383Y-113795572D01*
X199740416Y-113795572D01*
X199740416Y-114222080D01*
X199971662Y-114223138D01*
X199983595Y-114222952D01*
X199995374Y-114222202D01*
X200006984Y-114220904D01*
X200018411Y-114219070D01*
X200029639Y-114216716D01*
X200040653Y-114213855D01*
X200051440Y-114210501D01*
X200061984Y-114206668D01*
X200072271Y-114202370D01*
X200082286Y-114197621D01*
X200092014Y-114192434D01*
X200101440Y-114186824D01*
X200110550Y-114180805D01*
X200119330Y-114174391D01*
X200127763Y-114167595D01*
X200135836Y-114160432D01*
X200143534Y-114152916D01*
X200150842Y-114145059D01*
X200157745Y-114136878D01*
X200164229Y-114128384D01*
X200170279Y-114119594D01*
X200175880Y-114110519D01*
X200181018Y-114101175D01*
X200185677Y-114091574D01*
X200189843Y-114081732D01*
X200193502Y-114071662D01*
X200196638Y-114061379D01*
X200199237Y-114050895D01*
X200201284Y-114040225D01*
X200202764Y-114029383D01*
X200203663Y-114018383D01*
X200203966Y-114007238D01*
X200203966Y-114006709D01*
X200203663Y-113995861D01*
X200202764Y-113985153D01*
X200201284Y-113974599D01*
X200199237Y-113964213D01*
X200196638Y-113954006D01*
X200193502Y-113943994D01*
X200189843Y-113934190D01*
X200185677Y-113924606D01*
X200181018Y-113915256D01*
X200175880Y-113906153D01*
X200170279Y-113897312D01*
X200164229Y-113888744D01*
X200157745Y-113880464D01*
X200150842Y-113872486D01*
X200143534Y-113864821D01*
X200135836Y-113857484D01*
X200127763Y-113850488D01*
X200119330Y-113843847D01*
X200110550Y-113837573D01*
X200101440Y-113831681D01*
X200092014Y-113826183D01*
X200082286Y-113821093D01*
X200072271Y-113816425D01*
X200061984Y-113812191D01*
X200051440Y-113808405D01*
X200040653Y-113805080D01*
X200029639Y-113802231D01*
X200018411Y-113799869D01*
X200006984Y-113798009D01*
X199995374Y-113796664D01*
X199983595Y-113795847D01*
X199971662Y-113795572D01*
X199740416Y-113795572D01*
X199431383Y-113795572D01*
X199431383Y-113488655D01*
X199972191Y-113488655D01*
X200000004Y-113489336D01*
G37*
G36*
X202773070Y-114347492D02*
G01*
X202773070Y-113484422D01*
X203083691Y-113484422D01*
X203083691Y-115058163D01*
X203069404Y-115058163D01*
X202154475Y-114168105D01*
X202154475Y-115031176D01*
X201844912Y-115031176D01*
X201844912Y-113459551D01*
X201860258Y-113459551D01*
X202773070Y-114347492D01*
G37*
G36*
X198468591Y-113457955D02*
G01*
X198509117Y-113461072D01*
X198549080Y-113466204D01*
X198588429Y-113473299D01*
X198627111Y-113482306D01*
X198665074Y-113493175D01*
X198702267Y-113505853D01*
X198738638Y-113520289D01*
X198774134Y-113536432D01*
X198808704Y-113554231D01*
X198842295Y-113573634D01*
X198874857Y-113594590D01*
X198906336Y-113617047D01*
X198936681Y-113640954D01*
X198965841Y-113666260D01*
X198993762Y-113692913D01*
X199020394Y-113720863D01*
X199045684Y-113750057D01*
X199069580Y-113780444D01*
X199092030Y-113811974D01*
X199112983Y-113844594D01*
X199132386Y-113878253D01*
X199150188Y-113912900D01*
X199166337Y-113948484D01*
X199180780Y-113984953D01*
X199193466Y-114022256D01*
X199204343Y-114060342D01*
X199213358Y-114099158D01*
X199220461Y-114138655D01*
X199225598Y-114178779D01*
X199228719Y-114219481D01*
X199229771Y-114260709D01*
X199228720Y-114301922D01*
X199225604Y-114342579D01*
X199220472Y-114382633D01*
X199213378Y-114422033D01*
X199204371Y-114460729D01*
X199193504Y-114498674D01*
X199180828Y-114535816D01*
X199166395Y-114572107D01*
X199150255Y-114607497D01*
X199132461Y-114641938D01*
X199113063Y-114675378D01*
X199092114Y-114707770D01*
X199069664Y-114739063D01*
X199045766Y-114769209D01*
X199020470Y-114798157D01*
X198993828Y-114825859D01*
X198965892Y-114852265D01*
X198936713Y-114877325D01*
X198906342Y-114900990D01*
X198874831Y-114923211D01*
X198842231Y-114943939D01*
X198808594Y-114963123D01*
X198773972Y-114980714D01*
X198738415Y-114996664D01*
X198701975Y-115010922D01*
X198664703Y-115023440D01*
X198626652Y-115034167D01*
X198587872Y-115043055D01*
X198548415Y-115050054D01*
X198508332Y-115055114D01*
X198467675Y-115058186D01*
X198426496Y-115059221D01*
X198385325Y-115058177D01*
X198344695Y-115055079D01*
X198304655Y-115049978D01*
X198265256Y-115042925D01*
X198226548Y-115033971D01*
X198188581Y-115023168D01*
X198151406Y-115010566D01*
X198115073Y-114996218D01*
X198079632Y-114980173D01*
X198045133Y-114962483D01*
X198011627Y-114943200D01*
X197979165Y-114922374D01*
X197947795Y-114900057D01*
X197917570Y-114876299D01*
X197888538Y-114851153D01*
X197860750Y-114824668D01*
X197834257Y-114796897D01*
X197809109Y-114767890D01*
X197785356Y-114737699D01*
X197763048Y-114706375D01*
X197742236Y-114673968D01*
X197722969Y-114640531D01*
X197705299Y-114606114D01*
X197689276Y-114570768D01*
X197674949Y-114534544D01*
X197662369Y-114497495D01*
X197651587Y-114459670D01*
X197642652Y-114421121D01*
X197635615Y-114381899D01*
X197630527Y-114342056D01*
X197627437Y-114301642D01*
X197626396Y-114260709D01*
X197626436Y-114259122D01*
X197939133Y-114259122D01*
X197939770Y-114284262D01*
X197941659Y-114309063D01*
X197944770Y-114333494D01*
X197949071Y-114357524D01*
X197954531Y-114381124D01*
X197961119Y-114404264D01*
X197968804Y-114426913D01*
X197977556Y-114449043D01*
X197987342Y-114470622D01*
X197998131Y-114491620D01*
X198009894Y-114512008D01*
X198022598Y-114531756D01*
X198036212Y-114550833D01*
X198050706Y-114569210D01*
X198066048Y-114586856D01*
X198082207Y-114603741D01*
X198099151Y-114619836D01*
X198116851Y-114635110D01*
X198135275Y-114649534D01*
X198154391Y-114663076D01*
X198174169Y-114675708D01*
X198194578Y-114687399D01*
X198215585Y-114698119D01*
X198237161Y-114707838D01*
X198259275Y-114716527D01*
X198281894Y-114724154D01*
X198304988Y-114730690D01*
X198328526Y-114736105D01*
X198352477Y-114740370D01*
X198376810Y-114743453D01*
X198401493Y-114745324D01*
X198426496Y-114745955D01*
X198451504Y-114745318D01*
X198476205Y-114743429D01*
X198500566Y-114740319D01*
X198524556Y-114736019D01*
X198548142Y-114730559D01*
X198571293Y-114723973D01*
X198593976Y-114716289D01*
X198616160Y-114707541D01*
X198637814Y-114697758D01*
X198658904Y-114686973D01*
X198679400Y-114675216D01*
X198699270Y-114662518D01*
X198718480Y-114648911D01*
X198737001Y-114634427D01*
X198754799Y-114619095D01*
X198771843Y-114602948D01*
X198788101Y-114586016D01*
X198803541Y-114568331D01*
X198818132Y-114549924D01*
X198831840Y-114530826D01*
X198844636Y-114511068D01*
X198856485Y-114490682D01*
X198867358Y-114469699D01*
X198877222Y-114448150D01*
X198886044Y-114426066D01*
X198893794Y-114403478D01*
X198900438Y-114380418D01*
X198905946Y-114356916D01*
X198910286Y-114333005D01*
X198913425Y-114308714D01*
X198915332Y-114284076D01*
X198915975Y-114259122D01*
X198916504Y-114259122D01*
X198915864Y-114234020D01*
X198913966Y-114209238D01*
X198910840Y-114184807D01*
X198906519Y-114160758D01*
X198901033Y-114137122D01*
X198894413Y-114113932D01*
X198886692Y-114091217D01*
X198877900Y-114069010D01*
X198868068Y-114047342D01*
X198857228Y-114026244D01*
X198845411Y-114005747D01*
X198832649Y-113985882D01*
X198818972Y-113966682D01*
X198804412Y-113948177D01*
X198789001Y-113930398D01*
X198772769Y-113913377D01*
X198755748Y-113897146D01*
X198737969Y-113881734D01*
X198719464Y-113867175D01*
X198700264Y-113853498D01*
X198680400Y-113840735D01*
X198659903Y-113828919D01*
X198638804Y-113818079D01*
X198617136Y-113808247D01*
X198594929Y-113799455D01*
X198572215Y-113791733D01*
X198549024Y-113785113D01*
X198525389Y-113779627D01*
X198501340Y-113775306D01*
X198476909Y-113772180D01*
X198452127Y-113770282D01*
X198427025Y-113769642D01*
X198401928Y-113770281D01*
X198377159Y-113772175D01*
X198352749Y-113775293D01*
X198328729Y-113779606D01*
X198305129Y-113785081D01*
X198281981Y-113791688D01*
X198259315Y-113799395D01*
X198237161Y-113808172D01*
X198215551Y-113817988D01*
X198194515Y-113828812D01*
X198174084Y-113840612D01*
X198154288Y-113853358D01*
X198135158Y-113867019D01*
X198116726Y-113881563D01*
X198099021Y-113896960D01*
X198082074Y-113913179D01*
X198065917Y-113930188D01*
X198050579Y-113947957D01*
X198036092Y-113966455D01*
X198022486Y-113985650D01*
X198009792Y-114005512D01*
X197998041Y-114026009D01*
X197987263Y-114047111D01*
X197977489Y-114068787D01*
X197968751Y-114091005D01*
X197961077Y-114113735D01*
X197954500Y-114136946D01*
X197949050Y-114160606D01*
X197944757Y-114184684D01*
X197941653Y-114209151D01*
X197939768Y-114233973D01*
X197939133Y-114259122D01*
X197626436Y-114259122D01*
X197627444Y-114219481D01*
X197630556Y-114178779D01*
X197635679Y-114138655D01*
X197642763Y-114099158D01*
X197651754Y-114060342D01*
X197662603Y-114022256D01*
X197675257Y-113984953D01*
X197689664Y-113948484D01*
X197705774Y-113912900D01*
X197723534Y-113878253D01*
X197742894Y-113844594D01*
X197763801Y-113811974D01*
X197786204Y-113780444D01*
X197810052Y-113750057D01*
X197835293Y-113720863D01*
X197861875Y-113692913D01*
X197889747Y-113666260D01*
X197918857Y-113640954D01*
X197949154Y-113617047D01*
X197980586Y-113594590D01*
X198013102Y-113573634D01*
X198046650Y-113554231D01*
X198081178Y-113536432D01*
X198116635Y-113520289D01*
X198152970Y-113505853D01*
X198190131Y-113493175D01*
X198228066Y-113482306D01*
X198266725Y-113473299D01*
X198306054Y-113466204D01*
X198346003Y-113461072D01*
X198386520Y-113457955D01*
X198427554Y-113456905D01*
X198468591Y-113457955D01*
G37*
G36*
X205668670Y-115904830D02*
G01*
X205049015Y-115904830D01*
X205049015Y-116047176D01*
X205580298Y-116047176D01*
X205580298Y-116514959D01*
X205049015Y-116514959D01*
X205049015Y-116674767D01*
X205668670Y-116674767D01*
X205668670Y-117140963D01*
X204580703Y-117140963D01*
X204580703Y-116982213D01*
X204739453Y-116982213D01*
X205509920Y-116982213D01*
X205509920Y-116832988D01*
X204890265Y-116832988D01*
X204890265Y-116355680D01*
X205421549Y-116355680D01*
X205421549Y-116205397D01*
X204890265Y-116205397D01*
X204890265Y-115745551D01*
X205509920Y-115745551D01*
X205509920Y-115599501D01*
X204739453Y-115599501D01*
X204739453Y-116981685D01*
X204739453Y-116982213D01*
X204580703Y-116982213D01*
X204580703Y-116981685D01*
X204580703Y-115441280D01*
X205668670Y-115441280D01*
X205668670Y-115904830D01*
G37*
G36*
X198448721Y-116364676D02*
G01*
X199145104Y-115402651D01*
X199282158Y-115402651D01*
X199282158Y-117140963D01*
X198814375Y-117140963D01*
X198814375Y-116646193D01*
X198492112Y-117115034D01*
X198408504Y-117115034D01*
X198383104Y-117080638D01*
X198083066Y-116645663D01*
X198083066Y-117140963D01*
X197614225Y-117140963D01*
X197614225Y-116982213D01*
X197614225Y-115703217D01*
X197772975Y-115703217D01*
X197772975Y-116982213D01*
X197923787Y-116982213D01*
X197923787Y-116135547D01*
X198448721Y-116897547D01*
X198972596Y-116135018D01*
X198972596Y-116982213D01*
X199123408Y-116982213D01*
X199123408Y-115703218D01*
X198448721Y-116635609D01*
X197772975Y-115703217D01*
X197614225Y-115703217D01*
X197614225Y-115402651D01*
X197751279Y-115402651D01*
X198448721Y-116364676D01*
G37*
G36*
X202883336Y-115411111D02*
G01*
X202923816Y-115414661D01*
X202963822Y-115420179D01*
X203003349Y-115427662D01*
X203042389Y-115437108D01*
X203080935Y-115448514D01*
X203118980Y-115461878D01*
X203156518Y-115477197D01*
X203193541Y-115494470D01*
X203230042Y-115513694D01*
X203266015Y-115534867D01*
X203301452Y-115557986D01*
X203336346Y-115583049D01*
X203370691Y-115610054D01*
X203404479Y-115638998D01*
X203437704Y-115669880D01*
X203477392Y-115708301D01*
X203477392Y-115441280D01*
X203945704Y-115441280D01*
X203945704Y-116674768D01*
X204565358Y-116674768D01*
X204565358Y-117140963D01*
X203477392Y-117140963D01*
X203477392Y-116982213D01*
X203636141Y-116982213D01*
X204406608Y-116982213D01*
X204406608Y-116832988D01*
X203786954Y-116832988D01*
X203786954Y-115599501D01*
X203636142Y-115599501D01*
X203636142Y-116981685D01*
X203636141Y-116982213D01*
X203477392Y-116982213D01*
X203477392Y-116872676D01*
X203438233Y-116911834D01*
X203404684Y-116943872D01*
X203370882Y-116973720D01*
X203336786Y-117001394D01*
X203302353Y-117026911D01*
X203267542Y-117050289D01*
X203232311Y-117071545D01*
X203196618Y-117090696D01*
X203160421Y-117107758D01*
X203123678Y-117122749D01*
X203086348Y-117135686D01*
X203048388Y-117146586D01*
X203009757Y-117155466D01*
X202970413Y-117162343D01*
X202930314Y-117167234D01*
X202889418Y-117170156D01*
X202847684Y-117171126D01*
X202848212Y-117170596D01*
X202802700Y-117169451D01*
X202757780Y-117166051D01*
X202713509Y-117160452D01*
X202669942Y-117152711D01*
X202627134Y-117142883D01*
X202585143Y-117131023D01*
X202544024Y-117117188D01*
X202503832Y-117101433D01*
X202464624Y-117083813D01*
X202426455Y-117064385D01*
X202389382Y-117043204D01*
X202353461Y-117020326D01*
X202318746Y-116995807D01*
X202285295Y-116969702D01*
X202253163Y-116942067D01*
X202222406Y-116912958D01*
X202193080Y-116882431D01*
X202165241Y-116850540D01*
X202138944Y-116817343D01*
X202114246Y-116782894D01*
X202091203Y-116747249D01*
X202069870Y-116710465D01*
X202050304Y-116672596D01*
X202032559Y-116633699D01*
X202016693Y-116593829D01*
X202002761Y-116553042D01*
X201990819Y-116511393D01*
X201980923Y-116468939D01*
X201973129Y-116425735D01*
X201967492Y-116381837D01*
X201964070Y-116337300D01*
X201962916Y-116292180D01*
X202121667Y-116292180D01*
X202122633Y-116328790D01*
X202125501Y-116364967D01*
X202130219Y-116400665D01*
X202136738Y-116435834D01*
X202145007Y-116470427D01*
X202154979Y-116504397D01*
X202166601Y-116537695D01*
X202179825Y-116570273D01*
X202194601Y-116602084D01*
X202210880Y-116633080D01*
X202228610Y-116663213D01*
X202247743Y-116692434D01*
X202268228Y-116720697D01*
X202290016Y-116747953D01*
X202313058Y-116774155D01*
X202337302Y-116799254D01*
X202362700Y-116823202D01*
X202389201Y-116845953D01*
X202416757Y-116867457D01*
X202445316Y-116887668D01*
X202474830Y-116906537D01*
X202505248Y-116924016D01*
X202536520Y-116940058D01*
X202568597Y-116954614D01*
X202601430Y-116967637D01*
X202634967Y-116979079D01*
X202669160Y-116988892D01*
X202703959Y-116997028D01*
X202739313Y-117003439D01*
X202775173Y-117008078D01*
X202811490Y-117010896D01*
X202848212Y-117011847D01*
X202878356Y-117011236D01*
X202907891Y-117009393D01*
X202936855Y-117006300D01*
X202965282Y-117001941D01*
X202993211Y-116996298D01*
X203020676Y-116989355D01*
X203047716Y-116981094D01*
X203074365Y-116971498D01*
X203100661Y-116960550D01*
X203126640Y-116948233D01*
X203152338Y-116934530D01*
X203177792Y-116919424D01*
X203203039Y-116902898D01*
X203228114Y-116884935D01*
X203253054Y-116865518D01*
X203277896Y-116844630D01*
X203191642Y-116722921D01*
X203170260Y-116739460D01*
X203148781Y-116754942D01*
X203127206Y-116769367D01*
X203105536Y-116782734D01*
X203083774Y-116795040D01*
X203061920Y-116806284D01*
X203039975Y-116816464D01*
X203017943Y-116825580D01*
X202995824Y-116833629D01*
X202973619Y-116840609D01*
X202951331Y-116846520D01*
X202928960Y-116851360D01*
X202906509Y-116855127D01*
X202883979Y-116857820D01*
X202861371Y-116859436D01*
X202838688Y-116859975D01*
X202813704Y-116859299D01*
X202788600Y-116857285D01*
X202763436Y-116853958D01*
X202738272Y-116849341D01*
X202713168Y-116843460D01*
X202688183Y-116836336D01*
X202663378Y-116827995D01*
X202638812Y-116818461D01*
X202614545Y-116807756D01*
X202590637Y-116795906D01*
X202567148Y-116782935D01*
X202544138Y-116768865D01*
X202521667Y-116753721D01*
X202499795Y-116737527D01*
X202478580Y-116720307D01*
X202458085Y-116702085D01*
X202438367Y-116682885D01*
X202419488Y-116662731D01*
X202401506Y-116641646D01*
X202384483Y-116619654D01*
X202368477Y-116596780D01*
X202353549Y-116573048D01*
X202339759Y-116548481D01*
X202327166Y-116523103D01*
X202315830Y-116496939D01*
X202305811Y-116470011D01*
X202297169Y-116442345D01*
X202289965Y-116413963D01*
X202284257Y-116384891D01*
X202280106Y-116355152D01*
X202277571Y-116324769D01*
X202276727Y-116294297D01*
X202434933Y-116294297D01*
X202435549Y-116315951D01*
X202437369Y-116337242D01*
X202440348Y-116358150D01*
X202444446Y-116378653D01*
X202449617Y-116398730D01*
X202455820Y-116418359D01*
X202463011Y-116437519D01*
X202471148Y-116456189D01*
X202480187Y-116474347D01*
X202490085Y-116491972D01*
X202500799Y-116509043D01*
X202512286Y-116525538D01*
X202524504Y-116541437D01*
X202537409Y-116556717D01*
X202550958Y-116571358D01*
X202565108Y-116585338D01*
X202579816Y-116598636D01*
X202595039Y-116611231D01*
X202610735Y-116623101D01*
X202626859Y-116634224D01*
X202643370Y-116644581D01*
X202660223Y-116654148D01*
X202677377Y-116662906D01*
X202694787Y-116670832D01*
X202712411Y-116677906D01*
X202730207Y-116684105D01*
X202748130Y-116689409D01*
X202766138Y-116693797D01*
X202784188Y-116697247D01*
X202802236Y-116699737D01*
X202820241Y-116701247D01*
X202838158Y-116701755D01*
X202857582Y-116701165D01*
X202876964Y-116699394D01*
X202896314Y-116696436D01*
X202915640Y-116692288D01*
X202934950Y-116686947D01*
X202954253Y-116680408D01*
X202973558Y-116672667D01*
X202992873Y-116663721D01*
X203012207Y-116653566D01*
X203031568Y-116642198D01*
X203050964Y-116629613D01*
X203070405Y-116615807D01*
X203089898Y-116600776D01*
X203109452Y-116584517D01*
X203129077Y-116567025D01*
X203148779Y-116548297D01*
X203215454Y-116483209D01*
X203477392Y-116852279D01*
X203477392Y-115731736D01*
X203213337Y-116091626D01*
X203147721Y-116027597D01*
X203129635Y-116010464D01*
X203111306Y-115994391D01*
X203092753Y-115979386D01*
X203073993Y-115965453D01*
X203055043Y-115952599D01*
X203035923Y-115940830D01*
X203016649Y-115930152D01*
X202997239Y-115920573D01*
X202977711Y-115912097D01*
X202958083Y-115904731D01*
X202938374Y-115898481D01*
X202918600Y-115893354D01*
X202898779Y-115889355D01*
X202878930Y-115886491D01*
X202859069Y-115884768D01*
X202839216Y-115884192D01*
X202819434Y-115884759D01*
X202799794Y-115886438D01*
X202780330Y-115889196D01*
X202761073Y-115893002D01*
X202742055Y-115897824D01*
X202723307Y-115903629D01*
X202704862Y-115910384D01*
X202686750Y-115918059D01*
X202669005Y-115926621D01*
X202651657Y-115936037D01*
X202634738Y-115946275D01*
X202618281Y-115957304D01*
X202602317Y-115969091D01*
X202586877Y-115981604D01*
X202571994Y-115994811D01*
X202557700Y-116008679D01*
X202544025Y-116023177D01*
X202531003Y-116038271D01*
X202518664Y-116053931D01*
X202507040Y-116070124D01*
X202496164Y-116086818D01*
X202486067Y-116103980D01*
X202476780Y-116121579D01*
X202468337Y-116139582D01*
X202460767Y-116157956D01*
X202454104Y-116176671D01*
X202448379Y-116195694D01*
X202443623Y-116214992D01*
X202439869Y-116234533D01*
X202437148Y-116254286D01*
X202435492Y-116274218D01*
X202434933Y-116294297D01*
X202276727Y-116294297D01*
X202276713Y-116293767D01*
X202277476Y-116265458D01*
X202279740Y-116237411D01*
X202283461Y-116209667D01*
X202288599Y-116182269D01*
X202295113Y-116155258D01*
X202302961Y-116128676D01*
X202312102Y-116102565D01*
X202322494Y-116076966D01*
X202334096Y-116051921D01*
X202346867Y-116027473D01*
X202360765Y-116003662D01*
X202375749Y-115980530D01*
X202391777Y-115958120D01*
X202408808Y-115936473D01*
X202426802Y-115915631D01*
X202445715Y-115895635D01*
X202465508Y-115876528D01*
X202486138Y-115858351D01*
X202507565Y-115841145D01*
X202529746Y-115824953D01*
X202552641Y-115809817D01*
X202576209Y-115795778D01*
X202600406Y-115782877D01*
X202625194Y-115771157D01*
X202650529Y-115760660D01*
X202676371Y-115751427D01*
X202702678Y-115743499D01*
X202729410Y-115736920D01*
X202756523Y-115731729D01*
X202783978Y-115727970D01*
X202811733Y-115725684D01*
X202839746Y-115724913D01*
X202862639Y-115725433D01*
X202885468Y-115726988D01*
X202908222Y-115729573D01*
X202930887Y-115733181D01*
X202953449Y-115737806D01*
X202975896Y-115743442D01*
X202998214Y-115750083D01*
X203020390Y-115757721D01*
X203042412Y-115766352D01*
X203064265Y-115775969D01*
X203085936Y-115786566D01*
X203107413Y-115798136D01*
X203128683Y-115810674D01*
X203149731Y-115824173D01*
X203170546Y-115838627D01*
X203191113Y-115854030D01*
X203276308Y-115737613D01*
X203251192Y-115717334D01*
X203225843Y-115698367D01*
X203200253Y-115680706D01*
X203174411Y-115664348D01*
X203148309Y-115649289D01*
X203121937Y-115635526D01*
X203095285Y-115623054D01*
X203068346Y-115611870D01*
X203041109Y-115601969D01*
X203013565Y-115593348D01*
X202985705Y-115586003D01*
X202957519Y-115579929D01*
X202928998Y-115575124D01*
X202900133Y-115571584D01*
X202870914Y-115569303D01*
X202841333Y-115568279D01*
X202841333Y-115568280D01*
X202805002Y-115569242D01*
X202769069Y-115572096D01*
X202733581Y-115576792D01*
X202698590Y-115583281D01*
X202664145Y-115591513D01*
X202630295Y-115601438D01*
X202597090Y-115613009D01*
X202564579Y-115626174D01*
X202532812Y-115640885D01*
X202501840Y-115657092D01*
X202471710Y-115674747D01*
X202442474Y-115693798D01*
X202414180Y-115714197D01*
X202386878Y-115735895D01*
X202360618Y-115758843D01*
X202335450Y-115782989D01*
X202311422Y-115808287D01*
X202288586Y-115834685D01*
X202266989Y-115862134D01*
X202246682Y-115890586D01*
X202227715Y-115919990D01*
X202210137Y-115950298D01*
X202193997Y-115981459D01*
X202179346Y-116013425D01*
X202166232Y-116046146D01*
X202154706Y-116079572D01*
X202144818Y-116113655D01*
X202136616Y-116148344D01*
X202130150Y-116183590D01*
X202125470Y-116219345D01*
X202122626Y-116255558D01*
X202121667Y-116292180D01*
X201962916Y-116292180D01*
X201964086Y-116247048D01*
X201967555Y-116202476D01*
X201973263Y-116158520D01*
X201981151Y-116115239D01*
X201991157Y-116072689D01*
X202003222Y-116030927D01*
X202017285Y-115990012D01*
X202033287Y-115949999D01*
X202051167Y-115910947D01*
X202070865Y-115872913D01*
X202092321Y-115835954D01*
X202115474Y-115800126D01*
X202140265Y-115765489D01*
X202166634Y-115732097D01*
X202194519Y-115700010D01*
X202223861Y-115669285D01*
X202254601Y-115639977D01*
X202286677Y-115612146D01*
X202320029Y-115585847D01*
X202354598Y-115561139D01*
X202390322Y-115538079D01*
X202427143Y-115516723D01*
X202465000Y-115497129D01*
X202503832Y-115479355D01*
X202543580Y-115463457D01*
X202584182Y-115449494D01*
X202625580Y-115437521D01*
X202667713Y-115427597D01*
X202710521Y-115419779D01*
X202753943Y-115414123D01*
X202797920Y-115410688D01*
X202842391Y-115409530D01*
X202883336Y-115411111D01*
G37*
G36*
X201457667Y-115410382D02*
G01*
X201503776Y-115414497D01*
X201548190Y-115421300D01*
X201590837Y-115430746D01*
X201631646Y-115442791D01*
X201670544Y-115457388D01*
X201707459Y-115474495D01*
X201742319Y-115494064D01*
X201775052Y-115516052D01*
X201805587Y-115540414D01*
X201833850Y-115567104D01*
X201859769Y-115596078D01*
X201883274Y-115627290D01*
X201904291Y-115660696D01*
X201922748Y-115696251D01*
X201938574Y-115733909D01*
X201960270Y-115791588D01*
X201605728Y-116039238D01*
X201564453Y-115957217D01*
X201560879Y-115950455D01*
X201557109Y-115944052D01*
X201553156Y-115937999D01*
X201549033Y-115932287D01*
X201544752Y-115926905D01*
X201540325Y-115921845D01*
X201535764Y-115917097D01*
X201531083Y-115912652D01*
X201526293Y-115908499D01*
X201521407Y-115904630D01*
X201516437Y-115901035D01*
X201511396Y-115897705D01*
X201506296Y-115894629D01*
X201501150Y-115891799D01*
X201490767Y-115886838D01*
X201480347Y-115882745D01*
X201469989Y-115879444D01*
X201459792Y-115876860D01*
X201449856Y-115874915D01*
X201440279Y-115873535D01*
X201431161Y-115872644D01*
X201422601Y-115872164D01*
X201414699Y-115872022D01*
X201400856Y-115872468D01*
X201387721Y-115873758D01*
X201375319Y-115875817D01*
X201363676Y-115878570D01*
X201352817Y-115881943D01*
X201342769Y-115885863D01*
X201333556Y-115890253D01*
X201325204Y-115895040D01*
X201317739Y-115900150D01*
X201311186Y-115905508D01*
X201305571Y-115911039D01*
X201300920Y-115916670D01*
X201297258Y-115922325D01*
X201294610Y-115927931D01*
X201293003Y-115933413D01*
X201292598Y-115936084D01*
X201292462Y-115938696D01*
X201292692Y-115940961D01*
X201293372Y-115943289D01*
X201294487Y-115945677D01*
X201296023Y-115948124D01*
X201297964Y-115950628D01*
X201300296Y-115953186D01*
X201303003Y-115955797D01*
X201306071Y-115958458D01*
X201309485Y-115961166D01*
X201313229Y-115963921D01*
X201321651Y-115969560D01*
X201331216Y-115975356D01*
X201341807Y-115981294D01*
X201353302Y-115987356D01*
X201365584Y-115993525D01*
X201378532Y-115999784D01*
X201392028Y-116006116D01*
X201420183Y-116018929D01*
X201449095Y-116031830D01*
X201493082Y-116051475D01*
X201516440Y-116061967D01*
X201540641Y-116073104D01*
X201585326Y-116094751D01*
X201629292Y-116117345D01*
X201672239Y-116141062D01*
X201713869Y-116166081D01*
X201753883Y-116192579D01*
X201791984Y-116220733D01*
X201827872Y-116250721D01*
X201861250Y-116282721D01*
X201876904Y-116299530D01*
X201891818Y-116316909D01*
X201905956Y-116334880D01*
X201919279Y-116353465D01*
X201931751Y-116372685D01*
X201943334Y-116392564D01*
X201953991Y-116413123D01*
X201963685Y-116434385D01*
X201972378Y-116456371D01*
X201980033Y-116479105D01*
X201986612Y-116502607D01*
X201992079Y-116526901D01*
X201996396Y-116552009D01*
X201999526Y-116577952D01*
X202001431Y-116604753D01*
X202002074Y-116632434D01*
X202001326Y-116662334D01*
X201999099Y-116691597D01*
X201995415Y-116720201D01*
X201990300Y-116748128D01*
X201983778Y-116775356D01*
X201975871Y-116801864D01*
X201966605Y-116827633D01*
X201956004Y-116852641D01*
X201944091Y-116876869D01*
X201930890Y-116900296D01*
X201916426Y-116922902D01*
X201900722Y-116944666D01*
X201883803Y-116965567D01*
X201865693Y-116985586D01*
X201846415Y-117004701D01*
X201825994Y-117022892D01*
X201804454Y-117040140D01*
X201781818Y-117056423D01*
X201758111Y-117071721D01*
X201733357Y-117086013D01*
X201707580Y-117099280D01*
X201680803Y-117111500D01*
X201653051Y-117122653D01*
X201624349Y-117132719D01*
X201594719Y-117141678D01*
X201564186Y-117149508D01*
X201532774Y-117156190D01*
X201500507Y-117161703D01*
X201467409Y-117166026D01*
X201433504Y-117169139D01*
X201398817Y-117171022D01*
X201363370Y-117171655D01*
X201362841Y-117171655D01*
X201311654Y-117170252D01*
X201261916Y-117166067D01*
X201213686Y-117159132D01*
X201167025Y-117149479D01*
X201121991Y-117137141D01*
X201078645Y-117122151D01*
X201037045Y-117104540D01*
X200997253Y-117084342D01*
X200959328Y-117061589D01*
X200923328Y-117036314D01*
X200889314Y-117008549D01*
X200857347Y-116978327D01*
X200827484Y-116945680D01*
X200799786Y-116910641D01*
X200774313Y-116873243D01*
X200751125Y-116833517D01*
X200742292Y-116817113D01*
X200927866Y-116817113D01*
X200946256Y-116840409D01*
X200965894Y-116862270D01*
X200986763Y-116882686D01*
X201008845Y-116901647D01*
X201032125Y-116919146D01*
X201056584Y-116935171D01*
X201082206Y-116949714D01*
X201108974Y-116962766D01*
X201136870Y-116974317D01*
X201165878Y-116984359D01*
X201195980Y-116992881D01*
X201227160Y-116999874D01*
X201259400Y-117005330D01*
X201292683Y-117009238D01*
X201326993Y-117011590D01*
X201362312Y-117012376D01*
X201415752Y-117010643D01*
X201466648Y-117005512D01*
X201514876Y-116997080D01*
X201560311Y-116985446D01*
X201581943Y-116978459D01*
X201602829Y-116970708D01*
X201622955Y-116962206D01*
X201642304Y-116952965D01*
X201660862Y-116942998D01*
X201678612Y-116932316D01*
X201695539Y-116920931D01*
X201711628Y-116908858D01*
X201726863Y-116896106D01*
X201741227Y-116882689D01*
X201754706Y-116868620D01*
X201767285Y-116853910D01*
X201778946Y-116838572D01*
X201789676Y-116822617D01*
X201799457Y-116806060D01*
X201808275Y-116788910D01*
X201816115Y-116771182D01*
X201822959Y-116752887D01*
X201828793Y-116734038D01*
X201833602Y-116714646D01*
X201837369Y-116694725D01*
X201840079Y-116674286D01*
X201841717Y-116653342D01*
X201842266Y-116631905D01*
X201841969Y-116615617D01*
X201841071Y-116599683D01*
X201839558Y-116584090D01*
X201837419Y-116568824D01*
X201834640Y-116553869D01*
X201831209Y-116539212D01*
X201827113Y-116524838D01*
X201822340Y-116510734D01*
X201816877Y-116496885D01*
X201810711Y-116483277D01*
X201803831Y-116469895D01*
X201796222Y-116456725D01*
X201787874Y-116443753D01*
X201778772Y-116430966D01*
X201768906Y-116418348D01*
X201758261Y-116405885D01*
X201746825Y-116393563D01*
X201734587Y-116381368D01*
X201721532Y-116369286D01*
X201707649Y-116357302D01*
X201692925Y-116345402D01*
X201677347Y-116333572D01*
X201643580Y-116310064D01*
X201606248Y-116286665D01*
X201565249Y-116263261D01*
X201520483Y-116239737D01*
X201471849Y-116215980D01*
X201448740Y-116205157D01*
X201426275Y-116194880D01*
X201383479Y-116175764D01*
X201332440Y-116152791D01*
X201308259Y-116141439D01*
X201285128Y-116129999D01*
X201263166Y-116118339D01*
X201242492Y-116106326D01*
X201223224Y-116093828D01*
X201205480Y-116080712D01*
X201189380Y-116066846D01*
X201175042Y-116052097D01*
X201168571Y-116044350D01*
X201162584Y-116036332D01*
X201157098Y-116028028D01*
X201152126Y-116019419D01*
X201147683Y-116010491D01*
X201143785Y-116001226D01*
X201140446Y-115991608D01*
X201137680Y-115981620D01*
X201135503Y-115971246D01*
X201133930Y-115960468D01*
X201132976Y-115949272D01*
X201132654Y-115937638D01*
X201133013Y-115925865D01*
X201134077Y-115914265D01*
X201135832Y-115902853D01*
X201138260Y-115891641D01*
X201141345Y-115880643D01*
X201145072Y-115869872D01*
X201149423Y-115859340D01*
X201154383Y-115849061D01*
X201159935Y-115839048D01*
X201166063Y-115829314D01*
X201172750Y-115819872D01*
X201179981Y-115810735D01*
X201187739Y-115801916D01*
X201196008Y-115793428D01*
X201204772Y-115785285D01*
X201214013Y-115777499D01*
X201223717Y-115770084D01*
X201233866Y-115763053D01*
X201244445Y-115756418D01*
X201255437Y-115750192D01*
X201266826Y-115744390D01*
X201278595Y-115739024D01*
X201290729Y-115734106D01*
X201303211Y-115729651D01*
X201316024Y-115725671D01*
X201329153Y-115722179D01*
X201342582Y-115719188D01*
X201356293Y-115716712D01*
X201370271Y-115714764D01*
X201384499Y-115713356D01*
X201398961Y-115712501D01*
X201413641Y-115712213D01*
X201431379Y-115712627D01*
X201448858Y-115713860D01*
X201466054Y-115715900D01*
X201482946Y-115718737D01*
X201499508Y-115722358D01*
X201515719Y-115726752D01*
X201531554Y-115731907D01*
X201546991Y-115737812D01*
X201562007Y-115744454D01*
X201576577Y-115751823D01*
X201590679Y-115759907D01*
X201604290Y-115768694D01*
X201617386Y-115778172D01*
X201629944Y-115788330D01*
X201641941Y-115799156D01*
X201653354Y-115810638D01*
X201762362Y-115734439D01*
X201754086Y-115721295D01*
X201745352Y-115708841D01*
X201736187Y-115697058D01*
X201726619Y-115685929D01*
X201716677Y-115675435D01*
X201706387Y-115665559D01*
X201695779Y-115656283D01*
X201684880Y-115647589D01*
X201673719Y-115639459D01*
X201662322Y-115631876D01*
X201650719Y-115624822D01*
X201638937Y-115618278D01*
X201614949Y-115606652D01*
X201590581Y-115596855D01*
X201566059Y-115588745D01*
X201541605Y-115582179D01*
X201517445Y-115577015D01*
X201493802Y-115573109D01*
X201470899Y-115570319D01*
X201448962Y-115568503D01*
X201428214Y-115567518D01*
X201408879Y-115567222D01*
X201385766Y-115567667D01*
X201363073Y-115568991D01*
X201340822Y-115571175D01*
X201319032Y-115574203D01*
X201297724Y-115578057D01*
X201276919Y-115582720D01*
X201256637Y-115588173D01*
X201236899Y-115594400D01*
X201217726Y-115601382D01*
X201199137Y-115609102D01*
X201181153Y-115617544D01*
X201163796Y-115626688D01*
X201147085Y-115636518D01*
X201131041Y-115647016D01*
X201115684Y-115658165D01*
X201101036Y-115669946D01*
X201087116Y-115682343D01*
X201073946Y-115695338D01*
X201061545Y-115708914D01*
X201049934Y-115723052D01*
X201039134Y-115737736D01*
X201029166Y-115752947D01*
X201020049Y-115768669D01*
X201011805Y-115784883D01*
X201004454Y-115801572D01*
X200998016Y-115818720D01*
X200992513Y-115836307D01*
X200987964Y-115854316D01*
X200984390Y-115872731D01*
X200981812Y-115891533D01*
X200980250Y-115910706D01*
X200979724Y-115930230D01*
X200980174Y-115948290D01*
X200981506Y-115965675D01*
X200983692Y-115982408D01*
X200986707Y-115998510D01*
X200990523Y-116014005D01*
X200995114Y-116028916D01*
X201000453Y-116043264D01*
X201006513Y-116057073D01*
X201013268Y-116070365D01*
X201020691Y-116083162D01*
X201028755Y-116095487D01*
X201037432Y-116107363D01*
X201046698Y-116118813D01*
X201056524Y-116129858D01*
X201066885Y-116140522D01*
X201077752Y-116150826D01*
X201100903Y-116170449D01*
X201125762Y-116188907D01*
X201152115Y-116206380D01*
X201179749Y-116223049D01*
X201208450Y-116239096D01*
X201238003Y-116254699D01*
X201298812Y-116285301D01*
X201310454Y-116291122D01*
X201380213Y-116326093D01*
X201448235Y-116362038D01*
X201480867Y-116380603D01*
X201512190Y-116399683D01*
X201541913Y-116419369D01*
X201569745Y-116439751D01*
X201595394Y-116460922D01*
X201618569Y-116482971D01*
X201638978Y-116505988D01*
X201648055Y-116517889D01*
X201656330Y-116530065D01*
X201663769Y-116542530D01*
X201670334Y-116555293D01*
X201675988Y-116568366D01*
X201680697Y-116581761D01*
X201684422Y-116595489D01*
X201687128Y-116609562D01*
X201688779Y-116623989D01*
X201689337Y-116638784D01*
X201688952Y-116650870D01*
X201687805Y-116662715D01*
X201685910Y-116674308D01*
X201683282Y-116685640D01*
X201679932Y-116696703D01*
X201675876Y-116707487D01*
X201671127Y-116717982D01*
X201665698Y-116728180D01*
X201659604Y-116738071D01*
X201652857Y-116747646D01*
X201645471Y-116756895D01*
X201637461Y-116765809D01*
X201628840Y-116774379D01*
X201619621Y-116782596D01*
X201609818Y-116790449D01*
X201599445Y-116797931D01*
X201588515Y-116805031D01*
X201577043Y-116811741D01*
X201565041Y-116818051D01*
X201552524Y-116823951D01*
X201539505Y-116829433D01*
X201525997Y-116834487D01*
X201512015Y-116839104D01*
X201497572Y-116843274D01*
X201482682Y-116846989D01*
X201467358Y-116850238D01*
X201451614Y-116853013D01*
X201435464Y-116855304D01*
X201418922Y-116857103D01*
X201402000Y-116858399D01*
X201384713Y-116859183D01*
X201367075Y-116859447D01*
X201342674Y-116858938D01*
X201318883Y-116857415D01*
X201295704Y-116854877D01*
X201273140Y-116851327D01*
X201251193Y-116846767D01*
X201229865Y-116841197D01*
X201209159Y-116834619D01*
X201189077Y-116827035D01*
X201169621Y-116818447D01*
X201150794Y-116808855D01*
X201132597Y-116798263D01*
X201115034Y-116786670D01*
X201098107Y-116774078D01*
X201081818Y-116760490D01*
X201066169Y-116745907D01*
X201051162Y-116730330D01*
X200927866Y-116817113D01*
X200742292Y-116817113D01*
X200717787Y-116771605D01*
X201091908Y-116508609D01*
X201136358Y-116580046D01*
X201146408Y-116595185D01*
X201151608Y-116602354D01*
X201156930Y-116609258D01*
X201162376Y-116615898D01*
X201167950Y-116622276D01*
X201173654Y-116628394D01*
X201179493Y-116634253D01*
X201185469Y-116639854D01*
X201191585Y-116645200D01*
X201197845Y-116650291D01*
X201204251Y-116655130D01*
X201210808Y-116659718D01*
X201217517Y-116664056D01*
X201224383Y-116668146D01*
X201231409Y-116671989D01*
X201238598Y-116675588D01*
X201245952Y-116678943D01*
X201253476Y-116682056D01*
X201261172Y-116684929D01*
X201269043Y-116687563D01*
X201277094Y-116689960D01*
X201285326Y-116692122D01*
X201293743Y-116694049D01*
X201302349Y-116695744D01*
X201311147Y-116697207D01*
X201320139Y-116698442D01*
X201329329Y-116699448D01*
X201348316Y-116700783D01*
X201368133Y-116701226D01*
X201387759Y-116700809D01*
X201406152Y-116699607D01*
X201423308Y-116697689D01*
X201439223Y-116695124D01*
X201453891Y-116691982D01*
X201467308Y-116688333D01*
X201479469Y-116684248D01*
X201490370Y-116679794D01*
X201500006Y-116675043D01*
X201508372Y-116670065D01*
X201515464Y-116664928D01*
X201521276Y-116659703D01*
X201525806Y-116654459D01*
X201529046Y-116649266D01*
X201530994Y-116644194D01*
X201531645Y-116639313D01*
X201531100Y-116633513D01*
X201529498Y-116627531D01*
X201526891Y-116621383D01*
X201523329Y-116615081D01*
X201518862Y-116608641D01*
X201513541Y-116602076D01*
X201507417Y-116595400D01*
X201500540Y-116588629D01*
X201484729Y-116574853D01*
X201466514Y-116560862D01*
X201446299Y-116546769D01*
X201424488Y-116532686D01*
X201401488Y-116518727D01*
X201377701Y-116505006D01*
X201353532Y-116491635D01*
X201329387Y-116478728D01*
X201282786Y-116454756D01*
X201241132Y-116433996D01*
X201229491Y-116428176D01*
X201159871Y-116392912D01*
X201124489Y-116373928D01*
X201089253Y-116353728D01*
X201054560Y-116332078D01*
X201020806Y-116308741D01*
X200988386Y-116283482D01*
X200957698Y-116256064D01*
X200943126Y-116241473D01*
X200929136Y-116226253D01*
X200915776Y-116210376D01*
X200903097Y-116193813D01*
X200891148Y-116176533D01*
X200879978Y-116158507D01*
X200869637Y-116139707D01*
X200860174Y-116120101D01*
X200851639Y-116099662D01*
X200844081Y-116078359D01*
X200837550Y-116056164D01*
X200832096Y-116033045D01*
X200827767Y-116008975D01*
X200824614Y-115983924D01*
X200822686Y-115957862D01*
X200822032Y-115930759D01*
X200822752Y-115903330D01*
X200824891Y-115876327D01*
X200828422Y-115849779D01*
X200833317Y-115823715D01*
X200839547Y-115798165D01*
X200847084Y-115773158D01*
X200855901Y-115748723D01*
X200865970Y-115724888D01*
X200877261Y-115701684D01*
X200889748Y-115679139D01*
X200903402Y-115657283D01*
X200918194Y-115636144D01*
X200934097Y-115615753D01*
X200951083Y-115596137D01*
X200969124Y-115577326D01*
X200988191Y-115559350D01*
X201008256Y-115542237D01*
X201029292Y-115526017D01*
X201051270Y-115510719D01*
X201074162Y-115496372D01*
X201097940Y-115483005D01*
X201122575Y-115470647D01*
X201148041Y-115459328D01*
X201174308Y-115449077D01*
X201201349Y-115439922D01*
X201229136Y-115431893D01*
X201257640Y-115425020D01*
X201286833Y-115419331D01*
X201316687Y-115414855D01*
X201347175Y-115411622D01*
X201378267Y-115409661D01*
X201409936Y-115409001D01*
X201457667Y-115410382D01*
G37*
G36*
X199848366Y-116490617D02*
G01*
X199848631Y-116501465D01*
X199849416Y-116512173D01*
X199850708Y-116522727D01*
X199852495Y-116533114D01*
X199854764Y-116543320D01*
X199857502Y-116553332D01*
X199860695Y-116563137D01*
X199864332Y-116572721D01*
X199868399Y-116582071D01*
X199872884Y-116591173D01*
X199877772Y-116600015D01*
X199883053Y-116608582D01*
X199888712Y-116616862D01*
X199894736Y-116624841D01*
X199901114Y-116632505D01*
X199907831Y-116639842D01*
X199914876Y-116646838D01*
X199922235Y-116653479D01*
X199929895Y-116659753D01*
X199937844Y-116665645D01*
X199946068Y-116671143D01*
X199954555Y-116676233D01*
X199963292Y-116680902D01*
X199972266Y-116685136D01*
X199981463Y-116688922D01*
X199990872Y-116692246D01*
X200000479Y-116695096D01*
X200010272Y-116697457D01*
X200020237Y-116699317D01*
X200030361Y-116700663D01*
X200040632Y-116701480D01*
X200051037Y-116701755D01*
X200060284Y-116701519D01*
X200069557Y-116700814D01*
X200078834Y-116699646D01*
X200088095Y-116698022D01*
X200097319Y-116695946D01*
X200106485Y-116693425D01*
X200115572Y-116690465D01*
X200124558Y-116687070D01*
X200133424Y-116683248D01*
X200142148Y-116679004D01*
X200150709Y-116674344D01*
X200159086Y-116669273D01*
X200167259Y-116663798D01*
X200175206Y-116657923D01*
X200182907Y-116651656D01*
X200190340Y-116645002D01*
X200197485Y-116637966D01*
X200204321Y-116630555D01*
X200210826Y-116622773D01*
X200216980Y-116614628D01*
X200222763Y-116606125D01*
X200228152Y-116597270D01*
X200233127Y-116588068D01*
X200237668Y-116578525D01*
X200241752Y-116568648D01*
X200245360Y-116558441D01*
X200248470Y-116547911D01*
X200251062Y-116537064D01*
X200253114Y-116525905D01*
X200254606Y-116514441D01*
X200255516Y-116502676D01*
X200255825Y-116490617D01*
X200255825Y-115440751D01*
X200726254Y-115440751D01*
X200726254Y-116491676D01*
X200725394Y-116527295D01*
X200722839Y-116562390D01*
X200718630Y-116596923D01*
X200712804Y-116630852D01*
X200705402Y-116664138D01*
X200696461Y-116696741D01*
X200686022Y-116728622D01*
X200674123Y-116759740D01*
X200660802Y-116790056D01*
X200646100Y-116819530D01*
X200630056Y-116848122D01*
X200612707Y-116875792D01*
X200594094Y-116902500D01*
X200574255Y-116928208D01*
X200553230Y-116952874D01*
X200531057Y-116976459D01*
X200507776Y-116998923D01*
X200483426Y-117020226D01*
X200458045Y-117040329D01*
X200431672Y-117059192D01*
X200404348Y-117076774D01*
X200376110Y-117093036D01*
X200346998Y-117107939D01*
X200317051Y-117121442D01*
X200286308Y-117133506D01*
X200254807Y-117144090D01*
X200222589Y-117153155D01*
X200189692Y-117160661D01*
X200156155Y-117166569D01*
X200122017Y-117170838D01*
X200087318Y-117173428D01*
X200052095Y-117174301D01*
X200016920Y-117173428D01*
X199982261Y-117170838D01*
X199948158Y-117166569D01*
X199914651Y-117160661D01*
X199881778Y-117153155D01*
X199849580Y-117144090D01*
X199818095Y-117133506D01*
X199787363Y-117121442D01*
X199757424Y-117107939D01*
X199728316Y-117093036D01*
X199700078Y-117076774D01*
X199672751Y-117059192D01*
X199646374Y-117040329D01*
X199620985Y-117020226D01*
X199596625Y-116998923D01*
X199573332Y-116976459D01*
X199551146Y-116952874D01*
X199530106Y-116928208D01*
X199510252Y-116902500D01*
X199491623Y-116875792D01*
X199474258Y-116848122D01*
X199458197Y-116819530D01*
X199443479Y-116790056D01*
X199430143Y-116759740D01*
X199418228Y-116728622D01*
X199407775Y-116696741D01*
X199398822Y-116664138D01*
X199391408Y-116630852D01*
X199385574Y-116596923D01*
X199381357Y-116562390D01*
X199378799Y-116527295D01*
X199377950Y-116492205D01*
X199536687Y-116492205D01*
X199537332Y-116519966D01*
X199539249Y-116547271D01*
X199542410Y-116574093D01*
X199546788Y-116600403D01*
X199552355Y-116626173D01*
X199559085Y-116651377D01*
X199566949Y-116675984D01*
X199575920Y-116699969D01*
X199585971Y-116723302D01*
X199597074Y-116745957D01*
X199609203Y-116767904D01*
X199622328Y-116789117D01*
X199636424Y-116809567D01*
X199651463Y-116829226D01*
X199667417Y-116848067D01*
X199684258Y-116866061D01*
X199701961Y-116883181D01*
X199720496Y-116899399D01*
X199739836Y-116914686D01*
X199759955Y-116929016D01*
X199780825Y-116942359D01*
X199802417Y-116954688D01*
X199824706Y-116965976D01*
X199847663Y-116976194D01*
X199871262Y-116985315D01*
X199895474Y-116993309D01*
X199920272Y-117000151D01*
X199945628Y-117005811D01*
X199971517Y-117010262D01*
X199997909Y-117013476D01*
X200024778Y-117015424D01*
X200052095Y-117016080D01*
X200079413Y-117015424D01*
X200106282Y-117013476D01*
X200132674Y-117010262D01*
X200158562Y-117005811D01*
X200183919Y-117000151D01*
X200208717Y-116993309D01*
X200232929Y-116985315D01*
X200256527Y-116976194D01*
X200279484Y-116965976D01*
X200301773Y-116954688D01*
X200323366Y-116942359D01*
X200344236Y-116929016D01*
X200364354Y-116914686D01*
X200383695Y-116899399D01*
X200402230Y-116883181D01*
X200419932Y-116866061D01*
X200436774Y-116848067D01*
X200452728Y-116829226D01*
X200467766Y-116809567D01*
X200481862Y-116789117D01*
X200494988Y-116767904D01*
X200507116Y-116745957D01*
X200518220Y-116723302D01*
X200528271Y-116699969D01*
X200537242Y-116675984D01*
X200545106Y-116651377D01*
X200551835Y-116626173D01*
X200557403Y-116600403D01*
X200561781Y-116574093D01*
X200564942Y-116547271D01*
X200566858Y-116519966D01*
X200567503Y-116492205D01*
X200567503Y-115600030D01*
X200414574Y-115600030D01*
X200414574Y-116491146D01*
X200414101Y-116510179D01*
X200412695Y-116528961D01*
X200410380Y-116547471D01*
X200407179Y-116565685D01*
X200403116Y-116583579D01*
X200398211Y-116601130D01*
X200392490Y-116618316D01*
X200385975Y-116635113D01*
X200378688Y-116651497D01*
X200370653Y-116667446D01*
X200361892Y-116682936D01*
X200352429Y-116697943D01*
X200342287Y-116712445D01*
X200331488Y-116726419D01*
X200320056Y-116739841D01*
X200308013Y-116752687D01*
X200295383Y-116764935D01*
X200282188Y-116776562D01*
X200268452Y-116787543D01*
X200254197Y-116797856D01*
X200239446Y-116807478D01*
X200224222Y-116816386D01*
X200208549Y-116824555D01*
X200192448Y-116831963D01*
X200175944Y-116838587D01*
X200159059Y-116844402D01*
X200141816Y-116849387D01*
X200124239Y-116853518D01*
X200106349Y-116856771D01*
X200088170Y-116859124D01*
X200069725Y-116860553D01*
X200051037Y-116861034D01*
X200032355Y-116860551D01*
X200013928Y-116859118D01*
X199995777Y-116856759D01*
X199977926Y-116853497D01*
X199960396Y-116849355D01*
X199943210Y-116844357D01*
X199926389Y-116838527D01*
X199909956Y-116831889D01*
X199893933Y-116824465D01*
X199878343Y-116816279D01*
X199863207Y-116807355D01*
X199848547Y-116797717D01*
X199834386Y-116787388D01*
X199820747Y-116776391D01*
X199807650Y-116764750D01*
X199795119Y-116752489D01*
X199783175Y-116739631D01*
X199771841Y-116726199D01*
X199761139Y-116712218D01*
X199751092Y-116697711D01*
X199741720Y-116682701D01*
X199733047Y-116667211D01*
X199725095Y-116651267D01*
X199717885Y-116634890D01*
X199711441Y-116618104D01*
X199705784Y-116600934D01*
X199700936Y-116583402D01*
X199696920Y-116565533D01*
X199693758Y-116547349D01*
X199691472Y-116528874D01*
X199690084Y-116510132D01*
X199689616Y-116491147D01*
X199689616Y-115600030D01*
X199536687Y-115600030D01*
X199536687Y-116492205D01*
X199377950Y-116492205D01*
X199377937Y-116491676D01*
X199377937Y-115600030D01*
X199377937Y-115440751D01*
X199848366Y-115440751D01*
X199848366Y-116490617D01*
G37*
G36*
X203035537Y-118668138D02*
G01*
X202823870Y-118668138D01*
X202823870Y-117614038D01*
X203035537Y-117614038D01*
X203035537Y-118668138D01*
G37*
G36*
X199795979Y-117822530D02*
G01*
X199372117Y-117822530D01*
X199372117Y-118028376D01*
X199735654Y-118028376D01*
X199735654Y-118239513D01*
X199372117Y-118239513D01*
X199372117Y-118457530D01*
X199795979Y-118457530D01*
X199795979Y-118668138D01*
X199160450Y-118668138D01*
X199160450Y-117614038D01*
X199795979Y-117614038D01*
X199795979Y-117822530D01*
G37*
G36*
X202279184Y-117615009D02*
G01*
X202297300Y-117616319D01*
X202315162Y-117618477D01*
X202332748Y-117621463D01*
X202350033Y-117625255D01*
X202366995Y-117629831D01*
X202383612Y-117635173D01*
X202399859Y-117641257D01*
X202415714Y-117648064D01*
X202431153Y-117655573D01*
X202446155Y-117663762D01*
X202460694Y-117672610D01*
X202474750Y-117682098D01*
X202488298Y-117692203D01*
X202501315Y-117702905D01*
X202513778Y-117714183D01*
X202525665Y-117726016D01*
X202536952Y-117738383D01*
X202547617Y-117751263D01*
X202557635Y-117764636D01*
X202566985Y-117778479D01*
X202575642Y-117792773D01*
X202583584Y-117807497D01*
X202590789Y-117822629D01*
X202597232Y-117838149D01*
X202602891Y-117854035D01*
X202607742Y-117870267D01*
X202611763Y-117886823D01*
X202614931Y-117903684D01*
X202617222Y-117920828D01*
X202618614Y-117938233D01*
X202619083Y-117955880D01*
X202618140Y-117981066D01*
X202615360Y-118005765D01*
X202610816Y-118029885D01*
X202604580Y-118053337D01*
X202596726Y-118076029D01*
X202587326Y-118097871D01*
X202576454Y-118118772D01*
X202564181Y-118138640D01*
X202550582Y-118157387D01*
X202535728Y-118174920D01*
X202519693Y-118191150D01*
X202502550Y-118205985D01*
X202484371Y-118219335D01*
X202465229Y-118231109D01*
X202445198Y-118241217D01*
X202424349Y-118249567D01*
X202723857Y-118668667D01*
X202464566Y-118668667D01*
X202129074Y-118170192D01*
X202129074Y-118668667D01*
X201917408Y-118668667D01*
X201917408Y-118088701D01*
X201917408Y-117823588D01*
X202128016Y-117823588D01*
X202128016Y-118088701D01*
X202264012Y-118088701D01*
X202270734Y-118088627D01*
X202277399Y-118088215D01*
X202283997Y-118087470D01*
X202290518Y-118086402D01*
X202296951Y-118085017D01*
X202303286Y-118083324D01*
X202309514Y-118081330D01*
X202315622Y-118079043D01*
X202321602Y-118076471D01*
X202327444Y-118073621D01*
X202333135Y-118070502D01*
X202338668Y-118067120D01*
X202344031Y-118063485D01*
X202349213Y-118059603D01*
X202354206Y-118055482D01*
X202358997Y-118051130D01*
X202363578Y-118046554D01*
X202367938Y-118041764D01*
X202372067Y-118036765D01*
X202375954Y-118031567D01*
X202379588Y-118026176D01*
X202382961Y-118020601D01*
X202386061Y-118014849D01*
X202388879Y-118008929D01*
X202391403Y-118002847D01*
X202393625Y-117996611D01*
X202395532Y-117990230D01*
X202397116Y-117983710D01*
X202398366Y-117977061D01*
X202399271Y-117970289D01*
X202399822Y-117963402D01*
X202400008Y-117956409D01*
X202399821Y-117949417D01*
X202399265Y-117942534D01*
X202398353Y-117935769D01*
X202397094Y-117929128D01*
X202395500Y-117922619D01*
X202393579Y-117916248D01*
X202391344Y-117910025D01*
X202388804Y-117903955D01*
X202385971Y-117898047D01*
X202382855Y-117892307D01*
X202379465Y-117886743D01*
X202375814Y-117881362D01*
X202371911Y-117876172D01*
X202367767Y-117871180D01*
X202363393Y-117866394D01*
X202358799Y-117861820D01*
X202353996Y-117857467D01*
X202348994Y-117853341D01*
X202343803Y-117849449D01*
X202338435Y-117845800D01*
X202332901Y-117842401D01*
X202327209Y-117839259D01*
X202321372Y-117836381D01*
X202315399Y-117833774D01*
X202309302Y-117831447D01*
X202303090Y-117829406D01*
X202296775Y-117827659D01*
X202290366Y-117826213D01*
X202283875Y-117825076D01*
X202277312Y-117824254D01*
X202270687Y-117823756D01*
X202264012Y-117823588D01*
X202128016Y-117823588D01*
X201917408Y-117823588D01*
X201917408Y-117614567D01*
X202260837Y-117614567D01*
X202279184Y-117615009D01*
G37*
G36*
X200316679Y-117933125D02*
G01*
X200496596Y-117614038D01*
X200740012Y-117614038D01*
X200438387Y-118120451D01*
X200759591Y-118668667D01*
X200516175Y-118668667D01*
X200316150Y-118314655D01*
X200116654Y-118668667D01*
X199873237Y-118668667D01*
X200193912Y-118120980D01*
X199892816Y-117614038D01*
X200136233Y-117614038D01*
X200316679Y-117933125D01*
G37*
G36*
X203557102Y-117615584D02*
G01*
X203587867Y-117617237D01*
X203617826Y-117620041D01*
X203646966Y-117623984D01*
X203675273Y-117629052D01*
X203702732Y-117635232D01*
X203729331Y-117642510D01*
X203755055Y-117650873D01*
X203779890Y-117660309D01*
X203803824Y-117670803D01*
X203826842Y-117682343D01*
X203848930Y-117694915D01*
X203870075Y-117708506D01*
X203890263Y-117723103D01*
X203909480Y-117738692D01*
X203927712Y-117755260D01*
X203944946Y-117772794D01*
X203961167Y-117791280D01*
X203976363Y-117810706D01*
X203990519Y-117831058D01*
X204003622Y-117852322D01*
X204015657Y-117874486D01*
X204026612Y-117897536D01*
X204036472Y-117921459D01*
X204045223Y-117946242D01*
X204052853Y-117971871D01*
X204059346Y-117998333D01*
X204064689Y-118025615D01*
X204068869Y-118053704D01*
X204071872Y-118082586D01*
X204073684Y-118112247D01*
X204074291Y-118142676D01*
X204073684Y-118172957D01*
X204071872Y-118202475D01*
X204068869Y-118231217D01*
X204064689Y-118259169D01*
X204059346Y-118286319D01*
X204052853Y-118312654D01*
X204045223Y-118338160D01*
X204036472Y-118362826D01*
X204026612Y-118386637D01*
X204015657Y-118409581D01*
X204003622Y-118431644D01*
X203990519Y-118452815D01*
X203976363Y-118473079D01*
X203961167Y-118492425D01*
X203944946Y-118510838D01*
X203927712Y-118528306D01*
X203909480Y-118544816D01*
X203890263Y-118560355D01*
X203870075Y-118574910D01*
X203848930Y-118588468D01*
X203826842Y-118601016D01*
X203803824Y-118612540D01*
X203779890Y-118623029D01*
X203755055Y-118632469D01*
X203729331Y-118640847D01*
X203702732Y-118648150D01*
X203675273Y-118654365D01*
X203646966Y-118659480D01*
X203617826Y-118663480D01*
X203587867Y-118666353D01*
X203557102Y-118668087D01*
X203525545Y-118668668D01*
X203218628Y-118668668D01*
X203218628Y-118457000D01*
X203218628Y-117824117D01*
X203430295Y-117824117D01*
X203430295Y-118457000D01*
X203527133Y-118457000D01*
X203546340Y-118456653D01*
X203565061Y-118455615D01*
X203583288Y-118453895D01*
X203601014Y-118451501D01*
X203618229Y-118448439D01*
X203634926Y-118444719D01*
X203651097Y-118440346D01*
X203666734Y-118435329D01*
X203681828Y-118429676D01*
X203696371Y-118423395D01*
X203710355Y-118416492D01*
X203723772Y-118408975D01*
X203736614Y-118400853D01*
X203748873Y-118392133D01*
X203760540Y-118382823D01*
X203771608Y-118372929D01*
X203782068Y-118362460D01*
X203791912Y-118351424D01*
X203801132Y-118339828D01*
X203809721Y-118327680D01*
X203817668Y-118314987D01*
X203824968Y-118301758D01*
X203831611Y-118287999D01*
X203837589Y-118273719D01*
X203842894Y-118258924D01*
X203847518Y-118243624D01*
X203851454Y-118227825D01*
X203854692Y-118211534D01*
X203857224Y-118194761D01*
X203859043Y-118177512D01*
X203860141Y-118159795D01*
X203860503Y-118141892D01*
X203860137Y-118123868D01*
X203859031Y-118106048D01*
X203857197Y-118088693D01*
X203854644Y-118071812D01*
X203851380Y-118055412D01*
X203847413Y-118039503D01*
X203842753Y-118024091D01*
X203837406Y-118009185D01*
X203831383Y-117994793D01*
X203824690Y-117980923D01*
X203817336Y-117967583D01*
X203809330Y-117954781D01*
X203800679Y-117942525D01*
X203791393Y-117930823D01*
X203781479Y-117919684D01*
X203770946Y-117909115D01*
X203759803Y-117899124D01*
X203748056Y-117889719D01*
X203735716Y-117880908D01*
X203722790Y-117872700D01*
X203709286Y-117865103D01*
X203695214Y-117858124D01*
X203680580Y-117851771D01*
X203665394Y-117846053D01*
X203649664Y-117840977D01*
X203633398Y-117836553D01*
X203616604Y-117832786D01*
X203599292Y-117829687D01*
X203581468Y-117827262D01*
X203563142Y-117825520D01*
X203544322Y-117824469D01*
X203525016Y-117824117D01*
X203430295Y-117824117D01*
X203218628Y-117824117D01*
X203218628Y-117615097D01*
X203525545Y-117615097D01*
X203557102Y-117615584D01*
G37*
G36*
X198617525Y-118458059D02*
G01*
X199041387Y-118458059D01*
X199041387Y-118668668D01*
X198405858Y-118668668D01*
X198405858Y-117614568D01*
X198617525Y-117614568D01*
X198617525Y-118458059D01*
G37*
G36*
X198286796Y-117822529D02*
G01*
X197863462Y-117822529D01*
X197863462Y-117822530D01*
X197863462Y-118035255D01*
X198227000Y-118035255D01*
X198227000Y-118246392D01*
X197863462Y-118246392D01*
X197863462Y-118669725D01*
X197651266Y-118669725D01*
X197651266Y-117611392D01*
X198286796Y-117611392D01*
X198286796Y-117822529D01*
G37*
G36*
X201294347Y-117593790D02*
G01*
X201320191Y-117596123D01*
X201346104Y-117599836D01*
X201372011Y-117604893D01*
X201397834Y-117611259D01*
X201423496Y-117618898D01*
X201448921Y-117627774D01*
X201474033Y-117637851D01*
X201498753Y-117649094D01*
X201523006Y-117661467D01*
X201546715Y-117674935D01*
X201569803Y-117689461D01*
X201592194Y-117705011D01*
X201613810Y-117721548D01*
X201634575Y-117739037D01*
X201654412Y-117757442D01*
X201536937Y-117933126D01*
X201521326Y-117918450D01*
X201505458Y-117904598D01*
X201489352Y-117891587D01*
X201473024Y-117879432D01*
X201456491Y-117868152D01*
X201439771Y-117857763D01*
X201422880Y-117848283D01*
X201405836Y-117839728D01*
X201388656Y-117832116D01*
X201371356Y-117825463D01*
X201353953Y-117819787D01*
X201336466Y-117815105D01*
X201318910Y-117811434D01*
X201301303Y-117808790D01*
X201283662Y-117807192D01*
X201266004Y-117806655D01*
X201250673Y-117807059D01*
X201235361Y-117808260D01*
X201220098Y-117810244D01*
X201204915Y-117812997D01*
X201189842Y-117816503D01*
X201174910Y-117820747D01*
X201160151Y-117825716D01*
X201145594Y-117831394D01*
X201131270Y-117837766D01*
X201117210Y-117844818D01*
X201103445Y-117852535D01*
X201090005Y-117860903D01*
X201076922Y-117869906D01*
X201064225Y-117879530D01*
X201051946Y-117889761D01*
X201040116Y-117900582D01*
X201028764Y-117911981D01*
X201017922Y-117923941D01*
X201007621Y-117936449D01*
X200997891Y-117949489D01*
X200988763Y-117963047D01*
X200980267Y-117977108D01*
X200972435Y-117991657D01*
X200965297Y-118006680D01*
X200958883Y-118022162D01*
X200953225Y-118038088D01*
X200948353Y-118054443D01*
X200944298Y-118071214D01*
X200941091Y-118088384D01*
X200938762Y-118105939D01*
X200937342Y-118123865D01*
X200936862Y-118142147D01*
X200937277Y-118159212D01*
X200938511Y-118176063D01*
X200940551Y-118192679D01*
X200943382Y-118209039D01*
X200946989Y-118225120D01*
X200951359Y-118240901D01*
X200956477Y-118256361D01*
X200962328Y-118271478D01*
X200968899Y-118286231D01*
X200976175Y-118300598D01*
X200984141Y-118314558D01*
X200992784Y-118328089D01*
X201002089Y-118341169D01*
X201012041Y-118353778D01*
X201022627Y-118365893D01*
X201033832Y-118377494D01*
X201045641Y-118388558D01*
X201058041Y-118399064D01*
X201071016Y-118408990D01*
X201084553Y-118418316D01*
X201098638Y-118427019D01*
X201113255Y-118435079D01*
X201128391Y-118442472D01*
X201144031Y-118449179D01*
X201160161Y-118455178D01*
X201176766Y-118460446D01*
X201193833Y-118464963D01*
X201211346Y-118468707D01*
X201229293Y-118471656D01*
X201247657Y-118473789D01*
X201266425Y-118475085D01*
X201285583Y-118475522D01*
X201313250Y-118474623D01*
X201339841Y-118471954D01*
X201365268Y-118467555D01*
X201389448Y-118461466D01*
X201412294Y-118453727D01*
X201433722Y-118444380D01*
X201443878Y-118439115D01*
X201453646Y-118433463D01*
X201463018Y-118427429D01*
X201471981Y-118421018D01*
X201480526Y-118414234D01*
X201488642Y-118407084D01*
X201496318Y-118399572D01*
X201503543Y-118391703D01*
X201510307Y-118383482D01*
X201516600Y-118374914D01*
X201522409Y-118366004D01*
X201527726Y-118356757D01*
X201532538Y-118347179D01*
X201536837Y-118337273D01*
X201540610Y-118327047D01*
X201543847Y-118316503D01*
X201546537Y-118305648D01*
X201548671Y-118294486D01*
X201550237Y-118283023D01*
X201551224Y-118271264D01*
X201278703Y-118271264D01*
X201278703Y-118075472D01*
X201774533Y-118075472D01*
X201776699Y-118098293D01*
X201777602Y-118109554D01*
X201778369Y-118120716D01*
X201778987Y-118131779D01*
X201779444Y-118142743D01*
X201779727Y-118153607D01*
X201779824Y-118164372D01*
X201779824Y-118165430D01*
X201779296Y-118165430D01*
X201778633Y-118196031D01*
X201776667Y-118225816D01*
X201773432Y-118254774D01*
X201768959Y-118282896D01*
X201763284Y-118310170D01*
X201756438Y-118336588D01*
X201748455Y-118362139D01*
X201739368Y-118386812D01*
X201729211Y-118410597D01*
X201718017Y-118433485D01*
X201705819Y-118455465D01*
X201692650Y-118476527D01*
X201678543Y-118496661D01*
X201663532Y-118515856D01*
X201647650Y-118534103D01*
X201630931Y-118551391D01*
X201613406Y-118567710D01*
X201595110Y-118583050D01*
X201576076Y-118597401D01*
X201556338Y-118610752D01*
X201535927Y-118623093D01*
X201514878Y-118634415D01*
X201493224Y-118644707D01*
X201470998Y-118653958D01*
X201448233Y-118662160D01*
X201424963Y-118669301D01*
X201401221Y-118675371D01*
X201377039Y-118680360D01*
X201352452Y-118684258D01*
X201327492Y-118687055D01*
X201302193Y-118688741D01*
X201276587Y-118689305D01*
X201247666Y-118688590D01*
X201219164Y-118686468D01*
X201191116Y-118682975D01*
X201163553Y-118678145D01*
X201136509Y-118672014D01*
X201110015Y-118664616D01*
X201084105Y-118655987D01*
X201058810Y-118646161D01*
X201034165Y-118635175D01*
X201010201Y-118623062D01*
X200986951Y-118609859D01*
X200964448Y-118595599D01*
X200942725Y-118580319D01*
X200921813Y-118564052D01*
X200901746Y-118546835D01*
X200882557Y-118528703D01*
X200864277Y-118509690D01*
X200846940Y-118489831D01*
X200830579Y-118469162D01*
X200815225Y-118447718D01*
X200800912Y-118425533D01*
X200787673Y-118402643D01*
X200775539Y-118379083D01*
X200764544Y-118354888D01*
X200754720Y-118330093D01*
X200746100Y-118304733D01*
X200738717Y-118278844D01*
X200732603Y-118252459D01*
X200727791Y-118225615D01*
X200724313Y-118198347D01*
X200722202Y-118170688D01*
X200721492Y-118142676D01*
X200722207Y-118114654D01*
X200724328Y-118086969D01*
X200727822Y-118059658D01*
X200732653Y-118032756D01*
X200738785Y-118006300D01*
X200746184Y-117980325D01*
X200754815Y-117954869D01*
X200764643Y-117929967D01*
X200775633Y-117905656D01*
X200787750Y-117881972D01*
X200800959Y-117858951D01*
X200815225Y-117836629D01*
X200830513Y-117815043D01*
X200846788Y-117794229D01*
X200864016Y-117774223D01*
X200882160Y-117755061D01*
X200901186Y-117736780D01*
X200921060Y-117719415D01*
X200941745Y-117703004D01*
X200963208Y-117687582D01*
X200985413Y-117673185D01*
X201008325Y-117659851D01*
X201031910Y-117647614D01*
X201056131Y-117636511D01*
X201080955Y-117626579D01*
X201106347Y-117617854D01*
X201132271Y-117610371D01*
X201158692Y-117604168D01*
X201185575Y-117599280D01*
X201212886Y-117595744D01*
X201240589Y-117593596D01*
X201268650Y-117592871D01*
X201294347Y-117593790D01*
G37*
G36*
X203993037Y-119098258D02*
G01*
X204010501Y-119099552D01*
X204027708Y-119101681D01*
X204044637Y-119104622D01*
X204061266Y-119108352D01*
X204077574Y-119112848D01*
X204093540Y-119118088D01*
X204109142Y-119124048D01*
X204124359Y-119130706D01*
X204139169Y-119138039D01*
X204153551Y-119146023D01*
X204167484Y-119154636D01*
X204180945Y-119163856D01*
X204193915Y-119173659D01*
X204206370Y-119184022D01*
X204218291Y-119194923D01*
X204229655Y-119206339D01*
X204240441Y-119218246D01*
X204250627Y-119230623D01*
X204260193Y-119243445D01*
X204269117Y-119256691D01*
X204277377Y-119270337D01*
X204284952Y-119284361D01*
X204291820Y-119298739D01*
X204297961Y-119313449D01*
X204303352Y-119328468D01*
X204307973Y-119343773D01*
X204311801Y-119359341D01*
X204314816Y-119375149D01*
X204316997Y-119391175D01*
X204318320Y-119407396D01*
X204318766Y-119423788D01*
X204318401Y-119437463D01*
X204317316Y-119451097D01*
X204315532Y-119464680D01*
X204313068Y-119478203D01*
X204309944Y-119491655D01*
X204306178Y-119505027D01*
X204301789Y-119518309D01*
X204296798Y-119531490D01*
X204285083Y-119557512D01*
X204271188Y-119583015D01*
X204255266Y-119607920D01*
X204237473Y-119632147D01*
X204217962Y-119655618D01*
X204196887Y-119678253D01*
X204174404Y-119699973D01*
X204150665Y-119720700D01*
X204125825Y-119740354D01*
X204100039Y-119758856D01*
X204073461Y-119776127D01*
X204046245Y-119792088D01*
X204329349Y-119792088D01*
X204329879Y-119791559D01*
X204329879Y-120009047D01*
X203613387Y-120009047D01*
X203613387Y-119923321D01*
X203730851Y-119824065D01*
X203829494Y-119738477D01*
X203910290Y-119665142D01*
X203944300Y-119632627D01*
X203974213Y-119602646D01*
X204000151Y-119575022D01*
X204022236Y-119549577D01*
X204040589Y-119526135D01*
X204055332Y-119504519D01*
X204066588Y-119484553D01*
X204074476Y-119466059D01*
X204079121Y-119448862D01*
X204080641Y-119432784D01*
X204080506Y-119427204D01*
X204080104Y-119421682D01*
X204079442Y-119416225D01*
X204078525Y-119410841D01*
X204077360Y-119405538D01*
X204075953Y-119400324D01*
X204074311Y-119395207D01*
X204072439Y-119390194D01*
X204070344Y-119385294D01*
X204068032Y-119380514D01*
X204065510Y-119375862D01*
X204062782Y-119371346D01*
X204059856Y-119366973D01*
X204056738Y-119362753D01*
X204053434Y-119358692D01*
X204049950Y-119354798D01*
X204046292Y-119351079D01*
X204042467Y-119347544D01*
X204038481Y-119344199D01*
X204034339Y-119341053D01*
X204030049Y-119338113D01*
X204025616Y-119335388D01*
X204021047Y-119332886D01*
X204016348Y-119330613D01*
X204011524Y-119328579D01*
X204006583Y-119326790D01*
X204001530Y-119325255D01*
X203996372Y-119323981D01*
X203991114Y-119322977D01*
X203985763Y-119322250D01*
X203980326Y-119321808D01*
X203974808Y-119321659D01*
X203967444Y-119321849D01*
X203960145Y-119322415D01*
X203952920Y-119323347D01*
X203945781Y-119324634D01*
X203938740Y-119326269D01*
X203931807Y-119328241D01*
X203924994Y-119330541D01*
X203918311Y-119333160D01*
X203911770Y-119336088D01*
X203905383Y-119339316D01*
X203899159Y-119342834D01*
X203893111Y-119346634D01*
X203887249Y-119350705D01*
X203881584Y-119355039D01*
X203876129Y-119359625D01*
X203870893Y-119364455D01*
X203865888Y-119369519D01*
X203861125Y-119374808D01*
X203856616Y-119380312D01*
X203852371Y-119386022D01*
X203848402Y-119391928D01*
X203844719Y-119398021D01*
X203841334Y-119404293D01*
X203838258Y-119410732D01*
X203835503Y-119417331D01*
X203833078Y-119424079D01*
X203830996Y-119430967D01*
X203829268Y-119437985D01*
X203827904Y-119445125D01*
X203826916Y-119452377D01*
X203826315Y-119459732D01*
X203826112Y-119467180D01*
X203633496Y-119403680D01*
X203633937Y-119388556D01*
X203635248Y-119373560D01*
X203637406Y-119358716D01*
X203640392Y-119344047D01*
X203644185Y-119329575D01*
X203648763Y-119315325D01*
X203654106Y-119301317D01*
X203660194Y-119287577D01*
X203667004Y-119274127D01*
X203674517Y-119260989D01*
X203682711Y-119248188D01*
X203691566Y-119235746D01*
X203701061Y-119223686D01*
X203711176Y-119212031D01*
X203721888Y-119200804D01*
X203733177Y-119190029D01*
X203745024Y-119179728D01*
X203757406Y-119169924D01*
X203770302Y-119160641D01*
X203783693Y-119151902D01*
X203797557Y-119143729D01*
X203811874Y-119136146D01*
X203826622Y-119129176D01*
X203841781Y-119122841D01*
X203857329Y-119117165D01*
X203873247Y-119112172D01*
X203889513Y-119107883D01*
X203906106Y-119104322D01*
X203923006Y-119101513D01*
X203940192Y-119099477D01*
X203957643Y-119098239D01*
X203975338Y-119097821D01*
X203993037Y-119098258D01*
G37*
G36*
X201167050Y-120009047D02*
G01*
X200929983Y-120009047D01*
X200929983Y-119116342D01*
X201167050Y-119116342D01*
X201167050Y-120009047D01*
G37*
G36*
X199723387Y-119117250D02*
G01*
X199740948Y-119118372D01*
X199758159Y-119120221D01*
X199775004Y-119122778D01*
X199791469Y-119126024D01*
X199807538Y-119129941D01*
X199823196Y-119134512D01*
X199838428Y-119139716D01*
X199853217Y-119145537D01*
X199867550Y-119151956D01*
X199881410Y-119158955D01*
X199894782Y-119166515D01*
X199907651Y-119174618D01*
X199920002Y-119183245D01*
X199931819Y-119192379D01*
X199943087Y-119202001D01*
X199953791Y-119212093D01*
X199963915Y-119222636D01*
X199973444Y-119233612D01*
X199982363Y-119245003D01*
X199990657Y-119256790D01*
X199998309Y-119268956D01*
X200005306Y-119281482D01*
X200011631Y-119294349D01*
X200017269Y-119307539D01*
X200022205Y-119321034D01*
X200026424Y-119334816D01*
X200029910Y-119348866D01*
X200032648Y-119363167D01*
X200034622Y-119377698D01*
X200035818Y-119392444D01*
X200036220Y-119407384D01*
X200035444Y-119428000D01*
X200033162Y-119448144D01*
X200029443Y-119467764D01*
X200024356Y-119486808D01*
X200017969Y-119505227D01*
X200010352Y-119522967D01*
X200001574Y-119539979D01*
X199991704Y-119556212D01*
X199980811Y-119571613D01*
X199968964Y-119586133D01*
X199956231Y-119599719D01*
X199942682Y-119612320D01*
X199928386Y-119623886D01*
X199913411Y-119634365D01*
X199897828Y-119643707D01*
X199881704Y-119651859D01*
X200120887Y-120010105D01*
X199843604Y-120010105D01*
X199843075Y-120009575D01*
X199604420Y-119621696D01*
X199604420Y-120009575D01*
X199367354Y-120009575D01*
X199366760Y-119508984D01*
X199366548Y-119330126D01*
X199603362Y-119330126D01*
X199603362Y-119508984D01*
X199700200Y-119508984D01*
X199704899Y-119508977D01*
X199709566Y-119508759D01*
X199714192Y-119508333D01*
X199718771Y-119507703D01*
X199723295Y-119506872D01*
X199727755Y-119505843D01*
X199732145Y-119504620D01*
X199736456Y-119503204D01*
X199740681Y-119501601D01*
X199744813Y-119499812D01*
X199748843Y-119497841D01*
X199752764Y-119495692D01*
X199756569Y-119493367D01*
X199760249Y-119490869D01*
X199763797Y-119488202D01*
X199767206Y-119485370D01*
X199770467Y-119482374D01*
X199773573Y-119479219D01*
X199776517Y-119475908D01*
X199779291Y-119472444D01*
X199781886Y-119468829D01*
X199784296Y-119465068D01*
X199786513Y-119461163D01*
X199788529Y-119457117D01*
X199790337Y-119452935D01*
X199791928Y-119448618D01*
X199793296Y-119444171D01*
X199794432Y-119439596D01*
X199795329Y-119434897D01*
X199795979Y-119430076D01*
X199796375Y-119425137D01*
X199796508Y-119420084D01*
X199796373Y-119415031D01*
X199795973Y-119410092D01*
X199795316Y-119405271D01*
X199794410Y-119400570D01*
X199793263Y-119395993D01*
X199791883Y-119391543D01*
X199790277Y-119387222D01*
X199788455Y-119383034D01*
X199786423Y-119378982D01*
X199784190Y-119375068D01*
X199781763Y-119371296D01*
X199779151Y-119367669D01*
X199776361Y-119364189D01*
X199773402Y-119360860D01*
X199770282Y-119357685D01*
X199767007Y-119354666D01*
X199763587Y-119351807D01*
X199760029Y-119349111D01*
X199756341Y-119346580D01*
X199752531Y-119344218D01*
X199748608Y-119342028D01*
X199744578Y-119340012D01*
X199740451Y-119338174D01*
X199736233Y-119336517D01*
X199731933Y-119335044D01*
X199727559Y-119333757D01*
X199723118Y-119332660D01*
X199718619Y-119331756D01*
X199714070Y-119331047D01*
X199709479Y-119330537D01*
X199704852Y-119330229D01*
X199700200Y-119330126D01*
X199603362Y-119330126D01*
X199366548Y-119330126D01*
X199366295Y-119116871D01*
X199705491Y-119116871D01*
X199723387Y-119117250D01*
G37*
G36*
X199234533Y-119338063D02*
G01*
X198890046Y-119338063D01*
X198890046Y-119461888D01*
X199173679Y-119461888D01*
X199173679Y-119659797D01*
X198890046Y-119659797D01*
X198890046Y-119787855D01*
X199234533Y-119787855D01*
X199234533Y-120010105D01*
X198655625Y-120010105D01*
X198655625Y-119117400D01*
X199234533Y-119117400D01*
X199234533Y-119338063D01*
G37*
G36*
X202913829Y-119550259D02*
G01*
X202913829Y-119114755D01*
X203151425Y-119114755D01*
X203151425Y-119115284D01*
X203151425Y-120018042D01*
X203076283Y-120018042D01*
X202616967Y-119573013D01*
X202616967Y-120009575D01*
X202379900Y-120009575D01*
X202379900Y-119107346D01*
X202456100Y-119107346D01*
X202913829Y-119550259D01*
G37*
G36*
X198100000Y-119600000D02*
G01*
X198306375Y-119116342D01*
X198566196Y-119116342D01*
X198566725Y-119116342D01*
X198155033Y-120018571D01*
X198047612Y-120018571D01*
X197637508Y-119116342D01*
X197894154Y-119116342D01*
X198100000Y-119600000D01*
G37*
G36*
X200536112Y-119103324D02*
G01*
X200560563Y-119105508D01*
X200584176Y-119109075D01*
X200606894Y-119113969D01*
X200628656Y-119120131D01*
X200649405Y-119127503D01*
X200669080Y-119136027D01*
X200687624Y-119145645D01*
X200704978Y-119156298D01*
X200721082Y-119167928D01*
X200735877Y-119180478D01*
X200749306Y-119193890D01*
X200761307Y-119208104D01*
X200771824Y-119223063D01*
X200780797Y-119238709D01*
X200788166Y-119254984D01*
X200651112Y-119386746D01*
X200648510Y-119382408D01*
X200645672Y-119378224D01*
X200642611Y-119374193D01*
X200639339Y-119370314D01*
X200635870Y-119366585D01*
X200632214Y-119363007D01*
X200628386Y-119359576D01*
X200624398Y-119356294D01*
X200620261Y-119353158D01*
X200615988Y-119350167D01*
X200607087Y-119344618D01*
X200597793Y-119339638D01*
X200588207Y-119335218D01*
X200578429Y-119331350D01*
X200568559Y-119328026D01*
X200558696Y-119325236D01*
X200548942Y-119322973D01*
X200539395Y-119321227D01*
X200530155Y-119319991D01*
X200521324Y-119319256D01*
X200513000Y-119319012D01*
X200504038Y-119319299D01*
X200495430Y-119320141D01*
X200487206Y-119321510D01*
X200479398Y-119323378D01*
X200472036Y-119325718D01*
X200465151Y-119328500D01*
X200458776Y-119331699D01*
X200452939Y-119335284D01*
X200447673Y-119339230D01*
X200443009Y-119343507D01*
X200440912Y-119345762D01*
X200438977Y-119348088D01*
X200437208Y-119350484D01*
X200435609Y-119352945D01*
X200434183Y-119355469D01*
X200432935Y-119358051D01*
X200431868Y-119360687D01*
X200430987Y-119363376D01*
X200430295Y-119366112D01*
X200429795Y-119368893D01*
X200429493Y-119371715D01*
X200429391Y-119374575D01*
X200429575Y-119378318D01*
X200430122Y-119381912D01*
X200431027Y-119385367D01*
X200432285Y-119388694D01*
X200433890Y-119391902D01*
X200435837Y-119395001D01*
X200438121Y-119398000D01*
X200440735Y-119400909D01*
X200443675Y-119403739D01*
X200446935Y-119406499D01*
X200450510Y-119409198D01*
X200454394Y-119411847D01*
X200458582Y-119414456D01*
X200463069Y-119417033D01*
X200467848Y-119419589D01*
X200472915Y-119422134D01*
X200483890Y-119427229D01*
X200495950Y-119432396D01*
X200509052Y-119437713D01*
X200523153Y-119443260D01*
X200554175Y-119455351D01*
X200571010Y-119462053D01*
X200588670Y-119469296D01*
X200614301Y-119480624D01*
X200638761Y-119492602D01*
X200661984Y-119505259D01*
X200683904Y-119518624D01*
X200704453Y-119532728D01*
X200723564Y-119547598D01*
X200741172Y-119563266D01*
X200757210Y-119579760D01*
X200771610Y-119597109D01*
X200778176Y-119606114D01*
X200784307Y-119615344D01*
X200789995Y-119624802D01*
X200795233Y-119634493D01*
X200800011Y-119644420D01*
X200804322Y-119654587D01*
X200808157Y-119664997D01*
X200811507Y-119675654D01*
X200814365Y-119686562D01*
X200816722Y-119697724D01*
X200818570Y-119709145D01*
X200819900Y-119720827D01*
X200820704Y-119732775D01*
X200820974Y-119744992D01*
X200820515Y-119760727D01*
X200819154Y-119776080D01*
X200816915Y-119791043D01*
X200813825Y-119805607D01*
X200809909Y-119819766D01*
X200805190Y-119833511D01*
X200799696Y-119846835D01*
X200793449Y-119859730D01*
X200786477Y-119872189D01*
X200778803Y-119884203D01*
X200770453Y-119895766D01*
X200761452Y-119906870D01*
X200751826Y-119917507D01*
X200741598Y-119927669D01*
X200730794Y-119937348D01*
X200719440Y-119946538D01*
X200707561Y-119955230D01*
X200695181Y-119963417D01*
X200682325Y-119971090D01*
X200669020Y-119978244D01*
X200655289Y-119984868D01*
X200641158Y-119990957D01*
X200626652Y-119996503D01*
X200611796Y-120001497D01*
X200596616Y-120005932D01*
X200581136Y-120009801D01*
X200565381Y-120013095D01*
X200549376Y-120015808D01*
X200533148Y-120017931D01*
X200516720Y-120019457D01*
X200500117Y-120020379D01*
X200483366Y-120020687D01*
X200456050Y-120019938D01*
X200429144Y-120017720D01*
X200402760Y-120014077D01*
X200377012Y-120009054D01*
X200352010Y-120002694D01*
X200327869Y-119995043D01*
X200304699Y-119986143D01*
X200282613Y-119976039D01*
X200261725Y-119964776D01*
X200242146Y-119952397D01*
X200223988Y-119938947D01*
X200207364Y-119924470D01*
X200192387Y-119909010D01*
X200179169Y-119892612D01*
X200167821Y-119875319D01*
X200158458Y-119857175D01*
X200159516Y-119858234D01*
X200302920Y-119717476D01*
X200306487Y-119722569D01*
X200310237Y-119727531D01*
X200314167Y-119732359D01*
X200318271Y-119737051D01*
X200322545Y-119741604D01*
X200326983Y-119746018D01*
X200336332Y-119754418D01*
X200346280Y-119762235D01*
X200356787Y-119769454D01*
X200367813Y-119776058D01*
X200379319Y-119782034D01*
X200391265Y-119787364D01*
X200403612Y-119792034D01*
X200416320Y-119796028D01*
X200429350Y-119799331D01*
X200442662Y-119801927D01*
X200456217Y-119803800D01*
X200469974Y-119804935D01*
X200483896Y-119805317D01*
X200493297Y-119805106D01*
X200502604Y-119804472D01*
X200511744Y-119803413D01*
X200520648Y-119801927D01*
X200529245Y-119800014D01*
X200537464Y-119797671D01*
X200545236Y-119794898D01*
X200552489Y-119791691D01*
X200559153Y-119788051D01*
X200565157Y-119783975D01*
X200567889Y-119781773D01*
X200570431Y-119779462D01*
X200572772Y-119777041D01*
X200574904Y-119774510D01*
X200576818Y-119771869D01*
X200578506Y-119769118D01*
X200579958Y-119766256D01*
X200581166Y-119763284D01*
X200582121Y-119760200D01*
X200582814Y-119757006D01*
X200583236Y-119753701D01*
X200583379Y-119750284D01*
X200583114Y-119745985D01*
X200582329Y-119741719D01*
X200581044Y-119737485D01*
X200579275Y-119733283D01*
X200577039Y-119729112D01*
X200574355Y-119724970D01*
X200571240Y-119720857D01*
X200567711Y-119716773D01*
X200563785Y-119712715D01*
X200559482Y-119708684D01*
X200554817Y-119704678D01*
X200549809Y-119700696D01*
X200544475Y-119696738D01*
X200538832Y-119692803D01*
X200526692Y-119684998D01*
X200513528Y-119677273D01*
X200499482Y-119669622D01*
X200484693Y-119662038D01*
X200469302Y-119654513D01*
X200437274Y-119639614D01*
X200404521Y-119624871D01*
X200383500Y-119615437D01*
X200362981Y-119605355D01*
X200343082Y-119594574D01*
X200323922Y-119583042D01*
X200305617Y-119570707D01*
X200288286Y-119557517D01*
X200272046Y-119543420D01*
X200257015Y-119528364D01*
X200249990Y-119520461D01*
X200243312Y-119512298D01*
X200236994Y-119503869D01*
X200231053Y-119495169D01*
X200225502Y-119486189D01*
X200220357Y-119476925D01*
X200215632Y-119467368D01*
X200211342Y-119457514D01*
X200207501Y-119447355D01*
X200204124Y-119436885D01*
X200201227Y-119426097D01*
X200198824Y-119414985D01*
X200196928Y-119403543D01*
X200195557Y-119391763D01*
X200194723Y-119379640D01*
X200194441Y-119367167D01*
X200194867Y-119352813D01*
X200196129Y-119338732D01*
X200198205Y-119324935D01*
X200201071Y-119311435D01*
X200204707Y-119298243D01*
X200209088Y-119285372D01*
X200214193Y-119272833D01*
X200219998Y-119260639D01*
X200226482Y-119248802D01*
X200233622Y-119237333D01*
X200241394Y-119226244D01*
X200249777Y-119215548D01*
X200258749Y-119205257D01*
X200268285Y-119195383D01*
X200278364Y-119185937D01*
X200288964Y-119176932D01*
X200300061Y-119168379D01*
X200311633Y-119160291D01*
X200323658Y-119152680D01*
X200336112Y-119145558D01*
X200348974Y-119138936D01*
X200362221Y-119132827D01*
X200375830Y-119127243D01*
X200389778Y-119122196D01*
X200404044Y-119117697D01*
X200418604Y-119113760D01*
X200433436Y-119110395D01*
X200448517Y-119107615D01*
X200463825Y-119105432D01*
X200479337Y-119103858D01*
X200495030Y-119102904D01*
X200510883Y-119102584D01*
X200536112Y-119103324D01*
G37*
G36*
X205235507Y-119098360D02*
G01*
X205257406Y-119099964D01*
X205278745Y-119102617D01*
X205299512Y-119106304D01*
X205319697Y-119111007D01*
X205339289Y-119116710D01*
X205358278Y-119123397D01*
X205376652Y-119131051D01*
X205394402Y-119139657D01*
X205411517Y-119149197D01*
X205427985Y-119159656D01*
X205443797Y-119171017D01*
X205458941Y-119183263D01*
X205473407Y-119196379D01*
X205487184Y-119210347D01*
X205500262Y-119225152D01*
X205512630Y-119240777D01*
X205524278Y-119257206D01*
X205535194Y-119274422D01*
X205545368Y-119292409D01*
X205554789Y-119311151D01*
X205563447Y-119330630D01*
X205571331Y-119350832D01*
X205578430Y-119371739D01*
X205584734Y-119393336D01*
X205590232Y-119415605D01*
X205594914Y-119438530D01*
X205598768Y-119462096D01*
X205601784Y-119486285D01*
X205603952Y-119511081D01*
X205605260Y-119536468D01*
X205605699Y-119562429D01*
X205603923Y-119613784D01*
X205598659Y-119662786D01*
X205594750Y-119686364D01*
X205590005Y-119709303D01*
X205584437Y-119731588D01*
X205578058Y-119753202D01*
X205570880Y-119774129D01*
X205562914Y-119794351D01*
X205554173Y-119813853D01*
X205544670Y-119832618D01*
X205534416Y-119850628D01*
X205523423Y-119867869D01*
X205511704Y-119884322D01*
X205499270Y-119899972D01*
X205486134Y-119914801D01*
X205472308Y-119928794D01*
X205457804Y-119941934D01*
X205442634Y-119954204D01*
X205426810Y-119965588D01*
X205410344Y-119976068D01*
X205393249Y-119985629D01*
X205375536Y-119994254D01*
X205357218Y-120001927D01*
X205338307Y-120008630D01*
X205318814Y-120014347D01*
X205298752Y-120019062D01*
X205278134Y-120022758D01*
X205256970Y-120025419D01*
X205235274Y-120027027D01*
X205213057Y-120027567D01*
X205190828Y-120027029D01*
X205169097Y-120025425D01*
X205147876Y-120022771D01*
X205127180Y-120019085D01*
X205107023Y-120014382D01*
X205087417Y-120008679D01*
X205068377Y-120001991D01*
X205049917Y-119994337D01*
X205032049Y-119985731D01*
X205014788Y-119976191D01*
X204998148Y-119965732D01*
X204982141Y-119954371D01*
X204966782Y-119942125D01*
X204952084Y-119929010D01*
X204938062Y-119915041D01*
X204924728Y-119900236D01*
X204912096Y-119884611D01*
X204900180Y-119868183D01*
X204888994Y-119850967D01*
X204878551Y-119832979D01*
X204868864Y-119814238D01*
X204859949Y-119794758D01*
X204851818Y-119774556D01*
X204844484Y-119753649D01*
X204837963Y-119732053D01*
X204832266Y-119709784D01*
X204827409Y-119686858D01*
X204823404Y-119663293D01*
X204820265Y-119639104D01*
X204818006Y-119614308D01*
X204816640Y-119588920D01*
X204816182Y-119562959D01*
X204816201Y-119562429D01*
X205053250Y-119562429D01*
X205053957Y-119588835D01*
X205056055Y-119614031D01*
X205059507Y-119637950D01*
X205064279Y-119660524D01*
X205070335Y-119681683D01*
X205077639Y-119701360D01*
X205086155Y-119719488D01*
X205095847Y-119735996D01*
X205101124Y-119743622D01*
X205106681Y-119750818D01*
X205112515Y-119757575D01*
X205118620Y-119763885D01*
X205124993Y-119769739D01*
X205131629Y-119775128D01*
X205138523Y-119780045D01*
X205145672Y-119784481D01*
X205153070Y-119788426D01*
X205160713Y-119791874D01*
X205168597Y-119794814D01*
X205176717Y-119797239D01*
X205185069Y-119799139D01*
X205193648Y-119800508D01*
X205202451Y-119801335D01*
X205211471Y-119801612D01*
X205220487Y-119801335D01*
X205229276Y-119800508D01*
X205237834Y-119799140D01*
X205246156Y-119797241D01*
X205254241Y-119794818D01*
X205262082Y-119791881D01*
X205269677Y-119788437D01*
X205277022Y-119784497D01*
X205284112Y-119780069D01*
X205290945Y-119775161D01*
X205297515Y-119769782D01*
X205303819Y-119763940D01*
X205309854Y-119757646D01*
X205315615Y-119750906D01*
X205321098Y-119743731D01*
X205326301Y-119736128D01*
X205331218Y-119728107D01*
X205335845Y-119719676D01*
X205340180Y-119710843D01*
X205344218Y-119701619D01*
X205347955Y-119692010D01*
X205351388Y-119682027D01*
X205354511Y-119671677D01*
X205357323Y-119660970D01*
X205359818Y-119649914D01*
X205361994Y-119638518D01*
X205363845Y-119626790D01*
X205365368Y-119614740D01*
X205366560Y-119602376D01*
X205367415Y-119589707D01*
X205367932Y-119576741D01*
X205368105Y-119563488D01*
X205368104Y-119563488D01*
X205367403Y-119536977D01*
X205365323Y-119511666D01*
X205361899Y-119487624D01*
X205357165Y-119464922D01*
X205351157Y-119443632D01*
X205343910Y-119423822D01*
X205335458Y-119405564D01*
X205325837Y-119388929D01*
X205315080Y-119373987D01*
X205309287Y-119367173D01*
X205303224Y-119360808D01*
X205296894Y-119354902D01*
X205290303Y-119349463D01*
X205283453Y-119344500D01*
X205276351Y-119340023D01*
X205269000Y-119336039D01*
X205261404Y-119332557D01*
X205253568Y-119329587D01*
X205245497Y-119327138D01*
X205237194Y-119325217D01*
X205228664Y-119323834D01*
X205219912Y-119322998D01*
X205210941Y-119322717D01*
X205201969Y-119322996D01*
X205193212Y-119323828D01*
X205184675Y-119325203D01*
X205176362Y-119327114D01*
X205168279Y-119329551D01*
X205160429Y-119332505D01*
X205152817Y-119335968D01*
X205145448Y-119339932D01*
X205138327Y-119344387D01*
X205131457Y-119349324D01*
X205124843Y-119354736D01*
X205118491Y-119360613D01*
X205112404Y-119366946D01*
X205106587Y-119373727D01*
X205101044Y-119380948D01*
X205095781Y-119388598D01*
X205090802Y-119396671D01*
X205086110Y-119405156D01*
X205081712Y-119414046D01*
X205077611Y-119423331D01*
X205073812Y-119433003D01*
X205070319Y-119443053D01*
X205067137Y-119453472D01*
X205064271Y-119464252D01*
X205061725Y-119475384D01*
X205059504Y-119486860D01*
X205057612Y-119498669D01*
X205056054Y-119510805D01*
X205054834Y-119523257D01*
X205053957Y-119536018D01*
X205053427Y-119549078D01*
X205053250Y-119562429D01*
X204816201Y-119562429D01*
X204817977Y-119511430D01*
X204823295Y-119462298D01*
X204827245Y-119438672D01*
X204832039Y-119415692D01*
X204837666Y-119393376D01*
X204844112Y-119371740D01*
X204851366Y-119350798D01*
X204859416Y-119330568D01*
X204868249Y-119311065D01*
X204877853Y-119292306D01*
X204888216Y-119274305D01*
X204899325Y-119257080D01*
X204911169Y-119240646D01*
X204923735Y-119225020D01*
X204937012Y-119210216D01*
X204950986Y-119196252D01*
X204965645Y-119183143D01*
X204980978Y-119170905D01*
X204996973Y-119159555D01*
X205013616Y-119149107D01*
X205030896Y-119139579D01*
X205048801Y-119130985D01*
X205067318Y-119123343D01*
X205086435Y-119116668D01*
X205106140Y-119110976D01*
X205126421Y-119106283D01*
X205147265Y-119102605D01*
X205168661Y-119099958D01*
X205190596Y-119098358D01*
X205213057Y-119097821D01*
X205235507Y-119098360D01*
G37*
G36*
X201799276Y-119093121D02*
G01*
X201824673Y-119094877D01*
X201849636Y-119097774D01*
X201874141Y-119101785D01*
X201898158Y-119106886D01*
X201921661Y-119113051D01*
X201944623Y-119120254D01*
X201967018Y-119128472D01*
X201988816Y-119137677D01*
X202009993Y-119147846D01*
X202030520Y-119158952D01*
X202050370Y-119170971D01*
X202069516Y-119183877D01*
X202087931Y-119197645D01*
X202105588Y-119212250D01*
X202122460Y-119227666D01*
X202138520Y-119243867D01*
X202153740Y-119260830D01*
X202168094Y-119278528D01*
X202181553Y-119296936D01*
X202194092Y-119316029D01*
X202205683Y-119335781D01*
X202216299Y-119356168D01*
X202225912Y-119377164D01*
X202234497Y-119398743D01*
X202242024Y-119420881D01*
X202248468Y-119443552D01*
X202253801Y-119466730D01*
X202257996Y-119490391D01*
X202261027Y-119514510D01*
X202262865Y-119539060D01*
X202263483Y-119564018D01*
X202262865Y-119588964D01*
X202261027Y-119613483D01*
X202257996Y-119637552D01*
X202253800Y-119661145D01*
X202248466Y-119684240D01*
X202242021Y-119706812D01*
X202234491Y-119728838D01*
X202225904Y-119750292D01*
X202216287Y-119771153D01*
X202205667Y-119791394D01*
X202194071Y-119810994D01*
X202181526Y-119829927D01*
X202168058Y-119848170D01*
X202153696Y-119865698D01*
X202138465Y-119882489D01*
X202122394Y-119898517D01*
X202105509Y-119913759D01*
X202087837Y-119928192D01*
X202069405Y-119941790D01*
X202050240Y-119954531D01*
X202030370Y-119966390D01*
X202009821Y-119977343D01*
X201988620Y-119987367D01*
X201966794Y-119996437D01*
X201944371Y-120004530D01*
X201921377Y-120011622D01*
X201897840Y-120017688D01*
X201873786Y-120022704D01*
X201849242Y-120026648D01*
X201824236Y-120029495D01*
X201798795Y-120031220D01*
X201772945Y-120031800D01*
X201747099Y-120031213D01*
X201721666Y-120029465D01*
X201696675Y-120026585D01*
X201672150Y-120022596D01*
X201648120Y-120017524D01*
X201624611Y-120011395D01*
X201601650Y-120004233D01*
X201579262Y-119996065D01*
X201557475Y-119986916D01*
X201536316Y-119976810D01*
X201515810Y-119965774D01*
X201495985Y-119953833D01*
X201476868Y-119941012D01*
X201458485Y-119927337D01*
X201440862Y-119912833D01*
X201424026Y-119897525D01*
X201408004Y-119881438D01*
X201392823Y-119864599D01*
X201378509Y-119847033D01*
X201365089Y-119828764D01*
X201352589Y-119809819D01*
X201341037Y-119790222D01*
X201330458Y-119769999D01*
X201320880Y-119749176D01*
X201312329Y-119727778D01*
X201304831Y-119705830D01*
X201298414Y-119683357D01*
X201293104Y-119660386D01*
X201288927Y-119636941D01*
X201285911Y-119613047D01*
X201284082Y-119588731D01*
X201283466Y-119564018D01*
X201283506Y-119562429D01*
X201523178Y-119562429D01*
X201523494Y-119575278D01*
X201524431Y-119587917D01*
X201525977Y-119600336D01*
X201528117Y-119612519D01*
X201530837Y-119624456D01*
X201534124Y-119636131D01*
X201537965Y-119647532D01*
X201542344Y-119658647D01*
X201547249Y-119669462D01*
X201552666Y-119679963D01*
X201558581Y-119690139D01*
X201564981Y-119699975D01*
X201571850Y-119709459D01*
X201579177Y-119718577D01*
X201586946Y-119727317D01*
X201595145Y-119735666D01*
X201603759Y-119743609D01*
X201612775Y-119751136D01*
X201622179Y-119758231D01*
X201631957Y-119764883D01*
X201642096Y-119771077D01*
X201652581Y-119776802D01*
X201663399Y-119782043D01*
X201674537Y-119786788D01*
X201685979Y-119791024D01*
X201697714Y-119794738D01*
X201709726Y-119797916D01*
X201722003Y-119800546D01*
X201734529Y-119802614D01*
X201747293Y-119804107D01*
X201760279Y-119805013D01*
X201773474Y-119805317D01*
X201786670Y-119805010D01*
X201799656Y-119804095D01*
X201812419Y-119802588D01*
X201824946Y-119800502D01*
X201837223Y-119797850D01*
X201849235Y-119794647D01*
X201860969Y-119790905D01*
X201872412Y-119786639D01*
X201883549Y-119781862D01*
X201894368Y-119776588D01*
X201904853Y-119770831D01*
X201914991Y-119764604D01*
X201924770Y-119757920D01*
X201934173Y-119750794D01*
X201943189Y-119743239D01*
X201951804Y-119735269D01*
X201960002Y-119726897D01*
X201967772Y-119718138D01*
X201975099Y-119709004D01*
X201981968Y-119699510D01*
X201988368Y-119689669D01*
X201994283Y-119679494D01*
X201999700Y-119669000D01*
X202004605Y-119658201D01*
X202008984Y-119647109D01*
X202012825Y-119635738D01*
X202016112Y-119624103D01*
X202018832Y-119612216D01*
X202020972Y-119600092D01*
X202022518Y-119587743D01*
X202023455Y-119575185D01*
X202023770Y-119562430D01*
X202023770Y-119562429D01*
X202023455Y-119549577D01*
X202022518Y-119536924D01*
X202020972Y-119524484D01*
X202018832Y-119512271D01*
X202016112Y-119500299D01*
X202012825Y-119488582D01*
X202008984Y-119477132D01*
X202004605Y-119465964D01*
X201999700Y-119455091D01*
X201994283Y-119444528D01*
X201988368Y-119434287D01*
X201981968Y-119424382D01*
X201975099Y-119414827D01*
X201967772Y-119405636D01*
X201960002Y-119396823D01*
X201951804Y-119388400D01*
X201943189Y-119380382D01*
X201934173Y-119372782D01*
X201924770Y-119365614D01*
X201914991Y-119358891D01*
X201904853Y-119352628D01*
X201894368Y-119346838D01*
X201883549Y-119341535D01*
X201872412Y-119336731D01*
X201860969Y-119332442D01*
X201849235Y-119328680D01*
X201837223Y-119325460D01*
X201824946Y-119322794D01*
X201812419Y-119320697D01*
X201799656Y-119319182D01*
X201786670Y-119318264D01*
X201773474Y-119317954D01*
X201760279Y-119318264D01*
X201747293Y-119319182D01*
X201734529Y-119320697D01*
X201722003Y-119322794D01*
X201709726Y-119325460D01*
X201697714Y-119328680D01*
X201685979Y-119332442D01*
X201674537Y-119336731D01*
X201663399Y-119341535D01*
X201652581Y-119346838D01*
X201642096Y-119352628D01*
X201631957Y-119358891D01*
X201622179Y-119365614D01*
X201612775Y-119372782D01*
X201603759Y-119380382D01*
X201595145Y-119388400D01*
X201586946Y-119396823D01*
X201579177Y-119405636D01*
X201571850Y-119414827D01*
X201564981Y-119424382D01*
X201558581Y-119434287D01*
X201552666Y-119444528D01*
X201547249Y-119455091D01*
X201542344Y-119465964D01*
X201537965Y-119477132D01*
X201534124Y-119488582D01*
X201530837Y-119500299D01*
X201528117Y-119512271D01*
X201525977Y-119524484D01*
X201524431Y-119536924D01*
X201523494Y-119549577D01*
X201523178Y-119562429D01*
X201283506Y-119562429D01*
X201284085Y-119539060D01*
X201285923Y-119514510D01*
X201288953Y-119490392D01*
X201293148Y-119466730D01*
X201298481Y-119443552D01*
X201304925Y-119420881D01*
X201312453Y-119398743D01*
X201321037Y-119377164D01*
X201330651Y-119356168D01*
X201341266Y-119335781D01*
X201352857Y-119316029D01*
X201365396Y-119296936D01*
X201378856Y-119278528D01*
X201393209Y-119260830D01*
X201408430Y-119243868D01*
X201424489Y-119227666D01*
X201441361Y-119212250D01*
X201459018Y-119197645D01*
X201477434Y-119183878D01*
X201496580Y-119170971D01*
X201516430Y-119158953D01*
X201536957Y-119147846D01*
X201558133Y-119137677D01*
X201579932Y-119128472D01*
X201602326Y-119120254D01*
X201625288Y-119113051D01*
X201648792Y-119106886D01*
X201672809Y-119101785D01*
X201697313Y-119097774D01*
X201722277Y-119094877D01*
X201747673Y-119093121D01*
X201773475Y-119092530D01*
X201799276Y-119093121D01*
G37*
G36*
X204580169Y-119765813D02*
G01*
X204587487Y-119766355D01*
X204594711Y-119767248D01*
X204601831Y-119768481D01*
X204608837Y-119770046D01*
X204615719Y-119771933D01*
X204622468Y-119774132D01*
X204629073Y-119776635D01*
X204635524Y-119779431D01*
X204641812Y-119782512D01*
X204647927Y-119785867D01*
X204653859Y-119789489D01*
X204659598Y-119793366D01*
X204665133Y-119797490D01*
X204670456Y-119801852D01*
X204675557Y-119806442D01*
X204680424Y-119811250D01*
X204685050Y-119816267D01*
X204689423Y-119821485D01*
X204693534Y-119826892D01*
X204697373Y-119832481D01*
X204700929Y-119838241D01*
X204704194Y-119844163D01*
X204707158Y-119850239D01*
X204709809Y-119856457D01*
X204712140Y-119862810D01*
X204714138Y-119869287D01*
X204715796Y-119875879D01*
X204717102Y-119882578D01*
X204718048Y-119889372D01*
X204718622Y-119896254D01*
X204718816Y-119903213D01*
X204718622Y-119910174D01*
X204718048Y-119917060D01*
X204717102Y-119923862D01*
X204715796Y-119930570D01*
X204714138Y-119937174D01*
X204712140Y-119943665D01*
X204709809Y-119950034D01*
X204707158Y-119956270D01*
X204704194Y-119962365D01*
X204700929Y-119968308D01*
X204697373Y-119974090D01*
X204693534Y-119979702D01*
X204689423Y-119985133D01*
X204685050Y-119990374D01*
X204680424Y-119995416D01*
X204675557Y-120000249D01*
X204670456Y-120004864D01*
X204665133Y-120009250D01*
X204659598Y-120013398D01*
X204653859Y-120017299D01*
X204647927Y-120020943D01*
X204641812Y-120024321D01*
X204635524Y-120027422D01*
X204629073Y-120030238D01*
X204622468Y-120032758D01*
X204615719Y-120034974D01*
X204608837Y-120036875D01*
X204601831Y-120038452D01*
X204594711Y-120039695D01*
X204587487Y-120040594D01*
X204580169Y-120041141D01*
X204572766Y-120041326D01*
X204565362Y-120041147D01*
X204558040Y-120040618D01*
X204550809Y-120039745D01*
X204543679Y-120038538D01*
X204536661Y-120037006D01*
X204529764Y-120035155D01*
X204523000Y-120032996D01*
X204516377Y-120030536D01*
X204509906Y-120027783D01*
X204503598Y-120024747D01*
X204497461Y-120021436D01*
X204491506Y-120017857D01*
X204485744Y-120014020D01*
X204480184Y-120009933D01*
X204474836Y-120005605D01*
X204469711Y-120001043D01*
X204464818Y-119996256D01*
X204460168Y-119991253D01*
X204455771Y-119986042D01*
X204451637Y-119980632D01*
X204447775Y-119975030D01*
X204444196Y-119969246D01*
X204440910Y-119963287D01*
X204437928Y-119957163D01*
X204435258Y-119950882D01*
X204432912Y-119944451D01*
X204430899Y-119937880D01*
X204429229Y-119931177D01*
X204427913Y-119924351D01*
X204426961Y-119917409D01*
X204426382Y-119910360D01*
X204426187Y-119903213D01*
X204426382Y-119896254D01*
X204426961Y-119889372D01*
X204427913Y-119882578D01*
X204429229Y-119875879D01*
X204430899Y-119869287D01*
X204432912Y-119862810D01*
X204435258Y-119856457D01*
X204437928Y-119850238D01*
X204440910Y-119844163D01*
X204444196Y-119838241D01*
X204447775Y-119832481D01*
X204451637Y-119826892D01*
X204455771Y-119821484D01*
X204460168Y-119816267D01*
X204464818Y-119811250D01*
X204469711Y-119806442D01*
X204474836Y-119801852D01*
X204480184Y-119797490D01*
X204485744Y-119793366D01*
X204491506Y-119789489D01*
X204497461Y-119785867D01*
X204503598Y-119782512D01*
X204509906Y-119779431D01*
X204516377Y-119776635D01*
X204523000Y-119774132D01*
X204529764Y-119771933D01*
X204536661Y-119770046D01*
X204543679Y-119768481D01*
X204550809Y-119767248D01*
X204558040Y-119766355D01*
X204565362Y-119765813D01*
X204572766Y-119765630D01*
X204580169Y-119765813D01*
G37*
D11*
X184116666Y-115657419D02*
X184116666Y-116371704D01*
X184116666Y-116371704D02*
X184069047Y-116514561D01*
X184069047Y-116514561D02*
X183973809Y-116609800D01*
X183973809Y-116609800D02*
X183830952Y-116657419D01*
X183830952Y-116657419D02*
X183735714Y-116657419D01*
X184497619Y-115657419D02*
X185116666Y-115657419D01*
X185116666Y-115657419D02*
X184783333Y-116038371D01*
X184783333Y-116038371D02*
X184926190Y-116038371D01*
X184926190Y-116038371D02*
X185021428Y-116085990D01*
X185021428Y-116085990D02*
X185069047Y-116133609D01*
X185069047Y-116133609D02*
X185116666Y-116228847D01*
X185116666Y-116228847D02*
X185116666Y-116466942D01*
X185116666Y-116466942D02*
X185069047Y-116562180D01*
X185069047Y-116562180D02*
X185021428Y-116609800D01*
X185021428Y-116609800D02*
X184926190Y-116657419D01*
X184926190Y-116657419D02*
X184640476Y-116657419D01*
X184640476Y-116657419D02*
X184545238Y-116609800D01*
X184545238Y-116609800D02*
X184497619Y-116562180D01*
X184116666Y-118657419D02*
X184116666Y-119371704D01*
X184116666Y-119371704D02*
X184069047Y-119514561D01*
X184069047Y-119514561D02*
X183973809Y-119609800D01*
X183973809Y-119609800D02*
X183830952Y-119657419D01*
X183830952Y-119657419D02*
X183735714Y-119657419D01*
X184497619Y-118657419D02*
X185116666Y-118657419D01*
X185116666Y-118657419D02*
X184783333Y-119038371D01*
X184783333Y-119038371D02*
X184926190Y-119038371D01*
X184926190Y-119038371D02*
X185021428Y-119085990D01*
X185021428Y-119085990D02*
X185069047Y-119133609D01*
X185069047Y-119133609D02*
X185116666Y-119228847D01*
X185116666Y-119228847D02*
X185116666Y-119466942D01*
X185116666Y-119466942D02*
X185069047Y-119562180D01*
X185069047Y-119562180D02*
X185021428Y-119609800D01*
X185021428Y-119609800D02*
X184926190Y-119657419D01*
X184926190Y-119657419D02*
X184640476Y-119657419D01*
X184640476Y-119657419D02*
X184545238Y-119609800D01*
X184545238Y-119609800D02*
X184497619Y-119562180D01*
D12*
X176734419Y-111235240D02*
X176734419Y-110066840D01*
X177958457Y-111123963D02*
X177902819Y-111179602D01*
X177902819Y-111179602D02*
X177735905Y-111235240D01*
X177735905Y-111235240D02*
X177624629Y-111235240D01*
X177624629Y-111235240D02*
X177457714Y-111179602D01*
X177457714Y-111179602D02*
X177346438Y-111068325D01*
X177346438Y-111068325D02*
X177290800Y-110957049D01*
X177290800Y-110957049D02*
X177235162Y-110734497D01*
X177235162Y-110734497D02*
X177235162Y-110567582D01*
X177235162Y-110567582D02*
X177290800Y-110345030D01*
X177290800Y-110345030D02*
X177346438Y-110233754D01*
X177346438Y-110233754D02*
X177457714Y-110122478D01*
X177457714Y-110122478D02*
X177624629Y-110066840D01*
X177624629Y-110066840D02*
X177735905Y-110066840D01*
X177735905Y-110066840D02*
X177902819Y-110122478D01*
X177902819Y-110122478D02*
X177958457Y-110178116D01*
X179071219Y-111235240D02*
X178403562Y-111235240D01*
X178737390Y-111235240D02*
X178737390Y-110066840D01*
X178737390Y-110066840D02*
X178626114Y-110233754D01*
X178626114Y-110233754D02*
X178514838Y-110345030D01*
X178514838Y-110345030D02*
X178403562Y-110400668D01*
D13*
X165584819Y-127817857D02*
X165108628Y-128151190D01*
X165584819Y-128389285D02*
X164584819Y-128389285D01*
X164584819Y-128389285D02*
X164584819Y-128008333D01*
X164584819Y-128008333D02*
X164632438Y-127913095D01*
X164632438Y-127913095D02*
X164680057Y-127865476D01*
X164680057Y-127865476D02*
X164775295Y-127817857D01*
X164775295Y-127817857D02*
X164918152Y-127817857D01*
X164918152Y-127817857D02*
X165013390Y-127865476D01*
X165013390Y-127865476D02*
X165061009Y-127913095D01*
X165061009Y-127913095D02*
X165108628Y-128008333D01*
X165108628Y-128008333D02*
X165108628Y-128389285D01*
X165584819Y-126865476D02*
X165584819Y-127436904D01*
X165584819Y-127151190D02*
X164584819Y-127151190D01*
X164584819Y-127151190D02*
X164727676Y-127246428D01*
X164727676Y-127246428D02*
X164822914Y-127341666D01*
X164822914Y-127341666D02*
X164870533Y-127436904D01*
X164918152Y-126008333D02*
X165584819Y-126008333D01*
X164537200Y-126246428D02*
X165251485Y-126484523D01*
X165251485Y-126484523D02*
X165251485Y-125865476D01*
X166234905Y-113049819D02*
X166234905Y-112049819D01*
X166234905Y-112049819D02*
X166473000Y-112049819D01*
X166473000Y-112049819D02*
X166615857Y-112097438D01*
X166615857Y-112097438D02*
X166711095Y-112192676D01*
X166711095Y-112192676D02*
X166758714Y-112287914D01*
X166758714Y-112287914D02*
X166806333Y-112478390D01*
X166806333Y-112478390D02*
X166806333Y-112621247D01*
X166806333Y-112621247D02*
X166758714Y-112811723D01*
X166758714Y-112811723D02*
X166711095Y-112906961D01*
X166711095Y-112906961D02*
X166615857Y-113002200D01*
X166615857Y-113002200D02*
X166473000Y-113049819D01*
X166473000Y-113049819D02*
X166234905Y-113049819D01*
X167758714Y-113049819D02*
X167187286Y-113049819D01*
X167473000Y-113049819D02*
X167473000Y-112049819D01*
X167473000Y-112049819D02*
X167377762Y-112192676D01*
X167377762Y-112192676D02*
X167282524Y-112287914D01*
X167282524Y-112287914D02*
X167187286Y-112335533D01*
D14*
X154200475Y-118313842D02*
X154381904Y-118374318D01*
X154381904Y-118374318D02*
X154684285Y-118374318D01*
X154684285Y-118374318D02*
X154805237Y-118313842D01*
X154805237Y-118313842D02*
X154865713Y-118253365D01*
X154865713Y-118253365D02*
X154926190Y-118132413D01*
X154926190Y-118132413D02*
X154926190Y-118011461D01*
X154926190Y-118011461D02*
X154865713Y-117890508D01*
X154865713Y-117890508D02*
X154805237Y-117830032D01*
X154805237Y-117830032D02*
X154684285Y-117769556D01*
X154684285Y-117769556D02*
X154442380Y-117709080D01*
X154442380Y-117709080D02*
X154321428Y-117648603D01*
X154321428Y-117648603D02*
X154260951Y-117588127D01*
X154260951Y-117588127D02*
X154200475Y-117467175D01*
X154200475Y-117467175D02*
X154200475Y-117346222D01*
X154200475Y-117346222D02*
X154260951Y-117225270D01*
X154260951Y-117225270D02*
X154321428Y-117164794D01*
X154321428Y-117164794D02*
X154442380Y-117104318D01*
X154442380Y-117104318D02*
X154744761Y-117104318D01*
X154744761Y-117104318D02*
X154926190Y-117164794D01*
X155470475Y-117709080D02*
X155893809Y-117709080D01*
X156075237Y-118374318D02*
X155470475Y-118374318D01*
X155470475Y-118374318D02*
X155470475Y-117104318D01*
X155470475Y-117104318D02*
X156075237Y-117104318D01*
X157224285Y-118374318D02*
X156619523Y-118374318D01*
X156619523Y-118374318D02*
X156619523Y-117104318D01*
X157647618Y-117709080D02*
X158070952Y-117709080D01*
X158252380Y-118374318D02*
X157647618Y-118374318D01*
X157647618Y-118374318D02*
X157647618Y-117104318D01*
X157647618Y-117104318D02*
X158252380Y-117104318D01*
X159522381Y-118253365D02*
X159461905Y-118313842D01*
X159461905Y-118313842D02*
X159280476Y-118374318D01*
X159280476Y-118374318D02*
X159159524Y-118374318D01*
X159159524Y-118374318D02*
X158978095Y-118313842D01*
X158978095Y-118313842D02*
X158857143Y-118192889D01*
X158857143Y-118192889D02*
X158796666Y-118071937D01*
X158796666Y-118071937D02*
X158736190Y-117830032D01*
X158736190Y-117830032D02*
X158736190Y-117648603D01*
X158736190Y-117648603D02*
X158796666Y-117406699D01*
X158796666Y-117406699D02*
X158857143Y-117285746D01*
X158857143Y-117285746D02*
X158978095Y-117164794D01*
X158978095Y-117164794D02*
X159159524Y-117104318D01*
X159159524Y-117104318D02*
X159280476Y-117104318D01*
X159280476Y-117104318D02*
X159461905Y-117164794D01*
X159461905Y-117164794D02*
X159522381Y-117225270D01*
X159885238Y-117104318D02*
X160610952Y-117104318D01*
X160248095Y-118374318D02*
X160248095Y-117104318D01*
X161699524Y-118374318D02*
X160973809Y-118374318D01*
X161336666Y-118374318D02*
X161336666Y-117104318D01*
X161336666Y-117104318D02*
X161215714Y-117285746D01*
X161215714Y-117285746D02*
X161094762Y-117406699D01*
X161094762Y-117406699D02*
X160973809Y-117467175D01*
D13*
X169354819Y-109399404D02*
X170164342Y-109399404D01*
X170164342Y-109399404D02*
X170259580Y-109351785D01*
X170259580Y-109351785D02*
X170307200Y-109304166D01*
X170307200Y-109304166D02*
X170354819Y-109208928D01*
X170354819Y-109208928D02*
X170354819Y-109018452D01*
X170354819Y-109018452D02*
X170307200Y-108923214D01*
X170307200Y-108923214D02*
X170259580Y-108875595D01*
X170259580Y-108875595D02*
X170164342Y-108827976D01*
X170164342Y-108827976D02*
X169354819Y-108827976D01*
X169354819Y-108447023D02*
X169354819Y-107827976D01*
X169354819Y-107827976D02*
X169735771Y-108161309D01*
X169735771Y-108161309D02*
X169735771Y-108018452D01*
X169735771Y-108018452D02*
X169783390Y-107923214D01*
X169783390Y-107923214D02*
X169831009Y-107875595D01*
X169831009Y-107875595D02*
X169926247Y-107827976D01*
X169926247Y-107827976D02*
X170164342Y-107827976D01*
X170164342Y-107827976D02*
X170259580Y-107875595D01*
X170259580Y-107875595D02*
X170307200Y-107923214D01*
X170307200Y-107923214D02*
X170354819Y-108018452D01*
X170354819Y-108018452D02*
X170354819Y-108304166D01*
X170354819Y-108304166D02*
X170307200Y-108399404D01*
X170307200Y-108399404D02*
X170259580Y-108447023D01*
D14*
X155016904Y-113474318D02*
X155016904Y-112204318D01*
X155016904Y-112204318D02*
X155440238Y-113111461D01*
X155440238Y-113111461D02*
X155863571Y-112204318D01*
X155863571Y-112204318D02*
X155863571Y-113474318D01*
X156468333Y-112809080D02*
X156891667Y-112809080D01*
X157073095Y-113474318D02*
X156468333Y-113474318D01*
X156468333Y-113474318D02*
X156468333Y-112204318D01*
X156468333Y-112204318D02*
X157073095Y-112204318D01*
X157617381Y-113474318D02*
X157617381Y-112204318D01*
X157617381Y-112204318D02*
X158343096Y-113474318D01*
X158343096Y-113474318D02*
X158343096Y-112204318D01*
X158947857Y-112204318D02*
X158947857Y-113232413D01*
X158947857Y-113232413D02*
X159008334Y-113353365D01*
X159008334Y-113353365D02*
X159068810Y-113413842D01*
X159068810Y-113413842D02*
X159189762Y-113474318D01*
X159189762Y-113474318D02*
X159431667Y-113474318D01*
X159431667Y-113474318D02*
X159552619Y-113413842D01*
X159552619Y-113413842D02*
X159613096Y-113353365D01*
X159613096Y-113353365D02*
X159673572Y-113232413D01*
X159673572Y-113232413D02*
X159673572Y-112204318D01*
X160943572Y-113474318D02*
X160217857Y-113474318D01*
X160580714Y-113474318D02*
X160580714Y-112204318D01*
X160580714Y-112204318D02*
X160459762Y-112385746D01*
X160459762Y-112385746D02*
X160338810Y-112506699D01*
X160338810Y-112506699D02*
X160217857Y-112567175D01*
D13*
X185258333Y-102154819D02*
X184925000Y-101678628D01*
X184686905Y-102154819D02*
X184686905Y-101154819D01*
X184686905Y-101154819D02*
X185067857Y-101154819D01*
X185067857Y-101154819D02*
X185163095Y-101202438D01*
X185163095Y-101202438D02*
X185210714Y-101250057D01*
X185210714Y-101250057D02*
X185258333Y-101345295D01*
X185258333Y-101345295D02*
X185258333Y-101488152D01*
X185258333Y-101488152D02*
X185210714Y-101583390D01*
X185210714Y-101583390D02*
X185163095Y-101631009D01*
X185163095Y-101631009D02*
X185067857Y-101678628D01*
X185067857Y-101678628D02*
X184686905Y-101678628D01*
X186163095Y-101154819D02*
X185686905Y-101154819D01*
X185686905Y-101154819D02*
X185639286Y-101631009D01*
X185639286Y-101631009D02*
X185686905Y-101583390D01*
X185686905Y-101583390D02*
X185782143Y-101535771D01*
X185782143Y-101535771D02*
X186020238Y-101535771D01*
X186020238Y-101535771D02*
X186115476Y-101583390D01*
X186115476Y-101583390D02*
X186163095Y-101631009D01*
X186163095Y-101631009D02*
X186210714Y-101726247D01*
X186210714Y-101726247D02*
X186210714Y-101964342D01*
X186210714Y-101964342D02*
X186163095Y-102059580D01*
X186163095Y-102059580D02*
X186115476Y-102107200D01*
X186115476Y-102107200D02*
X186020238Y-102154819D01*
X186020238Y-102154819D02*
X185782143Y-102154819D01*
X185782143Y-102154819D02*
X185686905Y-102107200D01*
X185686905Y-102107200D02*
X185639286Y-102059580D01*
X166189819Y-122198333D02*
X166904104Y-122198333D01*
X166904104Y-122198333D02*
X167046961Y-122245952D01*
X167046961Y-122245952D02*
X167142200Y-122341190D01*
X167142200Y-122341190D02*
X167189819Y-122484047D01*
X167189819Y-122484047D02*
X167189819Y-122579285D01*
X167189819Y-121198333D02*
X167189819Y-121769761D01*
X167189819Y-121484047D02*
X166189819Y-121484047D01*
X166189819Y-121484047D02*
X166332676Y-121579285D01*
X166332676Y-121579285D02*
X166427914Y-121674523D01*
X166427914Y-121674523D02*
X166475533Y-121769761D01*
X193782142Y-123829580D02*
X193734523Y-123877200D01*
X193734523Y-123877200D02*
X193591666Y-123924819D01*
X193591666Y-123924819D02*
X193496428Y-123924819D01*
X193496428Y-123924819D02*
X193353571Y-123877200D01*
X193353571Y-123877200D02*
X193258333Y-123781961D01*
X193258333Y-123781961D02*
X193210714Y-123686723D01*
X193210714Y-123686723D02*
X193163095Y-123496247D01*
X193163095Y-123496247D02*
X193163095Y-123353390D01*
X193163095Y-123353390D02*
X193210714Y-123162914D01*
X193210714Y-123162914D02*
X193258333Y-123067676D01*
X193258333Y-123067676D02*
X193353571Y-122972438D01*
X193353571Y-122972438D02*
X193496428Y-122924819D01*
X193496428Y-122924819D02*
X193591666Y-122924819D01*
X193591666Y-122924819D02*
X193734523Y-122972438D01*
X193734523Y-122972438D02*
X193782142Y-123020057D01*
X194734523Y-123924819D02*
X194163095Y-123924819D01*
X194448809Y-123924819D02*
X194448809Y-122924819D01*
X194448809Y-122924819D02*
X194353571Y-123067676D01*
X194353571Y-123067676D02*
X194258333Y-123162914D01*
X194258333Y-123162914D02*
X194163095Y-123210533D01*
X195686904Y-123924819D02*
X195115476Y-123924819D01*
X195401190Y-123924819D02*
X195401190Y-122924819D01*
X195401190Y-122924819D02*
X195305952Y-123067676D01*
X195305952Y-123067676D02*
X195210714Y-123162914D01*
X195210714Y-123162914D02*
X195115476Y-123210533D01*
X198954819Y-108754408D02*
X198478628Y-109087741D01*
X198954819Y-109325836D02*
X197954819Y-109325836D01*
X197954819Y-109325836D02*
X197954819Y-108944884D01*
X197954819Y-108944884D02*
X198002438Y-108849646D01*
X198002438Y-108849646D02*
X198050057Y-108802027D01*
X198050057Y-108802027D02*
X198145295Y-108754408D01*
X198145295Y-108754408D02*
X198288152Y-108754408D01*
X198288152Y-108754408D02*
X198383390Y-108802027D01*
X198383390Y-108802027D02*
X198431009Y-108849646D01*
X198431009Y-108849646D02*
X198478628Y-108944884D01*
X198478628Y-108944884D02*
X198478628Y-109325836D01*
X198050057Y-108373455D02*
X198002438Y-108325836D01*
X198002438Y-108325836D02*
X197954819Y-108230598D01*
X197954819Y-108230598D02*
X197954819Y-107992503D01*
X197954819Y-107992503D02*
X198002438Y-107897265D01*
X198002438Y-107897265D02*
X198050057Y-107849646D01*
X198050057Y-107849646D02*
X198145295Y-107802027D01*
X198145295Y-107802027D02*
X198240533Y-107802027D01*
X198240533Y-107802027D02*
X198383390Y-107849646D01*
X198383390Y-107849646D02*
X198954819Y-108421074D01*
X198954819Y-108421074D02*
X198954819Y-107802027D01*
X166467261Y-100600057D02*
X166372023Y-100552438D01*
X166372023Y-100552438D02*
X166276785Y-100457200D01*
X166276785Y-100457200D02*
X166133928Y-100314342D01*
X166133928Y-100314342D02*
X166038690Y-100266723D01*
X166038690Y-100266723D02*
X165943452Y-100266723D01*
X165991071Y-100504819D02*
X165895833Y-100457200D01*
X165895833Y-100457200D02*
X165800595Y-100361961D01*
X165800595Y-100361961D02*
X165752976Y-100171485D01*
X165752976Y-100171485D02*
X165752976Y-99838152D01*
X165752976Y-99838152D02*
X165800595Y-99647676D01*
X165800595Y-99647676D02*
X165895833Y-99552438D01*
X165895833Y-99552438D02*
X165991071Y-99504819D01*
X165991071Y-99504819D02*
X166181547Y-99504819D01*
X166181547Y-99504819D02*
X166276785Y-99552438D01*
X166276785Y-99552438D02*
X166372023Y-99647676D01*
X166372023Y-99647676D02*
X166419642Y-99838152D01*
X166419642Y-99838152D02*
X166419642Y-100171485D01*
X166419642Y-100171485D02*
X166372023Y-100361961D01*
X166372023Y-100361961D02*
X166276785Y-100457200D01*
X166276785Y-100457200D02*
X166181547Y-100504819D01*
X166181547Y-100504819D02*
X165991071Y-100504819D01*
X166752976Y-99504819D02*
X167372023Y-99504819D01*
X167372023Y-99504819D02*
X167038690Y-99885771D01*
X167038690Y-99885771D02*
X167181547Y-99885771D01*
X167181547Y-99885771D02*
X167276785Y-99933390D01*
X167276785Y-99933390D02*
X167324404Y-99981009D01*
X167324404Y-99981009D02*
X167372023Y-100076247D01*
X167372023Y-100076247D02*
X167372023Y-100314342D01*
X167372023Y-100314342D02*
X167324404Y-100409580D01*
X167324404Y-100409580D02*
X167276785Y-100457200D01*
X167276785Y-100457200D02*
X167181547Y-100504819D01*
X167181547Y-100504819D02*
X166895833Y-100504819D01*
X166895833Y-100504819D02*
X166800595Y-100457200D01*
X166800595Y-100457200D02*
X166752976Y-100409580D01*
X184008333Y-112884819D02*
X183675000Y-112408628D01*
X183436905Y-112884819D02*
X183436905Y-111884819D01*
X183436905Y-111884819D02*
X183817857Y-111884819D01*
X183817857Y-111884819D02*
X183913095Y-111932438D01*
X183913095Y-111932438D02*
X183960714Y-111980057D01*
X183960714Y-111980057D02*
X184008333Y-112075295D01*
X184008333Y-112075295D02*
X184008333Y-112218152D01*
X184008333Y-112218152D02*
X183960714Y-112313390D01*
X183960714Y-112313390D02*
X183913095Y-112361009D01*
X183913095Y-112361009D02*
X183817857Y-112408628D01*
X183817857Y-112408628D02*
X183436905Y-112408628D01*
X184865476Y-112218152D02*
X184865476Y-112884819D01*
X184627381Y-111837200D02*
X184389286Y-112551485D01*
X184389286Y-112551485D02*
X185008333Y-112551485D01*
X201554580Y-129887857D02*
X201602200Y-129935476D01*
X201602200Y-129935476D02*
X201649819Y-130078333D01*
X201649819Y-130078333D02*
X201649819Y-130173571D01*
X201649819Y-130173571D02*
X201602200Y-130316428D01*
X201602200Y-130316428D02*
X201506961Y-130411666D01*
X201506961Y-130411666D02*
X201411723Y-130459285D01*
X201411723Y-130459285D02*
X201221247Y-130506904D01*
X201221247Y-130506904D02*
X201078390Y-130506904D01*
X201078390Y-130506904D02*
X200887914Y-130459285D01*
X200887914Y-130459285D02*
X200792676Y-130411666D01*
X200792676Y-130411666D02*
X200697438Y-130316428D01*
X200697438Y-130316428D02*
X200649819Y-130173571D01*
X200649819Y-130173571D02*
X200649819Y-130078333D01*
X200649819Y-130078333D02*
X200697438Y-129935476D01*
X200697438Y-129935476D02*
X200745057Y-129887857D01*
X201649819Y-128935476D02*
X201649819Y-129506904D01*
X201649819Y-129221190D02*
X200649819Y-129221190D01*
X200649819Y-129221190D02*
X200792676Y-129316428D01*
X200792676Y-129316428D02*
X200887914Y-129411666D01*
X200887914Y-129411666D02*
X200935533Y-129506904D01*
X200649819Y-128030714D02*
X200649819Y-128506904D01*
X200649819Y-128506904D02*
X201126009Y-128554523D01*
X201126009Y-128554523D02*
X201078390Y-128506904D01*
X201078390Y-128506904D02*
X201030771Y-128411666D01*
X201030771Y-128411666D02*
X201030771Y-128173571D01*
X201030771Y-128173571D02*
X201078390Y-128078333D01*
X201078390Y-128078333D02*
X201126009Y-128030714D01*
X201126009Y-128030714D02*
X201221247Y-127983095D01*
X201221247Y-127983095D02*
X201459342Y-127983095D01*
X201459342Y-127983095D02*
X201554580Y-128030714D01*
X201554580Y-128030714D02*
X201602200Y-128078333D01*
X201602200Y-128078333D02*
X201649819Y-128173571D01*
X201649819Y-128173571D02*
X201649819Y-128411666D01*
X201649819Y-128411666D02*
X201602200Y-128506904D01*
X201602200Y-128506904D02*
X201554580Y-128554523D01*
X215116666Y-117754819D02*
X215116666Y-118469104D01*
X215116666Y-118469104D02*
X215069047Y-118611961D01*
X215069047Y-118611961D02*
X214973809Y-118707200D01*
X214973809Y-118707200D02*
X214830952Y-118754819D01*
X214830952Y-118754819D02*
X214735714Y-118754819D01*
X215497619Y-117754819D02*
X216164285Y-117754819D01*
X216164285Y-117754819D02*
X215735714Y-118754819D01*
D14*
X203909080Y-105828332D02*
X203969556Y-105646904D01*
X203969556Y-105646904D02*
X204030032Y-105586427D01*
X204030032Y-105586427D02*
X204150984Y-105525951D01*
X204150984Y-105525951D02*
X204332413Y-105525951D01*
X204332413Y-105525951D02*
X204453365Y-105586427D01*
X204453365Y-105586427D02*
X204513842Y-105646904D01*
X204513842Y-105646904D02*
X204574318Y-105767856D01*
X204574318Y-105767856D02*
X204574318Y-106251666D01*
X204574318Y-106251666D02*
X203304318Y-106251666D01*
X203304318Y-106251666D02*
X203304318Y-105828332D01*
X203304318Y-105828332D02*
X203364794Y-105707380D01*
X203364794Y-105707380D02*
X203425270Y-105646904D01*
X203425270Y-105646904D02*
X203546222Y-105586427D01*
X203546222Y-105586427D02*
X203667175Y-105586427D01*
X203667175Y-105586427D02*
X203788127Y-105646904D01*
X203788127Y-105646904D02*
X203848603Y-105707380D01*
X203848603Y-105707380D02*
X203909080Y-105828332D01*
X203909080Y-105828332D02*
X203909080Y-106251666D01*
X203304318Y-104739761D02*
X203304318Y-104497856D01*
X203304318Y-104497856D02*
X203364794Y-104376904D01*
X203364794Y-104376904D02*
X203485746Y-104255951D01*
X203485746Y-104255951D02*
X203727651Y-104195475D01*
X203727651Y-104195475D02*
X204150984Y-104195475D01*
X204150984Y-104195475D02*
X204392889Y-104255951D01*
X204392889Y-104255951D02*
X204513842Y-104376904D01*
X204513842Y-104376904D02*
X204574318Y-104497856D01*
X204574318Y-104497856D02*
X204574318Y-104739761D01*
X204574318Y-104739761D02*
X204513842Y-104860713D01*
X204513842Y-104860713D02*
X204392889Y-104981666D01*
X204392889Y-104981666D02*
X204150984Y-105042142D01*
X204150984Y-105042142D02*
X203727651Y-105042142D01*
X203727651Y-105042142D02*
X203485746Y-104981666D01*
X203485746Y-104981666D02*
X203364794Y-104860713D01*
X203364794Y-104860713D02*
X203304318Y-104739761D01*
X203304318Y-103409285D02*
X203304318Y-103167380D01*
X203304318Y-103167380D02*
X203364794Y-103046428D01*
X203364794Y-103046428D02*
X203485746Y-102925475D01*
X203485746Y-102925475D02*
X203727651Y-102864999D01*
X203727651Y-102864999D02*
X204150984Y-102864999D01*
X204150984Y-102864999D02*
X204392889Y-102925475D01*
X204392889Y-102925475D02*
X204513842Y-103046428D01*
X204513842Y-103046428D02*
X204574318Y-103167380D01*
X204574318Y-103167380D02*
X204574318Y-103409285D01*
X204574318Y-103409285D02*
X204513842Y-103530237D01*
X204513842Y-103530237D02*
X204392889Y-103651190D01*
X204392889Y-103651190D02*
X204150984Y-103711666D01*
X204150984Y-103711666D02*
X203727651Y-103711666D01*
X203727651Y-103711666D02*
X203485746Y-103651190D01*
X203485746Y-103651190D02*
X203364794Y-103530237D01*
X203364794Y-103530237D02*
X203304318Y-103409285D01*
X203304318Y-102502142D02*
X203304318Y-101776428D01*
X204574318Y-102139285D02*
X203304318Y-102139285D01*
X204574318Y-100687856D02*
X204574318Y-101413571D01*
X204574318Y-101050714D02*
X203304318Y-101050714D01*
X203304318Y-101050714D02*
X203485746Y-101171666D01*
X203485746Y-101171666D02*
X203606699Y-101292618D01*
X203606699Y-101292618D02*
X203667175Y-101413571D01*
D13*
X174500057Y-114632738D02*
X174452438Y-114727976D01*
X174452438Y-114727976D02*
X174357200Y-114823214D01*
X174357200Y-114823214D02*
X174214342Y-114966071D01*
X174214342Y-114966071D02*
X174166723Y-115061309D01*
X174166723Y-115061309D02*
X174166723Y-115156547D01*
X174404819Y-115108928D02*
X174357200Y-115204166D01*
X174357200Y-115204166D02*
X174261961Y-115299404D01*
X174261961Y-115299404D02*
X174071485Y-115347023D01*
X174071485Y-115347023D02*
X173738152Y-115347023D01*
X173738152Y-115347023D02*
X173547676Y-115299404D01*
X173547676Y-115299404D02*
X173452438Y-115204166D01*
X173452438Y-115204166D02*
X173404819Y-115108928D01*
X173404819Y-115108928D02*
X173404819Y-114918452D01*
X173404819Y-114918452D02*
X173452438Y-114823214D01*
X173452438Y-114823214D02*
X173547676Y-114727976D01*
X173547676Y-114727976D02*
X173738152Y-114680357D01*
X173738152Y-114680357D02*
X174071485Y-114680357D01*
X174071485Y-114680357D02*
X174261961Y-114727976D01*
X174261961Y-114727976D02*
X174357200Y-114823214D01*
X174357200Y-114823214D02*
X174404819Y-114918452D01*
X174404819Y-114918452D02*
X174404819Y-115108928D01*
X173500057Y-114299404D02*
X173452438Y-114251785D01*
X173452438Y-114251785D02*
X173404819Y-114156547D01*
X173404819Y-114156547D02*
X173404819Y-113918452D01*
X173404819Y-113918452D02*
X173452438Y-113823214D01*
X173452438Y-113823214D02*
X173500057Y-113775595D01*
X173500057Y-113775595D02*
X173595295Y-113727976D01*
X173595295Y-113727976D02*
X173690533Y-113727976D01*
X173690533Y-113727976D02*
X173833390Y-113775595D01*
X173833390Y-113775595D02*
X174404819Y-114347023D01*
X174404819Y-114347023D02*
X174404819Y-113727976D01*
X195954819Y-108754408D02*
X195478628Y-109087741D01*
X195954819Y-109325836D02*
X194954819Y-109325836D01*
X194954819Y-109325836D02*
X194954819Y-108944884D01*
X194954819Y-108944884D02*
X195002438Y-108849646D01*
X195002438Y-108849646D02*
X195050057Y-108802027D01*
X195050057Y-108802027D02*
X195145295Y-108754408D01*
X195145295Y-108754408D02*
X195288152Y-108754408D01*
X195288152Y-108754408D02*
X195383390Y-108802027D01*
X195383390Y-108802027D02*
X195431009Y-108849646D01*
X195431009Y-108849646D02*
X195478628Y-108944884D01*
X195478628Y-108944884D02*
X195478628Y-109325836D01*
X195954819Y-107802027D02*
X195954819Y-108373455D01*
X195954819Y-108087741D02*
X194954819Y-108087741D01*
X194954819Y-108087741D02*
X195097676Y-108182979D01*
X195097676Y-108182979D02*
X195192914Y-108278217D01*
X195192914Y-108278217D02*
X195240533Y-108373455D01*
X206582142Y-111429580D02*
X206534523Y-111477200D01*
X206534523Y-111477200D02*
X206391666Y-111524819D01*
X206391666Y-111524819D02*
X206296428Y-111524819D01*
X206296428Y-111524819D02*
X206153571Y-111477200D01*
X206153571Y-111477200D02*
X206058333Y-111381961D01*
X206058333Y-111381961D02*
X206010714Y-111286723D01*
X206010714Y-111286723D02*
X205963095Y-111096247D01*
X205963095Y-111096247D02*
X205963095Y-110953390D01*
X205963095Y-110953390D02*
X206010714Y-110762914D01*
X206010714Y-110762914D02*
X206058333Y-110667676D01*
X206058333Y-110667676D02*
X206153571Y-110572438D01*
X206153571Y-110572438D02*
X206296428Y-110524819D01*
X206296428Y-110524819D02*
X206391666Y-110524819D01*
X206391666Y-110524819D02*
X206534523Y-110572438D01*
X206534523Y-110572438D02*
X206582142Y-110620057D01*
X207534523Y-111524819D02*
X206963095Y-111524819D01*
X207248809Y-111524819D02*
X207248809Y-110524819D01*
X207248809Y-110524819D02*
X207153571Y-110667676D01*
X207153571Y-110667676D02*
X207058333Y-110762914D01*
X207058333Y-110762914D02*
X206963095Y-110810533D01*
X208153571Y-110524819D02*
X208248809Y-110524819D01*
X208248809Y-110524819D02*
X208344047Y-110572438D01*
X208344047Y-110572438D02*
X208391666Y-110620057D01*
X208391666Y-110620057D02*
X208439285Y-110715295D01*
X208439285Y-110715295D02*
X208486904Y-110905771D01*
X208486904Y-110905771D02*
X208486904Y-111143866D01*
X208486904Y-111143866D02*
X208439285Y-111334342D01*
X208439285Y-111334342D02*
X208391666Y-111429580D01*
X208391666Y-111429580D02*
X208344047Y-111477200D01*
X208344047Y-111477200D02*
X208248809Y-111524819D01*
X208248809Y-111524819D02*
X208153571Y-111524819D01*
X208153571Y-111524819D02*
X208058333Y-111477200D01*
X208058333Y-111477200D02*
X208010714Y-111429580D01*
X208010714Y-111429580D02*
X207963095Y-111334342D01*
X207963095Y-111334342D02*
X207915476Y-111143866D01*
X207915476Y-111143866D02*
X207915476Y-110905771D01*
X207915476Y-110905771D02*
X207963095Y-110715295D01*
X207963095Y-110715295D02*
X208010714Y-110620057D01*
X208010714Y-110620057D02*
X208058333Y-110572438D01*
X208058333Y-110572438D02*
X208153571Y-110524819D01*
X184324405Y-106104819D02*
X184324405Y-105104819D01*
X184324405Y-105104819D02*
X184562500Y-105104819D01*
X184562500Y-105104819D02*
X184705357Y-105152438D01*
X184705357Y-105152438D02*
X184800595Y-105247676D01*
X184800595Y-105247676D02*
X184848214Y-105342914D01*
X184848214Y-105342914D02*
X184895833Y-105533390D01*
X184895833Y-105533390D02*
X184895833Y-105676247D01*
X184895833Y-105676247D02*
X184848214Y-105866723D01*
X184848214Y-105866723D02*
X184800595Y-105961961D01*
X184800595Y-105961961D02*
X184705357Y-106057200D01*
X184705357Y-106057200D02*
X184562500Y-106104819D01*
X184562500Y-106104819D02*
X184324405Y-106104819D01*
X185276786Y-105200057D02*
X185324405Y-105152438D01*
X185324405Y-105152438D02*
X185419643Y-105104819D01*
X185419643Y-105104819D02*
X185657738Y-105104819D01*
X185657738Y-105104819D02*
X185752976Y-105152438D01*
X185752976Y-105152438D02*
X185800595Y-105200057D01*
X185800595Y-105200057D02*
X185848214Y-105295295D01*
X185848214Y-105295295D02*
X185848214Y-105390533D01*
X185848214Y-105390533D02*
X185800595Y-105533390D01*
X185800595Y-105533390D02*
X185229167Y-106104819D01*
X185229167Y-106104819D02*
X185848214Y-106104819D01*
X203959580Y-129892857D02*
X204007200Y-129940476D01*
X204007200Y-129940476D02*
X204054819Y-130083333D01*
X204054819Y-130083333D02*
X204054819Y-130178571D01*
X204054819Y-130178571D02*
X204007200Y-130321428D01*
X204007200Y-130321428D02*
X203911961Y-130416666D01*
X203911961Y-130416666D02*
X203816723Y-130464285D01*
X203816723Y-130464285D02*
X203626247Y-130511904D01*
X203626247Y-130511904D02*
X203483390Y-130511904D01*
X203483390Y-130511904D02*
X203292914Y-130464285D01*
X203292914Y-130464285D02*
X203197676Y-130416666D01*
X203197676Y-130416666D02*
X203102438Y-130321428D01*
X203102438Y-130321428D02*
X203054819Y-130178571D01*
X203054819Y-130178571D02*
X203054819Y-130083333D01*
X203054819Y-130083333D02*
X203102438Y-129940476D01*
X203102438Y-129940476D02*
X203150057Y-129892857D01*
X204054819Y-128940476D02*
X204054819Y-129511904D01*
X204054819Y-129226190D02*
X203054819Y-129226190D01*
X203054819Y-129226190D02*
X203197676Y-129321428D01*
X203197676Y-129321428D02*
X203292914Y-129416666D01*
X203292914Y-129416666D02*
X203340533Y-129511904D01*
X203388152Y-128083333D02*
X204054819Y-128083333D01*
X203007200Y-128321428D02*
X203721485Y-128559523D01*
X203721485Y-128559523D02*
X203721485Y-127940476D01*
X195129819Y-112491666D02*
X194653628Y-112824999D01*
X195129819Y-113063094D02*
X194129819Y-113063094D01*
X194129819Y-113063094D02*
X194129819Y-112682142D01*
X194129819Y-112682142D02*
X194177438Y-112586904D01*
X194177438Y-112586904D02*
X194225057Y-112539285D01*
X194225057Y-112539285D02*
X194320295Y-112491666D01*
X194320295Y-112491666D02*
X194463152Y-112491666D01*
X194463152Y-112491666D02*
X194558390Y-112539285D01*
X194558390Y-112539285D02*
X194606009Y-112586904D01*
X194606009Y-112586904D02*
X194653628Y-112682142D01*
X194653628Y-112682142D02*
X194653628Y-113063094D01*
X194558390Y-111920237D02*
X194510771Y-112015475D01*
X194510771Y-112015475D02*
X194463152Y-112063094D01*
X194463152Y-112063094D02*
X194367914Y-112110713D01*
X194367914Y-112110713D02*
X194320295Y-112110713D01*
X194320295Y-112110713D02*
X194225057Y-112063094D01*
X194225057Y-112063094D02*
X194177438Y-112015475D01*
X194177438Y-112015475D02*
X194129819Y-111920237D01*
X194129819Y-111920237D02*
X194129819Y-111729761D01*
X194129819Y-111729761D02*
X194177438Y-111634523D01*
X194177438Y-111634523D02*
X194225057Y-111586904D01*
X194225057Y-111586904D02*
X194320295Y-111539285D01*
X194320295Y-111539285D02*
X194367914Y-111539285D01*
X194367914Y-111539285D02*
X194463152Y-111586904D01*
X194463152Y-111586904D02*
X194510771Y-111634523D01*
X194510771Y-111634523D02*
X194558390Y-111729761D01*
X194558390Y-111729761D02*
X194558390Y-111920237D01*
X194558390Y-111920237D02*
X194606009Y-112015475D01*
X194606009Y-112015475D02*
X194653628Y-112063094D01*
X194653628Y-112063094D02*
X194748866Y-112110713D01*
X194748866Y-112110713D02*
X194939342Y-112110713D01*
X194939342Y-112110713D02*
X195034580Y-112063094D01*
X195034580Y-112063094D02*
X195082200Y-112015475D01*
X195082200Y-112015475D02*
X195129819Y-111920237D01*
X195129819Y-111920237D02*
X195129819Y-111729761D01*
X195129819Y-111729761D02*
X195082200Y-111634523D01*
X195082200Y-111634523D02*
X195034580Y-111586904D01*
X195034580Y-111586904D02*
X194939342Y-111539285D01*
X194939342Y-111539285D02*
X194748866Y-111539285D01*
X194748866Y-111539285D02*
X194653628Y-111586904D01*
X194653628Y-111586904D02*
X194606009Y-111634523D01*
X194606009Y-111634523D02*
X194558390Y-111729761D01*
X208259580Y-129942857D02*
X208307200Y-129990476D01*
X208307200Y-129990476D02*
X208354819Y-130133333D01*
X208354819Y-130133333D02*
X208354819Y-130228571D01*
X208354819Y-130228571D02*
X208307200Y-130371428D01*
X208307200Y-130371428D02*
X208211961Y-130466666D01*
X208211961Y-130466666D02*
X208116723Y-130514285D01*
X208116723Y-130514285D02*
X207926247Y-130561904D01*
X207926247Y-130561904D02*
X207783390Y-130561904D01*
X207783390Y-130561904D02*
X207592914Y-130514285D01*
X207592914Y-130514285D02*
X207497676Y-130466666D01*
X207497676Y-130466666D02*
X207402438Y-130371428D01*
X207402438Y-130371428D02*
X207354819Y-130228571D01*
X207354819Y-130228571D02*
X207354819Y-130133333D01*
X207354819Y-130133333D02*
X207402438Y-129990476D01*
X207402438Y-129990476D02*
X207450057Y-129942857D01*
X208354819Y-128990476D02*
X208354819Y-129561904D01*
X208354819Y-129276190D02*
X207354819Y-129276190D01*
X207354819Y-129276190D02*
X207497676Y-129371428D01*
X207497676Y-129371428D02*
X207592914Y-129466666D01*
X207592914Y-129466666D02*
X207640533Y-129561904D01*
X207450057Y-128609523D02*
X207402438Y-128561904D01*
X207402438Y-128561904D02*
X207354819Y-128466666D01*
X207354819Y-128466666D02*
X207354819Y-128228571D01*
X207354819Y-128228571D02*
X207402438Y-128133333D01*
X207402438Y-128133333D02*
X207450057Y-128085714D01*
X207450057Y-128085714D02*
X207545295Y-128038095D01*
X207545295Y-128038095D02*
X207640533Y-128038095D01*
X207640533Y-128038095D02*
X207783390Y-128085714D01*
X207783390Y-128085714D02*
X208354819Y-128657142D01*
X208354819Y-128657142D02*
X208354819Y-128038095D01*
X183917753Y-107359580D02*
X183870134Y-107407200D01*
X183870134Y-107407200D02*
X183727277Y-107454819D01*
X183727277Y-107454819D02*
X183632039Y-107454819D01*
X183632039Y-107454819D02*
X183489182Y-107407200D01*
X183489182Y-107407200D02*
X183393944Y-107311961D01*
X183393944Y-107311961D02*
X183346325Y-107216723D01*
X183346325Y-107216723D02*
X183298706Y-107026247D01*
X183298706Y-107026247D02*
X183298706Y-106883390D01*
X183298706Y-106883390D02*
X183346325Y-106692914D01*
X183346325Y-106692914D02*
X183393944Y-106597676D01*
X183393944Y-106597676D02*
X183489182Y-106502438D01*
X183489182Y-106502438D02*
X183632039Y-106454819D01*
X183632039Y-106454819D02*
X183727277Y-106454819D01*
X183727277Y-106454819D02*
X183870134Y-106502438D01*
X183870134Y-106502438D02*
X183917753Y-106550057D01*
X184489182Y-106883390D02*
X184393944Y-106835771D01*
X184393944Y-106835771D02*
X184346325Y-106788152D01*
X184346325Y-106788152D02*
X184298706Y-106692914D01*
X184298706Y-106692914D02*
X184298706Y-106645295D01*
X184298706Y-106645295D02*
X184346325Y-106550057D01*
X184346325Y-106550057D02*
X184393944Y-106502438D01*
X184393944Y-106502438D02*
X184489182Y-106454819D01*
X184489182Y-106454819D02*
X184679658Y-106454819D01*
X184679658Y-106454819D02*
X184774896Y-106502438D01*
X184774896Y-106502438D02*
X184822515Y-106550057D01*
X184822515Y-106550057D02*
X184870134Y-106645295D01*
X184870134Y-106645295D02*
X184870134Y-106692914D01*
X184870134Y-106692914D02*
X184822515Y-106788152D01*
X184822515Y-106788152D02*
X184774896Y-106835771D01*
X184774896Y-106835771D02*
X184679658Y-106883390D01*
X184679658Y-106883390D02*
X184489182Y-106883390D01*
X184489182Y-106883390D02*
X184393944Y-106931009D01*
X184393944Y-106931009D02*
X184346325Y-106978628D01*
X184346325Y-106978628D02*
X184298706Y-107073866D01*
X184298706Y-107073866D02*
X184298706Y-107264342D01*
X184298706Y-107264342D02*
X184346325Y-107359580D01*
X184346325Y-107359580D02*
X184393944Y-107407200D01*
X184393944Y-107407200D02*
X184489182Y-107454819D01*
X184489182Y-107454819D02*
X184679658Y-107454819D01*
X184679658Y-107454819D02*
X184774896Y-107407200D01*
X184774896Y-107407200D02*
X184822515Y-107359580D01*
X184822515Y-107359580D02*
X184870134Y-107264342D01*
X184870134Y-107264342D02*
X184870134Y-107073866D01*
X184870134Y-107073866D02*
X184822515Y-106978628D01*
X184822515Y-106978628D02*
X184774896Y-106931009D01*
X184774896Y-106931009D02*
X184679658Y-106883390D01*
X215166666Y-117334819D02*
X215166666Y-118049104D01*
X215166666Y-118049104D02*
X215119047Y-118191961D01*
X215119047Y-118191961D02*
X215023809Y-118287200D01*
X215023809Y-118287200D02*
X214880952Y-118334819D01*
X214880952Y-118334819D02*
X214785714Y-118334819D01*
X215595238Y-117430057D02*
X215642857Y-117382438D01*
X215642857Y-117382438D02*
X215738095Y-117334819D01*
X215738095Y-117334819D02*
X215976190Y-117334819D01*
X215976190Y-117334819D02*
X216071428Y-117382438D01*
X216071428Y-117382438D02*
X216119047Y-117430057D01*
X216119047Y-117430057D02*
X216166666Y-117525295D01*
X216166666Y-117525295D02*
X216166666Y-117620533D01*
X216166666Y-117620533D02*
X216119047Y-117763390D01*
X216119047Y-117763390D02*
X215547619Y-118334819D01*
X215547619Y-118334819D02*
X216166666Y-118334819D01*
X170833333Y-105454819D02*
X170500000Y-104978628D01*
X170261905Y-105454819D02*
X170261905Y-104454819D01*
X170261905Y-104454819D02*
X170642857Y-104454819D01*
X170642857Y-104454819D02*
X170738095Y-104502438D01*
X170738095Y-104502438D02*
X170785714Y-104550057D01*
X170785714Y-104550057D02*
X170833333Y-104645295D01*
X170833333Y-104645295D02*
X170833333Y-104788152D01*
X170833333Y-104788152D02*
X170785714Y-104883390D01*
X170785714Y-104883390D02*
X170738095Y-104931009D01*
X170738095Y-104931009D02*
X170642857Y-104978628D01*
X170642857Y-104978628D02*
X170261905Y-104978628D01*
X171166667Y-104454819D02*
X171785714Y-104454819D01*
X171785714Y-104454819D02*
X171452381Y-104835771D01*
X171452381Y-104835771D02*
X171595238Y-104835771D01*
X171595238Y-104835771D02*
X171690476Y-104883390D01*
X171690476Y-104883390D02*
X171738095Y-104931009D01*
X171738095Y-104931009D02*
X171785714Y-105026247D01*
X171785714Y-105026247D02*
X171785714Y-105264342D01*
X171785714Y-105264342D02*
X171738095Y-105359580D01*
X171738095Y-105359580D02*
X171690476Y-105407200D01*
X171690476Y-105407200D02*
X171595238Y-105454819D01*
X171595238Y-105454819D02*
X171309524Y-105454819D01*
X171309524Y-105454819D02*
X171214286Y-105407200D01*
X171214286Y-105407200D02*
X171166667Y-105359580D01*
X177859580Y-108377918D02*
X177907200Y-108425537D01*
X177907200Y-108425537D02*
X177954819Y-108568394D01*
X177954819Y-108568394D02*
X177954819Y-108663632D01*
X177954819Y-108663632D02*
X177907200Y-108806489D01*
X177907200Y-108806489D02*
X177811961Y-108901727D01*
X177811961Y-108901727D02*
X177716723Y-108949346D01*
X177716723Y-108949346D02*
X177526247Y-108996965D01*
X177526247Y-108996965D02*
X177383390Y-108996965D01*
X177383390Y-108996965D02*
X177192914Y-108949346D01*
X177192914Y-108949346D02*
X177097676Y-108901727D01*
X177097676Y-108901727D02*
X177002438Y-108806489D01*
X177002438Y-108806489D02*
X176954819Y-108663632D01*
X176954819Y-108663632D02*
X176954819Y-108568394D01*
X176954819Y-108568394D02*
X177002438Y-108425537D01*
X177002438Y-108425537D02*
X177050057Y-108377918D01*
X176954819Y-108044584D02*
X176954819Y-107377918D01*
X176954819Y-107377918D02*
X177954819Y-107806489D01*
X187600595Y-112304819D02*
X187600595Y-113114342D01*
X187600595Y-113114342D02*
X187648214Y-113209580D01*
X187648214Y-113209580D02*
X187695833Y-113257200D01*
X187695833Y-113257200D02*
X187791071Y-113304819D01*
X187791071Y-113304819D02*
X187981547Y-113304819D01*
X187981547Y-113304819D02*
X188076785Y-113257200D01*
X188076785Y-113257200D02*
X188124404Y-113209580D01*
X188124404Y-113209580D02*
X188172023Y-113114342D01*
X188172023Y-113114342D02*
X188172023Y-112304819D01*
X189076785Y-112638152D02*
X189076785Y-113304819D01*
X188838690Y-112257200D02*
X188600595Y-112971485D01*
X188600595Y-112971485D02*
X189219642Y-112971485D01*
D14*
X188013842Y-107400714D02*
X188074318Y-107219285D01*
X188074318Y-107219285D02*
X188074318Y-106916904D01*
X188074318Y-106916904D02*
X188013842Y-106795952D01*
X188013842Y-106795952D02*
X187953365Y-106735476D01*
X187953365Y-106735476D02*
X187832413Y-106674999D01*
X187832413Y-106674999D02*
X187711461Y-106674999D01*
X187711461Y-106674999D02*
X187590508Y-106735476D01*
X187590508Y-106735476D02*
X187530032Y-106795952D01*
X187530032Y-106795952D02*
X187469556Y-106916904D01*
X187469556Y-106916904D02*
X187409080Y-107158809D01*
X187409080Y-107158809D02*
X187348603Y-107279761D01*
X187348603Y-107279761D02*
X187288127Y-107340238D01*
X187288127Y-107340238D02*
X187167175Y-107400714D01*
X187167175Y-107400714D02*
X187046222Y-107400714D01*
X187046222Y-107400714D02*
X186925270Y-107340238D01*
X186925270Y-107340238D02*
X186864794Y-107279761D01*
X186864794Y-107279761D02*
X186804318Y-107158809D01*
X186804318Y-107158809D02*
X186804318Y-106856428D01*
X186804318Y-106856428D02*
X186864794Y-106674999D01*
X186804318Y-106251666D02*
X188074318Y-105949285D01*
X188074318Y-105949285D02*
X187167175Y-105707380D01*
X187167175Y-105707380D02*
X188074318Y-105465475D01*
X188074318Y-105465475D02*
X186804318Y-105163095D01*
X188195270Y-104981666D02*
X188195270Y-104014046D01*
X188074318Y-102985951D02*
X187469556Y-103409285D01*
X188074318Y-103711666D02*
X186804318Y-103711666D01*
X186804318Y-103711666D02*
X186804318Y-103227856D01*
X186804318Y-103227856D02*
X186864794Y-103106904D01*
X186864794Y-103106904D02*
X186925270Y-103046427D01*
X186925270Y-103046427D02*
X187046222Y-102985951D01*
X187046222Y-102985951D02*
X187227651Y-102985951D01*
X187227651Y-102985951D02*
X187348603Y-103046427D01*
X187348603Y-103046427D02*
X187409080Y-103106904D01*
X187409080Y-103106904D02*
X187469556Y-103227856D01*
X187469556Y-103227856D02*
X187469556Y-103711666D01*
X188013842Y-102502142D02*
X188074318Y-102320713D01*
X188074318Y-102320713D02*
X188074318Y-102018332D01*
X188074318Y-102018332D02*
X188013842Y-101897380D01*
X188013842Y-101897380D02*
X187953365Y-101836904D01*
X187953365Y-101836904D02*
X187832413Y-101776427D01*
X187832413Y-101776427D02*
X187711461Y-101776427D01*
X187711461Y-101776427D02*
X187590508Y-101836904D01*
X187590508Y-101836904D02*
X187530032Y-101897380D01*
X187530032Y-101897380D02*
X187469556Y-102018332D01*
X187469556Y-102018332D02*
X187409080Y-102260237D01*
X187409080Y-102260237D02*
X187348603Y-102381189D01*
X187348603Y-102381189D02*
X187288127Y-102441666D01*
X187288127Y-102441666D02*
X187167175Y-102502142D01*
X187167175Y-102502142D02*
X187046222Y-102502142D01*
X187046222Y-102502142D02*
X186925270Y-102441666D01*
X186925270Y-102441666D02*
X186864794Y-102381189D01*
X186864794Y-102381189D02*
X186804318Y-102260237D01*
X186804318Y-102260237D02*
X186804318Y-101957856D01*
X186804318Y-101957856D02*
X186864794Y-101776427D01*
X186804318Y-101413570D02*
X186804318Y-100687856D01*
X188074318Y-101050713D02*
X186804318Y-101050713D01*
X188074318Y-99599284D02*
X188074318Y-100324999D01*
X188074318Y-99962142D02*
X186804318Y-99962142D01*
X186804318Y-99962142D02*
X186985746Y-100083094D01*
X186985746Y-100083094D02*
X187106699Y-100204046D01*
X187106699Y-100204046D02*
X187167175Y-100324999D01*
D13*
X207058333Y-108359580D02*
X207010714Y-108407200D01*
X207010714Y-108407200D02*
X206867857Y-108454819D01*
X206867857Y-108454819D02*
X206772619Y-108454819D01*
X206772619Y-108454819D02*
X206629762Y-108407200D01*
X206629762Y-108407200D02*
X206534524Y-108311961D01*
X206534524Y-108311961D02*
X206486905Y-108216723D01*
X206486905Y-108216723D02*
X206439286Y-108026247D01*
X206439286Y-108026247D02*
X206439286Y-107883390D01*
X206439286Y-107883390D02*
X206486905Y-107692914D01*
X206486905Y-107692914D02*
X206534524Y-107597676D01*
X206534524Y-107597676D02*
X206629762Y-107502438D01*
X206629762Y-107502438D02*
X206772619Y-107454819D01*
X206772619Y-107454819D02*
X206867857Y-107454819D01*
X206867857Y-107454819D02*
X207010714Y-107502438D01*
X207010714Y-107502438D02*
X207058333Y-107550057D01*
X207963095Y-107454819D02*
X207486905Y-107454819D01*
X207486905Y-107454819D02*
X207439286Y-107931009D01*
X207439286Y-107931009D02*
X207486905Y-107883390D01*
X207486905Y-107883390D02*
X207582143Y-107835771D01*
X207582143Y-107835771D02*
X207820238Y-107835771D01*
X207820238Y-107835771D02*
X207915476Y-107883390D01*
X207915476Y-107883390D02*
X207963095Y-107931009D01*
X207963095Y-107931009D02*
X208010714Y-108026247D01*
X208010714Y-108026247D02*
X208010714Y-108264342D01*
X208010714Y-108264342D02*
X207963095Y-108359580D01*
X207963095Y-108359580D02*
X207915476Y-108407200D01*
X207915476Y-108407200D02*
X207820238Y-108454819D01*
X207820238Y-108454819D02*
X207582143Y-108454819D01*
X207582143Y-108454819D02*
X207486905Y-108407200D01*
X207486905Y-108407200D02*
X207439286Y-108359580D01*
X192008333Y-108524819D02*
X191675000Y-108048628D01*
X191436905Y-108524819D02*
X191436905Y-107524819D01*
X191436905Y-107524819D02*
X191817857Y-107524819D01*
X191817857Y-107524819D02*
X191913095Y-107572438D01*
X191913095Y-107572438D02*
X191960714Y-107620057D01*
X191960714Y-107620057D02*
X192008333Y-107715295D01*
X192008333Y-107715295D02*
X192008333Y-107858152D01*
X192008333Y-107858152D02*
X191960714Y-107953390D01*
X191960714Y-107953390D02*
X191913095Y-108001009D01*
X191913095Y-108001009D02*
X191817857Y-108048628D01*
X191817857Y-108048628D02*
X191436905Y-108048628D01*
X192341667Y-107524819D02*
X193008333Y-107524819D01*
X193008333Y-107524819D02*
X192579762Y-108524819D01*
X174859580Y-108355414D02*
X174907200Y-108403033D01*
X174907200Y-108403033D02*
X174954819Y-108545890D01*
X174954819Y-108545890D02*
X174954819Y-108641128D01*
X174954819Y-108641128D02*
X174907200Y-108783985D01*
X174907200Y-108783985D02*
X174811961Y-108879223D01*
X174811961Y-108879223D02*
X174716723Y-108926842D01*
X174716723Y-108926842D02*
X174526247Y-108974461D01*
X174526247Y-108974461D02*
X174383390Y-108974461D01*
X174383390Y-108974461D02*
X174192914Y-108926842D01*
X174192914Y-108926842D02*
X174097676Y-108879223D01*
X174097676Y-108879223D02*
X174002438Y-108783985D01*
X174002438Y-108783985D02*
X173954819Y-108641128D01*
X173954819Y-108641128D02*
X173954819Y-108545890D01*
X173954819Y-108545890D02*
X174002438Y-108403033D01*
X174002438Y-108403033D02*
X174050057Y-108355414D01*
X173954819Y-107498271D02*
X173954819Y-107688747D01*
X173954819Y-107688747D02*
X174002438Y-107783985D01*
X174002438Y-107783985D02*
X174050057Y-107831604D01*
X174050057Y-107831604D02*
X174192914Y-107926842D01*
X174192914Y-107926842D02*
X174383390Y-107974461D01*
X174383390Y-107974461D02*
X174764342Y-107974461D01*
X174764342Y-107974461D02*
X174859580Y-107926842D01*
X174859580Y-107926842D02*
X174907200Y-107879223D01*
X174907200Y-107879223D02*
X174954819Y-107783985D01*
X174954819Y-107783985D02*
X174954819Y-107593509D01*
X174954819Y-107593509D02*
X174907200Y-107498271D01*
X174907200Y-107498271D02*
X174859580Y-107450652D01*
X174859580Y-107450652D02*
X174764342Y-107403033D01*
X174764342Y-107403033D02*
X174526247Y-107403033D01*
X174526247Y-107403033D02*
X174431009Y-107450652D01*
X174431009Y-107450652D02*
X174383390Y-107498271D01*
X174383390Y-107498271D02*
X174335771Y-107593509D01*
X174335771Y-107593509D02*
X174335771Y-107783985D01*
X174335771Y-107783985D02*
X174383390Y-107879223D01*
X174383390Y-107879223D02*
X174431009Y-107926842D01*
X174431009Y-107926842D02*
X174526247Y-107974461D01*
X162384819Y-127817857D02*
X161908628Y-128151190D01*
X162384819Y-128389285D02*
X161384819Y-128389285D01*
X161384819Y-128389285D02*
X161384819Y-128008333D01*
X161384819Y-128008333D02*
X161432438Y-127913095D01*
X161432438Y-127913095D02*
X161480057Y-127865476D01*
X161480057Y-127865476D02*
X161575295Y-127817857D01*
X161575295Y-127817857D02*
X161718152Y-127817857D01*
X161718152Y-127817857D02*
X161813390Y-127865476D01*
X161813390Y-127865476D02*
X161861009Y-127913095D01*
X161861009Y-127913095D02*
X161908628Y-128008333D01*
X161908628Y-128008333D02*
X161908628Y-128389285D01*
X162384819Y-126865476D02*
X162384819Y-127436904D01*
X162384819Y-127151190D02*
X161384819Y-127151190D01*
X161384819Y-127151190D02*
X161527676Y-127246428D01*
X161527676Y-127246428D02*
X161622914Y-127341666D01*
X161622914Y-127341666D02*
X161670533Y-127436904D01*
X161384819Y-125960714D02*
X161384819Y-126436904D01*
X161384819Y-126436904D02*
X161861009Y-126484523D01*
X161861009Y-126484523D02*
X161813390Y-126436904D01*
X161813390Y-126436904D02*
X161765771Y-126341666D01*
X161765771Y-126341666D02*
X161765771Y-126103571D01*
X161765771Y-126103571D02*
X161813390Y-126008333D01*
X161813390Y-126008333D02*
X161861009Y-125960714D01*
X161861009Y-125960714D02*
X161956247Y-125913095D01*
X161956247Y-125913095D02*
X162194342Y-125913095D01*
X162194342Y-125913095D02*
X162289580Y-125960714D01*
X162289580Y-125960714D02*
X162337200Y-126008333D01*
X162337200Y-126008333D02*
X162384819Y-126103571D01*
X162384819Y-126103571D02*
X162384819Y-126341666D01*
X162384819Y-126341666D02*
X162337200Y-126436904D01*
X162337200Y-126436904D02*
X162289580Y-126484523D01*
X171784819Y-127817857D02*
X171308628Y-128151190D01*
X171784819Y-128389285D02*
X170784819Y-128389285D01*
X170784819Y-128389285D02*
X170784819Y-128008333D01*
X170784819Y-128008333D02*
X170832438Y-127913095D01*
X170832438Y-127913095D02*
X170880057Y-127865476D01*
X170880057Y-127865476D02*
X170975295Y-127817857D01*
X170975295Y-127817857D02*
X171118152Y-127817857D01*
X171118152Y-127817857D02*
X171213390Y-127865476D01*
X171213390Y-127865476D02*
X171261009Y-127913095D01*
X171261009Y-127913095D02*
X171308628Y-128008333D01*
X171308628Y-128008333D02*
X171308628Y-128389285D01*
X171784819Y-126865476D02*
X171784819Y-127436904D01*
X171784819Y-127151190D02*
X170784819Y-127151190D01*
X170784819Y-127151190D02*
X170927676Y-127246428D01*
X170927676Y-127246428D02*
X171022914Y-127341666D01*
X171022914Y-127341666D02*
X171070533Y-127436904D01*
X170880057Y-126484523D02*
X170832438Y-126436904D01*
X170832438Y-126436904D02*
X170784819Y-126341666D01*
X170784819Y-126341666D02*
X170784819Y-126103571D01*
X170784819Y-126103571D02*
X170832438Y-126008333D01*
X170832438Y-126008333D02*
X170880057Y-125960714D01*
X170880057Y-125960714D02*
X170975295Y-125913095D01*
X170975295Y-125913095D02*
X171070533Y-125913095D01*
X171070533Y-125913095D02*
X171213390Y-125960714D01*
X171213390Y-125960714D02*
X171784819Y-126532142D01*
X171784819Y-126532142D02*
X171784819Y-125913095D01*
X203454819Y-110991666D02*
X202978628Y-111324999D01*
X203454819Y-111563094D02*
X202454819Y-111563094D01*
X202454819Y-111563094D02*
X202454819Y-111182142D01*
X202454819Y-111182142D02*
X202502438Y-111086904D01*
X202502438Y-111086904D02*
X202550057Y-111039285D01*
X202550057Y-111039285D02*
X202645295Y-110991666D01*
X202645295Y-110991666D02*
X202788152Y-110991666D01*
X202788152Y-110991666D02*
X202883390Y-111039285D01*
X202883390Y-111039285D02*
X202931009Y-111086904D01*
X202931009Y-111086904D02*
X202978628Y-111182142D01*
X202978628Y-111182142D02*
X202978628Y-111563094D01*
X202454819Y-110134523D02*
X202454819Y-110324999D01*
X202454819Y-110324999D02*
X202502438Y-110420237D01*
X202502438Y-110420237D02*
X202550057Y-110467856D01*
X202550057Y-110467856D02*
X202692914Y-110563094D01*
X202692914Y-110563094D02*
X202883390Y-110610713D01*
X202883390Y-110610713D02*
X203264342Y-110610713D01*
X203264342Y-110610713D02*
X203359580Y-110563094D01*
X203359580Y-110563094D02*
X203407200Y-110515475D01*
X203407200Y-110515475D02*
X203454819Y-110420237D01*
X203454819Y-110420237D02*
X203454819Y-110229761D01*
X203454819Y-110229761D02*
X203407200Y-110134523D01*
X203407200Y-110134523D02*
X203359580Y-110086904D01*
X203359580Y-110086904D02*
X203264342Y-110039285D01*
X203264342Y-110039285D02*
X203026247Y-110039285D01*
X203026247Y-110039285D02*
X202931009Y-110086904D01*
X202931009Y-110086904D02*
X202883390Y-110134523D01*
X202883390Y-110134523D02*
X202835771Y-110229761D01*
X202835771Y-110229761D02*
X202835771Y-110420237D01*
X202835771Y-110420237D02*
X202883390Y-110515475D01*
X202883390Y-110515475D02*
X202931009Y-110563094D01*
X202931009Y-110563094D02*
X203026247Y-110610713D01*
X168684819Y-127817857D02*
X168208628Y-128151190D01*
X168684819Y-128389285D02*
X167684819Y-128389285D01*
X167684819Y-128389285D02*
X167684819Y-128008333D01*
X167684819Y-128008333D02*
X167732438Y-127913095D01*
X167732438Y-127913095D02*
X167780057Y-127865476D01*
X167780057Y-127865476D02*
X167875295Y-127817857D01*
X167875295Y-127817857D02*
X168018152Y-127817857D01*
X168018152Y-127817857D02*
X168113390Y-127865476D01*
X168113390Y-127865476D02*
X168161009Y-127913095D01*
X168161009Y-127913095D02*
X168208628Y-128008333D01*
X168208628Y-128008333D02*
X168208628Y-128389285D01*
X168684819Y-126865476D02*
X168684819Y-127436904D01*
X168684819Y-127151190D02*
X167684819Y-127151190D01*
X167684819Y-127151190D02*
X167827676Y-127246428D01*
X167827676Y-127246428D02*
X167922914Y-127341666D01*
X167922914Y-127341666D02*
X167970533Y-127436904D01*
X167684819Y-126532142D02*
X167684819Y-125913095D01*
X167684819Y-125913095D02*
X168065771Y-126246428D01*
X168065771Y-126246428D02*
X168065771Y-126103571D01*
X168065771Y-126103571D02*
X168113390Y-126008333D01*
X168113390Y-126008333D02*
X168161009Y-125960714D01*
X168161009Y-125960714D02*
X168256247Y-125913095D01*
X168256247Y-125913095D02*
X168494342Y-125913095D01*
X168494342Y-125913095D02*
X168589580Y-125960714D01*
X168589580Y-125960714D02*
X168637200Y-126008333D01*
X168637200Y-126008333D02*
X168684819Y-126103571D01*
X168684819Y-126103571D02*
X168684819Y-126389285D01*
X168684819Y-126389285D02*
X168637200Y-126484523D01*
X168637200Y-126484523D02*
X168589580Y-126532142D01*
X175199405Y-101004819D02*
X175199405Y-100004819D01*
X175199405Y-100004819D02*
X175437500Y-100004819D01*
X175437500Y-100004819D02*
X175580357Y-100052438D01*
X175580357Y-100052438D02*
X175675595Y-100147676D01*
X175675595Y-100147676D02*
X175723214Y-100242914D01*
X175723214Y-100242914D02*
X175770833Y-100433390D01*
X175770833Y-100433390D02*
X175770833Y-100576247D01*
X175770833Y-100576247D02*
X175723214Y-100766723D01*
X175723214Y-100766723D02*
X175675595Y-100861961D01*
X175675595Y-100861961D02*
X175580357Y-100957200D01*
X175580357Y-100957200D02*
X175437500Y-101004819D01*
X175437500Y-101004819D02*
X175199405Y-101004819D01*
X176104167Y-100004819D02*
X176723214Y-100004819D01*
X176723214Y-100004819D02*
X176389881Y-100385771D01*
X176389881Y-100385771D02*
X176532738Y-100385771D01*
X176532738Y-100385771D02*
X176627976Y-100433390D01*
X176627976Y-100433390D02*
X176675595Y-100481009D01*
X176675595Y-100481009D02*
X176723214Y-100576247D01*
X176723214Y-100576247D02*
X176723214Y-100814342D01*
X176723214Y-100814342D02*
X176675595Y-100909580D01*
X176675595Y-100909580D02*
X176627976Y-100957200D01*
X176627976Y-100957200D02*
X176532738Y-101004819D01*
X176532738Y-101004819D02*
X176247024Y-101004819D01*
X176247024Y-101004819D02*
X176151786Y-100957200D01*
X176151786Y-100957200D02*
X176104167Y-100909580D01*
X170333333Y-111954819D02*
X170000000Y-111478628D01*
X169761905Y-111954819D02*
X169761905Y-110954819D01*
X169761905Y-110954819D02*
X170142857Y-110954819D01*
X170142857Y-110954819D02*
X170238095Y-111002438D01*
X170238095Y-111002438D02*
X170285714Y-111050057D01*
X170285714Y-111050057D02*
X170333333Y-111145295D01*
X170333333Y-111145295D02*
X170333333Y-111288152D01*
X170333333Y-111288152D02*
X170285714Y-111383390D01*
X170285714Y-111383390D02*
X170238095Y-111431009D01*
X170238095Y-111431009D02*
X170142857Y-111478628D01*
X170142857Y-111478628D02*
X169761905Y-111478628D01*
X170809524Y-111954819D02*
X171000000Y-111954819D01*
X171000000Y-111954819D02*
X171095238Y-111907200D01*
X171095238Y-111907200D02*
X171142857Y-111859580D01*
X171142857Y-111859580D02*
X171238095Y-111716723D01*
X171238095Y-111716723D02*
X171285714Y-111526247D01*
X171285714Y-111526247D02*
X171285714Y-111145295D01*
X171285714Y-111145295D02*
X171238095Y-111050057D01*
X171238095Y-111050057D02*
X171190476Y-111002438D01*
X171190476Y-111002438D02*
X171095238Y-110954819D01*
X171095238Y-110954819D02*
X170904762Y-110954819D01*
X170904762Y-110954819D02*
X170809524Y-111002438D01*
X170809524Y-111002438D02*
X170761905Y-111050057D01*
X170761905Y-111050057D02*
X170714286Y-111145295D01*
X170714286Y-111145295D02*
X170714286Y-111383390D01*
X170714286Y-111383390D02*
X170761905Y-111478628D01*
X170761905Y-111478628D02*
X170809524Y-111526247D01*
X170809524Y-111526247D02*
X170904762Y-111573866D01*
X170904762Y-111573866D02*
X171095238Y-111573866D01*
X171095238Y-111573866D02*
X171190476Y-111526247D01*
X171190476Y-111526247D02*
X171238095Y-111478628D01*
X171238095Y-111478628D02*
X171285714Y-111383390D01*
X159939819Y-122083333D02*
X160654104Y-122083333D01*
X160654104Y-122083333D02*
X160796961Y-122130952D01*
X160796961Y-122130952D02*
X160892200Y-122226190D01*
X160892200Y-122226190D02*
X160939819Y-122369047D01*
X160939819Y-122369047D02*
X160939819Y-122464285D01*
X159939819Y-121178571D02*
X159939819Y-121369047D01*
X159939819Y-121369047D02*
X159987438Y-121464285D01*
X159987438Y-121464285D02*
X160035057Y-121511904D01*
X160035057Y-121511904D02*
X160177914Y-121607142D01*
X160177914Y-121607142D02*
X160368390Y-121654761D01*
X160368390Y-121654761D02*
X160749342Y-121654761D01*
X160749342Y-121654761D02*
X160844580Y-121607142D01*
X160844580Y-121607142D02*
X160892200Y-121559523D01*
X160892200Y-121559523D02*
X160939819Y-121464285D01*
X160939819Y-121464285D02*
X160939819Y-121273809D01*
X160939819Y-121273809D02*
X160892200Y-121178571D01*
X160892200Y-121178571D02*
X160844580Y-121130952D01*
X160844580Y-121130952D02*
X160749342Y-121083333D01*
X160749342Y-121083333D02*
X160511247Y-121083333D01*
X160511247Y-121083333D02*
X160416009Y-121130952D01*
X160416009Y-121130952D02*
X160368390Y-121178571D01*
X160368390Y-121178571D02*
X160320771Y-121273809D01*
X160320771Y-121273809D02*
X160320771Y-121464285D01*
X160320771Y-121464285D02*
X160368390Y-121559523D01*
X160368390Y-121559523D02*
X160416009Y-121607142D01*
X160416009Y-121607142D02*
X160511247Y-121654761D01*
X206309580Y-129942857D02*
X206357200Y-129990476D01*
X206357200Y-129990476D02*
X206404819Y-130133333D01*
X206404819Y-130133333D02*
X206404819Y-130228571D01*
X206404819Y-130228571D02*
X206357200Y-130371428D01*
X206357200Y-130371428D02*
X206261961Y-130466666D01*
X206261961Y-130466666D02*
X206166723Y-130514285D01*
X206166723Y-130514285D02*
X205976247Y-130561904D01*
X205976247Y-130561904D02*
X205833390Y-130561904D01*
X205833390Y-130561904D02*
X205642914Y-130514285D01*
X205642914Y-130514285D02*
X205547676Y-130466666D01*
X205547676Y-130466666D02*
X205452438Y-130371428D01*
X205452438Y-130371428D02*
X205404819Y-130228571D01*
X205404819Y-130228571D02*
X205404819Y-130133333D01*
X205404819Y-130133333D02*
X205452438Y-129990476D01*
X205452438Y-129990476D02*
X205500057Y-129942857D01*
X206404819Y-128990476D02*
X206404819Y-129561904D01*
X206404819Y-129276190D02*
X205404819Y-129276190D01*
X205404819Y-129276190D02*
X205547676Y-129371428D01*
X205547676Y-129371428D02*
X205642914Y-129466666D01*
X205642914Y-129466666D02*
X205690533Y-129561904D01*
X205404819Y-128657142D02*
X205404819Y-128038095D01*
X205404819Y-128038095D02*
X205785771Y-128371428D01*
X205785771Y-128371428D02*
X205785771Y-128228571D01*
X205785771Y-128228571D02*
X205833390Y-128133333D01*
X205833390Y-128133333D02*
X205881009Y-128085714D01*
X205881009Y-128085714D02*
X205976247Y-128038095D01*
X205976247Y-128038095D02*
X206214342Y-128038095D01*
X206214342Y-128038095D02*
X206309580Y-128085714D01*
X206309580Y-128085714D02*
X206357200Y-128133333D01*
X206357200Y-128133333D02*
X206404819Y-128228571D01*
X206404819Y-128228571D02*
X206404819Y-128514285D01*
X206404819Y-128514285D02*
X206357200Y-128609523D01*
X206357200Y-128609523D02*
X206309580Y-128657142D01*
D11*
%TO.C,IC1*%
X176200000Y-114900000D02*
X176200000Y-114900000D01*
X176200000Y-115000000D02*
X176200000Y-115000000D01*
X176600000Y-114450000D02*
X177300000Y-114450000D01*
X176600000Y-114700000D02*
X176600000Y-114450000D01*
X176600000Y-116800000D02*
X176600000Y-116950000D01*
X176600000Y-116950000D02*
X177300000Y-116950000D01*
X178900000Y-114450000D02*
X179600000Y-114450000D01*
X178900000Y-116950000D02*
X179600000Y-116950000D01*
X179600000Y-114450000D02*
X179600000Y-114700000D01*
X179600000Y-116950000D02*
X179600000Y-116700000D01*
X176200000Y-114900000D02*
G75*
G02*
X176200000Y-115000000I0J-50000D01*
G01*
X176200000Y-115000000D02*
G75*
G02*
X176200000Y-114900000I0J50000D01*
G01*
D15*
%TO.C,R14*%
X163177500Y-126937742D02*
X163177500Y-127412258D01*
X164222500Y-126937742D02*
X164222500Y-127412258D01*
%TO.C,D1*%
X164890000Y-113500000D02*
X164890000Y-115500000D01*
X164890000Y-113500000D02*
X168750000Y-113500000D01*
X164890000Y-115500000D02*
X168750000Y-115500000D01*
D11*
%TO.C,SELECT1*%
X153175000Y-116400000D02*
X153175000Y-116400000D01*
X153275000Y-116400000D02*
X153275000Y-116400000D01*
X153275000Y-116400000D02*
X153275000Y-116400000D01*
D16*
X158475000Y-113650000D02*
X155275000Y-113650000D01*
X158475000Y-117150000D02*
X155275000Y-117150000D01*
D11*
X153175000Y-116400000D02*
G75*
G02*
X153275000Y-116400000I50000J0D01*
G01*
X153175000Y-116400000D02*
G75*
G02*
X153275000Y-116400000I50000J0D01*
G01*
X153275000Y-116400000D02*
G75*
G02*
X153175000Y-116400000I-50000J0D01*
G01*
D15*
%TO.C,U3*%
X165940000Y-108637500D02*
X165940000Y-107837500D01*
X165940000Y-108637500D02*
X165940000Y-109437500D01*
X169060000Y-108637500D02*
X169060000Y-107837500D01*
X169060000Y-108637500D02*
X169060000Y-109437500D01*
X169340000Y-107577500D02*
X169010000Y-107337500D01*
X169340000Y-107097500D01*
X169340000Y-107577500D01*
G36*
X169340000Y-107577500D02*
G01*
X169010000Y-107337500D01*
X169340000Y-107097500D01*
X169340000Y-107577500D01*
G37*
D11*
%TO.C,MENU1*%
X153175000Y-110250000D02*
X153175000Y-110250000D01*
X153275000Y-110250000D02*
X153275000Y-110250000D01*
X153275000Y-110250000D02*
X153275000Y-110250000D01*
D16*
X158475000Y-107500000D02*
X155275000Y-107500000D01*
X158475000Y-111000000D02*
X155275000Y-111000000D01*
D11*
X153175000Y-110250000D02*
G75*
G02*
X153275000Y-110250000I50000J0D01*
G01*
X153175000Y-110250000D02*
G75*
G02*
X153275000Y-110250000I50000J0D01*
G01*
X153275000Y-110250000D02*
G75*
G02*
X153175000Y-110250000I-50000J0D01*
G01*
D15*
%TO.C,R5*%
X185187742Y-99977500D02*
X185662258Y-99977500D01*
X185187742Y-101022500D02*
X185662258Y-101022500D01*
%TO.C,J1*%
X167670000Y-123680000D02*
X167670000Y-122500000D01*
X167735000Y-120050000D02*
X171765000Y-120050000D01*
X167735000Y-120912077D02*
X167735000Y-120050000D01*
X168480000Y-123680000D02*
X167670000Y-123680000D01*
X169290000Y-123680000D02*
X169290000Y-123166708D01*
X169290000Y-123680000D02*
X171765000Y-123680000D01*
X171765000Y-120912077D02*
X171765000Y-120050000D01*
X171765000Y-122182077D02*
X171765000Y-121547923D01*
X171765000Y-123680000D02*
X171765000Y-122817923D01*
%TO.C,C11*%
X194284420Y-124390000D02*
X194565580Y-124390000D01*
X194284420Y-125410000D02*
X194565580Y-125410000D01*
%TO.C,R2*%
X199477500Y-108587742D02*
X199477500Y-109062258D01*
X200522500Y-108587742D02*
X200522500Y-109062258D01*
%TO.C,Q3*%
X166562500Y-100890000D02*
X165912500Y-100890000D01*
X166562500Y-100890000D02*
X167212500Y-100890000D01*
X166562500Y-104010000D02*
X165912500Y-104010000D01*
X166562500Y-104010000D02*
X167212500Y-104010000D01*
X165400000Y-100940000D02*
X165160000Y-100610000D01*
X165640000Y-100610000D01*
X165400000Y-100940000D01*
G36*
X165400000Y-100940000D02*
G01*
X165160000Y-100610000D01*
X165640000Y-100610000D01*
X165400000Y-100940000D01*
G37*
%TO.C,R4*%
X184412258Y-110477500D02*
X183937742Y-110477500D01*
X184412258Y-111522500D02*
X183937742Y-111522500D01*
%TO.C,C15*%
X200690000Y-126084420D02*
X200690000Y-126365580D01*
X201710000Y-126084420D02*
X201710000Y-126365580D01*
%TO.C,J7*%
X214390000Y-121800000D02*
X214390000Y-123860000D01*
X214390000Y-121800000D02*
X216510000Y-121800000D01*
X214390000Y-123860000D02*
X216510000Y-123860000D01*
X215450000Y-119740000D02*
X216510000Y-119740000D01*
X216510000Y-119740000D02*
X216510000Y-120800000D01*
X216510000Y-121800000D02*
X216510000Y-123860000D01*
%TO.C,MAX1*%
X171362500Y-100940000D02*
X170562500Y-100940000D01*
X171362500Y-100940000D02*
X172162500Y-100940000D01*
X171362500Y-104060000D02*
X170562500Y-104060000D01*
X171362500Y-104060000D02*
X172162500Y-104060000D01*
X170062500Y-100990000D02*
X169822500Y-100660000D01*
X170302500Y-100660000D01*
X170062500Y-100990000D01*
G36*
X170062500Y-100990000D02*
G01*
X169822500Y-100660000D01*
X170302500Y-100660000D01*
X170062500Y-100990000D01*
G37*
D16*
%TO.C,BOOT1*%
X204400000Y-105025000D02*
X204400000Y-101825000D01*
D11*
X205150000Y-99725000D02*
X205150000Y-99725000D01*
X205150000Y-99825000D02*
X205150000Y-99825000D01*
X205150000Y-99825000D02*
X205150000Y-99825000D01*
D16*
X207900000Y-105025000D02*
X207900000Y-101825000D01*
D11*
X205150000Y-99725000D02*
G75*
G02*
X205150000Y-99825000I0J-50000D01*
G01*
X205150000Y-99725000D02*
G75*
G02*
X205150000Y-99825000I0J-50000D01*
G01*
X205150000Y-99825000D02*
G75*
G02*
X205150000Y-99725000I0J50000D01*
G01*
D15*
%TO.C,Q2*%
X169990000Y-114537500D02*
X169990000Y-113887500D01*
X169990000Y-114537500D02*
X169990000Y-115187500D01*
X173110000Y-114537500D02*
X173110000Y-113887500D01*
X173110000Y-114537500D02*
X173110000Y-115187500D01*
X173390000Y-113615000D02*
X173060000Y-113375000D01*
X173390000Y-113135000D01*
X173390000Y-113615000D01*
G36*
X173390000Y-113615000D02*
G01*
X173060000Y-113375000D01*
X173390000Y-113135000D01*
X173390000Y-113615000D01*
G37*
%TO.C,R1*%
X196477500Y-108587742D02*
X196477500Y-109062258D01*
X197522500Y-108587742D02*
X197522500Y-109062258D01*
D16*
%TO.C,SW_PWR1*%
X178850000Y-104925000D02*
X178850000Y-101725000D01*
D11*
X179600000Y-99625000D02*
X179600000Y-99625000D01*
X179600000Y-99725000D02*
X179600000Y-99725000D01*
X179600000Y-99725000D02*
X179600000Y-99725000D01*
D16*
X182350000Y-104925000D02*
X182350000Y-101725000D01*
D11*
X179600000Y-99625000D02*
G75*
G02*
X179600000Y-99725000I0J-50000D01*
G01*
X179600000Y-99625000D02*
G75*
G02*
X179600000Y-99725000I0J-50000D01*
G01*
X179600000Y-99725000D02*
G75*
G02*
X179600000Y-99625000I0J50000D01*
G01*
D15*
%TO.C,C10*%
X207084420Y-111990000D02*
X207365580Y-111990000D01*
X207084420Y-113010000D02*
X207365580Y-113010000D01*
%TO.C,D2*%
X184062500Y-105210000D02*
X186747500Y-105210000D01*
X186747500Y-103290000D02*
X184062500Y-103290000D01*
X186747500Y-105210000D02*
X186747500Y-103290000D01*
%TO.C,C14*%
X203090000Y-126084420D02*
X203090000Y-126365580D01*
X204110000Y-126084420D02*
X204110000Y-126365580D01*
%TO.C,R8*%
X192652500Y-111762742D02*
X192652500Y-112237258D01*
X193697500Y-111762742D02*
X193697500Y-112237258D01*
%TO.C,C12*%
X207390000Y-126134420D02*
X207390000Y-126415580D01*
X208410000Y-126134420D02*
X208410000Y-126415580D01*
%TO.C,C8*%
X184084420Y-107990000D02*
X184365580Y-107990000D01*
X184084420Y-109010000D02*
X184365580Y-109010000D01*
%TO.C,J2*%
X214120000Y-114230000D02*
X214120000Y-111580000D01*
X216880000Y-111580000D02*
X214120000Y-111580000D01*
X216880000Y-114230000D02*
X214120000Y-114230000D01*
X216880000Y-114230000D02*
X216880000Y-111580000D01*
X216880000Y-115500000D02*
X216880000Y-116880000D01*
X216880000Y-116880000D02*
X215500000Y-116880000D01*
%TO.C,R3*%
X168762742Y-104977500D02*
X169237258Y-104977500D01*
X168762742Y-106022500D02*
X169237258Y-106022500D01*
%TO.C,C7*%
X175265000Y-107688748D02*
X175265000Y-108211252D01*
X176735000Y-107688748D02*
X176735000Y-108211252D01*
%TO.C,SCRN1*%
X180600000Y-118220000D02*
X180600000Y-120980000D01*
X188330000Y-118220000D02*
X180600000Y-118220000D01*
X188330000Y-118220000D02*
X188330000Y-120980000D01*
X188330000Y-120980000D02*
X180600000Y-120980000D01*
X189600000Y-118220000D02*
X190980000Y-118220000D01*
X190980000Y-118220000D02*
X190980000Y-119600000D01*
%TO.C,U4*%
X188362500Y-108890000D02*
X187562500Y-108890000D01*
X188362500Y-108890000D02*
X189162500Y-108890000D01*
X188362500Y-112010000D02*
X187562500Y-112010000D01*
X188362500Y-112010000D02*
X189162500Y-112010000D01*
X189902500Y-112290000D02*
X189422500Y-112290000D01*
X189662500Y-111960000D01*
X189902500Y-112290000D01*
G36*
X189902500Y-112290000D02*
G01*
X189422500Y-112290000D01*
X189662500Y-111960000D01*
X189902500Y-112290000D01*
G37*
D16*
%TO.C,SW_RST1*%
X187900000Y-105025000D02*
X187900000Y-101825000D01*
D11*
X188650000Y-99725000D02*
X188650000Y-99725000D01*
X188650000Y-99825000D02*
X188650000Y-99825000D01*
X188650000Y-99825000D02*
X188650000Y-99825000D01*
D16*
X191400000Y-105025000D02*
X191400000Y-101825000D01*
D11*
X188650000Y-99725000D02*
G75*
G02*
X188650000Y-99825000I0J-50000D01*
G01*
X188650000Y-99725000D02*
G75*
G02*
X188650000Y-99825000I0J-50000D01*
G01*
X188650000Y-99825000D02*
G75*
G02*
X188650000Y-99725000I0J50000D01*
G01*
D15*
%TO.C,J4*%
X193050000Y-98955000D02*
X193050000Y-97055000D01*
X193050000Y-102855000D02*
X193050000Y-100855000D01*
X202450000Y-97055000D02*
X193050000Y-97055000D01*
X202450000Y-98955000D02*
X202450000Y-97055000D01*
X202450000Y-102855000D02*
X202450000Y-100855000D01*
%TO.C,C5*%
X207365580Y-108990000D02*
X207084420Y-108990000D01*
X207365580Y-110010000D02*
X207084420Y-110010000D01*
%TO.C,R7*%
X191937742Y-108977500D02*
X192412258Y-108977500D01*
X191937742Y-110022500D02*
X192412258Y-110022500D01*
%TO.C,C6*%
X171765000Y-108711252D02*
X171765000Y-108188748D01*
X173235000Y-108711252D02*
X173235000Y-108188748D01*
%TO.C,R15*%
X159977500Y-126937742D02*
X159977500Y-127412258D01*
X161022500Y-126937742D02*
X161022500Y-127412258D01*
%TO.C,R12*%
X169377500Y-126937742D02*
X169377500Y-127412258D01*
X170422500Y-126937742D02*
X170422500Y-127412258D01*
%TO.C,R6*%
X203977500Y-111062258D02*
X203977500Y-110587742D01*
X205022500Y-111062258D02*
X205022500Y-110587742D01*
%TO.C,R13*%
X166277500Y-126937742D02*
X166277500Y-127412258D01*
X167322500Y-126937742D02*
X167322500Y-127412258D01*
%TO.C,D3*%
X175937500Y-101390000D02*
X175287500Y-101390000D01*
X175937500Y-101390000D02*
X176587500Y-101390000D01*
X175937500Y-104510000D02*
X175287500Y-104510000D01*
X175937500Y-104510000D02*
X176587500Y-104510000D01*
X174775000Y-101440000D02*
X174535000Y-101110000D01*
X175015000Y-101110000D01*
X174775000Y-101440000D01*
G36*
X174775000Y-101440000D02*
G01*
X174535000Y-101110000D01*
X175015000Y-101110000D01*
X174775000Y-101440000D01*
G37*
%TO.C,R9*%
X172437742Y-110977500D02*
X172912258Y-110977500D01*
X172437742Y-112022500D02*
X172912258Y-112022500D01*
%TO.C,J6*%
X161420000Y-122910000D02*
X161420000Y-121750000D01*
X162230000Y-122910000D02*
X161420000Y-122910000D01*
X163040000Y-120590000D02*
X165515000Y-120590000D01*
X163040000Y-121083292D02*
X163040000Y-120590000D01*
X163040000Y-122910000D02*
X163040000Y-122416708D01*
X163040000Y-122910000D02*
X165515000Y-122910000D01*
X165515000Y-121432077D02*
X165515000Y-120590000D01*
X165515000Y-122910000D02*
X165515000Y-122067923D01*
%TO.C,C13*%
X205440000Y-126134420D02*
X205440000Y-126415580D01*
X206460000Y-126134420D02*
X206460000Y-126415580D01*
%TD*%
M02*
