%TF.GenerationSoftware,KiCad,Pcbnew,9.0.1*%
%TF.CreationDate,2025-11-02T14:12:38-06:00*%
%TF.ProjectId,OM-FlexGrid-Rigid-PCB,4f4d2d46-6c65-4784-9772-69642d526967,rev?*%
%TF.SameCoordinates,Original*%
%TF.FileFunction,Soldermask,Top*%
%TF.FilePolarity,Negative*%
%FSLAX46Y46*%
G04 Gerber Fmt 4.6, Leading zero omitted, Abs format (unit mm)*
G04 Created by KiCad (PCBNEW 9.0.1) date 2025-11-02 14:12:38*
%MOMM*%
%LPD*%
G01*
G04 APERTURE LIST*
G04 Aperture macros list*
%AMRoundRect*
0 Rectangle with rounded corners*
0 $1 Rounding radius*
0 $2 $3 $4 $5 $6 $7 $8 $9 X,Y pos of 4 corners*
0 Add a 4 corners polygon primitive as box body*
4,1,4,$2,$3,$4,$5,$6,$7,$8,$9,$2,$3,0*
0 Add four circle primitives for the rounded corners*
1,1,$1+$1,$2,$3*
1,1,$1+$1,$4,$5*
1,1,$1+$1,$6,$7*
1,1,$1+$1,$8,$9*
0 Add four rect primitives between the rounded corners*
20,1,$1+$1,$2,$3,$4,$5,0*
20,1,$1+$1,$4,$5,$6,$7,0*
20,1,$1+$1,$6,$7,$8,$9,0*
20,1,$1+$1,$8,$9,$2,$3,0*%
G04 Aperture macros list end*
%ADD10RoundRect,0.052500X0.122500X-0.947500X0.122500X0.947500X-0.122500X0.947500X-0.122500X-0.947500X0*%
%ADD11RoundRect,0.101600X-0.300000X-0.150000X0.300000X-0.150000X0.300000X0.150000X-0.300000X0.150000X0*%
%ADD12RoundRect,0.101600X0.150000X-0.300000X0.150000X0.300000X-0.150000X0.300000X-0.150000X-0.300000X0*%
%ADD13RoundRect,0.200000X-0.275000X0.200000X-0.275000X-0.200000X0.275000X-0.200000X0.275000X0.200000X0*%
%ADD14RoundRect,0.250000X-0.300000X-0.300000X0.300000X-0.300000X0.300000X0.300000X-0.300000X0.300000X0*%
%ADD15R,1.450000X1.000000*%
%ADD16RoundRect,0.150000X-0.150000X0.512500X-0.150000X-0.512500X0.150000X-0.512500X0.150000X0.512500X0*%
%ADD17RoundRect,0.200000X-0.200000X-0.275000X0.200000X-0.275000X0.200000X0.275000X-0.200000X0.275000X0*%
%ADD18R,1.000000X1.000000*%
%ADD19C,1.000000*%
%ADD20RoundRect,0.225000X-0.225000X-0.250000X0.225000X-0.250000X0.225000X0.250000X-0.225000X0.250000X0*%
%ADD21RoundRect,0.150000X-0.587500X-0.150000X0.587500X-0.150000X0.587500X0.150000X-0.587500X0.150000X0*%
%ADD22RoundRect,0.200000X0.200000X0.275000X-0.200000X0.275000X-0.200000X-0.275000X0.200000X-0.275000X0*%
%ADD23RoundRect,0.225000X-0.250000X0.225000X-0.250000X-0.225000X0.250000X-0.225000X0.250000X0.225000X0*%
%ADD24R,1.350000X1.350000*%
%ADD25C,1.350000*%
%ADD26C,2.200000*%
%ADD27RoundRect,0.150000X-0.512500X-0.150000X0.512500X-0.150000X0.512500X0.150000X-0.512500X0.150000X0*%
%ADD28R,1.000000X1.450000*%
%ADD29RoundRect,0.150000X-0.150000X0.587500X-0.150000X-0.587500X0.150000X-0.587500X0.150000X0.587500X0*%
%ADD30RoundRect,0.243750X0.243750X0.456250X-0.243750X0.456250X-0.243750X-0.456250X0.243750X-0.456250X0*%
%ADD31R,1.700000X1.700000*%
%ADD32C,1.700000*%
%ADD33RoundRect,0.250000X-0.475000X0.250000X-0.475000X-0.250000X0.475000X-0.250000X0.475000X0.250000X0*%
%ADD34RoundRect,0.150000X0.512500X0.150000X-0.512500X0.150000X-0.512500X-0.150000X0.512500X-0.150000X0*%
%ADD35C,0.650000*%
%ADD36R,0.600000X1.450000*%
%ADD37R,0.300000X1.450000*%
%ADD38O,1.000000X2.100000*%
%ADD39O,1.000000X1.600000*%
%ADD40RoundRect,0.225000X0.225000X0.250000X-0.225000X0.250000X-0.225000X-0.250000X0.225000X-0.250000X0*%
%ADD41RoundRect,0.250000X0.475000X-0.250000X0.475000X0.250000X-0.475000X0.250000X-0.475000X-0.250000X0*%
%ADD42RoundRect,0.200000X0.275000X-0.200000X0.275000X0.200000X-0.275000X0.200000X-0.275000X-0.200000X0*%
G04 APERTURE END LIST*
D10*
%TO.C,J3*%
X179250000Y-122700000D03*
X179850000Y-122700000D03*
X180450000Y-122700000D03*
X181050000Y-122700000D03*
X181650000Y-122700000D03*
X182250000Y-122700000D03*
X182850000Y-122700000D03*
X183450000Y-122700000D03*
X184050000Y-122700000D03*
X184650000Y-122700000D03*
X185250000Y-122700000D03*
X185850000Y-122700000D03*
X186450000Y-122700000D03*
X187050000Y-122700000D03*
X187650000Y-122700000D03*
X188250000Y-122700000D03*
X188850000Y-122700000D03*
X189450000Y-122700000D03*
X190050000Y-122700000D03*
%TD*%
D11*
%TO.C,IC1*%
X176950000Y-114950000D03*
X176950000Y-115450000D03*
X176950000Y-115950000D03*
X176950000Y-116450000D03*
D12*
X177600000Y-116600000D03*
X178100000Y-116600000D03*
X178600000Y-116600000D03*
D11*
X179250000Y-116450000D03*
X179250000Y-115950000D03*
X179250000Y-115450000D03*
X179250000Y-114950000D03*
D12*
X178600000Y-114800000D03*
X178100000Y-114800000D03*
X177600000Y-114800000D03*
%TD*%
D13*
%TO.C,R14*%
X163700000Y-126350000D03*
X163700000Y-128000000D03*
%TD*%
D14*
%TO.C,D1*%
X165700000Y-114500000D03*
X168500000Y-114500000D03*
%TD*%
D15*
%TO.C,SELECT1*%
X154300000Y-116250000D03*
X154300000Y-114550000D03*
X159450000Y-116250000D03*
X159450000Y-114550000D03*
%TD*%
D16*
%TO.C,U3*%
X168450000Y-107500000D03*
X167500000Y-107500000D03*
X166550000Y-107500000D03*
X166550000Y-109775000D03*
X168450000Y-109775000D03*
%TD*%
D15*
%TO.C,MENU1*%
X154300000Y-110100000D03*
X154300000Y-108400000D03*
X159450000Y-110100000D03*
X159450000Y-108400000D03*
%TD*%
D17*
%TO.C,R5*%
X184600000Y-100500000D03*
X186250000Y-100500000D03*
%TD*%
D18*
%TO.C,J1*%
X168480000Y-122500000D03*
D19*
X168480000Y-121230000D03*
X169750000Y-122500000D03*
X169750000Y-121230000D03*
X171020000Y-122500000D03*
X171020000Y-121230000D03*
%TD*%
D20*
%TO.C,C11*%
X193650000Y-124900000D03*
X195200000Y-124900000D03*
%TD*%
D13*
%TO.C,R2*%
X200000000Y-108000000D03*
X200000000Y-109650000D03*
%TD*%
D21*
%TO.C,Q3*%
X165625000Y-101500000D03*
X165625000Y-103400000D03*
X167500000Y-102450000D03*
%TD*%
D22*
%TO.C,R4*%
X185000000Y-111000000D03*
X183350000Y-111000000D03*
%TD*%
D23*
%TO.C,C15*%
X201200000Y-125450000D03*
X201200000Y-127000000D03*
%TD*%
D24*
%TO.C,J7*%
X215450000Y-120800000D03*
D25*
X215450000Y-122800000D03*
%TD*%
D26*
%TO.C,H1*%
X157000000Y-103500000D03*
%TD*%
D27*
%TO.C,MAX1*%
X170225000Y-101550000D03*
X170225000Y-102500000D03*
X170225000Y-103450000D03*
X172500000Y-103450000D03*
X172500000Y-102500000D03*
X172500000Y-101550000D03*
%TD*%
D28*
%TO.C,BOOT1*%
X205300000Y-100850000D03*
X207000000Y-100850000D03*
X205300000Y-106000000D03*
X207000000Y-106000000D03*
%TD*%
D29*
%TO.C,Q2*%
X172500000Y-113600000D03*
X170600000Y-113600000D03*
X171550000Y-115475000D03*
%TD*%
D13*
%TO.C,R1*%
X197000000Y-108000000D03*
X197000000Y-109650000D03*
%TD*%
D28*
%TO.C,SW_PWR1*%
X179750000Y-100750000D03*
X181450000Y-100750000D03*
X179750000Y-105900000D03*
X181450000Y-105900000D03*
%TD*%
D20*
%TO.C,C10*%
X206450000Y-112500000D03*
X208000000Y-112500000D03*
%TD*%
D30*
%TO.C,D2*%
X186000000Y-104250000D03*
X184125000Y-104250000D03*
%TD*%
D23*
%TO.C,C14*%
X203600000Y-125450000D03*
X203600000Y-127000000D03*
%TD*%
D13*
%TO.C,R8*%
X193175000Y-111175000D03*
X193175000Y-112825000D03*
%TD*%
D23*
%TO.C,C12*%
X207900000Y-125500000D03*
X207900000Y-127050000D03*
%TD*%
D20*
%TO.C,C8*%
X183450000Y-108500000D03*
X185000000Y-108500000D03*
%TD*%
D31*
%TO.C,J2*%
X215500000Y-115500000D03*
D32*
X215500000Y-112960000D03*
%TD*%
D26*
%TO.C,H4*%
X157000000Y-126500000D03*
%TD*%
D17*
%TO.C,R3*%
X168175000Y-105500000D03*
X169825000Y-105500000D03*
%TD*%
D26*
%TO.C,H2*%
X212000000Y-104000000D03*
%TD*%
D33*
%TO.C,C7*%
X176000000Y-107000000D03*
X176000000Y-108900000D03*
%TD*%
D31*
%TO.C,SCRN1*%
X189600000Y-119600000D03*
D32*
X187060000Y-119600000D03*
X184520000Y-119600000D03*
X181980000Y-119600000D03*
%TD*%
D34*
%TO.C,U4*%
X189500000Y-111400000D03*
X189500000Y-110450000D03*
X189500000Y-109500000D03*
X187225000Y-109500000D03*
X187225000Y-111400000D03*
%TD*%
D28*
%TO.C,SW_RST1*%
X188800000Y-100850000D03*
X190500000Y-100850000D03*
X188800000Y-106000000D03*
X190500000Y-106000000D03*
%TD*%
D26*
%TO.C,H3*%
X212000000Y-126000000D03*
%TD*%
D35*
%TO.C,J4*%
X200640000Y-103555000D03*
X194860000Y-103555000D03*
D36*
X201000000Y-105000000D03*
X200200000Y-105000000D03*
D37*
X199000000Y-105000000D03*
X198000000Y-105000000D03*
X197500000Y-105000000D03*
X196500000Y-105000000D03*
D36*
X195300000Y-105000000D03*
X194500000Y-105000000D03*
X194500000Y-105000000D03*
X195300000Y-105000000D03*
D37*
X196000000Y-105000000D03*
X197000000Y-105000000D03*
X198500000Y-105000000D03*
X199500000Y-105000000D03*
D36*
X200200000Y-105000000D03*
X201000000Y-105000000D03*
D38*
X202070000Y-104085000D03*
D39*
X202070000Y-99905000D03*
D38*
X193430000Y-104085000D03*
D39*
X193430000Y-99905000D03*
%TD*%
D40*
%TO.C,C5*%
X208000000Y-109500000D03*
X206450000Y-109500000D03*
%TD*%
D17*
%TO.C,R7*%
X191350000Y-109500000D03*
X193000000Y-109500000D03*
%TD*%
D41*
%TO.C,C6*%
X172500000Y-109400000D03*
X172500000Y-107500000D03*
%TD*%
D13*
%TO.C,R15*%
X160500000Y-126350000D03*
X160500000Y-128000000D03*
%TD*%
%TO.C,R12*%
X169900000Y-126350000D03*
X169900000Y-128000000D03*
%TD*%
D42*
%TO.C,R6*%
X204500000Y-111650000D03*
X204500000Y-110000000D03*
%TD*%
D13*
%TO.C,R13*%
X166800000Y-126350000D03*
X166800000Y-128000000D03*
%TD*%
D21*
%TO.C,D3*%
X175000000Y-102000000D03*
X175000000Y-103900000D03*
X176875000Y-102950000D03*
%TD*%
D17*
%TO.C,R9*%
X171850000Y-111500000D03*
X173500000Y-111500000D03*
%TD*%
D18*
%TO.C,J6*%
X162230000Y-121750000D03*
D19*
X163500000Y-121750000D03*
X164770000Y-121750000D03*
%TD*%
D23*
%TO.C,C13*%
X205950000Y-125500000D03*
X205950000Y-127050000D03*
%TD*%
D24*
%TO.C,J5*%
X214500000Y-108000000D03*
D25*
X212500000Y-108000000D03*
%TD*%
M02*
