%TF.GenerationSoftware,KiCad,Pcbnew,9.0.1*%
%TF.CreationDate,2025-11-02T10:59:12-06:00*%
%TF.ProjectId,OM-FlexGrid-Rigid-PCB,4f4d2d46-6c65-4784-9772-69642d526967,rev?*%
%TF.SameCoordinates,Original*%
%TF.FileFunction,Copper,L1,Top*%
%TF.FilePolarity,Positive*%
%FSLAX46Y46*%
G04 Gerber Fmt 4.6, Leading zero omitted, Abs format (unit mm)*
G04 Created by KiCad (PCBNEW 9.0.1) date 2025-11-02 10:59:12*
%MOMM*%
%LPD*%
G01*
G04 APERTURE LIST*
G04 Aperture macros list*
%AMRoundRect*
0 Rectangle with rounded corners*
0 $1 Rounding radius*
0 $2 $3 $4 $5 $6 $7 $8 $9 X,Y pos of 4 corners*
0 Add a 4 corners polygon primitive as box body*
4,1,4,$2,$3,$4,$5,$6,$7,$8,$9,$2,$3,0*
0 Add four circle primitives for the rounded corners*
1,1,$1+$1,$2,$3*
1,1,$1+$1,$4,$5*
1,1,$1+$1,$6,$7*
1,1,$1+$1,$8,$9*
0 Add four rect primitives between the rounded corners*
20,1,$1+$1,$2,$3,$4,$5,0*
20,1,$1+$1,$4,$5,$6,$7,0*
20,1,$1+$1,$6,$7,$8,$9,0*
20,1,$1+$1,$8,$9,$2,$3,0*%
G04 Aperture macros list end*
%TA.AperFunction,SMDPad,CuDef*%
%ADD10RoundRect,0.200000X-0.275000X0.200000X-0.275000X-0.200000X0.275000X-0.200000X0.275000X0.200000X0*%
%TD*%
%TA.AperFunction,SMDPad,CuDef*%
%ADD11RoundRect,0.250000X-0.300000X-0.300000X0.300000X-0.300000X0.300000X0.300000X-0.300000X0.300000X0*%
%TD*%
%TA.AperFunction,SMDPad,CuDef*%
%ADD12R,1.450000X1.000000*%
%TD*%
%TA.AperFunction,SMDPad,CuDef*%
%ADD13RoundRect,0.150000X-0.150000X0.512500X-0.150000X-0.512500X0.150000X-0.512500X0.150000X0.512500X0*%
%TD*%
%TA.AperFunction,SMDPad,CuDef*%
%ADD14RoundRect,0.200000X-0.200000X-0.275000X0.200000X-0.275000X0.200000X0.275000X-0.200000X0.275000X0*%
%TD*%
%TA.AperFunction,SMDPad,CuDef*%
%ADD15R,0.300000X1.300000*%
%TD*%
%TA.AperFunction,SMDPad,CuDef*%
%ADD16R,1.800000X2.200000*%
%TD*%
%TA.AperFunction,ComponentPad*%
%ADD17R,1.000000X1.000000*%
%TD*%
%TA.AperFunction,ComponentPad*%
%ADD18C,1.000000*%
%TD*%
%TA.AperFunction,SMDPad,CuDef*%
%ADD19RoundRect,0.225000X-0.225000X-0.250000X0.225000X-0.250000X0.225000X0.250000X-0.225000X0.250000X0*%
%TD*%
%TA.AperFunction,SMDPad,CuDef*%
%ADD20RoundRect,0.150000X-0.587500X-0.150000X0.587500X-0.150000X0.587500X0.150000X-0.587500X0.150000X0*%
%TD*%
%TA.AperFunction,SMDPad,CuDef*%
%ADD21RoundRect,0.200000X0.200000X0.275000X-0.200000X0.275000X-0.200000X-0.275000X0.200000X-0.275000X0*%
%TD*%
%TA.AperFunction,SMDPad,CuDef*%
%ADD22RoundRect,0.225000X-0.250000X0.225000X-0.250000X-0.225000X0.250000X-0.225000X0.250000X0.225000X0*%
%TD*%
%TA.AperFunction,ComponentPad*%
%ADD23R,1.350000X1.350000*%
%TD*%
%TA.AperFunction,ComponentPad*%
%ADD24C,1.350000*%
%TD*%
%TA.AperFunction,SMDPad,CuDef*%
%ADD25RoundRect,0.150000X-0.512500X-0.150000X0.512500X-0.150000X0.512500X0.150000X-0.512500X0.150000X0*%
%TD*%
%TA.AperFunction,SMDPad,CuDef*%
%ADD26R,1.000000X1.450000*%
%TD*%
%TA.AperFunction,SMDPad,CuDef*%
%ADD27RoundRect,0.150000X-0.150000X0.587500X-0.150000X-0.587500X0.150000X-0.587500X0.150000X0.587500X0*%
%TD*%
%TA.AperFunction,SMDPad,CuDef*%
%ADD28RoundRect,0.243750X0.243750X0.456250X-0.243750X0.456250X-0.243750X-0.456250X0.243750X-0.456250X0*%
%TD*%
%TA.AperFunction,ComponentPad*%
%ADD29R,1.700000X1.700000*%
%TD*%
%TA.AperFunction,ComponentPad*%
%ADD30C,1.700000*%
%TD*%
%TA.AperFunction,SMDPad,CuDef*%
%ADD31RoundRect,0.250000X-0.475000X0.250000X-0.475000X-0.250000X0.475000X-0.250000X0.475000X0.250000X0*%
%TD*%
%TA.AperFunction,SMDPad,CuDef*%
%ADD32RoundRect,0.150000X0.512500X0.150000X-0.512500X0.150000X-0.512500X-0.150000X0.512500X-0.150000X0*%
%TD*%
%TA.AperFunction,SMDPad,CuDef*%
%ADD33R,0.600000X0.300000*%
%TD*%
%TA.AperFunction,SMDPad,CuDef*%
%ADD34R,0.300000X0.600000*%
%TD*%
%TA.AperFunction,SMDPad,CuDef*%
%ADD35R,0.600000X1.450000*%
%TD*%
%TA.AperFunction,SMDPad,CuDef*%
%ADD36R,0.300000X1.450000*%
%TD*%
%TA.AperFunction,HeatsinkPad*%
%ADD37O,1.000000X2.100000*%
%TD*%
%TA.AperFunction,HeatsinkPad*%
%ADD38O,1.000000X1.600000*%
%TD*%
%TA.AperFunction,SMDPad,CuDef*%
%ADD39RoundRect,0.225000X0.225000X0.250000X-0.225000X0.250000X-0.225000X-0.250000X0.225000X-0.250000X0*%
%TD*%
%TA.AperFunction,SMDPad,CuDef*%
%ADD40RoundRect,0.250000X0.475000X-0.250000X0.475000X0.250000X-0.475000X0.250000X-0.475000X-0.250000X0*%
%TD*%
%TA.AperFunction,SMDPad,CuDef*%
%ADD41RoundRect,0.200000X0.275000X-0.200000X0.275000X0.200000X-0.275000X0.200000X-0.275000X-0.200000X0*%
%TD*%
%TA.AperFunction,ViaPad*%
%ADD42C,0.600000*%
%TD*%
%TA.AperFunction,Conductor*%
%ADD43C,0.200000*%
%TD*%
%TA.AperFunction,Conductor*%
%ADD44C,0.350000*%
%TD*%
%TA.AperFunction,Conductor*%
%ADD45C,0.500000*%
%TD*%
G04 APERTURE END LIST*
D10*
%TO.P,R14,1*%
%TO.N,GND*%
X163700000Y-126350000D03*
%TO.P,R14,2*%
%TO.N,ROW_2*%
X163700000Y-128000000D03*
%TD*%
D11*
%TO.P,D1,1,K*%
%TO.N,VIN*%
X165700000Y-114500000D03*
%TO.P,D1,2,A*%
%TO.N,VBUS*%
X168500000Y-114500000D03*
%TD*%
D12*
%TO.P,SELECT1,1,1*%
%TO.N,SELECT*%
X154300000Y-116250000D03*
%TO.P,SELECT1,2,2*%
%TO.N,GND*%
X154300000Y-114550000D03*
%TO.P,SELECT1,3*%
%TO.N,N/C*%
X159450000Y-116250000D03*
%TO.P,SELECT1,4*%
X159450000Y-114550000D03*
%TD*%
D13*
%TO.P,U3,1,IN*%
%TO.N,VIN*%
X168450000Y-107500000D03*
%TO.P,U3,2,GND*%
%TO.N,GND*%
X167500000Y-107500000D03*
%TO.P,U3,3,EN*%
%TO.N,Net-(U3-EN)*%
X166550000Y-107500000D03*
%TO.P,U3,4,NC*%
%TO.N,unconnected-(U3-NC-Pad4)*%
X166550000Y-109775000D03*
%TO.P,U3,5,OUT*%
%TO.N,+3V3*%
X168450000Y-109775000D03*
%TD*%
D12*
%TO.P,MENU1,1,1*%
%TO.N,MENU*%
X154300000Y-110100000D03*
%TO.P,MENU1,2,2*%
%TO.N,GND*%
X154300000Y-108400000D03*
%TO.P,MENU1,3*%
%TO.N,N/C*%
X159450000Y-110100000D03*
%TO.P,MENU1,4*%
X159450000Y-108400000D03*
%TD*%
D14*
%TO.P,R5,1*%
%TO.N,VBUS*%
X184600000Y-100500000D03*
%TO.P,R5,2*%
%TO.N,Net-(D2-A)*%
X186250000Y-100500000D03*
%TD*%
D15*
%TO.P,J3,1,Pin_1*%
%TO.N,COL_0*%
X180000000Y-122850000D03*
%TO.P,J3,2,Pin_2*%
%TO.N,COL_1*%
X180500000Y-122850000D03*
%TO.P,J3,3,Pin_3*%
%TO.N,COL_2*%
X181000000Y-122850000D03*
%TO.P,J3,4,Pin_4*%
%TO.N,COL_3*%
X181500000Y-122850000D03*
%TO.P,J3,5,Pin_5*%
%TO.N,COL_4*%
X182000000Y-122850000D03*
%TO.P,J3,6,Pin_6*%
%TO.N,COL_5*%
X182500000Y-122850000D03*
%TO.P,J3,7,Pin_7*%
%TO.N,COL_6*%
X183000000Y-122850000D03*
%TO.P,J3,8,Pin_8*%
%TO.N,COL_7*%
X183500000Y-122850000D03*
%TO.P,J3,9,Pin_9*%
%TO.N,COL_8*%
X184000000Y-122850000D03*
%TO.P,J3,10,Pin_10*%
%TO.N,COL_9*%
X184500000Y-122850000D03*
%TO.P,J3,11,Pin_11*%
%TO.N,COL_10*%
X185000000Y-122850000D03*
%TO.P,J3,12,Pin_12*%
%TO.N,COL_11*%
X185500000Y-122850000D03*
%TO.P,J3,13,Pin_13*%
%TO.N,COL_12*%
X186000000Y-122850000D03*
%TO.P,J3,14,Pin_14*%
%TO.N,COL_13*%
X186500000Y-122850000D03*
%TO.P,J3,15,Pin_15*%
%TO.N,COL_14*%
X187000000Y-122850000D03*
%TO.P,J3,16,Pin_16*%
%TO.N,ROW_0*%
X187500000Y-122850000D03*
%TO.P,J3,17,Pin_17*%
%TO.N,ROW_1*%
X188000000Y-122850000D03*
%TO.P,J3,18,Pin_18*%
%TO.N,ROW_2*%
X188500000Y-122850000D03*
%TO.P,J3,19,Pin_19*%
%TO.N,ROW_3*%
X189000000Y-122850000D03*
D16*
%TO.P,J3,MP*%
%TO.N,N/C*%
X178100000Y-126100000D03*
X190900000Y-126100000D03*
%TD*%
D17*
%TO.P,J1,1,Pin_1*%
%TO.N,GP41*%
X168480000Y-122500000D03*
D18*
%TO.P,J1,2,Pin_2*%
%TO.N,SPI_MOSI*%
X168480000Y-121230000D03*
%TO.P,J1,3,Pin_3*%
%TO.N,SPI_SCK*%
X169750000Y-122500000D03*
%TO.P,J1,4,Pin_4*%
%TO.N,SPI_MISO*%
X169750000Y-121230000D03*
%TO.P,J1,5,Pin_5*%
%TO.N,CS*%
X171020000Y-122500000D03*
%TO.P,J1,6,Pin_6*%
%TO.N,GP40*%
X171020000Y-121230000D03*
%TD*%
D19*
%TO.P,C11,1*%
%TO.N,+3V3*%
X193650000Y-124900000D03*
%TO.P,C11,2*%
%TO.N,GND*%
X195200000Y-124900000D03*
%TD*%
D10*
%TO.P,R2,1*%
%TO.N,Net-(J4-CC1)*%
X200000000Y-108000000D03*
%TO.P,R2,2*%
%TO.N,GND*%
X200000000Y-109650000D03*
%TD*%
D20*
%TO.P,Q3,1,G*%
%TO.N,PWR_OFF*%
X165625000Y-101500000D03*
%TO.P,Q3,2,S*%
%TO.N,GND*%
X165625000Y-103400000D03*
%TO.P,Q3,3,D*%
%TO.N,Net-(MAX1-In)*%
X167500000Y-102450000D03*
%TD*%
D21*
%TO.P,R4,1*%
%TO.N,Net-(U4-PROG)*%
X185000000Y-111000000D03*
%TO.P,R4,2*%
%TO.N,GND*%
X183350000Y-111000000D03*
%TD*%
D22*
%TO.P,C15,1*%
%TO.N,GND*%
X201200000Y-125450000D03*
%TO.P,C15,2*%
%TO.N,ROW_3*%
X201200000Y-127000000D03*
%TD*%
D23*
%TO.P,J7,1,Pin_1*%
%TO.N,GND*%
X215450000Y-120800000D03*
D24*
%TO.P,J7,2,Pin_2*%
%TO.N,+3V3*%
X215450000Y-122800000D03*
%TD*%
D25*
%TO.P,MAX1,1,In*%
%TO.N,Net-(MAX1-In)*%
X170225000Y-101550000D03*
%TO.P,MAX1,2,GND*%
%TO.N,GND*%
X170225000Y-102500000D03*
%TO.P,MAX1,3,CLEAR*%
%TO.N,Net-(MAX1-CLEAR)*%
X170225000Y-103450000D03*
%TO.P,MAX1,4,OU*%
%TO.N,unconnected-(MAX1-OU-Pad4)*%
X172500000Y-103450000D03*
%TO.P,MAX1,5,OUT*%
%TO.N,LDO_EN*%
X172500000Y-102500000D03*
%TO.P,MAX1,6,Vcc*%
%TO.N,VBAT*%
X172500000Y-101550000D03*
%TD*%
D26*
%TO.P,BOOT1,1,1*%
%TO.N,GND*%
X205300000Y-100850000D03*
%TO.P,BOOT1,2,2*%
%TO.N,EN*%
X207000000Y-100850000D03*
%TO.P,BOOT1,3*%
%TO.N,N/C*%
X205300000Y-106000000D03*
%TO.P,BOOT1,4*%
X207000000Y-106000000D03*
%TD*%
D27*
%TO.P,Q2,1,G*%
%TO.N,VBUS*%
X172500000Y-113600000D03*
%TO.P,Q2,2,S*%
%TO.N,VIN*%
X170600000Y-113600000D03*
%TO.P,Q2,3,D*%
%TO.N,VBAT*%
X171550000Y-115475000D03*
%TD*%
D10*
%TO.P,R1,1*%
%TO.N,Net-(J4-CC2)*%
X197000000Y-108000000D03*
%TO.P,R1,2*%
%TO.N,GND*%
X197000000Y-109650000D03*
%TD*%
D26*
%TO.P,SW_PWR1,1,1*%
%TO.N,GND*%
X179750000Y-100750000D03*
%TO.P,SW_PWR1,2,2*%
%TO.N,Net-(MAX1-In)*%
X181450000Y-100750000D03*
%TO.P,SW_PWR1,3*%
%TO.N,N/C*%
X179750000Y-105900000D03*
%TO.P,SW_PWR1,4*%
X181450000Y-105900000D03*
%TD*%
D19*
%TO.P,C10,1*%
%TO.N,+3V3*%
X206450000Y-112500000D03*
%TO.P,C10,2*%
%TO.N,GND*%
X208000000Y-112500000D03*
%TD*%
D28*
%TO.P,D2,1,K*%
%TO.N,Net-(D2-K)*%
X186000000Y-104250000D03*
%TO.P,D2,2,A*%
%TO.N,Net-(D2-A)*%
X184125000Y-104250000D03*
%TD*%
D22*
%TO.P,C14,1*%
%TO.N,GND*%
X203600000Y-125450000D03*
%TO.P,C14,2*%
%TO.N,ROW_2*%
X203600000Y-127000000D03*
%TD*%
D10*
%TO.P,R8,1*%
%TO.N,ADC_BAT*%
X193175000Y-111175000D03*
%TO.P,R8,2*%
%TO.N,GND*%
X193175000Y-112825000D03*
%TD*%
D22*
%TO.P,C12,1*%
%TO.N,GND*%
X207900000Y-125500000D03*
%TO.P,C12,2*%
%TO.N,ROW_0*%
X207900000Y-127050000D03*
%TD*%
D19*
%TO.P,C8,1*%
%TO.N,GND*%
X183450000Y-108500000D03*
%TO.P,C8,2*%
%TO.N,VBUS*%
X185000000Y-108500000D03*
%TD*%
D29*
%TO.P,J2,1,Pin_1*%
%TO.N,GND*%
X215500000Y-115500000D03*
D30*
%TO.P,J2,2,Pin_2*%
%TO.N,VBAT*%
X215500000Y-112960000D03*
%TD*%
D14*
%TO.P,R3,1*%
%TO.N,Net-(MAX1-CLEAR)*%
X168175000Y-105500000D03*
%TO.P,R3,2*%
%TO.N,GND*%
X169825000Y-105500000D03*
%TD*%
D31*
%TO.P,C7,1*%
%TO.N,+3V3*%
X176000000Y-107000000D03*
%TO.P,C7,2*%
%TO.N,GND*%
X176000000Y-108900000D03*
%TD*%
D29*
%TO.P,SCRN1,1,Pin_1*%
%TO.N,GND*%
X189600000Y-119600000D03*
D30*
%TO.P,SCRN1,2,Pin_2*%
%TO.N,+3V3*%
X187060000Y-119600000D03*
%TO.P,SCRN1,3,Pin_3*%
%TO.N,SCL*%
X184520000Y-119600000D03*
%TO.P,SCRN1,4,Pin_4*%
%TO.N,SDA*%
X181980000Y-119600000D03*
%TD*%
D32*
%TO.P,U4,1,~{CHRG}*%
%TO.N,Net-(D2-K)*%
X189500000Y-111400000D03*
%TO.P,U4,2,GND*%
%TO.N,GND*%
X189500000Y-110450000D03*
%TO.P,U4,3,BAT*%
%TO.N,VBAT*%
X189500000Y-109500000D03*
%TO.P,U4,4,V_{CC}*%
%TO.N,VBUS*%
X187225000Y-109500000D03*
%TO.P,U4,5,PROG*%
%TO.N,Net-(U4-PROG)*%
X187225000Y-111400000D03*
%TD*%
D26*
%TO.P,SW_RST1,1,1*%
%TO.N,GND*%
X188800000Y-100850000D03*
%TO.P,SW_RST1,2,2*%
%TO.N,100*%
X190500000Y-100850000D03*
%TO.P,SW_RST1,3*%
%TO.N,N/C*%
X188800000Y-106000000D03*
%TO.P,SW_RST1,4*%
X190500000Y-106000000D03*
%TD*%
D33*
%TO.P,IC1,1,SDO/AD0*%
%TO.N,unconnected-(IC1-SDO{slash}AD0-Pad1)*%
X176950000Y-114950000D03*
%TO.P,IC1,2,RESV1*%
%TO.N,unconnected-(IC1-RESV1-Pad2)*%
X176950000Y-115450000D03*
%TO.P,IC1,3,RESV2*%
%TO.N,unconnected-(IC1-RESV2-Pad3)*%
X176950000Y-115950000D03*
%TO.P,IC1,4,INT1/INT*%
%TO.N,unconnected-(IC1-INT1{slash}INT-Pad4)*%
X176950000Y-116450000D03*
D34*
%TO.P,IC1,5,VDDIO*%
%TO.N,+3V3*%
X177600000Y-116600000D03*
%TO.P,IC1,6,GND*%
%TO.N,GND*%
X178100000Y-116600000D03*
%TO.P,IC1,7,RESV_3*%
X178600000Y-116600000D03*
D33*
%TO.P,IC1,8,VDD*%
%TO.N,+3V3*%
X179250000Y-116450000D03*
%TO.P,IC1,9,INT2/FSYNC/CLKIN*%
%TO.N,unconnected-(IC1-INT2{slash}FSYNC{slash}CLKIN-Pad9)*%
X179250000Y-115950000D03*
%TO.P,IC1,10,RESV_4*%
%TO.N,unconnected-(IC1-RESV_4-Pad10)*%
X179250000Y-115450000D03*
%TO.P,IC1,11,RESV_5*%
%TO.N,GND*%
X179250000Y-114950000D03*
D34*
%TO.P,IC1,12,AP_CS*%
%TO.N,unconnected-(IC1-AP_CS-Pad12)*%
X178600000Y-114800000D03*
%TO.P,IC1,13,SCL/SCLK*%
%TO.N,SCL*%
X178100000Y-114800000D03*
%TO.P,IC1,14,SDA/SDIO/ASDI*%
%TO.N,SDA*%
X177600000Y-114800000D03*
%TD*%
D35*
%TO.P,J4,A1,GND*%
%TO.N,GND*%
X201000000Y-105000000D03*
%TO.P,J4,A4,VBUS*%
%TO.N,VBUS*%
X200200000Y-105000000D03*
D36*
%TO.P,J4,A5,CC1*%
%TO.N,Net-(J4-CC1)*%
X199000000Y-105000000D03*
%TO.P,J4,A6,D+*%
%TO.N,D+*%
X198000000Y-105000000D03*
%TO.P,J4,A7,D-*%
%TO.N,D-*%
X197500000Y-105000000D03*
%TO.P,J4,A8,SBU1*%
%TO.N,unconnected-(J4-SBU1-PadA8)*%
X196500000Y-105000000D03*
D35*
%TO.P,J4,A9,VBUS*%
%TO.N,VBUS*%
X195300000Y-105000000D03*
%TO.P,J4,A12,GND*%
%TO.N,GND*%
X194500000Y-105000000D03*
%TO.P,J4,B1,GND*%
X194500000Y-105000000D03*
%TO.P,J4,B4,VBUS*%
%TO.N,VBUS*%
X195300000Y-105000000D03*
D36*
%TO.P,J4,B5,CC2*%
%TO.N,Net-(J4-CC2)*%
X196000000Y-105000000D03*
%TO.P,J4,B6,D+*%
%TO.N,D+*%
X197000000Y-105000000D03*
%TO.P,J4,B7,D-*%
%TO.N,D-*%
X198500000Y-105000000D03*
%TO.P,J4,B8,SBU2*%
%TO.N,unconnected-(J4-SBU2-PadB8)*%
X199500000Y-105000000D03*
D35*
%TO.P,J4,B9,VBUS*%
%TO.N,VBUS*%
X200200000Y-105000000D03*
%TO.P,J4,B12,GND*%
%TO.N,GND*%
X201000000Y-105000000D03*
D37*
%TO.P,J4,S1,SHIELD*%
X202070000Y-104085000D03*
D38*
X202070000Y-99905000D03*
D37*
X193430000Y-104085000D03*
D38*
X193430000Y-99905000D03*
%TD*%
D39*
%TO.P,C5,1*%
%TO.N,GND*%
X208000000Y-109500000D03*
%TO.P,C5,2*%
%TO.N,EN*%
X206450000Y-109500000D03*
%TD*%
D14*
%TO.P,R7,1*%
%TO.N,VBAT*%
X191350000Y-109500000D03*
%TO.P,R7,2*%
%TO.N,ADC_BAT*%
X193000000Y-109500000D03*
%TD*%
D40*
%TO.P,C6,1*%
%TO.N,VIN*%
X172500000Y-109400000D03*
%TO.P,C6,2*%
%TO.N,GND*%
X172500000Y-107500000D03*
%TD*%
D10*
%TO.P,R15,1*%
%TO.N,GND*%
X160500000Y-126350000D03*
%TO.P,R15,2*%
%TO.N,ROW_3*%
X160500000Y-128000000D03*
%TD*%
%TO.P,R12,1*%
%TO.N,GND*%
X169900000Y-126350000D03*
%TO.P,R12,2*%
%TO.N,ROW_0*%
X169900000Y-128000000D03*
%TD*%
D41*
%TO.P,R6,1*%
%TO.N,+3V3*%
X204500000Y-111650000D03*
%TO.P,R6,2*%
%TO.N,EN*%
X204500000Y-110000000D03*
%TD*%
D10*
%TO.P,R13,1*%
%TO.N,GND*%
X166800000Y-126350000D03*
%TO.P,R13,2*%
%TO.N,ROW_1*%
X166800000Y-128000000D03*
%TD*%
D20*
%TO.P,D3,1*%
%TO.N,LDO_EN*%
X175000000Y-102000000D03*
%TO.P,D3,2*%
%TO.N,VBUS*%
X175000000Y-103900000D03*
%TO.P,D3,3*%
%TO.N,Net-(U3-EN)*%
X176875000Y-102950000D03*
%TD*%
D14*
%TO.P,R9,1*%
%TO.N,VBUS*%
X171850000Y-111500000D03*
%TO.P,R9,2*%
%TO.N,GND*%
X173500000Y-111500000D03*
%TD*%
D17*
%TO.P,J6,1,Pin_1*%
%TO.N,GND*%
X162230000Y-121750000D03*
D18*
%TO.P,J6,2,Pin_2*%
%TO.N,RX*%
X163500000Y-121750000D03*
%TO.P,J6,3,Pin_3*%
%TO.N,TX*%
X164770000Y-121750000D03*
%TD*%
D22*
%TO.P,C13,1*%
%TO.N,GND*%
X205950000Y-125500000D03*
%TO.P,C13,2*%
%TO.N,ROW_1*%
X205950000Y-127050000D03*
%TD*%
D23*
%TO.P,J5,1,Pin_1*%
%TO.N,VBAT*%
X214500000Y-108000000D03*
D24*
%TO.P,J5,2,Pin_2*%
%TO.N,MotorGND*%
X212500000Y-108000000D03*
%TD*%
D42*
%TO.N,GND*%
X198500000Y-109650000D03*
X209350000Y-117000000D03*
X161000000Y-101000000D03*
X183000000Y-111500000D03*
X154300000Y-114550000D03*
X169900000Y-125500000D03*
X207375000Y-124625000D03*
X204750000Y-125450000D03*
X174950000Y-109950000D03*
X154300000Y-108400000D03*
X182500000Y-106500000D03*
X180850000Y-117499000D03*
X170500000Y-106000000D03*
X193575000Y-122325000D03*
X163700000Y-125500000D03*
X166800000Y-125500000D03*
X200299435Y-125449435D03*
X170040000Y-109960000D03*
X194000000Y-112000000D03*
X167112500Y-104887500D03*
X178750000Y-100000000D03*
X160500000Y-125500000D03*
X177850000Y-112750000D03*
X208000000Y-111000000D03*
%TO.N,EN*%
X208000000Y-101500000D03*
%TO.N,+3V3*%
X205175000Y-112325000D03*
X201324464Y-123774464D03*
X180750000Y-102250000D03*
X201850000Y-117050000D03*
X174500000Y-106000000D03*
%TO.N,VBUS*%
X168500000Y-116500000D03*
X186500000Y-108000000D03*
X175000000Y-111500000D03*
X200500000Y-106500000D03*
X195000000Y-106500000D03*
%TO.N,Net-(D2-K)*%
X190000000Y-112500000D03*
X185500000Y-106000000D03*
%TO.N,GP40*%
X157250000Y-121500000D03*
%TO.N,SCL*%
X175250000Y-120000000D03*
%TO.N,GP41*%
X155750000Y-122500000D03*
%TO.N,ROW_3*%
X160875000Y-128875000D03*
X166750000Y-116500000D03*
X158500000Y-123500000D03*
%TO.N,COL_11*%
X185339243Y-126350000D03*
%TO.N,COL_9*%
X184250000Y-126950000D03*
%TO.N,COL_0*%
X179250000Y-122250000D03*
%TO.N,COL_2*%
X180080832Y-125456592D03*
%TO.N,COL_4*%
X181000000Y-125700000D03*
%TO.N,COL_1*%
X179000000Y-124100000D03*
%TO.N,COL_13*%
X186820091Y-127403969D03*
%TO.N,ROW_1*%
X164450057Y-127100000D03*
%TO.N,COL_6*%
X181275000Y-127375000D03*
X199610700Y-123750329D03*
%TO.N,COL_10*%
X184750000Y-127700000D03*
%TO.N,COL_5*%
X181250000Y-126500000D03*
%TO.N,COL_8*%
X182850000Y-127700000D03*
%TO.N,ROW_2*%
X164350000Y-128650000D03*
%TO.N,ROW_0*%
X170700000Y-127200000D03*
%TO.N,COL_12*%
X186031654Y-127539509D03*
%TO.N,COL_7*%
X182925000Y-126675000D03*
X199400000Y-126300000D03*
%TO.N,COL_3*%
X180700000Y-124950000D03*
%TO.N,COL_14*%
X187800000Y-127602000D03*
%TO.N,D-*%
X196500000Y-103500000D03*
%TO.N,D+*%
X197500000Y-103250000D03*
%TO.N,SPI_SCK*%
X172750000Y-121250000D03*
%TO.N,ADC_BAT*%
X188250000Y-113500000D03*
%TO.N,Net-(MAX1-In)*%
X172000000Y-100000000D03*
X169000000Y-101550000D03*
%TO.N,VBAT*%
X191250000Y-110500000D03*
%TO.N,PWR_OFF*%
X165750000Y-100750000D03*
%TO.N,S3*%
X194250000Y-115500000D03*
X178250000Y-110750000D03*
%TO.N,GP16_E*%
X179500000Y-111000000D03*
X195550000Y-115500000D03*
%TO.N,S0*%
X193750000Y-121100000D03*
X183000000Y-113000000D03*
%TO.N,S2*%
X181000000Y-111000000D03*
X194900000Y-117750000D03*
%TO.N,S1*%
X194625000Y-121125000D03*
X181750000Y-111750000D03*
%TO.N,MENU*%
X160500000Y-118750000D03*
%TO.N,100*%
X191500000Y-101000000D03*
%TO.N,SELECT*%
X173750000Y-120000000D03*
%TD*%
D43*
%TO.N,GND*%
X204750000Y-125450000D02*
X205900000Y-125450000D01*
X174400000Y-108900000D02*
X176000000Y-108900000D01*
X188500000Y-110787501D02*
X188500000Y-111429468D01*
X188500000Y-111429468D02*
X187928468Y-112001000D01*
X184351000Y-112001000D02*
X183350000Y-111000000D01*
X183350000Y-111000000D02*
X183000000Y-111350000D01*
X180501000Y-117150000D02*
X178898000Y-117150000D01*
X188837501Y-110450000D02*
X188500000Y-110787501D01*
X173500000Y-111500000D02*
X173500000Y-111400000D01*
D44*
X166800000Y-126350000D02*
X166800000Y-125500000D01*
D43*
X207900000Y-125150000D02*
X207375000Y-124625000D01*
X170225000Y-102500000D02*
X168829468Y-102500000D01*
D44*
X160500000Y-126350000D02*
X160500000Y-125500000D01*
D43*
X168829468Y-102500000D02*
X167929468Y-103400000D01*
X183450000Y-107450000D02*
X182500000Y-106500000D01*
X167929468Y-103400000D02*
X165625000Y-103400000D01*
X194000000Y-112000000D02*
X194000000Y-112650000D01*
X200299435Y-125449435D02*
X200300000Y-125450000D01*
X183000000Y-111350000D02*
X183000000Y-111500000D01*
X167250000Y-107250000D02*
X167250000Y-105025000D01*
X201000000Y-105000000D02*
X201155000Y-105000000D01*
D44*
X163700000Y-126350000D02*
X163700000Y-125500000D01*
D43*
X188800000Y-100850000D02*
X190150000Y-99500000D01*
X194000000Y-112650000D02*
X193825000Y-112825000D01*
X193025000Y-99500000D02*
X193430000Y-99905000D01*
X167500000Y-107500000D02*
X167250000Y-107250000D01*
X208000000Y-109500000D02*
X208000000Y-111000000D01*
X195200000Y-124900000D02*
X199750000Y-124900000D01*
X167112500Y-104887500D02*
X165625000Y-103400000D01*
X208000000Y-111000000D02*
X208000000Y-112500000D01*
X194500000Y-105000000D02*
X194345000Y-105000000D01*
X178600000Y-116852000D02*
X178600000Y-116600000D01*
X194345000Y-105000000D02*
X193430000Y-104085000D01*
X198500000Y-109650000D02*
X197000000Y-109650000D01*
X201155000Y-105000000D02*
X202070000Y-104085000D01*
X178898000Y-117150000D02*
X178600000Y-116852000D01*
X199750000Y-124900000D02*
X200299435Y-125449435D01*
X193825000Y-112825000D02*
X193175000Y-112825000D01*
X200300000Y-125450000D02*
X201200000Y-125450000D01*
X178750000Y-100000000D02*
X179250000Y-100000000D01*
X179250000Y-114150000D02*
X177850000Y-112750000D01*
X178600000Y-116600000D02*
X178100000Y-116600000D01*
D44*
X169900000Y-126350000D02*
X169900000Y-125500000D01*
D43*
X189500000Y-110450000D02*
X188837501Y-110450000D01*
X179250000Y-114950000D02*
X179250000Y-114150000D01*
X169825000Y-105500000D02*
X170000000Y-105500000D01*
X180850000Y-117499000D02*
X180501000Y-117150000D01*
X190150000Y-99500000D02*
X193025000Y-99500000D01*
X173500000Y-111400000D02*
X174950000Y-109950000D01*
X173000000Y-107500000D02*
X174400000Y-108900000D01*
X200000000Y-109650000D02*
X198500000Y-109650000D01*
X207900000Y-125500000D02*
X207900000Y-125150000D01*
X203015000Y-100850000D02*
X202070000Y-99905000D01*
X179250000Y-100000000D02*
X179750000Y-100500000D01*
X174950000Y-109950000D02*
X176000000Y-108900000D01*
X205300000Y-100850000D02*
X203015000Y-100850000D01*
X167250000Y-105025000D02*
X167112500Y-104887500D01*
X203600000Y-125450000D02*
X204750000Y-125450000D01*
X187928468Y-112001000D02*
X184351000Y-112001000D01*
X170000000Y-105500000D02*
X170500000Y-106000000D01*
X183450000Y-108500000D02*
X183450000Y-107450000D01*
X205900000Y-125450000D02*
X205950000Y-125500000D01*
X172500000Y-107500000D02*
X173000000Y-107500000D01*
%TO.N,EN*%
X206450000Y-109500000D02*
X205000000Y-109500000D01*
X205000000Y-109500000D02*
X204500000Y-110000000D01*
X207000000Y-100850000D02*
X206199000Y-101651000D01*
X206199000Y-101651000D02*
X206199000Y-109249000D01*
X207000000Y-100850000D02*
X207350000Y-100850000D01*
X206199000Y-109249000D02*
X206450000Y-109500000D01*
X207350000Y-100850000D02*
X208000000Y-101500000D01*
%TO.N,VIN*%
X171161500Y-110738500D02*
X170600000Y-111300000D01*
X168109032Y-110738500D02*
X168109032Y-110890968D01*
X171161500Y-110738500D02*
X172500000Y-109400000D01*
X168109032Y-110890968D02*
X165700000Y-113300000D01*
X168450000Y-108470532D02*
X167849000Y-109071532D01*
X168109032Y-110738500D02*
X171161500Y-110738500D01*
X168450000Y-107500000D02*
X168450000Y-108470532D01*
X170600000Y-111300000D02*
X170600000Y-113600000D01*
X167849000Y-109071532D02*
X167849000Y-110478468D01*
X165700000Y-113300000D02*
X165700000Y-114500000D01*
X167849000Y-110478468D02*
X168109032Y-110738500D01*
%TO.N,+3V3*%
X187060000Y-119600000D02*
X183910000Y-116450000D01*
X176000000Y-107000000D02*
X175000000Y-106000000D01*
X183910000Y-116450000D02*
X180550000Y-116450000D01*
X180550000Y-116450000D02*
X179250000Y-116450000D01*
X193974890Y-124900000D02*
X195725561Y-123149329D01*
D44*
X205175000Y-112325000D02*
X204500000Y-111650000D01*
D43*
X182211000Y-118149000D02*
X183910000Y-116450000D01*
X195725561Y-123149329D02*
X200699329Y-123149329D01*
X174500000Y-106000000D02*
X172225000Y-106000000D01*
X172225000Y-106000000D02*
X168450000Y-109775000D01*
X178597000Y-118149000D02*
X182211000Y-118149000D01*
X193650000Y-124900000D02*
X193974890Y-124900000D01*
X177600000Y-116600000D02*
X177600000Y-117152000D01*
D44*
X205350000Y-112500000D02*
X205175000Y-112325000D01*
D43*
X200699329Y-123149329D02*
X201324464Y-123774464D01*
D44*
X206450000Y-112500000D02*
X205350000Y-112500000D01*
D43*
X175000000Y-106000000D02*
X174500000Y-106000000D01*
X177600000Y-117152000D02*
X178597000Y-118149000D01*
%TO.N,VBUS*%
X187500000Y-107000000D02*
X186500000Y-108000000D01*
X171850000Y-111500000D02*
X171850000Y-112950000D01*
D44*
X186500000Y-108000000D02*
X185500000Y-108000000D01*
D43*
X184600000Y-100500000D02*
X184600000Y-101250000D01*
X172811160Y-113600000D02*
X172500000Y-113600000D01*
X177026000Y-109385160D02*
X172811160Y-113600000D01*
D44*
X186500000Y-108775000D02*
X187225000Y-109500000D01*
X195300000Y-105000000D02*
X195300000Y-106200000D01*
D43*
X187500000Y-104150000D02*
X187500000Y-107000000D01*
X184600000Y-101250000D02*
X187500000Y-104150000D01*
D44*
X195300000Y-106200000D02*
X195000000Y-106500000D01*
X200200000Y-105000000D02*
X200200000Y-106200000D01*
D43*
X177026000Y-105926000D02*
X177026000Y-109385160D01*
D44*
X200200000Y-106200000D02*
X200500000Y-106500000D01*
X168500000Y-116500000D02*
X168500000Y-114500000D01*
D43*
X175000000Y-103900000D02*
X177026000Y-105926000D01*
X171850000Y-112950000D02*
X172500000Y-113600000D01*
D44*
X186500000Y-108000000D02*
X186500000Y-108775000D01*
X185500000Y-108000000D02*
X185000000Y-108500000D01*
D43*
%TO.N,Net-(D2-K)*%
X185500000Y-106000000D02*
X185500000Y-104000000D01*
X189500000Y-111400000D02*
X190000000Y-111900000D01*
X190000000Y-111900000D02*
X190000000Y-112500000D01*
%TO.N,Net-(D2-A)*%
X183149000Y-103524000D02*
X183625000Y-104000000D01*
X186250000Y-100500000D02*
X185474000Y-99724000D01*
X183436936Y-99724000D02*
X183149000Y-100011936D01*
X183149000Y-100011936D02*
X183149000Y-103524000D01*
X185474000Y-99724000D02*
X183436936Y-99724000D01*
%TO.N,Net-(U3-EN)*%
X166461500Y-102109032D02*
X167621532Y-100949000D01*
X167621532Y-100949000D02*
X170928468Y-100949000D01*
X171536500Y-101557032D02*
X171536500Y-103790968D01*
X170928468Y-100949000D02*
X171536500Y-101557032D01*
X164586500Y-103059032D02*
X165536500Y-102109032D01*
X165536500Y-102109032D02*
X166461500Y-102109032D01*
X166550000Y-105704468D02*
X164586500Y-103740968D01*
X173469532Y-104051000D02*
X174570532Y-102950000D01*
X174570532Y-102950000D02*
X176875000Y-102950000D01*
X171796532Y-104051000D02*
X173469532Y-104051000D01*
X164586500Y-103740968D02*
X164586500Y-103059032D01*
X171536500Y-103790968D02*
X171796532Y-104051000D01*
X166550000Y-107500000D02*
X166550000Y-105704468D01*
%TO.N,LDO_EN*%
X175000000Y-102000000D02*
X174500000Y-102500000D01*
X174500000Y-102500000D02*
X172500000Y-102500000D01*
%TO.N,GP40*%
X171020000Y-121230000D02*
X170219000Y-120429000D01*
X158321000Y-120429000D02*
X157250000Y-121500000D01*
X170219000Y-120429000D02*
X158321000Y-120429000D01*
%TO.N,SCL*%
X176182900Y-114098000D02*
X175400000Y-114880900D01*
X184520000Y-119600000D02*
X183369000Y-120751000D01*
X178100000Y-114248000D02*
X177950000Y-114098000D01*
X177950000Y-114098000D02*
X176182900Y-114098000D01*
X176001000Y-120751000D02*
X175250000Y-120000000D01*
X175400000Y-114880900D02*
X175400000Y-119850000D01*
X183369000Y-120751000D02*
X176001000Y-120751000D01*
X178100000Y-114800000D02*
X178100000Y-114248000D01*
X175400000Y-119850000D02*
X175250000Y-120000000D01*
X175250000Y-120000000D02*
X175250000Y-120187760D01*
%TO.N,GP41*%
X168480000Y-122500000D02*
X168429000Y-122551000D01*
X168429000Y-122551000D02*
X155801000Y-122551000D01*
X155801000Y-122551000D02*
X155750000Y-122500000D01*
%TO.N,SDA*%
X175850000Y-114998000D02*
X175850000Y-116402000D01*
X177600000Y-114548000D02*
X177551000Y-114499000D01*
X176349000Y-114499000D02*
X175850000Y-114998000D01*
X175850000Y-116402000D02*
X177998000Y-118550000D01*
X180930000Y-118550000D02*
X181980000Y-119600000D01*
X177600000Y-114800000D02*
X177600000Y-114548000D01*
X177551000Y-114499000D02*
X176349000Y-114499000D01*
X177998000Y-118550000D02*
X180930000Y-118550000D01*
%TO.N,ROW_3*%
X174351000Y-122649000D02*
X173000000Y-124000000D01*
X204324890Y-123500000D02*
X207692210Y-123500000D01*
X195410000Y-126550000D02*
X194074890Y-126550000D01*
X169649000Y-119399000D02*
X173998943Y-119399000D01*
X207309310Y-130000000D02*
X162000000Y-130000000D01*
D44*
X160500000Y-128500000D02*
X160500000Y-128000000D01*
D43*
X195860000Y-127000000D02*
X201723110Y-127000000D01*
X194074890Y-126550000D02*
X190374890Y-122850000D01*
D44*
X160875000Y-128875000D02*
X160500000Y-128500000D01*
D43*
X173000000Y-124000000D02*
X159000000Y-124000000D01*
X201723110Y-127000000D02*
X202824000Y-125899110D01*
X207692210Y-123500000D02*
X209478000Y-125285790D01*
X209478000Y-127831310D02*
X207309310Y-130000000D01*
X195860000Y-127000000D02*
X195410000Y-126550000D01*
X162000000Y-130000000D02*
X160875000Y-128875000D01*
X195860000Y-127000000D02*
X201200000Y-127000000D01*
X174351000Y-119751057D02*
X174351000Y-122649000D01*
X159000000Y-124000000D02*
X158500000Y-123500000D01*
X202824000Y-125000890D02*
X204324890Y-123500000D01*
X202824000Y-125899110D02*
X202824000Y-125000890D01*
X190374890Y-122850000D02*
X189000000Y-122850000D01*
X166750000Y-116500000D02*
X169649000Y-119399000D01*
X173998943Y-119399000D02*
X174351000Y-119751057D01*
X209478000Y-125285790D02*
X209478000Y-127831310D01*
%TO.N,COL_11*%
X185400000Y-126289243D02*
X185400000Y-125300000D01*
X185339243Y-126350000D02*
X185339243Y-125260757D01*
X185339243Y-126350000D02*
X185400000Y-126289243D01*
X185500000Y-125100000D02*
X185500000Y-122850000D01*
X185339243Y-125260757D02*
X185500000Y-125100000D01*
%TO.N,COL_9*%
X184500000Y-124682900D02*
X184500000Y-122850000D01*
X184250000Y-126950000D02*
X184250000Y-124932900D01*
X184250000Y-126950000D02*
X184250000Y-126200000D01*
X184250000Y-124932900D02*
X184500000Y-124682900D01*
%TO.N,COL_0*%
X179250000Y-122250000D02*
X179400000Y-122250000D01*
X179400000Y-122250000D02*
X180000000Y-122850000D01*
%TO.N,COL_2*%
X180452000Y-124349000D02*
X180452000Y-124300000D01*
X181000000Y-123752000D02*
X181000000Y-122850000D01*
X180451057Y-124349000D02*
X180452000Y-124349000D01*
X180099000Y-125198943D02*
X180099000Y-124701057D01*
X180080832Y-125456592D02*
X180218741Y-125318683D01*
X180099000Y-124701057D02*
X180451057Y-124349000D01*
X180218741Y-125318683D02*
X180099000Y-125198943D01*
X180452000Y-124300000D02*
X181000000Y-123752000D01*
%TO.N,COL_4*%
X182000000Y-124700000D02*
X181000000Y-125700000D01*
X182000000Y-122850000D02*
X182000000Y-124700000D01*
%TO.N,COL_1*%
X180500000Y-122850000D02*
X180500000Y-123684900D01*
X180500000Y-123684900D02*
X180142450Y-124042450D01*
X180084900Y-124100000D02*
X179000000Y-124100000D01*
X180142450Y-124042450D02*
X180084900Y-124100000D01*
%TO.N,COL_13*%
X186820091Y-127403969D02*
X186340243Y-126924121D01*
X186340243Y-126924121D02*
X186340243Y-126108285D01*
X186340243Y-126108285D02*
X186500000Y-125948528D01*
X186500000Y-125948528D02*
X186500000Y-122850000D01*
%TO.N,ROW_1*%
X194222000Y-127902000D02*
X189532900Y-127902000D01*
X189532900Y-127902000D02*
X188000000Y-126369100D01*
X208676000Y-127499110D02*
X207171110Y-129004000D01*
X194522000Y-128202000D02*
X206148000Y-128202000D01*
X164450057Y-127100000D02*
X165350057Y-128000000D01*
X207124000Y-127226000D02*
X207124000Y-126600890D01*
X207425890Y-126299000D02*
X208374110Y-126299000D01*
X208676000Y-126600890D02*
X208676000Y-127499110D01*
X206148000Y-128202000D02*
X207124000Y-127226000D01*
X207171110Y-129004000D02*
X167804000Y-129004000D01*
X194522000Y-128202000D02*
X194222000Y-127902000D01*
X194522000Y-128202000D02*
X204798000Y-128202000D01*
X208374110Y-126299000D02*
X208676000Y-126600890D01*
X204798000Y-128202000D02*
X205950000Y-127050000D01*
X167804000Y-129004000D02*
X166800000Y-128000000D01*
X188000000Y-126369100D02*
X188000000Y-122850000D01*
X165350057Y-128000000D02*
X166800000Y-128000000D01*
X207124000Y-126600890D02*
X207425890Y-126299000D01*
%TO.N,COL_6*%
X183000000Y-122850000D02*
X183000000Y-125650000D01*
X181275000Y-127375000D02*
X181200000Y-127450000D01*
X183000000Y-125650000D02*
X181275000Y-127375000D01*
%TO.N,COL_10*%
X184550000Y-127500000D02*
X184550000Y-127499943D01*
X184799000Y-124951000D02*
X185000000Y-124750000D01*
X184851000Y-127198943D02*
X184851000Y-126701057D01*
X185000000Y-124750000D02*
X185000000Y-122850000D01*
X184651000Y-125548000D02*
X184799000Y-125400000D01*
X184799000Y-125300000D02*
X184799000Y-124951000D01*
X184651000Y-126501057D02*
X184651000Y-125548000D01*
X184851000Y-126701057D02*
X184651000Y-126501057D01*
X184750000Y-127700000D02*
X184550000Y-127500000D01*
X184799000Y-125400000D02*
X184799000Y-125300000D01*
X184799000Y-125448943D02*
X184799000Y-125300000D01*
X184550000Y-127499943D02*
X184851000Y-127198943D01*
%TO.N,COL_5*%
X182500000Y-125250000D02*
X181250000Y-126500000D01*
X182500000Y-122850000D02*
X182500000Y-125250000D01*
%TO.N,COL_8*%
X183649000Y-126701057D02*
X183849000Y-126501057D01*
X184000000Y-124400000D02*
X184000000Y-122850000D01*
X184050000Y-124565800D02*
X184050000Y-124450000D01*
X182900000Y-127700000D02*
X183649000Y-126951000D01*
X184050000Y-124450000D02*
X184000000Y-124400000D01*
X183849000Y-124766800D02*
X184050000Y-124565800D01*
X183649000Y-126951000D02*
X183649000Y-126701057D01*
X182850000Y-127700000D02*
X182900000Y-127700000D01*
X183849000Y-126501057D02*
X183849000Y-124766800D01*
%TO.N,ROW_2*%
X207337210Y-129405000D02*
X209077000Y-127665210D01*
X206750000Y-124000000D02*
X206750000Y-126190210D01*
X194388100Y-127501000D02*
X189699000Y-127501000D01*
X209077000Y-125451890D02*
X207625110Y-124000000D01*
X195391000Y-127801000D02*
X195240000Y-127650000D01*
X195240000Y-127650000D02*
X194537100Y-127650000D01*
X202799000Y-127801000D02*
X195391000Y-127801000D01*
X207625110Y-124000000D02*
X206750000Y-124000000D01*
X209077000Y-127665210D02*
X209077000Y-125451890D01*
X203600000Y-127000000D02*
X202799000Y-127801000D01*
D44*
X164350000Y-128650000D02*
X163700000Y-128000000D01*
D43*
X206750000Y-126190210D02*
X206641210Y-126299000D01*
X206641210Y-126299000D02*
X204301000Y-126299000D01*
X188500000Y-126302000D02*
X188500000Y-122850000D01*
X164350000Y-128650000D02*
X165105000Y-129405000D01*
X165105000Y-129405000D02*
X207337210Y-129405000D01*
X204301000Y-126299000D02*
X203600000Y-127000000D01*
X194537100Y-127650000D02*
X194388100Y-127501000D01*
X189699000Y-127501000D02*
X188500000Y-126302000D01*
%TO.N,ROW_0*%
X191353000Y-128603000D02*
X206347000Y-128603000D01*
X187599000Y-126535200D02*
X188400000Y-127336200D01*
X169900000Y-128000000D02*
X170450000Y-128550000D01*
X191300000Y-128550000D02*
X191353000Y-128603000D01*
X187599000Y-126299000D02*
X187599000Y-126535200D01*
X188400000Y-128550000D02*
X191300000Y-128550000D01*
X188400000Y-127336200D02*
X188400000Y-128550000D01*
X206347000Y-128603000D02*
X207900000Y-127050000D01*
X170450000Y-128550000D02*
X188400000Y-128550000D01*
X187500000Y-126200000D02*
X187599000Y-126299000D01*
X187500000Y-122850000D02*
X187500000Y-126200000D01*
D44*
X169900000Y-128000000D02*
X170700000Y-127200000D01*
D43*
%TO.N,COL_12*%
X186031654Y-127233127D02*
X186056902Y-127207879D01*
X186031654Y-127539509D02*
X186031654Y-127233127D01*
X186099000Y-125782428D02*
X186099000Y-125699000D01*
X185939243Y-125942185D02*
X186099000Y-125782428D01*
X186099000Y-125699000D02*
X186000000Y-125600000D01*
X185939243Y-127090221D02*
X185939243Y-125942185D01*
X186000000Y-125600000D02*
X186000000Y-122850000D01*
X186056902Y-127207879D02*
X185939243Y-127090221D01*
%TO.N,COL_7*%
X183500000Y-123900000D02*
X183500000Y-122850000D01*
X182925000Y-126675000D02*
X183401000Y-126199000D01*
X183401000Y-123999000D02*
X183500000Y-123900000D01*
X183401000Y-126199000D02*
X183401000Y-123999000D01*
%TO.N,COL_3*%
X181500000Y-122850000D02*
X181500000Y-124150000D01*
X181500000Y-124150000D02*
X180700000Y-124950000D01*
%TO.N,COL_14*%
X187400000Y-127250000D02*
X187400000Y-126903300D01*
X187752000Y-127602000D02*
X187400000Y-127250000D01*
X187400000Y-126903300D02*
X187198000Y-126701300D01*
X187099000Y-126366100D02*
X187099000Y-123801000D01*
X187099000Y-123801000D02*
X187049000Y-123801000D01*
X187049000Y-123801000D02*
X187049000Y-122899000D01*
X187049000Y-122899000D02*
X187000000Y-122850000D01*
X187198000Y-126465100D02*
X187099000Y-126366100D01*
X187198000Y-126701300D02*
X187198000Y-126465100D01*
X187800000Y-127602000D02*
X187752000Y-127602000D01*
%TO.N,D-*%
X197500000Y-105977000D02*
X197549000Y-106026000D01*
X196601000Y-102649000D02*
X197899000Y-102649000D01*
X197549000Y-106026000D02*
X198451000Y-106026000D01*
X198451000Y-106026000D02*
X198500000Y-105977000D01*
X198500000Y-105977000D02*
X198500000Y-105000000D01*
X196500000Y-102750000D02*
X196601000Y-102649000D01*
X197899000Y-102649000D02*
X198500000Y-103250000D01*
X197500000Y-105000000D02*
X197500000Y-105977000D01*
X198500000Y-103250000D02*
X198500000Y-105000000D01*
X196500000Y-103500000D02*
X196500000Y-102750000D01*
%TO.N,Net-(J4-CC1)*%
X199000000Y-105000000D02*
X199000000Y-107000000D01*
X199000000Y-107000000D02*
X200000000Y-108000000D01*
%TO.N,D+*%
X197000000Y-105000000D02*
X197000000Y-104023000D01*
X197951000Y-103974000D02*
X198000000Y-104023000D01*
X198000000Y-104023000D02*
X198000000Y-105000000D01*
X197500000Y-103250000D02*
X197750000Y-103500000D01*
X197750000Y-103500000D02*
X197750000Y-103974000D01*
X197750000Y-103974000D02*
X197951000Y-103974000D01*
X197049000Y-103974000D02*
X197750000Y-103974000D01*
X197000000Y-104023000D02*
X197049000Y-103974000D01*
%TO.N,Net-(J4-CC2)*%
X196000000Y-105000000D02*
X196000000Y-107000000D01*
X196000000Y-107000000D02*
X197000000Y-108000000D01*
%TO.N,SPI_SCK*%
X169750000Y-122500000D02*
X170551000Y-123301000D01*
X172750000Y-121902786D02*
X172750000Y-121250000D01*
X171351786Y-123301000D02*
X172750000Y-121902786D01*
X170551000Y-123301000D02*
X171351786Y-123301000D01*
D44*
%TO.N,ADC_BAT*%
X192825000Y-111175000D02*
X193175000Y-111175000D01*
X188250000Y-113500000D02*
X190500000Y-113500000D01*
X193000000Y-109500000D02*
X193000000Y-111000000D01*
X190500000Y-113500000D02*
X192825000Y-111175000D01*
X193000000Y-111000000D02*
X193175000Y-111175000D01*
D43*
%TO.N,Net-(MAX1-In)*%
X170225000Y-101550000D02*
X169000000Y-101550000D01*
X172000000Y-100000000D02*
X177173000Y-100000000D01*
X178949000Y-101776000D02*
X180374057Y-101776000D01*
X180374057Y-101776000D02*
X181400057Y-100750000D01*
X181450000Y-101050000D02*
X181450000Y-100500000D01*
X168400000Y-101550000D02*
X167500000Y-102450000D01*
X181400057Y-100750000D02*
X181450000Y-100750000D01*
X177173000Y-100000000D02*
X178949000Y-101776000D01*
X169000000Y-101550000D02*
X168400000Y-101550000D01*
%TO.N,Net-(MAX1-CLEAR)*%
X168175000Y-105500000D02*
X170225000Y-103450000D01*
D44*
%TO.N,VBAT*%
X189500000Y-109500000D02*
X189000000Y-109500000D01*
D45*
X215500000Y-112960000D02*
X214500000Y-111960000D01*
D44*
X172800000Y-101250000D02*
X177250000Y-101250000D01*
X178000000Y-109500000D02*
X178000000Y-110000000D01*
X178000000Y-102000000D02*
X178000000Y-109500000D01*
X172525000Y-115475000D02*
X171550000Y-115475000D01*
X189000000Y-109500000D02*
X188147565Y-110352435D01*
X191250000Y-110500000D02*
X191250000Y-109600000D01*
X185000000Y-109500000D02*
X178000000Y-109500000D01*
X188147565Y-110352435D02*
X185852435Y-110352435D01*
D45*
X214500000Y-111960000D02*
X214500000Y-108000000D01*
D44*
X185852435Y-110352435D02*
X185000000Y-109500000D01*
X191350000Y-109500000D02*
X189500000Y-109500000D01*
X178000000Y-110000000D02*
X172525000Y-115475000D01*
X191250000Y-109600000D02*
X191350000Y-109500000D01*
D43*
X172500000Y-101550000D02*
X172800000Y-101250000D01*
D44*
X177250000Y-101250000D02*
X178000000Y-102000000D01*
D43*
%TO.N,PWR_OFF*%
X165625000Y-100875000D02*
X165625000Y-101500000D01*
X165750000Y-100750000D02*
X165625000Y-100875000D01*
%TO.N,Net-(U4-PROG)*%
X185400000Y-111400000D02*
X185000000Y-111000000D01*
X187225000Y-111400000D02*
X185400000Y-111400000D01*
%TO.N,S3*%
X196151000Y-121916100D02*
X196151000Y-115251057D01*
X190864100Y-120401643D02*
X190598000Y-120667743D01*
X195000000Y-114750000D02*
X194250000Y-115500000D01*
X195649943Y-114750000D02*
X195000000Y-114750000D01*
X187886605Y-115705005D02*
X190864100Y-118682500D01*
X181953800Y-115088000D02*
X186703800Y-115088000D01*
X196151000Y-115251057D02*
X195649943Y-114750000D01*
X194317100Y-123750000D02*
X196151000Y-121916100D01*
X190864100Y-118682500D02*
X190864100Y-120401643D01*
X187320805Y-115705005D02*
X187886605Y-115705005D01*
X190598000Y-120667743D02*
X190598000Y-121332143D01*
X178250000Y-111384200D02*
X181953800Y-115088000D01*
X178250000Y-110750000D02*
X178250000Y-111384200D01*
X186703800Y-115088000D02*
X187320805Y-115705005D01*
X190598000Y-121332143D02*
X193015857Y-123750000D01*
X193015857Y-123750000D02*
X194317100Y-123750000D01*
%TO.N,GP16_E*%
X195627000Y-121873000D02*
X195627000Y-115577000D01*
X179500000Y-112067100D02*
X182119900Y-114687000D01*
X188052705Y-115304005D02*
X191265100Y-118516400D01*
X194174028Y-123325972D02*
X195627000Y-121873000D01*
X182119900Y-114687000D02*
X186869900Y-114687000D01*
X179500000Y-111000000D02*
X179500000Y-112067100D01*
X187486905Y-115304005D02*
X188052705Y-115304005D01*
X193158929Y-123325972D02*
X194174028Y-123325972D01*
X190999000Y-121166043D02*
X193158929Y-123325972D01*
X191265100Y-120567743D02*
X190999000Y-120833843D01*
X191265100Y-118516400D02*
X191265100Y-120567743D01*
X195627000Y-115577000D02*
X195550000Y-115500000D01*
X190999000Y-120833843D02*
X190999000Y-121166043D01*
X186869900Y-114687000D02*
X187486905Y-115304005D01*
%TO.N,S0*%
X188524971Y-114074971D02*
X188498943Y-114101000D01*
X183484000Y-113484000D02*
X183000000Y-113000000D01*
X192500000Y-118050000D02*
X188524971Y-114074971D01*
X187649000Y-113484000D02*
X183484000Y-113484000D01*
X192500000Y-119850000D02*
X192500000Y-118050000D01*
X187649000Y-113748943D02*
X187649000Y-113484000D01*
X188498943Y-114101000D02*
X188001057Y-114101000D01*
X188001057Y-114101000D02*
X187649000Y-113748943D01*
X193750000Y-121100000D02*
X192500000Y-119850000D01*
%TO.N,S2*%
X193325028Y-122924972D02*
X191666100Y-121266044D01*
X195226000Y-118076000D02*
X195226000Y-121523943D01*
X191666100Y-121266044D02*
X191666100Y-118350300D01*
X187036000Y-114286000D02*
X182286000Y-114286000D01*
X194900000Y-117750000D02*
X195226000Y-118076000D01*
X191666100Y-118350300D02*
X188218805Y-114903005D01*
X181000000Y-113000000D02*
X181000000Y-111000000D01*
X195226000Y-121523943D02*
X193824971Y-122924972D01*
X193824971Y-122924972D02*
X193325028Y-122924972D01*
X182286000Y-114286000D02*
X181000000Y-113000000D01*
X187653005Y-114903005D02*
X187036000Y-114286000D01*
X188218805Y-114903005D02*
X187653005Y-114903005D01*
%TO.N,S1*%
X181716450Y-111783550D02*
X181750000Y-111750000D01*
X187248000Y-113885000D02*
X182635000Y-113885000D01*
X188332852Y-114502003D02*
X188332849Y-114502000D01*
X193501057Y-121701000D02*
X192067100Y-120267043D01*
X181716450Y-112966450D02*
X181716450Y-111783550D01*
X192067100Y-118184200D02*
X188384902Y-114502002D01*
X192067100Y-120267043D02*
X192067100Y-118184200D01*
X182635000Y-113885000D02*
X181716450Y-112966450D01*
X187248000Y-113915043D02*
X187248000Y-113885000D01*
X188332849Y-114502000D02*
X187834957Y-114502000D01*
X194625000Y-121125000D02*
X194049000Y-121701000D01*
X194049000Y-121701000D02*
X193501057Y-121701000D01*
X188384902Y-114502002D02*
X188332852Y-114502003D01*
X187834957Y-114502000D02*
X187248000Y-113915043D01*
%TO.N,MENU*%
X154300000Y-112799000D02*
X154300000Y-110100000D01*
X160500000Y-118750000D02*
X160251000Y-118750000D01*
X160251000Y-118750000D02*
X154300000Y-112799000D01*
%TO.N,100*%
X191350000Y-100850000D02*
X191500000Y-101000000D01*
X190500000Y-100850000D02*
X191350000Y-100850000D01*
%TO.N,SELECT*%
X154650000Y-120000000D02*
X154300000Y-119650000D01*
X154300000Y-119650000D02*
X154300000Y-116250000D01*
X154650000Y-120000000D02*
X173750000Y-120000000D01*
%TD*%
M02*
