M48
; DRILL file {KiCad 9.0.1} date 2025-11-02T10:59:15-0600
; FORMAT={-:-/ absolute / metric / decimal}
; #@! TF.CreationDate,2025-11-02T10:59:15-06:00
; #@! TF.GenerationSoftware,Kicad,Pcbnew,9.0.1
; #@! TF.FileFunction,Plated,1,4,PTH
FMAT,2
METRIC
; #@! TA.AperFunction,Plated,PTH,ViaDrill
T1C0.300
; #@! TA.AperFunction,Plated,PTH,ComponentDrill
T2C0.600
; #@! TA.AperFunction,Plated,PTH,ComponentDrill
T3C0.650
; #@! TA.AperFunction,Plated,PTH,ComponentDrill
T4C0.800
; #@! TA.AperFunction,Plated,PTH,ComponentDrill
T5C1.000
%
G90
G05
T1
X154.3Y-108.4
X154.3Y-114.55
X155.75Y-122.5
X157.25Y-121.5
X158.5Y-123.5
X160.5Y-118.75
X160.5Y-125.5
X160.875Y-128.875
X161.0Y-101.0
X163.7Y-125.5
X164.35Y-128.65
X164.45Y-127.1
X165.75Y-100.75
X166.75Y-116.5
X166.8Y-125.5
X167.112Y-104.887
X168.5Y-116.5
X169.0Y-101.55
X169.9Y-125.5
X170.04Y-109.96
X170.5Y-106.0
X170.7Y-127.2
X172.0Y-100.0
X172.75Y-121.25
X173.75Y-120.0
X174.5Y-106.0
X174.95Y-109.95
X175.0Y-111.5
X175.25Y-120.0
X177.85Y-112.75
X178.25Y-110.75
X178.75Y-100.0
X179.0Y-124.1
X179.25Y-122.25
X179.5Y-111.0
X180.081Y-125.457
X180.7Y-124.95
X180.75Y-102.25
X180.85Y-117.499
X181.0Y-111.0
X181.0Y-125.7
X181.25Y-126.5
X181.275Y-127.375
X181.75Y-111.75
X182.5Y-106.5
X182.85Y-127.7
X182.925Y-126.675
X183.0Y-111.5
X183.0Y-113.0
X184.25Y-126.95
X184.75Y-127.7
X185.339Y-126.35
X185.5Y-106.0
X186.032Y-127.54
X186.5Y-108.0
X186.82Y-127.404
X187.8Y-127.602
X188.25Y-113.5
X190.0Y-112.5
X191.25Y-110.5
X191.5Y-101.0
X193.575Y-122.325
X193.75Y-121.1
X194.0Y-112.0
X194.25Y-115.5
X194.625Y-121.125
X194.9Y-117.75
X195.0Y-106.5
X195.55Y-115.5
X196.5Y-103.5
X197.5Y-103.25
X198.5Y-109.65
X199.4Y-126.3
X199.611Y-123.75
X200.299Y-125.449
X200.5Y-106.5
X201.324Y-123.774
X201.85Y-117.05
X204.75Y-125.45
X205.175Y-112.325
X207.375Y-124.625
X208.0Y-101.5
X208.0Y-111.0
X209.35Y-117.0
T3
X162.23Y-121.75
X163.5Y-121.75
X164.77Y-121.75
X168.48Y-121.23
X168.48Y-122.5
X169.75Y-121.23
X169.75Y-122.5
X171.02Y-121.23
X171.02Y-122.5
T4
X212.5Y-108.0
X214.5Y-108.0
X215.45Y-120.8
X215.45Y-122.8
T5
X181.98Y-119.6
X184.52Y-119.6
X187.06Y-119.6
X189.6Y-119.6
X215.5Y-112.96
X215.5Y-115.5
T2
G00X193.43Y-100.205
M15
G01X193.43Y-99.605
M16
G05
G00X193.43Y-104.635
M15
G01X193.43Y-103.535
M16
G05
G00X202.07Y-100.205
M15
G01X202.07Y-99.605
M16
G05
G00X202.07Y-104.635
M15
G01X202.07Y-103.535
M16
G05
M30
