%TF.GenerationSoftware,KiCad,Pcbnew,9.0.1*%
%TF.CreationDate,2025-11-02T10:59:12-06:00*%
%TF.ProjectId,OM-FlexGrid-Rigid-PCB,4f4d2d46-6c65-4784-9772-69642d526967,rev?*%
%TF.SameCoordinates,Original*%
%TF.FileFunction,Copper,L4,Bot*%
%TF.FilePolarity,Positive*%
%FSLAX46Y46*%
G04 Gerber Fmt 4.6, Leading zero omitted, Abs format (unit mm)*
G04 Created by KiCad (PCBNEW 9.0.1) date 2025-11-02 10:59:12*
%MOMM*%
%LPD*%
G01*
G04 APERTURE LIST*
G04 Aperture macros list*
%AMRoundRect*
0 Rectangle with rounded corners*
0 $1 Rounding radius*
0 $2 $3 $4 $5 $6 $7 $8 $9 X,Y pos of 4 corners*
0 Add a 4 corners polygon primitive as box body*
4,1,4,$2,$3,$4,$5,$6,$7,$8,$9,$2,$3,0*
0 Add four circle primitives for the rounded corners*
1,1,$1+$1,$2,$3*
1,1,$1+$1,$4,$5*
1,1,$1+$1,$6,$7*
1,1,$1+$1,$8,$9*
0 Add four rect primitives between the rounded corners*
20,1,$1+$1,$2,$3,$4,$5,0*
20,1,$1+$1,$4,$5,$6,$7,0*
20,1,$1+$1,$6,$7,$8,$9,0*
20,1,$1+$1,$8,$9,$2,$3,0*%
G04 Aperture macros list end*
%TA.AperFunction,ComponentPad*%
%ADD10R,1.000000X1.000000*%
%TD*%
%TA.AperFunction,ComponentPad*%
%ADD11C,1.000000*%
%TD*%
%TA.AperFunction,ComponentPad*%
%ADD12R,1.350000X1.350000*%
%TD*%
%TA.AperFunction,ComponentPad*%
%ADD13C,1.350000*%
%TD*%
%TA.AperFunction,ComponentPad*%
%ADD14R,1.700000X1.700000*%
%TD*%
%TA.AperFunction,ComponentPad*%
%ADD15C,1.700000*%
%TD*%
%TA.AperFunction,HeatsinkPad*%
%ADD16O,1.000000X2.100000*%
%TD*%
%TA.AperFunction,HeatsinkPad*%
%ADD17O,1.000000X1.600000*%
%TD*%
%TA.AperFunction,SMDPad,CuDef*%
%ADD18RoundRect,0.100000X0.100000X-0.637500X0.100000X0.637500X-0.100000X0.637500X-0.100000X-0.637500X0*%
%TD*%
%TA.AperFunction,SMDPad,CuDef*%
%ADD19RoundRect,0.150000X0.150000X-0.587500X0.150000X0.587500X-0.150000X0.587500X-0.150000X-0.587500X0*%
%TD*%
%TA.AperFunction,SMDPad,CuDef*%
%ADD20R,1.498600X0.812800*%
%TD*%
%TA.AperFunction,SMDPad,CuDef*%
%ADD21R,0.812800X1.498600*%
%TD*%
%TA.AperFunction,SMDPad,CuDef*%
%ADD22R,0.889000X0.889000*%
%TD*%
%TA.AperFunction,SMDPad,CuDef*%
%ADD23RoundRect,0.200000X-0.200000X-0.275000X0.200000X-0.275000X0.200000X0.275000X-0.200000X0.275000X0*%
%TD*%
%TA.AperFunction,SMDPad,CuDef*%
%ADD24RoundRect,0.225000X0.250000X-0.225000X0.250000X0.225000X-0.250000X0.225000X-0.250000X-0.225000X0*%
%TD*%
%TA.AperFunction,SMDPad,CuDef*%
%ADD25RoundRect,0.225000X0.225000X0.375000X-0.225000X0.375000X-0.225000X-0.375000X0.225000X-0.375000X0*%
%TD*%
%TA.AperFunction,ViaPad*%
%ADD26C,0.600000*%
%TD*%
%TA.AperFunction,Conductor*%
%ADD27C,0.200000*%
%TD*%
%TA.AperFunction,Conductor*%
%ADD28C,0.350000*%
%TD*%
G04 APERTURE END LIST*
D10*
%TO.P,J1,1,Pin_1*%
%TO.N,GP41*%
X168480000Y-122500000D03*
D11*
%TO.P,J1,2,Pin_2*%
%TO.N,SPI_MOSI*%
X168480000Y-121230000D03*
%TO.P,J1,3,Pin_3*%
%TO.N,SPI_SCK*%
X169750000Y-122500000D03*
%TO.P,J1,4,Pin_4*%
%TO.N,SPI_MISO*%
X169750000Y-121230000D03*
%TO.P,J1,5,Pin_5*%
%TO.N,CS*%
X171020000Y-122500000D03*
%TO.P,J1,6,Pin_6*%
%TO.N,GP40*%
X171020000Y-121230000D03*
%TD*%
D12*
%TO.P,J7,1,Pin_1*%
%TO.N,GND*%
X215450000Y-120800000D03*
D13*
%TO.P,J7,2,Pin_2*%
%TO.N,+3V3*%
X215450000Y-122800000D03*
%TD*%
D14*
%TO.P,J2,1,Pin_1*%
%TO.N,GND*%
X215500000Y-115500000D03*
D15*
%TO.P,J2,2,Pin_2*%
%TO.N,VBAT*%
X215500000Y-112960000D03*
%TD*%
D14*
%TO.P,SCRN1,1,Pin_1*%
%TO.N,GND*%
X189600000Y-119600000D03*
D15*
%TO.P,SCRN1,2,Pin_2*%
%TO.N,+3V3*%
X187060000Y-119600000D03*
%TO.P,SCRN1,3,Pin_3*%
%TO.N,SCL*%
X184520000Y-119600000D03*
%TO.P,SCRN1,4,Pin_4*%
%TO.N,SDA*%
X181980000Y-119600000D03*
%TD*%
D16*
%TO.P,J4,S1,SHIELD*%
%TO.N,GND*%
X202070000Y-104085000D03*
D17*
X202070000Y-99905000D03*
D16*
X193430000Y-104085000D03*
D17*
X193430000Y-99905000D03*
%TD*%
D10*
%TO.P,J6,1,Pin_1*%
%TO.N,GND*%
X162230000Y-121750000D03*
D11*
%TO.P,J6,2,Pin_2*%
%TO.N,RX*%
X163500000Y-121750000D03*
%TO.P,J6,3,Pin_3*%
%TO.N,TX*%
X164770000Y-121750000D03*
%TD*%
D18*
%TO.P,U1,1,COM*%
%TO.N,+3V3*%
X201400000Y-122325000D03*
%TO.P,U1,2,I7*%
%TO.N,COL_7*%
X200750000Y-122325000D03*
%TO.P,U1,3,I6*%
%TO.N,COL_6*%
X200100000Y-122325000D03*
%TO.P,U1,4,I5*%
%TO.N,COL_5*%
X199450000Y-122325000D03*
%TO.P,U1,5,I4*%
%TO.N,COL_4*%
X198800000Y-122325000D03*
%TO.P,U1,6,I3*%
%TO.N,COL_3*%
X198150000Y-122325000D03*
%TO.P,U1,7,I2*%
%TO.N,COL_2*%
X197500000Y-122325000D03*
%TO.P,U1,8,I1*%
%TO.N,COL_1*%
X196850000Y-122325000D03*
%TO.P,U1,9,I0*%
%TO.N,COL_0*%
X196200000Y-122325000D03*
%TO.P,U1,10,S0*%
%TO.N,S0*%
X195550000Y-122325000D03*
%TO.P,U1,11,S1*%
%TO.N,S1*%
X194900000Y-122325000D03*
%TO.P,U1,12,GND*%
%TO.N,GND*%
X194250000Y-122325000D03*
%TO.P,U1,13,S3*%
%TO.N,S3*%
X194250000Y-116600000D03*
%TO.P,U1,14,S2*%
%TO.N,S2*%
X194900000Y-116600000D03*
%TO.P,U1,15,~{E}*%
%TO.N,GP16_E*%
X195550000Y-116600000D03*
%TO.P,U1,16,I15*%
%TO.N,unconnected-(U1-I15-Pad16)*%
X196200000Y-116600000D03*
%TO.P,U1,17,I14*%
%TO.N,COL_14*%
X196850000Y-116600000D03*
%TO.P,U1,18,I13*%
%TO.N,COL_13*%
X197500000Y-116600000D03*
%TO.P,U1,19,I12*%
%TO.N,COL_12*%
X198150000Y-116600000D03*
%TO.P,U1,20,I11*%
%TO.N,COL_11*%
X198800000Y-116600000D03*
%TO.P,U1,21,I10*%
%TO.N,COL_10*%
X199450000Y-116600000D03*
%TO.P,U1,22,I9*%
%TO.N,COL_9*%
X200100000Y-116600000D03*
%TO.P,U1,23,I8*%
%TO.N,COL_8*%
X200750000Y-116600000D03*
%TO.P,U1,24,VCC*%
%TO.N,+3V3*%
X201400000Y-116600000D03*
%TD*%
D19*
%TO.P,Q1,1,G*%
%TO.N,Net-(Q1-G)*%
X211000000Y-115500000D03*
%TO.P,Q1,2,S*%
%TO.N,GND*%
X209100000Y-115500000D03*
%TO.P,Q1,3,D*%
%TO.N,MotorGND*%
X210050000Y-113625000D03*
%TD*%
D20*
%TO.P,U2,1,GND*%
%TO.N,GND*%
X179500000Y-100840000D03*
%TO.P,U2,2,3V3*%
%TO.N,+3V3*%
X179500000Y-102110000D03*
%TO.P,U2,3,EN*%
%TO.N,EN*%
X179500000Y-103380000D03*
%TO.P,U2,4,IO4*%
%TO.N,ROW_3*%
X179500000Y-104650000D03*
%TO.P,U2,5,IO5*%
%TO.N,S0*%
X179500000Y-105920000D03*
%TO.P,U2,6,IO6*%
%TO.N,S1*%
X179500000Y-107190000D03*
%TO.P,U2,7,IO7*%
%TO.N,S2*%
X179500000Y-108460000D03*
%TO.P,U2,8,IO15*%
%TO.N,S3*%
X179500000Y-109730000D03*
%TO.P,U2,9,IO16*%
%TO.N,GP16_E*%
X179500000Y-111000000D03*
%TO.P,U2,10,IO17*%
%TO.N,MOT_SIG*%
X179500000Y-112270000D03*
%TO.P,U2,11,IO18*%
%TO.N,ADC_BAT*%
X179500000Y-113540000D03*
%TO.P,U2,12,IO8*%
%TO.N,SDA*%
X179500000Y-114810000D03*
%TO.P,U2,13,IO19*%
%TO.N,D-*%
X179500000Y-116080000D03*
%TO.P,U2,14,IO20*%
%TO.N,D+*%
X179500000Y-117350000D03*
D21*
%TO.P,U2,15,IO3*%
%TO.N,ROW_2*%
X177735000Y-118600000D03*
%TO.P,U2,16,IO46*%
%TO.N,unconnected-(U2-IO46-Pad16)*%
X176465000Y-118600000D03*
%TO.P,U2,17,IO9*%
%TO.N,SCL*%
X175195000Y-118600000D03*
%TO.P,U2,18,IO10*%
%TO.N,SELECT*%
X173925000Y-118600000D03*
%TO.P,U2,19,IO11*%
%TO.N,SPI_MISO*%
X172655000Y-118600000D03*
%TO.P,U2,20,IO12*%
%TO.N,SPI_SCK*%
X171385000Y-118600000D03*
%TO.P,U2,21,IO13*%
%TO.N,SPI_MOSI*%
X170115000Y-118600000D03*
%TO.P,U2,22,IO14*%
%TO.N,CS*%
X168845000Y-118600000D03*
%TO.P,U2,23,IO21*%
%TO.N,MENU*%
X167575000Y-118600000D03*
%TO.P,U2,24,IO47*%
%TO.N,unconnected-(U2-IO47-Pad24)*%
X166305000Y-118600000D03*
%TO.P,U2,25,IO48*%
%TO.N,unconnected-(U2-IO48-Pad25)*%
X165035000Y-118600000D03*
%TO.P,U2,26,IO45*%
%TO.N,PWR_OFF*%
X163765000Y-118600000D03*
D20*
%TO.P,U2,27,IO0*%
%TO.N,100*%
X162000000Y-117350000D03*
%TO.P,U2,28,IO35*%
%TO.N,unconnected-(U2-IO35-Pad28)*%
X162000000Y-116080000D03*
%TO.P,U2,29,IO36*%
%TO.N,unconnected-(U2-IO36-Pad29)*%
X162000000Y-114810000D03*
%TO.P,U2,30,IO37*%
%TO.N,unconnected-(U2-IO37-Pad30)*%
X162000000Y-113540000D03*
%TO.P,U2,31,IO38*%
%TO.N,unconnected-(U2-IO38-Pad31)*%
X162000000Y-112270000D03*
%TO.P,U2,32,IO39*%
%TO.N,unconnected-(U2-IO39-Pad32)*%
X162000000Y-111000000D03*
%TO.P,U2,33,IO40*%
%TO.N,GP40*%
X162000000Y-109730000D03*
%TO.P,U2,34,IO41*%
%TO.N,GP41*%
X162000000Y-108460000D03*
%TO.P,U2,35,IO42*%
%TO.N,unconnected-(U2-IO42-Pad35)*%
X162000000Y-107190000D03*
%TO.P,U2,36,RXD0*%
%TO.N,RX*%
X162000000Y-105920000D03*
%TO.P,U2,37,TXD0*%
%TO.N,TX*%
X162000000Y-104650000D03*
%TO.P,U2,38,IO2*%
%TO.N,ROW_1*%
X162000000Y-103380000D03*
%TO.P,U2,39,IO1*%
%TO.N,ROW_0*%
X162000000Y-102110000D03*
%TO.P,U2,40,GND*%
%TO.N,GND*%
X162000000Y-100840000D03*
D22*
%TO.P,U2,41,GND*%
X172250000Y-108560000D03*
%TO.P,U2,42*%
%TO.N,N/C*%
X173650000Y-107160000D03*
%TO.P,U2,43*%
X173650000Y-108560000D03*
%TO.P,U2,44*%
X173650000Y-109960000D03*
%TO.P,U2,45*%
X172250000Y-109960000D03*
%TO.P,U2,46,GND*%
%TO.N,GND*%
X170850000Y-109960000D03*
%TO.P,U2,47,GND*%
X170850000Y-108560000D03*
%TO.P,U2,48,GND*%
X170850000Y-107160000D03*
%TO.P,U2,49,GND*%
X172250000Y-107160000D03*
%TD*%
D12*
%TO.P,J5,1,Pin_1*%
%TO.N,VBAT*%
X214500000Y-108000000D03*
D13*
%TO.P,J5,2,Pin_2*%
%TO.N,MotorGND*%
X212500000Y-108000000D03*
%TD*%
D23*
%TO.P,R10,1*%
%TO.N,Net-(Q1-G)*%
X209350000Y-120500000D03*
%TO.P,R10,2*%
%TO.N,MOT_SIG*%
X211000000Y-120500000D03*
%TD*%
D24*
%TO.P,C9,1*%
%TO.N,MotorGND*%
X213000000Y-121050000D03*
%TO.P,C9,2*%
%TO.N,VBAT*%
X213000000Y-119500000D03*
%TD*%
D23*
%TO.P,R11,1*%
%TO.N,GND*%
X209350000Y-118000000D03*
%TO.P,R11,2*%
%TO.N,Net-(Q1-G)*%
X211000000Y-118000000D03*
%TD*%
D25*
%TO.P,D4,1,K*%
%TO.N,VBAT*%
X215000000Y-111000000D03*
%TO.P,D4,2,A*%
%TO.N,MotorGND*%
X211700000Y-111000000D03*
%TD*%
D26*
%TO.N,GND*%
X198500000Y-109650000D03*
X209350000Y-117000000D03*
X161000000Y-101000000D03*
X183000000Y-111500000D03*
X154300000Y-114550000D03*
X169900000Y-125500000D03*
X207375000Y-124625000D03*
X204750000Y-125450000D03*
X174950000Y-109950000D03*
X154300000Y-108400000D03*
X182500000Y-106500000D03*
X180850000Y-117499000D03*
X170500000Y-106000000D03*
X193575000Y-122325000D03*
X163700000Y-125500000D03*
X166800000Y-125500000D03*
X200299435Y-125449435D03*
X170040000Y-109960000D03*
X194000000Y-112000000D03*
X167112500Y-104887500D03*
X178750000Y-100000000D03*
X160500000Y-125500000D03*
X177850000Y-112750000D03*
X208000000Y-111000000D03*
%TO.N,EN*%
X208000000Y-101500000D03*
%TO.N,+3V3*%
X205175000Y-112325000D03*
X201324464Y-123774464D03*
X180750000Y-102250000D03*
X201850000Y-117050000D03*
X174500000Y-106000000D03*
%TO.N,VBUS*%
X168500000Y-116500000D03*
X186500000Y-108000000D03*
X175000000Y-111500000D03*
X200500000Y-106500000D03*
X195000000Y-106500000D03*
%TO.N,Net-(D2-K)*%
X190000000Y-112500000D03*
X185500000Y-106000000D03*
%TO.N,GP40*%
X157250000Y-121500000D03*
%TO.N,SCL*%
X175250000Y-120000000D03*
%TO.N,GP41*%
X155750000Y-122500000D03*
%TO.N,ROW_3*%
X160875000Y-128875000D03*
X166750000Y-116500000D03*
X158500000Y-123500000D03*
%TO.N,COL_11*%
X185339243Y-126350000D03*
%TO.N,COL_9*%
X184250000Y-126950000D03*
%TO.N,COL_0*%
X179250000Y-122250000D03*
%TO.N,COL_2*%
X180080832Y-125456592D03*
%TO.N,COL_4*%
X181000000Y-125700000D03*
%TO.N,COL_1*%
X179000000Y-124100000D03*
%TO.N,COL_13*%
X186820091Y-127403969D03*
%TO.N,ROW_1*%
X164450057Y-127100000D03*
%TO.N,COL_6*%
X181275000Y-127375000D03*
X199610700Y-123750329D03*
%TO.N,COL_10*%
X184750000Y-127700000D03*
%TO.N,COL_5*%
X181250000Y-126500000D03*
%TO.N,COL_8*%
X182850000Y-127700000D03*
%TO.N,ROW_2*%
X164350000Y-128650000D03*
%TO.N,ROW_0*%
X170700000Y-127200000D03*
%TO.N,COL_12*%
X186031654Y-127539509D03*
%TO.N,COL_7*%
X182925000Y-126675000D03*
X199400000Y-126300000D03*
%TO.N,COL_3*%
X180700000Y-124950000D03*
%TO.N,COL_14*%
X187800000Y-127602000D03*
%TO.N,D-*%
X196500000Y-103500000D03*
%TO.N,D+*%
X197500000Y-103250000D03*
%TO.N,SPI_SCK*%
X172750000Y-121250000D03*
%TO.N,ADC_BAT*%
X188250000Y-113500000D03*
%TO.N,Net-(MAX1-In)*%
X172000000Y-100000000D03*
X169000000Y-101550000D03*
%TO.N,VBAT*%
X191250000Y-110500000D03*
%TO.N,PWR_OFF*%
X165750000Y-100750000D03*
%TO.N,S3*%
X194250000Y-115500000D03*
X178250000Y-110750000D03*
%TO.N,GP16_E*%
X179500000Y-111000000D03*
X195550000Y-115500000D03*
%TO.N,S0*%
X193750000Y-121100000D03*
X183000000Y-113000000D03*
%TO.N,S2*%
X181000000Y-111000000D03*
X194900000Y-117750000D03*
%TO.N,S1*%
X194625000Y-121125000D03*
X181750000Y-111750000D03*
%TO.N,MENU*%
X160500000Y-118750000D03*
%TO.N,100*%
X191500000Y-101000000D03*
%TO.N,SELECT*%
X173750000Y-120000000D03*
%TD*%
D27*
%TO.N,GND*%
X178750000Y-100000000D02*
X178750000Y-100090000D01*
X170850000Y-109960000D02*
X170850000Y-108560000D01*
D28*
X209350000Y-118000000D02*
X209350000Y-117000000D01*
D27*
X161160000Y-100840000D02*
X161000000Y-101000000D01*
D28*
X209350000Y-117000000D02*
X209350000Y-115750000D01*
D27*
X170850000Y-106350000D02*
X170500000Y-106000000D01*
X170850000Y-107160000D02*
X170850000Y-108560000D01*
X170850000Y-109960000D02*
X172250000Y-108560000D01*
X172250000Y-107160000D02*
X170850000Y-107160000D01*
X172250000Y-108560000D02*
X172250000Y-107160000D01*
X170850000Y-107160000D02*
X170850000Y-106350000D01*
X178750000Y-100090000D02*
X179500000Y-100840000D01*
X170850000Y-109960000D02*
X170040000Y-109960000D01*
X162000000Y-100840000D02*
X161160000Y-100840000D01*
X172250000Y-108560000D02*
X170850000Y-108560000D01*
X194250000Y-122325000D02*
X193575000Y-122325000D01*
D28*
X209350000Y-115750000D02*
X209100000Y-115500000D01*
D27*
%TO.N,EN*%
X179500000Y-103380000D02*
X183547785Y-103380000D01*
X183547785Y-103380000D02*
X185177785Y-101750000D01*
X185177785Y-101750000D02*
X196500000Y-101750000D01*
X207750000Y-101750000D02*
X208000000Y-101500000D01*
X196500000Y-101750000D02*
X207750000Y-101750000D01*
%TO.N,+3V3*%
X201324464Y-123774464D02*
X201400000Y-123698928D01*
X201400000Y-123698928D02*
X201400000Y-122325000D01*
X201850000Y-117050000D02*
X201900000Y-117050000D01*
X179500000Y-102110000D02*
X180610000Y-102110000D01*
X180610000Y-102110000D02*
X180750000Y-102250000D01*
X201400000Y-116600000D02*
X201850000Y-117050000D01*
D28*
%TO.N,MotorGND*%
X211700000Y-111975000D02*
X210050000Y-113625000D01*
X210610534Y-113625000D02*
X212149000Y-115163466D01*
X212500000Y-108000000D02*
X212500000Y-110200000D01*
X210050000Y-113625000D02*
X210610534Y-113625000D01*
X212149000Y-115163466D02*
X212149000Y-120199000D01*
X211700000Y-111000000D02*
X211700000Y-111975000D01*
X212149000Y-120199000D02*
X213000000Y-121050000D01*
X212500000Y-110200000D02*
X211700000Y-111000000D01*
D27*
%TO.N,Net-(D2-K)*%
X190000000Y-112500000D02*
X190000000Y-110500000D01*
X190000000Y-110500000D02*
X185500000Y-106000000D01*
%TO.N,GP40*%
X163500000Y-108717700D02*
X162487700Y-109730000D01*
X162487700Y-109730000D02*
X162000000Y-109730000D01*
X155149000Y-122748943D02*
X155149000Y-103298976D01*
X163231600Y-99731600D02*
X163500000Y-100000000D01*
X158716376Y-99731600D02*
X163231600Y-99731600D01*
X155501057Y-123101000D02*
X155149000Y-122748943D01*
X155149000Y-103298976D02*
X158716376Y-99731600D01*
X157250000Y-121500000D02*
X157250000Y-121849943D01*
X163500000Y-100000000D02*
X163500000Y-108717700D01*
X157250000Y-121849943D02*
X155998943Y-123101000D01*
X155998943Y-123101000D02*
X155501057Y-123101000D01*
%TO.N,SCL*%
X175195000Y-118600000D02*
X175195000Y-119945000D01*
X175195000Y-119945000D02*
X175250000Y-120000000D01*
%TO.N,GP41*%
X162342900Y-108460000D02*
X162000000Y-108460000D01*
X163050300Y-100132600D02*
X163050300Y-107752600D01*
X160867400Y-100132600D02*
X163050300Y-100132600D01*
X160399000Y-100601000D02*
X160867400Y-100132600D01*
X155750000Y-122500000D02*
X155750000Y-106802024D01*
X155750000Y-106802024D02*
X160399000Y-102153024D01*
X163050300Y-107752600D02*
X162342900Y-108460000D01*
X160399000Y-102153024D02*
X160399000Y-100601000D01*
%TO.N,SDA*%
X178449700Y-115372600D02*
X178449700Y-118057400D01*
X179500000Y-114810000D02*
X179012300Y-114810000D01*
X179012300Y-114810000D02*
X178449700Y-115372600D01*
X178449700Y-118057400D02*
X179992300Y-119600000D01*
X179992300Y-119600000D02*
X181980000Y-119600000D01*
%TO.N,ROW_3*%
X158500000Y-123500000D02*
X158500000Y-124250000D01*
X158500000Y-124250000D02*
X159750000Y-125500000D01*
X179500000Y-104650000D02*
X171000057Y-104650000D01*
X171000057Y-104650000D02*
X166750000Y-108900057D01*
X159750000Y-125500000D02*
X159750000Y-127750000D01*
X159750000Y-127750000D02*
X160875000Y-128875000D01*
X166750000Y-108900057D02*
X166750000Y-116500000D01*
%TO.N,COL_11*%
X202167170Y-120083500D02*
X201546001Y-120083500D01*
X198167800Y-129000600D02*
X198832200Y-129000600D01*
X186621100Y-129004000D02*
X198164400Y-129004000D01*
X198832200Y-129000600D02*
X198835600Y-129004000D01*
X202946000Y-125200644D02*
X202946000Y-124702757D01*
X202945998Y-125200646D02*
X202946000Y-125200644D01*
X203204000Y-121120330D02*
X202167170Y-120083500D01*
X185351000Y-127451057D02*
X185351000Y-127733900D01*
X185450000Y-127352057D02*
X185351000Y-127451057D01*
X199294700Y-129004000D02*
X202945998Y-125352702D01*
X203204000Y-124444757D02*
X203204000Y-121120330D01*
X185450000Y-126460757D02*
X185450000Y-127352057D01*
X202946000Y-124702757D02*
X203204000Y-124444757D01*
X201546001Y-120083500D02*
X198800000Y-117337499D01*
X185339243Y-126350000D02*
X185450000Y-126460757D01*
X185351000Y-127733900D02*
X186621100Y-129004000D01*
X198164400Y-129004000D02*
X198167800Y-129000600D01*
X198800000Y-117337499D02*
X198800000Y-116600000D01*
X202945998Y-125352702D02*
X202945998Y-125200646D01*
X198835600Y-129004000D02*
X199294700Y-129004000D01*
%TO.N,COL_9*%
X202467870Y-119250000D02*
X204006000Y-120788130D01*
X186283957Y-130083900D02*
X198218700Y-130083900D01*
X203748000Y-125034957D02*
X203748000Y-125532844D01*
X204006000Y-124776957D02*
X203748000Y-125034957D01*
X202012501Y-119250000D02*
X202467870Y-119250000D01*
X199626900Y-129806000D02*
X198496600Y-129806000D01*
X203747999Y-125684901D02*
X199626900Y-129806000D01*
X184149000Y-127948943D02*
X186283957Y-130083900D01*
X204006000Y-120788130D02*
X204006000Y-124776957D01*
X200100000Y-117337499D02*
X202012501Y-119250000D01*
X184149000Y-127051000D02*
X184149000Y-127948943D01*
X198218700Y-130083900D02*
X198500000Y-129802600D01*
X203747998Y-125532846D02*
X203747999Y-125684901D01*
X203748000Y-125532844D02*
X203747998Y-125532846D01*
X200100000Y-116600000D02*
X200100000Y-117337499D01*
X184250000Y-126950000D02*
X184149000Y-127051000D01*
%TO.N,COL_0*%
X179700000Y-121800000D02*
X189702000Y-121800000D01*
X195032370Y-120500000D02*
X196200000Y-121667630D01*
X196200000Y-121667630D02*
X196200000Y-122325000D01*
X191002000Y-120500000D02*
X195032370Y-120500000D01*
X189702000Y-121800000D02*
X191002000Y-120500000D01*
X179250000Y-122250000D02*
X179700000Y-121800000D01*
%TO.N,COL_2*%
X180299000Y-123733900D02*
X180299000Y-123751000D01*
X197500000Y-122325000D02*
X197351000Y-122325000D01*
X183014400Y-122746000D02*
X182933500Y-122665100D01*
X191150057Y-124300000D02*
X190062400Y-124300000D01*
X195501070Y-124165500D02*
X195451600Y-124165500D01*
X197351000Y-123131370D02*
X197118870Y-123363500D01*
X197118870Y-123363500D02*
X197035970Y-123363500D01*
X180770800Y-123499000D02*
X180533900Y-123499000D01*
X196634970Y-123764500D02*
X195902070Y-123764500D01*
X180250000Y-123702000D02*
X180250000Y-123900000D01*
X195216100Y-124401000D02*
X191251057Y-124401000D01*
X180299000Y-123751000D02*
X180250000Y-123702000D01*
X188508400Y-122746000D02*
X183014400Y-122746000D01*
X180250000Y-123900000D02*
X180080832Y-124069168D01*
X195902070Y-123764500D02*
X195501070Y-124165500D01*
X190062400Y-124300000D02*
X188508400Y-122746000D01*
X195451600Y-124165500D02*
X195216100Y-124401000D01*
X191251057Y-124401000D02*
X191150057Y-124300000D01*
X180080832Y-124069168D02*
X180080832Y-125456592D01*
X181604700Y-122665100D02*
X180770800Y-123499000D01*
X197351000Y-122325000D02*
X197351000Y-123131370D01*
X182933500Y-122665100D02*
X181604700Y-122665100D01*
X197035970Y-123363500D02*
X196634970Y-123764500D01*
X180533900Y-123499000D02*
X180299000Y-123733900D01*
%TO.N,COL_4*%
X197934970Y-123764500D02*
X197852070Y-123764500D01*
X198800000Y-122325000D02*
X198651000Y-122325000D01*
X195783800Y-124967500D02*
X195548300Y-125203000D01*
X195833270Y-124967500D02*
X195783800Y-124967500D01*
X195548300Y-125203000D02*
X189831200Y-125203000D01*
X198335970Y-123363500D02*
X197934970Y-123764500D01*
X197451070Y-124165500D02*
X197368170Y-124165500D01*
X182601300Y-123467100D02*
X181936900Y-123467100D01*
X182682200Y-123548000D02*
X182601300Y-123467100D01*
X196967170Y-124566500D02*
X196234270Y-124566500D01*
X181384550Y-124186550D02*
X181301000Y-124103000D01*
X181301000Y-124103000D02*
X181301000Y-125399000D01*
X189831200Y-125203000D02*
X188176200Y-123548000D01*
X181384550Y-124019450D02*
X181384550Y-124186550D01*
X197852070Y-123764500D02*
X197451070Y-124165500D01*
X198651000Y-122325000D02*
X198651000Y-123131370D01*
X181936900Y-123467100D02*
X181384550Y-124019450D01*
X198651000Y-123131370D02*
X198418870Y-123363500D01*
X197368170Y-124165500D02*
X196967170Y-124566500D01*
X198418870Y-123363500D02*
X198335970Y-123363500D01*
X188176200Y-123548000D02*
X182682200Y-123548000D01*
X196234270Y-124566500D02*
X195833270Y-124967500D01*
X181301000Y-125399000D02*
X181000000Y-125700000D01*
%TO.N,COL_1*%
X183099600Y-122264100D02*
X183180500Y-122345000D01*
X188829500Y-122500000D02*
X191050000Y-122500000D01*
X188674500Y-122345000D02*
X188829500Y-122500000D01*
X191050000Y-122500000D02*
X192550000Y-124000000D01*
X196701000Y-123131370D02*
X196701000Y-122349000D01*
X181438600Y-122264100D02*
X183099600Y-122264100D01*
X195931130Y-123363500D02*
X196468870Y-123363500D01*
X181202700Y-122500000D02*
X181438600Y-122264100D01*
X183180500Y-122345000D02*
X188674500Y-122345000D01*
X180600000Y-122500000D02*
X181202700Y-122500000D01*
X195875000Y-123307370D02*
X195931130Y-123363500D01*
X196468870Y-123363500D02*
X196701000Y-123131370D01*
X195334970Y-123764500D02*
X195735970Y-123363500D01*
X195735970Y-123363500D02*
X195818870Y-123363500D01*
X195818870Y-123363500D02*
X195875000Y-123307370D01*
X195285500Y-123764500D02*
X195334970Y-123764500D01*
X195050000Y-124000000D02*
X195285500Y-123764500D01*
X196701000Y-122349000D02*
X196725000Y-122325000D01*
X196725000Y-122325000D02*
X196850000Y-122325000D01*
X192550000Y-124000000D02*
X195050000Y-124000000D01*
X179000000Y-124100000D02*
X180600000Y-122500000D01*
%TO.N,COL_13*%
X187302057Y-128202000D02*
X197832200Y-128202000D01*
X202402000Y-124112557D02*
X202144000Y-124370557D01*
X197500000Y-117337499D02*
X201048001Y-120885500D01*
X197500000Y-116600000D02*
X197500000Y-117337499D01*
X198965900Y-128198600D02*
X198365700Y-128198600D01*
X198266750Y-128099650D02*
X197934550Y-128099650D01*
X197832200Y-128202000D02*
X197942100Y-128092100D01*
X186820091Y-127720034D02*
X187302057Y-128202000D01*
X202143998Y-125020502D02*
X198965900Y-128198600D01*
X202144000Y-124370557D02*
X202144000Y-124868444D01*
X186820091Y-127403969D02*
X186820091Y-127720034D01*
X201048001Y-120885500D02*
X201834970Y-120885500D01*
X198365700Y-128198600D02*
X198266750Y-128099650D01*
X197934550Y-128099650D02*
X197832200Y-128202000D01*
X201834970Y-120885500D02*
X202402000Y-121452530D01*
X202143998Y-124868446D02*
X202143998Y-125020502D01*
X202144000Y-124868444D02*
X202143998Y-124868446D01*
X202402000Y-121452530D02*
X202402000Y-124112557D01*
%TO.N,ROW_1*%
X164450057Y-127100000D02*
X159000000Y-121649943D01*
X159000000Y-121649943D02*
X159000000Y-106037100D01*
X161657100Y-103380000D02*
X162000000Y-103380000D01*
X159000000Y-106037100D02*
X161657100Y-103380000D01*
%TO.N,COL_6*%
X197861029Y-125500000D02*
X199610700Y-123750329D01*
X181275000Y-127375000D02*
X182269100Y-126380900D01*
X182269100Y-126380900D02*
X182269100Y-124269100D01*
X200100000Y-123261029D02*
X200100000Y-122325000D01*
X189594000Y-126100000D02*
X196300000Y-126100000D01*
X182350000Y-124350000D02*
X187844000Y-124350000D01*
X199610700Y-123750329D02*
X200100000Y-123261029D01*
X196300000Y-126100000D02*
X196900000Y-125500000D01*
X187844000Y-124350000D02*
X189594000Y-126100000D01*
X196900000Y-125500000D02*
X197861029Y-125500000D01*
X182269100Y-124269100D02*
X182350000Y-124350000D01*
%TO.N,COL_10*%
X203346998Y-125518802D02*
X203346998Y-125366746D01*
X203605000Y-124610857D02*
X203605000Y-120954230D01*
X198669500Y-129405000D02*
X199460800Y-129405000D01*
X203347000Y-124868857D02*
X203605000Y-124610857D01*
X202333270Y-119682500D02*
X201795001Y-119682500D01*
X203347000Y-125366744D02*
X203347000Y-124868857D01*
X199460800Y-129405000D02*
X203346998Y-125518802D01*
X198666100Y-129401600D02*
X198669500Y-129405000D01*
X203346998Y-125366746D02*
X203347000Y-125366744D01*
X201795001Y-119682500D02*
X199450000Y-117337499D01*
X199450000Y-117337499D02*
X199450000Y-116600000D01*
X198333900Y-129401600D02*
X198666100Y-129401600D01*
X184750000Y-127700000D02*
X186500000Y-129450000D01*
X203605000Y-120954230D02*
X202333270Y-119682500D01*
X186500000Y-129450000D02*
X198285500Y-129450000D01*
X198285500Y-129450000D02*
X198333900Y-129401600D01*
%TO.N,COL_5*%
X198101070Y-124165500D02*
X198502070Y-123764500D01*
X197133270Y-124967500D02*
X197534270Y-124566500D01*
X198018170Y-124165500D02*
X198101070Y-124165500D01*
X189760100Y-125699000D02*
X190733900Y-125699000D01*
X198985970Y-123363500D02*
X199068870Y-123363500D01*
X181250000Y-126500000D02*
X181785550Y-125964450D01*
X199068870Y-123363500D02*
X199301000Y-123131370D01*
X199375000Y-122325000D02*
X199450000Y-122325000D01*
X190733900Y-125699000D02*
X190782900Y-125650000D01*
X199301000Y-122399000D02*
X199375000Y-122325000D01*
X195949900Y-125368500D02*
X195999370Y-125368500D01*
X181785550Y-124185550D02*
X181868100Y-124268100D01*
X196367870Y-125000000D02*
X196700000Y-125000000D01*
X196700000Y-125000000D02*
X196732500Y-124967500D01*
X181868100Y-124103000D02*
X182103000Y-123868100D01*
X182435200Y-123868100D02*
X182516100Y-123949000D01*
X196732500Y-124967500D02*
X197133270Y-124967500D01*
X195714400Y-125604000D02*
X195949900Y-125368500D01*
X194996000Y-125604000D02*
X195714400Y-125604000D01*
X199301000Y-123131370D02*
X199301000Y-122399000D01*
X190782900Y-125650000D02*
X194950000Y-125650000D01*
X194950000Y-125650000D02*
X194996000Y-125604000D01*
X195999370Y-125368500D02*
X196367870Y-125000000D01*
X182103000Y-123868100D02*
X182435200Y-123868100D01*
X181868100Y-124268100D02*
X181868100Y-124103000D01*
X197534270Y-124566500D02*
X197617170Y-124566500D01*
X181785550Y-125964450D02*
X181785550Y-124185550D01*
X188010100Y-123949000D02*
X189760100Y-125699000D01*
X198584970Y-123764500D02*
X198985970Y-123363500D01*
X198502070Y-123764500D02*
X198584970Y-123764500D01*
X182516100Y-123949000D02*
X188010100Y-123949000D01*
X197617170Y-124566500D02*
X198018170Y-124165500D01*
%TO.N,COL_8*%
X199515100Y-130484900D02*
X204225029Y-125774971D01*
X202261501Y-118849000D02*
X200750000Y-117337499D01*
X204225029Y-125774971D02*
X204149000Y-125698943D01*
X183400000Y-127767043D02*
X186117857Y-130484900D01*
X204149000Y-125698943D02*
X204149000Y-125201057D01*
X182917043Y-127767043D02*
X183400000Y-127767043D01*
X204407000Y-120622030D02*
X202633970Y-118849000D01*
X186117857Y-130484900D02*
X199515100Y-130484900D01*
X200750000Y-117337499D02*
X200750000Y-116600000D01*
X202633970Y-118849000D02*
X202261501Y-118849000D01*
X182850000Y-127700000D02*
X182917043Y-127767043D01*
X204407000Y-124943057D02*
X204407000Y-120622030D01*
X204149000Y-125201057D02*
X204407000Y-124943057D01*
%TO.N,ROW_2*%
X177735000Y-118942900D02*
X168927900Y-127750000D01*
X168927900Y-127750000D02*
X165250000Y-127750000D01*
X165250000Y-127750000D02*
X164350000Y-128650000D01*
X177735000Y-118600000D02*
X177735000Y-118942900D01*
%TO.N,ROW_0*%
X170700000Y-127200000D02*
X168649000Y-129251000D01*
X163749000Y-127696943D02*
X158500000Y-122447943D01*
X162000000Y-102110000D02*
X161322900Y-102110000D01*
X163749000Y-128898943D02*
X163749000Y-127696943D01*
X158500000Y-105122300D02*
X161512300Y-102110000D01*
X158500000Y-122447943D02*
X158500000Y-105122300D01*
X168649000Y-129251000D02*
X164101057Y-129251000D01*
X161512300Y-102110000D02*
X162000000Y-102110000D01*
X164101057Y-129251000D02*
X163749000Y-128898943D01*
%TO.N,COL_12*%
X186072466Y-127539509D02*
X187135957Y-128603000D01*
X198998300Y-128599600D02*
X198001700Y-128599600D01*
X198001700Y-128599600D02*
X197998300Y-128603000D01*
X202544998Y-125186602D02*
X199128600Y-128603000D01*
X202545000Y-125034544D02*
X202544998Y-125034546D01*
X202545000Y-124536657D02*
X202545000Y-125034544D01*
X202001070Y-120484500D02*
X202803000Y-121286430D01*
X198150000Y-117400000D02*
X201234500Y-120484500D01*
X202544998Y-125034546D02*
X202544998Y-125186602D01*
X202803000Y-124278657D02*
X202545000Y-124536657D01*
X186031654Y-127539509D02*
X186072466Y-127539509D01*
X199001700Y-128603000D02*
X198998300Y-128599600D01*
X199128600Y-128603000D02*
X199001700Y-128603000D01*
X187135957Y-128603000D02*
X197998300Y-128603000D01*
X202803000Y-121286430D02*
X202803000Y-124278657D01*
X201234500Y-120484500D02*
X202001070Y-120484500D01*
X198150000Y-116600000D02*
X198150000Y-117400000D01*
%TO.N,COL_7*%
X184550000Y-125300000D02*
X185139186Y-125300000D01*
X200750000Y-123460972D02*
X200750000Y-122325000D01*
X185139186Y-125300000D02*
X186339186Y-126500000D01*
X184300000Y-125300000D02*
X182925000Y-126675000D01*
X186339186Y-126500000D02*
X199200000Y-126500000D01*
X199400000Y-124810972D02*
X200750000Y-123460972D01*
X199200000Y-126500000D02*
X199400000Y-126300000D01*
X199400000Y-126300000D02*
X199400000Y-124810972D01*
X184550000Y-125300000D02*
X184300000Y-125300000D01*
X182925000Y-126675000D02*
X182900000Y-126700000D01*
%TO.N,COL_3*%
X198001000Y-123131370D02*
X198001000Y-122325000D01*
X197685970Y-123363500D02*
X197768870Y-123363500D01*
X197284970Y-123764500D02*
X197685970Y-123363500D01*
X195667170Y-124566500D02*
X196068170Y-124165500D01*
X198001000Y-122325000D02*
X198150000Y-122325000D01*
X182767400Y-123066100D02*
X182848300Y-123147000D01*
X197768870Y-123363500D02*
X198001000Y-123131370D01*
X180700000Y-124950000D02*
X180700000Y-123900000D01*
X196068170Y-124165500D02*
X196801070Y-124165500D01*
X195617700Y-124566500D02*
X195667170Y-124566500D01*
X180900000Y-124100000D02*
X180900000Y-123936900D01*
X188342300Y-123147000D02*
X189997300Y-124802000D01*
X180900000Y-123936900D02*
X181770800Y-123066100D01*
X189997300Y-124802000D02*
X195382200Y-124802000D01*
X197202070Y-123764500D02*
X197284970Y-123764500D01*
X181770800Y-123066100D02*
X182767400Y-123066100D01*
X182848300Y-123147000D02*
X188342300Y-123147000D01*
X196801070Y-124165500D02*
X197202070Y-123764500D01*
X180700000Y-123900000D02*
X180900000Y-124100000D01*
X195382200Y-124802000D02*
X195617700Y-124566500D01*
%TO.N,COL_14*%
X188452000Y-126950000D02*
X187800000Y-127602000D01*
X198115750Y-127698650D02*
X198016100Y-127599000D01*
X198531800Y-127797600D02*
X198432850Y-127698650D01*
X201743000Y-124702344D02*
X201742998Y-124702346D01*
X198432850Y-127698650D02*
X198115750Y-127698650D01*
X201742998Y-124702346D02*
X201742998Y-124854402D01*
X196850000Y-116600000D02*
X196850000Y-117350000D01*
X201742998Y-124854402D02*
X198799800Y-127797600D01*
X198799800Y-127797600D02*
X198531800Y-127797600D01*
X201668870Y-121286500D02*
X202001000Y-121618630D01*
X196850000Y-117350000D02*
X200786500Y-121286500D01*
X201743000Y-124204457D02*
X201743000Y-124702344D01*
X202001000Y-123946457D02*
X201743000Y-124204457D01*
X202001000Y-121618630D02*
X202001000Y-123946457D01*
X198016100Y-127599000D02*
X197666100Y-127599000D01*
X197666100Y-127599000D02*
X197017100Y-126950000D01*
X197017100Y-126950000D02*
X188452000Y-126950000D01*
X200786500Y-121286500D02*
X201668870Y-121286500D01*
%TO.N,D-*%
X196500000Y-103500000D02*
X196500000Y-110500000D01*
X196500000Y-110500000D02*
X191250000Y-115750000D01*
X179830000Y-115750000D02*
X179500000Y-116080000D01*
X191250000Y-115750000D02*
X179830000Y-115750000D01*
%TO.N,D+*%
X197899000Y-109601000D02*
X197899000Y-103649000D01*
X196901000Y-110666100D02*
X196901000Y-110599000D01*
X191349000Y-116151000D02*
X191416100Y-116151000D01*
X179500000Y-117350000D02*
X179951000Y-116899000D01*
X196901000Y-110599000D02*
X197899000Y-109601000D01*
X191416100Y-116151000D02*
X196901000Y-110666100D01*
X179951000Y-116899000D02*
X190601000Y-116899000D01*
X190601000Y-116899000D02*
X191349000Y-116151000D01*
X197899000Y-103649000D02*
X197500000Y-103250000D01*
%TO.N,SPI_SCK*%
X171385000Y-119635000D02*
X171385000Y-118600000D01*
X172750000Y-121000000D02*
X171385000Y-119635000D01*
X172750000Y-121250000D02*
X172750000Y-121000000D01*
%TO.N,SPI_MOSI*%
X170115000Y-119595000D02*
X170115000Y-118600000D01*
X168480000Y-121230000D02*
X170115000Y-119595000D01*
%TO.N,CS*%
X167250000Y-124750000D02*
X166000000Y-123500000D01*
X166000000Y-123500000D02*
X166000000Y-121932700D01*
X168845000Y-119087700D02*
X168845000Y-118600000D01*
X166000000Y-121932700D02*
X168845000Y-119087700D01*
X171020000Y-122500000D02*
X168770000Y-124750000D01*
X168770000Y-124750000D02*
X167250000Y-124750000D01*
%TO.N,SPI_MISO*%
X173450028Y-121399915D02*
X173450028Y-120549971D01*
X172501057Y-121851000D02*
X172998943Y-121851000D01*
X172998943Y-121851000D02*
X173450028Y-121399915D01*
X173450028Y-120549971D02*
X172655000Y-119754943D01*
X172149000Y-121001057D02*
X172149000Y-121498943D01*
X170551000Y-120429000D02*
X171576943Y-120429000D01*
X171576943Y-120429000D02*
X172149000Y-121001057D01*
X172149000Y-121498943D02*
X172501057Y-121851000D01*
X172655000Y-119754943D02*
X172655000Y-118600000D01*
X169750000Y-121230000D02*
X170551000Y-120429000D01*
%TO.N,ADC_BAT*%
X180802900Y-114500000D02*
X179842900Y-113540000D01*
X187250000Y-114500000D02*
X180802900Y-114500000D01*
X179842900Y-113540000D02*
X179500000Y-113540000D01*
X188250000Y-113500000D02*
X187250000Y-114500000D01*
%TO.N,Net-(MAX1-In)*%
X170550000Y-100000000D02*
X172000000Y-100000000D01*
X169000000Y-101550000D02*
X170550000Y-100000000D01*
D28*
%TO.N,VBAT*%
X215000000Y-112460000D02*
X215500000Y-112960000D01*
X215000000Y-111000000D02*
X215000000Y-112460000D01*
X213000000Y-115460000D02*
X215500000Y-112960000D01*
X215000000Y-111000000D02*
X215000000Y-108500000D01*
X215000000Y-108500000D02*
X214500000Y-108000000D01*
X213000000Y-119500000D02*
X213000000Y-115460000D01*
%TO.N,Net-(Q1-G)*%
X211000000Y-118850000D02*
X209350000Y-120500000D01*
X211000000Y-118000000D02*
X211000000Y-118850000D01*
X211000000Y-115500000D02*
X211000000Y-118000000D01*
D27*
%TO.N,PWR_OFF*%
X163765000Y-113985000D02*
X163765000Y-118600000D01*
X165250000Y-101750000D02*
X165250000Y-112500000D01*
X165250000Y-112500000D02*
X163765000Y-113985000D01*
X165750000Y-101250000D02*
X165250000Y-101750000D01*
X165750000Y-100750000D02*
X165750000Y-101250000D01*
%TO.N,MOT_SIG*%
X189751057Y-113101000D02*
X190248943Y-113101000D01*
X189399000Y-112748943D02*
X189751057Y-113101000D01*
X181351000Y-113601000D02*
X183248943Y-113601000D01*
X184101000Y-112748943D02*
X189399000Y-112748943D01*
X197748943Y-102649000D02*
X202500000Y-107400057D01*
X195899000Y-103251057D02*
X196501057Y-102649000D01*
X210224000Y-121276000D02*
X211000000Y-120500000D01*
X202500000Y-112000000D02*
X207750000Y-117250000D01*
X179500000Y-112270000D02*
X180020000Y-112270000D01*
X207750000Y-117250000D02*
X207750000Y-120089064D01*
X190248943Y-113101000D02*
X195899000Y-107450943D01*
X195899000Y-107450943D02*
X195899000Y-103251057D01*
X207750000Y-120089064D02*
X208936936Y-121276000D01*
X196501057Y-102649000D02*
X197748943Y-102649000D01*
X202500000Y-107400057D02*
X202500000Y-112000000D01*
X208936936Y-121276000D02*
X210224000Y-121276000D01*
X180020000Y-112270000D02*
X181351000Y-113601000D01*
X183248943Y-113601000D02*
X184101000Y-112748943D01*
%TO.N,S3*%
X178250000Y-110750000D02*
X178250000Y-110030700D01*
X178550700Y-109730000D02*
X179500000Y-109730000D01*
X194250000Y-116600000D02*
X194250000Y-115500000D01*
X178250000Y-110030700D02*
X178550700Y-109730000D01*
%TO.N,GP16_E*%
X195550000Y-115500000D02*
X195550000Y-115300000D01*
X195550000Y-116600000D02*
X195550000Y-115500000D01*
%TO.N,S0*%
X182500000Y-108500000D02*
X182500000Y-111150057D01*
X193750000Y-121100000D02*
X192500000Y-122350000D01*
X182399000Y-111748943D02*
X182500000Y-111849943D01*
X195168870Y-123363500D02*
X195550000Y-122982370D01*
X192500000Y-122350000D02*
X192500000Y-123000000D01*
X182399000Y-111251057D02*
X182399000Y-111748943D01*
X182500000Y-111849943D02*
X182500000Y-112500000D01*
X179920000Y-105920000D02*
X182500000Y-108500000D01*
X192500000Y-123000000D02*
X192863500Y-123363500D01*
X195550000Y-122982370D02*
X195550000Y-122325000D01*
X182500000Y-111150057D02*
X182399000Y-111251057D01*
X192863500Y-123363500D02*
X195168870Y-123363500D01*
X179500000Y-105920000D02*
X179920000Y-105920000D01*
X182500000Y-112500000D02*
X183000000Y-113000000D01*
%TO.N,S2*%
X179500000Y-108460000D02*
X179987700Y-108460000D01*
X181000000Y-109472300D02*
X181000000Y-111000000D01*
X179987700Y-108460000D02*
X181000000Y-109472300D01*
X194900000Y-116600000D02*
X194900000Y-117750000D01*
%TO.N,S1*%
X194900000Y-121400000D02*
X194625000Y-121125000D01*
X194900000Y-122325000D02*
X194900000Y-121400000D01*
X179500000Y-107190000D02*
X179842900Y-107190000D01*
X179842900Y-107190000D02*
X181750000Y-109097100D01*
X194625000Y-121125000D02*
X194500000Y-121000000D01*
X181750000Y-109097100D02*
X181750000Y-111750000D01*
%TO.N,MENU*%
X160500000Y-118750000D02*
X161642300Y-118750000D01*
X161642300Y-118750000D02*
X162542600Y-119650300D01*
X167575000Y-118942900D02*
X167575000Y-118600000D01*
X162542600Y-119650300D02*
X166867600Y-119650300D01*
X166867600Y-119650300D02*
X167575000Y-118942900D01*
%TO.N,100*%
X163364000Y-111485000D02*
X164849000Y-110000000D01*
X162000000Y-117350000D02*
X162650000Y-117350000D01*
X189899000Y-99399000D02*
X191500000Y-101000000D01*
X164849000Y-110000000D02*
X164849000Y-100801057D01*
X162650000Y-117350000D02*
X163364000Y-116636000D01*
X164849000Y-100801057D02*
X166251057Y-99399000D01*
X166251057Y-99399000D02*
X189899000Y-99399000D01*
X163364000Y-116636000D02*
X163364000Y-111485000D01*
X162000000Y-117350000D02*
X161512300Y-117350000D01*
%TO.N,SELECT*%
X173925000Y-119825000D02*
X173750000Y-120000000D01*
X173925000Y-118600000D02*
X173925000Y-119825000D01*
%TO.N,RX*%
X163500000Y-121750000D02*
X163500000Y-121174800D01*
X161787600Y-119462400D02*
X160362457Y-119462400D01*
X163500000Y-121174800D02*
X161787600Y-119462400D01*
X161657100Y-105920000D02*
X162000000Y-105920000D01*
X160362457Y-119462400D02*
X159899000Y-118998943D01*
X159899000Y-118998943D02*
X159899000Y-107678100D01*
X159899000Y-107678100D02*
X161657100Y-105920000D01*
%TO.N,TX*%
X163969000Y-122551000D02*
X161429000Y-122551000D01*
X164770000Y-121750000D02*
X163969000Y-122551000D01*
X161429000Y-122551000D02*
X159498000Y-120620000D01*
X160954200Y-104650000D02*
X162000000Y-104650000D01*
X159498000Y-120620000D02*
X159498000Y-106106200D01*
X159498000Y-106106200D02*
X160954200Y-104650000D01*
%TD*%
M02*
